<?xml version="1.0" standalone="no"?>
<!DOCTYPE svg PUBLIC "-//W3C//DTD SVG 1.1//EN" "http://www.w3.org/Graphics/SVG/1.1/DTD/svg11.dtd" >
<svg xmlns="http://www.w3.org/2000/svg" xmlns:xlink="http://www.w3.org/1999/xlink" version="1.1">
<metadata>
Created by FontForge 20201107 at Sun Feb  2 18:51:33 2025
 By 
Copyright (c) 2016 by Botio Nikoltchev. All rights reserved.
</metadata>
<defs>
<font id="Quasimoda-Light" horiz-adv-x="0" >
  <font-face 
    font-family="Quasimoda Light"
    font-weight="300"
    font-stretch="normal"
    units-per-em="2048"
    panose-1="0 0 4 0 0 0 0 0 0 0"
    ascent="1638"
    descent="-410"
    x-height="899"
    cap-height="1450"
    bbox="-1167 -571 2537 2277"
    underline-thickness="102"
    underline-position="-204"
    unicode-range="U+000D-FB02"
  />
<missing-glyph horiz-adv-x="1343" 
d="M205 1522h934v-1522h-934v1522zM1020 109v1304h-696v-1304h696zM500 995l-21 -8l-78 17q19 104 91.5 164.5t179.5 60.5q113 0 183.5 -64t70.5 -166q0 -75 -27.5 -128t-95.5 -109q-61 -51 -79 -83t-19 -91l-3 -68h-96l-2 70q-2 65 23.5 115.5t83.5 101.5q66 56 87 94.5
t21 93.5q0 63 -41.5 103.5t-109.5 40.5q-66 0 -110.5 -37.5t-57.5 -106.5zM662 252q-32 0 -55 22t-23 54q0 33 22.5 55.5t55.5 22.5q31 0 53 -22.5t22 -55.5q0 -32 -22 -54t-53 -22z" />
    <glyph glyph-name="f_i" unicode="fi" horiz-adv-x="1036" 
d="M600 1405l-12 -6q-60 26 -111 26q-79 0 -113.5 -59.5t-35.5 -206.5v-260h254v-92h-254v-807h-105v807h-178v92h178v252q0 202 58 288.5t190 86.5q69 0 137 -27zM805 1239q-34 0 -58 24t-24 60t24 61t58 25q35 0 59.5 -25.5t24.5 -60.5q0 -36 -24 -60t-60 -24zM858 0h-104
v899h104v-899z" />
    <glyph glyph-name="f_l" unicode="fl" horiz-adv-x="1046" 
d="M600 1405l-12 -6q-60 26 -111 26q-79 0 -113.5 -59.5t-35.5 -206.5v-260h254v-92h-254v-807h-105v807h-178v92h178v252q0 202 58 288.5t190 86.5q69 0 137 -27zM868 0h-104v1501h104v-1501z" />
    <glyph glyph-name=".notdef" horiz-adv-x="1343" 
d="M205 1522h934v-1522h-934v1522zM1020 109v1304h-696v-1304h696zM500 995l-21 -8l-78 17q19 104 91.5 164.5t179.5 60.5q113 0 183.5 -64t70.5 -166q0 -75 -27.5 -128t-95.5 -109q-61 -51 -79 -83t-19 -91l-3 -68h-96l-2 70q-2 65 23.5 115.5t83.5 101.5q66 56 87 94.5
t21 93.5q0 63 -41.5 103.5t-109.5 40.5q-66 0 -110.5 -37.5t-57.5 -106.5zM662 252q-32 0 -55 22t-23 54q0 33 22.5 55.5t55.5 22.5q31 0 53 -22.5t22 -55.5q0 -32 -22 -54t-53 -22z" />
    <glyph glyph-name=".null" 
 />
    <glyph glyph-name="nonmarkingreturn" horiz-adv-x="682" 
 />
    <glyph glyph-name="NULL" 
 />
    <glyph glyph-name="NULL" 
 />
    <glyph glyph-name="CR" unicode="&#xd;" horiz-adv-x="622" 
 />
    <glyph glyph-name="space" unicode=" " horiz-adv-x="622" 
 />
    <glyph glyph-name="exclam" unicode="!" horiz-adv-x="657" 
d="M381 393h-102l-7 1057h113zM330 -20q-37 0 -61.5 25.5t-24.5 62.5t24.5 62.5t61.5 25.5q35 0 59.5 -25.5t24.5 -62.5t-24 -62.5t-60 -25.5z" />
    <glyph glyph-name="quotedbl" unicode="&#x22;" horiz-adv-x="661" 
d="M219 893h-88v557h88v-557zM528 893h-88v557h88v-557z" />
    <glyph glyph-name="numbersign" unicode="#" horiz-adv-x="1398" 
d="M1292 1051v-107h-217l-61 -438h258v-107h-273l-57 -399h-117l58 399h-457l-57 -399h-117l57 399h-203v107h218l61 438h-258v107h272l58 399h116l-57 -399h457l57 399h117l-57 -399h202zM440 506h457l61 438h-456z" />
    <glyph glyph-name="dollar" unicode="$" horiz-adv-x="1433" 
d="M1171 350q0 -156 -113.5 -265.5t-287.5 -119.5v-145h-90v145q-145 11 -250.5 83t-183.5 222l84 58l24 -4q64 -122 142.5 -183t183.5 -73v657q-212 93 -297.5 188.5t-85.5 233.5q0 144 104 239.5t279 102.5v143h90v-147q232 -20 348 -228l-82 -55l-24 4q-45 78 -102.5 122
t-139.5 56v-567q121 -55 198.5 -106t122.5 -107.5t62.5 -115t17.5 -138.5zM416 1151q0 -92 55 -153.5t209 -137.5v529q-120 -7 -192 -74t-72 -164zM770 684v-616q124 10 203.5 91t79.5 191q0 105 -61 180t-222 154z" />
    <glyph glyph-name="percent" unicode="%" horiz-adv-x="1851" 
d="M502 793q-145 0 -243.5 98t-98.5 244q0 145 98.5 244.5t243.5 99.5q143 0 241.5 -99.5t98.5 -244.5q0 -146 -98.5 -244t-241.5 -98zM553 0h-117l864 1450h117zM502 883q102 0 172.5 72.5t70.5 179.5q0 105 -70.5 178t-172.5 73q-103 0 -173.5 -72.5t-70.5 -178.5
q0 -107 70.5 -179.5t173.5 -72.5zM1352 -29q-145 0 -243.5 99.5t-98.5 244.5q0 146 98.5 244t243.5 98q143 0 241.5 -98t98.5 -244q0 -145 -98.5 -244.5t-241.5 -99.5zM1352 63q101 0 171 73t70 179q0 107 -69.5 179.5t-171.5 72.5q-103 0 -173.5 -72.5t-70.5 -179.5
q0 -106 70.5 -179t173.5 -73z" />
    <glyph glyph-name="ampersand" unicode="&#x26;" horiz-adv-x="1323" 
d="M1061 279l274 -279h-145l-186 190q-173 -229 -445 -229q-193 0 -314.5 115t-123.5 297q0 128 73 228.5t224 182.5q-105 112 -150 200.5t-45 176.5q0 146 94 237t246 91q143 0 238.5 -86t95.5 -215q0 -132 -74 -232.5t-237 -191.5l401 -410q92 170 137 422l13 8h102
q-67 -318 -178 -505zM330 1167q0 -75 47 -154.5t137 -176.5l2 -2q149 88 210.5 168t61.5 180q0 91 -63.5 153t-163.5 62q-102 0 -166.5 -65.5t-64.5 -164.5zM561 61q221 0 369 203l-441 449q-135 -74 -196 -155t-60 -187q2 -135 94 -222.5t234 -87.5z" />
    <glyph glyph-name="quotesingle" unicode="'" horiz-adv-x="385" 
d="M240 893h-88v557h88v-557z" />
    <glyph glyph-name="parenleft" unicode="(" horiz-adv-x="606" 
d="M467 -274l-86 -56q-134 185 -210.5 430t-76.5 490t76.5 489.5t210.5 429.5l86 -55q-124 -171 -196 -404t-72 -460t72 -460t196 -404z" />
    <glyph glyph-name="parenright" unicode=")" horiz-adv-x="643" 
d="M225 -330l-84 56q123 172 195 405t72 459t-72 459t-195 405l84 55q134 -185 210.5 -429.5t76.5 -489.5t-76.5 -490t-210.5 -430z" />
    <glyph glyph-name="asterisk" unicode="*" horiz-adv-x="841" 
d="M231 743h-18l-49 39l-2 17l194 256l-305 92l-6 14l23 62l14 6l299 -101l-4 312l12 10h64l12 -10l-4 -312l299 101l16 -6l21 -62l-6 -14l-306 -92l195 -256l-2 -17l-49 -39h-17l-190 269z" />
    <glyph glyph-name="plus" unicode="+" horiz-adv-x="1433" 
d="M760 668h487v-88h-487v-486h-86v486h-488v88h488v487h86v-487z" />
    <glyph glyph-name="comma" unicode="," horiz-adv-x="516" 
d="M381 182l-217 -499l-78 30l178 504l15 6z" />
    <glyph glyph-name="hyphen" unicode="-" horiz-adv-x="645" 
d="M557 418h-467v96h467v-96z" />
    <glyph glyph-name="period" unicode="." horiz-adv-x="524" 
d="M262 -20q-35 0 -60.5 25.5t-25.5 62.5t25.5 62.5t60.5 25.5t60.5 -25.5t25.5 -62.5t-25.5 -62.5t-60.5 -25.5z" />
    <glyph glyph-name="slash" unicode="/" horiz-adv-x="731" 
d="M598 1450h111l-572 -1448h-112z" />
    <glyph glyph-name="zero" unicode="0" horiz-adv-x="1273" 
d="M637 -39q-232 0 -366 204.5t-134 561.5q0 354 134 558t366 204t366 -204t134 -558q0 -357 -134 -561.5t-366 -204.5zM637 68q179 0 281 176t102 485q0 304 -103 478.5t-280 174.5q-179 0 -281 -174.5t-102 -480.5t103 -482.5t280 -176.5z" />
    <glyph glyph-name="one" unicode="1" horiz-adv-x="729" 
d="M500 0h-115v1143q0 121 2 172l-4 2q-50 -35 -96 -60l-213 -122l-13 6l11 121l403 215h25v-1477z" />
    <glyph glyph-name="two" unicode="2" horiz-adv-x="1062" 
d="M946 0h-893v25l387 395q210 215 308 371.5t98 300.5q0 132 -82.5 212.5t-220.5 79.5q-149 0 -241.5 -83t-123.5 -242l-24 -15l-86 15q32 209 158.5 319.5t324.5 110.5q182 0 297 -108.5t115 -282.5q0 -151 -88.5 -309.5t-270.5 -348.5l-160 -166l-168 -168l3 -2
q80 2 235 2h432v-106z" />
    <glyph glyph-name="three" unicode="3" horiz-adv-x="1091" 
d="M551 -39q-202 0 -328.5 110t-148.5 304l88 14l24 -12q17 -141 115.5 -226t245.5 -85q152 0 244 88t92 233q0 155 -96 237.5t-279 82.5h-51v98h47q173 0 264.5 79.5t91.5 225.5q0 121 -83.5 197.5t-219.5 76.5q-135 0 -224.5 -74.5t-115.5 -209.5l-22 -13l-91 13
q25 179 149 284t310 105q182 0 299 -103.5t117 -267.5q0 -135 -75 -233t-210 -131q140 -22 222.5 -121t82.5 -244q0 -187 -126.5 -307.5t-321.5 -120.5z" />
    <glyph glyph-name="four" unicode="4" horiz-adv-x="1173" 
d="M918 0h-115v334h-752v37l817 1106h50v-1037h172v-106h-172v-334zM694 1067l-463 -627h572v471q0 206 16 340h-2q-56 -96 -123 -184z" />
    <glyph glyph-name="five" unicode="5" horiz-adv-x="1107" 
d="M539 -39q-195 0 -320 103.5t-145 283.5l90 17l24 -15q19 -135 112.5 -209.5t242.5 -74.5q160 0 259 107t99 280q0 163 -99.5 263.5t-262.5 100.5q-193 0 -344 -119l-29 11l47 741h700v-107h-600l-32 -503q137 73 292 73q198 0 321.5 -125.5t123.5 -326.5
q0 -222 -133 -361t-346 -139z" />
    <glyph glyph-name="six" unicode="6" horiz-adv-x="1161" 
d="M565 -39q-210 0 -334.5 129t-124.5 350q0 121 54.5 236.5t187.5 304.5l359 516l88 -51l2 -19l-285 -401q-56 -76 -193 -244l5 -2q55 52 130.5 82.5t153.5 30.5q190 0 310 -126.5t120 -328.5q0 -215 -131 -346t-342 -131zM571 63q155 0 253 103t98 266q0 164 -95 263.5
t-249 99.5q-158 0 -256.5 -102t-98.5 -265t96.5 -264t251.5 -101z" />
    <glyph glyph-name="seven" unicode="7" horiz-adv-x="921" 
d="M129 -2l633 1345h-750v107h906v-25l-685 -1460l-24 -4z" />
    <glyph glyph-name="eight" unicode="8" horiz-adv-x="1095" 
d="M547 -39q-218 0 -341.5 114t-123.5 308q0 146 79 248.5t224 142.5q-123 38 -186.5 125.5t-63.5 218.5q0 163 112.5 267t299.5 104t300.5 -104t113.5 -267q0 -129 -63.5 -216.5t-186.5 -127.5q145 -40 224 -142.5t79 -248.5q0 -194 -124 -308t-343 -114zM547 831
q137 0 218 76t81 205q0 127 -82.5 206t-216.5 79t-216.5 -79t-82.5 -206q0 -129 80.5 -205t218.5 -76zM547 61q164 0 258 88.5t94 241.5q0 151 -95.5 240.5t-256.5 89.5t-255.5 -89.5t-94.5 -240.5q0 -153 94 -241.5t256 -88.5z" />
    <glyph glyph-name="nine" unicode="9" horiz-adv-x="1159" 
d="M797 469l-355 -508l-88 51l-2 19l281 393q113 149 190 246l-4 2q-54 -54 -129.5 -84.5t-152.5 -30.5q-190 0 -311.5 126.5t-121.5 328.5q0 216 131.5 346.5t348.5 130.5q207 0 330.5 -129t123.5 -344q0 -71 -16.5 -138t-55.5 -140.5t-72.5 -126t-96.5 -142.5zM571 655
q155 0 253 102.5t98 264.5q0 164 -96.5 265.5t-250.5 101.5q-156 0 -255 -103.5t-99 -263.5q0 -167 95.5 -267t254.5 -100z" />
    <glyph glyph-name="colon" unicode=":" horiz-adv-x="575" 
d="M287 702q-35 0 -59.5 24.5t-24.5 61.5t24.5 63t59.5 26q36 0 61 -26t25 -63t-24.5 -61.5t-61.5 -24.5zM287 -20q-35 0 -59.5 25.5t-24.5 62.5t24.5 62.5t59.5 25.5q37 0 61.5 -25.5t24.5 -62.5t-24.5 -62.5t-61.5 -25.5z" />
    <glyph glyph-name="semicolon" unicode=";" horiz-adv-x="647" 
d="M358 702q-35 0 -59.5 24.5t-24.5 61.5t24.5 63t59.5 26q36 0 61 -26t25 -63t-24.5 -61.5t-61.5 -24.5zM412 182l-217 -499l-78 30l178 504l14 6z" />
    <glyph glyph-name="less" unicode="&#x3c;" horiz-adv-x="1433" 
d="M203 659l1028 482v-92l-918 -426l918 -426v-91l-1028 478v75z" />
    <glyph glyph-name="equal" unicode="=" horiz-adv-x="1433" 
d="M1247 774h-1061v86h1061v-86zM1247 383h-1061v88h1061v-88z" />
    <glyph glyph-name="greater" unicode="&#x3e;" horiz-adv-x="1433" 
d="M203 1049v92l1028 -482v-75l-1028 -478v91l917 426z" />
    <glyph glyph-name="question" unicode="?" horiz-adv-x="1071" 
d="M555 393h-104l-2 117q0 94 36.5 168.5t118.5 144.5q109 92 145.5 160t36.5 162q0 107 -71 176.5t-187 69.5q-121 0 -198.5 -64.5t-100.5 -185.5l-22 -8l-88 16q29 158 139.5 249t273.5 91t264 -94t101 -246q0 -113 -40.5 -195.5t-141.5 -165.5q-98 -81 -128 -136
t-32 -152v-107zM510 -20q-35 0 -59.5 25.5t-24.5 62.5t24.5 62.5t59.5 25.5q37 0 61.5 -25.5t24.5 -62.5t-24.5 -62.5t-61.5 -25.5z" />
    <glyph glyph-name="at" unicode="@" horiz-adv-x="1783" 
d="M918 -328q-237 0 -419.5 100t-283 282.5t-100.5 420.5q0 168 61.5 317t168 255.5t255 168.5t315.5 62q217 0 389 -87t267.5 -243t95.5 -354q0 -229 -114 -377.5t-289 -148.5q-88 0 -137 50t-42 136q-45 -87 -121 -136.5t-157 -49.5q-136 0 -216.5 90.5t-80.5 242.5
q0 205 117.5 345.5t287.5 140.5q85 0 148.5 -44t89.5 -122l25 125h92l-84 -426q-19 -101 -19 -152q0 -112 115 -112q119 0 201 124t82 304q0 268 -180 434t-470 166q-147 0 -276.5 -54.5t-222 -149t-146 -227t-53.5 -282.5q0 -210 89.5 -371t251 -248t370.5 -85
q120 0 212.5 20t196.5 68l11 -5l38 -77q-183 -101 -468 -101zM819 154q78 0 146 56.5t107.5 151.5t39.5 205q0 107 -53.5 169.5t-147.5 62.5q-123 0 -210 -118.5t-87 -285.5q0 -109 56 -175t149 -66z" />
    <glyph glyph-name="A" unicode="A" horiz-adv-x="1325" 
d="M1327 0h-125l-168 406h-743l-168 -406h-125l625 1452h82zM532 989l-200 -483h659l-200 483q-19 44 -129 307h-5q-23 -57 -67.5 -166.5t-57.5 -140.5z" />
    <glyph glyph-name="B" unicode="B" horiz-adv-x="1222" 
d="M557 0h-342v1450h340q245 0 368.5 -93t123.5 -274q0 -116 -70 -201t-191 -116v-6q156 -25 245 -119t89 -238q0 -204 -137.5 -303.5t-425.5 -99.5zM330 1346v-549h250q166 0 260 75t94 207q0 267 -381 267h-223zM330 700v-596h227q234 0 340.5 72t106.5 227
q0 146 -105 221.5t-309 75.5h-260z" />
    <glyph glyph-name="C" unicode="C" horiz-adv-x="1642" 
d="M870 -39q-160 0 -299 58t-238 158.5t-155.5 242.5t-56.5 305q0 216 97 391t268 274t382 99q442 0 658 -393l-78 -56l-25 4q-188 336 -555 336q-176 0 -319.5 -85.5t-225 -235.5t-81.5 -334q0 -138 48.5 -259.5t132.5 -208t201 -137t248 -50.5q193 0 332.5 82t231.5 249
l24 5l76 -56q-117 -197 -280.5 -293t-385.5 -96z" />
    <glyph glyph-name="D" unicode="D" horiz-adv-x="1523" 
d="M580 0h-365v1450h365q405 0 614 -183t209 -532q0 -352 -215.5 -543.5t-607.5 -191.5zM330 1343v-1237h223q365 0 548 156t183 475q0 308 -179.5 457t-549.5 149h-225z" />
    <glyph glyph-name="E" unicode="E" horiz-adv-x="1181" 
d="M215 0v1450h807l12 -107h-704v-546h655v-107h-655v-584h704l-12 -106h-807z" />
    <glyph glyph-name="F" unicode="F" horiz-adv-x="1095" 
d="M215 0v1450h772l12 -107h-669v-546h624v-107h-624v-690h-115z" />
    <glyph glyph-name="G" unicode="G" horiz-adv-x="1740" 
d="M866 -39q-159 0 -297.5 57.5t-236.5 158t-154.5 242t-56.5 304.5t57 305t156 243.5t238.5 159.5t299.5 58q444 0 670 -385l-80 -55l-22 4q-98 165 -236 246t-332 81q-178 0 -322.5 -85.5t-226 -236t-81.5 -335.5q0 -184 81 -333.5t223.5 -234.5t317.5 -85
q139 0 259.5 50.5t207.5 152t117 239.5v121h-473v100h577v-733h-108v98q0 94 10 176l-4 2q-102 -153 -251 -234t-333 -81z" />
    <glyph glyph-name="H" unicode="H" horiz-adv-x="1542" 
d="M330 0h-115v1450h115v-662h882v662h115v-1450h-115v682h-882v-682z" />
    <glyph glyph-name="I" unicode="I" horiz-adv-x="544" 
d="M215 0v1450h115v-1450h-115z" />
    <glyph glyph-name="J" unicode="J" horiz-adv-x="991" 
d="M135 295l21 -6q26 -106 94.5 -164.5t165.5 -58.5q121 0 188.5 93.5t67.5 266.5v1024h114v-1032q0 -214 -97.5 -335.5t-266.5 -121.5q-142 0 -241.5 78t-131.5 215z" />
    <glyph glyph-name="K" unicode="K" horiz-adv-x="1269" 
d="M1274 0h-141l-527 750l-276 -304v-446h-115v1450h115v-414v-434h2q190 211 293 328l465 520h139l-547 -614z" />
    <glyph glyph-name="L" unicode="L" horiz-adv-x="1058" 
d="M215 0v1450h115v-1344h706l-14 -106h-807z" />
    <glyph glyph-name="M" unicode="M" horiz-adv-x="1857" 
d="M377 1450l551 -1075h4l549 1075h161v-1450h-112v1303h-4l-586 -1131h-25l-583 1131h-4v-1303h-113v1450h162z" />
    <glyph glyph-name="N" unicode="N" horiz-adv-x="1626" 
d="M328 0h-113v1450h88l715 -868l274 -330h6v369v829h113v-1479h-22l-781 942q-128 155 -274 328h-6v-369v-872z" />
    <glyph glyph-name="O" unicode="O" horiz-adv-x="1775" 
d="M889 -39q-167 0 -310.5 59t-243.5 161.5t-157 243t-57 300.5q0 159 56 299.5t155.5 243t243.5 162t313 59.5q168 0 312 -59.5t243 -162t155 -243t56 -299.5q0 -213 -96.5 -387.5t-272.5 -275.5t-397 -101zM889 70q186 0 334 87.5t229.5 237t81.5 330.5q0 183 -81 332.5
t-229 236t-335 86.5q-188 0 -336.5 -86.5t-229.5 -236t-81 -332.5q0 -181 81.5 -330.5t230 -237t335.5 -87.5z" />
    <glyph glyph-name="P" unicode="P" horiz-adv-x="1144" 
d="M330 0h-115v1450h371q238 0 360.5 -106.5t122.5 -309.5q0 -198 -125 -307t-358 -109h-256v-618zM330 1346v-623h223q207 0 303 76.5t96 234.5q0 160 -96 236t-297 76h-229z" />
    <glyph glyph-name="Q" unicode="Q" horiz-adv-x="1783" 
d="M1055 -18q245 -80 495 -125l13 -13l-35 -96q-380 88 -699 215q-207 14 -369 118t-250.5 272.5t-88.5 371.5q0 159 56.5 299.5t156.5 243t245 162t314 59.5q168 0 312 -59.5t243.5 -161.5t156 -242.5t56.5 -298.5q0 -283 -169 -485t-435 -252v-8h-2zM242 725
q0 -181 82 -330.5t231 -237t336 -87.5t336 87.5t231 237.5t82 332q0 183 -81 332t-229.5 235t-336.5 86q-142 0 -264 -50.5t-206.5 -138t-132.5 -208.5t-48 -258z" />
    <glyph glyph-name="R" unicode="R" horiz-adv-x="1228" 
d="M748 657l456 -634l-10 -23h-115l-452 641h-297v-641h-115v1450h379q235 0 357 -103t122 -305q0 -151 -83.5 -252t-241.5 -133zM330 1346v-603h254q374 0 374 299q0 157 -96 230.5t-295 73.5h-237z" />
    <glyph glyph-name="S" unicode="S" horiz-adv-x="1153" 
d="M602 -39q-166 0 -284.5 72.5t-204.5 236.5l86 58l22 -4q71 -137 162 -199t217 -62q139 0 230.5 84t91.5 203q0 79 -31 136.5t-112 115t-228 121.5q-214 94 -300.5 190t-86.5 234q0 150 112.5 246t298.5 96q281 0 408 -232l-82 -55l-22 4q-52 91 -127 137t-181 46
q-128 0 -208 -68t-80 -170q0 -103 69.5 -169.5t278.5 -164.5q238 -110 323.5 -211t85.5 -256q0 -164 -124.5 -276.5t-313.5 -112.5z" />
    <glyph glyph-name="T" unicode="T" horiz-adv-x="1200" 
d="M543 0v1343h-514v107h1145v-107h-517v-1343h-114z" />
    <glyph glyph-name="U" unicode="U" horiz-adv-x="1521" 
d="M760 -39q-559 0 -559 606v883h114v-872q0 -257 110 -382.5t335 -125.5q227 0 336.5 125t109.5 385v870h115v-881q0 -297 -142.5 -452.5t-418.5 -155.5z" />
    <glyph glyph-name="V" unicode="V" horiz-adv-x="1316" 
d="M672 -29h-25l-629 1479h125l410 -981q35 -88 102 -244h7q19 44 52 124t50 118l407 983h127z" />
    <glyph glyph-name="W" unicode="W" horiz-adv-x="1959" 
d="M578 -29h-74l-465 1479h123l246 -797q13 -42 61.5 -195.5t73.5 -236.5h8q55 153 145 432l265 783h38l265 -783q26 -82 75.5 -230t67.5 -202h8q17 55 64.5 203t72.5 229l244 797h125l-465 -1479h-72l-282 836q-33 103 -119 348h-8l-117 -346z" />
    <glyph glyph-name="X" unicode="X" horiz-adv-x="1173" 
d="M147 0h-135l506 762l-477 688h143l402 -600l399 600h133l-473 -696l514 -754h-139l-438 664z" />
    <glyph glyph-name="Y" unicode="Y" horiz-adv-x="1155" 
d="M635 0h-115v602l-508 848h127l242 -420q63 -113 194 -323h7q17 29 87 144t105 177l242 422h127l-508 -848v-602z" />
    <glyph glyph-name="Z" unicode="Z" horiz-adv-x="1267" 
d="M37 25l997 1318h-944v107h1143v-25l-995 -1314h962v-111h-1163v25z" />
    <glyph glyph-name="bracketleft" unicode="[" horiz-adv-x="614" 
d="M453 -330h-318v1839h318v-90h-213v-1659h213v-90z" />
    <glyph glyph-name="backslash" unicode="\" horiz-adv-x="731" 
d="M596 2l-571 1448h110l574 -1448h-113z" />
    <glyph glyph-name="bracketright" unicode="]" horiz-adv-x="614" 
d="M477 1509v-1839h-317v90h213v1659h-213v90h317z" />
    <glyph glyph-name="asciicircum" unicode="^" horiz-adv-x="1247" 
d="M256 557h-125l453 893h78l452 -893h-125l-366 760z" />
    <glyph glyph-name="underscore" unicode="_" horiz-adv-x="1024" 
d="M1024 -150v-86h-1024v86h1024z" />
    <glyph glyph-name="grave" unicode="`" horiz-adv-x="481" 
d="M182 1470l238 -376h-88l-271 366l7 10h114z" />
    <glyph glyph-name="a" unicode="a" horiz-adv-x="976" 
d="M913 76l11 -6v-82q-61 -21 -111 -21q-64 0 -94.5 35t-30.5 109l-2 16q-92 -90 -171 -128t-167 -38q-112 0 -182 65t-70 169q0 135 138.5 217.5t449.5 119.5v66q0 126 -48.5 185t-146.5 59q-82 0 -159 -48.5t-133 -134.5l-13 -2l-73 50q63 106 168 168.5t219 62.5
q139 0 214.5 -79.5t75.5 -227.5v-500q0 -42 12.5 -58t45.5 -16q15 0 67 19zM207 199q0 -67 44.5 -106.5t121.5 -39.5q79 0 153 35.5t158 116.5v248q-255 -35 -366 -95t-111 -159z" />
    <glyph glyph-name="b" unicode="b" horiz-adv-x="1181" 
d="M651 -39q-117 0 -220 66t-150 172v-199h-101v1501h105v-508v-297q55 114 154.5 178t219.5 64q190 0 307 -131.5t117 -347.5q0 -220 -120 -359t-312 -139zM635 59q155 0 246.5 108t91.5 292q0 175 -90 278t-244 103t-257.5 -114t-102.5 -282q1 -169 101.5 -277t254.5 -108
z" />
    <glyph glyph-name="c" unicode="c" horiz-adv-x="1067" 
d="M553 -39q-204 0 -330.5 135t-126.5 355q0 217 127 352t330 135q131 0 237.5 -62.5t172.5 -183.5l-76 -51l-13 4q-61 102 -139 149.5t-180 47.5q-152 0 -250 -106.5t-98 -284.5q0 -180 98 -287t250 -107q205 0 322 197l12 4l76 -51q-67 -121 -173 -183.5t-239 -62.5z" />
    <glyph glyph-name="d" unicode="d" horiz-adv-x="1183" 
d="M526 -39q-196 0 -313 134.5t-117 355.5q0 214 125 350.5t311 136.5q116 0 214.5 -64.5t152.5 -177.5v297v508h105v-1501h-101v199q-49 -106 -154.5 -172t-222.5 -66zM543 59q157 0 258 107t104 276q1 168 -100.5 283t-251.5 115q-153 0 -249.5 -107.5t-96.5 -281.5
q0 -180 90 -286t246 -106z" />
    <glyph glyph-name="e" unicode="e" horiz-adv-x="1077" 
d="M971 438h-760v-14q0 -166 98.5 -266.5t249.5 -100.5q197 0 313 189l13 4l76 -51q-64 -115 -169 -176.5t-237 -61.5q-203 0 -329 135t-126 353t124.5 353.5t320.5 135.5q195 0 311.5 -126.5t116.5 -344.5q0 -17 -2 -29zM545 844q-134 0 -224.5 -86.5t-105.5 -231.5h647
q-6 147 -92 232.5t-225 85.5z" />
    <glyph glyph-name="f" unicode="f" horiz-adv-x="573" 
d="M600 1405l-12 -6q-60 26 -111 26q-79 0 -113.5 -59.5t-35.5 -206.5v-260h254v-92h-254v-807h-105v807h-178v92h178v252q0 202 58 288.5t190 86.5q69 0 137 -27z" />
    <glyph glyph-name="g" unicode="g" horiz-adv-x="1003" 
d="M492 -471q-211 0 -335 76.5t-124 206.5q0 89 68.5 154t187.5 93q-111 44 -111 121q0 102 168 139q-107 26 -172 107.5t-65 187.5q0 141 108.5 232.5t274.5 91.5q103 0 186 -39h276l4 -80l-12 -12l-162 10q88 -85 88 -211q0 -131 -93 -213.5t-257 -95.5
q-125 -10 -182 -34.5t-57 -65.5q0 -35 54 -57t191 -42q228 -34 327 -97t99 -177q0 -135 -125 -215t-337 -80zM489 383q126 0 202.5 63t76.5 166q0 104 -77 169t-199 65q-124 0 -201.5 -64.5t-77.5 -169.5q0 -103 75.5 -165t200.5 -64zM494 -379q165 0 257.5 53t92.5 148
q0 78 -80 121t-256 65l-88 12q-131 -19 -204 -71.5t-73 -130.5q0 -88 97 -142.5t254 -54.5z" />
    <glyph glyph-name="h" unicode="h" horiz-adv-x="1161" 
d="M180 0v1501h105v-508v-293q55 113 149 175.5t207 62.5q165 0 253.5 -96t88.5 -281v-561h-104v508q0 172 -65.5 252t-201.5 80q-138 0 -232.5 -107.5t-94.5 -263.5v-469h-105z" />
    <glyph glyph-name="i" unicode="i" horiz-adv-x="462" 
d="M231 1239q-34 0 -57.5 24t-23.5 60q0 37 23.5 61.5t57.5 24.5q35 0 59.5 -25.5t24.5 -60.5q0 -36 -24 -60t-60 -24zM285 0h-105v899h105v-899z" />
    <glyph glyph-name="j" unicode="j" horiz-adv-x="452" 
d="M223 1239q-36 0 -60 24t-24 60q0 37 24.5 61.5t59.5 24.5t59.5 -25.5t24.5 -60.5q0 -36 -24 -60t-60 -24zM23 -471q-70 0 -136 27l13 88l12 6q54 -21 104 -21q78 0 117 57t39 183v1030h104v-1044q0 -326 -253 -326z" />
    <glyph glyph-name="k" unicode="k" horiz-adv-x="974" 
d="M956 0h-131l-370 489l-170 -161v-328h-105v1501h105v-508v-547q46 44 137 133.5t137 133.5l191 186h141l-365 -344z" />
    <glyph glyph-name="l" unicode="l" horiz-adv-x="462" 
d="M285 0h-105v1501h105v-1501z" />
    <glyph glyph-name="m" unicode="m" horiz-adv-x="1781" 
d="M1280 938q153 0 237.5 -96.5t84.5 -280.5v-561h-105v506q0 171 -62 252.5t-186 81.5t-215.5 -111.5t-91.5 -267.5v-461h-104v506q0 171 -62 252.5t-186 81.5q-123 0 -214 -112t-91 -267v-461h-105v899h105v-199q55 114 143.5 176t194.5 62q123 0 199.5 -66.5
t101.5 -195.5q55 127 151.5 194.5t204.5 67.5z" />
    <glyph glyph-name="n" unicode="n" horiz-adv-x="1161" 
d="M180 0v899h105v-199q55 113 149 175.5t207 62.5q166 0 254 -96.5t88 -280.5v-561h-104v508q0 171 -65 251.5t-202 80.5t-232 -108t-95 -263v-469h-105z" />
    <glyph glyph-name="o" unicode="o" horiz-adv-x="1171" 
d="M586 -39q-209 0 -349.5 142t-140.5 348q0 135 63 246t175.5 176t251.5 65q210 0 348.5 -140.5t138.5 -346.5q0 -135 -62.5 -247t-174.5 -177.5t-250 -65.5zM586 59q158 0 267.5 114t109.5 278t-108.5 276.5t-268.5 112.5q-162 0 -270.5 -112.5t-108.5 -276.5t109.5 -278
t269.5 -114z" />
    <glyph glyph-name="p" unicode="p" horiz-adv-x="1181" 
d="M285 -446h-105v1345h105v-203q55 114 154.5 178t219.5 64q189 0 306.5 -132t117.5 -347q0 -220 -120 -359t-312 -139q-115 0 -218 64.5t-148 169.5v-297v-344zM635 59q155 0 246.5 108t91.5 292q0 175 -90 278t-244 103t-257.5 -114t-102.5 -284q1 -167 101.5 -275
t254.5 -108z" />
    <glyph glyph-name="q" unicode="q" horiz-adv-x="1183" 
d="M1004 -446h-105v344v295q-50 -102 -153.5 -167t-219.5 -65q-196 0 -313 135t-117 357q0 214 124.5 349.5t311.5 135.5q116 0 214.5 -64.5t152.5 -177.5v203h105v-1345zM543 59q157 0 258 107t104 276q1 168 -100.5 283t-251.5 115q-154 0 -250 -106.5t-96 -280.5
q0 -181 90 -287.5t246 -106.5z" />
    <glyph glyph-name="r" unicode="r" horiz-adv-x="794" 
d="M285 0h-105v899h94v-215q56 127 135 190.5t173 63.5q135 0 188 -139l-88 -54l-12 3q-21 50 -50.5 71t-76.5 21q-99 0 -178.5 -115t-79.5 -279v-446z" />
    <glyph glyph-name="s" unicode="s" horiz-adv-x="843" 
d="M430 -39q-117 0 -209 52t-141 147l82 55l8 -2q88 -160 264 -160q94 0 154.5 44.5t60.5 113.5q0 63 -46.5 106t-178.5 91q-181 67 -246 130.5t-65 159.5q0 101 84 170.5t217 69.5q108 0 191 -51t120 -139l-72 -50l-12 2q-31 68 -92.5 107t-140.5 39q-84 0 -136.5 -42
t-52.5 -104q0 -41 18 -69t72 -59.5t158 -71.5q163 -63 226 -125.5t63 -161.5q0 -107 -92.5 -179.5t-233.5 -72.5z" />
    <glyph glyph-name="t" unicode="t" horiz-adv-x="686" 
d="M596 90l12 -6l4 -94q-78 -29 -161 -29q-116 0 -177 67.5t-61 190.5v588h-178v92h178v313l90 56h14v-369h291v-92h-291v-555q0 -106 36.5 -149.5t119.5 -43.5q59 0 123 31z" />
    <glyph glyph-name="u" unicode="u" horiz-adv-x="1138" 
d="M961 899v-899h-105v197q-56 -112 -149.5 -174t-198.5 -62q-158 0 -243 97t-85 286v555h105v-512q0 -169 62.5 -248.5t191.5 -79.5t223 108t94 263v469h105z" />
    <glyph glyph-name="v" unicode="v" horiz-adv-x="905" 
d="M461 -33h-15l-423 932h116l314 -717h4l313 717h113z" />
    <glyph glyph-name="w" unicode="w" horiz-adv-x="1388" 
d="M426 -33h-45l-328 932h113l246 -733h4l264 721h33l262 -721h4l246 733h110l-325 -932h-45l-269 715h-4z" />
    <glyph glyph-name="x" unicode="x" horiz-adv-x="899" 
d="M168 0h-127l348 459l-342 440h129l166 -221l104 -141h5l106 141l166 221h129l-342 -440l348 -459h-129l-180 246l-98 133h-5l-98 -133z" />
    <glyph glyph-name="y" unicode="y" horiz-adv-x="935" 
d="M297 -446h-119l240 501l-373 844h119l309 -727h4l322 727h119z" />
    <glyph glyph-name="z" unicode="z" horiz-adv-x="903" 
d="M66 20l598 785h-580v94h756v-20l-600 -785h598v-94h-772v20z" />
    <glyph glyph-name="braceleft" unicode="{" horiz-adv-x="647" 
d="M6 547v86h10q154 3 154 231v389q0 124 57.5 190t165.5 66h113v-90h-94q-138 0 -138 -190v-373q0 -116 -43.5 -184.5t-115.5 -79.5v-4q72 -11 115.5 -79.5t43.5 -184.5v-373q0 -191 138 -191h94v-90h-113q-108 0 -165.5 66t-57.5 190v389q0 229 -154 232h-10z" />
    <glyph glyph-name="bar" unicode="|" horiz-adv-x="491" 
d="M297 -528h-102v2111h102v-2111z" />
    <glyph glyph-name="braceright" unicode="}" horiz-adv-x="647" 
d="M631 633h10v-86h-10q-77 -2 -116.5 -61t-39.5 -171v-389q0 -125 -57 -190.5t-166 -65.5h-111v90h95q137 0 137 191v373q0 116 43.5 184.5t115.5 79.5v4q-72 11 -115.5 79.5t-43.5 184.5v373q0 190 -137 190h-95v90h111q109 0 166 -65.5t57 -190.5v-389q0 -228 156 -231z
" />
    <glyph glyph-name="asciitilde" unicode="~" horiz-adv-x="1433" 
d="M283 502l-13 -2l-63 45q128 198 285 198q69 0 133.5 -25t105 -54.5t96.5 -54.5t111 -25q116 0 213 153l12 2l62 -43q-125 -198 -285 -198q-55 0 -106 16t-89.5 39t-75.5 46.5t-81.5 39.5t-91.5 16q-118 0 -213 -153z" />
    <glyph glyph-name="uni00A0" unicode="&#xa0;" horiz-adv-x="622" 
 />
    <glyph glyph-name="exclamdown" unicode="&#xa1;" horiz-adv-x="657" 
d="M330 938q36 0 60 -25.5t24 -62.5t-24.5 -61.5t-59.5 -24.5q-37 0 -61.5 24.5t-24.5 61.5t24.5 62.5t61.5 25.5zM272 -532l7 1056h102l4 -1056h-113z" />
    <glyph glyph-name="cent" unicode="&#xa2;" horiz-adv-x="1433" 
d="M1065 258l78 -51q-61 -110 -156.5 -172.5t-214.5 -71.5v-143h-92v143q-185 17 -295.5 150t-110.5 338q0 202 112 335t294 150v145h92v-145q119 -9 213.5 -70t155.5 -172l-78 -53l-12 4q-107 178 -279 193v-777q177 15 281 193zM387 451q0 -161 80.5 -265t212.5 -123v773
q-131 -18 -212 -121t-81 -264z" />
    <glyph glyph-name="sterling" unicode="&#xa3;" horiz-adv-x="1433" 
d="M1108 1292l-12 4q-93 90 -234 90q-127 0 -196.5 -96.5t-69.5 -275.5v-219h336v-90h-336v-273q0 -203 -76 -326h660l-17 -106h-897v106h144q71 110 71 289v310h-198v90h198v227q0 223 101 345t282 122q195 0 305 -113z" />
    <glyph glyph-name="currency" unicode="&#xa4;" horiz-adv-x="1433" 
d="M399 238l-192 -193l-64 68l191 192q-115 137 -115 328q0 180 107 319l-185 185l66 65l182 -184q136 117 326 117q189 0 325 -117l183 184l65 -65l-184 -187q108 -130 108 -317q0 -194 -114 -330l192 -192l-65 -66l-193 195q-135 -113 -317 -113q-179 0 -316 111zM717 236
q162 0 269.5 113t107.5 284q0 169 -107 281t-270 112q-165 0 -272 -112t-107 -281q0 -171 107.5 -284t271.5 -113z" />
    <glyph glyph-name="yen" unicode="&#xa5;" horiz-adv-x="1433" 
d="M1155 1450h125l-471 -682h309v-90h-344v-227h344v-91h-344v-360h-115v360h-344v91h344v227h-344v90h308l-471 682h124l437 -653h8z" />
    <glyph glyph-name="brokenbar" unicode="&#xa6;" horiz-adv-x="491" 
d="M297 698h-102v885h102v-885zM297 -528h-102v886h102v-886z" />
    <glyph glyph-name="section" unicode="&#xa7;" horiz-adv-x="1116" 
d="M725 313q174 -98 174 -266q0 -141 -102.5 -229t-266.5 -88q-129 0 -228.5 52.5t-154.5 145.5l89 54l12 -5q41 -73 115.5 -113t168.5 -40q114 0 186.5 60t72.5 155q0 76 -46.5 128.5t-154.5 98.5l-187 88q-123 53 -177 121t-54 166q0 92 60 164.5t159 103.5
q-78 45 -120 116t-42 153q0 138 99 224.5t260 86.5q115 0 201 -46t126 -126l-75 -49l-13 2q-33 59 -97 92t-150 33q-108 0 -174 -57.5t-66 -147.5q0 -87 53.5 -140.5t169.5 -105.5l131 -59q128 -55 189 -128t61 -169q0 -100 -59.5 -175t-159.5 -100zM498 422l135 -64
q90 12 145.5 71.5t55.5 143.5q0 81 -50 135.5t-176 106.5l-112 47q-93 -13 -153 -74t-60 -141q0 -77 45 -124t170 -101z" />
    <glyph glyph-name="dieresis" unicode="&#xa8;" horiz-adv-x="616" 
d="M78 1208q-7 26 8 50.5t43 33.5q26 8 50 -6.5t30 -42.5q8 -28 -5.5 -51.5t-41.5 -30.5q-29 -9 -52.5 4.5t-31.5 42.5zM406 1208q-6 26 8.5 50.5t42.5 33.5q26 8 50.5 -6.5t31.5 -42.5q6 -28 -8.5 -51.5t-43.5 -30.5q-28 -9 -50.5 4.5t-30.5 42.5z" />
    <glyph glyph-name="copyright" unicode="&#xa9;" horiz-adv-x="1990" 
d="M995 -39q-159 0 -300.5 59.5t-243 161t-161 242.5t-59.5 299q0 159 59.5 301t161 244t243 161.5t300.5 59.5t301 -59.5t244 -161.5t161.5 -244t59.5 -301q0 -158 -59.5 -299.5t-161.5 -242.5t-244 -160.5t-301 -59.5zM995 51q139 0 263.5 52.5t213.5 142t141 214
t52 263.5q0 140 -52 265t-141 215.5t-213.5 143t-263.5 52.5q-185 0 -338.5 -89.5t-242 -244.5t-88.5 -342q0 -139 52 -263.5t141.5 -214t213.5 -142t262 -52.5zM1001 276q-185 0 -306.5 126t-121.5 319t121.5 320.5t306.5 127.5q122 0 221.5 -58t161.5 -169l-69 -45l-12 4
q-108 174 -302 174q-143 0 -236 -99.5t-93 -254.5q0 -154 94 -253t235 -99q195 0 304 176l14 4l67 -51q-151 -222 -385 -222z" />
    <glyph glyph-name="ordfeminine" unicode="&#xaa;" horiz-adv-x="630" 
d="M561 973l8 -4v-60q-38 -14 -75 -14q-88 0 -88 88q-50 -50 -95.5 -71t-99.5 -21q-67 0 -108.5 37.5t-41.5 99.5q0 79 80 127.5t262 71.5v35q0 68 -25 98.5t-77 30.5q-45 0 -89.5 -26.5t-76.5 -72.5l-8 -2l-57 39q38 64 102.5 101.5t136.5 37.5q90 0 137.5 -48t47.5 -140
v-276q0 -24 6.5 -32.5t23.5 -8.5q14 0 37 10zM152 1034q0 -37 23.5 -57.5t64.5 -20.5q81 0 163 82v133q-135 -18 -193 -50.5t-58 -86.5z" />
    <glyph glyph-name="guillemotleft" unicode="&#xab;" horiz-adv-x="919" 
d="M434 123l-59 -41l-256 375l256 374l59 -40l2 -11l-213 -323l213 -324zM766 123l-57 -41l-256 375l256 374l57 -40l2 -11l-213 -323l213 -324z" />
    <glyph glyph-name="logicalnot" unicode="&#xac;" horiz-adv-x="1433" 
d="M186 580v88h1061v-451h-86v363h-975z" />
    <glyph glyph-name="uni00AD" unicode="&#xad;" horiz-adv-x="645" 
d="M557 418h-467v96h467v-96z" />
    <glyph glyph-name="registered" unicode="&#xae;" horiz-adv-x="1249" 
d="M631 563q-195 0 -332 134.5t-137 326.5q0 193 137 329t332 136q193 0 329 -135.5t136 -329.5q0 -126 -62 -232t-169 -167.5t-234 -61.5zM631 621q165 0 284 119t119 284q0 167 -118.5 286.5t-284.5 119.5q-169 0 -288.5 -119.5t-119.5 -286.5q0 -165 120 -284t288 -119z
M801 1130q0 -51 -27 -86t-76 -47l152 -213l-4 -8h-72l-145 211h-80v-211h-66v498h148q170 0 170 -144zM549 1219v-175h74q57 0 83.5 21t26.5 65q0 89 -115 89h-69z" />
    <glyph glyph-name="macron" unicode="&#xaf;" horiz-adv-x="643" 
d="M582 1186h-521v96h521v-96z" />
    <glyph glyph-name="degree" unicode="&#xb0;" horiz-adv-x="815" 
d="M408 889q-126 0 -211.5 86t-85.5 215q0 127 85.5 213t211.5 86t211.5 -86t85.5 -213q0 -129 -85.5 -215t-211.5 -86zM408 963q94 0 157.5 65t63.5 162q0 95 -63.5 160t-157.5 65q-95 0 -158.5 -64.5t-63.5 -160.5q0 -97 63.5 -162t158.5 -65z" />
    <glyph glyph-name="plusminus" unicode="&#xb1;" horiz-adv-x="1433" 
d="M760 823h487v-88h-487v-348h-86v348h-488v88h488v348h86v-348zM1247 168h-1061v86h1061v-86z" />
    <glyph glyph-name="uni00B2" unicode="&#xb2;" horiz-adv-x="761" 
d="M631 942h-549v19l242 251q116 123 165.5 199.5t49.5 149.5q0 69 -43.5 111t-118.5 42q-76 -2 -125 -47.5t-66 -132.5l-16 -6l-78 12q20 128 97 195t200 67q110 0 180 -65t70 -168q0 -88 -48 -171.5t-153 -193.5l-82 -86q-18 -20 -96 -90v-2q98 4 141 4h230v-88z" />
    <glyph glyph-name="uni00B3" unicode="&#xb3;" horiz-adv-x="761" 
d="M377 903q-127 0 -205 65.5t-90 182.5l82 14l16 -6q7 -78 59.5 -124t131.5 -46q82 0 130 47t48 125q0 83 -51 127.5t-148 44.5h-31v74h27q92 0 142.5 42.5t50.5 119.5q0 65 -45 106t-115 41q-74 0 -121.5 -40t-60.5 -113l-17 -7l-80 13q19 108 95 170.5t190 62.5
q111 0 181.5 -62t70.5 -161q0 -77 -43.5 -133t-120.5 -76q81 -13 128.5 -71.5t47.5 -143.5q0 -110 -77.5 -181t-194.5 -71z" />
    <glyph glyph-name="acute" unicode="&#xb4;" horiz-adv-x="481" 
d="M150 1094h-89l238 376h115l6 -10z" />
    <glyph glyph-name="uni00B5" unicode="&#xb5;" horiz-adv-x="1146" 
d="M285 -446h-105v1345h105v-512q0 -169 62.5 -248.5t191.5 -79.5t223 108t94 263v469h105l-3 -768q0 -42 12.5 -58t45.5 -16q18 0 67 19l13 -6v-82q-64 -21 -113 -21q-127 0 -127 144v86q-56 -112 -149.5 -174t-198.5 -62q-157 0 -223 119v-526z" />
    <glyph glyph-name="paragraph" unicode="&#xb6;" horiz-adv-x="1263" 
d="M662 -446h-107v1114q-188 0 -312 106.5t-124 269.5q0 192 121.5 299t341.5 107h467v-1896h-107v1804h-280v-1804z" />
    <glyph glyph-name="periodcentered" unicode="&#xb7;" horiz-adv-x="524" 
d="M262 498q-36 0 -61 25t-25 63q0 36 25 61t61 25t61 -25t25 -61q0 -38 -25 -63t-61 -25z" />
    <glyph glyph-name="cedilla" unicode="&#xb8;" horiz-adv-x="548" 
d="M260 -467q-109 0 -192 45l22 60l12 6q76 -43 162 -43q60 0 97.5 28t37.5 74q0 88 -127 88q-55 0 -108 -22l-27 24l123 199h70l-97 -156q41 12 84 12q74 0 121 -39t47 -102q0 -80 -60 -127t-165 -47z" />
    <glyph glyph-name="uni00B9" unicode="&#xb9;" horiz-adv-x="761" 
d="M457 942h-99v631q0 52 7 110l-5 3q-24 -17 -61 -39l-119 -68l-8 4l6 96l252 133h27v-870z" />
    <glyph glyph-name="ordmasculine" unicode="&#xba;" horiz-adv-x="708" 
d="M354 891q-125 0 -209 83.5t-84 205.5q0 124 83 206t210 82q126 0 209.5 -82.5t83.5 -205.5q0 -122 -84 -205.5t-209 -83.5zM354 973q85 0 143 59.5t58 147.5q0 89 -57.5 149t-143.5 60t-143 -60t-57 -149q0 -88 57.5 -147.5t142.5 -59.5z" />
    <glyph glyph-name="guillemotright" unicode="&#xbb;" horiz-adv-x="919" 
d="M467 457l-256 -375l-59 41l-2 10l215 324l-215 323l2 11l59 40zM799 457l-254 -375l-60 41l-2 10l213 324l-213 323l2 11l60 40z" />
    <glyph glyph-name="onequarter" unicode="&#xbc;" horiz-adv-x="1744" 
d="M1190 1546h117l-848 -1620h-119zM453 614h-99v631q0 61 6 111l-2 2l-63 -39l-117 -68l-10 4l8 97l250 133h27v-871zM1425 0h-96v188h-436v50l461 628h71v-590h101v-88h-101v-188zM1266 606l-242 -330h307v244q0 131 8 197h-2q-56 -92 -71 -111z" />
    <glyph glyph-name="onehalf" unicode="&#xbd;" horiz-adv-x="1744" 
d="M1130 1546h119l-850 -1620h-118zM395 614h-98v631q0 61 6 111l-4 2q-24 -17 -61 -39l-119 -68l-8 4l6 97l252 133h26v-871zM1556 0h-548v18l241 252q116 123 165.5 199t49.5 149q0 69 -43 111.5t-118 42.5q-76 -2 -125 -47.5t-66 -132.5l-16 -6l-80 12q20 128 98 195
t201 67q110 0 180 -65t70 -168q0 -88 -48 -171.5t-153 -193.5l-82 -86q-18 -20 -96 -90v-2q98 4 141 4h229v-88z" />
    <glyph glyph-name="threequarters" unicode="&#xbe;" horiz-adv-x="1744" 
d="M1276 1546h119l-848 -1620h-121zM412 578q-127 0 -204 65t-91 182l82 15l16 -6q9 -78 61 -124t132 -46t128 47t48 125q0 84 -50.5 128t-148.5 44h-31v73h27q93 0 142.5 42.5t49.5 119.5q0 65 -44 106.5t-115 41.5q-72 0 -121 -40.5t-62 -113.5l-16 -6l-80 12
q19 108 95.5 171t191.5 63q109 0 179.5 -62.5t70.5 -161.5q0 -77 -43.5 -133t-120.5 -76q81 -13 128.5 -71.5t47.5 -143.5q0 -110 -77 -180.5t-195 -70.5zM1513 0h-96v188h-436v50l461 628h71v-590h101v-88h-101v-188zM1354 606l-242 -330h307v244q0 131 8 197h-2
q-56 -92 -71 -111z" />
    <glyph glyph-name="questiondown" unicode="&#xbf;" horiz-adv-x="1050" 
d="M539 938q37 0 61.5 -25.5t24.5 -62.5t-24.5 -61.5t-61.5 -24.5q-36 0 -61 25t-25 61q0 37 25.5 62.5t60.5 25.5zM496 524h104v-114q2 -94 -34.5 -169t-119.5 -145q-110 -93 -146 -160.5t-36 -162.5q0 -106 71.5 -176t186.5 -70q120 0 198 65t101 185l23 8l88 -14
q-29 -159 -140.5 -250.5t-273.5 -91.5q-164 0 -265 94.5t-101 245.5q0 112 41 195t141 167q100 82 130 136t30 151z" />
    <glyph glyph-name="Agrave" unicode="&#xc0;" horiz-adv-x="1325" 
d="M612 1839l195 -274h-88l-230 264l7 10h116zM1327 0h-125l-168 406h-743l-168 -406h-125l625 1452h82zM532 989l-200 -483h659l-200 483q-19 44 -129 307h-5q-23 -57 -67.5 -166.5t-57.5 -140.5z" />
    <glyph glyph-name="Aacute" unicode="&#xc1;" horiz-adv-x="1325" 
d="M829 1839l7 -10l-226 -264h-88l193 274h114zM1327 0h-125l-168 406h-743l-168 -406h-125l625 1452h82zM532 989l-200 -483h659l-200 483q-19 44 -129 307h-5q-23 -57 -67.5 -166.5t-57.5 -140.5z" />
    <glyph glyph-name="Acircumflex" unicode="&#xc2;" horiz-adv-x="1325" 
d="M664 1786l-181 -221h-84l-8 12l209 262h125l209 -262l-8 -12h-84zM1327 0h-125l-168 406h-743l-168 -406h-125l625 1452h82zM532 989l-200 -483h659l-200 483q-19 44 -129 307h-5q-23 -57 -67.5 -166.5t-57.5 -140.5z" />
    <glyph glyph-name="Atilde" unicode="&#xc3;" horiz-adv-x="1325" 
d="M451 1610l-11 -8h-75q12 89 56 142.5t105 53.5q40 0 91.5 -26.5t99.5 -53t82 -26.5q58 0 78 96l10 10h74q-10 -89 -54 -142.5t-106 -53.5q-44 0 -94.5 26.5t-97.5 53t-81 26.5q-57 0 -77 -98zM1327 0h-125l-168 406h-743l-168 -406h-125l625 1452h82zM532 989l-200 -483
h659l-200 483q-19 44 -129 307h-5q-23 -57 -67.5 -166.5t-57.5 -140.5z" />
    <glyph glyph-name="Adieresis" unicode="&#xc4;" horiz-adv-x="1325" 
d="M506 1640q-29 -9 -53.5 5t-30.5 43q-7 26 7 50.5t42 33.5q26 7 50 -7t32 -41q6 -30 -7 -53.5t-40 -30.5zM856 1640q-28 -9 -52 5t-30 43q-7 26 6.5 50.5t40.5 33.5q27 7 51.5 -7t32.5 -41q6 -30 -7 -53.5t-42 -30.5zM1327 0h-125l-168 406h-743l-168 -406h-125l625 1452
h82zM532 989l-200 -483h659l-200 483q-19 44 -129 307h-5q-23 -57 -67.5 -166.5t-57.5 -140.5z" />
    <glyph glyph-name="Aring" unicode="&#xc5;" horiz-adv-x="1325" 
d="M662 1540q-82 0 -139.5 56t-57.5 139t57.5 138.5t139.5 55.5t139 -55.5t57 -138.5t-57 -139t-139 -56zM662 1872q-58 0 -98 -40t-40 -97t40 -96.5t98 -39.5t97.5 39.5t39.5 96.5t-39.5 97t-97.5 40zM1327 0h-125l-168 406h-743l-168 -406h-125l625 1452h82zM532 989
l-200 -483h659l-200 483q-19 44 -129 307h-5q-23 -57 -67.5 -166.5t-57.5 -140.5z" />
    <glyph glyph-name="AE" unicode="&#xc6;" horiz-adv-x="1871" 
d="M1677 690h-655v-584h704l-14 -106h-805v406h-538l-240 -406h-131l868 1450h846l14 -107h-704v-546h655v-107zM692 956l-266 -450h481v448q0 129 4 383h-4q-112 -211 -215 -381z" />
    <glyph glyph-name="Ccedilla" unicode="&#xc7;" horiz-adv-x="1642" 
d="M870 -39h-10l-78 -125q40 12 84 12q74 0 121 -39t47 -102q0 -80 -60 -127t-165 -47q-110 0 -193 45l23 60l12 6q76 -43 162 -43q60 0 97.5 28t37.5 74q0 88 -127 88q-55 0 -108 -22l-27 24l107 172q-145 14 -269.5 76.5t-213 161.5t-139 234t-50.5 288q0 216 97 391
t268 274t382 99q442 0 658 -393l-78 -56l-25 4q-188 336 -555 336q-176 0 -319.5 -85.5t-225 -235.5t-81.5 -334q0 -138 48.5 -259.5t132.5 -208t201 -137t248 -50.5q193 0 332.5 82t231.5 249l24 5l76 -56q-117 -197 -280.5 -293t-385.5 -96z" />
    <glyph glyph-name="Egrave" unicode="&#xc8;" horiz-adv-x="1181" 
d="M764 1565h-88l-230 264l7 10h116zM215 0v1450h807l12 -107h-704v-546h655v-107h-655v-584h704l-12 -106h-807z" />
    <glyph glyph-name="Eacute" unicode="&#xc9;" horiz-adv-x="1181" 
d="M567 1565h-88l193 274h114l7 -10zM215 0v1450h807l12 -107h-704v-546h655v-107h-655v-584h704l-12 -106h-807z" />
    <glyph glyph-name="Ecircumflex" unicode="&#xca;" horiz-adv-x="1181" 
d="M799 1565l-178 221l-181 -221h-84l-8 12l209 262h125l209 -262l-8 -12h-84zM215 0v1450h807l12 -107h-704v-546h655v-107h-655v-584h704l-12 -106h-807z" />
    <glyph glyph-name="Edieresis" unicode="&#xcb;" horiz-adv-x="1181" 
d="M379 1688q-7 26 7 50.5t42 33.5q26 7 50 -7t32 -41q6 -30 -7 -53.5t-40 -30.5q-29 -9 -53.5 5t-30.5 43zM731 1688q-7 26 6.5 50.5t40.5 33.5q27 7 51.5 -7t32.5 -41q6 -30 -7 -53.5t-42 -30.5q-28 -9 -52 5t-30 43zM215 0v1450h807l12 -107h-704v-546h655v-107h-655
v-584h704l-12 -106h-807z" />
    <glyph glyph-name="Igrave" unicode="&#xcc;" horiz-adv-x="544" 
d="M418 1565h-88l-230 264l6 10h117zM215 0v1450h115v-1450h-115z" />
    <glyph glyph-name="Iacute" unicode="&#xcd;" horiz-adv-x="544" 
d="M221 1565h-88l193 274h114l6 -10zM215 0v1450h115v-1450h-115z" />
    <glyph glyph-name="Icircumflex" unicode="&#xce;" horiz-adv-x="544" 
d="M453 1565l-179 221l-180 -221h-84l-8 12l209 262h125l209 -262l-8 -12h-84zM215 0v1450h115v-1450h-115z" />
    <glyph glyph-name="Idieresis" unicode="&#xcf;" horiz-adv-x="544" 
d="M33 1688q-7 26 7 50.5t42 33.5q26 7 50 -7t32 -41q6 -30 -7 -53.5t-40 -30.5q-29 -9 -53.5 5t-30.5 43zM385 1688q-7 26 6.5 50.5t40.5 33.5q27 7 51.5 -7t32.5 -41q6 -30 -7 -53.5t-42 -30.5q-28 -9 -52 5t-30 43zM215 0v1450h115v-1450h-115z" />
    <glyph glyph-name="Eth" unicode="&#xd0;" horiz-adv-x="1523" 
d="M215 1450h365q405 0 614 -183t209 -532q0 -352 -215.5 -543.5t-607.5 -191.5h-365v690h-135v107h135v653zM330 106h223q365 0 548 156t183 475q0 308 -179.5 457t-549.5 149h-225v-546h438v-107h-438v-584z" />
    <glyph glyph-name="Ntilde" unicode="&#xd1;" horiz-adv-x="1626" 
d="M979 1602q62 0 106 53.5t54 142.5h-74l-10 -10q-20 -96 -78 -96q-34 0 -82 26.5t-99 53t-91 26.5q-62 0 -106 -53.5t-56 -142.5h75l11 8q20 98 78 98q28 0 63.5 -16.5t65 -36.5t69 -36.5t74.5 -16.5zM328 0h-113v1450h88l715 -868l274 -330h6v369v829h113v-1479h-22
l-781 942q-128 155 -274 328h-6v-369v-872z" />
    <glyph glyph-name="Ograve" unicode="&#xd2;" horiz-adv-x="1775" 
d="M1032 1565h-88l-229 264l6 10h117zM889 -39q-167 0 -310.5 59t-243.5 161.5t-157 243t-57 300.5q0 159 56 299.5t155.5 243t243.5 162t313 59.5q168 0 312 -59.5t243 -162t155 -243t56 -299.5q0 -213 -96.5 -387.5t-272.5 -275.5t-397 -101zM889 70q186 0 334 87.5
t229.5 237t81.5 330.5q0 183 -81 332.5t-229 236t-335 86.5q-188 0 -336.5 -86.5t-229.5 -236t-81 -332.5q0 -181 81.5 -330.5t230 -237t335.5 -87.5z" />
    <glyph glyph-name="Oacute" unicode="&#xd3;" horiz-adv-x="1775" 
d="M836 1565h-88l192 274h115l6 -10zM889 -39q-167 0 -310.5 59t-243.5 161.5t-157 243t-57 300.5q0 159 56 299.5t155.5 243t243.5 162t313 59.5q168 0 312 -59.5t243 -162t155 -243t56 -299.5q0 -213 -96.5 -387.5t-272.5 -275.5t-397 -101zM889 70q186 0 334 87.5
t229.5 237t81.5 330.5q0 183 -81 332.5t-229 236t-335 86.5q-188 0 -336.5 -86.5t-229.5 -236t-81 -332.5q0 -181 81.5 -330.5t230 -237t335.5 -87.5z" />
    <glyph glyph-name="Ocircumflex" unicode="&#xd4;" horiz-adv-x="1775" 
d="M1067 1565l-178 221l-180 -221h-84l-9 12l209 262h125l209 -262l-8 -12h-84zM889 -39q-167 0 -310.5 59t-243.5 161.5t-157 243t-57 300.5q0 159 56 299.5t155.5 243t243.5 162t313 59.5q168 0 312 -59.5t243 -162t155 -243t56 -299.5q0 -213 -96.5 -387.5t-272.5 -275.5
t-397 -101zM889 70q186 0 334 87.5t229.5 237t81.5 330.5q0 183 -81 332.5t-229 236t-335 86.5q-188 0 -336.5 -86.5t-229.5 -236t-81 -332.5q0 -181 81.5 -330.5t230 -237t335.5 -87.5z" />
    <glyph glyph-name="Otilde" unicode="&#xd5;" horiz-adv-x="1775" 
d="M1026 1602q62 0 106 53.5t54 142.5h-74l-10 -10q-20 -96 -78 -96q-34 0 -82 26.5t-99 53t-91 26.5q-62 0 -106 -53.5t-56 -142.5h76l10 8q20 98 78 98q28 0 63.5 -16.5t65 -36.5t69 -36.5t74.5 -16.5zM889 -39q-167 0 -310.5 59t-243.5 161.5t-157 243t-57 300.5
q0 159 56 299.5t155.5 243t243.5 162t313 59.5q168 0 312 -59.5t243 -162t155 -243t56 -299.5q0 -213 -96.5 -387.5t-272.5 -275.5t-397 -101zM889 70q186 0 334 87.5t229.5 237t81.5 330.5q0 183 -81 332.5t-229 236t-335 86.5q-188 0 -336.5 -86.5t-229.5 -236t-81 -332.5
q0 -181 81.5 -330.5t230 -237t335.5 -87.5z" />
    <glyph glyph-name="Odieresis" unicode="&#xd6;" horiz-adv-x="1775" 
d="M647 1688q-7 26 7 50.5t42 33.5q26 7 50 -7t32 -41q6 -30 -7 -53.5t-40 -30.5q-29 -9 -53.5 5t-30.5 43zM999 1688q-7 26 7 50.5t41 33.5q27 7 51 -7t32 -41q6 -30 -7 -53.5t-42 -30.5q-28 -9 -52 5t-30 43zM889 -39q-167 0 -310.5 59t-243.5 161.5t-157 243t-57 300.5
q0 159 56 299.5t155.5 243t243.5 162t313 59.5q168 0 312 -59.5t243 -162t155 -243t56 -299.5q0 -213 -96.5 -387.5t-272.5 -275.5t-397 -101zM889 70q186 0 334 87.5t229.5 237t81.5 330.5q0 183 -81 332.5t-229 236t-335 86.5q-188 0 -336.5 -86.5t-229.5 -236t-81 -332.5
q0 -181 81.5 -330.5t230 -237t335.5 -87.5z" />
    <glyph glyph-name="multiply" unicode="&#xd7;" horiz-adv-x="1433" 
d="M1108 1075l61 -61l-391 -389l391 -392l-61 -61l-391 391l-391 -391l-60 61l391 392l-391 389l60 61l391 -391z" />
    <glyph glyph-name="Oslash" unicode="&#xd8;" horiz-adv-x="1775" 
d="M1536 1436l-121 -142q115 -105 177.5 -252.5t62.5 -316.5q0 -213 -96.5 -387.5t-272.5 -275.5t-397 -101q-272 0 -471 150l-115 -136l-61 48l116 137q-114 105 -175.5 250.5t-61.5 314.5q0 159 56 299.5t155.5 243t243.5 162t313 59.5q272 0 469 -148l119 142zM242 725
q0 -140 50 -262.5t142 -212.5l848 1003q-165 127 -393 127q-188 0 -336.5 -86.5t-229.5 -236t-81 -332.5zM889 70q186 0 334 87.5t229.5 237t81.5 330.5q0 141 -50.5 265t-142.5 214l-849 -1005q167 -129 397 -129z" />
    <glyph glyph-name="Ugrave" unicode="&#xd9;" horiz-adv-x="1521" 
d="M905 1565h-88l-229 264l6 10h117zM760 -39q-559 0 -559 606v883h114v-872q0 -257 110 -382.5t335 -125.5q227 0 336.5 125t109.5 385v870h115v-881q0 -297 -142.5 -452.5t-418.5 -155.5z" />
    <glyph glyph-name="Uacute" unicode="&#xda;" horiz-adv-x="1521" 
d="M709 1565h-88l192 274h115l6 -10zM760 -39q-559 0 -559 606v883h114v-872q0 -257 110 -382.5t335 -125.5q227 0 336.5 125t109.5 385v870h115v-881q0 -297 -142.5 -452.5t-418.5 -155.5z" />
    <glyph glyph-name="Ucircumflex" unicode="&#xdb;" horiz-adv-x="1521" 
d="M940 1565l-178 221l-180 -221h-84l-9 12l209 262h125l209 -262l-8 -12h-84zM760 -39q-559 0 -559 606v883h114v-872q0 -257 110 -382.5t335 -125.5q227 0 336.5 125t109.5 385v870h115v-881q0 -297 -142.5 -452.5t-418.5 -155.5z" />
    <glyph glyph-name="Udieresis" unicode="&#xdc;" horiz-adv-x="1521" 
d="M520 1688q-7 26 7 50.5t42 33.5q26 7 50 -7t32 -41q6 -30 -7 -53.5t-40 -30.5q-29 -9 -53.5 5t-30.5 43zM872 1688q-7 26 7 50.5t41 33.5q27 7 51.5 -7t32.5 -41q6 -30 -7.5 -53.5t-42.5 -30.5q-28 -9 -52 5t-30 43zM760 -39q-559 0 -559 606v883h114v-872
q0 -257 110 -382.5t335 -125.5q227 0 336.5 125t109.5 385v870h115v-881q0 -297 -142.5 -452.5t-418.5 -155.5z" />
    <glyph glyph-name="Yacute" unicode="&#xdd;" horiz-adv-x="1155" 
d="M526 1565h-88l193 274h114l7 -10zM635 0h-115v602l-508 848h127l242 -420q63 -113 194 -323h7q17 29 87 144t105 177l242 422h127l-508 -848v-602z" />
    <glyph glyph-name="Thorn" unicode="&#xde;" horiz-adv-x="1144" 
d="M330 0h-115v1450h115v-289h256q238 0 360.5 -106.5t122.5 -309.5q0 -198 -125 -306.5t-358 -108.5h-256v-330zM330 1057v-623h223q207 0 303 76.5t96 234.5q0 160 -96 236t-297 76h-229z" />
    <glyph glyph-name="germandbls" unicode="&#xdf;" horiz-adv-x="1148" 
d="M643 -39q-111 0 -201 35l23 94l8 4q84 -35 166 -35q137 0 216 98t79 261q0 171 -101 266.5t-272 95.5h-43v92h37q127 0 203.5 73.5t77.5 207.5q0 126 -73.5 199t-199.5 73q-151 0 -214.5 -96.5t-63.5 -281.5v-1047h-105v1040q0 243 95 364.5t290 121.5q168 0 273 -101.5
t104 -263.5q0 -128 -63.5 -212t-171.5 -111q160 -28 250 -137.5t90 -282.5q0 -200 -111.5 -328.5t-292.5 -128.5z" />
    <glyph glyph-name="agrave" unicode="&#xe0;" horiz-adv-x="976" 
d="M391 1470l238 -376h-88l-271 366l6 10h115zM913 76l11 -6v-82q-61 -21 -111 -21q-64 0 -94.5 35t-30.5 109l-2 16q-92 -90 -171 -128t-167 -38q-112 0 -182 65t-70 169q0 135 138.5 217.5t449.5 119.5v66q0 126 -48.5 185t-146.5 59q-82 0 -159 -48.5t-133 -134.5l-13 -2
l-73 50q63 106 168 168.5t219 62.5q139 0 214.5 -79.5t75.5 -227.5v-500q0 -42 12.5 -58t45.5 -16q15 0 67 19zM207 199q0 -67 44.5 -106.5t121.5 -39.5q79 0 153 35.5t158 116.5v248q-255 -35 -366 -95t-111 -159z" />
    <glyph glyph-name="aacute" unicode="&#xe1;" horiz-adv-x="976" 
d="M692 1470l6 -10l-270 -366h-86l236 376h114zM913 76l11 -6v-82q-61 -21 -111 -21q-64 0 -94.5 35t-30.5 109l-2 16q-92 -90 -171 -128t-167 -38q-112 0 -182 65t-70 169q0 135 138.5 217.5t449.5 119.5v66q0 126 -48.5 185t-146.5 59q-82 0 -159 -48.5t-133 -134.5
l-13 -2l-73 50q63 106 168 168.5t219 62.5q139 0 214.5 -79.5t75.5 -227.5v-500q0 -42 12.5 -58t45.5 -16q15 0 67 19zM207 199q0 -67 44.5 -106.5t121.5 -39.5q79 0 153 35.5t158 116.5v248q-255 -35 -366 -95t-111 -159z" />
    <glyph glyph-name="acircumflex" unicode="&#xe2;" horiz-adv-x="976" 
d="M485 1407l-184 -313h-82l-8 12l213 364h123l211 -364l-6 -12h-84zM913 76l11 -6v-82q-61 -21 -111 -21q-64 0 -94.5 35t-30.5 109l-2 16q-92 -90 -171 -128t-167 -38q-112 0 -182 65t-70 169q0 135 138.5 217.5t449.5 119.5v66q0 126 -48.5 185t-146.5 59
q-82 0 -159 -48.5t-133 -134.5l-13 -2l-73 50q63 106 168 168.5t219 62.5q139 0 214.5 -79.5t75.5 -227.5v-500q0 -42 12.5 -58t45.5 -16q15 0 67 19zM207 199q0 -67 44.5 -106.5t121.5 -39.5q79 0 153 35.5t158 116.5v248q-255 -35 -366 -95t-111 -159z" />
    <glyph glyph-name="atilde" unicode="&#xe3;" horiz-adv-x="976" 
d="M272 1149l-10 -8h-76q12 89 56 142.5t106 53.5q40 0 91.5 -26.5t99.5 -53t82 -26.5q57 0 77 96l11 10h73q-10 -89 -53.5 -142.5t-105.5 -53.5q-44 0 -94.5 26.5t-97.5 53t-81 26.5q-58 0 -78 -98zM913 76l11 -6v-82q-61 -21 -111 -21q-64 0 -94.5 35t-30.5 109l-2 16
q-92 -90 -171 -128t-167 -38q-112 0 -182 65t-70 169q0 135 138.5 217.5t449.5 119.5v66q0 126 -48.5 185t-146.5 59q-82 0 -159 -48.5t-133 -134.5l-13 -2l-73 50q63 106 168 168.5t219 62.5q139 0 214.5 -79.5t75.5 -227.5v-500q0 -42 12.5 -58t45.5 -16q15 0 67 19z
M207 199q0 -67 44.5 -106.5t121.5 -39.5q79 0 153 35.5t158 116.5v248q-255 -35 -366 -95t-111 -159z" />
    <glyph glyph-name="adieresis" unicode="&#xe4;" horiz-adv-x="976" 
d="M340 1161q-29 -9 -52.5 4.5t-31.5 42.5q-7 26 8 50.5t43 33.5q26 8 50 -6.5t30 -42.5q8 -28 -5.5 -51.5t-41.5 -30.5zM666 1161q-28 -9 -51.5 4.5t-30.5 42.5q-6 26 8.5 50.5t42.5 33.5q26 8 50.5 -6.5t31.5 -42.5q6 -28 -8 -51.5t-43 -30.5zM913 76l11 -6v-82
q-61 -21 -111 -21q-64 0 -94.5 35t-30.5 109l-2 16q-92 -90 -171 -128t-167 -38q-112 0 -182 65t-70 169q0 135 138.5 217.5t449.5 119.5v66q0 126 -48.5 185t-146.5 59q-82 0 -159 -48.5t-133 -134.5l-13 -2l-73 50q63 106 168 168.5t219 62.5q139 0 214.5 -79.5
t75.5 -227.5v-500q0 -42 12.5 -58t45.5 -16q15 0 67 19zM207 199q0 -67 44.5 -106.5t121.5 -39.5q79 0 153 35.5t158 116.5v248q-255 -35 -366 -95t-111 -159z" />
    <glyph glyph-name="aring" unicode="&#xe5;" horiz-adv-x="976" 
d="M485 1071q-82 0 -139 56t-57 139t57 138.5t139 55.5t139.5 -55.5t57.5 -138.5t-57.5 -139t-139.5 -56zM485 1401q-58 0 -97.5 -39t-39.5 -96t39.5 -97.5t97.5 -40.5t98 40.5t40 97.5t-40 96t-98 39zM913 76l11 -6v-82q-61 -21 -111 -21q-64 0 -94.5 35t-30.5 109l-2 16
q-92 -90 -171 -128t-167 -38q-112 0 -182 65t-70 169q0 135 138.5 217.5t449.5 119.5v66q0 126 -48.5 185t-146.5 59q-82 0 -159 -48.5t-133 -134.5l-13 -2l-73 50q63 106 168 168.5t219 62.5q139 0 214.5 -79.5t75.5 -227.5v-500q0 -42 12.5 -58t45.5 -16q15 0 67 19z
M207 199q0 -67 44.5 -106.5t121.5 -39.5q79 0 153 35.5t158 116.5v248q-255 -35 -366 -95t-111 -159z" />
    <glyph glyph-name="ae" unicode="&#xe6;" horiz-adv-x="1624" 
d="M348 -39q-112 0 -182 65t-70 169q0 134 137.5 212.5t450.5 114.5v76q0 127 -46.5 185.5t-141.5 58.5q-85 0 -164 -48.5t-135 -134.5l-13 -2l-73 50q63 106 170 168.5t225 62.5q219 0 260 -217h2q52 104 145 160.5t207 56.5q176 0 288 -127.5t112 -339.5v-29h-725
q-1 -174 91.5 -279.5t231.5 -105.5q184 0 303 189l11 4l77 -51q-65 -115 -168.5 -176.5t-226.5 -61.5q-111 0 -207.5 55.5t-154.5 155.5q-120 -122 -210.5 -166.5t-193.5 -44.5zM797 530h612q-6 143 -88.5 228.5t-206.5 85.5q-122 0 -211 -86t-106 -228zM373 53q80 0 158 40
t190 147q-34 83 -37 198q-259 -31 -368 -85.5t-109 -153.5q0 -67 44.5 -106.5t121.5 -39.5z" />
    <glyph glyph-name="ccedilla" unicode="&#xe7;" horiz-adv-x="1067" 
d="M889 258l76 -51q-64 -116 -165.5 -178.5t-228.5 -67.5l-77 -125q40 12 84 12q74 0 120.5 -39t46.5 -102q0 -80 -60 -127t-165 -47q-109 0 -192 45l22 60l12 6q76 -43 162 -43q60 0 97.5 28t37.5 74q0 88 -127 88q-55 0 -108 -22l-27 24l105 170q-184 17 -295 150
t-111 338q0 217 127 352t330 135q131 0 237.5 -62.5t172.5 -183.5l-76 -51l-13 4q-61 102 -139 149.5t-180 47.5q-152 0 -250 -106.5t-98 -284.5q0 -180 98 -287t250 -107q205 0 322 197z" />
    <glyph glyph-name="egrave" unicode="&#xe8;" horiz-adv-x="1077" 
d="M446 1470l238 -376h-88l-270 366l6 10h114zM971 438h-760v-14q0 -166 98.5 -266.5t249.5 -100.5q197 0 313 189l13 4l76 -51q-64 -115 -169 -176.5t-237 -61.5q-203 0 -329 135t-126 353t124.5 353.5t320.5 135.5q195 0 311.5 -126.5t116.5 -344.5q0 -17 -2 -29zM545 844
q-134 0 -224.5 -86.5t-105.5 -231.5h647q-6 147 -92 232.5t-225 85.5z" />
    <glyph glyph-name="eacute" unicode="&#xe9;" horiz-adv-x="1077" 
d="M748 1470l6 -10l-271 -366h-86l236 376h115zM971 438h-760v-14q0 -166 98.5 -266.5t249.5 -100.5q197 0 313 189l13 4l76 -51q-64 -115 -169 -176.5t-237 -61.5q-203 0 -329 135t-126 353t124.5 353.5t320.5 135.5q195 0 311.5 -126.5t116.5 -344.5q0 -17 -2 -29z
M545 844q-134 0 -224.5 -86.5t-105.5 -231.5h647q-6 147 -92 232.5t-225 85.5z" />
    <glyph glyph-name="ecircumflex" unicode="&#xea;" horiz-adv-x="1077" 
d="M541 1407l-185 -313h-82l-8 12l213 364h123l211 -364l-6 -12h-84zM971 438h-760v-14q0 -166 98.5 -266.5t249.5 -100.5q197 0 313 189l13 4l76 -51q-64 -115 -169 -176.5t-237 -61.5q-203 0 -329 135t-126 353t124.5 353.5t320.5 135.5q195 0 311.5 -126.5t116.5 -344.5
q0 -17 -2 -29zM545 844q-134 0 -224.5 -86.5t-105.5 -231.5h647q-6 147 -92 232.5t-225 85.5z" />
    <glyph glyph-name="edieresis" unicode="&#xeb;" horiz-adv-x="1077" 
d="M395 1161q-29 -9 -52.5 4.5t-31.5 42.5q-7 26 8 50.5t43 33.5q26 8 50 -6.5t30 -42.5q8 -28 -5.5 -51.5t-41.5 -30.5zM721 1161q-28 -9 -51.5 4.5t-30.5 42.5q-6 26 8.5 50.5t42.5 33.5q26 8 50.5 -6.5t31.5 -42.5q6 -28 -8 -51.5t-43 -30.5zM971 438h-760v-14
q0 -166 98.5 -266.5t249.5 -100.5q197 0 313 189l13 4l76 -51q-64 -115 -169 -176.5t-237 -61.5q-203 0 -329 135t-126 353t124.5 353.5t320.5 135.5q195 0 311.5 -126.5t116.5 -344.5q0 -17 -2 -29zM545 844q-134 0 -224.5 -86.5t-105.5 -231.5h647q-6 147 -92 232.5
t-225 85.5z" />
    <glyph glyph-name="igrave" unicode="&#xec;" horiz-adv-x="462" 
d="M137 1470l238 -376h-88l-271 366l7 10h114zM285 0h-105v899h105v-899z" />
    <glyph glyph-name="iacute" unicode="&#xed;" horiz-adv-x="462" 
d="M174 1094h-86l236 376h114l6 -10zM285 0h-105v899h105v-899z" />
    <glyph glyph-name="icircumflex" unicode="&#xee;" horiz-adv-x="462" 
d="M414 1094l-183 313l-184 -313h-82l-8 12l213 364h123l211 -364l-6 -12h-84zM285 0h-105v899h105v-899z" />
    <glyph glyph-name="idieresis" unicode="&#xef;" horiz-adv-x="462" 
d="M2 1208q-7 26 8 50.5t43 33.5q26 8 50 -6.5t30 -42.5q8 -28 -5.5 -51.5t-41.5 -30.5q-29 -9 -52.5 4.5t-31.5 42.5zM330 1208q-6 26 8.5 50.5t42.5 33.5q26 8 50.5 -6.5t31.5 -42.5q6 -28 -8 -51.5t-43 -30.5q-28 -9 -51.5 4.5t-30.5 42.5zM285 0h-105v899h105v-899z" />
    <glyph glyph-name="eth" unicode="&#xf0;" horiz-adv-x="1183" 
d="M924 1395l-217 -103q156 -189 231.5 -382.5t75.5 -420.5q0 -242 -134.5 -385t-342.5 -143q-203 0 -322 134.5t-119 355.5q0 214 125 350.5t311 136.5q116 0 214.5 -64.5t152.5 -177.5q-49 283 -291 551l-209 -98l-55 68l207 96q-67 77 -150 153l84 56q70 -59 166 -162
l217 102zM543 59q156 0 257.5 107.5t104.5 275.5q1 168 -100.5 283t-251.5 115q-153 0 -249.5 -107.5t-96.5 -281.5q0 -180 90 -286t246 -106z" />
    <glyph glyph-name="ntilde" unicode="&#xf1;" horiz-adv-x="1161" 
d="M719 1141q62 0 106 53.5t54 142.5h-74l-10 -10q-20 -96 -78 -96q-34 0 -82 26.5t-99.5 53t-91.5 26.5q-61 0 -105 -53.5t-56 -142.5h75l11 8q20 98 77 98q34 0 81 -26.5t97.5 -53t94.5 -26.5zM180 0v899h105v-199q55 113 149 175.5t207 62.5q166 0 254 -96.5t88 -280.5
v-561h-104v508q0 171 -65 251.5t-202 80.5t-232 -108t-95 -263v-469h-105z" />
    <glyph glyph-name="ograve" unicode="&#xf2;" horiz-adv-x="1171" 
d="M492 1470l237 -376h-88l-270 366l6 10h115zM586 -39q-209 0 -349.5 142t-140.5 348q0 135 63 246t175.5 176t251.5 65q210 0 348.5 -140.5t138.5 -346.5q0 -135 -62.5 -247t-174.5 -177.5t-250 -65.5zM586 59q158 0 267.5 114t109.5 278t-108.5 276.5t-268.5 112.5
q-162 0 -270.5 -112.5t-108.5 -276.5t109.5 -278t269.5 -114z" />
    <glyph glyph-name="oacute" unicode="&#xf3;" horiz-adv-x="1171" 
d="M528 1094h-86l236 376h115l6 -10zM586 -39q-209 0 -349.5 142t-140.5 348q0 135 63 246t175.5 176t251.5 65q210 0 348.5 -140.5t138.5 -346.5q0 -135 -62.5 -247t-174.5 -177.5t-250 -65.5zM586 59q158 0 267.5 114t109.5 278t-108.5 276.5t-268.5 112.5
q-162 0 -270.5 -112.5t-108.5 -276.5t109.5 -278t269.5 -114z" />
    <glyph glyph-name="ocircumflex" unicode="&#xf4;" horiz-adv-x="1171" 
d="M768 1094l-182 313l-185 -313h-82l-8 12l213 364h123l211 -364l-6 -12h-84zM586 -39q-209 0 -349.5 142t-140.5 348q0 135 63 246t175.5 176t251.5 65q210 0 348.5 -140.5t138.5 -346.5q0 -135 -62.5 -247t-174.5 -177.5t-250 -65.5zM586 59q158 0 267.5 114t109.5 278
t-108.5 276.5t-268.5 112.5q-162 0 -270.5 -112.5t-108.5 -276.5t109.5 -278t269.5 -114z" />
    <glyph glyph-name="otilde" unicode="&#xf5;" horiz-adv-x="1171" 
d="M723 1141q62 0 106 53.5t54 142.5h-74l-10 -10q-20 -96 -78 -96q-34 0 -82 26.5t-99 53t-91 26.5q-62 0 -106 -53.5t-56 -142.5h75l11 8q20 98 78 98q28 0 63.5 -16.5t65 -36.5t69 -36.5t74.5 -16.5zM586 -39q-209 0 -349.5 142t-140.5 348q0 135 63 246t175.5 176
t251.5 65q210 0 348.5 -140.5t138.5 -346.5q0 -135 -62.5 -247t-174.5 -177.5t-250 -65.5zM586 59q158 0 267.5 114t109.5 278t-108.5 276.5t-268.5 112.5q-162 0 -270.5 -112.5t-108.5 -276.5t109.5 -278t269.5 -114z" />
    <glyph glyph-name="odieresis" unicode="&#xf6;" horiz-adv-x="1171" 
d="M356 1208q-7 26 8.5 50.5t43.5 33.5q26 8 49.5 -6.5t29.5 -42.5q8 -28 -5.5 -51.5t-41.5 -30.5q-29 -9 -52.5 4.5t-31.5 42.5zM684 1208q-6 26 8.5 50.5t42.5 33.5q26 8 50.5 -6.5t31.5 -42.5q6 -28 -8 -51.5t-43 -30.5q-28 -9 -51.5 4.5t-30.5 42.5zM586 -39
q-209 0 -349.5 142t-140.5 348q0 135 63 246t175.5 176t251.5 65q210 0 348.5 -140.5t138.5 -346.5q0 -135 -62.5 -247t-174.5 -177.5t-250 -65.5zM586 59q158 0 267.5 114t109.5 278t-108.5 276.5t-268.5 112.5q-162 0 -270.5 -112.5t-108.5 -276.5t109.5 -278t269.5 -114z
" />
    <glyph glyph-name="divide" unicode="&#xf7;" horiz-adv-x="1433" 
d="M719 866q-41 0 -69.5 29t-28.5 72t28.5 71.5t69.5 28.5t68.5 -28.5t27.5 -71.5t-27.5 -72t-68.5 -29zM1247 580h-1061v88h1061v-88zM719 182q-41 0 -69.5 29t-28.5 70q0 43 28.5 71.5t69.5 28.5t68.5 -28.5t27.5 -71.5q0 -42 -27.5 -70.5t-68.5 -28.5z" />
    <glyph glyph-name="oslash" unicode="&#xf8;" horiz-adv-x="1171" 
d="M997 877l-65 -78q141 -141 141 -348q0 -135 -62.5 -247t-174.5 -177.5t-250 -65.5q-161 0 -287 90l-61 -76l-64 48l66 77q-68 68 -106 158.5t-38 192.5q0 135 63 246t175.5 176t251.5 65q163 0 286 -90l64 76zM207 451q0 -156 102 -269l498 586q-98 72 -221 72
q-162 0 -270.5 -112.5t-108.5 -276.5zM586 59q158 0 267.5 114t109.5 278q0 154 -101 266l-495 -586q98 -72 219 -72z" />
    <glyph glyph-name="ugrave" unicode="&#xf9;" horiz-adv-x="1138" 
d="M475 1470l238 -376h-88l-271 366l6 10h115zM961 899v-899h-105v197q-56 -112 -149.5 -174t-198.5 -62q-158 0 -243 97t-85 286v555h105v-512q0 -169 62.5 -248.5t191.5 -79.5t223 108t94 263v469h105z" />
    <glyph glyph-name="uacute" unicode="&#xfa;" horiz-adv-x="1138" 
d="M512 1094h-86l236 376h114l6 -10zM961 899v-899h-105v197q-56 -112 -149.5 -174t-198.5 -62q-158 0 -243 97t-85 286v555h105v-512q0 -169 62.5 -248.5t191.5 -79.5t223 108t94 263v469h105z" />
    <glyph glyph-name="ucircumflex" unicode="&#xfb;" horiz-adv-x="1138" 
d="M752 1094l-183 313l-184 -313h-82l-8 12l213 364h123l211 -364l-6 -12h-84zM961 899v-899h-105v197q-56 -112 -149.5 -174t-198.5 -62q-158 0 -243 97t-85 286v555h105v-512q0 -169 62.5 -248.5t191.5 -79.5t223 108t94 263v469h105z" />
    <glyph glyph-name="udieresis" unicode="&#xfc;" horiz-adv-x="1138" 
d="M340 1208q-7 26 8 50.5t43 33.5q26 8 50 -6.5t30 -42.5q8 -28 -5.5 -51.5t-41.5 -30.5q-29 -9 -52.5 4.5t-31.5 42.5zM668 1208q-6 26 8.5 50.5t42.5 33.5q26 8 50.5 -6.5t31.5 -42.5q6 -28 -8 -51.5t-43 -30.5q-28 -9 -51.5 4.5t-30.5 42.5zM961 899v-899h-105v197
q-56 -112 -149.5 -174t-198.5 -62q-158 0 -243 97t-85 286v555h105v-512q0 -169 62.5 -248.5t191.5 -79.5t223 108t94 263v469h105z" />
    <glyph glyph-name="yacute" unicode="&#xfd;" horiz-adv-x="935" 
d="M432 1094h-86l236 376h114l6 -10zM297 -446h-119l240 501l-373 844h119l309 -727h4l322 727h119z" />
    <glyph glyph-name="thorn" unicode="&#xfe;" horiz-adv-x="1181" 
d="M180 -446v1947h105v-508v-297q55 114 154.5 178t219.5 64q190 0 307 -131.5t117 -347.5q0 -220 -120 -359t-312 -139q-115 0 -218 64.5t-148 169.5v-297v-344h-105zM635 59q155 0 246.5 108t91.5 292q0 175 -90 278t-244 103t-257.5 -114t-102.5 -284q1 -167 101.5 -275
t254.5 -108z" />
    <glyph glyph-name="ydieresis" unicode="&#xff;" horiz-adv-x="935" 
d="M260 1208q-7 26 8 50.5t43 33.5q26 8 50 -6.5t30 -42.5q8 -28 -5.5 -51.5t-41.5 -30.5q-29 -9 -52.5 4.5t-31.5 42.5zM588 1208q-6 26 8.5 50.5t42.5 33.5q26 8 50.5 -6.5t31.5 -42.5q6 -28 -8 -51.5t-43 -30.5q-28 -9 -51.5 4.5t-30.5 42.5zM297 -446h-119l240 501
l-373 844h119l309 -727h4l322 727h119z" />
    <glyph glyph-name="Amacron" unicode="&#x100;" horiz-adv-x="1325" 
d="M401 1743h521v-96h-521v96zM1327 0h-125l-168 406h-743l-168 -406h-125l625 1452h82zM532 989l-200 -483h659l-200 483q-19 44 -129 307h-5q-23 -57 -67.5 -166.5t-57.5 -140.5z" />
    <glyph glyph-name="amacron" unicode="&#x101;" horiz-adv-x="976" 
d="M225 1276h520v-90h-520v90zM913 76l11 -6v-82q-61 -21 -111 -21q-64 0 -94.5 35t-30.5 109l-2 16q-92 -90 -171 -128t-167 -38q-112 0 -182 65t-70 169q0 135 138.5 217.5t449.5 119.5v66q0 126 -48.5 185t-146.5 59q-82 0 -159 -48.5t-133 -134.5l-13 -2l-73 50
q63 106 168 168.5t219 62.5q139 0 214.5 -79.5t75.5 -227.5v-500q0 -42 12.5 -58t45.5 -16q15 0 67 19zM207 199q0 -67 44.5 -106.5t121.5 -39.5q79 0 153 35.5t158 116.5v248q-255 -35 -366 -95t-111 -159z" />
    <glyph glyph-name="Abreve" unicode="&#x102;" horiz-adv-x="1325" 
d="M662 1573q-128 0 -208.5 68.5t-95.5 189.5l13 10h78q37 -176 213 -176q178 0 215 176h77l11 -10q-13 -121 -93.5 -189.5t-209.5 -68.5zM1327 0h-125l-168 406h-743l-168 -406h-125l625 1452h82zM532 989l-200 -483h659l-200 483q-19 44 -129 307h-5q-23 -57 -67.5 -166.5
t-57.5 -140.5z" />
    <glyph glyph-name="abreve" unicode="&#x103;" horiz-adv-x="976" 
d="M485 1108q-128 0 -208 68.5t-95 189.5l13 10h77q37 -178 213 -178q178 0 215 178h78l10 -10q-13 -121 -93.5 -189.5t-209.5 -68.5zM913 76l11 -6v-82q-61 -21 -111 -21q-64 0 -94.5 35t-30.5 109l-2 16q-92 -90 -171 -128t-167 -38q-112 0 -182 65t-70 169
q0 135 138.5 217.5t449.5 119.5v66q0 126 -48.5 185t-146.5 59q-82 0 -159 -48.5t-133 -134.5l-13 -2l-73 50q63 106 168 168.5t219 62.5q139 0 214.5 -79.5t75.5 -227.5v-500q0 -42 12.5 -58t45.5 -16q15 0 67 19zM207 199q0 -67 44.5 -106.5t121.5 -39.5q79 0 153 35.5
t158 116.5v248q-255 -35 -366 -95t-111 -159z" />
    <glyph glyph-name="Aogonek" unicode="&#x104;" horiz-adv-x="1325" 
d="M1354 -336h8l27 -65q-74 -56 -168 -56q-83 0 -136 47t-53 123q0 135 195 287h-25l-168 406h-743l-168 -406h-125l625 1452h82l622 -1452h-29q-101 -86 -140.5 -146t-39.5 -118q0 -50 34.5 -82.5t84.5 -32.5q64 0 117 43zM532 989l-200 -483h659l-200 483q-19 44 -129 307
h-5q-23 -57 -67.5 -166.5t-57.5 -140.5z" />
    <glyph glyph-name="aogonek" unicode="&#x105;" horiz-adv-x="976" 
d="M780 -31q-81 -73 -113 -126.5t-32 -106.5q0 -50 34.5 -82.5t84.5 -32.5q63 0 116 43h9l26 -65q-74 -56 -168 -56q-82 0 -135 47t-53 123q0 133 182 277q-43 34 -43 121l-2 16q-92 -90 -171 -128t-167 -38q-112 0 -182 65t-70 169q0 135 138.5 217.5t449.5 119.5v66
q0 126 -48.5 185t-146.5 59q-82 0 -159 -48.5t-133 -134.5l-13 -2l-73 50q63 106 168 168.5t219 62.5q139 0 214.5 -79.5t75.5 -227.5v-500q0 -42 12.5 -58t45.5 -16q15 0 67 19l11 -6v-82q-61 -21 -111 -21q-23 0 -33 2zM207 199q0 -67 44.5 -106.5t121.5 -39.5
q79 0 153 35.5t158 116.5v248q-255 -35 -366 -95t-111 -159z" />
    <glyph glyph-name="Cacute" unicode="&#x106;" horiz-adv-x="1642" 
d="M838 1565h-88l192 274h115l6 -10zM870 -39q-160 0 -299 58t-238 158.5t-155.5 242.5t-56.5 305q0 216 97 391t268 274t382 99q442 0 658 -393l-78 -56l-25 4q-188 336 -555 336q-176 0 -319.5 -85.5t-225 -235.5t-81.5 -334q0 -138 48.5 -259.5t132.5 -208t201 -137
t248 -50.5q193 0 332.5 82t231.5 249l24 5l76 -56q-117 -197 -280.5 -293t-385.5 -96z" />
    <glyph glyph-name="cacute" unicode="&#x107;" horiz-adv-x="1067" 
d="M504 1094h-86l235 376h115l6 -10zM553 -39q-204 0 -330.5 135t-126.5 355q0 217 127 352t330 135q131 0 237.5 -62.5t172.5 -183.5l-76 -51l-13 4q-61 102 -139 149.5t-180 47.5q-152 0 -250 -106.5t-98 -284.5q0 -180 98 -287t250 -107q205 0 322 197l12 4l76 -51
q-67 -121 -173 -183.5t-239 -62.5z" />
    <glyph glyph-name="Ccircumflex" unicode="&#x108;" horiz-adv-x="1642" 
d="M1069 1565l-178 221l-180 -221h-84l-9 12l209 262h125l209 -262l-8 -12h-84zM870 -39q-160 0 -299 58t-238 158.5t-155.5 242.5t-56.5 305q0 216 97 391t268 274t382 99q442 0 658 -393l-78 -56l-25 4q-188 336 -555 336q-176 0 -319.5 -85.5t-225 -235.5t-81.5 -334
q0 -138 48.5 -259.5t132.5 -208t201 -137t248 -50.5q193 0 332.5 82t231.5 249l24 5l76 -56q-117 -197 -280.5 -293t-385.5 -96z" />
    <glyph glyph-name="ccircumflex" unicode="&#x109;" horiz-adv-x="1067" 
d="M745 1094l-182 313l-184 -313h-82l-8 12l213 364h123l211 -364l-7 -12h-84zM553 -39q-204 0 -330.5 135t-126.5 355q0 217 127 352t330 135q131 0 237.5 -62.5t172.5 -183.5l-76 -51l-13 4q-61 102 -139 149.5t-180 47.5q-152 0 -250 -106.5t-98 -284.5q0 -180 98 -287
t250 -107q205 0 322 197l12 4l76 -51q-67 -121 -173 -183.5t-239 -62.5z" />
    <glyph glyph-name="Cdotaccent" unicode="&#x10a;" horiz-adv-x="1642" 
d="M891 1608q-36 0 -60 24t-24 60q0 37 24.5 61.5t59.5 24.5q34 0 58 -25.5t24 -60.5q0 -36 -24 -60t-58 -24zM870 -39q-160 0 -299 58t-238 158.5t-155.5 242.5t-56.5 305q0 216 97 391t268 274t382 99q442 0 658 -393l-78 -56l-25 4q-188 336 -555 336
q-176 0 -319.5 -85.5t-225 -235.5t-81.5 -334q0 -138 48.5 -259.5t132.5 -208t201 -137t248 -50.5q193 0 332.5 82t231.5 249l24 5l76 -56q-117 -197 -280.5 -293t-385.5 -96z" />
    <glyph glyph-name="cdotaccent" unicode="&#x10b;" horiz-adv-x="1067" 
d="M563 1143q-36 0 -60 24t-24 60q0 37 24.5 61.5t59.5 24.5q34 0 58 -25.5t24 -60.5q0 -36 -24 -60t-58 -24zM553 -39q-204 0 -330.5 135t-126.5 355q0 217 127 352t330 135q131 0 237.5 -62.5t172.5 -183.5l-76 -51l-13 4q-61 102 -139 149.5t-180 47.5
q-152 0 -250 -106.5t-98 -284.5q0 -180 98 -287t250 -107q205 0 322 197l12 4l76 -51q-67 -121 -173 -183.5t-239 -62.5z" />
    <glyph glyph-name="Ccaron" unicode="&#x10c;" horiz-adv-x="1642" 
d="M952 1565h-125l-200 262l8 12h84l172 -221l170 221h84l6 -12zM870 -39q-160 0 -299 58t-238 158.5t-155.5 242.5t-56.5 305q0 216 97 391t268 274t382 99q442 0 658 -393l-78 -56l-25 4q-188 336 -555 336q-176 0 -319.5 -85.5t-225 -235.5t-81.5 -334
q0 -138 48.5 -259.5t132.5 -208t201 -137t248 -50.5q193 0 332.5 82t231.5 249l24 5l76 -56q-117 -197 -280.5 -293t-385.5 -96z" />
    <glyph glyph-name="ccaron" unicode="&#x10d;" horiz-adv-x="1067" 
d="M379 1470l184 -313l182 313h84l7 -12l-211 -364h-123l-213 364l8 12h82zM553 -39q-204 0 -330.5 135t-126.5 355q0 217 127 352t330 135q131 0 237.5 -62.5t172.5 -183.5l-76 -51l-13 4q-61 102 -139 149.5t-180 47.5q-152 0 -250 -106.5t-98 -284.5q0 -180 98 -287
t250 -107q205 0 322 197l12 4l76 -51q-67 -121 -173 -183.5t-239 -62.5z" />
    <glyph glyph-name="Dcaron" unicode="&#x10e;" horiz-adv-x="1523" 
d="M772 1565h-125l-201 262l9 12h84l172 -221l170 221h84l6 -12zM580 0h-365v1450h365q405 0 614 -183t209 -532q0 -352 -215.5 -543.5t-607.5 -191.5zM330 1343v-1237h223q365 0 548 156t183 475q0 308 -179.5 457t-549.5 149h-225z" />
    <glyph glyph-name="dcaron" unicode="&#x10f;" horiz-adv-x="1351" 
d="M526 -39q-196 0 -313 134.5t-117 355.5q0 214 125 350.5t311 136.5q116 0 214.5 -64.5t152.5 -177.5v297v508h105v-1501h-101v199q-49 -106 -154.5 -172t-222.5 -66zM1360 1452l-170 -387l-76 29l137 389l15 6zM543 59q157 0 258 107t104 276q1 168 -100.5 283
t-251.5 115q-153 0 -249.5 -107.5t-96.5 -281.5q0 -180 90 -286t246 -106z" />
    <glyph glyph-name="Dcroat" unicode="&#x110;" horiz-adv-x="1523" 
d="M215 1450h365q405 0 614 -183t209 -532q0 -352 -215.5 -543.5t-607.5 -191.5h-365v690h-135v107h135v653zM330 106h223q365 0 548 156t183 475q0 308 -179.5 457t-549.5 149h-225v-546h438v-107h-438v-584z" />
    <glyph glyph-name="dcroat" unicode="&#x111;" horiz-adv-x="1183" 
d="M1004 1501v-244h137v-92h-137v-1165h-101v199q-49 -106 -154.5 -172t-222.5 -66q-196 0 -313 134.5t-117 355.5q0 214 125 350.5t311 136.5q116 0 214.5 -64.5t152.5 -177.5v297v172h-336v92h336v244h105zM905 442q1 168 -100.5 283t-251.5 115q-153 0 -249.5 -107.5
t-96.5 -281.5q0 -180 90 -286t246 -106q157 0 258 107t104 276z" />
    <glyph glyph-name="Emacron" unicode="&#x112;" horiz-adv-x="1181" 
d="M881 1647h-521v96h521v-96zM215 0v1450h807l12 -107h-704v-546h655v-107h-655v-584h704l-12 -106h-807z" />
    <glyph glyph-name="emacron" unicode="&#x113;" horiz-adv-x="1077" 
d="M281 1276h520v-90h-520v90zM971 438h-760v-14q0 -166 98.5 -266.5t249.5 -100.5q197 0 313 189l13 4l76 -51q-64 -115 -169 -176.5t-237 -61.5q-203 0 -329 135t-126 353t124.5 353.5t320.5 135.5q195 0 311.5 -126.5t116.5 -344.5q0 -17 -2 -29zM545 844
q-134 0 -224.5 -86.5t-105.5 -231.5h647q-6 147 -92 232.5t-225 85.5z" />
    <glyph glyph-name="Edotaccent" unicode="&#x116;" horiz-adv-x="1181" 
d="M621 1608q-36 0 -60 24t-24 60q0 37 24.5 61.5t59.5 24.5q34 0 57.5 -25.5t23.5 -60.5q0 -36 -23.5 -60t-57.5 -24zM215 0v1450h807l12 -107h-704v-546h655v-107h-655v-584h704l-12 -106h-807z" />
    <glyph glyph-name="edotaccent" unicode="&#x117;" horiz-adv-x="1077" 
d="M541 1143q-36 0 -60 24t-24 60q0 37 24.5 61.5t59.5 24.5q34 0 58 -25.5t24 -60.5q0 -36 -24 -60t-58 -24zM971 438h-760v-14q0 -166 98.5 -266.5t249.5 -100.5q197 0 313 189l13 4l76 -51q-64 -115 -169 -176.5t-237 -61.5q-203 0 -329 135t-126 353t124.5 353.5
t320.5 135.5q195 0 311.5 -126.5t116.5 -344.5q0 -17 -2 -29zM545 844q-134 0 -224.5 -86.5t-105.5 -231.5h647q-6 147 -92 232.5t-225 85.5z" />
    <glyph glyph-name="Eogonek" unicode="&#x118;" horiz-adv-x="1181" 
d="M1030 -336h8l27 -65q-74 -56 -168 -56q-82 0 -135 47t-53 123q0 136 194 287h-688v1450h807l12 -107h-704v-546h655v-107h-655v-584h704l-12 -106h-47q-101 -86 -140.5 -146t-39.5 -118q0 -50 34 -82.5t84 -32.5q64 0 117 43z" />
    <glyph glyph-name="eogonek" unicode="&#x119;" horiz-adv-x="1077" 
d="M670 -457q-83 0 -136 47t-53 123q0 121 158 256q-36 -8 -84 -8q-203 0 -329 135t-126 353t124.5 353.5t320.5 135.5t312 -127t116 -344q0 -17 -2 -29h-760v-14q0 -166 98.5 -266.5t249.5 -100.5q197 0 313 189l13 4l76 -51q-77 -139 -213 -199q-101 -87 -141 -147
t-40 -117q0 -50 34.5 -82.5t86.5 -32.5q62 0 115 43h8l27 -65q-74 -56 -168 -56zM215 526h647q-6 147 -92 232.5t-225 85.5q-134 0 -224.5 -86.5t-105.5 -231.5z" />
    <glyph glyph-name="Ecaron" unicode="&#x11a;" horiz-adv-x="1181" 
d="M682 1565h-125l-201 262l9 12h84l172 -221l170 221h83l7 -12zM215 0v1450h807l12 -107h-704v-546h655v-107h-655v-584h704l-12 -106h-807z" />
    <glyph glyph-name="ecaron" unicode="&#x11b;" horiz-adv-x="1077" 
d="M813 1458l-211 -364h-123l-213 364l8 12h82l185 -313l182 313h84zM971 438h-760v-14q0 -166 98.5 -266.5t249.5 -100.5q197 0 313 189l13 4l76 -51q-64 -115 -169 -176.5t-237 -61.5q-203 0 -329 135t-126 353t124.5 353.5t320.5 135.5q195 0 311.5 -126.5t116.5 -344.5
q0 -17 -2 -29zM545 844q-134 0 -224.5 -86.5t-105.5 -231.5h647q-6 147 -92 232.5t-225 85.5z" />
    <glyph glyph-name="Gbreve" unicode="&#x11e;" horiz-adv-x="1740" 
d="M870 1573q-128 0 -208 68.5t-95 189.5l13 10h77q37 -176 213 -176q178 0 215 176h78l11 -10q-13 -121 -94 -189.5t-210 -68.5zM866 -39q-159 0 -297.5 57.5t-236.5 158t-154.5 242t-56.5 304.5t57 305t156 243.5t238.5 159.5t299.5 58q444 0 670 -385l-80 -55l-22 4
q-98 165 -236 246t-332 81q-178 0 -322.5 -85.5t-226 -236t-81.5 -335.5q0 -184 81 -333.5t223.5 -234.5t317.5 -85q139 0 259.5 50.5t207.5 152t117 239.5v121h-473v100h577v-733h-108v98q0 94 10 176l-4 2q-102 -153 -251 -234t-333 -81z" />
    <glyph glyph-name="gbreve" unicode="&#x11f;" horiz-adv-x="1003" 
d="M502 1108q-128 0 -208 68.5t-95 189.5l12 10h78q37 -178 213 -178q178 0 215 178h78l10 -10q-13 -121 -93.5 -189.5t-209.5 -68.5zM492 -471q-211 0 -335 76.5t-124 206.5q0 89 68.5 154t187.5 93q-111 44 -111 121q0 102 168 139q-107 26 -172 107.5t-65 187.5
q0 141 108.5 232.5t274.5 91.5q103 0 186 -39h276l4 -80l-12 -12l-162 10q88 -85 88 -211q0 -131 -93 -213.5t-257 -95.5q-125 -10 -182 -34.5t-57 -65.5q0 -35 54 -57t191 -42q228 -34 327 -97t99 -177q0 -135 -125 -215t-337 -80zM489 383q126 0 202.5 63t76.5 166
q0 104 -77 169t-199 65q-124 0 -201.5 -64.5t-77.5 -169.5q0 -103 75.5 -165t200.5 -64zM494 -379q165 0 257.5 53t92.5 148q0 78 -80 121t-256 65l-88 12q-131 -19 -204 -71.5t-73 -130.5q0 -88 97 -142.5t254 -54.5z" />
    <glyph glyph-name="Gdotaccent" unicode="&#x120;" horiz-adv-x="1740" 
d="M872 1608q-36 0 -60 24t-24 60q0 37 24.5 61.5t59.5 24.5q34 0 58 -25.5t24 -60.5q0 -36 -24 -60t-58 -24zM866 -39q-159 0 -297.5 57.5t-236.5 158t-154.5 242t-56.5 304.5t57 305t156 243.5t238.5 159.5t299.5 58q444 0 670 -385l-80 -55l-22 4q-98 165 -236 246
t-332 81q-178 0 -322.5 -85.5t-226 -236t-81.5 -335.5q0 -184 81 -333.5t223.5 -234.5t317.5 -85q139 0 259.5 50.5t207.5 152t117 239.5v121h-473v100h577v-733h-108v98q0 94 10 176l-4 2q-102 -153 -251 -234t-333 -81z" />
    <glyph glyph-name="gdotaccent" unicode="&#x121;" horiz-adv-x="1003" 
d="M504 1143q-36 0 -60 24t-24 60q0 37 24.5 61.5t59.5 24.5q34 0 58 -25.5t24 -60.5q0 -36 -24 -60t-58 -24zM492 -471q-211 0 -335 76.5t-124 206.5q0 89 68.5 154t187.5 93q-111 44 -111 121q0 102 168 139q-107 26 -172 107.5t-65 187.5q0 141 108.5 232.5t274.5 91.5
q103 0 186 -39h276l4 -80l-12 -12l-162 10q88 -85 88 -211q0 -131 -93 -213.5t-257 -95.5q-125 -10 -182 -34.5t-57 -65.5q0 -35 54 -57t191 -42q228 -34 327 -97t99 -177q0 -135 -125 -215t-337 -80zM489 383q126 0 202.5 63t76.5 166q0 104 -77 169t-199 65
q-124 0 -201.5 -64.5t-77.5 -169.5q0 -103 75.5 -165t200.5 -64zM494 -379q165 0 257.5 53t92.5 148q0 78 -80 121t-256 65l-88 12q-131 -19 -204 -71.5t-73 -130.5q0 -88 97 -142.5t254 -54.5z" />
    <glyph glyph-name="uni0122" unicode="&#x122;" horiz-adv-x="1740" 
d="M866 -39q-159 0 -297.5 57.5t-236.5 158t-154.5 242t-56.5 304.5t57 305t156 243.5t238.5 159.5t299.5 58q444 0 670 -385l-80 -55l-22 4q-98 165 -236 246t-332 81q-178 0 -322.5 -85.5t-226 -236t-81.5 -335.5q0 -184 81 -333.5t223.5 -234.5t317.5 -85
q139 0 259.5 50.5t207.5 152t117 239.5v121h-473v100h577v-733h-108v98q0 94 10 176l-4 2q-102 -153 -251 -234t-333 -81zM965 -133l-152 -344l-78 31l115 348l14 6z" />
    <glyph glyph-name="uni0123" unicode="&#x123;" horiz-adv-x="1003" 
d="M389 1130l152 347l73 -29l-114 -350l-15 -6zM492 -471q-211 0 -335 76.5t-124 206.5q0 89 68.5 154t187.5 93q-111 44 -111 121q0 102 168 139q-107 26 -172 107.5t-65 187.5q0 141 108.5 232.5t274.5 91.5q103 0 186 -39h276l4 -80l-12 -12l-162 10q88 -85 88 -211
q0 -131 -93 -213.5t-257 -95.5q-125 -10 -182 -34.5t-57 -65.5q0 -35 54 -57t191 -42q228 -34 327 -97t99 -177q0 -135 -125 -215t-337 -80zM489 383q126 0 202.5 63t76.5 166q0 104 -77 169t-199 65q-124 0 -201.5 -64.5t-77.5 -169.5q0 -103 75.5 -165t200.5 -64z
M494 -379q165 0 257.5 53t92.5 148q0 78 -80 121t-256 65l-88 12q-131 -19 -204 -71.5t-73 -130.5q0 -88 97 -142.5t254 -54.5z" />
    <glyph glyph-name="Hbar" unicode="&#x126;" horiz-adv-x="1542" 
d="M1327 1450v-236h115v-92h-115v-1122h-115v682h-882v-682h-115v1122h-113v92h113v236h115v-236h882v236h115zM330 788h882v334h-882v-334z" />
    <glyph glyph-name="hbar" unicode="&#x127;" horiz-adv-x="1161" 
d="M641 938q165 0 253.5 -96t88.5 -281v-561h-104v508q0 172 -65.5 252t-201.5 80q-138 0 -232.5 -107.5t-94.5 -263.5v-469h-105v1165h-137v92h137v244h105v-244h336v-92h-336v-172v-293q55 113 149 175.5t207 62.5z" />
    <glyph glyph-name="Itilde" unicode="&#x128;" horiz-adv-x="544" 
d="M410 1602q62 0 105.5 53.5t53.5 142.5h-73l-11 -10q-20 -96 -77 -96q-34 0 -82 26.5t-99.5 53t-91.5 26.5q-62 0 -106 -53.5t-56 -142.5h76l10 8q20 98 78 98q34 0 81 -26.5t97.5 -53t94.5 -26.5zM215 0v1450h115v-1450h-115z" />
    <glyph glyph-name="itilde" unicode="&#x129;" horiz-adv-x="462" 
d="M369 1141q62 0 105.5 53.5t53.5 142.5h-73l-11 -10q-20 -96 -77 -96q-34 0 -82 26.5t-99.5 53t-91.5 26.5q-62 0 -106 -53.5t-56 -142.5h76l10 8q20 98 78 98q34 0 81 -26.5t97.5 -53t94.5 -26.5zM285 0h-105v899h105v-899z" />
    <glyph glyph-name="Imacron" unicode="&#x12a;" horiz-adv-x="544" 
d="M532 1647h-520v96h520v-96zM215 0v1450h115v-1450h-115z" />
    <glyph glyph-name="imacron" unicode="&#x12b;" horiz-adv-x="462" 
d="M492 1186h-521v90h521v-90zM285 0h-105v899h105v-899z" />
    <glyph glyph-name="Ibreve" unicode="&#x12c;" horiz-adv-x="544" 
d="M272 1573q-128 0 -208 68.5t-95 189.5l13 10h77q37 -176 213 -176q178 0 215 176h78l10 -10q-13 -121 -93.5 -189.5t-209.5 -68.5zM215 0v1450h115v-1450h-115z" />
    <glyph glyph-name="ibreve" unicode="&#x12d;" horiz-adv-x="462" 
d="M231 1108q-128 0 -208 68.5t-95 189.5l13 10h77q37 -178 213 -178q178 0 215 178h78l11 -10q-13 -121 -94 -189.5t-210 -68.5zM285 0h-105v899h105v-899z" />
    <glyph glyph-name="Iogonek" unicode="&#x12e;" horiz-adv-x="544" 
d="M373 -336h8l27 -65q-74 -56 -168 -56q-83 0 -136 47t-53 123q0 135 195 287h-31v1450h115v-1450h-13q-101 -86 -140.5 -146t-39.5 -118q0 -50 34.5 -82.5t84.5 -32.5q64 0 117 43z" />
    <glyph glyph-name="iogonek" unicode="&#x12f;" horiz-adv-x="462" 
d="M233 1143q-35 0 -59 23.5t-24 60.5t24 61.5t59 24.5q34 0 58 -25.5t24 -60.5q0 -36 -24 -60t-58 -24zM330 -336h8l27 -65q-74 -56 -168 -56q-83 0 -136 47t-53 123q0 135 195 287h-23v899h105v-899h-11q-101 -86 -140.5 -146t-39.5 -118q0 -50 34.5 -82.5t84.5 -32.5
q64 0 117 43z" />
    <glyph glyph-name="Idotaccent" unicode="&#x130;" horiz-adv-x="544" 
d="M274 1608q-36 0 -60 24t-24 60q0 37 24.5 61.5t59.5 24.5q34 0 58 -25.5t24 -60.5q0 -36 -24 -60t-58 -24zM215 0v1450h115v-1450h-115z" />
    <glyph glyph-name="dotlessi" unicode="&#x131;" horiz-adv-x="462" 
d="M285 0h-105v899h105v-899z" />
    <glyph glyph-name="IJ" unicode="&#x132;" horiz-adv-x="1538" 
d="M215 0v1450h115v-1450h-115zM680 295l20 -6q26 -106 95 -164.5t166 -58.5q121 0 188.5 93.5t67.5 266.5v1024h114v-1032q0 -214 -97.5 -335.5t-266.5 -121.5q-142 0 -241.5 78t-131.5 215z" />
    <glyph glyph-name="ij" unicode="&#x133;" horiz-adv-x="915" 
d="M231 1239q-34 0 -57.5 24t-23.5 60q0 37 23.5 61.5t57.5 24.5q35 0 59.5 -25.5t24.5 -60.5q0 -36 -24 -60t-60 -24zM686 1239q-36 0 -60 24t-24 60q0 37 24.5 61.5t59.5 24.5t59.5 -25.5t24.5 -60.5q0 -36 -24 -60t-60 -24zM285 0h-105v899h105v-899zM485 -471
q-69 0 -135 27l12 88l13 6q54 -21 104 -21q78 0 117 57t39 183v1030h104v-1044q0 -326 -254 -326z" />
    <glyph glyph-name="uni0136" unicode="&#x136;" horiz-adv-x="1269" 
d="M1274 0h-141l-527 750l-276 -304v-446h-115v1450h115v-414v-434h2q190 211 293 328l465 520h139l-547 -614zM752 -133l-152 -344l-78 31l115 348l14 6z" />
    <glyph glyph-name="uni0137" unicode="&#x137;" horiz-adv-x="974" 
d="M956 0h-131l-370 489l-170 -161v-328h-105v1501h105v-508v-547q46 44 137 133.5t137 133.5l191 186h141l-365 -344zM602 -133l-151 -344l-78 31l114 348l15 6z" />
    <glyph glyph-name="kgreenlandic" unicode="&#x138;" horiz-adv-x="974" 
d="M956 0h-131l-370 489l-170 -161v-328h-105v899h105v-47v-406q46 44 137 133.5t137 133.5l191 186h141l-365 -344z" />
    <glyph glyph-name="Lacute" unicode="&#x139;" horiz-adv-x="1058" 
d="M221 1565h-88l193 274h114l6 -10zM215 0v1450h115v-1344h706l-14 -106h-807z" />
    <glyph glyph-name="lacute" unicode="&#x13a;" horiz-adv-x="462" 
d="M180 1565h-88l193 274h114l7 -10zM285 0h-105v1501h105v-1501z" />
    <glyph glyph-name="uni013B" unicode="&#x13b;" horiz-adv-x="1058" 
d="M215 0v1450h115v-1344h706l-14 -106h-807zM670 -133l-152 -344l-78 31l115 348l14 6z" />
    <glyph glyph-name="uni013C" unicode="&#x13c;" horiz-adv-x="462" 
d="M285 0h-105v1501h105v-1501zM346 -133l-151 -344l-78 31l114 348l15 6z" />
    <glyph glyph-name="Lcaron" unicode="&#x13d;" horiz-adv-x="1058" 
d="M776 1452l-170 -387l-74 29l138 389l14 6zM215 0v1450h115v-1344h706l-14 -106h-807z" />
    <glyph glyph-name="lcaron" unicode="&#x13e;" horiz-adv-x="630" 
d="M285 0h-105v1501h105v-1501zM639 1452l-170 -387l-76 29l137 389l15 6z" />
    <glyph glyph-name="Ldot" unicode="&#x13f;" horiz-adv-x="1058" 
d="M215 0v1450h115v-1344h706l-14 -106h-807zM655 637q-37 0 -61.5 25.5t-24.5 62.5t24.5 62.5t61.5 25.5q35 0 59.5 -25.5t24.5 -62.5t-24.5 -62.5t-59.5 -25.5z" />
    <glyph glyph-name="ldot" unicode="&#x140;" horiz-adv-x="503" 
d="M285 0h-105v1501h105v-1501zM481 731q-36 0 -60 25t-24 63q0 37 24.5 61.5t59.5 24.5q37 0 61.5 -24.5t24.5 -61.5q0 -38 -24.5 -63t-61.5 -25z" />
    <glyph glyph-name="Lslash" unicode="&#x141;" horiz-adv-x="1058" 
d="M330 688v-582h706l-14 -106h-807v625l-195 -109v105l195 108v721h115v-657l344 190v-104z" />
    <glyph glyph-name="lslash" unicode="&#x142;" horiz-adv-x="462" 
d="M285 895l139 82v-98l-139 -82v-797h-105v735l-141 -84v99l141 84v667h105v-606z" />
    <glyph glyph-name="Nacute" unicode="&#x143;" horiz-adv-x="1626" 
d="M791 1565h-89l193 274h115l6 -10zM328 0h-113v1450h88l715 -868l274 -330h6v369v829h113v-1479h-22l-781 942q-128 155 -274 328h-6v-369v-872z" />
    <glyph glyph-name="nacute" unicode="&#x144;" horiz-adv-x="1161" 
d="M522 1094h-86l236 376h114l7 -10zM180 0v899h105v-199q55 113 149 175.5t207 62.5q166 0 254 -96.5t88 -280.5v-561h-104v508q0 171 -65 251.5t-202 80.5t-232 -108t-95 -263v-469h-105z" />
    <glyph glyph-name="uni0145" unicode="&#x145;" horiz-adv-x="1626" 
d="M328 0h-113v1450h88l715 -868l274 -330h6v369v829h113v-1479h-22l-781 942q-128 155 -274 328h-6v-369v-872zM928 -133l-152 -344l-78 31l115 348l14 6z" />
    <glyph glyph-name="uni0146" unicode="&#x146;" horiz-adv-x="1161" 
d="M180 0v899h105v-199q55 113 149 175.5t207 62.5q166 0 254 -96.5t88 -280.5v-561h-104v508q0 171 -65 251.5t-202 80.5t-232 -108t-95 -263v-469h-105zM686 -133l-151 -344l-78 31l114 348l15 6z" />
    <glyph glyph-name="Ncaron" unicode="&#x147;" horiz-adv-x="1626" 
d="M905 1565h-125l-200 262l8 12h84l172 -221l170 221h84l6 -12zM328 0h-113v1450h88l715 -868l274 -330h6v369v829h113v-1479h-22l-781 942q-128 155 -274 328h-6v-369v-872z" />
    <glyph glyph-name="ncaron" unicode="&#x148;" horiz-adv-x="1161" 
d="M397 1470l185 -313l182 313h84l6 -12l-211 -364h-123l-213 364l8 12h82zM180 0v899h105v-199q55 113 149 175.5t207 62.5q166 0 254 -96.5t88 -280.5v-561h-104v508q0 171 -65 251.5t-202 80.5t-232 -108t-95 -263v-469h-105z" />
    <glyph glyph-name="Eng" unicode="&#x14a;" horiz-adv-x="1626" 
d="M1159 -471q-69 0 -135 27l12 92l13 6q51 -21 102 -21q75 0 111 56t36 180v205l-690 839q-128 155 -274 328h-6v-369v-872h-113v1450h88l715 -868l274 -330h6v369v829h113v-1593q0 -328 -252 -328z" />
    <glyph glyph-name="eng" unicode="&#x14b;" horiz-adv-x="1161" 
d="M641 938q166 0 254 -96.5t88 -280.5v-706q0 -326 -254 -326q-69 0 -135 27l12 88l12 6q54 -21 105 -21q78 0 117 57t39 183v639q0 171 -65 251.5t-202 80.5t-232 -108t-95 -263v-469h-105v899h105v-199q55 113 149 175.5t207 62.5z" />
    <glyph glyph-name="Omacron" unicode="&#x14c;" horiz-adv-x="1775" 
d="M1147 1647h-520v96h520v-96zM889 -39q-167 0 -310.5 59t-243.5 161.5t-157 243t-57 300.5q0 159 56 299.5t155.5 243t243.5 162t313 59.5q168 0 312 -59.5t243 -162t155 -243t56 -299.5q0 -213 -96.5 -387.5t-272.5 -275.5t-397 -101zM889 70q186 0 334 87.5t229.5 237
t81.5 330.5q0 183 -81 332.5t-229 236t-335 86.5q-188 0 -336.5 -86.5t-229.5 -236t-81 -332.5q0 -181 81.5 -330.5t230 -237t335.5 -87.5z" />
    <glyph glyph-name="omacron" unicode="&#x14d;" horiz-adv-x="1171" 
d="M846 1186h-520v90h520v-90zM586 -39q-209 0 -349.5 142t-140.5 348q0 135 63 246t175.5 176t251.5 65q210 0 348.5 -140.5t138.5 -346.5q0 -135 -62.5 -247t-174.5 -177.5t-250 -65.5zM586 59q158 0 267.5 114t109.5 278t-108.5 276.5t-268.5 112.5q-162 0 -270.5 -112.5
t-108.5 -276.5t109.5 -278t269.5 -114z" />
    <glyph glyph-name="Obreve" unicode="&#x14e;" horiz-adv-x="1775" 
d="M887 1573q-128 0 -208 68.5t-95 189.5l12 10h78q37 -176 213 -176q178 0 215 176h78l10 -10q-13 -121 -93.5 -189.5t-209.5 -68.5zM889 -39q-167 0 -310.5 59t-243.5 161.5t-157 243t-57 300.5q0 159 56 299.5t155.5 243t243.5 162t313 59.5q168 0 312 -59.5t243 -162
t155 -243t56 -299.5q0 -213 -96.5 -387.5t-272.5 -275.5t-397 -101zM889 70q186 0 334 87.5t229.5 237t81.5 330.5q0 183 -81 332.5t-229 236t-335 86.5q-188 0 -336.5 -86.5t-229.5 -236t-81 -332.5q0 -181 81.5 -330.5t230 -237t335.5 -87.5z" />
    <glyph glyph-name="obreve" unicode="&#x14f;" horiz-adv-x="1171" 
d="M584 1108q-128 0 -208 68.5t-95 189.5l12 10h78q37 -178 213 -178q178 0 215 178h78l10 -10q-13 -121 -93.5 -189.5t-209.5 -68.5zM586 -39q-209 0 -349.5 142t-140.5 348q0 135 63 246t175.5 176t251.5 65q210 0 348.5 -140.5t138.5 -346.5q0 -135 -62.5 -247
t-174.5 -177.5t-250 -65.5zM586 59q158 0 267.5 114t109.5 278t-108.5 276.5t-268.5 112.5q-162 0 -270.5 -112.5t-108.5 -276.5t109.5 -278t269.5 -114z" />
    <glyph glyph-name="Ohungarumlaut" unicode="&#x150;" horiz-adv-x="1775" 
d="M770 1565h-90l190 274h117l6 -10zM1061 1565h-90l190 274h117l6 -10zM889 -39q-167 0 -310.5 59t-243.5 161.5t-157 243t-57 300.5q0 159 56 299.5t155.5 243t243.5 162t313 59.5q168 0 312 -59.5t243 -162t155 -243t56 -299.5q0 -213 -96.5 -387.5t-272.5 -275.5
t-397 -101zM889 70q186 0 334 87.5t229.5 237t81.5 330.5q0 183 -81 332.5t-229 236t-335 86.5q-188 0 -336.5 -86.5t-229.5 -236t-81 -332.5q0 -181 81.5 -330.5t230 -237t335.5 -87.5z" />
    <glyph glyph-name="ohungarumlaut" unicode="&#x151;" horiz-adv-x="1171" 
d="M481 1094h-88l238 376h112l9 -10zM770 1094h-88l238 376h112l6 -10zM586 -39q-209 0 -349.5 142t-140.5 348q0 135 63 246t175.5 176t251.5 65q210 0 348.5 -140.5t138.5 -346.5q0 -135 -62.5 -247t-174.5 -177.5t-250 -65.5zM586 59q158 0 267.5 114t109.5 278
t-108.5 276.5t-268.5 112.5q-162 0 -270.5 -112.5t-108.5 -276.5t109.5 -278t269.5 -114z" />
    <glyph glyph-name="OE" unicode="&#x152;" horiz-adv-x="2082" 
d="M1888 690h-657v-584h706l-14 -106h-780q-125 -39 -254 -39q-167 0 -310.5 59t-243.5 161.5t-157 243t-57 300.5q0 159 56 299.5t155.5 243t243.5 162t313 59.5q134 0 256 -39h778l14 -107h-706v-546h657v-107zM242 725q0 -181 81.5 -330.5t230 -237t335.5 -87.5
q121 0 227 41v1230q-109 39 -227 39q-188 0 -336.5 -86.5t-229.5 -236t-81 -332.5z" />
    <glyph glyph-name="oe" unicode="&#x153;" horiz-adv-x="1916" 
d="M575 -39q-207 0 -343 142t-136 348t135.5 346.5t343.5 140.5q145 0 254 -72t162 -198h4q54 128 157.5 199t236.5 71q194 0 310 -127t116 -344q0 -11 -3 -29h-759v-14q0 -166 98 -266.5t250 -100.5q197 0 313 189l12 4l76 -51q-66 -115 -170 -176.5t-235 -61.5
q-140 0 -248.5 70.5t-157.5 197.5h-6q-55 -124 -161.5 -196t-248.5 -72zM1055 526h647q-6 147 -91.5 232.5t-224.5 85.5q-134 0 -225 -86.5t-106 -231.5zM575 59q159 0 265 113.5t106 278.5q0 164 -105.5 276.5t-265.5 112.5t-264 -112t-104 -277t105.5 -278.5t262.5 -113.5
z" />
    <glyph glyph-name="Racute" unicode="&#x154;" horiz-adv-x="1228" 
d="M776 1839l6 -10l-225 -264h-88l193 274h114zM748 657l456 -634l-10 -23h-115l-452 641h-297v-641h-115v1450h379q235 0 357 -103t122 -305q0 -151 -83.5 -252t-241.5 -133zM330 1346v-603h254q374 0 374 299q0 157 -96 230.5t-295 73.5h-237z" />
    <glyph glyph-name="racute" unicode="&#x155;" horiz-adv-x="794" 
d="M340 1094h-86l235 376h115l6 -10zM285 0h-105v899h94v-215q56 127 135 190.5t173 63.5q135 0 188 -139l-88 -54l-12 3q-21 50 -50.5 71t-76.5 21q-99 0 -178.5 -115t-79.5 -279v-446z" />
    <glyph glyph-name="uni0156" unicode="&#x156;" horiz-adv-x="1228" 
d="M748 657l456 -634l-10 -23h-115l-452 641h-297v-641h-115v1450h379q235 0 357 -103t122 -305q0 -151 -83.5 -252t-241.5 -133zM330 1346v-603h254q374 0 374 299q0 157 -96 230.5t-295 73.5h-237zM500 -446l114 348l15 6l100 -41l-151 -344z" />
    <glyph glyph-name="uni0157" unicode="&#x157;" horiz-adv-x="794" 
d="M285 0h-105v899h94v-215q56 127 135 190.5t173 63.5q135 0 188 -139l-88 -54l-12 3q-21 50 -50.5 71t-76.5 21q-99 0 -178.5 -115t-79.5 -279v-446zM301 -133l-151 -344l-78 31l114 348l15 6z" />
    <glyph glyph-name="Rcaron" unicode="&#x158;" horiz-adv-x="1228" 
d="M870 1827l-198 -262h-125l-201 262l8 12h84l172 -221l170 221h84zM748 657l456 -634l-10 -23h-115l-452 641h-297v-641h-115v1450h379q235 0 357 -103t122 -305q0 -151 -83.5 -252t-241.5 -133zM330 1346v-603h254q374 0 374 299q0 157 -96 230.5t-295 73.5h-237z" />
    <glyph glyph-name="rcaron" unicode="&#x159;" horiz-adv-x="794" 
d="M213 1470l184 -313l183 313h84l6 -12l-211 -364h-123l-213 364l8 12h82zM285 0h-105v899h94v-215q56 127 135 190.5t173 63.5q135 0 188 -139l-88 -54l-12 3q-21 50 -50.5 71t-76.5 21q-99 0 -178.5 -115t-79.5 -279v-446z" />
    <glyph glyph-name="Sacute" unicode="&#x15a;" horiz-adv-x="1153" 
d="M532 1565h-88l193 274h115l6 -10zM602 -39q-166 0 -284.5 72.5t-204.5 236.5l86 58l22 -4q71 -137 162 -199t217 -62q139 0 230.5 84t91.5 203q0 79 -31 136.5t-112 115t-228 121.5q-214 94 -300.5 190t-86.5 234q0 150 112.5 246t298.5 96q281 0 408 -232l-82 -55l-22 4
q-52 91 -127 137t-181 46q-128 0 -208 -68t-80 -170q0 -103 69.5 -169.5t278.5 -164.5q238 -110 323.5 -211t85.5 -256q0 -164 -124.5 -276.5t-313.5 -112.5z" />
    <glyph glyph-name="sacute" unicode="&#x15b;" horiz-adv-x="843" 
d="M365 1094h-86l235 376h115l6 -10zM430 -39q-117 0 -209 52t-141 147l82 55l8 -2q88 -160 264 -160q94 0 154.5 44.5t60.5 113.5q0 63 -46.5 106t-178.5 91q-181 67 -246 130.5t-65 159.5q0 101 84 170.5t217 69.5q108 0 191 -51t120 -139l-72 -50l-12 2q-31 68 -92.5 107
t-140.5 39q-84 0 -136.5 -42t-52.5 -104q0 -41 18 -69t72 -59.5t158 -71.5q163 -63 226 -125.5t63 -161.5q0 -107 -92.5 -179.5t-233.5 -72.5z" />
    <glyph glyph-name="Scedilla" unicode="&#x15e;" horiz-adv-x="1153" 
d="M1040 350q0 -106 -54.5 -193.5t-152 -140t-219.5 -55.5l-77 -125q41 12 84 12q74 0 120.5 -39t46.5 -102q0 -80 -60 -127t-165 -47q-109 0 -192 45l22 60l13 6q76 -43 161 -43q60 0 97.5 28t37.5 74q0 88 -127 88q-55 0 -108 -22l-27 24l105 170q-142 11 -248 84.5
t-184 222.5l86 58l22 -4q71 -137 162 -199t217 -62q139 0 230.5 84t91.5 203q0 79 -31 136.5t-112 115t-228 121.5q-214 94 -300.5 190t-86.5 234q0 150 112.5 246t298.5 96q281 0 408 -232l-82 -55l-22 4q-52 91 -127 137t-181 46q-128 0 -208 -68t-80 -170
q0 -103 69.5 -169.5t278.5 -164.5q238 -110 323.5 -211t85.5 -256z" />
    <glyph glyph-name="scedilla" unicode="&#x15f;" horiz-adv-x="843" 
d="M756 213q0 -100 -82.5 -171.5t-212.5 -80.5l-78 -125q41 12 84 12q74 0 121 -39t47 -102q0 -80 -60 -127t-165 -47q-110 0 -193 45l23 60l12 6q76 -43 162 -43q60 0 97.5 28t37.5 74q0 88 -127 88q-56 0 -109 -22l-26 24l104 170q-104 8 -185.5 59t-125.5 138l82 55l8 -2
q88 -160 264 -160q94 0 154.5 44.5t60.5 113.5q0 63 -46.5 106t-178.5 91q-181 67 -246 130.5t-65 159.5q0 101 84 170.5t217 69.5q108 0 191 -51t120 -139l-72 -50l-12 2q-31 68 -92.5 107t-140.5 39q-84 0 -136.5 -42t-52.5 -104q0 -41 18 -69t72 -59.5t158 -71.5
q163 -63 226 -125.5t63 -161.5z" />
    <glyph glyph-name="Scaron" unicode="&#x160;" horiz-adv-x="1153" 
d="M645 1565h-125l-201 262l9 12h84l172 -221l170 221h84l6 -12zM602 -39q-166 0 -284.5 72.5t-204.5 236.5l86 58l22 -4q71 -137 162 -199t217 -62q139 0 230.5 84t91.5 203q0 79 -31 136.5t-112 115t-228 121.5q-214 94 -300.5 190t-86.5 234q0 150 112.5 246t298.5 96
q281 0 408 -232l-82 -55l-22 4q-52 91 -127 137t-181 46q-128 0 -208 -68t-80 -170q0 -103 69.5 -169.5t278.5 -164.5q238 -110 323.5 -211t85.5 -256q0 -164 -124.5 -276.5t-313.5 -112.5z" />
    <glyph glyph-name="scaron" unicode="&#x161;" horiz-adv-x="843" 
d="M240 1470l184 -313l182 313h84l6 -12l-211 -364h-123l-212 364l8 12h82zM430 -39q-117 0 -209 52t-141 147l82 55l8 -2q88 -160 264 -160q94 0 154.5 44.5t60.5 113.5q0 63 -46.5 106t-178.5 91q-181 67 -246 130.5t-65 159.5q0 101 84 170.5t217 69.5q108 0 191 -51
t120 -139l-72 -50l-12 2q-31 68 -92.5 107t-140.5 39q-84 0 -136.5 -42t-52.5 -104q0 -41 18 -69t72 -59.5t158 -71.5q163 -63 226 -125.5t63 -161.5q0 -107 -92.5 -179.5t-233.5 -72.5z" />
    <glyph glyph-name="uni0162" unicode="&#x162;" horiz-adv-x="1200" 
d="M567 -467q-109 0 -192 45l22 60l13 6q76 -43 161 -43q60 0 98 28t38 74q0 88 -127 88q-60 0 -109 -22l-27 24l127 207h-28v1343h-514v107h1145v-107h-517v-1343h-16l-100 -164q41 12 84 12q74 0 121 -39t47 -102q0 -80 -60.5 -127t-165.5 -47z" />
    <glyph glyph-name="uni0163" unicode="&#x163;" horiz-adv-x="686" 
d="M422 -152q74 0 121 -39t47 -102q0 -80 -60 -127t-165 -47q-110 0 -193 45l23 60l12 6q76 -43 162 -43q60 0 97.5 28t37.5 74q0 88 -127 88q-56 0 -109 -22l-26 24l112 182q-141 51 -141 244v588h-178v92h178v313l90 56h14v-369h291v-92h-291v-555q0 -106 36.5 -149.5
t119.5 -43.5q59 0 123 31l12 -6l4 -94q-78 -29 -161 -29q-23 0 -35 2l-78 -127q41 12 84 12z" />
    <glyph glyph-name="Tcaron" unicode="&#x164;" horiz-adv-x="1200" 
d="M664 1565h-125l-201 262l8 12h84l172 -221l170 221h84l6 -12zM543 0v1343h-514v107h1145v-107h-517v-1343h-114z" />
    <glyph glyph-name="tcaron" unicode="&#x165;" horiz-adv-x="698" 
d="M705 1452l-170 -387l-74 29l137 389l14 6zM596 90l12 -6l4 -94q-78 -29 -161 -29q-116 0 -177 67.5t-61 190.5v588h-178v92h178v313l90 56h14v-369h291v-92h-291v-555q0 -106 36.5 -149.5t119.5 -43.5q59 0 123 31z" />
    <glyph glyph-name="Tbar" unicode="&#x166;" horiz-adv-x="1200" 
d="M1174 1450v-107h-517v-546h281v-92h-281v-705h-114v705h-279v92h279v546h-514v107h1145z" />
    <glyph glyph-name="tbar" unicode="&#x167;" horiz-adv-x="686" 
d="M596 90l12 -6l4 -94q-78 -29 -161 -29q-116 0 -177 67.5t-61 190.5v295h-158v78h158v215h-178v92h178v313l90 56h14v-369h291v-92h-291v-215h271v-78h-271v-262q0 -106 36.5 -149.5t119.5 -43.5q59 0 123 31z" />
    <glyph glyph-name="Utilde" unicode="&#x168;" horiz-adv-x="1521" 
d="M897 1602q62 0 106 53.5t54 142.5h-74l-10 -10q-20 -96 -78 -96q-34 0 -82 26.5t-99 53t-91 26.5q-62 0 -106 -53.5t-56 -142.5h76l10 8q20 98 78 98q28 0 63.5 -16.5t65 -36.5t69 -36.5t74.5 -16.5zM760 -39q-559 0 -559 606v883h114v-872q0 -257 110 -382.5t335 -125.5
q227 0 336.5 125t109.5 385v870h115v-881q0 -297 -142.5 -452.5t-418.5 -155.5z" />
    <glyph glyph-name="utilde" unicode="&#x169;" horiz-adv-x="1138" 
d="M707 1141q62 0 105.5 53.5t53.5 142.5h-73l-11 -10q-20 -96 -77 -96q-34 0 -82 26.5t-99.5 53t-91.5 26.5q-62 0 -106 -53.5t-56 -142.5h76l10 8q20 98 78 98q34 0 81 -26.5t97.5 -53t94.5 -26.5zM961 899v-899h-105v197q-56 -112 -149.5 -174t-198.5 -62q-158 0 -243 97
t-85 286v555h105v-512q0 -169 62.5 -248.5t191.5 -79.5t223 108t94 263v469h105z" />
    <glyph glyph-name="Umacron" unicode="&#x16a;" horiz-adv-x="1521" 
d="M1020 1647h-520v96h520v-96zM760 -39q-559 0 -559 606v883h114v-872q0 -257 110 -382.5t335 -125.5q227 0 336.5 125t109.5 385v870h115v-881q0 -297 -142.5 -452.5t-418.5 -155.5z" />
    <glyph glyph-name="umacron" unicode="&#x16b;" horiz-adv-x="1138" 
d="M829 1186h-520v90h520v-90zM961 899v-899h-105v197q-56 -112 -149.5 -174t-198.5 -62q-158 0 -243 97t-85 286v555h105v-512q0 -169 62.5 -248.5t191.5 -79.5t223 108t94 263v469h105z" />
    <glyph glyph-name="Ubreve" unicode="&#x16c;" horiz-adv-x="1521" 
d="M760 1573q-128 0 -208 68.5t-95 189.5l12 10h78q37 -176 213 -176q178 0 215 176h78l10 -10q-13 -121 -93.5 -189.5t-209.5 -68.5zM760 -39q-559 0 -559 606v883h114v-872q0 -257 110 -382.5t335 -125.5q227 0 336.5 125t109.5 385v870h115v-881q0 -297 -142.5 -452.5
t-418.5 -155.5z" />
    <glyph glyph-name="ubreve" unicode="&#x16d;" horiz-adv-x="1138" 
d="M567 1108q-128 0 -208 68.5t-95 189.5l12 10h78q37 -178 213 -178q178 0 215 178h78l10 -10q-13 -121 -93.5 -189.5t-209.5 -68.5zM961 899v-899h-105v197q-56 -112 -149.5 -174t-198.5 -62q-158 0 -243 97t-85 286v555h105v-512q0 -169 62.5 -248.5t191.5 -79.5t223 108
t94 263v469h105z" />
    <glyph glyph-name="Uring" unicode="&#x16e;" horiz-adv-x="1521" 
d="M760 1540q-82 0 -139.5 56t-57.5 139t57.5 138.5t139.5 55.5t139 -55.5t57 -138.5t-57 -139t-139 -56zM760 1599q58 0 97.5 39.5t39.5 96.5t-39.5 97t-97.5 40t-97.5 -40t-39.5 -97t39.5 -96.5t97.5 -39.5zM760 -39q-559 0 -559 606v883h114v-872q0 -257 110 -382.5
t335 -125.5q227 0 336.5 125t109.5 385v870h115v-881q0 -297 -142.5 -452.5t-418.5 -155.5z" />
    <glyph glyph-name="uring" unicode="&#x16f;" horiz-adv-x="1138" 
d="M569 1071q-82 0 -139 56t-57 139t57 138.5t139 55.5t139.5 -55.5t57.5 -138.5t-57.5 -139t-139.5 -56zM569 1128q58 0 98 40.5t40 97.5t-40 96t-98 39t-97.5 -39t-39.5 -96t39.5 -97.5t97.5 -40.5zM961 899v-899h-105v197q-56 -112 -149.5 -174t-198.5 -62
q-158 0 -243 97t-85 286v555h105v-512q0 -169 62.5 -248.5t191.5 -79.5t223 108t94 263v469h105z" />
    <glyph glyph-name="Uhungarumlaut" unicode="&#x170;" horiz-adv-x="1521" 
d="M643 1565h-90l190 274h117l6 -10zM934 1565h-90l190 274h117l6 -10zM760 -39q-559 0 -559 606v883h114v-872q0 -257 110 -382.5t335 -125.5q227 0 336.5 125t109.5 385v870h115v-881q0 -297 -142.5 -452.5t-418.5 -155.5z" />
    <glyph glyph-name="uhungarumlaut" unicode="&#x171;" horiz-adv-x="1138" 
d="M465 1094h-88l237 376h113l8 -10zM754 1094h-88l237 376h113l6 -10zM961 899v-899h-105v197q-56 -112 -149.5 -174t-198.5 -62q-158 0 -243 97t-85 286v555h105v-512q0 -169 62.5 -248.5t191.5 -79.5t223 108t94 263v469h105z" />
    <glyph glyph-name="Uogonek" unicode="&#x172;" horiz-adv-x="1521" 
d="M1206 580v870h115v-881q0 -223 -81 -367t-239 -202q-101 -86 -140.5 -146t-39.5 -118q0 -50 34.5 -82.5t84.5 -32.5q64 0 117 43h8l27 -65q-74 -56 -168 -56q-83 0 -136 47t-53 123q0 122 160 258q-68 -10 -135 -10q-559 0 -559 606v883h114v-872q0 -257 110 -382.5
t335 -125.5q227 0 336.5 125t109.5 385z" />
    <glyph glyph-name="uogonek" unicode="&#x173;" horiz-adv-x="1138" 
d="M999 -336h9l26 -65q-74 -56 -168 -56q-82 0 -135 47t-53 123q0 136 194 287h-16v197q-56 -112 -149.5 -174t-198.5 -62q-158 0 -243 97t-85 286v555h105v-512q0 -169 62.5 -248.5t191.5 -79.5t223 108t94 263v469h105v-899h-17q-101 -86 -140.5 -146t-39.5 -118
q0 -50 34.5 -82.5t84.5 -32.5q63 0 116 43z" />
    <glyph glyph-name="Wcircumflex" unicode="&#x174;" horiz-adv-x="1959" 
d="M1159 1565l-178 221l-180 -221h-84l-8 12l209 262h124l209 -262l-8 -12h-84zM578 -29h-74l-465 1479h123l246 -797q13 -42 61.5 -195.5t73.5 -236.5h8q55 153 145 432l265 783h38l265 -783q26 -82 75.5 -230t67.5 -202h8q17 55 64.5 203t72.5 229l244 797h125l-465 -1479
h-72l-282 836q-33 103 -119 348h-8l-117 -346z" />
    <glyph glyph-name="wcircumflex" unicode="&#x175;" horiz-adv-x="1388" 
d="M879 1094l-183 313l-184 -313h-82l-8 12l213 364h123l211 -364l-6 -12h-84zM426 -33h-45l-328 932h113l246 -733h4l264 721h33l262 -721h4l246 733h110l-325 -932h-45l-269 715h-4z" />
    <glyph glyph-name="Ycircumflex" unicode="&#x176;" horiz-adv-x="1155" 
d="M758 1565l-178 221l-181 -221h-84l-8 12l209 262h125l209 -262l-8 -12h-84zM635 0h-115v602l-508 848h127l242 -420q63 -113 194 -323h7q17 29 87 144t105 177l242 422h127l-508 -848v-602z" />
    <glyph glyph-name="ycircumflex" unicode="&#x177;" horiz-adv-x="935" 
d="M672 1094l-183 313l-184 -313h-82l-8 12l213 364h123l211 -364l-6 -12h-84zM297 -446h-119l240 501l-373 844h119l309 -727h4l322 727h119z" />
    <glyph glyph-name="Ydieresis" unicode="&#x178;" horiz-adv-x="1155" 
d="M338 1688q-7 26 7 50.5t42 33.5q26 7 50 -7t32 -41q6 -30 -7 -53.5t-40 -30.5q-29 -9 -53.5 5t-30.5 43zM690 1688q-7 26 6.5 50.5t40.5 33.5q27 7 51.5 -7t32.5 -41q6 -30 -7 -53.5t-42 -30.5q-28 -9 -52 5t-30 43zM635 0h-115v602l-508 848h127l242 -420
q63 -113 194 -323h7q17 29 87 144t105 177l242 422h127l-508 -848v-602z" />
    <glyph glyph-name="Zacute" unicode="&#x179;" horiz-adv-x="1267" 
d="M584 1565h-88l192 274h115l6 -10zM37 25l997 1318h-944v107h1143v-25l-995 -1314h962v-111h-1163v25z" />
    <glyph glyph-name="zacute" unicode="&#x17a;" horiz-adv-x="903" 
d="M395 1094h-86l236 376h114l7 -10zM66 20l598 785h-580v94h756v-20l-600 -785h598v-94h-772v20z" />
    <glyph glyph-name="Zdotaccent" unicode="&#x17b;" horiz-adv-x="1267" 
d="M637 1608q-36 0 -60 24t-24 60q0 37 24.5 61.5t59.5 24.5q34 0 58 -25.5t24 -60.5q0 -36 -24 -60t-58 -24zM37 25l997 1318h-944v107h1143v-25l-995 -1314h962v-111h-1163v25z" />
    <glyph glyph-name="zdotaccent" unicode="&#x17c;" horiz-adv-x="903" 
d="M453 1143q-36 0 -60 24t-24 60q0 37 24.5 61.5t59.5 24.5q34 0 58 -25.5t24 -60.5q0 -36 -24 -60t-58 -24zM66 20l598 785h-580v94h756v-20l-600 -785h598v-94h-772v20z" />
    <glyph glyph-name="Zcaron" unicode="&#x17d;" horiz-adv-x="1267" 
d="M698 1565h-125l-200 262l8 12h84l172 -221l170 221h84l6 -12zM37 25l997 1318h-944v107h1143v-25l-995 -1314h962v-111h-1163v25z" />
    <glyph glyph-name="zcaron" unicode="&#x17e;" horiz-adv-x="903" 
d="M268 1470l185 -313l182 313h84l6 -12l-211 -364h-123l-213 364l8 12h82zM66 20l598 785h-580v94h756v-20l-600 -785h598v-94h-772v20z" />
    <glyph glyph-name="florin" unicode="&#x192;" horiz-adv-x="1433" 
d="M1006 1489q68 0 137 -27l-21 -96l-12 -4q-56 27 -106 27q-77 0 -122.5 -62.5t-66.5 -210.5l-35 -254h254l-12 -92h-256l-107 -762q-45 -325 -292 -325q-67 0 -136 26l25 90l12 4q48 -20 99 -20q79 0 126 58t64 186l105 743h-179l15 92h178l35 250q27 204 96.5 290.5
t198.5 86.5z" />
    <glyph glyph-name="Aringacute" unicode="&#x1fa;" horiz-adv-x="1325" 
d="M829 2277l7 -10l-226 -264h-88l193 274h114zM662 1540q-82 0 -139.5 56t-57.5 139t57.5 138.5t139.5 55.5t139 -55.5t57 -138.5t-57 -139t-139 -56zM662 1872q-58 0 -98 -40t-40 -97t40 -96.5t98 -39.5t97.5 39.5t39.5 96.5t-39.5 97t-97.5 40zM1327 0h-125l-168 406
h-743l-168 -406h-125l625 1452h82zM532 989l-200 -483h659l-200 483q-19 44 -129 307h-5q-23 -57 -67.5 -166.5t-57.5 -140.5z" />
    <glyph glyph-name="aringacute" unicode="&#x1fb;" horiz-adv-x="976" 
d="M692 1950l6 -13l-270 -364h-88l238 377h114zM485 1071q-82 0 -139 56t-57 139t57 138.5t139 55.5t139.5 -55.5t57.5 -138.5t-57.5 -139t-139.5 -56zM485 1401q-58 0 -97.5 -39t-39.5 -96t39.5 -97.5t97.5 -40.5t98 40.5t40 97.5t-40 96t-98 39zM913 76l11 -6v-82
q-61 -21 -111 -21q-64 0 -94.5 35t-30.5 109l-2 16q-92 -90 -171 -128t-167 -38q-112 0 -182 65t-70 169q0 135 138.5 217.5t449.5 119.5v66q0 126 -48.5 185t-146.5 59q-82 0 -159 -48.5t-133 -134.5l-13 -2l-73 50q63 106 168 168.5t219 62.5q139 0 214.5 -79.5
t75.5 -227.5v-500q0 -42 12.5 -58t45.5 -16q15 0 67 19zM207 199q0 -67 44.5 -106.5t121.5 -39.5q79 0 153 35.5t158 116.5v248q-255 -35 -366 -95t-111 -159z" />
    <glyph glyph-name="AEacute" unicode="&#x1fc;" horiz-adv-x="1871" 
d="M1294 1565h-88l193 274h114l7 -10zM1677 690h-655v-584h704l-14 -106h-805v406h-538l-240 -406h-131l868 1450h846l14 -107h-704v-546h655v-107zM692 956l-266 -450h481v448q0 129 4 383h-4q-112 -211 -215 -381z" />
    <glyph glyph-name="aeacute" unicode="&#x1fd;" horiz-adv-x="1624" 
d="M754 1094h-86l235 376h115l6 -10zM348 -39q-112 0 -182 65t-70 169q0 134 137.5 212.5t450.5 114.5v76q0 127 -46.5 185.5t-141.5 58.5q-85 0 -164 -48.5t-135 -134.5l-13 -2l-73 50q63 106 170 168.5t225 62.5q219 0 260 -217h2q52 104 145 160.5t207 56.5
q176 0 288 -127.5t112 -339.5v-29h-725q-1 -174 91.5 -279.5t231.5 -105.5q184 0 303 189l11 4l77 -51q-65 -115 -168.5 -176.5t-226.5 -61.5q-111 0 -207.5 55.5t-154.5 155.5q-120 -122 -210.5 -166.5t-193.5 -44.5zM797 530h612q-6 143 -88.5 228.5t-206.5 85.5
q-122 0 -211 -86t-106 -228zM373 53q80 0 158 40t190 147q-34 83 -37 198q-259 -31 -368 -85.5t-109 -153.5q0 -67 44.5 -106.5t121.5 -39.5z" />
    <glyph glyph-name="Oslashacute" unicode="&#x1fe;" horiz-adv-x="1775" 
d="M1055 1839l6 -10l-225 -264h-88l192 274h115zM1536 1436l-121 -142q115 -105 177.5 -252.5t62.5 -316.5q0 -213 -96.5 -387.5t-272.5 -275.5t-397 -101q-272 0 -471 150l-115 -136l-61 48l116 137q-114 105 -175.5 250.5t-61.5 314.5q0 159 56 299.5t155.5 243t243.5 162
t313 59.5q272 0 469 -148l119 142zM242 725q0 -140 50 -262.5t142 -212.5l848 1003q-165 127 -393 127q-188 0 -336.5 -86.5t-229.5 -236t-81 -332.5zM889 70q186 0 334 87.5t229.5 237t81.5 330.5q0 141 -50.5 265t-142.5 214l-849 -1005q167 -129 397 -129z" />
    <glyph glyph-name="oslashacute" unicode="&#x1ff;" horiz-adv-x="1171" 
d="M528 1094h-86l236 376h115l6 -10zM997 877l-65 -78q141 -141 141 -348q0 -135 -62.5 -247t-174.5 -177.5t-250 -65.5q-161 0 -287 90l-61 -76l-64 48l66 77q-68 68 -106 158.5t-38 192.5q0 135 63 246t175.5 176t251.5 65q163 0 286 -90l64 76zM207 451q0 -156 102 -269
l498 586q-98 72 -221 72q-162 0 -270.5 -112.5t-108.5 -276.5zM586 59q158 0 267.5 114t109.5 278q0 154 -101 266l-495 -586q98 -72 219 -72z" />
    <glyph glyph-name="uni0218" unicode="&#x218;" horiz-adv-x="1153" 
d="M602 -39q-166 0 -284.5 72.5t-204.5 236.5l86 58l22 -4q71 -137 162 -199t217 -62q139 0 230.5 84t91.5 203q0 79 -31 136.5t-112 115t-228 121.5q-214 94 -300.5 190t-86.5 234q0 150 112.5 246t298.5 96q281 0 408 -232l-82 -55l-22 4q-52 91 -127 137t-181 46
q-128 0 -208 -68t-80 -170q0 -103 69.5 -169.5t278.5 -164.5q238 -110 323.5 -211t85.5 -256q0 -164 -124.5 -276.5t-313.5 -112.5zM690 -133l-151 -344l-78 31l114 348l15 6z" />
    <glyph glyph-name="uni0219" unicode="&#x219;" horiz-adv-x="843" 
d="M430 -39q-117 0 -209 52t-141 147l82 55l8 -2q88 -160 264 -160q94 0 154.5 44.5t60.5 113.5q0 63 -46.5 106t-178.5 91q-181 67 -246 130.5t-65 159.5q0 101 84 170.5t217 69.5q108 0 191 -51t120 -139l-72 -50l-12 2q-31 68 -92.5 107t-140.5 39q-84 0 -136.5 -42
t-52.5 -104q0 -41 18 -69t72 -59.5t158 -71.5q163 -63 226 -125.5t63 -161.5q0 -107 -92.5 -179.5t-233.5 -72.5zM537 -133l-152 -344l-78 31l115 348l14 6z" />
    <glyph glyph-name="uni021A" unicode="&#x21a;" horiz-adv-x="1200" 
d="M543 0v1343h-514v107h1145v-107h-517v-1343h-114zM715 -133l-152 -344l-78 31l115 348l14 6z" />
    <glyph glyph-name="uni021B" unicode="&#x21b;" horiz-adv-x="686" 
d="M596 90l12 -6l4 -94q-78 -29 -161 -29q-116 0 -177 67.5t-61 190.5v588h-178v92h178v313l90 56h14v-369h291v-92h-291v-555q0 -106 36.5 -149.5t119.5 -43.5q59 0 123 31zM494 -133l-152 -344l-78 31l115 348l14 6z" />
    <glyph glyph-name="uni0237" unicode="&#x237;" horiz-adv-x="454" 
d="M23 -471q-70 0 -136 27l13 88l12 6q54 -21 104 -21q78 0 117 57t39 183v1030h104v-1044q0 -326 -253 -326z" />
    <glyph glyph-name="uni02BC" unicode="&#x2bc;" horiz-adv-x="413" 
d="M344 1485l-197 -438l-77 30l159 443l15 6z" />
    <glyph glyph-name="circumflex" unicode="&#x2c6;" horiz-adv-x="669" 
d="M518 1094l-182 313l-184 -313h-82l-9 12l213 364h123l211 -364l-6 -12h-84z" />
    <glyph glyph-name="caron" unicode="&#x2c7;" horiz-adv-x="669" 
d="M152 1470l184 -313l182 313h84l6 -12l-211 -364h-123l-213 364l9 12h82z" />
    <glyph glyph-name="breve" unicode="&#x2d8;" horiz-adv-x="729" 
d="M365 1108q-128 0 -209.5 68.5t-94.5 189.5l11 10h78q40 -178 215 -178t215 178h77l11 -10q-13 -121 -93.5 -189.5t-209.5 -68.5z" />
    <glyph glyph-name="dotaccent" unicode="&#x2d9;" horiz-adv-x="288" 
d="M145 1143q-36 0 -60 24t-24 60q0 37 24.5 61.5t59.5 24.5q34 0 58 -25.5t24 -60.5q0 -36 -24 -60t-58 -24z" />
    <glyph glyph-name="ring" unicode="&#x2da;" horiz-adv-x="516" 
d="M258 1071q-82 0 -139.5 56t-57.5 139t57.5 138.5t139.5 55.5t139.5 -55.5t57.5 -138.5t-57.5 -139t-139.5 -56zM258 1128q58 0 97.5 40.5t39.5 97.5t-39.5 96t-97.5 39t-97.5 -39t-39.5 -96t39.5 -97.5t97.5 -40.5z" />
    <glyph glyph-name="ogonek" unicode="&#x2db;" horiz-adv-x="479" 
d="M250 -457q-83 0 -136 47t-53 123q0 135 195 287h72q-101 -87 -141 -147t-40 -117q0 -50 34.5 -82.5t84.5 -32.5q64 0 117 43h8l27 -65q-74 -56 -168 -56z" />
    <glyph glyph-name="tilde" unicode="&#x2dc;" horiz-adv-x="718" 
d="M496 1141q63 0 106.5 53.5t54.5 142.5h-75l-9 -10q-20 -96 -79 -96q-33 0 -81 26.5t-99 53t-91 26.5q-63 0 -107.5 -53.5t-54.5 -142.5h76l10 8q17 98 78 98q34 0 80.5 -26.5t96.5 -53t94 -26.5z" />
    <glyph glyph-name="hungarumlaut" unicode="&#x2dd;" horiz-adv-x="770" 
d="M150 1094h-89l238 376h115l6 -10zM438 1094h-88l238 376h112l9 -10z" />
    <glyph glyph-name="gravecomb" unicode="&#x300;" 
d="M-334 1470l238 -376h-88l-271 366l6 10h115z" />
    <glyph glyph-name="acutecomb" unicode="&#x301;" 
d="M-274 1094h-86l235 376h115l6 -10z" />
    <glyph glyph-name="uni0302" unicode="&#x302;" 
d="M-156 1094l-182 313l-184 -313h-82l-8 12l213 364h123l210 -364l-6 -12h-84z" />
    <glyph glyph-name="tildecomb" unicode="&#x303;" 
d="M-217 1141q62 0 106 53.5t54 142.5h-74l-10 -10q-20 -96 -78 -96q-34 0 -82 26.5t-99.5 53t-91.5 26.5q-61 0 -105 -53.5t-56 -142.5h75l11 8q20 98 78 98q28 0 63.5 -16.5t65 -36.5t69 -36.5t74.5 -16.5z" />
    <glyph glyph-name="uni0304" unicode="&#x304;" 
d="M-61 1186h-521v90h521v-90z" />
    <glyph glyph-name="uni0306" unicode="&#x306;" 
d="M-346 1108q-128 0 -208 68.5t-95 189.5l12 10h78q37 -178 213 -178q178 0 215 178h78l10 -10q-13 -121 -93.5 -189.5t-209.5 -68.5z" />
    <glyph glyph-name="uni0307" unicode="&#x307;" 
d="M-143 1143q-36 0 -60 24t-24 60q0 37 24.5 61.5t59.5 24.5q34 0 58 -25.5t24 -60.5q0 -36 -24 -60t-58 -24z" />
    <glyph glyph-name="uni0308" unicode="&#x308;" 
d="M-539 1208q-7 26 8.5 50.5t43.5 33.5q26 8 49.5 -6.5t29.5 -42.5q8 -28 -5.5 -51.5t-41.5 -30.5q-29 -9 -52.5 4.5t-31.5 42.5zM-211 1208q-6 26 8.5 50.5t42.5 33.5q26 8 50.5 -6.5t31.5 -42.5q6 -28 -8 -51.5t-43 -30.5q-28 -9 -51.5 4.5t-30.5 42.5z" />
    <glyph glyph-name="uni030A" unicode="&#x30a;" 
d="M-258 1071q-82 0 -139.5 56t-57.5 139t57.5 138.5t139.5 55.5t139.5 -55.5t57.5 -138.5t-57.5 -139t-139.5 -56zM-258 1128q58 0 97.5 40.5t39.5 97.5t-39.5 96t-97.5 39t-97.5 -39t-39.5 -96t39.5 -97.5t97.5 -40.5z" />
    <glyph glyph-name="uni030B" unicode="&#x30b;" 
d="M-395 1094h-88l237 376h113l8 -10zM-106 1094h-89l238 376h113l6 -10z" />
    <glyph glyph-name="uni030C" unicode="&#x30c;" 
d="M-522 1470l184 -313l182 313h84l6 -12l-210 -364h-123l-213 364l8 12h82z" />
    <glyph glyph-name="uni0312" unicode="&#x312;" 
d="M-356 1130l151 347l74 -29l-115 -350l-14 -6z" />
    <glyph glyph-name="uni0315" unicode="&#x315;" 
d="M-63 1454l-152 -344l-78 29l113 350l14 6z" />
    <glyph glyph-name="dotbelowcomb" unicode="&#x323;" 
d="M-117 -467q-36 0 -60 24t-24 60q0 37 24.5 61.5t59.5 24.5q34 0 58 -25.5t24 -60.5q0 -36 -24 -60t-58 -24z" />
    <glyph glyph-name="uni0324" unicode="&#x324;" 
d="M-539 -328q-6 26 9.5 50.5t42.5 33.5q27 7 50 -7t31 -42q6 -28 -7 -51.5t-42 -32.5q-29 -8 -53 6t-31 43zM-209 -328q-7 26 7.5 50.5t41.5 33.5q28 7 51 -7t31 -42t-6 -51.5t-43 -32.5q-28 -8 -52 6t-30 43z" />
    <glyph glyph-name="uni0325" unicode="&#x325;" 
d="M-258 -561q-82 0 -139.5 55.5t-57.5 138.5t57.5 139t139.5 56t139.5 -56t57.5 -139t-57.5 -138.5t-139.5 -55.5zM-258 -502q58 0 97.5 39t39.5 96t-39.5 97.5t-97.5 40.5t-97.5 -40.5t-39.5 -97.5t39.5 -96t97.5 -39z" />
    <glyph glyph-name="uni0326" unicode="&#x326;" 
d="M-53 -133l-152 -344l-78 31l115 348l14 6z" />
    <glyph glyph-name="uni0327" unicode="&#x327;" 
d="M-289 -467q-109 0 -192 45l22 60l13 6q76 -43 161 -43q60 0 97.5 28t37.5 74q0 88 -126 88q-56 0 -109 -22l-27 24l123 199h70l-96 -156q41 12 84 12q74 0 121 -39t47 -102q0 -80 -60.5 -127t-165.5 -47z" />
    <glyph glyph-name="uni0328" unicode="&#x328;" 
d="M-229 -457q-83 0 -136 47t-53 123q0 135 195 287h71q-101 -86 -140.5 -146t-39.5 -118q0 -50 34.5 -82.5t84.5 -32.5q64 0 117 43h8l27 -65q-74 -56 -168 -56z" />
    <glyph glyph-name="uni0330" unicode="&#x330;" 
d="M-217 -416q62 0 106 53.5t54 143.5h-74l-10 -10q-20 -97 -78 -97q-27 0 -63.5 16.5t-67.5 37t-70.5 37t-71.5 16.5q-61 0 -105 -54t-56 -143h75l11 8q20 99 78 99q34 0 80.5 -26.5t97 -53.5t94.5 -27z" />
    <glyph glyph-name="uni0331" unicode="&#x331;" 
d="M-61 -356h-521v90h521v-90z" />
    <glyph glyph-name="uni0335" unicode="&#x335;" 
d="M-45 418h-467v96h467v-96z" />
    <glyph glyph-name="uni0336" unicode="&#x336;" 
d="M287 418h-1454v96h1454v-96z" />
    <glyph glyph-name="uni0337" unicode="&#x337;" 
d="M-33 623l-737 -424l-51 88l737 424z" />
    <glyph glyph-name="uni0338" unicode="&#x338;" 
d="M6 1034l-1018 -1212l-75 65l1017 1213z" />
    <glyph glyph-name="uni0394" unicode="&#x394;" horiz-adv-x="1325" 
d="M623 1452h82l622 -1452h-1329zM532 989l-364 -883h989l-366 883q-19 44 -129 307h-5q-23 -57 -67.5 -166.5t-57.5 -140.5z" />
    <glyph glyph-name="pi" unicode="&#x3c0;" horiz-adv-x="1048" 
d="M748 115v692h-465v-807h-105v807h-143v92h973v-92h-158v-676q0 -43 14 -58.5t51 -15.5q16 0 68 19l10 -6v-82q-61 -21 -110 -21q-68 0 -101.5 35.5t-33.5 112.5z" />
    <glyph glyph-name="uni0400" unicode="&#x400;" horiz-adv-x="1181" 
d="M764 1565h-88l-230 264l7 10h116zM215 0v1450h807l12 -107h-704v-546h655v-107h-655v-584h704l-12 -106h-807z" />
    <glyph glyph-name="uni0401" unicode="&#x401;" horiz-adv-x="1181" 
d="M379 1688q-7 26 7 50.5t42 33.5q26 7 50 -7t32 -41q6 -30 -7 -53.5t-40 -30.5q-29 -9 -53.5 5t-30.5 43zM731 1688q-7 26 6.5 50.5t40.5 33.5q27 7 51.5 -7t32.5 -41q6 -30 -7 -53.5t-42 -30.5q-28 -9 -52 5t-30 43zM215 0v1450h807l12 -107h-704v-546h655v-107h-655
v-584h704l-12 -106h-807z" />
    <glyph glyph-name="uni0403" unicode="&#x403;" horiz-adv-x="995" 
d="M590 1565h-88l192 274h115l6 -10zM215 0v1450h739l15 -107h-639v-1343h-115z" />
    <glyph glyph-name="uni040C" unicode="&#x40c;" horiz-adv-x="1269" 
d="M573 1565h-88l193 274h115l6 -10zM1274 0h-141l-527 750l-276 -304v-446h-115v1450h115v-414v-434h2q190 211 293 328l465 520h139l-547 -614z" />
    <glyph glyph-name="uni040D" unicode="&#x40d;" horiz-adv-x="1626" 
d="M958 1565h-88l-229 264l6 10h117zM1411 1450v-1450h-115v872v375h-6q-42 -52 -127 -154.5t-127 -154.5l-796 -967h-25v1479h115v-829v-375h6l276 334l711 870h88z" />
    <glyph glyph-name="uni0410" unicode="&#x410;" horiz-adv-x="1325" 
d="M1327 0h-125l-168 406h-743l-168 -406h-125l625 1452h82zM532 989l-200 -483h659l-200 483q-19 44 -129 307h-5q-23 -57 -67.5 -166.5t-57.5 -140.5z" />
    <glyph glyph-name="uni0411" unicode="&#x411;" horiz-adv-x="1179" 
d="M330 836h266q233 0 358 -109.5t125 -308.5q0 -205 -122.5 -311.5t-360.5 -106.5h-381v1450h729l14 -107h-628v-507zM330 104h239q201 0 297.5 76.5t96.5 237.5t-96 237t-304 76h-233v-627z" />
    <glyph glyph-name="uni0412" unicode="&#x412;" horiz-adv-x="1222" 
d="M557 0h-342v1450h340q245 0 368.5 -93t123.5 -274q0 -116 -70 -201t-191 -116v-6q156 -25 245 -119t89 -238q0 -204 -137.5 -303.5t-425.5 -99.5zM330 1346v-549h250q166 0 260 75t94 207q0 267 -381 267h-223zM330 700v-596h227q234 0 340.5 72t106.5 227
q0 146 -105 221.5t-309 75.5h-260z" />
    <glyph glyph-name="uni0413" unicode="&#x413;" horiz-adv-x="995" 
d="M215 0v1450h739l15 -107h-639v-1343h-115z" />
    <glyph glyph-name="uni0414" unicode="&#x414;" horiz-adv-x="1353" 
d="M719 1452l520 -1346h111v-444h-109v338h-1128v-338h-109v444h111l522 1346h82zM1116 106l-325 881q-82 227 -115 309h-4q-7 -19 -48 -132t-65 -175l-321 -883h878z" />
    <glyph glyph-name="uni0415" unicode="&#x415;" horiz-adv-x="1181" 
d="M215 0v1450h807l12 -107h-704v-546h655v-107h-655v-584h704l-12 -106h-807z" />
    <glyph glyph-name="uni0416" unicode="&#x416;" horiz-adv-x="1974" 
d="M145 0h-139l576 844l-531 606h142l452 -518q87 -102 283 -330h2v434v414h114v-414v-434h3q141 164 282 330l453 518h141l-530 -606l575 -844h-145l-508 756l-271 -310v-446h-114v446l-273 312z" />
    <glyph glyph-name="uni0417" unicode="&#x417;" horiz-adv-x="1161" 
d="M752 756v-2q138 -25 218.5 -123.5t80.5 -241.5q0 -189 -129.5 -308.5t-339.5 -119.5q-219 0 -350.5 109.5t-153.5 304.5l90 14l25 -12q15 -142 118 -226.5t267 -84.5q166 0 261 87.5t95 233.5q0 156 -99 238t-296 82h-166v98h162q186 0 278 80t92 225q0 122 -84 198
t-231 76q-152 0 -246.5 -74t-120.5 -210l-24 -13l-88 13q25 180 153.5 284.5t331.5 104.5q193 0 310.5 -103t117.5 -268q0 -133 -71 -231t-201 -131z" />
    <glyph glyph-name="uni0418" unicode="&#x418;" horiz-adv-x="1626" 
d="M1411 1450v-1450h-115v872v375h-6q-42 -52 -127 -154.5t-127 -154.5l-796 -967h-25v1479h115v-829v-375h6l276 334l711 870h88z" />
    <glyph glyph-name="uni0419" unicode="&#x419;" horiz-adv-x="1626" 
d="M813 1573q-128 0 -208 68.5t-95 189.5l12 10h78q37 -176 213 -176q178 0 215 176h78l10 -10q-13 -121 -93.5 -189.5t-209.5 -68.5zM1411 1450v-1450h-115v872v375h-6q-42 -52 -127 -154.5t-127 -154.5l-796 -967h-25v1479h115v-829v-375h6l276 334l711 870h88z" />
    <glyph glyph-name="uni041A" unicode="&#x41a;" horiz-adv-x="1269" 
d="M1274 0h-141l-527 750l-276 -304v-446h-115v1450h115v-414v-434h2q190 211 293 328l465 520h139l-547 -614z" />
    <glyph glyph-name="uni041B" unicode="&#x41b;" horiz-adv-x="1304" 
d="M123 0h-125l614 1452h82l613 -1452h-125l-404 987q-25 58 -69 166.5t-58 142.5h-4q-42 -107 -125 -309z" />
    <glyph glyph-name="uni041C" unicode="&#x41c;" horiz-adv-x="1857" 
d="M377 1450l551 -1075h4l549 1075h161v-1450h-112v1303h-4l-586 -1131h-25l-583 1131h-4v-1303h-113v1450h162z" />
    <glyph glyph-name="uni041D" unicode="&#x41d;" horiz-adv-x="1542" 
d="M330 0h-115v1450h115v-662h882v662h115v-1450h-115v682h-882v-682z" />
    <glyph glyph-name="uni041E" unicode="&#x41e;" horiz-adv-x="1775" 
d="M889 -39q-167 0 -310.5 59t-243.5 161.5t-157 243t-57 300.5q0 159 56 299.5t155.5 243t243.5 162t313 59.5q168 0 312 -59.5t243 -162t155 -243t56 -299.5q0 -213 -96.5 -387.5t-272.5 -275.5t-397 -101zM889 70q186 0 334 87.5t229.5 237t81.5 330.5q0 183 -81 332.5
t-229 236t-335 86.5q-188 0 -336.5 -86.5t-229.5 -236t-81 -332.5q0 -181 81.5 -330.5t230 -237t335.5 -87.5z" />
    <glyph glyph-name="uni041F" unicode="&#x41f;" horiz-adv-x="1542" 
d="M330 0h-115v1450h1112v-1450h-115v1343h-882v-1343z" />
    <glyph glyph-name="uni0420" unicode="&#x420;" horiz-adv-x="1144" 
d="M330 0h-115v1450h371q238 0 360.5 -106.5t122.5 -309.5q0 -198 -125 -307t-358 -109h-256v-618zM330 1346v-623h223q207 0 303 76.5t96 234.5q0 160 -96 236t-297 76h-229z" />
    <glyph glyph-name="uni0421" unicode="&#x421;" horiz-adv-x="1642" 
d="M870 -39q-160 0 -299 58t-238 158.5t-155.5 242.5t-56.5 305q0 216 97 391t268 274t382 99q442 0 658 -393l-78 -56l-25 4q-188 336 -555 336q-176 0 -319.5 -85.5t-225 -235.5t-81.5 -334q0 -138 48.5 -259.5t132.5 -208t201 -137t248 -50.5q193 0 332.5 82t231.5 249
l24 5l76 -56q-117 -197 -280.5 -293t-385.5 -96z" />
    <glyph glyph-name="uni0422" unicode="&#x422;" horiz-adv-x="1200" 
d="M543 0v1343h-514v107h1145v-107h-517v-1343h-114z" />
    <glyph glyph-name="uni0423" unicode="&#x423;" horiz-adv-x="1153" 
d="M322 0h-123l354 600l-510 850h125l244 -420q82 -142 196 -325h6q16 26 86.5 143.5t106.5 179.5l240 422h124z" />
    <glyph glyph-name="uni0424" unicode="&#x424;" horiz-adv-x="1800" 
d="M1677 725q0 -198 -88.5 -355t-252.5 -248.5t-378 -98.5v-103h-114v103q-214 7 -379 98.5t-254.5 248.5t-89.5 355q0 148 51.5 275t144.5 219.5t229 147.5t298 60v103h114v-103q162 -5 297 -60t227.5 -147.5t143.5 -219.5t51 -275zM240 725q0 -166 75 -299t213 -211.5
t316 -85.5v1192q-272 -10 -438 -175.5t-166 -420.5zM958 1321v-1192q270 12 436.5 178t166.5 418q0 125 -43.5 233.5t-122 186.5t-191 124.5t-246.5 51.5z" />
    <glyph glyph-name="uni0425" unicode="&#x425;" horiz-adv-x="1173" 
d="M147 0h-135l506 762l-477 688h143l402 -600l399 600h133l-473 -696l514 -754h-139l-438 664z" />
    <glyph glyph-name="uni0426" unicode="&#x426;" horiz-adv-x="1538" 
d="M1294 1450v-1344h174v-444h-108v338h-1145v1450h115v-1344h850v1344h114z" />
    <glyph glyph-name="uni0427" unicode="&#x427;" horiz-adv-x="1384" 
d="M1055 827v623h114v-1450h-114v711q-78 -80 -203.5 -140.5t-253.5 -60.5q-203 0 -300 112t-97 339v487h114v-453q0 -198 68 -287.5t227 -89.5q254 0 445 209z" />
    <glyph glyph-name="uni0428" unicode="&#x428;" horiz-adv-x="2054" 
d="M1724 106v1344h115v-1450h-1624v1450h115v-1344h641v1344h114v-1344h639z" />
    <glyph glyph-name="uni0429" unicode="&#x429;" horiz-adv-x="2082" 
d="M1839 1450v-1344h176v-444h-108v338h-1692v1450h115v-1344h641v1344h114v-1344h639v1344h115z" />
    <glyph glyph-name="uni042A" unicode="&#x42a;" horiz-adv-x="1286" 
d="M461 836h266q233 0 358 -109.5t125 -308.5q0 -205 -121.5 -311.5t-361.5 -106.5h-381v1343h-346l14 107h447v-614zM461 104h239q201 0 297.5 76.5t96.5 237.5t-96 237t-302 76h-235v-627z" />
    <glyph glyph-name="uni042B" unicode="&#x42b;" horiz-adv-x="1699" 
d="M215 0v1450h115v-614h266q233 0 358 -109.5t125 -308.5q0 -205 -122.5 -311.5t-360.5 -106.5h-381zM1370 0v1450h115v-1450h-115zM563 731h-233v-627h239q201 0 297.5 76.5t96.5 237.5t-96 237t-304 76z" />
    <glyph glyph-name="uni042C" unicode="&#x42c;" horiz-adv-x="1155" 
d="M215 0v1450h115v-614h266q233 0 358 -109.5t125 -308.5q0 -205 -122.5 -311.5t-360.5 -106.5h-381zM563 731h-233v-627h239q201 0 297.5 76.5t96.5 237.5t-96 237t-304 76z" />
    <glyph glyph-name="uni042D" unicode="&#x42d;" horiz-adv-x="1642" 
d="M801 1489q214 0 378.5 -98t252.5 -271.5t88 -394.5q0 -218 -91.5 -392t-259.5 -273t-383 -99q-451 0 -680 387l76 55l23 -6q187 -327 581 -327q262 0 431.5 172.5t181.5 439.5h-905v106h905q-19 264 -181 428t-417 164q-389 0 -584 -331l-22 -7l-80 56q219 391 686 391z
" />
    <glyph glyph-name="uni042E" unicode="&#x42e;" horiz-adv-x="2217" 
d="M1343 1489q169 0 311 -59.5t238 -162t149.5 -242.5t53.5 -300q0 -214 -92.5 -387.5t-265 -275t-394.5 -101.5q-161 0 -298.5 55t-234 151.5t-154 229t-64.5 285.5h-262v-682h-115v1450h115v-662h264q11 149 68.5 277t152.5 222.5t231.5 148t296.5 53.5zM1343 70
q186 0 331.5 87.5t223.5 236.5t78 331q0 184 -77.5 332.5t-223 235.5t-332.5 87t-332 -87t-221.5 -235.5t-76.5 -332.5q0 -136 45.5 -256t126.5 -208.5t199.5 -139.5t258.5 -51z" />
    <glyph glyph-name="uni042F" unicode="&#x42f;" horiz-adv-x="1228" 
d="M664 1450h350v-1450h-115v639h-313l-436 -639h-115l-10 23l444 636q-152 33 -232.5 132t-80.5 245q0 205 131 309.5t377 104.5zM645 743h254v603h-223q-203 0 -303.5 -75t-100.5 -235q0 -293 373 -293z" />
    <glyph glyph-name="uni0430" unicode="&#x430;" horiz-adv-x="976" 
d="M913 76l11 -6v-82q-61 -21 -111 -21q-64 0 -94.5 35t-30.5 109l-2 16q-92 -90 -171 -128t-167 -38q-112 0 -182 65t-70 169q0 135 138.5 217.5t449.5 119.5v66q0 126 -48.5 185t-146.5 59q-82 0 -159 -48.5t-133 -134.5l-13 -2l-73 50q63 106 168 168.5t219 62.5
q139 0 214.5 -79.5t75.5 -227.5v-500q0 -42 12.5 -58t45.5 -16q15 0 67 19zM207 199q0 -67 44.5 -106.5t121.5 -39.5q79 0 153 35.5t158 116.5v248q-255 -35 -366 -95t-111 -159z" />
    <glyph glyph-name="uni0431" unicode="&#x431;" horiz-adv-x="1159" 
d="M627 -39q-217 0 -345 130.5t-128 377.5v156q0 103 5 184t18 160.5t35 140.5t57 116.5t82.5 95t112 70t146.5 48.5l230 51q60 13 127 41l30 -86q-60 -35 -147 -53l-197 -45q-90 -21 -150.5 -49t-109 -74.5t-76.5 -117.5t-43.5 -170.5t-19.5 -240.5h6q56 113 156.5 177.5
t220.5 64.5q190 0 307 -131.5t117 -347.5q0 -220 -121 -359t-313 -139zM612 59q155 0 246.5 108t91.5 292q0 175 -90 278t-244 103q-155 0 -258.5 -113.5t-101.5 -282.5q2 -170 100.5 -277.5t255.5 -107.5z" />
    <glyph glyph-name="uni0432" unicode="&#x432;" horiz-adv-x="1144" 
d="M600 -39q-222 0 -331 132.5t-109 400.5v528q0 237 109.5 370.5t308.5 133.5q166 0 272 -101.5t106 -261.5q0 -127 -69.5 -222t-167.5 -130v-4q158 -30 239.5 -135t81.5 -254q0 -198 -125.5 -327.5t-314.5 -129.5zM596 59q143 0 239.5 96t96.5 257q0 159 -91.5 247.5
t-267.5 88.5h-139v90h133q51 0 101 22t91 61t66 99.5t25 130.5q0 129 -74 204t-205 75q-151 0 -229 -105.5t-78 -300.5v-522q0 -229 84.5 -335t247.5 -108z" />
    <glyph glyph-name="uni0433" unicode="&#x433;" horiz-adv-x="843" 
d="M403 -39q-134 0 -223.5 72t-89.5 176q0 101 62 162.5t227 124.5q103 41 157 74t71.5 62.5t17.5 72.5q0 60 -51 100.5t-134 40.5q-84 0 -145 -38.5t-92 -107.5l-13 -2l-73 50q37 89 123 139.5t209 50.5q125 0 203.5 -67.5t78.5 -161.5q0 -102 -63.5 -166t-245.5 -131
q-132 -49 -178.5 -94t-46.5 -111t60 -110t151 -44q174 0 262 160l8 2l82 -55q-51 -96 -143.5 -147.5t-213.5 -51.5z" />
    <glyph glyph-name="uni0434" unicode="&#x434;" horiz-adv-x="1183" 
d="M565 -471q-143 0 -246.5 55t-175.5 176l78 52l12 -5q64 -99 140.5 -141.5t189.5 -42.5q164 0 251.5 97t84.5 272v215q-50 -103 -153.5 -168.5t-219.5 -65.5q-195 0 -312.5 134t-117.5 350q0 211 124.5 346t311.5 135q116 0 214.5 -64.5t152.5 -177.5v203h105l2 -901
q0 -227 -113 -348t-328 -121zM543 74q156 0 257.5 105t104.5 267q1 166 -101 280t-251 114q-154 0 -250 -106t-96 -277q0 -175 90 -279t246 -104z" />
    <glyph glyph-name="uni0435" unicode="&#x435;" horiz-adv-x="1077" 
d="M971 438h-760v-14q0 -166 98.5 -266.5t249.5 -100.5q197 0 313 189l13 4l76 -51q-64 -115 -169 -176.5t-237 -61.5q-203 0 -329 135t-126 353t124.5 353.5t320.5 135.5q195 0 311.5 -126.5t116.5 -344.5q0 -17 -2 -29zM545 844q-134 0 -224.5 -86.5t-105.5 -231.5h647
q-6 147 -92 232.5t-225 85.5z" />
    <glyph glyph-name="uni0436" unicode="&#x436;" horiz-adv-x="1419" 
d="M154 0h-123l385 563l-340 336h137l244 -248q100 -100 202 -205q-2 182 -2 547v508h105v-508q0 -365 -2 -547l203 207l243 246h137l-339 -336l385 -563h-125l-332 496l-170 -166v-330h-105v330l-172 168z" />
    <glyph glyph-name="uni0437" unicode="&#x437;" horiz-adv-x="944" 
d="M465 -471q-268 0 -406 231l78 52l13 -5q63 -98 137.5 -140t179.5 -44q120 0 207.5 79.5t87.5 211.5q0 135 -78.5 214t-237.5 79h-180v92h178q111 0 196 83.5t85 221.5q0 102 -62.5 171t-175.5 69q-193 0 -313 -189l-12 -2l-74 49q65 109 173 172.5t233 63.5
q154 0 245.5 -92.5t91.5 -233.5q-1 -128 -75.5 -222t-190.5 -124v-4q81 -13 141.5 -47t95 -81.5t50.5 -101.5t16 -114q0 -170 -117 -279.5t-286 -109.5z" />
    <glyph glyph-name="uni0438" unicode="&#x438;" horiz-adv-x="1138" 
d="M961 899v-899h-105v197q-56 -112 -149.5 -174t-198.5 -62q-158 0 -243 97t-85 286v555h105v-512q0 -169 62.5 -248.5t191.5 -79.5t223 108t94 263v469h105z" />
    <glyph glyph-name="uni0439" unicode="&#x439;" horiz-adv-x="1138" 
d="M567 1108q-128 0 -208 68.5t-95 189.5l12 10h78q37 -178 213 -178q178 0 215 178h78l10 -10q-13 -121 -93.5 -189.5t-209.5 -68.5zM961 899v-899h-105v197q-56 -112 -149.5 -174t-198.5 -62q-158 0 -243 97t-85 286v555h105v-512q0 -169 62.5 -248.5t191.5 -79.5t223 108
t94 263v469h105z" />
    <glyph glyph-name="uni043A" unicode="&#x43a;" horiz-adv-x="974" 
d="M956 0h-131l-370 489l-170 -161v-328h-105v1501h105v-508v-547q46 44 137 133.5t137 133.5l191 186h141l-365 -344z" />
    <glyph glyph-name="uni043B" unicode="&#x43b;" horiz-adv-x="837" 
d="M102 0h-114l424 932h12l426 -932h-117l-313 717h-4z" />
    <glyph glyph-name="uni043C" unicode="&#x43c;" horiz-adv-x="1243" 
d="M1065 899v-899h-102v721l-332 -610h-15l-335 616v-727h-101v899h117l326 -602h4l323 602h115z" />
    <glyph glyph-name="uni043D" unicode="&#x43d;" horiz-adv-x="1105" 
d="M821 510v389h105v-899h-105v418h-536v-418h-105v899h105v-389h536z" />
    <glyph glyph-name="uni043E" unicode="&#x43e;" horiz-adv-x="1171" 
d="M586 -39q-209 0 -349.5 142t-140.5 348q0 135 63 246t175.5 176t251.5 65q210 0 348.5 -140.5t138.5 -346.5q0 -135 -62.5 -247t-174.5 -177.5t-250 -65.5zM586 59q158 0 267.5 114t109.5 278t-108.5 276.5t-268.5 112.5q-162 0 -270.5 -112.5t-108.5 -276.5t109.5 -278
t269.5 -114z" />
    <glyph glyph-name="uni043F" unicode="&#x43f;" horiz-adv-x="1161" 
d="M180 0v899h105v-199q55 113 149 175.5t207 62.5q166 0 254 -96.5t88 -280.5v-561h-104v508q0 171 -65 251.5t-202 80.5t-232 -108t-95 -263v-469h-105z" />
    <glyph glyph-name="uni0440" unicode="&#x440;" horiz-adv-x="1181" 
d="M285 -446h-105v1345h105v-203q55 114 154.5 178t219.5 64q189 0 306.5 -132t117.5 -347q0 -220 -120 -359t-312 -139q-115 0 -218 64.5t-148 169.5v-297v-344zM635 59q155 0 246.5 108t91.5 292q0 175 -90 278t-244 103t-257.5 -114t-102.5 -284q1 -167 101.5 -275
t254.5 -108z" />
    <glyph glyph-name="uni0441" unicode="&#x441;" horiz-adv-x="1067" 
d="M553 -39q-204 0 -330.5 135t-126.5 355q0 217 127 352t330 135q131 0 237.5 -62.5t172.5 -183.5l-76 -51l-13 4q-61 102 -139 149.5t-180 47.5q-152 0 -250 -106.5t-98 -284.5q0 -180 98 -287t250 -107q205 0 322 197l12 4l76 -51q-67 -121 -173 -183.5t-239 -62.5z" />
    <glyph glyph-name="uni0442" unicode="&#x442;" horiz-adv-x="1781" 
d="M1280 938q153 0 237.5 -96.5t84.5 -280.5v-561h-105v506q0 171 -62 252.5t-186 81.5t-215.5 -111.5t-91.5 -267.5v-461h-104v506q0 171 -62 252.5t-186 81.5q-123 0 -214 -112t-91 -267v-461h-105v899h105v-199q55 114 143.5 176t194.5 62q123 0 199.5 -66.5
t101.5 -195.5q55 127 151.5 194.5t204.5 67.5z" />
    <glyph glyph-name="uni0443" unicode="&#x443;" horiz-adv-x="935" 
d="M297 -446h-119l240 501l-373 844h119l309 -727h4l322 727h119z" />
    <glyph glyph-name="uni0444" unicode="&#x444;" horiz-adv-x="1329" 
d="M1233 451q0 -212 -138 -351t-378 -145v-401h-105v401q-240 6 -378 145t-138 351t137.5 349.5t378.5 143.5v557h105v-557q241 -6 378.5 -143.5t137.5 -349.5zM207 451q0 -173 106.5 -284.5t300.5 -115.5v797q-195 -4 -301 -114t-106 -283zM715 848v-797q192 4 299.5 115.5
t107.5 284.5t-106 283t-301 114z" />
    <glyph glyph-name="uni0445" unicode="&#x445;" horiz-adv-x="899" 
d="M168 0h-127l348 459l-342 440h129l166 -221l104 -141h5l106 141l166 221h129l-342 -440l348 -459h-129l-180 246l-98 133h-5l-98 -133z" />
    <glyph glyph-name="uni0446" unicode="&#x446;" horiz-adv-x="1159" 
d="M961 899v-807h174v-389h-99v297h-180v197q-56 -112 -149.5 -174t-198.5 -62q-158 0 -243 97t-85 286v555h105v-512q0 -169 62.5 -248.5t191.5 -79.5t223 108t94 263v469h105z" />
    <glyph glyph-name="uni0447" unicode="&#x447;" horiz-adv-x="1060" 
d="M776 512v387h105v-899h-105v420q-162 -162 -330 -162q-139 0 -212.5 88.5t-73.5 257.5v295h104v-264q0 -279 203 -279q153 0 309 156z" />
    <glyph glyph-name="uni0448" unicode="&#x448;" horiz-adv-x="1759" 
d="M496 -39q-149 0 -232.5 97t-83.5 280v561h105v-506q0 -171 60.5 -252.5t180.5 -81.5t210.5 112t90.5 267v461h105v-506q0 -334 244 -334q120 0 210.5 112t90.5 267v461h104v-899h-104v199q-55 -113 -143.5 -175.5t-190.5 -62.5q-119 0 -195 66.5t-102 195.5
q-55 -127 -150.5 -194.5t-199.5 -67.5z" />
    <glyph glyph-name="uni0449" unicode="&#x449;" horiz-adv-x="1779" 
d="M1581 899v-807h174v-389h-98v297h-180v199q-55 -113 -143.5 -175.5t-190.5 -62.5q-119 0 -195 66.5t-102 195.5q-55 -127 -150.5 -194.5t-199.5 -67.5q-149 0 -232.5 97t-83.5 280v561h105v-506q0 -171 60.5 -252.5t180.5 -81.5t210.5 112t90.5 267v461h105v-506
q0 -334 244 -334q120 0 210.5 112t90.5 267v461h104z" />
    <glyph glyph-name="uni044A" unicode="&#x44a;" horiz-adv-x="1140" 
d="M715 694q155 0 247.5 -99.5t92.5 -258.5q0 -160 -106.5 -267.5t-276.5 -107.5q-179 0 -275 104.5t-96 301.5v440h-266v92h373v-397q45 95 127.5 143.5t179.5 48.5zM670 59q122 0 199 75.5t77 199.5q0 122 -69 192t-183 70q-124 0 -204 -85.5t-80 -193.5q0 -116 69 -187
t191 -71z" />
    <glyph glyph-name="uni044B" unicode="&#x44b;" horiz-adv-x="1480" 
d="M551 -39q-180 0 -275.5 104t-95.5 302v532h105v-397q45 95 127.5 143.5t179.5 48.5q155 0 247.5 -99.5t92.5 -258.5q0 -160 -106 -267.5t-275 -107.5zM1303 0h-105v899h105v-899zM547 59q123 0 199.5 75t76.5 200q0 122 -69 192t-183 70q-124 0 -204 -85.5t-80 -193.5
q0 -116 69.5 -187t190.5 -71z" />
    <glyph glyph-name="uni044C" unicode="&#x44c;" horiz-adv-x="1017" 
d="M551 -39q-180 0 -275.5 104t-95.5 302v532h105v-397q45 95 127.5 143.5t179.5 48.5q155 0 247.5 -99.5t92.5 -258.5q0 -160 -106 -267.5t-275 -107.5zM547 59q123 0 199.5 75t76.5 200q0 122 -69 192t-183 70q-124 0 -204 -85.5t-80 -193.5q0 -116 69.5 -187t190.5 -71z
" />
    <glyph glyph-name="uni044D" unicode="&#x44d;" horiz-adv-x="1056" 
d="M528 938q200 0 315 -133.5t115 -351.5q0 -221 -118 -356.5t-316 -135.5q-139 0 -248 62.5t-174 183.5l76 49l12 -4q60 -100 140 -147.5t192 -47.5q141 0 231 96.5t99 266.5h-467v88h465q-14 157 -100.5 245.5t-225.5 88.5q-108 0 -188 -46t-146 -145l-12 -2l-76 51
q141 238 426 238z" />
    <glyph glyph-name="uni044E" unicode="&#x44e;" horiz-adv-x="1511" 
d="M938 938q209 0 343 -140t134 -347q0 -135 -60 -247t-170 -177.5t-247 -65.5q-197 0 -330 131t-145 326h-178v-418h-105v1501h105v-991h182q19 186 149 307t322 121zM938 59q158 0 262.5 113t104.5 279q0 165 -103 277t-264 112q-159 0 -262 -112t-103 -277
q0 -166 104 -279t261 -113z" />
    <glyph glyph-name="uni044F" unicode="&#x44f;" horiz-adv-x="993" 
d="M813 899v-899h-104v346h-222l-251 -346h-117l-4 6l252 342q-114 12 -180 83.5t-66 180.5q0 131 90 209t250 78h352zM444 432h265v375h-256q-109 0 -165.5 -50t-56.5 -141q0 -89 54 -136.5t159 -47.5z" />
    <glyph glyph-name="uni0450" unicode="&#x450;" horiz-adv-x="1077" 
d="M446 1470l238 -376h-88l-270 366l6 10h114zM971 438h-760v-14q0 -166 98.5 -266.5t249.5 -100.5q197 0 313 189l13 4l76 -51q-64 -115 -169 -176.5t-237 -61.5q-203 0 -329 135t-126 353t124.5 353.5t320.5 135.5q195 0 311.5 -126.5t116.5 -344.5q0 -17 -2 -29zM545 844
q-134 0 -224.5 -86.5t-105.5 -231.5h647q-6 147 -92 232.5t-225 85.5z" />
    <glyph glyph-name="uni0451" unicode="&#x451;" horiz-adv-x="1077" 
d="M395 1161q-29 -9 -52.5 4.5t-31.5 42.5q-7 26 8 50.5t43 33.5q26 8 50 -6.5t30 -42.5q8 -28 -5.5 -51.5t-41.5 -30.5zM721 1161q-28 -9 -51.5 4.5t-30.5 42.5q-6 26 8.5 50.5t42.5 33.5q26 8 50.5 -6.5t31.5 -42.5q6 -28 -8 -51.5t-43 -30.5zM971 438h-760v-14
q0 -166 98.5 -266.5t249.5 -100.5q197 0 313 189l13 4l76 -51q-64 -115 -169 -176.5t-237 -61.5q-203 0 -329 135t-126 353t124.5 353.5t320.5 135.5q195 0 311.5 -126.5t116.5 -344.5q0 -17 -2 -29zM545 844q-134 0 -224.5 -86.5t-105.5 -231.5h647q-6 147 -92 232.5
t-225 85.5z" />
    <glyph glyph-name="uni0453" unicode="&#x453;" horiz-adv-x="843" 
d="M416 1094h-86l235 376h115l6 -10zM403 -39q-134 0 -223.5 72t-89.5 176q0 101 62 162.5t227 124.5q103 41 157 74t71.5 62.5t17.5 72.5q0 60 -51 100.5t-134 40.5q-84 0 -145 -38.5t-92 -107.5l-13 -2l-73 50q37 89 123 139.5t209 50.5q125 0 203.5 -67.5t78.5 -161.5
q0 -102 -63.5 -166t-245.5 -131q-132 -49 -178.5 -94t-46.5 -111t60 -110t151 -44q174 0 262 160l8 2l82 -55q-51 -96 -143.5 -147.5t-213.5 -51.5z" />
    <glyph glyph-name="uni045C" unicode="&#x45c;" horiz-adv-x="974" 
d="M537 1565h-88l192 274h115l6 -10zM956 0h-131l-370 489l-170 -161v-328h-105v1501h105v-508v-547q46 44 137 133.5t137 133.5l191 186h141l-365 -344z" />
    <glyph glyph-name="uni045D" unicode="&#x45d;" horiz-adv-x="1138" 
d="M475 1470l238 -376h-88l-271 366l6 10h115zM961 899v-899h-105v197q-56 -112 -149.5 -174t-198.5 -62q-158 0 -243 97t-85 286v555h105v-512q0 -169 62.5 -248.5t191.5 -79.5t223 108t94 263v469h105z" />
    <glyph glyph-name="Wgrave" unicode="&#x1e80;" horiz-adv-x="1959" 
d="M1124 1565h-88l-229 264l6 10h117zM578 -29h-74l-465 1479h123l246 -797q13 -42 61.5 -195.5t73.5 -236.5h8q55 153 145 432l265 783h38l265 -783q26 -82 75.5 -230t67.5 -202h8q17 55 64.5 203t72.5 229l244 797h125l-465 -1479h-72l-282 836q-33 103 -119 348h-8
l-117 -346z" />
    <glyph glyph-name="wgrave" unicode="&#x1e81;" horiz-adv-x="1388" 
d="M602 1470l238 -376h-88l-271 366l6 10h115zM426 -33h-45l-328 932h113l246 -733h4l264 721h33l262 -721h4l246 733h110l-325 -932h-45l-269 715h-4z" />
    <glyph glyph-name="Wacute" unicode="&#x1e82;" horiz-adv-x="1959" 
d="M928 1565h-88l192 274h115l6 -10zM578 -29h-74l-465 1479h123l246 -797q13 -42 61.5 -195.5t73.5 -236.5h8q55 153 145 432l265 783h38l265 -783q26 -82 75.5 -230t67.5 -202h8q17 55 64.5 203t72.5 229l244 797h125l-465 -1479h-72l-282 836q-33 103 -119 348h-8
l-117 -346z" />
    <glyph glyph-name="wacute" unicode="&#x1e83;" horiz-adv-x="1388" 
d="M637 1094h-86l235 376h115l6 -10zM426 -33h-45l-328 932h113l246 -733h4l264 721h33l262 -721h4l246 733h110l-325 -932h-45l-269 715h-4z" />
    <glyph glyph-name="Wdieresis" unicode="&#x1e84;" horiz-adv-x="1959" 
d="M739 1688q-7 26 7 50.5t42 33.5q26 7 50 -7t32 -41q6 -30 -7 -53.5t-40 -30.5q-29 -9 -53.5 5t-30.5 43zM1092 1688q-7 26 6.5 50.5t40.5 33.5q27 7 51.5 -7t32.5 -41q6 -30 -7 -53.5t-42 -30.5q-28 -9 -52 5t-30 43zM578 -29h-74l-465 1479h123l246 -797
q13 -42 61.5 -195.5t73.5 -236.5h8q55 153 145 432l265 783h38l265 -783q26 -82 75.5 -230t67.5 -202h8q17 55 64.5 203t72.5 229l244 797h125l-465 -1479h-72l-282 836q-33 103 -119 348h-8l-117 -346z" />
    <glyph glyph-name="wdieresis" unicode="&#x1e85;" horiz-adv-x="1388" 
d="M465 1208q-7 26 8 50.5t43 33.5q26 8 50 -6.5t30 -42.5q8 -28 -5.5 -51.5t-41.5 -30.5q-29 -9 -52.5 4.5t-31.5 42.5zM793 1208q-6 26 8.5 50.5t42.5 33.5q26 8 50.5 -6.5t31.5 -42.5q6 -28 -8.5 -51.5t-43.5 -30.5q-28 -9 -50.5 4.5t-30.5 42.5zM426 -33h-45l-328 932
h113l246 -733h4l264 721h33l262 -721h4l246 733h110l-325 -932h-45l-269 715h-4z" />
    <glyph glyph-name="uni1E9E" unicode="&#x1e9e;" horiz-adv-x="1423" 
d="M1202 1360l-338 -537q219 -1 343 -114.5t124 -311.5q0 -197 -110.5 -316.5t-300.5 -119.5q-145 0 -251.5 71.5t-189.5 231.5l82 55l25 -6q67 -132 149 -193t189 -61q125 0 207.5 92t82.5 236q0 334 -387 334h-100v84l340 538h-737v-1343h-115v1450h987v-90z" />
    <glyph glyph-name="Ygrave" unicode="&#x1ef2;" horiz-adv-x="1155" 
d="M723 1565h-88l-229 264l6 10h116zM635 0h-115v602l-508 848h127l242 -420q63 -113 194 -323h7q17 29 87 144t105 177l242 422h127l-508 -848v-602z" />
    <glyph glyph-name="ygrave" unicode="&#x1ef3;" horiz-adv-x="935" 
d="M395 1470l238 -376h-88l-271 366l7 10h114zM297 -446h-119l240 501l-373 844h119l309 -727h4l322 727h119z" />
    <glyph glyph-name="uni2000" unicode="&#x2000;" horiz-adv-x="1024" 
 />
    <glyph glyph-name="uni2001" unicode="&#x2001;" horiz-adv-x="2048" 
 />
    <glyph glyph-name="uni2002" unicode="&#x2002;" horiz-adv-x="1024" 
 />
    <glyph glyph-name="uni2003" unicode="&#x2003;" horiz-adv-x="2048" 
 />
    <glyph glyph-name="uni2004" unicode="&#x2004;" horiz-adv-x="681" 
 />
    <glyph glyph-name="uni2005" unicode="&#x2005;" horiz-adv-x="512" 
 />
    <glyph glyph-name="uni2006" unicode="&#x2006;" horiz-adv-x="342" 
 />
    <glyph glyph-name="uni2007" unicode="&#x2007;" horiz-adv-x="1433" 
 />
    <glyph glyph-name="uni2008" unicode="&#x2008;" horiz-adv-x="524" 
 />
    <glyph glyph-name="uni2009" unicode="&#x2009;" horiz-adv-x="409" 
 />
    <glyph glyph-name="uni200A" unicode="&#x200a;" horiz-adv-x="286" 
 />
    <glyph glyph-name="uni200B" unicode="&#x200b;" 
 />
    <glyph glyph-name="uni200C" unicode="&#x200c;" 
d="M-297 1546l223 221l51 -49l-178 -172l178 -168l-51 -51zM201 1546l-178 172l51 49l223 -221l-223 -219l-51 51zM-39 1247h74v-1605h-74v1605z" />
    <glyph glyph-name="uni200D" unicode="&#x200d;" 
d="M-276 1718l51 49l223 -221l-223 -219l-51 51l178 168zM225 1767l51 -49l-178 -172l178 -168l-51 -51l-223 219zM-39 1247h74v-1605h-74v1605z" />
    <glyph glyph-name="endash" unicode="&#x2013;" horiz-adv-x="1024" 
d="M963 418h-902v96h902v-96z" />
    <glyph glyph-name="emdash" unicode="&#x2014;" horiz-adv-x="1576" 
d="M1516 418h-1455v96h1455v-96z" />
    <glyph glyph-name="quoteleft" unicode="&#x2018;" horiz-adv-x="526" 
d="M147 989l218 500l77 -31l-180 -504l-14 -6z" />
    <glyph glyph-name="quoteright" unicode="&#x2019;" horiz-adv-x="526" 
d="M381 1448l-217 -500l-78 31l178 504l15 6z" />
    <glyph glyph-name="quotesinglbase" unicode="&#x201a;" horiz-adv-x="526" 
d="M381 182l-217 -499l-78 30l178 504l15 6z" />
    <glyph glyph-name="quotedblleft" unicode="&#x201c;" horiz-adv-x="870" 
d="M156 989l217 500l78 -31l-179 -504l-16 -6zM489 989l218 500l77 -31l-178 -504l-14 -6z" />
    <glyph glyph-name="quotedblright" unicode="&#x201d;" horiz-adv-x="862" 
d="M381 1448l-217 -500l-78 31l178 504l15 6zM715 1448l-217 -500l-78 31l178 504l16 6z" />
    <glyph glyph-name="quotedblbase" unicode="&#x201e;" horiz-adv-x="862" 
d="M381 182l-217 -499l-78 30l178 504l15 6zM715 182l-217 -499l-78 30l178 504l16 6z" />
    <glyph glyph-name="dagger" unicode="&#x2020;" horiz-adv-x="1114" 
d="M614 -446h-110v1241h-404v104h404v551h110v-551h400v-104h-400v-1241z" />
    <glyph glyph-name="daggerdbl" unicode="&#x2021;" horiz-adv-x="1114" 
d="M614 -444h-110v479h-393v102h393v731h-393v103h393v479h110v-479h390v-103h-390v-731h390v-102h-390v-479z" />
    <glyph glyph-name="bullet" unicode="&#x2022;" horiz-adv-x="1208" 
d="M604 453q-130 0 -219.5 90t-89.5 219t89.5 219t219.5 90t219.5 -90t89.5 -219t-89.5 -219t-219.5 -90z" />
    <glyph glyph-name="ellipsis" unicode="&#x2026;" horiz-adv-x="1748" 
d="M262 -20q-35 0 -60.5 25.5t-25.5 62.5t25.5 62.5t60.5 25.5t60.5 -25.5t25.5 -62.5t-25.5 -62.5t-60.5 -25.5zM874 -20q-35 0 -60.5 25.5t-25.5 62.5t25.5 62.5t60.5 25.5q36 0 61.5 -26t25.5 -62t-25.5 -62t-61.5 -26zM1487 -20q-37 0 -61.5 25.5t-24.5 62.5t24.5 62.5
t61.5 25.5q35 0 59.5 -25.5t24.5 -62.5t-24.5 -62.5t-59.5 -25.5z" />
    <glyph glyph-name="uni202F" unicode="&#x202f;" horiz-adv-x="409" 
 />
    <glyph glyph-name="perthousand" unicode="&#x2030;" horiz-adv-x="2672" 
d="M502 793q-145 0 -243.5 98t-98.5 244q0 145 98.5 244.5t243.5 99.5q143 0 241.5 -99.5t98.5 -244.5q0 -146 -98.5 -244t-241.5 -98zM553 0h-117l864 1450h117zM502 883q102 0 172.5 72.5t70.5 179.5q0 105 -70.5 178t-172.5 73q-103 0 -173.5 -72.5t-70.5 -178.5
q0 -107 70.5 -179.5t173.5 -72.5zM1352 -29q-145 0 -243.5 99.5t-98.5 244.5q0 146 98.5 244t243.5 98q143 0 241.5 -98t98.5 -244q0 -145 -98.5 -244.5t-241.5 -99.5zM2171 -29q-144 0 -242 99.5t-98 244.5q0 146 97.5 244t242.5 98t242.5 -98t97.5 -244q0 -145 -98 -244.5
t-242 -99.5zM1352 63q101 0 171 73t70 179q0 107 -69.5 179.5t-171.5 72.5q-103 0 -173.5 -72.5t-70.5 -179.5q0 -106 70.5 -179t173.5 -73zM2171 63q102 0 173 73.5t71 178.5q0 107 -71 179.5t-173 72.5t-173 -72.5t-71 -179.5q0 -105 71 -178.5t173 -73.5z" />
    <glyph glyph-name="minute" unicode="&#x2032;" horiz-adv-x="425" 
d="M207 1071h-84l70 475h110z" />
    <glyph glyph-name="second" unicode="&#x2033;" horiz-adv-x="722" 
d="M207 1071h-84l70 475h110zM502 1071h-82l67 475h113z" />
    <glyph glyph-name="guilsinglleft" unicode="&#x2039;" horiz-adv-x="585" 
d="M438 123l-57 -41l-256 375l256 374l57 -40l2 -11l-213 -323l213 -324z" />
    <glyph glyph-name="guilsinglright" unicode="&#x203a;" horiz-adv-x="585" 
d="M461 457l-254 -375l-60 41l-2 10l213 324l-213 323l2 11l60 40z" />
    <glyph glyph-name="fraction" unicode="&#x2044;" horiz-adv-x="280" 
d="M508 1546h117l-848 -1620h-121z" />
    <glyph glyph-name="uni2070" unicode="&#x2070;" horiz-adv-x="761" 
d="M381 903q-141 0 -223 120.5t-82 330.5q0 209 82 328.5t223 119.5t222 -119.5t81 -328.5q0 -211 -81 -331t-222 -120zM381 993q95 0 150 96.5t55 266.5q0 166 -55.5 261t-149.5 95q-96 0 -150.5 -95t-54.5 -263q0 -169 55 -265t150 -96z" />
    <glyph glyph-name="uni2074" unicode="&#x2074;" horiz-adv-x="761" 
d="M584 942h-97v188h-436v50l461 628h72v-589h100v-89h-100v-188zM424 1548l-242 -329h307v243q0 124 11 197h-2q-46 -76 -74 -111z" />
    <glyph glyph-name="uni2075" unicode="&#x2075;" horiz-adv-x="761" 
d="M371 903q-122 0 -197.5 61.5t-87.5 170.5l84 16l14 -10q9 -72 59 -112t130 -40q85 0 137.5 57t52.5 150q0 89 -53.5 143t-142.5 54q-113 0 -205 -68l-25 6l31 449h432v-86h-348l-16 -264q72 38 161 38q119 0 193 -74t74 -194q0 -132 -80.5 -214.5t-212.5 -82.5z" />
    <glyph glyph-name="uni2076" unicode="&#x2076;" horiz-adv-x="761" 
d="M365 903q-131 0 -208 79t-77 212q0 72 34.5 143.5t118.5 188.5l203 286l74 -43l4 -12l-154 -213q-75 -97 -118 -143l2 -2q67 61 159 61q111 0 180.5 -73.5t69.5 -194.5q0 -130 -79.5 -209.5t-208.5 -79.5zM367 989q84 0 135 55.5t51 143.5q0 89 -49.5 141.5t-132.5 52.5
q-87 0 -140 -53.5t-53 -142.5q0 -88 53 -142.5t136 -54.5z" />
    <glyph glyph-name="uni2077" unicode="&#x2077;" horiz-adv-x="761" 
d="M178 934l359 758h-422v88h559v-17l-404 -856l-20 -4z" />
    <glyph glyph-name="uni2078" unicode="&#x2078;" horiz-adv-x="761" 
d="M379 903q-134 0 -209.5 68.5t-75.5 183.5q0 84 46 142t132 83q-73 23 -110 75t-37 126q0 98 70 159.5t184 61.5q117 0 186.5 -61.5t69.5 -159.5q0 -73 -37.5 -124.5t-108.5 -76.5q85 -25 131 -83.5t46 -141.5q0 -115 -76 -183.5t-211 -68.5zM379 1421q73 0 115.5 41
t42.5 109q0 70 -43.5 111.5t-114.5 41.5t-114.5 -41.5t-43.5 -111.5q0 -68 43 -109t115 -41zM379 985q89 0 138.5 47t49.5 129t-51 131t-137 49q-85 0 -135.5 -49t-50.5 -131t50 -129t136 -47z" />
    <glyph glyph-name="uni2079" unicode="&#x2079;" horiz-adv-x="761" 
d="M514 1180l-205 -285l-73 43l-3 12l154 213q51 70 117 142l-2 2q-68 -62 -158 -62q-113 0 -183.5 75t-70.5 196q0 129 81 207.5t214 78.5q129 0 205 -77.5t76 -206.5q0 -81 -36.5 -154t-115.5 -184zM377 1323q83 0 135.5 55.5t52.5 143.5t-50.5 141t-135.5 53t-137 -54
t-52 -142q0 -89 51 -143t136 -54z" />
    <glyph glyph-name="uni2080" unicode="&#x2080;" horiz-adv-x="761" 
d="M381 -326q-141 0 -223 120.5t-82 330.5q0 209 82 328.5t223 119.5t222 -119.5t81 -328.5q0 -211 -81 -331t-222 -120zM381 -236q95 0 150 96.5t55 266.5q0 166 -55.5 261t-149.5 95q-96 0 -150.5 -95t-54.5 -263q0 -169 55 -265t150 -96z" />
    <glyph glyph-name="uni2081" unicode="&#x2081;" horiz-adv-x="761" 
d="M457 -287h-99v631q0 53 7 111l-5 2q-24 -17 -61 -39l-119 -68l-8 4l6 97l252 133h27v-871z" />
    <glyph glyph-name="uni2082" unicode="&#x2082;" horiz-adv-x="761" 
d="M631 -287h-549v19l242 252q116 123 165.5 199t49.5 149q0 69 -43.5 111t-118.5 42q-76 -2 -125 -47.5t-66 -132.5l-16 -6l-78 12q20 128 97 195t200 67q110 0 180 -65t70 -168q0 -88 -48 -171.5t-153 -193.5l-82 -86q-13 -15 -27.5 -29t-35.5 -33t-33 -30v-2q74 6 141 6
h230v-88z" />
    <glyph glyph-name="uni2083" unicode="&#x2083;" horiz-adv-x="761" 
d="M377 -326q-127 0 -205 65.5t-90 182.5l82 15l16 -7q7 -78 59.5 -124t131.5 -46q82 0 130 47t48 125q0 83 -51 127.5t-148 44.5h-31v74h27q92 0 142.5 42.5t50.5 119.5q0 65 -45 106t-115 41q-74 0 -121.5 -40t-60.5 -113l-17 -6l-80 12q19 108 95 170.5t190 62.5
q111 0 181.5 -62t70.5 -161q0 -77 -43.5 -133t-120.5 -76q81 -13 128.5 -71.5t47.5 -143.5q0 -110 -77.5 -181t-194.5 -71z" />
    <glyph glyph-name="uni2084" unicode="&#x2084;" horiz-adv-x="761" 
d="M584 -287h-97v189h-436v49l461 629h72v-590h100v-88h-100v-189zM424 319l-242 -329h307v243q0 124 11 197h-2q-46 -76 -74 -111z" />
    <glyph glyph-name="uni2085" unicode="&#x2085;" horiz-adv-x="761" 
d="M371 -326q-122 0 -197.5 61.5t-87.5 170.5l84 16l14 -10q9 -72 59 -112t130 -40q85 0 137.5 56.5t52.5 148.5q0 91 -53.5 145t-142.5 54q-113 0 -205 -68l-25 6l31 449h432v-86h-348l-16 -264q74 39 161 39q119 0 193 -74.5t74 -194.5q0 -132 -80.5 -214.5t-212.5 -82.5z
" />
    <glyph glyph-name="uni2086" unicode="&#x2086;" horiz-adv-x="761" 
d="M365 -326q-131 0 -208 79t-77 212q0 72 34.5 143.5t118.5 188.5l203 287l74 -43l4 -13l-154 -213q-75 -97 -118 -143l2 -2q67 61 159 61q111 0 180.5 -73.5t69.5 -194.5q0 -130 -79.5 -209.5t-208.5 -79.5zM367 -240q84 0 135 55.5t51 143.5q0 89 -49.5 142t-132.5 53
q-87 0 -140 -54t-53 -143q0 -88 53 -142.5t136 -54.5z" />
    <glyph glyph-name="uni2087" unicode="&#x2087;" horiz-adv-x="761" 
d="M178 -295l359 758h-422v88h559v-16l-404 -857l-20 -4z" />
    <glyph glyph-name="uni2088" unicode="&#x2088;" horiz-adv-x="761" 
d="M379 -326q-134 0 -209.5 68.5t-75.5 183.5q0 84 46 142.5t132 83.5q-147 46 -147 200q0 98 70 159.5t184 61.5q117 0 186.5 -61.5t69.5 -159.5q0 -149 -146 -200q85 -25 131 -84t46 -142q0 -115 -76 -183.5t-211 -68.5zM379 193q73 0 115.5 40.5t42.5 108.5
q0 70 -43.5 112t-114.5 42t-114.5 -42t-43.5 -112q0 -68 43 -108.5t115 -40.5zM379 -244q89 0 138.5 47t49.5 129t-51 131.5t-137 49.5q-85 0 -135.5 -49.5t-50.5 -131.5t50 -129t136 -47z" />
    <glyph glyph-name="uni2089" unicode="&#x2089;" horiz-adv-x="761" 
d="M514 -49l-205 -285l-73 43l-3 12l154 213q51 70 117 142l-2 2q-68 -62 -158 -62q-113 0 -183.5 75t-70.5 196q0 129 81 207.5t214 78.5q129 0 205 -77.5t76 -206.5q0 -81 -36.5 -154t-115.5 -184zM377 94q83 0 135.5 55.5t52.5 143.5t-50.5 141t-135.5 53t-137 -54
t-52 -142q0 -89 51 -143t136 -54z" />
    <glyph glyph-name="lira" unicode="&#x20a4;" horiz-adv-x="1433" 
d="M520 106h660l-17 -106h-897v106h144q71 110 71 289v99h-198v92h198v166h-198v92h198v178q0 223 101 345t282 122q195 0 305 -113l-61 -84l-12 4q-93 90 -234 90q-127 0 -196.5 -96.5t-69.5 -275.5v-170h336v-92h-336v-166h336v-92h-336v-62q0 -203 -76 -326z" />
    <glyph glyph-name="Euro" unicode="&#x20ac;" horiz-adv-x="1433" 
d="M1235 270l25 6l77 -55q-93 -131 -208.5 -195.5t-270.5 -64.5q-228 0 -385 152.5t-203 406.5h-176l31 92h133q-6 56 -6 113q0 55 6 111h-141l30 92h123q48 253 208 407t390 154q301 0 465 -250l-80 -57l-24 6q-132 192 -365 192q-177 0 -302 -123.5t-169 -328.5h627
l-29 -92h-612q-6 -52 -6 -111q0 -57 6 -113h557l-29 -92h-514q42 -205 165 -327.5t300 -122.5q121 0 212 50t165 150z" />
    <glyph glyph-name="uni2113" unicode="&#x2113;" horiz-adv-x="1024" 
d="M768 133l12 2l37 -82q-109 -92 -244 -92q-122 0 -192 75.5t-70 205.5v174l-75 -64l-56 80l131 111v571q0 175 68.5 275t189.5 100q110 0 173 -72.5t63 -202.5q0 -186 -96.5 -366t-282.5 -336v-250q0 -98 43 -150.5t121 -52.5q89 0 178 74zM567 1391q-64 0 -102.5 -71.5
t-38.5 -189.5v-491q125 113 192.5 258.5t67.5 300.5q0 92 -31 142.5t-88 50.5z" />
    <glyph glyph-name="uni2116" unicode="&#x2116;" horiz-adv-x="2187" 
d="M1817 891q-125 0 -209 83.5t-84 205.5q0 124 83 206t210 82q126 0 209 -82.5t83 -205.5q0 -122 -84 -205.5t-208 -83.5zM1288 -29h-22l-658 889q-90 123 -274 369h-6v-367v-862h-113v1450h88l588 -799q164 -223 278 -372h7v364v807h112v-1479zM1817 973q85 0 142.5 59.5
t57.5 147.5q0 90 -56.5 149.5t-143.5 59.5q-86 0 -143.5 -60t-57.5 -149q0 -88 58 -147.5t143 -59.5zM2099 561h-565v92h565v-92z" />
    <glyph glyph-name="uni2117" unicode="&#x2117;" horiz-adv-x="1990" 
d="M995 -39q-159 0 -300.5 59.5t-243 161t-161 242.5t-59.5 299q0 159 59.5 301t161 244t243 161.5t300.5 59.5t301 -59.5t244 -161.5t161.5 -244t59.5 -301q0 -158 -59.5 -299.5t-161.5 -242.5t-244 -160.5t-301 -59.5zM995 51q139 0 263.5 52.5t213.5 142t141 214
t52 263.5q0 140 -52 265t-141 215.5t-213.5 143t-263.5 52.5q-185 0 -338.5 -89.5t-242 -244.5t-88.5 -342q0 -139 52 -263.5t141.5 -214t213.5 -142t262 -52.5zM879 287h-93v850h240q141 0 219 -66t78 -192q0 -118 -79.5 -188t-217.5 -70h-147v-334zM879 1051v-342h129
q115 0 167 42t52 128q0 88 -51.5 130t-163.5 42h-133z" />
    <glyph glyph-name="trademark" unicode="&#x2122;" horiz-adv-x="2041" 
d="M549 606h-94v758h-283v86h657v-86h-280v-758zM1110 606h-94v844h141l285 -586h4l287 586h137v-844h-94v740h-4l-324 -654h-14l-320 654h-4v-740z" />
    <glyph glyph-name="uni2126" unicode="&#x2126;" horiz-adv-x="1775" 
d="M1655 739q0 -200 -93.5 -366t-238.5 -262h289v-111h-570v102q84 0 171.5 49t159 131t116.5 203.5t45 253.5q0 176 -81 322t-229.5 232.5t-334.5 86.5q-187 0 -336 -86.5t-230 -232.5t-81 -322q0 -132 45 -253.5t116 -203.5t158.5 -131t171.5 -49v-102h-569v111h291
q-146 97 -240 263t-94 365q0 154 56 291.5t155 239t244 160.5t313 59t312 -59t243 -160.5t155 -239t56 -291.5z" />
    <glyph glyph-name="estimated" unicode="&#x212e;" horiz-adv-x="1460" 
d="M1327 530h-917v-266q0 -51 50 -102t128 -83t155 -32q118 0 222.5 49.5t171.5 143.5l16 6l70 -51q-68 -104 -198.5 -163t-283.5 -59q-116 0 -226.5 43t-195.5 118.5t-136.5 187t-51.5 239.5q0 174 78 308t217 206t317 72q131 0 241.5 -43.5t185.5 -118.5t117 -176.5
t42 -216.5q0 -42 -2 -62zM410 604h649v252q-7 82 -98.5 150.5t-227.5 68.5q-138 0 -228 -69.5t-95 -149.5v-252z" />
    <glyph glyph-name="oneeighth" unicode="&#x215b;" horiz-adv-x="1744" 
d="M1145 1546h117l-848 -1620h-119zM410 614h-99v631q0 61 6 111l-4 2q-24 -17 -61 -39l-119 -68l-10 4l8 97l252 133h27v-871zM1305 -39q-134 0 -209.5 68.5t-75.5 183.5q0 83 45.5 141.5t130.5 83.5q-145 47 -145 201q0 98 69 159.5t185 61.5q117 0 186.5 -61.5
t69.5 -159.5q0 -150 -148 -201q86 -25 132 -83t46 -142q0 -116 -75.5 -184t-210.5 -68zM1303 479q74 0 116.5 41t42.5 109q0 70 -43.5 111.5t-115.5 41.5q-70 0 -114 -41.5t-44 -111.5q0 -67 43.5 -108.5t114.5 -41.5zM1305 43q87 0 136.5 47t49.5 129t-50 131t-136 49
t-136.5 -49t-50.5 -131t50.5 -129t136.5 -47z" />
    <glyph glyph-name="threeeighths" unicode="&#x215c;" horiz-adv-x="1744" 
d="M1227 1546h119l-848 -1620h-121zM352 578q-127 0 -204 65t-91 182l82 15l17 -6q9 -78 61 -124t131 -46q80 0 128 47t48 125q0 84 -50 128t-148 44h-31v73h27q93 0 142.5 42.5t49.5 119.5q0 65 -44.5 106.5t-115.5 41.5q-72 0 -120.5 -40.5t-61.5 -113.5l-16 -6l-80 12
q19 108 95 171t191 63q109 0 179.5 -62.5t70.5 -161.5q0 -77 -43 -133t-120 -76q81 -13 128.5 -71.5t47.5 -143.5q0 -110 -77.5 -180.5t-195.5 -70.5zM1378 -39q-133 0 -208.5 68.5t-75.5 183.5q0 84 46 142t132 83q-148 47 -148 201q0 98 70 159.5t184 61.5
q117 0 186.5 -61.5t69.5 -159.5q0 -150 -147 -201q86 -25 132 -83t46 -142q0 -115 -76 -183.5t-211 -68.5zM1378 479q73 0 115.5 41t42.5 109q0 70 -43.5 111.5t-114.5 41.5t-114 -41.5t-43 -111.5q0 -68 42.5 -109t114.5 -41zM1378 43q89 0 139 47t50 129t-51.5 131
t-137.5 49t-136 -49t-50 -131t50 -129t136 -47z" />
    <glyph glyph-name="fiveeighths" unicode="&#x215d;" horiz-adv-x="1744" 
d="M1223 1546h116l-847 -1620h-119zM336 575q-121 0 -196 61.5t-89 170.5l84 16l15 -10q11 -72 60 -111.5t128 -39.5q85 0 137.5 56.5t52.5 149.5q0 90 -53 143.5t-143 53.5q-113 0 -205 -68l-25 7l31 448h432v-86h-348l-16 -264q74 39 161 39q119 0 193 -74.5t74 -194.5
q0 -132 -80.5 -214.5t-212.5 -82.5zM1374 -39q-133 0 -208.5 68.5t-75.5 183.5q0 84 45 142t131 83q-71 23 -108.5 75t-37.5 126q0 98 69 159.5t185 61.5t185 -61.5t69 -159.5q0 -151 -145 -201q85 -25 130.5 -83.5t45.5 -141.5q0 -115 -75.5 -183.5t-209.5 -68.5zM1372 479
q73 0 115.5 41t42.5 109q0 70 -43 111.5t-115 41.5q-71 0 -114.5 -41.5t-43.5 -111.5q0 -68 43 -109t115 -41zM1374 43q88 0 137.5 47t49.5 129t-51 131t-136 49q-86 0 -136 -49t-50 -131t50 -129t136 -47z" />
    <glyph glyph-name="seveneighths" unicode="&#x215e;" horiz-adv-x="1744" 
d="M1128 1546h119l-848 -1620h-120zM172 606l358 758h-424v88h560v-16l-404 -856l-18 -5zM1286 -39q-134 0 -209.5 68.5t-75.5 183.5q0 83 46 141.5t131 83.5q-71 23 -108.5 75t-37.5 126q0 98 70 159.5t184 61.5q117 0 186.5 -61.5t69.5 -159.5q0 -150 -147 -201
q86 -25 132 -83t46 -142q0 -115 -76 -183.5t-211 -68.5zM1286 479q73 0 115.5 41t42.5 109q0 70 -43.5 111.5t-114.5 41.5t-114.5 -41.5t-43.5 -111.5q0 -68 43 -109t115 -41zM1286 43q88 0 138.5 47t50.5 129t-51.5 131t-137.5 49t-136 -49t-50 -131t50 -129t136 -47z" />
    <glyph glyph-name="arrowleft" unicode="&#x2190;" horiz-adv-x="1884" 
d="M874 111l-71 -72l-651 670l651 669l71 -71v-7l-399 -403q-24 -24 -71 -69t-68 -66l2 -2q63 2 219 2h1176v-105h-1176q-61 0 -219 5l-2 -5q86 -82 139 -135l399 -405v-6z" />
    <glyph glyph-name="arrowup" unicode="&#x2191;" horiz-adv-x="1724" 
d="M862 1489l670 -651l-72 -70h-6l-405 397q-75 74 -136 142l-4 -2q4 -132 4 -222v-1175h-104v1175q0 156 2 222l-2 2q-72 -79 -135 -142l-404 -397h-6l-71 70z" />
    <glyph glyph-name="arrowright" unicode="&#x2192;" horiz-adv-x="1884" 
d="M1733 709l-652 -670l-71 72v6l399 405q53 53 139 135l-2 5q-158 -5 -221 -5h-1173v105h1173q158 0 221 -2l2 2q-21 21 -68 66t-71 69l-399 403v7l71 71z" />
    <glyph glyph-name="arrowdown" unicode="&#x2193;" horiz-adv-x="1724" 
d="M1460 631l72 -72l-670 -651l-669 651l71 72h6l404 -398q74 -74 135 -141l2 2q-2 66 -2 221v1174h104v-1174q0 -89 -4 -221l4 -2q51 56 136 141l405 398h6z" />
    <glyph glyph-name="arrowboth" unicode="&#x2194;" horiz-adv-x="2689" 
d="M1817 1307l69 71l651 -669l-651 -670l-69 72v6l397 405q74 73 141 135l-2 5q-180 -5 -221 -5h-1575q-39 0 -219 5l-2 -5q86 -82 139 -135l399 -405v-6l-71 -72l-651 670l651 669l71 -71v-7l-399 -403q-24 -24 -71 -69t-68 -66l2 -2q72 2 219 2h1575q149 0 221 -2l2 2
q-135 129 -141 135l-397 403v7z" />
    <glyph glyph-name="arrowupdn" unicode="&#x2195;" horiz-adv-x="1724" 
d="M264 1182l-71 69l669 652l670 -652l-72 -69h-6l-405 397q-85 85 -136 141l-4 -2q4 -144 4 -221v-1575q0 -77 -4 -221l4 -2q51 56 136 141l405 400h6l72 -72l-670 -653l-669 653l71 72h6l404 -400q74 -74 135 -141l2 2q-2 72 -2 221v1575q0 149 2 221l-2 2
q-61 -68 -135 -141l-404 -397h-6z" />
    <glyph glyph-name="uni2196" unicode="&#x2196;" horiz-adv-x="1533" 
d="M313 324h-100l14 933l934 15v-103l-4 -4l-567 -4q-75 0 -197 4v-4q93 -85 158 -153l831 -830l-73 -74l-830 830q-78 78 -153 160h-4q4 -122 4 -197l-9 -569z" />
    <glyph glyph-name="uni2197" unicode="&#x2197;" horiz-adv-x="1533" 
d="M1307 1257l14 -933h-102l-5 4l-6 569q0 75 4 197h-4q-75 -82 -153 -160l-830 -830l-73 74l829 830q78 78 160 153v4q-126 -4 -197 -4l-567 4l-4 4v103z" />
    <glyph glyph-name="uni2198" unicode="&#x2198;" horiz-adv-x="1533" 
d="M1219 1051h102l-14 -934l-934 -13v101l4 4l567 4q37 1 197 -4v4q-71 65 -160 154l-829 829l73 76l830 -832q61 -58 153 -159l4 2q-4 118 -4 196l6 568z" />
    <glyph glyph-name="uni2199" unicode="&#x2199;" horiz-adv-x="1533" 
d="M227 117l-14 934h100l4 -4l9 -568q0 -78 -4 -196l4 -2q92 101 153 159l830 832l73 -76l-831 -829q-73 -76 -158 -154v-4q157 5 197 4l567 -4l4 -4v-101z" />
    <glyph glyph-name="partialdiff" unicode="&#x2202;" horiz-adv-x="1433" 
d="M702 1489q237 0 355.5 -228.5t118.5 -650.5q0 -326 -131.5 -487.5t-358.5 -161.5q-192 0 -310 129.5t-118 329.5q0 192 125.5 324.5t306.5 132.5q117 0 217 -62t164 -178q-14 756 -375 756q-89 0 -166.5 -48.5t-132.5 -134.5l-12 -2l-74 49q64 107 168 169.5t223 62.5z
M702 59q168 0 266 122t95 335q-61 130 -153.5 196t-198.5 66q-150 0 -246 -102t-96 -256q0 -158 90.5 -259.5t242.5 -101.5z" />
    <glyph glyph-name="emptyset" unicode="&#x2205;" horiz-adv-x="1433" 
d="M1217 1186l61 -62l-162 -161q111 -140 111 -330q0 -224 -144.5 -370t-365.5 -146q-193 0 -332 114l-168 -168l-61 60l170 170q-119 138 -119 340q0 223 144.5 367.5t365.5 144.5q197 0 340 -121zM301 633q0 -159 90 -273l598 598q-114 97 -272 97q-180 0 -298 -119
t-118 -303zM1133 633q0 151 -84 262l-596 -596q111 -90 264 -90q180 0 298 120t118 304z" />
    <glyph glyph-name="product" unicode="&#x220f;" horiz-adv-x="1394" 
d="M266 -446h-114v1789h-132v107h1354v-107h-131v-1789h-115v1789h-862v-1789z" />
    <glyph glyph-name="summation" unicode="&#x2211;" horiz-adv-x="1210" 
d="M1161 -446h-1104v100l676 858l-647 838v102h1053v-106h-920l647 -834l-678 -852h973v-106z" />
    <glyph glyph-name="minus" unicode="&#x2212;" horiz-adv-x="1433" 
d="M1247 580h-1061v88h1061v-88z" />
    <glyph glyph-name="uni2215" unicode="&#x2215;" horiz-adv-x="735" 
d="M682 1546h119l-746 -1620h-121z" />
    <glyph glyph-name="uni2219" unicode="&#x2219;" horiz-adv-x="894" 
d="M446 524q-41 0 -68.5 29t-27.5 72t27.5 71.5t68.5 28.5q42 0 70.5 -28.5t28.5 -71.5t-29 -72t-70 -29z" />
    <glyph glyph-name="radical" unicode="&#x221a;" horiz-adv-x="1069" 
d="M578 -29h-27l-352 824h-150v104h232l268 -637h6l360 1188h125z" />
    <glyph glyph-name="infinity" unicode="&#x221e;" horiz-adv-x="1425" 
d="M332 330q-119 0 -195 80t-76 206q0 127 76 209t193 82q83 0 170 -54.5t211 -182.5q123 128 211.5 182.5t171.5 54.5q117 0 191.5 -81.5t74.5 -209.5q0 -126 -75 -206t-193 -80q-80 0 -168 52t-213 175q-123 -123 -210.5 -175t-168.5 -52zM334 414q126 0 323 200
q-122 120 -193 164.5t-136 44.5q-77 0 -127.5 -58.5t-50.5 -148.5q0 -91 51 -146.5t133 -55.5zM1090 414q82 0 133 55.5t51 146.5q0 90 -50.5 148.5t-127.5 58.5q-65 0 -137 -44.5t-193 -164.5q200 -200 324 -200z" />
    <glyph glyph-name="integral" unicode="&#x222b;" horiz-adv-x="1433" 
d="M662 68v1069q0 210 59 299.5t192 89.5q72 0 136 -25v-102l-9 -6q-56 30 -122 30q-50 0 -80.5 -26t-48 -95.5t-17.5 -189.5v-1067q0 -211 -59 -301t-191 -90q-72 0 -137 24v103l8 6q57 -31 123 -31q75 0 110.5 68t35.5 244z" />
    <glyph glyph-name="approxequal" unicode="&#x2248;" horiz-adv-x="1433" 
d="M283 690l-13 -2l-63 45q129 199 285 199q57 0 109 -16.5t91 -39.5t76 -46t81 -39.5t89 -16.5q117 0 213 152l12 2l62 -43q-126 -199 -285 -199q-55 0 -106 16.5t-89.5 39.5t-75.5 46t-81.5 39.5t-91.5 16.5q-118 0 -213 -154zM283 317l-13 -2l-63 45q131 199 285 199
q57 0 109 -16.5t91 -40t76 -47t81 -40t89 -16.5q118 0 213 154l12 2l62 -45q-126 -199 -285 -199q-55 0 -105.5 16.5t-89 40t-75.5 47t-82 40t-92 16.5q-115 0 -213 -154z" />
    <glyph glyph-name="notequal" unicode="&#x2260;" horiz-adv-x="1433" 
d="M1247 860v-86h-416l-137 -303h553v-88h-592l-135 -301h-94l135 301h-375v88h414l137 303h-551v86h590l137 307h95l-138 -307h377z" />
    <glyph glyph-name="lessequal" unicode="&#x2264;" horiz-adv-x="1433" 
d="M203 770l1028 442v-90l-914 -391l914 -389v-92l-1028 444v76zM1231 0h-1028v88h1028v-88z" />
    <glyph glyph-name="greaterequal" unicode="&#x2265;" horiz-adv-x="1433" 
d="M203 1122v90l1028 -442v-76l-1028 -444v92l913 389zM1231 0h-1028v88h1028v-88z" />
    <glyph glyph-name="lozenge" unicode="&#x25ca;" horiz-adv-x="1433" 
d="M764 -39h-96l-340 764l340 764h96l340 -764zM434 725l281 -662l282 662l-282 661z" />
    <glyph glyph-name="fi" unicode="&#xfb01;" horiz-adv-x="1036" 
d="M600 1405l-12 -6q-60 26 -111 26q-79 0 -113.5 -59.5t-35.5 -206.5v-260h254v-92h-254v-807h-105v807h-178v92h178v252q0 202 58 288.5t190 86.5q69 0 137 -27zM805 1239q-34 0 -58 24t-24 60t24 61t58 25q35 0 59.5 -25.5t24.5 -60.5q0 -36 -24 -60t-60 -24zM858 0h-104
v899h104v-899z" />
    <glyph glyph-name="fl" unicode="&#xfb02;" horiz-adv-x="1046" 
d="M600 1405l-12 -6q-60 26 -111 26q-79 0 -113.5 -59.5t-35.5 -206.5v-260h254v-92h-254v-807h-105v807h-178v92h178v252q0 202 58 288.5t190 86.5q69 0 137 -27zM868 0h-104v1501h104v-1501z" />
    <glyph glyph-name="i.loclTRK" horiz-adv-x="462" 
d="M233 1143q-35 0 -59 23.5t-24 60.5t24 61.5t59 24.5q34 0 58 -25.5t24 -60.5q0 -36 -24 -60t-58 -24zM285 0h-105v899h105v-899z" />
    <glyph glyph-name="zero.osf" horiz-adv-x="1015" 
d="M508 -39q-183 0 -288 139.5t-105 376.5q0 235 105 374.5t288 139.5t288 -139.5t105 -374.5q0 -237 -105 -376.5t-288 -139.5zM508 63q131 0 205.5 109.5t74.5 306.5q0 194 -74.5 302t-205.5 108q-130 0 -205.5 -108.5t-75.5 -301.5q0 -196 75.5 -306t205.5 -110z" />
    <glyph glyph-name="one.osf" horiz-adv-x="667" 
d="M475 0h-106v662q0 114 2 163l-4 2q-20 -12 -54.5 -33.5t-44.5 -27.5l-192 -119l-13 6l11 117l375 217h26v-987z" />
    <glyph glyph-name="two.osf" horiz-adv-x="868" 
d="M817 0h-743v27l368 313q133 114 181.5 191.5t48.5 164.5q0 86 -56 141.5t-153 55.5q-114 0 -190.5 -67t-104.5 -193l-21 -15l-86 15q28 168 135 263t269 95q145 0 232 -81t87 -210q0 -103 -50 -190.5t-183 -206.5l-84 -67q-73 -66 -172 -138l2 -2q86 4 238 4h282v-100z
" />
    <glyph glyph-name="three.osf" horiz-adv-x="925" 
d="M459 -336q-166 0 -278 102.5t-132 278.5l86 12l23 -10q15 -128 98.5 -206.5t198.5 -78.5q122 0 198 76t76 197q0 128 -78.5 199t-222.5 71h-39v96h35q136 0 210.5 67t74.5 187q0 106 -68.5 172t-175.5 66t-180.5 -66.5t-96.5 -191.5l-22 -10l-86 12q22 163 128 258.5
t261 95.5q153 0 252.5 -91t99.5 -238q0 -118 -67.5 -203t-180.5 -107q119 -17 194 -104t75 -211q0 -160 -109.5 -266.5t-273.5 -106.5z" />
    <glyph glyph-name="four.osf" horiz-adv-x="919" 
d="M727 -328h-109v328h-636v35l694 948h51v-883h164v-100h-164v-328zM514 596l-354 -496h458v371q0 174 17 311h-4q-55 -96 -117 -186z" />
    <glyph glyph-name="five.osf" horiz-adv-x="862" 
d="M420 -336q-161 0 -269.5 97t-127.5 262l86 14l22 -12q13 -122 92.5 -192.5t200.5 -70.5q128 0 210.5 92.5t82.5 239.5q0 143 -78.5 229.5t-216.5 86.5q-75 0 -152 -27.5t-141 -77.5l-29 10l43 637h594v-100h-501l-29 -416q129 66 248 66q164 0 270 -113t106 -287
q0 -190 -115 -314t-296 -124z" />
    <glyph glyph-name="six.osf" horiz-adv-x="1038" 
d="M516 -37q-188 0 -300 116.5t-112 307.5q0 111 60.5 235t195.5 320l263 385l77 -47l5 -16l-173 -248q-193 -270 -225 -311l4 -3q49 44 114.5 68.5t131.5 24.5q164 0 273.5 -114.5t109.5 -287.5q0 -190 -118 -310t-306 -120zM526 57q129 0 217 93.5t88 228.5
q0 146 -85 234.5t-226 88.5q-136 0 -221.5 -90.5t-85.5 -232.5q0 -141 87.5 -231.5t225.5 -90.5z" />
    <glyph glyph-name="seven.osf" horiz-adv-x="837" 
d="M162 -301l502 1153h-650v100h795v-24l-551 -1260l-22 -4z" />
    <glyph glyph-name="eight.osf" horiz-adv-x="991" 
d="M496 -39q-190 0 -302 104.5t-112 272.5q0 128 71 219.5t201 126.5q-110 35 -166.5 113.5t-56.5 191.5q0 140 102 233t263 93t262.5 -93t101.5 -233q0 -113 -57 -191.5t-166 -113.5q130 -35 201 -126.5t71 -219.5q0 -167 -111.5 -272t-301.5 -105zM494 739
q121 0 188.5 65.5t67.5 178.5q0 108 -71.5 175t-184.5 67t-183.5 -67t-70.5 -175q0 -113 67.5 -178.5t186.5 -65.5zM496 59q138 0 220.5 79t82.5 208q0 131 -81.5 210t-221.5 79q-141 0 -222 -78.5t-81 -210.5q0 -129 83.5 -208t219.5 -79z" />
    <glyph glyph-name="nine.osf" horiz-adv-x="1046" 
d="M684 4l-231 -344l-80 47l-4 17l143 206q26 38 73.5 107t83 120t66.5 93l-4 2q-104 -90 -244 -90q-165 0 -274 113.5t-109 289.5q0 189 117.5 307.5t306.5 118.5q185 0 298.5 -116.5t113.5 -303.5q0 -114 -60 -241t-196 -326zM524 252q135 0 221 91.5t86 234.5
q0 139 -88 228t-225 89q-129 0 -217 -92.5t-88 -227.5q0 -146 85 -234.5t226 -88.5z" />
    <glyph glyph-name="zero.tf" horiz-adv-x="1433" 
d="M717 -39q-232 0 -366 204.5t-134 561.5q0 354 134 558t366 204t366 -204t134 -558q0 -357 -134 -561.5t-366 -204.5zM717 68q179 0 281 176t102 485q0 304 -102 478.5t-281 174.5q-177 0 -280 -175t-103 -480q0 -306 103 -482.5t280 -176.5z" />
    <glyph glyph-name="one.tf" horiz-adv-x="1433" 
d="M854 1477v-1373h274v-104h-692v104h303v1039q0 121 2 172l-4 2q-50 -35 -96 -60l-213 -122l-12 6l10 121l403 215h25z" />
    <glyph glyph-name="two.tf" horiz-adv-x="1433" 
d="M1151 0h-891v25l387 395q209 216 306.5 372t97.5 300q0 132 -82.5 212.5t-220.5 79.5q-148 0 -240 -83t-123 -242l-25 -15l-86 15q30 209 157.5 319.5t324.5 110.5q182 0 296.5 -108.5t114.5 -282.5q0 -152 -88 -311t-270 -347l-160 -166q-24 -25 -51 -52t-61.5 -61
t-55.5 -55l2 -2q82 2 236 2h432v-106z" />
    <glyph glyph-name="three.tf" horiz-adv-x="1433" 
d="M733 -39q-202 0 -329.5 110t-149.5 304l88 14l25 -12q17 -141 115.5 -226t246.5 -85q151 0 243.5 88t92.5 233q0 155 -96 237.5t-279 82.5h-51v98h47q173 0 264.5 79.5t91.5 225.5q0 121 -84 197.5t-221 76.5q-134 0 -223.5 -75t-114.5 -209l-24 -13l-88 13
q25 179 148.5 284t309.5 105q182 0 298 -103.5t116 -267.5q0 -136 -74 -233.5t-208 -130.5q139 -22 221 -121t82 -244q0 -187 -126.5 -307.5t-320.5 -120.5z" />
    <glyph glyph-name="four.tf" horiz-adv-x="1433" 
d="M1030 0h-112v334h-754v37l817 1106h49v-1037h172v-106h-172v-334zM807 1067l-461 -627h572v471q0 223 16 340h-4q-56 -96 -123 -184z" />
    <glyph glyph-name="five.tf" horiz-adv-x="1433" 
d="M719 -39q-195 0 -320 103.5t-145 283.5l90 17l25 -15q19 -135 112 -209.5t242 -74.5q160 0 259 107t99 280q0 163 -99.5 263.5t-262.5 100.5q-193 0 -344 -119l-29 11l47 741h701v-107h-600l-33 -503q137 73 293 73q198 0 321 -125.5t123 -326.5q0 -222 -133 -361
t-346 -139z" />
    <glyph glyph-name="six.tf" horiz-adv-x="1433" 
d="M709 -39q-210 0 -334.5 129t-124.5 350q0 121 54.5 236.5t187.5 304.5l358 516l88 -51l2 -19l-285 -401q-67 -90 -192 -244l4 -2q55 52 131 82.5t154 30.5q191 0 310.5 -126.5t119.5 -328.5q0 -215 -131 -346t-342 -131zM715 63q155 0 252.5 103t97.5 266
q0 164 -95 263.5t-249 99.5q-158 0 -256 -102t-98 -265t96.5 -264t251.5 -101z" />
    <glyph glyph-name="seven.tf" horiz-adv-x="1433" 
d="M440 -2l635 1345h-749v107h905v-25l-686 -1460l-25 -4z" />
    <glyph glyph-name="eight.tf" horiz-adv-x="1433" 
d="M717 -39q-218 0 -342.5 114t-124.5 308q0 147 79.5 249t225.5 142q-123 38 -187.5 126t-64.5 218q0 163 113.5 267t300.5 104t300 -104t113 -267q0 -129 -64 -216.5t-187 -127.5q146 -40 225.5 -142t79.5 -249q0 -194 -124 -308t-343 -114zM715 831q138 0 218.5 76
t80.5 205q0 127 -82.5 206t-216.5 79q-133 0 -215 -78.5t-82 -206.5q0 -129 80.5 -205t216.5 -76zM717 61q162 0 256 88.5t94 241.5q0 151 -94.5 240.5t-255.5 89.5t-255.5 -89.5t-94.5 -240.5q0 -153 94 -241.5t256 -88.5z" />
    <glyph glyph-name="nine.tf" horiz-adv-x="1433" 
d="M940 469l-352 -508l-88 51l-4 19l280 393q55 72 193 246l-4 2q-55 -54 -131 -84.5t-154 -30.5q-188 0 -309 126.5t-121 328.5q0 217 130 347t347 130q209 0 333 -128.5t124 -344.5q0 -71 -17 -138.5t-56 -141t-73.5 -126.5t-97.5 -141zM717 655q154 0 251 103t97 264
q0 164 -95.5 265.5t-248.5 101.5q-157 0 -255.5 -103t-98.5 -264q0 -167 95.5 -267t254.5 -100z" />
    <glyph glyph-name="zero.dnom" horiz-adv-x="761" 
d="M381 -39q-141 0 -223 120.5t-82 330.5q0 209 82 328.5t223 119.5t222 -119.5t81 -328.5q0 -211 -81 -331t-222 -120zM381 51q95 0 150 96.5t55 266.5q0 166 -55.5 261t-149.5 95q-96 0 -150.5 -95t-54.5 -263q0 -169 55 -265t150 -96z" />
    <glyph glyph-name="one.dnom" horiz-adv-x="761" 
d="M457 0h-99v631q0 52 7 110l-5 2q-14 -10 -61 -38l-119 -68l-8 4l6 96l252 133h27v-870z" />
    <glyph glyph-name="two.dnom" horiz-adv-x="761" 
d="M631 0h-549v18l242 252q116 123 165.5 199t49.5 149q0 69 -43.5 111.5t-118.5 42.5q-76 -2 -125 -47.5t-66 -132.5l-16 -6l-78 12q20 128 97 195t200 67q110 0 180 -65t70 -168q0 -88 -48 -171.5t-153 -193.5l-82 -86q-18 -20 -96 -90v-2q98 4 141 4h230v-88z" />
    <glyph glyph-name="three.dnom" horiz-adv-x="761" 
d="M377 -39q-127 0 -205 65.5t-90 182.5l82 14l16 -6q7 -78 59.5 -124t131.5 -46q82 0 130 47t48 125q0 83 -51 127.5t-148 44.5h-31v74h27q92 0 142.5 42.5t50.5 119.5q0 65 -45 106t-115 41q-74 0 -121.5 -40t-60.5 -113l-17 -7l-80 13q19 108 95 170.5t190 62.5
q111 0 181.5 -62t70.5 -161q0 -77 -43.5 -133t-120.5 -76q81 -13 128.5 -71.5t47.5 -143.5q0 -110 -77.5 -181t-194.5 -71z" />
    <glyph glyph-name="four.dnom" horiz-adv-x="761" 
d="M584 0h-97v188h-436v50l461 628h72v-590h100v-88h-100v-188zM424 606l-242 -330h307v244q0 124 11 197h-2q-46 -76 -74 -111z" />
    <glyph glyph-name="five.dnom" horiz-adv-x="761" 
d="M371 -39q-122 0 -197.5 61.5t-87.5 170.5l84 16l14 -10q9 -72 59 -112t130 -40q85 0 137.5 57t52.5 150q0 89 -53.5 143t-142.5 54q-113 0 -205 -68l-25 6l31 449h432v-86h-348l-16 -265q74 39 161 39q119 0 193 -74t74 -194q0 -132 -80.5 -214.5t-212.5 -82.5z" />
    <glyph glyph-name="six.dnom" horiz-adv-x="761" 
d="M365 -39q-131 0 -208 79t-77 212q0 72 34.5 143.5t118.5 188.5l203 286l74 -43l4 -12l-154 -213q-75 -97 -118 -143l2 -2q67 61 159 61q111 0 180.5 -73.5t69.5 -194.5q0 -130 -79.5 -209.5t-208.5 -79.5zM367 47q84 0 135 55.5t51 143.5q0 89 -49.5 141.5t-132.5 52.5
q-87 0 -140 -53.5t-53 -142.5q0 -88 53 -142.5t136 -54.5z" />
    <glyph glyph-name="seven.dnom" horiz-adv-x="761" 
d="M178 -8l359 758h-422v88h559v-17l-404 -856l-20 -4z" />
    <glyph glyph-name="eight.dnom" horiz-adv-x="761" 
d="M379 -39q-134 0 -209.5 68.5t-75.5 183.5q0 84 46 142t132 83q-73 23 -110 75t-37 126q0 98 70 159.5t184 61.5q117 0 186.5 -61.5t69.5 -159.5q0 -73 -37.5 -124.5t-108.5 -76.5q85 -25 131 -83.5t46 -141.5q0 -115 -76 -183.5t-211 -68.5zM379 479q73 0 115.5 41
t42.5 109q0 70 -43.5 111.5t-114.5 41.5t-114.5 -41.5t-43.5 -111.5q0 -68 43 -109t115 -41zM379 43q89 0 138.5 47t49.5 129t-51 131t-137 49q-85 0 -135.5 -49t-50.5 -131t50 -129t136 -47z" />
    <glyph glyph-name="nine.dnom" horiz-adv-x="761" 
d="M514 238l-205 -285l-73 43l-3 12l154 213q47 66 117 141l-2 3q-68 -62 -158 -62q-113 0 -183.5 74.5t-70.5 195.5q0 129 81 208t214 79q129 0 205 -78t76 -207q0 -81 -36 -153.5t-116 -183.5zM377 381q83 0 135.5 55.5t52.5 143.5t-50.5 141t-135.5 53t-137 -54t-52 -142
q0 -89 51 -143t136 -54z" />
    <glyph glyph-name="zero.numr" horiz-adv-x="761" 
d="M381 575q-141 0 -223 120.5t-82 330.5q0 209 82 329t223 120t222 -120t81 -329q0 -211 -81 -331t-222 -120zM381 666q96 0 150.5 96t54.5 266q0 166 -55.5 261t-149.5 95q-96 0 -150.5 -95t-54.5 -263t55 -264t150 -96z" />
    <glyph glyph-name="one.numr" horiz-adv-x="761" 
d="M457 614h-99v631q0 53 7 111l-5 2q-24 -17 -61 -39l-119 -68l-8 4l6 97l252 133h27v-871z" />
    <glyph glyph-name="two.numr" horiz-adv-x="761" 
d="M631 614h-549v19l242 252q116 123 165.5 199t49.5 149q0 69 -43.5 111t-118.5 42q-76 -2 -125 -47.5t-66 -132.5l-16 -6l-78 12q20 128 97.5 195.5t199.5 67.5q110 0 180 -65.5t70 -168.5q0 -88 -48 -171t-153 -193l-82 -86q-22 -25 -96 -91v-2q98 4 141 4h230v-88z" />
    <glyph glyph-name="three.numr" horiz-adv-x="761" 
d="M377 575q-127 0 -205 65.5t-90 182.5l82 15l16 -7q7 -77 59.5 -123t131.5 -46q82 0 130 47t48 125q0 83 -51 127.5t-148 44.5h-31v73h27q92 0 142.5 42.5t50.5 119.5q0 65 -45 106.5t-115 41.5q-73 0 -120.5 -40t-61.5 -114l-17 -6l-80 12q19 108 95.5 171t189.5 63
q111 0 181.5 -62.5t70.5 -161.5q0 -77 -43.5 -133t-120.5 -76q81 -13 128.5 -71.5t47.5 -143.5q0 -110 -77.5 -181t-194.5 -71z" />
    <glyph glyph-name="four.numr" horiz-adv-x="761" 
d="M584 614h-97v189h-436v49l461 629h72v-590h100v-88h-100v-189zM424 1221l-242 -330h307v244q0 123 11 196h-2q-43 -71 -74 -110z" />
    <glyph glyph-name="five.numr" horiz-adv-x="761" 
d="M371 575q-122 0 -197.5 61.5t-87.5 170.5l84 16l14 -10q9 -72 59 -111.5t130 -39.5q85 0 137.5 56.5t52.5 149.5q0 89 -53.5 143t-142.5 54q-113 0 -205 -68l-25 7l31 448h432v-86h-348l-16 -264q74 39 161 39q119 0 193 -74.5t74 -194.5q0 -132 -80.5 -214.5
t-212.5 -82.5z" />
    <glyph glyph-name="six.numr" horiz-adv-x="761" 
d="M365 575q-131 0 -208 79t-77 212q0 72 34.5 143.5t118.5 188.5l203 287l74 -43l4 -12l-154 -213q-80 -103 -118 -144l2 -2q68 62 159 62q111 0 180.5 -74t69.5 -195q0 -130 -79.5 -209.5t-208.5 -79.5zM367 662q84 0 135 55t51 143q0 89 -49.5 142t-132.5 53
q-87 0 -140 -54t-53 -143q0 -87 52.5 -141.5t136.5 -54.5z" />
    <glyph glyph-name="seven.numr" horiz-adv-x="761" 
d="M178 606l359 758h-422v88h559v-16l-404 -856l-20 -5z" />
    <glyph glyph-name="eight.numr" horiz-adv-x="761" 
d="M379 575q-134 0 -209.5 68.5t-75.5 183.5q0 84 46 142.5t132 83.5q-147 47 -147 200q0 98 70 160t184 62q117 0 186.5 -62t69.5 -160q0 -149 -146 -200q85 -25 131 -84t46 -142q0 -115 -76 -183.5t-211 -68.5zM379 1094q73 0 115.5 40.5t42.5 108.5q0 70 -43.5 112
t-114.5 42t-114.5 -42t-43.5 -112q0 -68 43 -108.5t115 -40.5zM379 657q89 0 138.5 47.5t49.5 129.5t-51 131t-137 49q-85 0 -135.5 -49t-50.5 -131t50 -129.5t136 -47.5z" />
    <glyph glyph-name="nine.numr" horiz-adv-x="761" 
d="M514 852l-205 -285l-73 43l-3 13l154 213q47 66 117 141l-2 2q-67 -61 -158 -61q-113 0 -183.5 74.5t-70.5 195.5q0 129 81 208t214 79q129 0 205 -78t76 -207q0 -81 -36.5 -154t-115.5 -184zM377 995q83 0 135.5 55.5t52.5 143.5t-51 141.5t-135 53.5q-85 0 -137 -54.5
t-52 -142.5q0 -89 51 -143t136 -54z" />
    <glyph glyph-name="exclamdown.case" horiz-adv-x="657" 
d="M330 1470q36 0 60 -25.5t24 -62.5t-24.5 -62.5t-59.5 -25.5q-37 0 -61.5 25.5t-24.5 62.5t24.5 62.5t61.5 25.5zM272 0l7 1057h102l4 -1057h-113z" />
    <glyph glyph-name="questiondown.case" horiz-adv-x="1050" 
d="M539 1470q37 0 61.5 -25.5t24.5 -62.5t-24.5 -62.5t-61.5 -25.5q-35 0 -60.5 25.5t-25.5 62.5t25.5 62.5t60.5 25.5zM496 1057h104v-117q2 -93 -35 -168t-119 -143q-110 -93 -146 -161t-36 -163q0 -107 71 -176.5t187 -69.5q121 0 198.5 64.5t100.5 185.5l23 8l88 -16
q-29 -158 -140.5 -249t-273.5 -91q-164 0 -265 94.5t-101 245.5q0 112 41 194.5t141 166.5q99 82 129.5 136.5t30.5 151.5z" />
    <glyph glyph-name="periodcentered.case" horiz-adv-x="524" 
d="M262 641q-36 0 -61 25t-25 63q0 36 25 61t61 25t61 -25t25 -61q0 -38 -25 -63t-61 -25z" />
    <glyph glyph-name="parenleft.case" horiz-adv-x="606" 
d="M467 -131l-86 -55q-134 185 -210.5 429.5t-76.5 489.5t76.5 490t210.5 430l86 -56q-124 -171 -196 -404t-72 -460t72 -460t196 -404z" />
    <glyph glyph-name="parenright.case" horiz-adv-x="643" 
d="M225 -186l-84 55q123 172 195 405t72 459t-72 459t-195 405l84 56q134 -185 210.5 -430t76.5 -490t-76.5 -489.5t-210.5 -429.5z" />
    <glyph glyph-name="braceleft.case" horiz-adv-x="647" 
d="M6 690v86h10q154 3 154 232v389q0 124 57.5 190t165.5 66h113v-90h-94q-138 0 -138 -191v-373q0 -116 -43.5 -184.5t-115.5 -79.5v-4q72 -11 115.5 -79.5t43.5 -184.5v-373q0 -190 138 -190h94v-90h-113q-108 0 -165.5 66t-57.5 190v389q0 228 -154 231h-10z" />
    <glyph glyph-name="braceright.case" horiz-adv-x="647" 
d="M631 776h10v-86h-10q-156 -3 -156 -231v-389q0 -125 -57 -190.5t-166 -65.5h-111v90h95q137 0 137 190v373q0 116 43.5 184.5t115.5 79.5v4q-72 11 -115.5 79.5t-43.5 184.5v373q0 191 -137 191h-95v90h111q109 0 166 -65.5t57 -190.5v-389q0 -112 39.5 -171t116.5 -61z
" />
    <glyph glyph-name="bracketleft.case" horiz-adv-x="614" 
d="M453 -186h-318v1839h318v-90h-213v-1659h213v-90z" />
    <glyph glyph-name="bracketright.case" horiz-adv-x="614" 
d="M477 1653v-1839h-317v90h213v1659h-213v90h317z" />
    <glyph glyph-name="hyphen.case" horiz-adv-x="645" 
d="M557 561h-467v96h467v-96z" />
    <glyph glyph-name="uni00AD.case" horiz-adv-x="645" 
d="M557 561h-467v96h467v-96z" />
    <glyph glyph-name="endash.case" horiz-adv-x="1024" 
d="M963 561h-902v96h902v-96z" />
    <glyph glyph-name="emdash.case" horiz-adv-x="1576" 
d="M1516 561h-1455v96h1455v-96z" />
    <glyph glyph-name="guillemotleft.case" horiz-adv-x="919" 
d="M434 266l-59 -41l-256 375l256 375l59 -41l2 -10l-213 -324l213 -324zM766 266l-57 -41l-256 375l256 375l57 -41l2 -10l-213 -324l213 -324z" />
    <glyph glyph-name="guillemotright.case" horiz-adv-x="919" 
d="M467 600l-256 -375l-59 41l-2 10l215 324l-215 324l2 10l59 41zM799 600l-254 -375l-60 41l-2 10l213 324l-213 324l2 10l60 41z" />
    <glyph glyph-name="guilsinglleft.case" horiz-adv-x="585" 
d="M438 266l-57 -41l-256 375l256 375l57 -41l2 -10l-213 -324l213 -324z" />
    <glyph glyph-name="guilsinglright.case" horiz-adv-x="585" 
d="M461 600l-254 -375l-60 41l-2 10l213 324l-213 324l2 10l60 41z" />
    <glyph glyph-name="uni2206" horiz-adv-x="1325" 
d="M623 1452h82l622 -1452h-1329zM532 989l-364 -883h989l-366 883q-19 44 -129 307h-5q-23 -57 -67.5 -166.5t-57.5 -140.5z" />
    <glyph glyph-name="at.case" horiz-adv-x="1783" 
d="M918 -117q-237 0 -419.5 100t-283 282.5t-100.5 420.5q0 168 61.5 317t168 255.5t255 168.5t315.5 62q217 0 389 -87t267.5 -243t95.5 -354q0 -229 -114 -377.5t-289 -148.5q-88 0 -137 50t-42 136q-45 -87 -121 -136.5t-157 -49.5q-136 0 -216.5 90.5t-80.5 244.5
q0 204 117.5 344t287.5 140q85 0 148.5 -44t89.5 -122l25 125h92l-84 -426q-19 -101 -19 -150q0 -114 115 -114q119 0 201 124t82 304q0 268 -180 434t-470 166q-147 0 -276.5 -54.5t-222 -149t-146 -227t-53.5 -282.5q0 -210 89.5 -371t251 -248t370.5 -86q120 1 212 21.5
t197 67.5l11 -3l38 -77q-187 -103 -468 -103zM819 367q78 0 146 56.5t107.5 151.5t39.5 205q0 105 -53.5 167.5t-147.5 62.5q-123 0 -210 -118.5t-87 -285.5q0 -109 55.5 -174t149.5 -65z" />
    <glyph glyph-name="caron.alt" horiz-adv-x="391" 
d="M322 1452l-170 -387l-76 29l137 389l14 6z" />
    <glyph glyph-name="uni0308.case" 
d="M-549 1690q-7 26 7 50.5t42 33.5q26 7 50 -7t32 -41q6 -30 -7 -53.5t-40 -30.5q-29 -9 -53.5 5t-30.5 43zM-197 1690q-7 26 6.5 50.5t40.5 33.5q27 7 51.5 -7t32.5 -41q6 -30 -7 -53.5t-42 -30.5q-28 -9 -52 5t-30 43z" />
    <glyph glyph-name="uni0307.case" 
d="M-143 1608q-36 0 -60 24t-24 60q0 37 24.5 61.5t59.5 24.5q34 0 58 -25.5t24 -60.5q0 -36 -24 -60t-58 -24z" />
    <glyph glyph-name="gravecomb.case" 
d="M-74 1565h-88l-229 264l6 10h117z" />
    <glyph glyph-name="acutecomb.case" 
d="M-293 1565h-88l193 274h114l6 -10z" />
    <glyph glyph-name="uni030B.case" 
d="M-532 1565h-91l191 274h117l6 -10zM-242 1565h-90l191 274h116l7 -10z" />
    <glyph glyph-name="uni0302.case" 
d="M-162 1565l-178 221l-180 -221h-84l-8 12l209 262h124l209 -262l-8 -12h-84z" />
    <glyph glyph-name="uni030C.case" 
d="M-281 1565h-125l-200 262l8 12h84l172 -221l170 221h84l6 -12z" />
    <glyph glyph-name="uni0306.case" 
d="M-346 1573q-128 0 -208 68.5t-95 189.5l12 10h78q37 -176 213 -176q178 0 215 176h78l10 -10q-13 -121 -93.5 -189.5t-209.5 -68.5z" />
    <glyph glyph-name="uni030A.case" 
d="M-258 1540q-82 0 -139.5 56t-57.5 139t57.5 138.5t139.5 55.5t139.5 -55.5t57.5 -138.5t-57.5 -139t-139.5 -56zM-258 1599q58 0 97.5 39.5t39.5 96.5t-39.5 97t-97.5 40t-97.5 -40t-39.5 -97t39.5 -96.5t97.5 -39.5z" />
    <glyph glyph-name="tildecomb.case" 
d="M-217 1602q62 0 106 53.5t54 142.5h-74l-10 -10q-20 -96 -78 -96q-34 0 -82 26.5t-99.5 53t-91.5 26.5q-61 0 -105 -53.5t-56 -142.5h75l11 8q20 98 78 98q28 0 63.5 -16.5t65 -36.5t69 -36.5t74.5 -16.5z" />
    <glyph glyph-name="uni0304.case" 
d="M-61 1647h-521v96h521v-96z" />
    <glyph glyph-name="brevecombcy" 
d="M-346 1108q-128 0 -208 68.5t-95 189.5l12 10h78q37 -178 213 -178q178 0 215 178h78l10 -10q-13 -121 -93.5 -189.5t-209.5 -68.5z" />
    <glyph glyph-name="brevecombcy.case" 
d="M-346 1573q-128 0 -208 68.5t-95 189.5l12 10h78q37 -176 213 -176q178 0 215 176h78l10 -10q-13 -121 -93.5 -189.5t-209.5 -68.5z" />
    </font>
</defs>
</svg>
