<?xml version="1.0" standalone="no"?>
<!DOCTYPE svg PUBLIC "-//W3C//DTD SVG 1.1//EN" "http://www.w3.org/Graphics/SVG/1.1/DTD/svg11.dtd" >
<svg xmlns="http://www.w3.org/2000/svg" xmlns:xlink="http://www.w3.org/1999/xlink" version="1.1">
<metadata>
Created by FontForge 20201107 at Thu Jul 11 23:01:28 2024
 By 
Copyright (c) 2020 by Botio Nikoltchev. All rights reserved.
</metadata>
<defs>
<font id="Quasimoda-BlackItalic" horiz-adv-x="0" >
  <font-face 
    font-family="Quasimoda Black"
    font-weight="850"
    font-style="italic"
    font-stretch="normal"
    units-per-em="2048"
    panose-1="0 0 9 0 0 0 0 0 0 0"
    ascent="1638"
    descent="-410"
    x-height="932"
    cap-height="1450"
    bbox="-1286 -629 2724 2341"
    underline-thickness="102"
    underline-position="-204"
    slope="-8"
    unicode-range="U+000D-FB02"
  />
<missing-glyph horiz-adv-x="1343" 
d="M205 1522h934v-1522h-934v1522zM1020 109v1304h-696v-1304h696zM500 995l-21 -8l-78 17q19 104 91.5 164.5t179.5 60.5q113 0 183.5 -64t70.5 -166q0 -75 -27.5 -128t-95.5 -109q-61 -51 -79 -83t-19 -91l-3 -68h-96l-2 70q-2 65 23.5 115.5t83.5 101.5q66 56 87 94.5
t21 93.5q0 63 -41.5 103.5t-109.5 40.5q-66 0 -110.5 -37.5t-57.5 -106.5zM662 252q-32 0 -55 22t-23 54q0 33 22.5 55.5t55.5 22.5q31 0 53 -22.5t22 -55.5q0 -32 -22 -54t-53 -22z" />
    <glyph glyph-name="f_i" unicode="fi" horiz-adv-x="1386" 
d="M809 1190l-21 -8q-34 18 -73 18q-45 0 -71 -32.5t-36 -104.5l-18 -131h170l-43 -295h-168l-152 -1083h-399l152 1083h-158l41 295h157l19 129q35 247 138.5 356t299.5 109q118 0 219 -33zM1135 1077q-100 0 -164 57t-64 146q0 90 63 145.5t165 55.5q101 0 163 -55.5
t62 -145.5q0 -89 -62.5 -146t-162.5 -57zM1155 0h-399l131 932h399z" />
    <glyph glyph-name="f_l" unicode="fl" horiz-adv-x="1396" 
d="M809 1190l-21 -8q-34 18 -73 18q-45 0 -71 -32.5t-36 -104.5l-18 -131h170l-43 -295h-168l-152 -1083h-399l152 1083h-158l41 295h157l19 129q35 247 138.5 356t299.5 109q118 0 219 -33zM1165 0h-399l211 1501h399z" />
    <glyph glyph-name=".notdef" horiz-adv-x="1343" 
d="M205 1522h934v-1522h-934v1522zM1020 109v1304h-696v-1304h696zM500 995l-21 -8l-78 17q19 104 91.5 164.5t179.5 60.5q113 0 183.5 -64t70.5 -166q0 -75 -27.5 -128t-95.5 -109q-61 -51 -79 -83t-19 -91l-3 -68h-96l-2 70q-2 65 23.5 115.5t83.5 101.5q66 56 87 94.5
t21 93.5q0 63 -41.5 103.5t-109.5 40.5q-66 0 -110.5 -37.5t-57.5 -106.5zM662 252q-32 0 -55 22t-23 54q0 33 22.5 55.5t55.5 22.5q31 0 53 -22.5t22 -55.5q0 -32 -22 -54t-53 -22z" />
    <glyph glyph-name=".null" 
 />
    <glyph glyph-name="nonmarkingreturn" horiz-adv-x="682" 
 />
    <glyph glyph-name="NULL" 
 />
    <glyph glyph-name="NULL" 
 />
    <glyph glyph-name="CR" unicode="&#xd;" horiz-adv-x="548" 
 />
    <glyph glyph-name="space" unicode=" " horiz-adv-x="548" 
 />
    <glyph glyph-name="exclam" unicode="!" horiz-adv-x="747" 
d="M518 520h-379l109 930h420zM281 -25q-100 0 -163 63t-63 155q0 93 64.5 157t161.5 64q100 0 164.5 -63.5t64.5 -157.5q0 -92 -64.5 -155t-164.5 -63z" />
    <glyph glyph-name="quotedbl" unicode="&#x22;" horiz-adv-x="1026" 
d="M451 844h-308l84 606h308zM891 844h-307l84 606h307z" />
    <glyph glyph-name="numbersign" unicode="#" horiz-adv-x="1366" 
d="M1327 1100l-35 -254h-200l-70 -242h215l-35 -254h-252l-98 -350h-272l98 350h-244l-98 -350h-273l99 350h-166l35 254h202l70 242h-217l35 254h254l98 350h272l-98 -350h244l98 350h273l-99 -350h164zM506 604h244l69 242h-244z" />
    <glyph glyph-name="dollar" unicode="$" horiz-adv-x="1433" 
d="M887 885q181 -86 256.5 -179t75.5 -219q0 -199 -137 -340.5t-365 -175.5l-21 -151h-245l20 149q-299 41 -428 291l317 201l37 -10q74 -142 224 -142q72 0 116.5 31.5t44.5 79.5q0 38 -44.5 69.5t-186.5 98.5q-183 86 -259.5 179t-76.5 228q0 191 126 323t343 163l21 151
h245l-20 -153q133 -20 235.5 -89t161.5 -180l-311 -200l-37 8q-69 123 -215 123q-56 0 -86.5 -23.5t-30.5 -64.5q0 -22 13.5 -38.5t66 -47.5t160.5 -82z" />
    <glyph glyph-name="percent" unicode="%" horiz-adv-x="2007" 
d="M492 700q-152 0 -251.5 95t-99.5 241q0 118 61 220.5t164.5 162.5t223.5 60q149 0 247.5 -94.5t98.5 -239.5q0 -118 -60.5 -221t-163 -163.5t-220.5 -60.5zM590 0h-260l1052 1450h260zM520 948q66 0 113 48t47 116q0 54 -33 87.5t-86 33.5q-66 0 -114 -48.5t-48 -115.5
q0 -54 33.5 -87.5t87.5 -33.5zM1386 -31q-152 0 -251 95t-99 241q0 118 61 220.5t164.5 162.5t223.5 60q149 0 248.5 -95.5t99.5 -240.5q0 -117 -61 -219.5t-164 -163t-222 -60.5zM1415 217q66 0 113 48t47 116q0 54 -33 87.5t-86 33.5q-66 0 -114 -49t-48 -115
q0 -52 34 -86.5t87 -34.5z" />
    <glyph glyph-name="ampersand" unicode="&#x26;" horiz-adv-x="1638" 
d="M1171 784h381q-122 -307 -284 -489l266 -295h-483l-66 76q-210 -115 -475 -115q-223 0 -357.5 107t-134.5 282q0 145 88 260t238 185q-113 110 -113 264q0 189 153.5 309.5t389.5 120.5q196 0 311 -87.5t115 -232.5q0 -274 -326 -436l160 -180q65 92 117 217zM741 1214
q-57 0 -96 -39t-39 -96q0 -74 80 -145q154 64 154 186q0 43 -27.5 68.5t-71.5 25.5zM590 281q90 0 172 45l-219 252q-119 -58 -119 -166q0 -60 46 -95.5t120 -35.5z" />
    <glyph glyph-name="quotesingle" unicode="'" horiz-adv-x="587" 
d="M449 844h-308l84 606h307z" />
    <glyph glyph-name="parenleft" unicode="(" horiz-adv-x="743" 
d="M543 -252l-277 -117q-115 189 -163 429.5t-19 488.5q29 265 148.5 529.5t302.5 471.5l245 -120q-335 -395 -391 -881q-49 -443 154 -801z" />
    <glyph glyph-name="parenright" unicode=")" horiz-adv-x="743" 
d="M225 1440l277 116q115 -189 163 -429t19 -488q-29 -265 -148.5 -529.5t-302.5 -471.5l-245 120q335 395 391 881q49 443 -154 801z" />
    <glyph glyph-name="asterisk" unicode="*" horiz-adv-x="1001" 
d="M821 698l-162 -84l-47 13l-116 245l-183 -200l-47 -2l-131 129l2 43l182 166l-225 94l-14 43l84 166l43 12l223 -125l25 238l32 22l185 -26l26 -33l-47 -232l250 54l39 -23l33 -184l-25 -35l-246 -27l127 -211z" />
    <glyph glyph-name="plus" unicode="+" horiz-adv-x="1433" 
d="M817 752h408v-258h-408v-406h-256v406h-407v258h407v405h256v-405z" />
    <glyph glyph-name="comma" unicode="," horiz-adv-x="667" 
d="M516 274l-399 -620l-246 96l305 631l31 16z" />
    <glyph glyph-name="hyphen" unicode="-" horiz-adv-x="655" 
d="M479 334h-467l31 227h467z" />
    <glyph glyph-name="period" unicode="." horiz-adv-x="653" 
d="M233 -25q-98 0 -161.5 63t-63.5 155q0 93 64 157t161 64q101 0 166.5 -63.5t65.5 -157.5q0 -92 -65.5 -155t-166.5 -63z" />
    <glyph glyph-name="slash" unicode="/" horiz-adv-x="931" 
d="M678 1450h342l-776 -1448h-344z" />
    <glyph glyph-name="zero" unicode="0" horiz-adv-x="1390" 
d="M582 -39q-248 0 -383.5 155t-135.5 433q0 191 50.5 362t141 299.5t226 203.5t297.5 75q248 0 382 -153.5t134 -430.5q0 -192 -49.5 -363.5t-139.5 -300.5t-225.5 -204.5t-297.5 -75.5zM623 348q57 0 103.5 51.5t74.5 133t42.5 174t14.5 182.5q0 213 -121 213
q-57 0 -104.5 -51t-75.5 -131.5t-43.5 -172t-15.5 -180.5q0 -219 125 -219z" />
    <glyph glyph-name="one" unicode="1" horiz-adv-x="882" 
d="M627 0h-422l96 698q19 136 80 293l-6 4q-64 -51 -170 -106l-152 -78l-33 14l89 404l587 258h138z" />
    <glyph glyph-name="two" unicode="2" horiz-adv-x="1224" 
d="M1040 0h-1157l6 47l635 623q122 116 174 195t52 147q0 44 -26.5 69t-72.5 25q-136 0 -194 -186l-41 -17l-371 55q92 269 262.5 400t429.5 131q207 0 332 -106t125 -281q0 -164 -87 -324t-253 -295l-51 -43q-49 -40 -162 -110l-2 -6q145 34 264 34h187z" />
    <glyph glyph-name="three" unicode="3" horiz-adv-x="1249" 
d="M543 -39q-281 0 -421 118t-138 353l403 66l35 -21q0 -162 133 -162q69 0 114.5 52.5t45.5 130.5q0 57 -39 86.5t-111 29.5h-49l37 263h29q92 0 144 45t52 125q0 44 -26.5 68t-73.5 24q-57 0 -101.5 -35t-66.5 -96l-41 -19l-358 72q85 210 251 319t400 109
q209 0 327.5 -91t118.5 -251q0 -132 -78 -237.5t-210 -151.5q105 -28 164 -107t59 -194q0 -139 -78 -253t-215.5 -178.5t-306.5 -64.5z" />
    <glyph glyph-name="four" unicode="4" horiz-adv-x="1302" 
d="M993 0h-413l36 266h-682l41 293l738 897h485l-117 -840h160l-51 -350h-160zM598 846l-195 -230h273l18 142q21 144 72 323h-6q-61 -109 -162 -235z" />
    <glyph glyph-name="five" unicode="5" horiz-adv-x="1243" 
d="M516 -39q-545 0 -551 430l406 80l35 -18q3 -72 35.5 -105t101.5 -33q77 0 126.5 58t49.5 147q0 74 -45 112t-133 38q-212 0 -389 -109l-78 29l180 860h911l-47 -344h-553l-35 -168q108 27 201 27q195 0 308.5 -105t113.5 -285q0 -177 -82 -317t-227.5 -218.5
t-327.5 -78.5z" />
    <glyph glyph-name="six" unicode="6" horiz-adv-x="1318" 
d="M551 -39q-249 0 -392 126t-143 343q0 182 100 358t341 420l346 355l287 -187l8 -45l-176 -180q-124 -124 -269 -209l4 -4q120 49 215 49q163 0 256 -102.5t93 -282.5q0 -136 -51 -255.5t-139.5 -204t-213 -133t-266.5 -48.5zM594 338q83 0 137.5 60.5t54.5 154.5
q0 65 -36.5 102t-100.5 37q-84 0 -139 -60t-55 -151q0 -66 37.5 -104.5t101.5 -38.5z" />
    <glyph glyph-name="seven" unicode="7" horiz-adv-x="1167" 
d="M63 86l607 995h-564l52 369h1192l-7 -43l-878 -1421l-70 -25z" />
    <glyph glyph-name="eight" unicode="8" horiz-adv-x="1236" 
d="M496 -37q-251 0 -388 101t-137 276q0 153 89 263.5t245 160.5q-184 72 -184 266q0 197 162.5 328t425.5 131q223 0 350 -94.5t127 -249.5q0 -129 -73 -229.5t-202 -151.5q116 -41 175 -117.5t59 -183.5q0 -154 -88.5 -269t-234.5 -173t-326 -58zM627 895q59 0 97 45.5
t38 120.5q0 49 -27 76.5t-73 27.5q-64 0 -101 -47.5t-37 -113.5q0 -52 28 -80.5t75 -28.5zM543 281q74 0 124 55t50 145q0 64 -35 99.5t-96 35.5q-75 0 -125.5 -55.5t-50.5 -144.5q0 -62 36 -98.5t97 -36.5z" />
    <glyph glyph-name="nine" unicode="9" horiz-adv-x="1329" 
d="M850 242l-348 -355l-289 189l-8 47l174 176q77 76 136.5 123t131.5 84l-4 8q-121 -51 -211 -51q-162 0 -255 101t-93 278q0 287 191 467t497 180q243 0 382.5 -125t139.5 -342q0 -182 -99 -356t-345 -424zM659 758q84 0 138.5 59.5t54.5 151.5q0 66 -38 104.5t-101 38.5
q-84 0 -138.5 -60t-54.5 -153q0 -67 36.5 -104t102.5 -37z" />
    <glyph glyph-name="colon" unicode=":" horiz-adv-x="727" 
d="M360 604q-98 0 -160.5 63.5t-62.5 155.5q0 90 62.5 149.5t160.5 59.5q96 0 159 -59.5t63 -149.5q0 -92 -62.5 -155.5t-159.5 -63.5zM270 -25q-97 0 -159 64t-62 156q0 90 62.5 150.5t158.5 60.5t159 -60.5t63 -150.5q0 -92 -62 -156t-160 -64z" />
    <glyph glyph-name="semicolon" unicode=";" horiz-adv-x="788" 
d="M467 604q-97 0 -159 63.5t-62 155.5q0 90 62.5 149.5t158.5 59.5q98 0 160.5 -59.5t62.5 -149.5q0 -92 -62.5 -155.5t-160.5 -63.5zM567 274l-399 -620l-244 96l305 631l29 16z" />
    <glyph glyph-name="less" unicode="&#x3c;" horiz-adv-x="1433" 
d="M158 743l1065 441v-287l-682 -272l682 -275v-284l-1065 438v239z" />
    <glyph glyph-name="equal" unicode="=" horiz-adv-x="1433" 
d="M1264 700h-1131v256h1131v-256zM1264 291h-1131v258h1131v-258z" />
    <glyph glyph-name="greater" unicode="&#x3e;" horiz-adv-x="1433" 
d="M184 897v287l1065 -441v-239l-1065 -438v284l682 275z" />
    <glyph glyph-name="question" unicode="?" horiz-adv-x="1196" 
d="M737 520h-379l7 55q10 97 64 169t175 155q77 52 108 89.5t31 80.5q0 40 -26 63t-70 23q-65 0 -110.5 -40.5t-67.5 -115.5l-37 -16l-342 49q55 215 219.5 337t399.5 122q207 0 330.5 -95.5t123.5 -254.5q0 -142 -75 -250t-236 -201q-54 -34 -78.5 -64t-30.5 -71zM510 -25
q-100 0 -162.5 62.5t-62.5 155.5t64 157t161 64q100 0 164.5 -63.5t64.5 -157.5q0 -92 -64.5 -155t-164.5 -63z" />
    <glyph glyph-name="at" unicode="@" horiz-adv-x="1816" 
d="M895 -358q-258 0 -456.5 102t-307 289t-108.5 430q0 182 67 340.5t183.5 271.5t281 177.5t352.5 64.5q231 0 410 -90t278 -253.5t99 -375.5q0 -232 -132 -376t-343 -144q-87 0 -146 33.5t-76 93.5q-34 -57 -100.5 -92t-140.5 -35q-130 0 -211.5 97t-81.5 251
q0 197 112 330t277 133q66 0 120.5 -31t74.5 -82l12 60h244l-52 -250q-37 -194 -37 -215q0 -70 76 -70q63 0 108.5 80.5t45.5 196.5q0 247 -140 382.5t-395 135.5q-283 0 -456.5 -173t-173.5 -454q0 -279 173.5 -442.5t467.5 -163.5q196 0 370 86l21 -6l84 -195
q-199 -106 -500 -106zM829 301q62 0 107 70t45 166q0 135 -100 135q-60 0 -105 -72.5t-45 -169.5q0 -60 26 -94.5t72 -34.5z" />
    <glyph glyph-name="A" unicode="A" horiz-adv-x="1552" 
d="M1442 0h-481l-37 225h-461l-98 -225h-494l745 1450h496zM690 745l-92 -213h279l-35 213q-25 167 -25 334h-10q-45 -164 -117 -334z" />
    <glyph glyph-name="B" unicode="B" horiz-adv-x="1312" 
d="M549 0h-537l205 1450h506q244 0 369 -82t125 -242q0 -130 -78 -229.5t-209 -136.5v-4q127 -32 194.5 -108t67.5 -185q0 -222 -167 -342.5t-476 -120.5zM586 1141l-37 -254h88q88 0 135 39.5t47 111.5q0 103 -151 103h-82zM510 608l-39 -289h98q216 0 228 158
q9 131 -179 131h-108z" />
    <glyph glyph-name="C" unicode="C" horiz-adv-x="1576" 
d="M731 -39q-192 0 -345 80t-240 227.5t-87 337.5q0 182 70 346t187.5 281.5t278.5 186.5t337 69q212 0 370.5 -91.5t233.5 -267.5l-346 -190l-37 6q-75 152 -242 152q-165 0 -279 -131t-114 -310q0 -137 80.5 -221t206.5 -84q166 0 289 152l36 6l293 -193
q-124 -175 -306 -265.5t-386 -90.5z" />
    <glyph glyph-name="D" unicode="D" horiz-adv-x="1529" 
d="M508 0h-496l203 1450h492q342 0 536.5 -160.5t196.5 -443.5q0 -185 -67 -342t-187.5 -268t-295 -173.5t-382.5 -62.5zM575 1083l-100 -716h74q224 0 343.5 114t117.5 324q-2 137 -91 207.5t-262 70.5h-82z" />
    <glyph glyph-name="E" unicode="E" horiz-adv-x="1200" 
d="M12 0l205 1450h913l3 -348h-553l-29 -203h485l-45 -330h-487l-31 -221h553l-86 -348h-928z" />
    <glyph glyph-name="F" unicode="F" horiz-adv-x="1153" 
d="M12 0l205 1450h891l2 -348h-530l-33 -236h465l-45 -329h-465l-76 -537h-414z" />
    <glyph glyph-name="G" unicode="G" horiz-adv-x="1650" 
d="M653 -39q-267 0 -431.5 175t-164.5 460q0 183 69 349t186.5 285t279.5 189t342 70q225 0 383 -90.5t233 -263.5l-348 -191l-35 8q-77 146 -252 146q-170 0 -285.5 -130.5t-115.5 -318.5q0 -144 78.5 -229.5t206.5 -85.5q107 0 187 46t112 128v2h-258l43 305h647
l-115 -815h-373l5 35q8 68 59 162l-4 2q-157 -238 -449 -238z" />
    <glyph glyph-name="H" unicode="H" horiz-adv-x="1527" 
d="M426 0h-414l205 1450h414l-78 -539h430l78 539h414l-205 -1450h-414l78 547h-432z" />
    <glyph glyph-name="I" unicode="I" horiz-adv-x="681" 
d="M12 0l205 1450h414l-205 -1450h-414z" />
    <glyph glyph-name="J" unicode="J" horiz-adv-x="1138" 
d="M295 442l37 -10q9 -96 94 -96q53 0 84.5 43t46.5 147l131 924h414l-131 -928q-38 -278 -184.5 -419.5t-387.5 -141.5q-187 0 -311 98.5t-145 253.5z" />
    <glyph glyph-name="K" unicode="K" horiz-adv-x="1505" 
d="M1059 1450h508l-600 -590l438 -860h-469l-272 559l-185 -178l-53 -381h-414l205 1450h414l-76 -539z" />
    <glyph glyph-name="L" unicode="L" horiz-adv-x="1187" 
d="M12 0l205 1450h414l-152 -1075h602l-100 -375h-969z" />
    <glyph glyph-name="M" unicode="M" horiz-adv-x="1898" 
d="M709 1450l219 -670h4l405 670h508l-205 -1450h-403l137 928h-4l-508 -803h-37l-282 803h-4l-123 -928h-404l205 1450h492z" />
    <glyph glyph-name="N" unicode="N" horiz-adv-x="1607" 
d="M424 0h-412l203 1450h424l250 -467q57 -105 164 -324h4q0 182 24 363l62 428h413l-204 -1456h-381l-297 502q-77 132 -164 321h-4q5 -184 -19 -364z" />
    <glyph glyph-name="O" unicode="O" horiz-adv-x="1746" 
d="M758 -39q-204 0 -363.5 82t-248.5 231.5t-89 341.5q0 179 71 340.5t191.5 278t287 185.5t349.5 69q314 0 506.5 -179t192.5 -472q0 -178 -71.5 -340.5t-192 -280t-286.5 -187t-347 -69.5zM803 346q166 0 288.5 132.5t122.5 314.5q0 139 -83.5 226t-217.5 87
q-169 0 -291 -130.5t-122 -313.5q0 -139 85.5 -227.5t217.5 -88.5z" />
    <glyph glyph-name="P" unicode="P" horiz-adv-x="1312" 
d="M432 0h-420l203 1450h518q543 0 543 -406q0 -265 -161 -417t-445 -152h-172zM592 1120l-47 -323h106q104 0 160.5 50t56.5 144q0 129 -170 129h-106z" />
    <glyph glyph-name="Q" unicode="Q" horiz-adv-x="1744" 
d="M1206 145l-2 -14q139 -29 287 -51l25 -39l-146 -299q-350 75 -706 223q-272 29 -439.5 206.5t-167.5 444.5q0 179 71 340.5t191.5 278t287 185.5t349.5 69q314 0 506.5 -179t192.5 -472q0 -226 -117.5 -404.5t-331.5 -288.5zM500 662q0 -139 85.5 -227.5t217.5 -88.5
q166 0 288.5 132.5t122.5 314.5q0 139 -83.5 226t-217.5 87q-169 0 -291 -130.5t-122 -313.5z" />
    <glyph glyph-name="R" unicode="R" horiz-adv-x="1392" 
d="M987 573l303 -536l-20 -37h-420l-258 506h-90l-70 -506h-420l203 1450h543q530 0 530 -401q0 -168 -78 -291t-223 -185zM711 1120h-119l-45 -307h119q105 0 161 45.5t56 136.5q0 125 -172 125z" />
    <glyph glyph-name="S" unicode="S" horiz-adv-x="1232" 
d="M485 -39q-190 0 -329 76t-215 223l317 201l37 -10q71 -142 223 -142q71 0 115.5 31.5t44.5 79.5q0 38 -44 69.5t-185 98.5q-184 86 -260 178.5t-76 228.5q0 217 160.5 355.5t426.5 138.5q180 0 315.5 -71t209.5 -208l-314 -200l-34 8q-69 123 -215 123q-57 0 -88 -23.5
t-31 -64.5q0 -22 13 -38.5t65.5 -47.5t160.5 -82q181 -86 257.5 -179.5t76.5 -218.5q0 -149 -78.5 -268.5t-223 -188.5t-329.5 -69z" />
    <glyph glyph-name="T" unicode="T" horiz-adv-x="1327" 
d="M330 0l151 1075h-432l53 375h1287l-54 -375h-434l-151 -1075h-420z" />
    <glyph glyph-name="U" unicode="U" horiz-adv-x="1531" 
d="M662 -39q-343 0 -478 172.5t-84 530.5l111 786h414l-109 -778q-26 -180 14.5 -253t163.5 -73q124 0 187.5 74t91.5 256l106 774h414l-113 -815q-46 -329 -227 -501.5t-491 -172.5z" />
    <glyph glyph-name="V" unicode="V" horiz-adv-x="1544" 
d="M887 -6h-475l-328 1456h483l107 -723q2 -16 7 -62.5t8.5 -77.5t6.5 -80.5t4 -94.5h11q37 135 112 313l307 725h496z" />
    <glyph glyph-name="W" unicode="W" horiz-adv-x="2082" 
d="M713 -6h-387l-230 1456h457l45 -662q11 -136 6 -296h6q49 159 105 299l260 657h293l73 -657q17 -163 19 -299h6q26 107 90 296l234 662h460l-639 -1456h-387l-65 557q-17 156 -25 250h-4q-83 -220 -96 -250z" />
    <glyph glyph-name="X" unicode="X" horiz-adv-x="1529" 
d="M371 0h-508l604 758l-373 692h506l180 -416l291 416h504l-563 -690l409 -760h-510l-211 465z" />
    <glyph glyph-name="Y" unicode="Y" horiz-adv-x="1429" 
d="M799 0h-414l80 569l-391 881h493l76 -268q43 -156 66 -283h6q93 186 147 283l152 268h506l-641 -881z" />
    <glyph glyph-name="Z" unicode="Z" horiz-adv-x="1476" 
d="M-86 41l844 1040h-645l51 369h1358l-6 -41l-850 -1032h665l-53 -377h-1370z" />
    <glyph glyph-name="bracketleft" unicode="[" horiz-adv-x="712" 
d="M461 -330h-486l258 1839h486l-35 -247h-186l-189 -1344h187z" />
    <glyph glyph-name="backslash" unicode="\" horiz-adv-x="1134" 
d="M657 2l-571 1448h334l573 -1448h-336z" />
    <glyph glyph-name="bracketright" unicode="]" horiz-adv-x="710" 
d="M489 -330h-483l35 248h184l189 1344h-185l35 247h484z" />
    <glyph glyph-name="asciicircum" unicode="^" horiz-adv-x="1464" 
d="M500 559h-394l457 891h340l455 -891h-393l-232 557z" />
    <glyph glyph-name="underscore" unicode="_" horiz-adv-x="1024" 
d="M928 -150l-27 -188h-1024l27 188h1024z" />
    <glyph glyph-name="grave" unicode="`" horiz-adv-x="778" 
d="M805 1094h-295l-311 358l12 18h348z" />
    <glyph glyph-name="a" unicode="a" horiz-adv-x="1257" 
d="M315 -39q-144 0 -227.5 105t-83.5 296q0 116 33.5 226t93 195t147 136.5t187.5 51.5q93 0 168 -47t117 -136l20 144h387l-131 -932h-395l4 31q6 43 22 106q-63 -85 -154 -130.5t-188 -45.5zM514 285q76 0 132 60.5t56 154.5q0 66 -35.5 106.5t-93.5 40.5q-74 0 -126 -63
t-52 -162q0 -64 32.5 -100.5t86.5 -36.5z" />
    <glyph glyph-name="b" unicode="b" horiz-adv-x="1243" 
d="M674 -39q-93 0 -169.5 47t-115.5 131l-18 -139h-387l211 1501h399l-59 -414q-18 -144 -52 -296q70 87 160 133.5t186 46.5q143 0 227.5 -106t84.5 -290q0 -168 -62.5 -309.5t-170 -223t-234.5 -81.5zM569 285q76 0 127.5 63t51.5 158q0 65 -33.5 103t-91.5 38
q-77 0 -131 -63t-54 -156q0 -64 36 -103.5t95 -39.5z" />
    <glyph glyph-name="c" unicode="c" horiz-adv-x="1116" 
d="M465 -39q-212 0 -335.5 116t-123.5 314q0 158 76.5 291t211 211t296.5 78q164 0 278.5 -66t171.5 -196l-321 -160l-19 2q-24 54 -55 77t-74 23q-76 0 -127 -64.5t-51 -160.5q0 -67 34 -106t89 -39q91 0 164 102l20 2l275 -164q-93 -128 -223.5 -194t-286.5 -66z" />
    <glyph glyph-name="d" unicode="d" horiz-adv-x="1255" 
d="M313 -39q-144 0 -226.5 105t-82.5 296q0 156 55.5 294t162.5 226.5t241 88.5q92 0 167.5 -46.5t117.5 -133.5q2 92 28 296l60 414h399l-211 -1501h-387l20 139q-65 -86 -156 -132t-188 -46zM514 285q74 0 130 61t56 154q0 66 -35 106.5t-92 40.5q-75 0 -126.5 -63.5
t-51.5 -161.5q0 -64 31.5 -100.5t87.5 -36.5z" />
    <glyph glyph-name="e" unicode="e" horiz-adv-x="1198" 
d="M1067 406h-668v-5q-10 -87 26.5 -126t98.5 -39q42 0 82.5 22.5t69.5 63.5l20 6l312 -97q-78 -132 -212 -201t-311 -69q-222 0 -351.5 115.5t-129.5 314.5q0 161 78.5 294t215.5 209.5t302 76.5q221 0 352 -118t131 -318q0 -70 -16 -129zM596 715q-110 0 -162 -148h271
q6 68 -23 108t-86 40z" />
    <glyph glyph-name="f" unicode="f" horiz-adv-x="772" 
d="M809 1190l-21 -8q-34 18 -73 18q-45 0 -71 -32.5t-36 -104.5l-18 -131h170l-43 -295h-168l-152 -1083h-399l152 1083h-158l41 295h157l19 129q35 247 138.5 356t299.5 109q118 0 219 -33z" />
    <glyph glyph-name="g" unicode="g" horiz-adv-x="1259" 
d="M440 -471q-172 0 -288.5 55.5t-194.5 175.5l246 156l12 -2q38 -52 88 -75t123 -23q87 0 139 45.5t66 132.5q6 54 31 156q-64 -86 -156.5 -131.5t-190.5 -45.5q-144 0 -227.5 105t-83.5 295q0 156 56 291.5t163 221t242 85.5q93 0 169 -47t118 -136l18 144h389l-125 -895
q-36 -258 -178 -383t-416 -125zM516 297q76 0 132.5 59.5t56.5 147.5q0 63 -36 103t-96 40q-75 0 -126.5 -62t-51.5 -157q0 -60 33 -95.5t88 -35.5z" />
    <glyph glyph-name="h" unicode="h" horiz-adv-x="1228" 
d="M383 0h-399l211 1501h399l-57 -418q-27 -184 -54 -292q143 180 334 180q148 0 220 -98t46 -277l-86 -596h-397l70 481q11 91 -7 125.5t-65 34.5q-56 0 -98.5 -52.5t-55.5 -146.5z" />
    <glyph glyph-name="i" unicode="i" horiz-adv-x="612" 
d="M362 1077q-100 0 -163.5 57t-63.5 146q0 90 62.5 145.5t164.5 55.5q101 0 163.5 -56t62.5 -145t-63 -146t-163 -57zM383 0h-399l131 932h399z" />
    <glyph glyph-name="j" unicode="j" horiz-adv-x="679" 
d="M430 1077q-100 0 -163.5 57t-63.5 146q0 90 62.5 145.5t164.5 55.5q101 0 163 -55.5t62 -145.5q0 -89 -62.5 -146t-162.5 -57zM-31 -471q-123 0 -221 37l80 303l18 8q40 -18 86 -18q56 0 83 32.5t42 126.5l127 914h400l-129 -928q-35 -245 -155.5 -360t-330.5 -115z" />
    <glyph glyph-name="k" unicode="k" horiz-adv-x="1224" 
d="M1110 0h-451l-159 311l-82 -75l-35 -236h-399l211 1501h399l-66 -475q-18 -128 -65 -364l272 270h482l-424 -369z" />
    <glyph glyph-name="l" unicode="l" horiz-adv-x="612" 
d="M383 0h-399l211 1501h399z" />
    <glyph glyph-name="m" unicode="m" horiz-adv-x="1810" 
d="M1403 971q143 0 214.5 -98.5t45.5 -276.5l-84 -596h-399l69 485q11 86 -5.5 121t-57.5 35q-49 0 -90 -54t-54 -145l-61 -442h-399l69 485q11 86 -5.5 121t-57.5 35q-49 0 -90.5 -54.5t-53.5 -144.5l-61 -442h-399l131 932h387l-19 -141q143 180 322 180q99 0 164.5 -52.5
t85.5 -150.5q152 203 348 203z" />
    <glyph glyph-name="n" unicode="n" horiz-adv-x="1228" 
d="M-16 0l131 932h387l-19 -141q143 180 334 180q148 0 220 -98.5t46 -278.5l-84 -594h-399l70 483q12 90 -6 124t-66 34q-56 0 -98.5 -52.5t-55.5 -146.5l-61 -442h-399z" />
    <glyph glyph-name="o" unicode="o" horiz-adv-x="1208" 
d="M492 -39q-218 0 -352 121.5t-134 318.5q0 154 81 285.5t221 208t306 76.5q216 0 351 -121t135 -315q0 -115 -49 -221.5t-131 -183.5t-194.5 -123t-233.5 -46zM522 289q75 0 131 64t56 149q0 65 -34.5 103t-92.5 38q-77 0 -132 -62t-55 -151q0 -62 36 -101.5t91 -39.5z
" />
    <glyph glyph-name="p" unicode="p" horiz-adv-x="1243" 
d="M319 -446h-399l195 1378h387l-19 -141q68 87 159 133.5t187 46.5q143 0 226.5 -106t83.5 -290q0 -168 -62 -309.5t-169 -223t-234 -81.5q-94 0 -169 46t-114 130q-8 -116 -31 -289zM569 285q77 0 128 63t51 158q0 64 -34 102.5t-91 38.5q-78 0 -131.5 -63t-53.5 -156
q0 -64 36 -103.5t95 -39.5z" />
    <glyph glyph-name="q" unicode="q" horiz-adv-x="1259" 
d="M752 788l18 144h389l-194 -1378l-402 2l43 294q30 195 53 287q-64 -86 -155 -131t-189 -45q-144 0 -227.5 105t-83.5 296q0 116 33.5 226t93 195t147 136.5t187.5 51.5q93 0 169 -47t118 -136zM516 285q76 0 132.5 60.5t56.5 154.5q0 66 -36 106.5t-96 40.5
q-74 0 -126 -63t-52 -162q0 -64 32.5 -100.5t88.5 -36.5z" />
    <glyph glyph-name="r" unicode="r" horiz-adv-x="1017" 
d="M383 0h-399l131 932h379l-19 -146q64 91 142.5 138t148.5 47q97 0 151 -57t66 -185l-344 -172l-18 8q-8 58 -56 58q-39 0 -75.5 -56.5t-49.5 -154.5z" />
    <glyph glyph-name="s" unicode="s" horiz-adv-x="919" 
d="M326 -39q-149 0 -251 58.5t-147 173.5l222 129l18 -3q55 -106 158 -106q38 0 61 15.5t23 41.5q0 23 -33 45.5t-111 53.5q-121 47 -175 109t-54 153q0 149 122 244.5t314 95.5q142 0 244.5 -58t134.5 -157l-219 -125l-19 4q-17 39 -52 61.5t-79 22.5q-32 0 -51.5 -14
t-19.5 -39q0 -23 26.5 -41t118.5 -58q120 -51 172.5 -113t52.5 -153q0 -151 -127 -245.5t-329 -94.5z" />
    <glyph glyph-name="t" unicode="t" horiz-adv-x="835" 
d="M702 309l19 -10l-31 -297q-43 -16 -113 -28.5t-131 -12.5q-386 0 -337 358l43 316h-158l43 297h158l28 194l324 174h96l-51 -368h223l-41 -297h-223l-33 -225q-10 -67 13.5 -94t86.5 -27q29 0 84 20z" />
    <glyph glyph-name="u" unicode="u" horiz-adv-x="1218" 
d="M285 -39q-144 0 -211 102t-41 287l84 582h399l-72 -500q-20 -141 62 -141q56 0 97.5 54t53.5 147l62 440h399l-129 -932h-389l21 141q-146 -180 -336 -180z" />
    <glyph glyph-name="v" unicode="v" horiz-adv-x="1134" 
d="M618 -6h-348l-258 938h420l57 -559h5l215 559h432z" />
    <glyph glyph-name="w" unicode="w" horiz-adv-x="1634" 
d="M541 -6h-334l-191 938h410l43 -539h4l232 537h231l80 -537h4l194 539h420l-452 -938h-334l-84 481h-4z" />
    <glyph glyph-name="x" unicode="x" horiz-adv-x="1161" 
d="M338 0h-471l420 483l-275 449h447l45 -109q35 -105 41 -135h4q43 79 69 119l89 125h458l-401 -449l285 -483h-461l-51 119q-30 101 -35 133h-4q-29 -61 -68 -119z" />
    <glyph glyph-name="y" unicode="y" horiz-adv-x="1193" 
d="M401 -446h-430l303 497l-262 881h461l41 -557h4l230 557h452z" />
    <glyph glyph-name="z" unicode="z" horiz-adv-x="1069" 
d="M-84 20l490 611h-383l43 301h968l-4 -21l-489 -604h397l-43 -307h-981z" />
    <glyph glyph-name="braceleft" unicode="{" horiz-adv-x="743" 
d="M-2 461l37 258h12q132 3 156 160l41 303q24 154 112.5 240.5t229.5 86.5h184l-35 -247h-78q-53 0 -85 -35.5t-40 -98.5l-43 -294q-13 -104 -71 -168.5t-139 -73.5v-4q75 -9 115.5 -75t27.5 -171l-41 -293q-11 -62 11 -96.5t75 -34.5h80l-35 -248h-184q-140 0 -205 88
t-43 242l41 301q12 82 -14.5 121t-92.5 39h-16z" />
    <glyph glyph-name="bar" unicode="|" horiz-adv-x="542" 
d="M428 -528h-313v2107h313v-2107z" />
    <glyph glyph-name="braceright" unicode="}" horiz-adv-x="743" 
d="M754 719l-35 -258h-14q-133 -3 -154 -160l-43 -303q-22 -154 -111.5 -241t-230.5 -87h-184l34 248h78q53 0 85.5 35t41.5 98l41 295q15 103 73 168t138 74v4q-76 9 -116 75t-25 171l41 292q9 63 -13 97.5t-75 34.5h-80l35 247h186q139 0 204.5 -88t43.5 -241l-41 -301
q-12 -82 14 -121t92 -39h15z" />
    <glyph glyph-name="asciitilde" unicode="~" horiz-adv-x="1433" 
d="M311 434l-18 -4l-182 117q155 280 362 280q59 0 109.5 -14t85.5 -33.5t67.5 -39.5t71 -34t80.5 -14q106 0 176 131l20 2l181 -114q-153 -281 -361 -281q-56 0 -105.5 14t-87 33.5t-72 39.5t-74.5 34t-81 14q-102 0 -172 -131z" />
    <glyph glyph-name="uni00A0" unicode="&#xa0;" horiz-adv-x="548" 
 />
    <glyph glyph-name="exclamdown" unicode="&#xa1;" horiz-adv-x="747" 
d="M432 971q100 0 162.5 -62.5t62.5 -154.5q0 -93 -64 -156t-161 -63q-100 0 -164.5 63t-64.5 156q0 92 64.5 154.5t164.5 62.5zM193 426h380l-110 -928h-420z" />
    <glyph glyph-name="cent" unicode="&#xa2;" horiz-adv-x="1433" 
d="M848 383l20 2l275 -164q-148 -201 -377 -248l-23 -153h-245l20 151q-162 29 -253 139.5t-91 280.5q0 215 137 376.5t348 195.5l21 151h246l-23 -158q221 -51 305 -247l-321 -160l-19 2q-26 54 -56.5 77t-72.5 23q-76 0 -127 -64.5t-51 -160.5q0 -67 34.5 -106t90.5 -39
q89 0 162 102z" />
    <glyph glyph-name="sterling" unicode="&#xa3;" horiz-adv-x="1433" 
d="M1174 0h-1117l52 373h155q47 55 58 141l12 80h-191l41 293h191l10 82q34 231 197 375.5t391 144.5q137 0 249 -43.5t183 -122.5l-266 -268l-19 4q-56 71 -149 71q-71 0 -118.5 -50.5t-57.5 -141.5l-9 -51h281l-41 -293h-278l-9 -51q-21 -118 -75 -170h606z" />
    <glyph glyph-name="currency" unicode="&#xa4;" horiz-adv-x="1433" 
d="M428 147l-197 -198l-190 192l190 191q-79 133 -79 301q0 161 73 291l-184 184l190 192l191 -190q136 76 295 76q161 0 293 -72l186 186l193 -192l-183 -180q80 -124 80 -295t-84 -305l187 -187l-191 -192l-194 194q-124 -71 -287 -71q-148 0 -289 75zM717 395
q96 0 157.5 68t61.5 170q0 98 -62.5 165.5t-156.5 67.5q-93 0 -156 -67t-63 -166q0 -102 61.5 -170t157.5 -68z" />
    <glyph glyph-name="yen" unicode="&#xa5;" horiz-adv-x="1433" 
d="M1020 1450h508l-459 -543h225l-34 -256h-361l-16 -121h360l-37 -256h-360l-39 -274h-414l39 274h-358l37 256h358l16 121h-358l35 256h227l-307 543h491l152 -485h6z" />
    <glyph glyph-name="brokenbar" unicode="&#xa6;" horiz-adv-x="542" 
d="M428 668h-313v915h313v-915zM428 -528h-313v917h313v-917z" />
    <glyph glyph-name="section" unicode="&#xa7;" horiz-adv-x="1300" 
d="M758 997l84 -34q182 -69 257 -143t75 -183q0 -98 -49.5 -181t-131.5 -128q72 -78 72 -183q0 -193 -171.5 -322.5t-426.5 -129.5q-178 0 -323 73t-205 193l305 203l16 -6q38 -68 109.5 -109t152.5 -41q53 0 86 25t33 65q0 28 -27.5 48.5t-109.5 48.5l-86 38
q-185 64 -262.5 137.5t-77.5 182.5q0 101 57 183.5t156 125.5q-80 83 -80 203q0 118 73 216t200.5 154t281.5 56q181 0 307 -66t176 -186l-315 -174l-19 4q-23 51 -70.5 80t-107.5 29q-52 0 -81 -22t-29 -60q0 -25 27.5 -46t103.5 -51zM586 520l155 -59q28 9 46 35.5
t18 58.5q0 37 -26.5 62.5t-90.5 48.5l-180 67q-27 -9 -46.5 -36.5t-19.5 -57.5q0 -35 31 -61t113 -58z" />
    <glyph glyph-name="dieresis" unicode="&#xa8;" horiz-adv-x="897" 
d="M344 1079q-72 0 -121 49t-49 121t49 122t121 50t122 -50t50 -122t-50 -121t-122 -49zM772 1079q-72 0 -121 49t-49 121t49 122t121 50t122 -50t50 -122t-50 -121t-122 -49z" />
    <glyph glyph-name="copyright" unicode="&#xa9;" horiz-adv-x="1847" 
d="M915 -39q-160 0 -303 59.5t-245.5 161.5t-162 243t-59.5 298q0 158 59.5 300t162 244t245.5 162t303 60q159 0 301.5 -60t244 -162t161 -244t59.5 -300q0 -157 -59.5 -298t-161 -243t-244 -161.5t-301.5 -59.5zM907 106q170 0 313 83t225.5 224.5t82.5 309.5
q0 169 -80.5 311.5t-221.5 225.5t-311 83q-128 0 -242.5 -49t-196.5 -132.5t-129.5 -198t-47.5 -240.5q0 -168 79 -309.5t219 -224.5t310 -83zM922 295q-186 0 -311.5 120.5t-125.5 311.5q0 193 126 314.5t311 121.5q118 0 215 -51t151 -151l-184 -111l-21 2q-58 82 -149 82
q-79 0 -130.5 -56.5t-51.5 -150.5q0 -92 51.5 -147.5t128.5 -55.5q49 0 84.5 19t66.5 61l21 4l184 -112q-56 -97 -152 -149t-214 -52z" />
    <glyph glyph-name="ordfeminine" unicode="&#xaa;" horiz-adv-x="784" 
d="M272 891q-83 0 -130.5 61t-47.5 174q0 92 32.5 174t95.5 134.5t143 52.5q113 0 163 -105l11 82h247l-77 -551h-250l2 17q1 5 5 25.5t9 37.5q-37 -51 -91 -76.5t-112 -25.5zM403 1096q39 0 68 30.5t29 79.5q0 34 -18.5 55t-47.5 21q-38 0 -65 -33t-27 -84
q0 -32 16.5 -50.5t44.5 -18.5z" />
    <glyph glyph-name="guillemotleft" unicode="&#xab;" horiz-adv-x="1245" 
d="M502 188l-230 -139l-260 453l387 450l191 -139v-25l-240 -286l160 -289zM1014 188l-230 -139l-260 453l387 450l191 -139v-25l-240 -286l160 -289z" />
    <glyph glyph-name="logicalnot" unicode="&#xac;" horiz-adv-x="1433" 
d="M143 494v258h1080v-547h-256v289h-824z" />
    <glyph glyph-name="uni00AD" unicode="&#xad;" horiz-adv-x="655" 
d="M479 334h-467l31 227h467z" />
    <glyph glyph-name="registered" unicode="&#xae;" horiz-adv-x="1241" 
d="M653 563q-127 0 -235 61t-171 167t-63 233q0 193 137.5 329t331.5 136q192 0 328.5 -136t136.5 -329q0 -127 -62.5 -233t-169.5 -167t-233 -61zM653 645q159 0 268 110.5t109 268.5q0 159 -109 269t-268 110q-161 0 -271 -110t-110 -269q0 -158 110.5 -268.5
t270.5 -110.5zM852 1106q0 -97 -80 -135l125 -183l-6 -12h-158l-106 168h-21v-168h-149v498h196q199 0 199 -168zM608 1159v-100h39q62 0 62 49q0 51 -62 51h-39z" />
    <glyph glyph-name="macron" unicode="&#xaf;" horiz-adv-x="815" 
d="M850 1153h-690l28 213h691z" />
    <glyph glyph-name="degree" unicode="&#xb0;" horiz-adv-x="880" 
d="M440 780q-154 0 -254 100.5t-100 254.5t100 254t254 100q153 0 254 -100.5t101 -253.5t-101 -254t-254 -101zM440 938q81 0 134 56.5t53 140.5t-53 140t-134 56t-134.5 -56t-53.5 -140t53.5 -140.5t134.5 -56.5z" />
    <glyph glyph-name="plusminus" unicode="&#xb1;" horiz-adv-x="1433" 
d="M829 948h408v-258h-408v-241h-256v241h-407v258h407v242h256v-242zM1241 80h-1079v258h1079v-258z" />
    <glyph glyph-name="uni00B2" unicode="&#xb2;" horiz-adv-x="827" 
d="M745 942h-694l4 29l389 383q65 61 91 99.5t26 74.5q0 24 -14.5 36.5t-38.5 12.5q-71 0 -107 -102l-22 -11l-232 35q57 161 158.5 238.5t257.5 77.5q123 0 198 -64t75 -168q0 -195 -195 -352l-25 -21q-28 -23 -98 -63v-6q93 22 160 22h98z" />
    <glyph glyph-name="uni00B3" unicode="&#xb3;" horiz-adv-x="827" 
d="M436 903q-169 0 -252 69t-82 210l250 41l21 -15q0 -90 73 -90q34 0 58 29.5t24 69.5q0 71 -79 71h-31l22 160h19q50 0 78 25.5t28 68.5q0 57 -51 57q-31 0 -55.5 -19t-36.5 -52l-23 -10l-223 43q103 254 391 254q124 0 194 -54.5t70 -152.5q0 -79 -45 -142t-122 -92
q62 -15 95.5 -62t33.5 -120q0 -120 -102.5 -204.5t-254.5 -84.5z" />
    <glyph glyph-name="acute" unicode="&#xb4;" horiz-adv-x="727" 
d="M455 1094h-305l286 376h359l8 -18z" />
    <glyph glyph-name="uni00B5" unicode="&#xb5;" horiz-adv-x="1218" 
d="M319 -446h-399l195 1378h399l-72 -498q-10 -78 8 -110.5t62 -32.5q56 0 97.5 52t54.5 149l61 440h399l-94 -674q-4 -30 2 -40.5t25 -10.5q15 0 39 12l18 -10l-29 -211q-105 -33 -208 -33q-98 0 -157 37t-56 111v8q-84 -160 -201 -160q-43 0 -82 29z" />
    <glyph glyph-name="paragraph" unicode="&#xb6;" horiz-adv-x="1361" 
d="M674 -446h-293l151 1083q-182 8 -282 96t-100 242q0 223 156 349t435 126h631l-266 -1896h-293l229 1638h-139z" />
    <glyph glyph-name="periodcentered" unicode="&#xb7;" horiz-adv-x="653" 
d="M279 348q-99 0 -162.5 64t-63.5 157t64 154t162 61t160.5 -61t62.5 -154t-62.5 -157t-160.5 -64z" />
    <glyph glyph-name="cedilla" unicode="&#xb8;" horiz-adv-x="690" 
d="M182 -487q-144 0 -248 51l74 137l23 6q58 -37 149 -37q43 0 68.5 16t25.5 42q0 41 -75 41q-45 0 -86 -13l-62 60l166 184h201l-109 -117q29 6 58 6q72 0 115.5 -39t43.5 -102q0 -106 -94.5 -170.5t-249.5 -64.5z" />
    <glyph glyph-name="uni00B9" unicode="&#xb9;" horiz-adv-x="827" 
d="M592 942h-260l53 389q10 89 49 180l-2 2q-49 -34 -104 -61l-86 -47l-23 8l55 252l355 152h86z" />
    <glyph glyph-name="ordmasculine" unicode="&#xba;" horiz-adv-x="770" 
d="M387 891q-131 0 -211 71.5t-80 188.5q0 138 106.5 237t256.5 99q130 0 209.5 -71t79.5 -187q0 -138 -106.5 -238t-254.5 -100zM408 1100q37 0 65.5 32t28.5 74q0 34 -17.5 55t-46.5 21q-38 0 -66 -33.5t-28 -79.5q0 -31 17.5 -50t46.5 -19z" />
    <glyph glyph-name="guillemotright" unicode="&#xbb;" horiz-adv-x="1245" 
d="M602 502l-387 -453l-190 139v25l239 289l-160 286l9 25l229 139zM1114 502l-387 -453l-190 139l-2 25l241 289l-160 286l9 25l229 139z" />
    <glyph glyph-name="onequarter" unicode="&#xbc;" horiz-adv-x="1982" 
d="M1274 1526h328l-1043 -1600h-330zM514 610h-262l55 389q11 90 49 181l-4 2q-42 -31 -102 -62l-86 -47l-23 8l54 252l354 152h88zM1626 -2h-256l21 143h-398l27 187l420 516h307l-68 -484h95l-33 -219h-92zM1380 479l-102 -119h152l8 72q10 80 41 191h-4q-48 -88 -95 -144
z" />
    <glyph glyph-name="onehalf" unicode="&#xbd;" horiz-adv-x="1982" 
d="M1241 1526h330l-1043 -1600h-331zM481 610h-260l53 389q16 103 52 181l-4 2q-52 -36 -105 -62l-84 -47l-22 8l53 252l354 152h86zM1718 0h-694l4 29l389 383q64 63 90.5 101t26.5 73q0 24 -14.5 36.5t-38.5 12.5q-73 0 -107 -103l-24 -10l-232 35q57 160 159 237.5
t257 77.5q124 0 199 -63.5t75 -167.5q0 -196 -194 -352l-25 -21q-28 -23 -98 -63v-6q93 22 160 22h98z" />
    <glyph glyph-name="threequarters" unicode="&#xbe;" horiz-adv-x="1982" 
d="M1323 1526h330l-1043 -1600h-331zM358 567q-337 0 -331 279l249 41l21 -15q-1 -44 17.5 -67t54.5 -23q35 0 58.5 29.5t23.5 69.5q0 69 -78 69h-31l23 160h18q49 0 77.5 26.5t28.5 69.5q0 58 -51 58q-30 0 -55 -19.5t-37 -52.5l-24 -12l-222 45q49 124 150 189t242 65
q124 0 194 -55t70 -154q0 -78 -45.5 -141t-122.5 -91q62 -15 95.5 -62.5t33.5 -119.5q0 -121 -103 -205t-256 -84zM1677 -2h-258l21 143h-398l27 187l422 516h307l-69 -484h94l-31 -219h-94zM1430 479l-101 -119h150l8 72q10 80 41 191h-2q-50 -93 -96 -144z" />
    <glyph glyph-name="questiondown" unicode="&#xbf;" horiz-adv-x="1196" 
d="M653 971q100 0 163 -62.5t63 -154.5q0 -93 -64 -156t-162 -63q-100 0 -164.5 63t-64.5 156q0 92 64.5 154.5t164.5 62.5zM426 426h379l-6 -53q-10 -98 -64.5 -171t-173.5 -153q-79 -54 -110 -91t-31 -81q0 -38 26.5 -61t71.5 -23q130 0 176 154l37 16l342 -47
q-56 -215 -219.5 -337t-398.5 -122q-207 0 -331 96t-124 254q0 141 75 248.5t236 202.5q54 32 78.5 62.5t30.5 72.5z" />
    <glyph glyph-name="Agrave" unicode="&#xc0;" horiz-adv-x="1552" 
d="M942 1839l207 -274h-289l-266 256l16 18h332zM1442 0h-481l-37 225h-461l-98 -225h-494l745 1450h496zM690 745l-92 -213h279l-35 213q-25 167 -25 334h-10q-45 -164 -117 -334z" />
    <glyph glyph-name="Aacute" unicode="&#xc1;" horiz-adv-x="1552" 
d="M1176 1839l8 -18l-305 -256h-289l244 274h342zM1442 0h-481l-37 225h-461l-98 -225h-494l745 1450h496zM690 745l-92 -213h279l-35 213q-25 167 -25 334h-10q-45 -164 -117 -334z" />
    <glyph glyph-name="Acircumflex" unicode="&#xc2;" horiz-adv-x="1552" 
d="M897 1700l-168 -135h-250l-14 20l289 254h311l211 -254l-19 -20h-237zM1442 0h-481l-37 225h-461l-98 -225h-494l745 1450h496zM690 745l-92 -213h279l-35 213q-25 167 -25 334h-10q-45 -164 -117 -334z" />
    <glyph glyph-name="Atilde" unicode="&#xc3;" horiz-adv-x="1552" 
d="M672 1581l-19 -12h-161q26 124 100.5 203t165.5 79q50 0 99 -19.5t92.5 -38.5t80.5 -19q55 0 82 65l16 12h158q-25 -124 -99.5 -203t-166.5 -79q-52 0 -100 20t-89 40t-77 20q-59 0 -82 -68zM1442 0h-481l-37 225h-461l-98 -225h-494l745 1450h496zM690 745l-92 -213h279
l-35 213q-25 167 -25 334h-10q-45 -164 -117 -334z" />
    <glyph glyph-name="Adieresis" unicode="&#xc4;" horiz-adv-x="1552" 
d="M672 1571q-74 0 -123 49.5t-49 122.5q0 71 50 120.5t122 49.5q70 0 120 -49.5t50 -120.5q0 -73 -49 -122.5t-121 -49.5zM1116 1571q-72 0 -121 49.5t-49 122.5q0 71 50 120.5t120 49.5q72 0 122 -49.5t50 -120.5q0 -73 -50 -122.5t-122 -49.5zM1442 0h-481l-37 225h-461
l-98 -225h-494l745 1450h496zM690 745l-92 -213h279l-35 213q-25 167 -25 334h-10q-45 -164 -117 -334z" />
    <glyph glyph-name="Aring" unicode="&#xc5;" horiz-adv-x="1552" 
d="M870 1538q-88 0 -145 55t-57 140q0 107 77 183.5t183 76.5q88 0 145 -55t57 -140q0 -106 -77 -183t-183 -77zM915 1884q-57 0 -97 -39.5t-40 -95.5q0 -44 29.5 -73t75.5 -29q57 0 97 39.5t40 95.5q0 44 -29.5 73t-75.5 29zM1442 0h-481l-37 225h-461l-98 -225h-494
l745 1450h496zM690 745l-92 -213h279l-35 213q-25 167 -25 334h-10q-45 -164 -117 -334z" />
    <glyph glyph-name="AE" unicode="&#xc6;" horiz-adv-x="1976" 
d="M1767 569h-485l-31 -221h551l-86 -348h-928l31 225h-327l-136 -225h-485l887 1450h1149l2 -348h-553l-29 -203h488zM752 680l-95 -148h207l23 166q27 191 78 408h-11q-77 -202 -202 -426z" />
    <glyph glyph-name="Ccedilla" unicode="&#xc7;" horiz-adv-x="1576" 
d="M1094 504l36 6l293 -193q-108 -152 -260 -240.5t-327 -109.5l-78 -84q29 6 57 6q72 0 116 -39t44 -102q0 -106 -94.5 -170.5t-249.5 -64.5q-144 0 -248 51l74 137l22 6q58 -37 150 -37q43 0 68.5 16t25.5 42q0 41 -76 41q-45 0 -86 -13l-61 60l135 151
q-256 30 -416 203.5t-160 435.5q0 182 70 346t187.5 281.5t278.5 186.5t337 69q212 0 370.5 -91.5t233.5 -267.5l-346 -190l-37 6q-75 152 -242 152q-165 0 -279 -131t-114 -310q0 -137 80.5 -221t206.5 -84q166 0 289 152z" />
    <glyph glyph-name="Egrave" unicode="&#xc8;" horiz-adv-x="1200" 
d="M977 1565h-289l-266 256l16 18h332zM12 0l205 1450h913l3 -348h-553l-29 -203h485l-45 -330h-487l-31 -221h553l-86 -348h-928z" />
    <glyph glyph-name="Eacute" unicode="&#xc9;" horiz-adv-x="1200" 
d="M707 1565h-289l244 274h342l8 -18zM12 0l205 1450h913l3 -348h-553l-29 -203h485l-45 -330h-487l-31 -221h553l-86 -348h-928z" />
    <glyph glyph-name="Ecircumflex" unicode="&#xca;" horiz-adv-x="1200" 
d="M846 1565l-123 135l-168 -135h-250l-14 20l289 254h311l211 -254l-19 -20h-237zM12 0l205 1450h913l3 -348h-553l-29 -203h485l-45 -330h-487l-31 -221h553l-86 -348h-928z" />
    <glyph glyph-name="Edieresis" unicode="&#xcb;" horiz-adv-x="1200" 
d="M498 1571q-74 0 -123 49.5t-49 122.5q0 71 50 120.5t122 49.5q70 0 120 -49.5t50 -120.5q0 -73 -49 -122.5t-121 -49.5zM942 1571q-72 0 -121 49.5t-49 122.5q0 71 50 120.5t120 49.5q72 0 122 -49.5t50 -120.5q0 -73 -50 -122.5t-122 -49.5zM12 0l205 1450h913l3 -348
h-553l-29 -203h485l-45 -330h-487l-31 -221h553l-86 -348h-928z" />
    <glyph glyph-name="Igrave" unicode="&#xcc;" horiz-adv-x="681" 
d="M709 1565h-289l-266 256l16 18h332zM12 0l205 1450h414l-205 -1450h-414z" />
    <glyph glyph-name="Iacute" unicode="&#xcd;" horiz-adv-x="681" 
d="M438 1565h-288l243 274h342l8 -18zM12 0l205 1450h414l-205 -1450h-414z" />
    <glyph glyph-name="Icircumflex" unicode="&#xce;" horiz-adv-x="681" 
d="M580 1565l-123 135l-168 -135h-250l-14 20l288 254h312l211 -254l-19 -20h-237zM12 0l205 1450h414l-205 -1450h-414z" />
    <glyph glyph-name="Idieresis" unicode="&#xcf;" horiz-adv-x="681" 
d="M231 1571q-73 0 -122.5 49.5t-49.5 122.5q0 71 50 120.5t122 49.5q71 0 120.5 -49.5t49.5 -120.5q0 -73 -49 -122.5t-121 -49.5zM676 1571q-72 0 -121 49.5t-49 122.5q0 71 50 120.5t120 49.5q72 0 122 -49.5t50 -120.5q0 -73 -50 -122.5t-122 -49.5zM12 0l205 1450h414
l-205 -1450h-414z" />
    <glyph glyph-name="Eth" unicode="&#xd0;" horiz-adv-x="1529" 
d="M215 1450h492q342 0 536.5 -160.5t196.5 -443.5q0 -185 -67 -342t-187.5 -268t-295 -173.5t-382.5 -62.5h-496l82 592h-100l37 266h102zM475 367h74q224 0 343.5 114t117.5 324q-2 137 -91 207.5t-262 70.5h-82l-30 -225h258l-39 -266h-258z" />
    <glyph glyph-name="Ntilde" unicode="&#xd1;" horiz-adv-x="1607" 
d="M1087 1569q92 0 167 79t100 203h-158l-16 -12q-27 -65 -82 -65q-37 0 -80.5 19t-93 38.5t-99.5 19.5q-91 0 -165.5 -79t-100.5 -203h162l18 12q23 68 82 68q36 0 77 -20t89 -40t100 -20zM424 0h-412l203 1450h424l250 -467q57 -105 164 -324h4q0 182 24 363l62 428h413
l-204 -1456h-381l-297 502q-77 132 -164 321h-4q5 -184 -19 -364z" />
    <glyph glyph-name="Ograve" unicode="&#xd2;" horiz-adv-x="1746" 
d="M1307 1565h-289l-266 256l16 18h332zM758 -39q-204 0 -363.5 82t-248.5 231.5t-89 341.5q0 179 71 340.5t191.5 278t287 185.5t349.5 69q314 0 506.5 -179t192.5 -472q0 -178 -71.5 -340.5t-192 -280t-286.5 -187t-347 -69.5zM803 346q166 0 288.5 132.5t122.5 314.5
q0 139 -83.5 226t-217.5 87q-169 0 -291 -130.5t-122 -313.5q0 -139 85.5 -227.5t217.5 -88.5z" />
    <glyph glyph-name="Oacute" unicode="&#xd3;" horiz-adv-x="1746" 
d="M1036 1565h-288l243 274h342l8 -18zM758 -39q-204 0 -363.5 82t-248.5 231.5t-89 341.5q0 179 71 340.5t191.5 278t287 185.5t349.5 69q314 0 506.5 -179t192.5 -472q0 -178 -71.5 -340.5t-192 -280t-286.5 -187t-347 -69.5zM803 346q166 0 288.5 132.5t122.5 314.5
q0 139 -83.5 226t-217.5 87q-169 0 -291 -130.5t-122 -313.5q0 -139 85.5 -227.5t217.5 -88.5z" />
    <glyph glyph-name="Ocircumflex" unicode="&#xd4;" horiz-adv-x="1746" 
d="M1176 1565l-123 135l-168 -135h-250l-14 20l288 254h312l211 -254l-19 -20h-237zM758 -39q-204 0 -363.5 82t-248.5 231.5t-89 341.5q0 179 71 340.5t191.5 278t287 185.5t349.5 69q314 0 506.5 -179t192.5 -472q0 -178 -71.5 -340.5t-192 -280t-286.5 -187t-347 -69.5z
M803 346q166 0 288.5 132.5t122.5 314.5q0 139 -83.5 226t-217.5 87q-169 0 -291 -130.5t-122 -313.5q0 -139 85.5 -227.5t217.5 -88.5z" />
    <glyph glyph-name="Otilde" unicode="&#xd5;" horiz-adv-x="1746" 
d="M1178 1569q92 0 166.5 79t99.5 203h-158l-16 -12q-27 -65 -82 -65q-37 0 -80.5 19t-93 38.5t-99.5 19.5q-91 0 -165.5 -79t-100.5 -203h162l18 12q23 68 82 68q36 0 77 -20t89.5 -40t100.5 -20zM758 -39q-204 0 -363.5 82t-248.5 231.5t-89 341.5q0 179 71 340.5
t191.5 278t287 185.5t349.5 69q314 0 506.5 -179t192.5 -472q0 -178 -71.5 -340.5t-192 -280t-286.5 -187t-347 -69.5zM803 346q166 0 288.5 132.5t122.5 314.5q0 139 -83.5 226t-217.5 87q-169 0 -291 -130.5t-122 -313.5q0 -139 85.5 -227.5t217.5 -88.5z" />
    <glyph glyph-name="Odieresis" unicode="&#xd6;" horiz-adv-x="1746" 
d="M829 1571q-73 0 -122.5 49.5t-49.5 122.5q0 71 50 120.5t122 49.5q71 0 120.5 -49.5t49.5 -120.5q0 -73 -49 -122.5t-121 -49.5zM1274 1571q-72 0 -121 49.5t-49 122.5q0 71 50 120.5t120 49.5q72 0 122 -49.5t50 -120.5q0 -73 -50 -122.5t-122 -49.5zM758 -39
q-204 0 -363.5 82t-248.5 231.5t-89 341.5q0 179 71 340.5t191.5 278t287 185.5t349.5 69q314 0 506.5 -179t192.5 -472q0 -178 -71.5 -340.5t-192 -280t-286.5 -187t-347 -69.5zM803 346q166 0 288.5 132.5t122.5 314.5q0 139 -83.5 226t-217.5 87q-169 0 -291 -130.5
t-122 -313.5q0 -139 85.5 -227.5t217.5 -88.5z" />
    <glyph glyph-name="multiply" unicode="&#xd7;" horiz-adv-x="1433" 
d="M1034 1135l183 -183l-330 -329l330 -332l-183 -182l-329 331l-332 -331l-183 182l332 332l-332 329l183 183l332 -330z" />
    <glyph glyph-name="Oslash" unicode="&#xd8;" horiz-adv-x="1746" 
d="M1608 1407l-121 -121q168 -179 168 -448q0 -178 -71.5 -340.5t-192 -280t-286.5 -187t-347 -69.5q-263 0 -447 135l-123 -125l-82 70l123 125q-172 178 -172 450q0 179 71 340.5t191.5 278t287 185.5t349.5 69q267 0 451 -133l121 123zM500 662q0 -101 45 -177l555 562
q-74 59 -187 59q-169 0 -291 -130.5t-122 -313.5zM803 346q166 0 288.5 132.5t122.5 314.5q0 97 -43 172l-553 -559q75 -60 185 -60z" />
    <glyph glyph-name="Ugrave" unicode="&#xd9;" horiz-adv-x="1531" 
d="M1143 1565h-289l-266 256l16 18h332zM662 -39q-343 0 -478 172.5t-84 530.5l111 786h414l-109 -778q-26 -180 14.5 -253t163.5 -73q124 0 187.5 74t91.5 256l106 774h414l-113 -815q-46 -329 -227 -501.5t-491 -172.5z" />
    <glyph glyph-name="Uacute" unicode="&#xda;" horiz-adv-x="1531" 
d="M872 1565h-288l243 274h342l9 -18zM662 -39q-343 0 -478 172.5t-84 530.5l111 786h414l-109 -778q-26 -180 14.5 -253t163.5 -73q124 0 187.5 74t91.5 256l106 774h414l-113 -815q-46 -329 -227 -501.5t-491 -172.5z" />
    <glyph glyph-name="Ucircumflex" unicode="&#xdb;" horiz-adv-x="1531" 
d="M1014 1565l-123 135l-168 -135h-250l-14 20l289 254h311l211 -254l-19 -20h-237zM662 -39q-343 0 -478 172.5t-84 530.5l111 786h414l-109 -778q-26 -180 14.5 -253t163.5 -73q124 0 187.5 74t91.5 256l106 774h414l-113 -815q-46 -329 -227 -501.5t-491 -172.5z" />
    <glyph glyph-name="Udieresis" unicode="&#xdc;" horiz-adv-x="1531" 
d="M666 1571q-74 0 -123 49.5t-49 122.5q0 71 50 120.5t122 49.5q70 0 120 -49.5t50 -120.5q0 -73 -49 -122.5t-121 -49.5zM1110 1571q-72 0 -121 49.5t-49 122.5q0 71 50 120.5t120 49.5q72 0 122 -49.5t50 -120.5q0 -73 -50 -122.5t-122 -49.5zM662 -39q-343 0 -478 172.5
t-84 530.5l111 786h414l-109 -778q-26 -180 14.5 -253t163.5 -73q124 0 187.5 74t91.5 256l106 774h414l-113 -815q-46 -329 -227 -501.5t-491 -172.5z" />
    <glyph glyph-name="Yacute" unicode="&#xdd;" horiz-adv-x="1429" 
d="M801 1565h-289l244 274h342l8 -18zM799 0h-414l80 569l-391 881h493l76 -268q43 -156 66 -283h6q93 186 147 283l152 268h506l-641 -881z" />
    <glyph glyph-name="Thorn" unicode="&#xde;" horiz-adv-x="1312" 
d="M432 0h-420l205 1450h422l-33 -225h94q543 0 543 -406q0 -265 -161 -417t-445 -152h-172zM559 895l-47 -324h106q104 0 161 51.5t57 143.5q0 129 -170 129h-107z" />
    <glyph glyph-name="germandbls" unicode="&#xdf;" horiz-adv-x="1259" 
d="M627 -39q-89 0 -162 27l53 299l19 12q27 -12 55 -12q70 0 116 63.5t46 167.5q0 156 -160 156h-21l35 250h33q73 0 112.5 53.5t39.5 134.5q0 52 -26.5 80.5t-76.5 28.5q-76 0 -114 -56t-58 -194l-199 -1417h-399l201 1411q40 293 178.5 427t405.5 134q208 0 324 -90
t116 -252q0 -115 -65 -215t-171 -142q109 -28 170.5 -113.5t61.5 -211.5q0 -233 -144 -387t-370 -154z" />
    <glyph glyph-name="agrave" unicode="&#xe0;" horiz-adv-x="1257" 
d="M952 1098h-297l-309 358l12 19h349zM315 -39q-144 0 -227.5 105t-83.5 296q0 116 33.5 226t93 195t147 136.5t187.5 51.5q93 0 168 -47t117 -136l20 144h387l-131 -932h-395l4 31q6 43 22 106q-63 -85 -154 -130.5t-188 -45.5zM514 285q76 0 132 60.5t56 154.5
q0 66 -35.5 106.5t-93.5 40.5q-74 0 -126 -63t-52 -162q0 -64 32.5 -100.5t86.5 -36.5z" />
    <glyph glyph-name="aacute" unicode="&#xe1;" horiz-adv-x="1257" 
d="M737 1098h-305l285 377h358l10 -19zM315 -39q-144 0 -227.5 105t-83.5 296q0 116 33.5 226t93 195t147 136.5t187.5 51.5q93 0 168 -47t117 -136l20 144h387l-131 -932h-395l4 31q6 43 22 106q-63 -85 -154 -130.5t-188 -45.5zM514 285q76 0 132 60.5t56 154.5
q0 66 -35.5 106.5t-93.5 40.5q-74 0 -126 -63t-52 -162q0 -64 32.5 -100.5t86.5 -36.5z" />
    <glyph glyph-name="acircumflex" unicode="&#xe2;" horiz-adv-x="1257" 
d="M866 1094l-116 202l-177 -202h-251l-15 20l297 356h328l196 -356l-18 -20h-244zM315 -39q-144 0 -227.5 105t-83.5 296q0 116 33.5 226t93 195t147 136.5t187.5 51.5q93 0 168 -47t117 -136l20 144h387l-131 -932h-395l4 31q6 43 22 106q-63 -85 -154 -130.5t-188 -45.5z
M514 285q76 0 132 60.5t56 154.5q0 66 -35.5 106.5t-93.5 40.5q-74 0 -126 -63t-52 -162q0 -64 32.5 -100.5t86.5 -36.5z" />
    <glyph glyph-name="atilde" unicode="&#xe3;" horiz-adv-x="1257" 
d="M858 1100q91 0 165.5 79t100.5 203h-157l-19 -12q-27 -65 -82 -65q-36 0 -79.5 19.5t-92 38.5t-98.5 19q-92 0 -166.5 -79t-99.5 -203h159l19 12q13 34 31.5 51t50.5 17q36 0 77 -20t89.5 -40t101.5 -20zM315 -39q-144 0 -227.5 105t-83.5 296q0 116 33.5 226t93 195
t147 136.5t187.5 51.5q93 0 168 -47t117 -136l20 144h387l-131 -932h-395l4 31q6 43 22 106q-63 -85 -154 -130.5t-188 -45.5zM514 285q76 0 132 60.5t56 154.5q0 66 -35.5 106.5t-93.5 40.5q-74 0 -126 -63t-52 -162q0 -64 32.5 -100.5t86.5 -36.5z" />
    <glyph glyph-name="adieresis" unicode="&#xe4;" horiz-adv-x="1257" 
d="M514 1079q-73 0 -122.5 49t-49.5 121t50 122t122 50q71 0 120.5 -50t49.5 -122t-49 -121t-121 -49zM940 1079q-72 0 -121 49t-49 121t49.5 122t120.5 50q72 0 122 -50t50 -122t-49.5 -121t-122.5 -49zM315 -39q-144 0 -227.5 105t-83.5 296q0 116 33.5 226t93 195
t147 136.5t187.5 51.5q93 0 168 -47t117 -136l20 144h387l-131 -932h-395l4 31q6 43 22 106q-63 -85 -154 -130.5t-188 -45.5zM514 285q76 0 132 60.5t56 154.5q0 66 -35.5 106.5t-93.5 40.5q-74 0 -126 -63t-52 -162q0 -64 32.5 -100.5t86.5 -36.5z" />
    <glyph glyph-name="aring" unicode="&#xe5;" horiz-adv-x="1257" 
d="M705 1067q-88 0 -145.5 55t-57.5 140q0 107 76.5 183.5t183.5 76.5q88 0 145.5 -55t57.5 -140q0 -106 -77 -183t-183 -77zM717 1176q56 0 96.5 40t40.5 95q0 44 -30 73t-74 29q-57 0 -97.5 -39.5t-40.5 -95.5q0 -44 29.5 -73t75.5 -29zM315 -39q-144 0 -227.5 105
t-83.5 296q0 116 33.5 226t93 195t147 136.5t187.5 51.5q93 0 168 -47t117 -136l20 144h387l-131 -932h-395l4 31q6 43 22 106q-63 -85 -154 -130.5t-188 -45.5zM514 285q76 0 132 60.5t56 154.5q0 66 -35.5 106.5t-93.5 40.5q-74 0 -126 -63t-52 -162q0 -64 32.5 -100.5
t86.5 -36.5z" />
    <glyph glyph-name="ae" unicode="&#xe6;" horiz-adv-x="1712" 
d="M195 -39q-122 0 -185 49.5t-63 134.5q0 70 30.5 126t82.5 95.5t131.5 70t165 50t194.5 35.5l4 39q12 103 -78 103q-53 0 -102 -26t-107 -83l-18 -2l-199 152q91 121 232.5 193.5t304.5 72.5q182 0 252 -113h4q129 111 325 111q184 0 306 -119t122 -315q0 -70 -16 -129
h-661q-2 -4 -2 -15q-3 -82 31.5 -118.5t92.5 -36.5q39 0 79.5 22.5t70.5 63.5l18 6l312 -97q-78 -132 -212 -201t-309 -69q-132 0 -233.5 46.5t-157.5 129.5q-179 -176 -415 -176zM948 563l271 -2q6 72 -24 112t-87 40q-116 0 -160 -150zM383 168q37 0 76 21t94 69
q-15 56 -12 117q-116 -23 -169 -59.5t-53 -88.5q0 -28 16.5 -43.5t47.5 -15.5z" />
    <glyph glyph-name="ccedilla" unicode="&#xe7;" horiz-adv-x="1116" 
d="M680 383l20 2l275 -164q-167 -228 -436 -256l-76 -82q29 6 57 6q72 0 116 -39t44 -102q0 -106 -94.5 -170.5t-249.5 -64.5q-144 0 -248 51l74 137l22 6q58 -37 150 -37q43 0 68.5 16t25.5 42q0 41 -76 41q-45 0 -86 -13l-61 60l141 155q-160 31 -250 141.5t-90 278.5
q0 158 76.5 291t211 211t296.5 78q164 0 278.5 -66t171.5 -196l-321 -160l-19 2q-24 54 -55 77t-74 23q-76 0 -127 -64.5t-51 -160.5q0 -67 34 -106t89 -39q91 0 164 102z" />
    <glyph glyph-name="egrave" unicode="&#xe8;" horiz-adv-x="1198" 
d="M662 1475l245 -377h-297l-309 358l12 19h349zM1067 406h-668v-5q-10 -87 26.5 -126t98.5 -39q42 0 82.5 22.5t69.5 63.5l20 6l312 -97q-78 -132 -212 -201t-311 -69q-222 0 -351.5 115.5t-129.5 314.5q0 161 78.5 294t215.5 209.5t302 76.5q221 0 352 -118t131 -318
q0 -70 -16 -129zM596 715q-110 0 -162 -148h271q6 68 -23 108t-86 40z" />
    <glyph glyph-name="eacute" unicode="&#xe9;" horiz-adv-x="1198" 
d="M1032 1475l10 -19l-348 -358h-305l285 377h358zM1067 406h-668v-5q-10 -87 26.5 -126t98.5 -39q42 0 82.5 22.5t69.5 63.5l20 6l312 -97q-78 -132 -212 -201t-311 -69q-222 0 -351.5 115.5t-129.5 314.5q0 161 78.5 294t215.5 209.5t302 76.5q221 0 352 -118t131 -318
q0 -70 -16 -129zM596 715q-110 0 -162 -148h271q6 68 -23 108t-86 40z" />
    <glyph glyph-name="ecircumflex" unicode="&#xea;" horiz-adv-x="1198" 
d="M705 1296l-177 -202h-252l-14 20l297 356h328l196 -356l-18 -20h-244zM600 971q221 0 352 -118t131 -318q0 -70 -16 -129h-668v-5q-10 -87 26.5 -126t98.5 -39q42 0 82.5 22.5t69.5 63.5l20 6l312 -97q-78 -132 -212 -201t-311 -69q-222 0 -351.5 115.5t-129.5 314.5
q0 161 78.5 294t215.5 209.5t302 76.5zM434 567h271q6 68 -23 108t-86 40q-110 0 -162 -148z" />
    <glyph glyph-name="edieresis" unicode="&#xeb;" horiz-adv-x="1198" 
d="M469 1079q-73 0 -122.5 49t-49.5 121t50 122t122 50q71 0 120.5 -50t49.5 -122t-49 -121t-121 -49zM895 1079q-72 0 -121 49t-49 121t49.5 122t120.5 50q72 0 122 -50t50 -122t-49.5 -121t-122.5 -49zM1067 406h-668v-5q-10 -87 26.5 -126t98.5 -39q42 0 82.5 22.5
t69.5 63.5l20 6l312 -97q-78 -132 -212 -201t-311 -69q-222 0 -351.5 115.5t-129.5 314.5q0 161 78.5 294t215.5 209.5t302 76.5q221 0 352 -118t131 -318q0 -70 -16 -129zM596 715q-110 0 -162 -148h271q6 68 -23 108t-86 40z" />
    <glyph glyph-name="igrave" unicode="&#xec;" horiz-adv-x="612" 
d="M594 1098h-297l-309 358l12 19h348zM383 0h-399l131 932h399z" />
    <glyph glyph-name="iacute" unicode="&#xed;" horiz-adv-x="612" 
d="M381 1098h-305l284 377h359l10 -19zM383 0h-399l131 932h399z" />
    <glyph glyph-name="icircumflex" unicode="&#xee;" horiz-adv-x="612" 
d="M508 1094l-117 202l-176 -202h-252l-14 20l297 356h327l197 -356l-18 -20h-244zM383 0h-399l131 932h399z" />
    <glyph glyph-name="idieresis" unicode="&#xef;" horiz-adv-x="612" 
d="M156 1079q-73 0 -122.5 49t-49.5 121t50 122t122 50q71 0 120.5 -50t49.5 -122t-49 -121t-121 -49zM582 1079q-72 0 -121 49t-49 121t49.5 122t120.5 50q72 0 122 -50t50 -122t-49.5 -121t-122.5 -49zM383 0h-399l131 932h399z" />
    <glyph glyph-name="eth" unicode="&#xf0;" horiz-adv-x="1232" 
d="M1126 1362l-188 -82q178 -262 178 -567q0 -219 -86 -390.5t-241 -266.5t-353 -95q-200 0 -316 116.5t-116 315.5q0 154 62.5 287.5t167.5 212t225 78.5q99 0 173.5 -46.5t115.5 -133.5q9 159 -132 346l-159 -72l-84 123l143 63q-68 68 -113 105l308 166q80 -63 133 -125
l198 88zM516 285q79 0 134 62t55 151q0 67 -36.5 108t-95.5 41q-77 0 -127.5 -63t-50.5 -158q0 -66 32.5 -103.5t88.5 -37.5z" />
    <glyph glyph-name="ntilde" unicode="&#xf1;" horiz-adv-x="1228" 
d="M821 1100q91 0 165.5 79t100.5 203h-157l-19 -12q-27 -65 -82 -65q-36 0 -79.5 19.5t-92 38.5t-98.5 19q-92 0 -166.5 -79t-99.5 -203h160l18 12q13 34 31.5 51t50.5 17q36 0 77 -20t89.5 -40t101.5 -20zM-16 0l131 932h387l-19 -141q143 180 334 180q148 0 220 -98.5
t46 -278.5l-84 -594h-399l70 483q12 90 -6 124t-66 34q-56 0 -98.5 -52.5t-55.5 -146.5l-61 -442h-399z" />
    <glyph glyph-name="ograve" unicode="&#xf2;" horiz-adv-x="1208" 
d="M928 1098h-297l-309 358l12 19h348zM492 -39q-218 0 -352 121.5t-134 318.5q0 154 81 285.5t221 208t306 76.5q216 0 351 -121t135 -315q0 -115 -49 -221.5t-131 -183.5t-194.5 -123t-233.5 -46zM522 289q75 0 131 64t56 149q0 65 -34.5 103t-92.5 38q-77 0 -132 -62
t-55 -151q0 -62 36 -101.5t91 -39.5z" />
    <glyph glyph-name="oacute" unicode="&#xf3;" horiz-adv-x="1208" 
d="M715 1098h-305l284 377h359l10 -19zM492 -39q-218 0 -352 121.5t-134 318.5q0 154 81 285.5t221 208t306 76.5q216 0 351 -121t135 -315q0 -115 -49 -221.5t-131 -183.5t-194.5 -123t-233.5 -46zM522 289q75 0 131 64t56 149q0 65 -34.5 103t-92.5 38q-77 0 -132 -62
t-55 -151q0 -62 36 -101.5t91 -39.5z" />
    <glyph glyph-name="ocircumflex" unicode="&#xf4;" horiz-adv-x="1208" 
d="M842 1094l-117 202l-176 -202h-252l-14 20l297 356h327l197 -356l-19 -20h-243zM492 -39q-218 0 -352 121.5t-134 318.5q0 154 81 285.5t221 208t306 76.5q216 0 351 -121t135 -315q0 -115 -49 -221.5t-131 -183.5t-194.5 -123t-233.5 -46zM522 289q75 0 131 64t56 149
q0 65 -34.5 103t-92.5 38q-77 0 -132 -62t-55 -151q0 -62 36 -101.5t91 -39.5z" />
    <glyph glyph-name="otilde" unicode="&#xf5;" horiz-adv-x="1208" 
d="M834 1100q91 0 165.5 79t100.5 203h-158l-18 -12q-27 -65 -82 -65q-36 0 -79.5 19.5t-92.5 38.5t-99 19q-92 0 -166.5 -79t-99.5 -203h160l18 12q13 34 31.5 51t50.5 17q36 0 77.5 -20t90 -40t101.5 -20zM492 -39q-218 0 -352 121.5t-134 318.5q0 154 81 285.5t221 208
t306 76.5q216 0 351 -121t135 -315q0 -115 -49 -221.5t-131 -183.5t-194.5 -123t-233.5 -46zM522 289q75 0 131 64t56 149q0 65 -34.5 103t-92.5 38q-77 0 -132 -62t-55 -151q0 -62 36 -101.5t91 -39.5z" />
    <glyph glyph-name="odieresis" unicode="&#xf6;" horiz-adv-x="1208" 
d="M489 1079q-73 0 -122.5 49t-49.5 121t50 122t122 50q71 0 120.5 -50t49.5 -122t-49 -121t-121 -49zM915 1079q-72 0 -121 49t-49 121t49.5 122t120.5 50q72 0 122 -50t50 -122t-49.5 -121t-122.5 -49zM492 -39q-218 0 -352 121.5t-134 318.5q0 154 81 285.5t221 208
t306 76.5q216 0 351 -121t135 -315q0 -115 -49 -221.5t-131 -183.5t-194.5 -123t-233.5 -46zM522 289q75 0 131 64t56 149q0 65 -34.5 103t-92.5 38q-77 0 -132 -62t-55 -151q0 -62 36 -101.5t91 -39.5z" />
    <glyph glyph-name="divide" unicode="&#xf7;" horiz-adv-x="1433" 
d="M688 846q-75 0 -123.5 50t-48.5 122q0 71 48.5 118.5t123.5 47.5t123.5 -47.5t48.5 -118.5q0 -72 -48.5 -122t-123.5 -50zM1229 494h-1082v258h1082v-258zM688 59q-75 0 -123.5 50.5t-48.5 123.5q0 70 49 118t123 48t123 -48t49 -118q0 -73 -48.5 -123.5t-123.5 -50.5z
" />
    <glyph glyph-name="oslash" unicode="&#xf8;" horiz-adv-x="1208" 
d="M492 -39q-163 0 -289 74l-66 -66l-82 68l66 65q-115 118 -115 299q0 154 81 286t221 209t306 77q170 0 291 -76l66 66l80 -68l-64 -64q113 -122 113 -296q0 -115 -49 -221.5t-131 -183.5t-194.5 -123t-233.5 -46zM399 385l248 250q-24 18 -63 18q-79 0 -136 -66t-57 -159
q0 -27 8 -43zM522 281q76 0 133.5 67.5t57.5 155.5q0 23 -6 41l-246 -248q26 -16 61 -16z" />
    <glyph glyph-name="ugrave" unicode="&#xf9;" horiz-adv-x="1218" 
d="M883 1098h-297l-310 358l13 19h348zM285 -39q-144 0 -211 102t-41 287l84 582h399l-72 -500q-20 -141 62 -141q56 0 97.5 54t53.5 147l62 440h399l-129 -932h-389l21 141q-146 -180 -336 -180z" />
    <glyph glyph-name="uacute" unicode="&#xfa;" horiz-adv-x="1218" 
d="M670 1098h-305l284 377h359l10 -19zM285 -39q-144 0 -211 102t-41 287l84 582h399l-72 -500q-20 -141 62 -141q56 0 97.5 54t53.5 147l62 440h399l-129 -932h-389l21 141q-146 -180 -336 -180z" />
    <glyph glyph-name="ucircumflex" unicode="&#xfb;" horiz-adv-x="1218" 
d="M797 1094l-117 202l-176 -202h-252l-14 20l297 356h327l197 -356l-19 -20h-243zM285 -39q-144 0 -211 102t-41 287l84 582h399l-72 -500q-20 -141 62 -141q56 0 97.5 54t53.5 147l62 440h399l-129 -932h-389l21 141q-146 -180 -336 -180z" />
    <glyph glyph-name="udieresis" unicode="&#xfc;" horiz-adv-x="1218" 
d="M444 1079q-73 0 -122.5 49t-49.5 121t50 122t122 50q71 0 120.5 -50t49.5 -122t-49 -121t-121 -49zM870 1079q-72 0 -121 49t-49 121t49.5 122t120.5 50q72 0 122 -50t50 -122t-49.5 -121t-122.5 -49zM285 -39q-144 0 -211 102t-41 287l84 582h399l-72 -500
q-20 -141 62 -141q56 0 97.5 54t53.5 147l62 440h399l-129 -932h-389l21 141q-146 -180 -336 -180z" />
    <glyph glyph-name="yacute" unicode="&#xfd;" horiz-adv-x="1193" 
d="M651 1098h-305l285 377h358l10 -19zM401 -446h-430l303 497l-262 881h461l41 -557h4l230 557h452z" />
    <glyph glyph-name="thorn" unicode="&#xfe;" horiz-adv-x="1243" 
d="M319 -446h-399l275 1947h399l-59 -414q-18 -144 -52 -296q70 87 160 133.5t186 46.5q143 0 226.5 -106t83.5 -290q0 -168 -62 -309.5t-169 -223t-234 -81.5q-94 0 -169 46t-114 130q-4 -86 -31 -289zM569 285q77 0 128 63t51 158q0 64 -34 102.5t-91 38.5q-77 0 -131 -63
t-54 -156q0 -64 36 -103.5t95 -39.5z" />
    <glyph glyph-name="ydieresis" unicode="&#xff;" horiz-adv-x="1193" 
d="M426 1079q-73 0 -122.5 49t-49.5 121t50 122t122 50q71 0 120.5 -50t49.5 -122t-49 -121t-121 -49zM852 1079q-72 0 -121 49t-49 121t49.5 122t120.5 50q72 0 122 -50t50 -122t-49.5 -121t-122.5 -49zM401 -446h-430l303 497l-262 881h461l41 -557h4l230 557h452z" />
    <glyph glyph-name="Amacron" unicode="&#x100;" horiz-adv-x="1552" 
d="M563 1835h690l-30 -213h-691zM1442 0h-481l-37 225h-461l-98 -225h-494l745 1450h496zM690 745l-92 -213h279l-35 213q-25 167 -25 334h-10q-45 -164 -117 -334z" />
    <glyph glyph-name="amacron" unicode="&#x101;" horiz-adv-x="1257" 
d="M1049 1153h-691l29 213h690zM315 -39q-144 0 -227.5 105t-83.5 296q0 116 33.5 226t93 195t147 136.5t187.5 51.5q93 0 168 -47t117 -136l20 144h387l-131 -932h-395l4 31q6 43 22 106q-63 -85 -154 -130.5t-188 -45.5zM514 285q76 0 132 60.5t56 154.5q0 66 -35.5 106.5
t-93.5 40.5q-74 0 -126 -63t-52 -162q0 -64 32.5 -100.5t86.5 -36.5z" />
    <glyph glyph-name="Abreve" unicode="&#x102;" horiz-adv-x="1552" 
d="M868 1554q-159 0 -242 72t-79 209l22 18h185q1 -46 38 -70t103 -24q138 0 166 94h182l21 -18q-32 -137 -134.5 -209t-261.5 -72zM1442 0h-481l-37 225h-461l-98 -225h-494l745 1450h496zM690 745l-92 -213h279l-35 213q-25 167 -25 334h-10q-45 -164 -117 -334z" />
    <glyph glyph-name="abreve" unicode="&#x103;" horiz-adv-x="1257" 
d="M690 1085q-161 0 -245 73t-80 216l22 19h184q3 -103 140 -103q144 0 168 103h184l18 -19q-32 -144 -131.5 -216.5t-259.5 -72.5zM315 -39q-144 0 -227.5 105t-83.5 296q0 116 33.5 226t93 195t147 136.5t187.5 51.5q93 0 168 -47t117 -136l20 144h387l-131 -932h-395
l4 31q6 43 22 106q-63 -85 -154 -130.5t-188 -45.5zM514 285q76 0 132 60.5t56 154.5q0 66 -35.5 106.5t-93.5 40.5q-74 0 -126 -63t-52 -162q0 -64 32.5 -100.5t86.5 -36.5z" />
    <glyph glyph-name="Aogonek" unicode="&#x104;" horiz-adv-x="1552" 
d="M1305 -246h14l35 -174q-115 -65 -260 -65q-105 0 -164.5 41t-59.5 112q0 186 267 332h-176l-37 225h-461l-98 -225h-494l745 1450h496l330 -1450h-117q-186 -140 -186 -242q0 -43 49 -43q55 0 117 39zM690 745l-92 -213h279l-35 213q-25 167 -25 334h-10
q-45 -164 -117 -334z" />
    <glyph glyph-name="aogonek" unicode="&#x105;" horiz-adv-x="1257" 
d="M1026 0h-68q-186 -140 -186 -242q0 -43 49 -43q55 0 117 39h14l35 -174q-115 -65 -260 -65q-105 0 -164 41t-59 112q0 187 266 332h-139l4 31q6 43 22 106q-63 -85 -154 -130.5t-188 -45.5q-144 0 -227.5 105t-83.5 296q0 116 33.5 226t93 195t147 136.5t187.5 51.5
q93 0 168 -47t117 -136l20 144h387zM514 285q76 0 132 60.5t56 154.5q0 66 -35.5 106.5t-93.5 40.5q-74 0 -126 -63t-52 -162q0 -64 32.5 -100.5t86.5 -36.5z" />
    <glyph glyph-name="Cacute" unicode="&#x106;" horiz-adv-x="1576" 
d="M989 1565h-289l244 274h342l8 -18zM731 -39q-192 0 -345 80t-240 227.5t-87 337.5q0 182 70 346t187.5 281.5t278.5 186.5t337 69q212 0 370.5 -91.5t233.5 -267.5l-346 -190l-37 6q-75 152 -242 152q-165 0 -279 -131t-114 -310q0 -137 80.5 -221t206.5 -84
q166 0 289 152l36 6l293 -193q-124 -175 -306 -265.5t-386 -90.5z" />
    <glyph glyph-name="cacute" unicode="&#x107;" horiz-adv-x="1116" 
d="M680 1098h-305l284 377h359l10 -19zM465 -39q-212 0 -335.5 116t-123.5 314q0 158 76.5 291t211 211t296.5 78q164 0 278.5 -66t171.5 -196l-321 -160l-19 2q-24 54 -55 77t-74 23q-76 0 -127 -64.5t-51 -160.5q0 -67 34 -106t89 -39q91 0 164 102l20 2l275 -164
q-93 -128 -223.5 -194t-286.5 -66z" />
    <glyph glyph-name="Ccircumflex" unicode="&#x108;" horiz-adv-x="1576" 
d="M1128 1565l-122 135l-168 -135h-250l-15 20l289 254h312l210 -254l-18 -20h-238zM731 -39q-192 0 -345 80t-240 227.5t-87 337.5q0 182 70 346t187.5 281.5t278.5 186.5t337 69q212 0 370.5 -91.5t233.5 -267.5l-346 -190l-37 6q-75 152 -242 152q-165 0 -279 -131
t-114 -310q0 -137 80.5 -221t206.5 -84q166 0 289 152l36 6l293 -193q-124 -175 -306 -265.5t-386 -90.5z" />
    <glyph glyph-name="ccircumflex" unicode="&#x109;" horiz-adv-x="1116" 
d="M807 1094l-117 202l-176 -202h-252l-14 20l297 356h327l197 -356l-18 -20h-244zM465 -39q-212 0 -335.5 116t-123.5 314q0 158 76.5 291t211 211t296.5 78q164 0 278.5 -66t171.5 -196l-321 -160l-19 2q-24 54 -55 77t-74 23q-76 0 -127 -64.5t-51 -160.5q0 -67 34 -106
t89 -39q91 0 164 102l20 2l275 -164q-93 -128 -223.5 -194t-286.5 -66z" />
    <glyph glyph-name="Cdotaccent" unicode="&#x10a;" horiz-adv-x="1576" 
d="M1004 1567q-100 0 -164 56t-64 146q0 89 63.5 144t164.5 55t163 -55t62 -144q0 -90 -62.5 -146t-162.5 -56zM731 -39q-192 0 -345 80t-240 227.5t-87 337.5q0 182 70 346t187.5 281.5t278.5 186.5t337 69q212 0 370.5 -91.5t233.5 -267.5l-346 -190l-37 6
q-75 152 -242 152q-165 0 -279 -131t-114 -310q0 -137 80.5 -221t206.5 -84q166 0 289 152l36 6l293 -193q-124 -175 -306 -265.5t-386 -90.5z" />
    <glyph glyph-name="cdotaccent" unicode="&#x10b;" horiz-adv-x="1116" 
d="M645 1057q-100 0 -163.5 57t-63.5 146q0 90 62.5 145t164.5 55q101 0 163 -55.5t62 -144.5t-62.5 -146t-162.5 -57zM465 -39q-212 0 -335.5 116t-123.5 314q0 158 76.5 291t211 211t296.5 78q164 0 278.5 -66t171.5 -196l-321 -160l-19 2q-24 54 -55 77t-74 23
q-76 0 -127 -64.5t-51 -160.5q0 -67 34 -106t89 -39q91 0 164 102l20 2l275 -164q-93 -128 -223.5 -194t-286.5 -66z" />
    <glyph glyph-name="Ccaron" unicode="&#x10c;" horiz-adv-x="1576" 
d="M1137 1565h-312l-215 258l21 20h241l127 -139l166 139h244l12 -20zM731 -39q-192 0 -345 80t-240 227.5t-87 337.5q0 182 70 346t187.5 281.5t278.5 186.5t337 69q212 0 370.5 -91.5t233.5 -267.5l-346 -190l-37 6q-75 152 -242 152q-165 0 -279 -131t-114 -310
q0 -137 80.5 -221t206.5 -84q166 0 289 152l36 6l293 -193q-124 -175 -306 -265.5t-386 -90.5z" />
    <glyph glyph-name="ccaron" unicode="&#x10d;" horiz-adv-x="1116" 
d="M549 1470l115 -202l176 202h250l14 -20l-299 -356h-326l-196 356l18 20h248zM465 -39q-212 0 -335.5 116t-123.5 314q0 158 76.5 291t211 211t296.5 78q164 0 278.5 -66t171.5 -196l-321 -160l-19 2q-24 54 -55 77t-74 23q-76 0 -127 -64.5t-51 -160.5q0 -67 34 -106
t89 -39q91 0 164 102l20 2l275 -164q-93 -128 -223.5 -194t-286.5 -66z" />
    <glyph glyph-name="Dcaron" unicode="&#x10e;" horiz-adv-x="1529" 
d="M954 1565h-311l-215 258l21 20h241l127 -139l166 139h244l12 -20zM508 0h-496l203 1450h492q342 0 536.5 -160.5t196.5 -443.5q0 -185 -67 -342t-187.5 -268t-295 -173.5t-382.5 -62.5zM575 1083l-100 -716h74q224 0 343.5 114t117.5 324q-2 137 -91 207.5t-262 70.5h-82
z" />
    <glyph glyph-name="dcaron" unicode="&#x10f;" horiz-adv-x="1585" 
d="M313 -39q-144 0 -226.5 105t-82.5 296q0 156 55.5 294t162.5 226.5t241 88.5q92 0 167.5 -46.5t117.5 -133.5q2 92 28 296l60 414h399l-211 -1501h-387l20 139q-65 -86 -156 -132t-188 -46zM1700 1395l-254 -398l-209 80l193 396l30 16zM514 285q74 0 130 61t56 154
q0 66 -35 106.5t-92 40.5q-75 0 -126.5 -63.5t-51.5 -161.5q0 -64 31.5 -100.5t87.5 -36.5z" />
    <glyph glyph-name="Dcroat" unicode="&#x110;" horiz-adv-x="1529" 
d="M215 1450h492q342 0 536.5 -160.5t196.5 -443.5q0 -185 -67 -342t-187.5 -268t-295 -173.5t-382.5 -62.5h-496l82 592h-100l37 266h102zM475 367h74q224 0 343.5 114t117.5 324q-2 137 -91 207.5t-262 70.5h-82l-30 -225h258l-39 -266h-258z" />
    <glyph glyph-name="dcroat" unicode="&#x111;" horiz-adv-x="1255" 
d="M1214 1350h101l-37 -263h-100l-154 -1087h-387l20 139q-65 -86 -156 -132t-188 -46q-144 0 -226.5 105t-82.5 296q0 156 55.5 294t162.5 226.5t241 88.5q92 0 167.5 -46.5t117.5 -133.5q2 92 28 296h-248l37 263h248l23 151h399zM514 285q74 0 130 61t56 154
q0 66 -35 106.5t-92 40.5q-75 0 -126.5 -63.5t-51.5 -161.5q0 -64 31.5 -100.5t87.5 -36.5z" />
    <glyph glyph-name="Emacron" unicode="&#x112;" horiz-adv-x="1200" 
d="M1049 1622h-691l31 213h690zM12 0l205 1450h913l3 -348h-553l-29 -203h485l-45 -330h-487l-31 -221h553l-86 -348h-928z" />
    <glyph glyph-name="emacron" unicode="&#x113;" horiz-adv-x="1198" 
d="M344 1366h690l-28 -213h-691zM1067 406h-668v-5q-10 -87 26.5 -126t98.5 -39q42 0 82.5 22.5t69.5 63.5l20 6l312 -97q-78 -132 -212 -201t-311 -69q-222 0 -351.5 115.5t-129.5 314.5q0 161 78.5 294t215.5 209.5t302 76.5q221 0 352 -118t131 -318q0 -70 -16 -129z
M596 715q-110 0 -162 -148h271q6 68 -23 108t-86 40z" />
    <glyph glyph-name="Edotaccent" unicode="&#x116;" horiz-adv-x="1200" 
d="M721 1567q-100 0 -163.5 56t-63.5 146q0 89 63 144t164 55t163 -55t62 -144q0 -90 -62.5 -146t-162.5 -56zM12 0l205 1450h913l3 -348h-553l-29 -203h485l-45 -330h-487l-31 -221h553l-86 -348h-928z" />
    <glyph glyph-name="edotaccent" unicode="&#x117;" horiz-adv-x="1198" 
d="M657 1057q-100 0 -163.5 57t-63.5 146q0 90 62.5 145t164.5 55q101 0 163.5 -55.5t62.5 -144.5t-63 -146t-163 -57zM1067 406h-668v-5q-10 -87 26.5 -126t98.5 -39q42 0 82.5 22.5t69.5 63.5l20 6l312 -97q-78 -132 -212 -201t-311 -69q-222 0 -351.5 115.5t-129.5 314.5
q0 161 78.5 294t215.5 209.5t302 76.5q221 0 352 -118t131 -318q0 -70 -16 -129zM596 715q-110 0 -162 -148h271q6 68 -23 108t-86 40z" />
    <glyph glyph-name="Eogonek" unicode="&#x118;" horiz-adv-x="1200" 
d="M1036 899l-45 -330h-487l-31 -221h553l-86 -348h-72q-186 -140 -186 -242q0 -43 49 -43q55 0 117 39h14l35 -174q-115 -65 -260 -65q-105 0 -164 41t-59 112q0 187 266 332h-668l205 1450h913l3 -348h-553l-29 -203h485z" />
    <glyph glyph-name="eogonek" unicode="&#x119;" horiz-adv-x="1198" 
d="M1067 406h-668v-5q-10 -87 26.5 -126t98.5 -39q42 0 82.5 22.5t69.5 63.5l20 6l312 -97q-98 -165 -283 -231q-186 -140 -186 -242q0 -43 49 -43q55 0 117 39h14l35 -174q-115 -65 -260 -65q-105 0 -164.5 41t-59.5 112q0 159 201 293q-216 5 -341.5 119.5t-125.5 310.5
q0 161 78.5 294t215.5 209.5t302 76.5q221 0 352 -118t131 -318q0 -70 -16 -129zM596 715q-110 0 -162 -148h271q6 68 -23 108t-86 40z" />
    <glyph glyph-name="Ecaron" unicode="&#x11a;" horiz-adv-x="1200" 
d="M854 1565h-311l-215 258l20 20h242l127 -139l166 139h243l13 -20zM12 0l205 1450h913l3 -348h-553l-29 -203h485l-45 -330h-487l-31 -221h553l-86 -348h-928z" />
    <glyph glyph-name="ecaron" unicode="&#x11b;" horiz-adv-x="1198" 
d="M1118 1450l-299 -356h-325l-197 356l18 20h248l115 -202l176 202h250zM600 971q221 0 352 -118t131 -318q0 -70 -16 -129h-668v-5q-10 -87 26.5 -126t98.5 -39q42 0 82.5 22.5t69.5 63.5l20 6l312 -97q-78 -132 -212 -201t-311 -69q-222 0 -351.5 115.5t-129.5 314.5
q0 161 78.5 294t215.5 209.5t302 76.5zM434 567h271q6 68 -23 108t-86 40q-110 0 -162 -148z" />
    <glyph glyph-name="Gbreve" unicode="&#x11e;" horiz-adv-x="1650" 
d="M981 1554q-159 0 -242.5 72t-79.5 209l23 18h184q1 -45 38.5 -69.5t103.5 -24.5q138 0 166 94h182l20 -18q-32 -137 -134 -209t-261 -72zM653 -39q-267 0 -431.5 175t-164.5 460q0 183 69 349t186.5 285t279.5 189t342 70q225 0 383 -90.5t233 -263.5l-348 -191l-35 8
q-77 146 -252 146q-170 0 -285.5 -130.5t-115.5 -318.5q0 -144 78.5 -229.5t206.5 -85.5q107 0 187 46t112 128v2h-258l43 305h647l-115 -815h-373l5 35q8 68 59 162l-4 2q-157 -238 -449 -238z" />
    <glyph glyph-name="gbreve" unicode="&#x11f;" horiz-adv-x="1259" 
d="M692 1085q-161 0 -245 73t-80 216l22 19h184q3 -103 140 -103q144 0 168 103h184l18 -19q-32 -144 -131.5 -216.5t-259.5 -72.5zM440 -471q-172 0 -288.5 55.5t-194.5 175.5l246 156l12 -2q38 -52 88 -75t123 -23q87 0 139 45.5t66 132.5q6 54 31 156
q-64 -86 -156.5 -131.5t-190.5 -45.5q-144 0 -227.5 105t-83.5 295q0 156 56 291.5t163 221t242 85.5q93 0 169 -47t118 -136l18 144h389l-125 -895q-36 -258 -178 -383t-416 -125zM516 297q76 0 132.5 59.5t56.5 147.5q0 63 -36 103t-96 40q-75 0 -126.5 -62t-51.5 -157
q0 -60 33 -95.5t88 -35.5z" />
    <glyph glyph-name="Gdotaccent" unicode="&#x120;" horiz-adv-x="1650" 
d="M1008 1567q-100 0 -164 56t-64 146q0 89 63.5 144t164.5 55t163 -55t62 -144q0 -90 -62.5 -146t-162.5 -56zM653 -39q-267 0 -431.5 175t-164.5 460q0 183 69 349t186.5 285t279.5 189t342 70q225 0 383 -90.5t233 -263.5l-348 -191l-35 8q-77 146 -252 146
q-170 0 -285.5 -130.5t-115.5 -318.5q0 -144 78.5 -229.5t206.5 -85.5q107 0 187 46t112 128v2h-258l43 305h647l-115 -815h-373l5 35q8 68 59 162l-4 2q-157 -238 -449 -238z" />
    <glyph glyph-name="gdotaccent" unicode="&#x121;" horiz-adv-x="1259" 
d="M702 1057q-100 0 -163.5 57t-63.5 146q0 90 62.5 145t164.5 55q101 0 163.5 -55.5t62.5 -144.5t-63 -146t-163 -57zM440 -471q-172 0 -288.5 55.5t-194.5 175.5l246 156l12 -2q38 -52 88 -75t123 -23q87 0 139 45.5t66 132.5q6 54 31 156q-64 -86 -156.5 -131.5
t-190.5 -45.5q-144 0 -227.5 105t-83.5 295q0 156 56 291.5t163 221t242 85.5q93 0 169 -47t118 -136l18 144h389l-125 -895q-36 -258 -178 -383t-416 -125zM516 297q76 0 132.5 59.5t56.5 147.5q0 63 -36 103t-96 40q-75 0 -126.5 -62t-51.5 -157q0 -60 33 -95.5t88 -35.5z
" />
    <glyph glyph-name="uni0122" unicode="&#x122;" horiz-adv-x="1650" 
d="M653 -39q-267 0 -431.5 175t-164.5 460q0 183 69 349t186.5 285t279.5 189t342 70q225 0 383 -90.5t233 -263.5l-348 -191l-35 8q-77 146 -252 146q-170 0 -285.5 -130.5t-115.5 -318.5q0 -144 78.5 -229.5t206.5 -85.5q107 0 187 46t112 128v2h-258l43 305h647
l-115 -815h-373l5 35q8 68 59 162l-4 2q-157 -238 -449 -238zM963 -207l-277 -422l-231 97l188 426l29 16z" />
    <glyph glyph-name="uni0123" unicode="&#x123;" horiz-adv-x="1259" 
d="M500 1190l276 422l232 -96l-189 -426l-28 -17zM440 -471q-172 0 -288.5 55.5t-194.5 175.5l246 156l12 -2q38 -52 88 -75t123 -23q87 0 139 45.5t66 132.5q6 54 31 156q-64 -86 -156.5 -131.5t-190.5 -45.5q-144 0 -227.5 105t-83.5 295q0 156 56 291.5t163 221t242 85.5
q93 0 169 -47t118 -136l18 144h389l-125 -895q-36 -258 -178 -383t-416 -125zM516 297q76 0 132.5 59.5t56.5 147.5q0 63 -36 103t-96 40q-75 0 -126.5 -62t-51.5 -157q0 -60 33 -95.5t88 -35.5z" />
    <glyph glyph-name="Hbar" unicode="&#x126;" horiz-adv-x="1527" 
d="M1454 1300h90l-31 -213h-90l-153 -1087h-414l78 547h-432l-76 -547h-414l154 1087h-90l28 213h93l20 150h414l-23 -150h430l23 150h414zM553 911h430l25 176h-430z" />
    <glyph glyph-name="hbar" unicode="&#x127;" horiz-adv-x="1228" 
d="M817 971q148 0 220 -98t46 -277l-86 -596h-397l70 481q11 91 -7 125.5t-65 34.5q-56 0 -98.5 -52.5t-55.5 -146.5l-61 -442h-399l153 1087h-100l37 263h100l21 151h399l-21 -151h250l-35 -263h-251v-4q-27 -184 -54 -292q143 180 334 180z" />
    <glyph glyph-name="Itilde" unicode="&#x128;" horiz-adv-x="681" 
d="M580 1569q92 0 166.5 79t99.5 203h-158l-16 -12q-27 -65 -82 -65q-37 0 -80.5 19t-93 38.5t-99.5 19.5q-91 0 -165.5 -79t-100.5 -203h162l18 12q23 68 82 68q36 0 77 -20t89.5 -40t100.5 -20zM12 0l205 1450h414l-205 -1450h-414z" />
    <glyph glyph-name="itilde" unicode="&#x129;" horiz-adv-x="612" 
d="M500 1100q91 0 165.5 79t100.5 203h-158l-18 -12q-27 -65 -82 -65q-36 0 -79.5 19.5t-92 38.5t-98.5 19q-92 0 -167 -79t-100 -203h160l19 12q13 34 31 51t50 17q36 0 77.5 -20t90 -40t101.5 -20zM383 0h-399l131 932h399z" />
    <glyph glyph-name="Imacron" unicode="&#x12a;" horiz-adv-x="681" 
d="M782 1622h-690l31 213h690zM12 0l205 1450h414l-205 -1450h-414z" />
    <glyph glyph-name="imacron" unicode="&#x12b;" horiz-adv-x="612" 
d="M692 1153h-690l29 213h690zM383 0h-399l131 932h399z" />
    <glyph glyph-name="Ibreve" unicode="&#x12c;" horiz-adv-x="681" 
d="M428 1554q-159 0 -242.5 72t-79.5 209l23 18h184q1 -45 38.5 -69.5t103.5 -24.5q138 0 166 94h182l20 -18q-32 -137 -134 -209t-261 -72zM12 0l205 1450h414l-205 -1450h-414z" />
    <glyph glyph-name="ibreve" unicode="&#x12d;" horiz-adv-x="612" 
d="M332 1085q-161 0 -245.5 73t-80.5 216l23 19h184q3 -103 139 -103q144 0 168 103h185l18 -19q-32 -144 -131.5 -216.5t-259.5 -72.5zM383 0h-399l131 932h399z" />
    <glyph glyph-name="Iogonek" unicode="&#x12e;" horiz-adv-x="681" 
d="M426 0h-72q-186 -140 -186 -242q0 -43 49 -43q55 0 117 39h14l35 -174q-115 -65 -260 -65q-105 0 -164 41t-59 112q0 187 266 332h-154l205 1450h414z" />
    <glyph glyph-name="iogonek" unicode="&#x12f;" horiz-adv-x="612" 
d="M344 1057q-100 0 -163.5 57t-63.5 146q0 90 62.5 145t164.5 55q101 0 163 -55.5t62 -144.5t-62.5 -146t-162.5 -57zM131 0h-147l131 932h399l-131 -932h-64q-186 -140 -186 -242q0 -43 49 -43q55 0 117 39h14l35 -174q-115 -65 -260 -65q-105 0 -164 41t-59 112
q0 187 266 332z" />
    <glyph glyph-name="Idotaccent" unicode="&#x130;" horiz-adv-x="681" 
d="M455 1567q-100 0 -164 56t-64 146q0 89 63.5 144t164.5 55t163 -55t62 -144q0 -90 -62.5 -146t-162.5 -56zM12 0l205 1450h414l-205 -1450h-414z" />
    <glyph glyph-name="dotlessi" unicode="&#x131;" horiz-adv-x="612" 
d="M383 0h-399l131 932h399z" />
    <glyph glyph-name="IJ" unicode="&#x132;" horiz-adv-x="1822" 
d="M12 0l205 1450h414l-205 -1450h-414zM977 442l37 -10q9 -96 94 -96q53 0 84.5 43t46.5 147l131 924h414l-131 -928q-38 -278 -184.5 -419.5t-387.5 -141.5q-187 0 -311 98.5t-145 253.5z" />
    <glyph glyph-name="ij" unicode="&#x133;" horiz-adv-x="1294" 
d="M362 1077q-100 0 -163.5 57t-63.5 146q0 90 62.5 145.5t164.5 55.5q101 0 163.5 -56t62.5 -145t-63 -146t-163 -57zM1042 1077q-100 0 -163.5 57t-63.5 146q0 90 62.5 145.5t164.5 55.5q101 0 163.5 -56t62.5 -145t-63 -146t-163 -57zM383 0h-399l131 932h399zM582 -471
q-124 0 -222 37l80 303l19 8q41 -18 86 -18q56 0 83 32.5t42 126.5l127 914h399l-129 -928q-35 -246 -155 -360.5t-330 -114.5z" />
    <glyph glyph-name="uni0136" unicode="&#x136;" horiz-adv-x="1505" 
d="M1059 1450h508l-600 -590l438 -860h-469l-272 559l-185 -178l-53 -381h-414l205 1450h414l-76 -539zM383 -532l188 426l29 16l291 -117l-277 -422z" />
    <glyph glyph-name="uni0137" unicode="&#x137;" horiz-adv-x="1224" 
d="M1110 0h-451l-159 311l-82 -75l-35 -236h-399l211 1501h399l-66 -475q-18 -128 -65 -364l272 270h482l-424 -369zM788 -207l-276 -422l-231 97l188 426l29 16z" />
    <glyph glyph-name="kgreenlandic" unicode="&#x138;" horiz-adv-x="1224" 
d="M1110 0h-451l-159 311l-82 -75l-35 -236h-399l131 932h397l-6 -43q-13 -95 -47 -234l276 277h482l-424 -369z" />
    <glyph glyph-name="Lacute" unicode="&#x139;" horiz-adv-x="1187" 
d="M449 1565h-289l243 274h342l9 -18zM12 0l205 1450h414l-152 -1075h602l-100 -375h-969z" />
    <glyph glyph-name="lacute" unicode="&#x13a;" horiz-adv-x="612" 
d="M434 1565h-289l244 274h342l8 -18zM383 0h-399l211 1501h399z" />
    <glyph glyph-name="uni013B" unicode="&#x13b;" horiz-adv-x="1187" 
d="M12 0l205 1450h414l-152 -1075h602l-100 -375h-969zM780 -207l-276 -422l-232 97l189 426l28 16z" />
    <glyph glyph-name="uni013C" unicode="&#x13c;" horiz-adv-x="612" 
d="M383 0h-399l211 1501h399zM416 -207l-277 -422l-231 97l188 426l29 16z" />
    <glyph glyph-name="Lcaron" unicode="&#x13d;" horiz-adv-x="1193" 
d="M1163 1395l-254 -398l-209 80l193 396l31 16zM12 0l205 1450h414l-152 -1075h602l-100 -375h-969z" />
    <glyph glyph-name="lcaron" unicode="&#x13e;" horiz-adv-x="940" 
d="M383 0h-399l211 1501h399zM1057 1395l-256 -398l-207 80l192 396l29 16z" />
    <glyph glyph-name="Ldot" unicode="&#x13f;" horiz-adv-x="1187" 
d="M12 0l205 1450h414l-152 -1075h602l-100 -375h-969zM893 608q-72 0 -121 50t-49 122t49 123t121 51t123 -51t51 -123t-51 -122t-123 -50z" />
    <glyph glyph-name="ldot" unicode="&#x140;" horiz-adv-x="913" 
d="M383 0h-399l211 1501h399zM752 623q-72 0 -122 51t-50 123t50 122t122 50t122 -50t50 -122t-50 -123t-122 -51z" />
    <glyph glyph-name="Lslash" unicode="&#x141;" horiz-adv-x="1187" 
d="M530 741l-51 -366h602l-100 -375h-969l72 510l-137 -72l35 254l139 72l96 686h414l-64 -455l279 144l-33 -252z" />
    <glyph glyph-name="lslash" unicode="&#x142;" horiz-adv-x="612" 
d="M526 1020l117 63l-35 -249l-116 -64l-109 -770h-399l75 532l-118 -63l34 252l119 63l101 717h399z" />
    <glyph glyph-name="Nacute" unicode="&#x143;" horiz-adv-x="1607" 
d="M946 1565h-289l244 274h342l8 -18zM424 0h-412l203 1450h424l250 -467q57 -105 164 -324h4q0 182 24 363l62 428h413l-204 -1456h-381l-297 502q-77 132 -164 321h-4q5 -184 -19 -364z" />
    <glyph glyph-name="nacute" unicode="&#x144;" horiz-adv-x="1228" 
d="M700 1098h-305l285 377h358l11 -19zM-16 0l131 932h387l-19 -141q143 180 334 180q148 0 220 -98.5t46 -278.5l-84 -594h-399l70 483q12 90 -6 124t-66 34q-56 0 -98.5 -52.5t-55.5 -146.5l-61 -442h-399z" />
    <glyph glyph-name="uni0145" unicode="&#x145;" horiz-adv-x="1607" 
d="M424 0h-412l203 1450h424l250 -467q57 -105 164 -324h4q0 182 24 363l62 428h413l-204 -1456h-381l-297 502q-77 132 -164 321h-4q5 -184 -19 -364zM979 -207l-277 -422l-231 97l188 426l29 16z" />
    <glyph glyph-name="uni0146" unicode="&#x146;" horiz-adv-x="1228" 
d="M-16 0l131 932h387l-19 -141q143 180 334 180q148 0 220 -98.5t46 -278.5l-84 -594h-399l70 483q12 90 -6 124t-66 34q-56 0 -98.5 -52.5t-55.5 -146.5l-61 -442h-399zM733 -207l-276 -422l-232 97l189 426l28 16z" />
    <glyph glyph-name="Ncaron" unicode="&#x147;" horiz-adv-x="1607" 
d="M1094 1565h-312l-215 258l21 20h241l127 -139l166 139h244l12 -20zM424 0h-412l203 1450h424l250 -467q57 -105 164 -324h4q0 182 24 363l62 428h413l-204 -1456h-381l-297 502q-77 132 -164 321h-4q5 -184 -19 -364z" />
    <glyph glyph-name="ncaron" unicode="&#x148;" horiz-adv-x="1228" 
d="M571 1470l115 -202l176 202h250l14 -20l-299 -356h-325l-197 356l19 20h247zM-16 0l131 932h387l-19 -141q143 180 334 180q148 0 220 -98.5t46 -278.5l-84 -594h-399l70 483q12 90 -6 124t-66 34q-56 0 -98.5 -52.5t-55.5 -146.5l-61 -442h-399z" />
    <glyph glyph-name="Eng" unicode="&#x14a;" horiz-adv-x="1607" 
d="M866 -471q-123 0 -221 37l82 305l16 8q45 -20 88 -20q48 0 73 24.5t40 91.5l6 50l-276 471q-77 132 -164 321h-4q5 -184 -19 -364l-63 -453h-412l203 1450h424l250 -467q57 -105 164 -324h4q0 182 24 363l62 428h413l-204 -1446q-33 -245 -154 -360t-332 -115z" />
    <glyph glyph-name="eng" unicode="&#x14b;" horiz-adv-x="1228" 
d="M817 971q148 0 220 -98.5t46 -278.5l-84 -590q-33 -245 -154 -360t-331 -115q-123 0 -221 37l82 303l16 8q41 -18 88 -18q55 0 81.5 32.5t41.5 126.5l68 465q12 90 -6 124t-66 34q-56 0 -98.5 -52.5t-55.5 -146.5l-61 -442h-399l131 932h387l-19 -141q143 180 334 180z
" />
    <glyph glyph-name="Omacron" unicode="&#x14c;" horiz-adv-x="1746" 
d="M1378 1622h-690l31 213h690zM758 -39q-204 0 -363.5 82t-248.5 231.5t-89 341.5q0 179 71 340.5t191.5 278t287 185.5t349.5 69q314 0 506.5 -179t192.5 -472q0 -178 -71.5 -340.5t-192 -280t-286.5 -187t-347 -69.5zM803 346q166 0 288.5 132.5t122.5 314.5
q0 139 -83.5 226t-217.5 87q-169 0 -291 -130.5t-122 -313.5q0 -139 85.5 -227.5t217.5 -88.5z" />
    <glyph glyph-name="omacron" unicode="&#x14d;" horiz-adv-x="1208" 
d="M1026 1153h-690l29 213h690zM492 -39q-218 0 -352 121.5t-134 318.5q0 154 81 285.5t221 208t306 76.5q216 0 351 -121t135 -315q0 -115 -49 -221.5t-131 -183.5t-194.5 -123t-233.5 -46zM522 289q75 0 131 64t56 149q0 65 -34.5 103t-92.5 38q-77 0 -132 -62t-55 -151
q0 -62 36 -101.5t91 -39.5z" />
    <glyph glyph-name="Obreve" unicode="&#x14e;" horiz-adv-x="1746" 
d="M1026 1554q-159 0 -242 72t-79 209l22 18h184q1 -45 38.5 -69.5t103.5 -24.5q138 0 166 94h182l20 -18q-32 -137 -134 -209t-261 -72zM758 -39q-204 0 -363.5 82t-248.5 231.5t-89 341.5q0 179 71 340.5t191.5 278t287 185.5t349.5 69q314 0 506.5 -179t192.5 -472
q0 -178 -71.5 -340.5t-192 -280t-286.5 -187t-347 -69.5zM803 346q166 0 288.5 132.5t122.5 314.5q0 139 -83.5 226t-217.5 87q-169 0 -291 -130.5t-122 -313.5q0 -139 85.5 -227.5t217.5 -88.5z" />
    <glyph glyph-name="obreve" unicode="&#x14f;" horiz-adv-x="1208" 
d="M668 1085q-161 0 -245.5 73t-80.5 216l23 19h184q3 -103 139 -103q144 0 168 103h184l19 -19q-32 -144 -131.5 -216.5t-259.5 -72.5zM492 -39q-218 0 -352 121.5t-134 318.5q0 154 81 285.5t221 208t306 76.5q216 0 351 -121t135 -315q0 -115 -49 -221.5t-131 -183.5
t-194.5 -123t-233.5 -46zM522 289q75 0 131 64t56 149q0 65 -34.5 103t-92.5 38q-77 0 -132 -62t-55 -151q0 -62 36 -101.5t91 -39.5z" />
    <glyph glyph-name="Ohungarumlaut" unicode="&#x150;" horiz-adv-x="1746" 
d="M911 1565h-290l241 274h344l6 -18zM1393 1565h-291l241 274h343l8 -18zM758 -39q-204 0 -363.5 82t-248.5 231.5t-89 341.5q0 179 71 340.5t191.5 278t287 185.5t349.5 69q314 0 506.5 -179t192.5 -472q0 -178 -71.5 -340.5t-192 -280t-286.5 -187t-347 -69.5zM803 346
q166 0 288.5 132.5t122.5 314.5q0 139 -83.5 226t-217.5 87q-169 0 -291 -130.5t-122 -313.5q0 -139 85.5 -227.5t217.5 -88.5z" />
    <glyph glyph-name="ohungarumlaut" unicode="&#x151;" horiz-adv-x="1208" 
d="M590 1094h-291l270 376h342l11 -18zM1057 1094h-291l270 376h342l11 -18zM492 -39q-218 0 -352 121.5t-134 318.5q0 154 81 285.5t221 208t306 76.5q216 0 351 -121t135 -315q0 -115 -49 -221.5t-131 -183.5t-194.5 -123t-233.5 -46zM522 289q75 0 131 64t56 149
q0 65 -34.5 103t-92.5 38q-77 0 -132 -62t-55 -151q0 -62 36 -101.5t91 -39.5z" />
    <glyph glyph-name="OE" unicode="&#x152;" horiz-adv-x="2140" 
d="M1978 899l-47 -330h-485l-31 -221h553l-86 -348h-860q-131 -39 -264 -39q-204 0 -363.5 82t-248.5 231.5t-89 341.5q0 179 71 340.5t191.5 278t287 185.5t349.5 69q148 0 261 -39h856l2 -348h-553l-29 -203h485zM500 662q0 -139 85.5 -227.5t217.5 -88.5q113 0 209 68
l90 637q-80 55 -189 55q-169 0 -291 -130.5t-122 -313.5z" />
    <glyph glyph-name="oe" unicode="&#x153;" horiz-adv-x="1894" 
d="M492 -39q-218 0 -352 121.5t-134 318.5q0 154 81 285.5t221 208t306 76.5q220 0 334 -125h4q146 125 348 125q219 0 349.5 -118.5t130.5 -317.5q0 -66 -17 -129h-667q-2 -16 -2 -48q4 -63 39.5 -92.5t91.5 -29.5q39 0 79 22.5t70 63.5l19 6l311 -97q-78 -132 -211.5 -201
t-310.5 -69q-223 0 -336 125h-4q-149 -125 -350 -125zM1124 567h277q6 68 -24.5 108t-90.5 40q-117 0 -162 -148zM522 289q75 0 131 64t56 149q0 65 -34.5 103t-92.5 38q-77 0 -132 -62t-55 -151q0 -62 36 -101.5t91 -39.5z" />
    <glyph glyph-name="Racute" unicode="&#x154;" horiz-adv-x="1392" 
d="M1057 1839l8 -18l-305 -256h-289l244 274h342zM987 573l303 -536l-20 -37h-420l-258 506h-90l-70 -506h-420l203 1450h543q530 0 530 -401q0 -168 -78 -291t-223 -185zM711 1120h-119l-45 -307h119q105 0 161 45.5t56 136.5q0 125 -172 125z" />
    <glyph glyph-name="racute" unicode="&#x155;" horiz-adv-x="1017" 
d="M635 1098h-305l284 377h359l10 -19zM383 0h-399l131 932h379l-19 -146q64 91 142.5 138t148.5 47q97 0 151 -57t66 -185l-344 -172l-18 8q-8 58 -56 58q-39 0 -75.5 -56.5t-49.5 -154.5z" />
    <glyph glyph-name="uni0156" unicode="&#x156;" horiz-adv-x="1392" 
d="M987 573l303 -536l-20 -37h-420l-258 506h-90l-70 -506h-420l203 1450h543q530 0 530 -401q0 -168 -78 -291t-223 -185zM711 1120h-119l-45 -307h119q105 0 161 45.5t56 136.5q0 125 -172 125zM362 -532l189 426l29 16l290 -117l-276 -422z" />
    <glyph glyph-name="uni0157" unicode="&#x157;" horiz-adv-x="1017" 
d="M383 0h-399l131 932h379l-19 -146q64 91 142.5 138t148.5 47q97 0 151 -57t66 -185l-344 -172l-18 8q-8 58 -56 58q-39 0 -75.5 -56.5t-49.5 -154.5zM365 -207l-277 -422l-231 97l188 426l29 16z" />
    <glyph glyph-name="Rcaron" unicode="&#x158;" horiz-adv-x="1392" 
d="M1192 1823l-285 -258h-311l-215 258l20 20h242l127 -139l166 139h244zM987 573l303 -536l-20 -37h-420l-258 506h-90l-70 -506h-420l203 1450h543q530 0 530 -401q0 -168 -78 -291t-223 -185zM711 1120h-119l-45 -307h119q105 0 161 45.5t56 136.5q0 125 -172 125z" />
    <glyph glyph-name="rcaron" unicode="&#x159;" horiz-adv-x="1017" 
d="M506 1470l115 -202l176 202h250l14 -20l-299 -356h-326l-196 356l18 20h248zM383 0h-399l131 932h379l-19 -146q64 91 142.5 138t148.5 47q97 0 151 -57t66 -185l-344 -172l-18 8q-8 58 -56 58q-39 0 -75.5 -56.5t-49.5 -154.5z" />
    <glyph glyph-name="Sacute" unicode="&#x15a;" horiz-adv-x="1232" 
d="M752 1565h-289l244 274h342l8 -18zM485 -39q-190 0 -329 76t-215 223l317 201l37 -10q71 -142 223 -142q71 0 115.5 31.5t44.5 79.5q0 38 -44 69.5t-185 98.5q-184 86 -260 178.5t-76 228.5q0 217 160.5 355.5t426.5 138.5q180 0 315.5 -71t209.5 -208l-314 -200l-34 8
q-69 123 -215 123q-57 0 -88 -23.5t-31 -64.5q0 -22 13 -38.5t65.5 -47.5t160.5 -82q181 -86 257.5 -179.5t76.5 -218.5q0 -149 -78.5 -268.5t-223 -188.5t-329.5 -69z" />
    <glyph glyph-name="sacute" unicode="&#x15b;" horiz-adv-x="919" 
d="M559 1098h-305l285 377h358l10 -19zM326 -39q-149 0 -251 58.5t-147 173.5l222 129l18 -3q55 -106 158 -106q38 0 61 15.5t23 41.5q0 23 -33 45.5t-111 53.5q-121 47 -175 109t-54 153q0 149 122 244.5t314 95.5q142 0 244.5 -58t134.5 -157l-219 -125l-19 4
q-17 39 -52 61.5t-79 22.5q-32 0 -51.5 -14t-19.5 -39q0 -23 26.5 -41t118.5 -58q120 -51 172.5 -113t52.5 -153q0 -151 -127 -245.5t-329 -94.5z" />
    <glyph glyph-name="Scedilla" unicode="&#x15e;" horiz-adv-x="1232" 
d="M782 885q181 -86 257.5 -179.5t76.5 -218.5q0 -188 -122.5 -325.5t-329.5 -181.5l-91 -97q29 6 58 6q72 0 116 -39t44 -102q0 -106 -95 -170.5t-250 -64.5q-143 0 -247 51l73 137l23 6q58 -37 149 -37q43 0 69 16t26 42q0 41 -76 41q-45 0 -86 -13l-62 60l131 145
q-174 8 -303.5 84t-201.5 215l317 201l37 -10q71 -142 223 -142q71 0 115.5 31.5t44.5 79.5q0 38 -44 69.5t-185 98.5q-184 86 -260 178.5t-76 228.5q0 217 160.5 355.5t426.5 138.5q180 0 315.5 -71t209.5 -208l-314 -200l-34 8q-69 123 -215 123q-57 0 -88 -23.5
t-31 -64.5q0 -22 13 -38.5t65.5 -47.5t160.5 -82z" />
    <glyph glyph-name="scedilla" unicode="&#x15f;" horiz-adv-x="919" 
d="M557 567q120 -51 172.5 -113t52.5 -153q0 -125 -90 -213.5t-243 -116.5l-82 -88q29 6 57 6q72 0 116 -39t44 -102q0 -106 -94.5 -170.5t-249.5 -64.5q-144 0 -248 51l74 137l22 6q58 -37 150 -37q43 0 68.5 16t25.5 42q0 41 -76 41q-45 0 -86 -13l-61 60l135 149
q-236 31 -316 228l222 129l18 -3q55 -106 158 -106q38 0 61 15.5t23 41.5q0 23 -33 45.5t-111 53.5q-121 47 -175 109t-54 153q0 149 122 244.5t314 95.5q142 0 244.5 -58t134.5 -157l-219 -125l-19 4q-17 39 -52 61.5t-79 22.5q-32 0 -51.5 -14t-19.5 -39q0 -23 26.5 -41
t118.5 -58z" />
    <glyph glyph-name="Scaron" unicode="&#x160;" horiz-adv-x="1232" 
d="M899 1565h-311l-215 258l20 20h242l127 -139l166 139h243l13 -20zM485 -39q-190 0 -329 76t-215 223l317 201l37 -10q71 -142 223 -142q71 0 115.5 31.5t44.5 79.5q0 38 -44 69.5t-185 98.5q-184 86 -260 178.5t-76 228.5q0 217 160.5 355.5t426.5 138.5q180 0 315.5 -71
t209.5 -208l-314 -200l-34 8q-69 123 -215 123q-57 0 -88 -23.5t-31 -64.5q0 -22 13 -38.5t65.5 -47.5t160.5 -82q181 -86 257.5 -179.5t76.5 -218.5q0 -149 -78.5 -268.5t-223 -188.5t-329.5 -69z" />
    <glyph glyph-name="scaron" unicode="&#x161;" horiz-adv-x="919" 
d="M428 1470l115 -202l176 202h250l14 -20l-299 -356h-326l-196 356l18 20h248zM326 -39q-149 0 -251 58.5t-147 173.5l222 129l18 -3q55 -106 158 -106q38 0 61 15.5t23 41.5q0 23 -33 45.5t-111 53.5q-121 47 -175 109t-54 153q0 149 122 244.5t314 95.5q142 0 244.5 -58
t134.5 -157l-219 -125l-19 4q-17 39 -52 61.5t-79 22.5q-32 0 -51.5 -14t-19.5 -39q0 -23 26.5 -41t118.5 -58q120 -51 172.5 -113t52.5 -153q0 -151 -127 -245.5t-329 -94.5z" />
    <glyph glyph-name="uni0162" unicode="&#x162;" horiz-adv-x="1327" 
d="M49 1075l53 375h1287l-54 -375h-434l-151 -1075h-78l-109 -117q29 6 58 6q72 0 115.5 -39t43.5 -102q0 -106 -94.5 -170.5t-249.5 -64.5q-144 0 -248 51l74 137l23 6q58 -37 149 -37q43 0 68.5 16t25.5 42q0 41 -75 41q-45 0 -86 -13l-62 60l172 184h-147l151 1075h-432z
" />
    <glyph glyph-name="uni0163" unicode="&#x163;" horiz-adv-x="835" 
d="M774 635h-223l-33 -225q-10 -67 13.5 -94t86.5 -27q29 0 84 20l19 -10l-31 -297q-40 -16 -107 -28t-130 -13l-72 -78q29 6 57 6q72 0 116 -39t44 -102q0 -106 -94.5 -170.5t-249.5 -64.5q-144 0 -248 51l74 137l22 6q58 -37 150 -37q43 0 68.5 16t25.5 42q0 41 -76 41
q-45 0 -86 -13l-61 60l151 170q-202 67 -165 333l43 316h-158l43 297h158l28 194l324 174h96l-51 -368h223z" />
    <glyph glyph-name="Tcaron" unicode="&#x164;" horiz-adv-x="1327" 
d="M928 1565h-312l-215 258l21 20h242l127 -139l165 139h244l12 -20zM330 0l151 1075h-432l53 375h1287l-54 -375h-434l-151 -1075h-420z" />
    <glyph glyph-name="tcaron" unicode="&#x165;" horiz-adv-x="1085" 
d="M1155 1395l-254 -398l-209 80l193 396l30 16zM702 309l19 -10l-31 -297q-43 -16 -113 -28.5t-131 -12.5q-386 0 -337 358l43 316h-158l43 297h158l28 194l324 174h96l-51 -368h223l-41 -297h-223l-33 -225q-10 -67 13.5 -94t86.5 -27q29 0 84 20z" />
    <glyph glyph-name="Tbar" unicode="&#x166;" horiz-adv-x="1327" 
d="M1389 1450l-54 -375h-434l-39 -282h207l-35 -263h-209l-75 -530h-420l76 530h-209l36 263h209l39 282h-432l53 375h1287z" />
    <glyph glyph-name="tbar" unicode="&#x167;" horiz-adv-x="835" 
d="M815 932l-41 -297h-223l-12 -88h172l-17 -113h-172l-4 -24q-10 -67 13.5 -94t86.5 -27q29 0 84 20l19 -10l-31 -297q-43 -16 -113 -28.5t-131 -12.5q-386 0 -337 358l16 115h-121l16 113h119l13 88h-158l43 297h158l28 194l324 174h96l-51 -368h223z" />
    <glyph glyph-name="Utilde" unicode="&#x168;" horiz-adv-x="1531" 
d="M1014 1569q92 0 166.5 79t99.5 203h-158l-16 -12q-27 -65 -82 -65q-37 0 -80.5 19t-92.5 38.5t-99 19.5q-91 0 -166 -79t-101 -203h162l19 12q23 68 82 68q36 0 77 -20t89 -40t100 -20zM662 -39q-343 0 -478 172.5t-84 530.5l111 786h414l-109 -778q-26 -180 14.5 -253
t163.5 -73q124 0 187.5 74t91.5 256l106 774h414l-113 -815q-46 -329 -227 -501.5t-491 -172.5z" />
    <glyph glyph-name="utilde" unicode="&#x169;" horiz-adv-x="1218" 
d="M788 1100q91 0 166 79t101 203h-158l-18 -12q-27 -65 -82 -65q-36 0 -79.5 19.5t-92.5 38.5t-99 19q-92 0 -166.5 -79t-99.5 -203h160l18 12q13 34 31.5 51t50.5 17q36 0 77 -20t89.5 -40t101.5 -20zM285 -39q-144 0 -211 102t-41 287l84 582h399l-72 -500
q-20 -141 62 -141q56 0 97.5 54t53.5 147l62 440h399l-129 -932h-389l21 141q-146 -180 -336 -180z" />
    <glyph glyph-name="Umacron" unicode="&#x16a;" horiz-adv-x="1531" 
d="M1217 1622h-691l31 213h690zM662 -39q-343 0 -478 172.5t-84 530.5l111 786h414l-109 -778q-26 -180 14.5 -253t163.5 -73q124 0 187.5 74t91.5 256l106 774h414l-113 -815q-46 -329 -227 -501.5t-491 -172.5z" />
    <glyph glyph-name="umacron" unicode="&#x16b;" horiz-adv-x="1218" 
d="M981 1153h-690l28 213h691zM285 -39q-144 0 -211 102t-41 287l84 582h399l-72 -500q-20 -141 62 -141q56 0 97.5 54t53.5 147l62 440h399l-129 -932h-389l21 141q-146 -180 -336 -180z" />
    <glyph glyph-name="Ubreve" unicode="&#x16c;" horiz-adv-x="1531" 
d="M862 1554q-159 0 -242 72t-79 209l22 18h185q1 -46 38 -70t103 -24q138 0 166 94h182l20 -18q-32 -137 -134 -209t-261 -72zM662 -39q-343 0 -478 172.5t-84 530.5l111 786h414l-109 -778q-26 -180 14.5 -253t163.5 -73q124 0 187.5 74t91.5 256l106 774h414l-113 -815
q-46 -329 -227 -501.5t-491 -172.5z" />
    <glyph glyph-name="ubreve" unicode="&#x16d;" horiz-adv-x="1218" 
d="M623 1085q-161 0 -245.5 73t-80.5 216l22 19h185q3 -103 139 -103q144 0 168 103h184l19 -19q-32 -144 -131.5 -216.5t-259.5 -72.5zM285 -39q-144 0 -211 102t-41 287l84 582h399l-72 -500q-20 -141 62 -141q56 0 97.5 54t53.5 147l62 440h399l-129 -932h-389l21 141
q-146 -180 -336 -180z" />
    <glyph glyph-name="Uring" unicode="&#x16e;" horiz-adv-x="1531" 
d="M864 1538q-88 0 -145 55t-57 140q0 107 77 183.5t183 76.5q88 0 145 -55t57 -140q0 -106 -77 -183t-183 -77zM877 1647q57 0 97 39.5t40 95.5q0 44 -29.5 73t-75.5 29q-57 0 -97 -39.5t-40 -95.5q0 -44 29.5 -73t75.5 -29zM662 -39q-343 0 -478 172.5t-84 530.5l111 786
h414l-109 -778q-26 -180 14.5 -253t163.5 -73q124 0 187.5 74t91.5 256l106 774h414l-113 -815q-46 -329 -227 -501.5t-491 -172.5z" />
    <glyph glyph-name="uring" unicode="&#x16f;" horiz-adv-x="1218" 
d="M637 1067q-88 0 -145.5 55t-57.5 140q0 107 76.5 183.5t183.5 76.5q88 0 145.5 -55t57.5 -140q0 -106 -77 -183t-183 -77zM649 1176q56 0 96.5 40t40.5 95q0 44 -30 73t-74 29q-57 0 -97 -39.5t-40 -95.5q0 -44 29 -73t75 -29zM285 -39q-144 0 -211 102t-41 287l84 582
h399l-72 -500q-20 -141 62 -141q56 0 97.5 54t53.5 147l62 440h399l-129 -932h-389l21 141q-146 -180 -336 -180z" />
    <glyph glyph-name="Uhungarumlaut" unicode="&#x170;" horiz-adv-x="1531" 
d="M750 1565h-291l241 274h344l7 -18zM1231 1565h-291l242 274h342l8 -18zM662 -39q-343 0 -478 172.5t-84 530.5l111 786h414l-109 -778q-26 -180 14.5 -253t163.5 -73q124 0 187.5 74t91.5 256l106 774h414l-113 -815q-46 -329 -227 -501.5t-491 -172.5z" />
    <glyph glyph-name="uhungarumlaut" unicode="&#x171;" horiz-adv-x="1218" 
d="M545 1094h-291l270 376h342l11 -18zM1012 1094h-291l270 376h342l10 -18zM285 -39q-144 0 -211 102t-41 287l84 582h399l-72 -500q-20 -141 62 -141q56 0 97.5 54t53.5 147l62 440h399l-129 -932h-389l21 141q-146 -180 -336 -180z" />
    <glyph glyph-name="Uogonek" unicode="&#x172;" horiz-adv-x="1531" 
d="M973 676l106 774h414l-113 -815q-36 -251 -149.5 -411.5t-304.5 -223.5q-187 -141 -187 -242q0 -43 49 -43q55 0 117 39h15l34 -174q-115 -65 -260 -65q-105 0 -164 41t-59 112q0 159 201 293h-10q-343 0 -478 172.5t-84 530.5l111 786h414l-109 -778q-26 -180 14.5 -253
t163.5 -73q124 0 187.5 74t91.5 256z" />
    <glyph glyph-name="uogonek" unicode="&#x173;" horiz-adv-x="1218" 
d="M989 0h-63q-187 -141 -187 -242q0 -43 49 -43q55 0 117 39h15l34 -174q-115 -65 -260 -65q-105 0 -164 41t-59 112q0 187 266 332h-137l21 141q-146 -180 -336 -180q-144 0 -211 102t-41 287l84 582h399l-72 -500q-20 -141 62 -141q56 0 97.5 54t53.5 147l62 440h399z
" />
    <glyph glyph-name="Wcircumflex" unicode="&#x174;" horiz-adv-x="2082" 
d="M1280 1565l-123 135l-168 -135h-250l-14 20l289 254h311l211 -254l-18 -20h-238zM713 -6h-387l-230 1456h457l45 -662q11 -136 6 -296h6q49 159 105 299l260 657h293l73 -657q17 -163 19 -299h6q26 107 90 296l234 662h460l-639 -1456h-387l-65 557q-17 156 -25 250h-4
q-83 -220 -96 -250z" />
    <glyph glyph-name="wcircumflex" unicode="&#x175;" horiz-adv-x="1634" 
d="M1020 1094l-117 202l-176 -202h-252l-14 20l297 356h327l197 -356l-18 -20h-244zM541 -6h-334l-191 938h410l43 -539h4l232 537h231l80 -537h4l194 539h420l-452 -938h-334l-84 481h-4z" />
    <glyph glyph-name="Ycircumflex" unicode="&#x176;" horiz-adv-x="1429" 
d="M940 1565l-123 135l-168 -135h-250l-14 20l289 254h311l211 -254l-18 -20h-238zM799 0h-414l80 569l-391 881h493l76 -268q43 -156 66 -283h6q93 186 147 283l152 268h506l-641 -881z" />
    <glyph glyph-name="ycircumflex" unicode="&#x177;" horiz-adv-x="1193" 
d="M778 1094l-116 202l-177 -202h-252l-14 20l297 356h328l196 -356l-18 -20h-244zM401 -446h-430l303 497l-262 881h461l41 -557h4l230 557h452z" />
    <glyph glyph-name="Ydieresis" unicode="&#x178;" horiz-adv-x="1429" 
d="M592 1571q-74 0 -123 49.5t-49 122.5q0 71 50 120.5t122 49.5q70 0 120 -49.5t50 -120.5q0 -73 -49 -122.5t-121 -49.5zM1036 1571q-72 0 -121 49.5t-49 122.5q0 71 50 120.5t120 49.5q72 0 122 -49.5t50 -120.5q0 -73 -50 -122.5t-122 -49.5zM799 0h-414l80 569
l-391 881h493l76 -268q43 -156 66 -283h6q93 186 147 283l152 268h506l-641 -881z" />
    <glyph glyph-name="Zacute" unicode="&#x179;" horiz-adv-x="1476" 
d="M891 1565h-289l244 274h342l8 -18zM-86 41l844 1040h-645l51 369h1358l-6 -41l-850 -1032h665l-53 -377h-1370z" />
    <glyph glyph-name="zacute" unicode="&#x17a;" horiz-adv-x="1069" 
d="M612 1098h-305l285 377h358l11 -19zM-84 20l490 611h-383l43 301h968l-4 -21l-489 -604h397l-43 -307h-981z" />
    <glyph glyph-name="Zdotaccent" unicode="&#x17b;" horiz-adv-x="1476" 
d="M907 1567q-100 0 -163.5 56t-63.5 146q0 89 63 144t164 55t163.5 -55t62.5 -144q0 -90 -63 -146t-163 -56zM-86 41l844 1040h-645l51 369h1358l-6 -41l-850 -1032h665l-53 -377h-1370z" />
    <glyph glyph-name="zdotaccent" unicode="&#x17c;" horiz-adv-x="1069" 
d="M578 1057q-100 0 -164 57t-64 146q0 90 63 145t165 55q101 0 163 -55.5t62 -144.5t-62.5 -146t-162.5 -57zM-84 20l490 611h-383l43 301h968l-4 -21l-489 -604h397l-43 -307h-981z" />
    <glyph glyph-name="Zcaron" unicode="&#x17d;" horiz-adv-x="1476" 
d="M1038 1565h-311l-215 258l20 20h242l127 -139l166 139h244l12 -20zM-86 41l844 1040h-645l51 369h1358l-6 -41l-850 -1032h665l-53 -377h-1370z" />
    <glyph glyph-name="zcaron" unicode="&#x17e;" horiz-adv-x="1069" 
d="M483 1470l115 -202l176 202h250l14 -20l-299 -356h-325l-197 356l19 20h247zM-84 20l490 611h-383l43 301h968l-4 -21l-489 -604h397l-43 -307h-981z" />
    <glyph glyph-name="florin" unicode="&#x192;" horiz-adv-x="1433" 
d="M315 -315q-119 0 -219 34l80 306l17 8q47 -21 88 -21q54 0 81.5 34t40.5 128l62 428h-158l41 295h158l18 127q35 246 139 355.5t300 109.5q120 0 217 -33l-58 -303l-20 -8q-34 18 -74 18q-45 0 -69.5 -32t-34.5 -105l-19 -129h168l-41 -295h-168l-63 -442
q-33 -244 -154.5 -359.5t-331.5 -115.5z" />
    <glyph glyph-name="Aringacute" unicode="&#x1fa;" horiz-adv-x="1552" 
d="M1251 2341l9 -19l-306 -256h-288l243 275h342zM668 1733q0 107 77 183.5t183 76.5q88 0 145 -55t57 -140q0 -106 -77 -183t-183 -77q-88 0 -145 55t-57 140zM1020 1782q0 44 -29.5 73t-75.5 29q-57 0 -97 -39.5t-40 -95.5q0 -44 29.5 -73t75.5 -29q57 0 97 39.5t40 95.5z
M1442 0h-481l-37 225h-461l-98 -225h-494l745 1450h496zM690 745l-92 -213h279l-35 213q-25 167 -25 334h-10q-45 -164 -117 -334z" />
    <glyph glyph-name="aringacute" unicode="&#x1fb;" horiz-adv-x="1257" 
d="M819 1606h-305l287 376h358l8 -20zM705 1067q-88 0 -145.5 55t-57.5 140q0 107 76.5 183.5t183.5 76.5q88 0 145.5 -55t57.5 -140q0 -106 -77 -183t-183 -77zM717 1176q56 0 96.5 40t40.5 95q0 44 -30 73t-74 29q-57 0 -97.5 -39.5t-40.5 -95.5q0 -44 29.5 -73t75.5 -29z
M315 -39q-144 0 -227.5 105t-83.5 296q0 116 33.5 226t93 195t147 136.5t187.5 51.5q93 0 168 -47t117 -136l20 144h387l-131 -932h-395l4 31q6 43 22 106q-63 -85 -154 -130.5t-188 -45.5zM514 285q76 0 132 60.5t56 154.5q0 66 -35.5 106.5t-93.5 40.5q-74 0 -126 -63
t-52 -162q0 -64 32.5 -100.5t86.5 -36.5z" />
    <glyph glyph-name="AEacute" unicode="&#x1fc;" horiz-adv-x="1976" 
d="M1405 1565h-289l244 274h342l8 -18zM1767 569h-485l-31 -221h551l-86 -348h-928l31 225h-327l-136 -225h-485l887 1450h1149l2 -348h-553l-29 -203h488zM752 680l-95 -148h207l23 166q27 191 78 408h-11q-77 -202 -202 -426z" />
    <glyph glyph-name="aeacute" unicode="&#x1fd;" horiz-adv-x="1712" 
d="M977 1098h-305l284 377h359l10 -19zM195 -39q-122 0 -185 49.5t-63 134.5q0 70 30.5 126t82.5 95.5t131.5 70t165 50t194.5 35.5l4 39q12 103 -78 103q-53 0 -102 -26t-107 -83l-18 -2l-199 152q91 121 232.5 193.5t304.5 72.5q182 0 252 -113h4q129 111 325 111
q184 0 306 -119t122 -315q0 -70 -16 -129h-661q-2 -4 -2 -15q-3 -82 31.5 -118.5t92.5 -36.5q39 0 79.5 22.5t70.5 63.5l18 6l312 -97q-78 -132 -212 -201t-309 -69q-132 0 -233.5 46.5t-157.5 129.5q-179 -176 -415 -176zM948 563l271 -2q6 72 -24 112t-87 40
q-116 0 -160 -150zM383 168q37 0 76 21t94 69q-15 56 -12 117q-116 -23 -169 -59.5t-53 -88.5q0 -28 16.5 -43.5t47.5 -15.5z" />
    <glyph glyph-name="Oslashacute" unicode="&#x1fe;" horiz-adv-x="1746" 
d="M1333 1839l8 -18l-305 -256h-288l243 274h342zM1608 1407l-121 -121q168 -179 168 -448q0 -178 -71.5 -340.5t-192 -280t-286.5 -187t-347 -69.5q-263 0 -447 135l-123 -125l-82 70l123 125q-172 178 -172 450q0 179 71 340.5t191.5 278t287 185.5t349.5 69
q267 0 451 -133l121 123zM500 662q0 -101 45 -177l555 562q-74 59 -187 59q-169 0 -291 -130.5t-122 -313.5zM803 346q166 0 288.5 132.5t122.5 314.5q0 97 -43 172l-553 -559q75 -60 185 -60z" />
    <glyph glyph-name="oslashacute" unicode="&#x1ff;" horiz-adv-x="1208" 
d="M715 1098h-305l284 377h359l10 -19zM492 -39q-163 0 -289 74l-66 -66l-82 68l66 65q-115 118 -115 299q0 154 81 286t221 209t306 77q170 0 291 -76l66 66l80 -68l-64 -64q113 -122 113 -296q0 -115 -49 -221.5t-131 -183.5t-194.5 -123t-233.5 -46zM399 385l248 250
q-24 18 -63 18q-79 0 -136 -66t-57 -159q0 -27 8 -43zM522 281q76 0 133.5 67.5t57.5 155.5q0 23 -6 41l-246 -248q26 -16 61 -16z" />
    <glyph glyph-name="uni0218" unicode="&#x218;" horiz-adv-x="1232" 
d="M485 -39q-190 0 -329 76t-215 223l317 201l37 -10q71 -142 223 -142q71 0 115.5 31.5t44.5 79.5q0 38 -44 69.5t-185 98.5q-184 86 -260 178.5t-76 228.5q0 217 160.5 355.5t426.5 138.5q180 0 315.5 -71t209.5 -208l-314 -200l-34 8q-69 123 -215 123q-57 0 -88 -23.5
t-31 -64.5q0 -22 13 -38.5t65.5 -47.5t160.5 -82q181 -86 257.5 -179.5t76.5 -218.5q0 -149 -78.5 -268.5t-223 -188.5t-329.5 -69zM793 -207l-277 -422l-231 97l188 426l29 16z" />
    <glyph glyph-name="uni0219" unicode="&#x219;" horiz-adv-x="919" 
d="M326 -39q-149 0 -251 58.5t-147 173.5l222 129l18 -3q55 -106 158 -106q38 0 61 15.5t23 41.5q0 23 -33 45.5t-111 53.5q-121 47 -175 109t-54 153q0 149 122 244.5t314 95.5q142 0 244.5 -58t134.5 -157l-219 -125l-19 4q-17 39 -52 61.5t-79 22.5q-32 0 -51.5 -14
t-19.5 -39q0 -23 26.5 -41t118.5 -58q120 -51 172.5 -113t52.5 -153q0 -151 -127 -245.5t-329 -94.5zM584 -207l-277 -422l-231 97l188 426l29 16z" />
    <glyph glyph-name="uni021A" unicode="&#x21a;" horiz-adv-x="1327" 
d="M330 0l151 1075h-432l53 375h1287l-54 -375h-434l-151 -1075h-420zM784 -207l-276 -422l-232 97l189 426l29 16z" />
    <glyph glyph-name="uni021B" unicode="&#x21b;" horiz-adv-x="835" 
d="M702 309l19 -10l-31 -297q-43 -16 -113 -28.5t-131 -12.5q-386 0 -337 358l43 316h-158l43 297h158l28 194l324 174h96l-51 -368h223l-41 -297h-223l-33 -225q-10 -67 13.5 -94t86.5 -27q29 0 84 20zM600 -207l-276 -422l-232 97l189 426l28 16z" />
    <glyph glyph-name="uni0237" unicode="&#x237;" horiz-adv-x="684" 
d="M-31 -471q-123 0 -221 37l80 303l18 8q40 -18 86 -18q56 0 83 32.5t42 126.5l127 914h400l-129 -928q-35 -245 -155.5 -360t-330.5 -115z" />
    <glyph glyph-name="uni02BC" unicode="&#x2bc;" horiz-adv-x="606" 
d="M649 1403l-354 -559l-246 96l260 569l29 17z" />
    <glyph glyph-name="circumflex" unicode="&#x2c6;" horiz-adv-x="944" 
d="M711 1094l-117 202l-174 -202h-254l-14 20l299 356h327l195 -356l-19 -20h-243z" />
    <glyph glyph-name="caron" unicode="&#x2c7;" horiz-adv-x="944" 
d="M465 1470l117 -202l174 202h250l14 -20l-297 -356h-328l-196 356l20 20h246z" />
    <glyph glyph-name="breve" unicode="&#x2d8;" horiz-adv-x="839" 
d="M514 1085q-161 0 -245.5 73t-80.5 216l23 19h184q3 -103 140 -103q143 0 167 103h183l20 -19q-32 -144 -131.5 -216.5t-259.5 -72.5z" />
    <glyph glyph-name="dotaccent" unicode="&#x2d9;" horiz-adv-x="581" 
d="M403 1057q-101 0 -164 56.5t-63 146.5t62.5 145t164.5 55q101 0 163.5 -55.5t62.5 -144.5t-63 -146t-163 -57z" />
    <glyph glyph-name="ring" unicode="&#x2da;" horiz-adv-x="581" 
d="M379 1067q-88 0 -145.5 55t-57.5 140q0 107 76.5 183.5t183.5 76.5q88 0 145.5 -55t57.5 -140q0 -106 -77 -183t-183 -77zM391 1176q56 0 96.5 40t40.5 95q0 44 -30 73t-74 29q-57 0 -97 -39.5t-40 -95.5q0 -44 29 -73t75 -29z" />
    <glyph glyph-name="ogonek" unicode="&#x2db;" horiz-adv-x="620" 
d="M176 -485q-105 0 -164 41t-59 112q0 187 266 332h189q-187 -141 -187 -242q0 -43 49 -43q55 0 117 39h14l35 -174q-115 -65 -260 -65z" />
    <glyph glyph-name="tilde" unicode="&#x2dc;" horiz-adv-x="878" 
d="M680 1100q91 0 165.5 79t100.5 203h-158l-18 -12q-27 -65 -82 -65q-36 0 -79.5 19.5t-92 38.5t-98.5 19q-92 0 -166.5 -79t-99.5 -203h159l19 12q13 34 31.5 51t50.5 17q36 0 77 -20t89.5 -40t101.5 -20z" />
    <glyph glyph-name="hungarumlaut" unicode="&#x2dd;" horiz-adv-x="1163" 
d="M440 1094h-290l270 376h342l10 -18zM907 1094h-291l271 376h342l10 -18z" />
    <glyph glyph-name="gravecomb" unicode="&#x300;" 
d="M-117 1094h-297l-309 358l12 18h349z" />
    <glyph glyph-name="acutecomb" unicode="&#x301;" 
d="M-354 1094h-305l284 376h359l10 -18z" />
    <glyph glyph-name="uni0302" unicode="&#x302;" 
d="M-356 1094l-117 202l-176 -202h-252l-14 20l297 356h327l197 -356l-19 -20h-243z" />
    <glyph glyph-name="tildecomb" unicode="&#x303;" 
d="M-199 1100q91 0 166 79t101 203h-158l-19 -12q-27 -65 -81 -65q-36 0 -79.5 19.5t-92.5 38.5t-99 19q-92 0 -166.5 -79t-99.5 -203h160l18 12q13 34 31.5 51t50.5 17q36 0 77 -20t89.5 -40t101.5 -20z" />
    <glyph glyph-name="uni0304" unicode="&#x304;" 
d="M-80 1153h-690l29 213h690z" />
    <glyph glyph-name="uni0306" unicode="&#x306;" 
d="M-414 1085q-161 0 -245 73t-80 216l22 19h185q3 -103 139 -103q144 0 168 103h184l18 -19q-32 -144 -131.5 -216.5t-259.5 -72.5z" />
    <glyph glyph-name="uni0307" unicode="&#x307;" 
d="M-266 1057q-100 0 -164 57t-64 146q0 90 63 145t165 55q101 0 163 -55.5t62 -144.5t-62.5 -146t-162.5 -57z" />
    <glyph glyph-name="uni0308" unicode="&#x308;" 
d="M-633 1079q-73 0 -122.5 49t-49.5 121t50 122t122 50q71 0 120.5 -50t49.5 -122t-49 -121t-121 -49zM-207 1079q-72 0 -121 49t-49 121t49.5 122t120.5 50q72 0 122 -50t50 -122t-49.5 -121t-122.5 -49z" />
    <glyph glyph-name="uni030A" unicode="&#x30a;" 
d="M-203 1067q-88 0 -145.5 55t-57.5 140q0 107 77 183.5t184 76.5q88 0 145 -55t57 -140q0 -106 -77 -183t-183 -77zM-190 1176q56 0 96.5 40t40.5 95q0 44 -30 73t-75 29q-57 0 -97 -39.5t-40 -95.5q0 -44 29.5 -73t75.5 -29z" />
    <glyph glyph-name="uni030B" unicode="&#x30b;" 
d="M-711 1094h-290l270 376h342l10 -18zM-244 1094h-291l271 376h342l10 -18z" />
    <glyph glyph-name="uni030C" unicode="&#x30c;" 
d="M-600 1470l115 -202l176 202h250l14 -20l-299 -356h-326l-196 356l18 20h248z" />
    <glyph glyph-name="uni0312" unicode="&#x312;" 
d="M-612 1190l276 422l232 -96l-189 -426l-29 -17z" />
    <glyph glyph-name="uni0315" unicode="&#x315;" 
d="M-106 1595l-277 -424l-231 97l188 426l29 16z" />
    <glyph glyph-name="dotbelowcomb" unicode="&#x323;" 
d="M-383 -539q-100 0 -163.5 56.5t-63.5 146.5q0 89 63 144t164 55t163 -55t62 -144q0 -91 -62.5 -147t-162.5 -56z" />
    <glyph glyph-name="uni0324" unicode="&#x324;" 
d="M-774 -483q-72 0 -121 49.5t-49 122.5q0 71 50 120.5t120 49.5q72 0 122 -49.5t50 -120.5q0 -73 -49 -122.5t-123 -49.5zM-346 -483q-72 0 -121 49.5t-49 122.5q0 71 50 120.5t120 49.5q72 0 122 -49.5t50 -120.5q0 -73 -50 -122.5t-122 -49.5z" />
    <glyph glyph-name="uni0325" unicode="&#x325;" 
d="M-436 -590q-88 0 -145.5 56t-57.5 141q0 106 77.5 182t184.5 76q87 0 144 -55.5t57 -139.5q0 -106 -77 -183t-183 -77zM-424 -481q57 0 97 39.5t40 95.5q0 44 -29 73t-75 29q-56 0 -96.5 -40t-40.5 -95q0 -44 30 -73t74 -29z" />
    <glyph glyph-name="uni0326" unicode="&#x326;" 
d="M-66 -207l-276 -422l-231 97l188 426l29 16z" />
    <glyph glyph-name="uni0327" unicode="&#x327;" 
d="M-508 -487q-144 0 -248 51l74 137l23 6q58 -37 149 -37q43 0 68.5 16t25.5 42q0 41 -76 41q-45 0 -86 -13l-61 60l166 184h201l-109 -117q29 6 57 6q72 0 116 -39t44 -102q0 -106 -94.5 -170.5t-249.5 -64.5z" />
    <glyph glyph-name="uni0328" unicode="&#x328;" 
d="M-444 -485q-105 0 -164.5 41t-59.5 112q0 186 267 332h188q-186 -140 -186 -242q0 -43 49 -43q55 0 117 39h14l35 -174q-115 -65 -260 -65z" />
    <glyph glyph-name="uni0330" unicode="&#x330;" 
d="M-422 -477q92 0 166.5 79t99.5 203h-157l-17 -12q-27 -65 -82 -65q-37 0 -80.5 19t-92.5 38.5t-99 19.5q-91 0 -165.5 -79t-100.5 -203h162l18 12q23 68 82 68q36 0 77 -20t89 -40t100 -20z" />
    <glyph glyph-name="uni0331" unicode="&#x331;" 
d="M-184 -414h-690l26 213h690z" />
    <glyph glyph-name="uni0335" unicode="&#x335;" 
d="M-188 334h-467l30 227h467z" />
    <glyph glyph-name="uni0336" unicode="&#x336;" 
d="M205 334h-1454l30 227h1455z" />
    <glyph glyph-name="uni0337" unicode="&#x337;" 
d="M-61 604l-787 -454l-110 190l786 455z" />
    <glyph glyph-name="uni0338" unicode="&#x338;" 
d="M-61 1034l-1057 -1253l-168 141l1055 1254z" />
    <glyph glyph-name="uni0394" unicode="&#x394;" horiz-adv-x="1552" 
d="M616 1450h496l330 -1450h-1571zM690 745l-174 -397h389l-63 397q-25 167 -25 334h-10q-45 -164 -117 -334z" />
    <glyph glyph-name="pi" unicode="&#x3c0;" horiz-adv-x="1261" 
d="M627 223l57 412h-190l-88 -635h-400l88 635h-90l41 297h1172l-41 -297h-95l-51 -377q-4 -30 1 -40.5t24 -10.5q15 0 43 12l14 -10l-29 -211q-101 -33 -200 -33q-293 0 -256 258z" />
    <glyph glyph-name="uni0400" unicode="&#x400;" horiz-adv-x="1200" 
d="M977 1565h-289l-266 256l16 18h332zM12 0l205 1450h913l3 -348h-553l-29 -203h485l-45 -330h-487l-31 -221h553l-86 -348h-928z" />
    <glyph glyph-name="uni0401" unicode="&#x401;" horiz-adv-x="1200" 
d="M498 1571q-74 0 -123 49.5t-49 122.5q0 71 50 120.5t122 49.5q70 0 120 -49.5t50 -120.5q0 -73 -49 -122.5t-121 -49.5zM942 1571q-72 0 -121 49.5t-49 122.5q0 71 50 120.5t120 49.5q72 0 122 -49.5t50 -120.5q0 -73 -50 -122.5t-122 -49.5zM12 0l205 1450h913l3 -348
h-553l-29 -203h485l-45 -330h-487l-31 -221h553l-86 -348h-928z" />
    <glyph glyph-name="uni0403" unicode="&#x403;" horiz-adv-x="1095" 
d="M772 1565h-289l244 274h342l8 -18zM12 0l205 1450h887l2 -375h-522l-152 -1075h-420z" />
    <glyph glyph-name="uni040C" unicode="&#x40c;" horiz-adv-x="1505" 
d="M1214 1839l9 -18l-305 -256h-289l243 274h342zM1059 1450h508l-600 -590l438 -860h-469l-272 559l-185 -178l-53 -381h-414l205 1450h414l-76 -539z" />
    <glyph glyph-name="uni040D" unicode="&#x40d;" horiz-adv-x="1630" 
d="M1194 1565h-289l-266 256l16 18h332zM1577 1450l-205 -1450h-414l66 469q24 180 66 346h-5q-184 -226 -235 -285l-459 -536h-381l207 1456h414l-64 -434q-23 -184 -69 -365h4q148 190 241 301l414 498h420z" />
    <glyph glyph-name="uni0410" unicode="&#x410;" horiz-adv-x="1552" 
d="M1442 0h-481l-37 225h-461l-98 -225h-494l745 1450h496zM690 745l-92 -213h279l-35 213q-25 167 -25 334h-10q-45 -164 -117 -334z" />
    <glyph glyph-name="uni0411" unicode="&#x411;" horiz-adv-x="1318" 
d="M561 928h148q253 0 376 -101.5t123 -279.5q0 -262 -175.5 -404.5t-483.5 -142.5h-537l205 1450h930l4 -367h-567zM479 322h107q102 0 159.5 43.5t57.5 128.5q0 120 -174 120h-109z" />
    <glyph glyph-name="uni0412" unicode="&#x412;" horiz-adv-x="1312" 
d="M549 0h-537l205 1450h506q244 0 369 -82t125 -242q0 -130 -78 -229.5t-209 -136.5v-4q127 -32 194.5 -108t67.5 -185q0 -222 -167 -342.5t-476 -120.5zM586 1141l-37 -254h88q88 0 135 39.5t47 111.5q0 103 -151 103h-82zM510 608l-39 -289h98q216 0 228 158
q9 131 -179 131h-108z" />
    <glyph glyph-name="uni0413" unicode="&#x413;" horiz-adv-x="1095" 
d="M12 0l205 1450h887l2 -375h-522l-152 -1075h-420z" />
    <glyph glyph-name="uni0414" unicode="&#x414;" horiz-adv-x="1531" 
d="M1100 1450l200 -1088h150l-102 -716h-375l49 354h-758l-51 -354h-375l103 716h149l514 1088h496zM848 362l-33 383q-16 164 -16 334h-11q-32 -124 -106 -334l-141 -383h307z" />
    <glyph glyph-name="uni0415" unicode="&#x415;" horiz-adv-x="1200" 
d="M12 0l205 1450h913l3 -348h-553l-29 -203h485l-45 -330h-487l-31 -221h553l-86 -348h-928z" />
    <glyph glyph-name="uni0416" unicode="&#x416;" horiz-adv-x="2295" 
d="M383 0h-502l629 860l-412 590h496l209 -338q68 -110 155 -299h5q12 240 36 422l31 215h416l-31 -215q-12 -91 -80 -420h2q13 18 56 77t61.5 83t51 64.5t61.5 72.5l307 338h502l-576 -590l385 -860h-489l-217 535l-191 -199l-47 -336h-416l47 336l-124 186z" />
    <glyph glyph-name="uni0417" unicode="&#x417;" horiz-adv-x="1282" 
d="M547 -39q-292 0 -434.5 118t-137.5 351l404 68l35 -21q0 -84 35.5 -123t111.5 -39q78 0 123 52t45 127q0 120 -160 120h-106l37 263h86q98 0 149 43t51 122q0 48 -26.5 73.5t-77.5 25.5q-68 0 -113.5 -35t-66.5 -98l-41 -19l-359 72q85 211 257 319.5t421 108.5
q203 0 320 -91.5t117 -248.5q0 -131 -76.5 -238.5t-206.5 -152.5q106 -29 164.5 -110t58.5 -193q0 -216 -172 -355t-438 -139z" />
    <glyph glyph-name="uni0418" unicode="&#x418;" horiz-adv-x="1630" 
d="M1577 1450l-205 -1450h-414l66 469q24 180 66 346h-5q-184 -226 -235 -285l-459 -536h-381l207 1456h414l-64 -434q-23 -184 -69 -365h4q148 190 241 301l414 498h420z" />
    <glyph glyph-name="uni0419" unicode="&#x419;" horiz-adv-x="1630" 
d="M913 1554q-159 0 -242 72t-79 209l22 18h185q1 -46 38 -70t103 -24q138 0 166 94h182l21 -18q-32 -137 -134.5 -209t-261.5 -72zM1577 1450l-205 -1450h-414l66 469q24 180 66 346h-5q-184 -226 -235 -285l-459 -536h-381l207 1456h414l-64 -434q-23 -184 -69 -365h4
q148 190 241 301l414 498h420z" />
    <glyph glyph-name="uni041A" unicode="&#x41a;" horiz-adv-x="1505" 
d="M1059 1450h508l-600 -590l438 -860h-469l-272 559l-185 -178l-53 -381h-414l205 1450h414l-76 -539z" />
    <glyph glyph-name="uni041B" unicode="&#x41b;" horiz-adv-x="1538" 
d="M365 0h-494l739 1450h496l324 -1450h-484l-112 745q-23 176 -25 334h-8q-42 -156 -117 -334z" />
    <glyph glyph-name="uni041C" unicode="&#x41c;" horiz-adv-x="1898" 
d="M709 1450l219 -670h4l405 670h508l-205 -1450h-403l137 928h-4l-508 -803h-37l-282 803h-4l-123 -928h-404l205 1450h492z" />
    <glyph glyph-name="uni041D" unicode="&#x41d;" horiz-adv-x="1527" 
d="M426 0h-414l205 1450h414l-78 -539h430l78 539h414l-205 -1450h-414l78 547h-432z" />
    <glyph glyph-name="uni041E" unicode="&#x41e;" horiz-adv-x="1746" 
d="M758 -39q-204 0 -363.5 82t-248.5 231.5t-89 341.5q0 179 71 340.5t191.5 278t287 185.5t349.5 69q314 0 506.5 -179t192.5 -472q0 -178 -71.5 -340.5t-192 -280t-286.5 -187t-347 -69.5zM803 346q166 0 288.5 132.5t122.5 314.5q0 139 -83.5 226t-217.5 87
q-169 0 -291 -130.5t-122 -313.5q0 -139 85.5 -227.5t217.5 -88.5z" />
    <glyph glyph-name="uni041F" unicode="&#x41f;" horiz-adv-x="1548" 
d="M426 0h-414l205 1450h1278l-205 -1450h-413l153 1087h-452z" />
    <glyph glyph-name="uni0420" unicode="&#x420;" horiz-adv-x="1312" 
d="M432 0h-420l203 1450h518q543 0 543 -406q0 -265 -161 -417t-445 -152h-172zM592 1120l-47 -323h106q104 0 160.5 50t56.5 144q0 129 -170 129h-106z" />
    <glyph glyph-name="uni0421" unicode="&#x421;" horiz-adv-x="1576" 
d="M731 -39q-192 0 -345 80t-240 227.5t-87 337.5q0 182 70 346t187.5 281.5t278.5 186.5t337 69q212 0 370.5 -91.5t233.5 -267.5l-346 -190l-37 6q-75 152 -242 152q-165 0 -279 -131t-114 -310q0 -137 80.5 -221t206.5 -84q166 0 289 152l36 6l293 -193
q-124 -175 -306 -265.5t-386 -90.5z" />
    <glyph glyph-name="uni0422" unicode="&#x422;" horiz-adv-x="1327" 
d="M330 0l151 1075h-432l53 375h1287l-54 -375h-434l-151 -1075h-420z" />
    <glyph glyph-name="uni0423" unicode="&#x423;" horiz-adv-x="1433" 
d="M569 0h-450l370 563l-397 887h498l76 -268q47 -183 65 -283h4q55 111 148 283l151 268h504z" />
    <glyph glyph-name="uni0424" unicode="&#x424;" horiz-adv-x="1828" 
d="M1737 825q0 -207 -95 -377t-259.5 -275.5t-374.5 -137.5l-17 -117h-413l16 119q-246 40 -390.5 196t-144.5 396q0 156 54 292.5t150.5 237.5t231 168t293.5 90l17 115h414l-17 -117q247 -41 391 -193.5t144 -396.5zM477 639q0 -213 180 -260l101 696
q-135 -33 -208 -151.5t-73 -284.5zM1137 1073l-99 -694q134 33 207.5 152t73.5 282q0 213 -182 260z" />
    <glyph glyph-name="uni0425" unicode="&#x425;" horiz-adv-x="1529" 
d="M371 0h-508l604 758l-373 692h506l180 -416l291 416h504l-563 -690l409 -760h-510l-211 465z" />
    <glyph glyph-name="uni0426" unicode="&#x426;" horiz-adv-x="1564" 
d="M1473 1450l-154 -1088h158l-103 -716h-375l50 354h-1037l205 1450h414l-154 -1088h428l154 1088h414z" />
    <glyph glyph-name="uni0427" unicode="&#x427;" horiz-adv-x="1480" 
d="M938 911l76 539h413l-204 -1450h-414l84 598q-78 -85 -195 -136.5t-239 -51.5q-207 0 -287.5 121t-42.5 393l74 526h413l-65 -473q-15 -108 10 -154.5t103 -46.5t143 30t131 105z" />
    <glyph glyph-name="uni0428" unicode="&#x428;" horiz-adv-x="2060" 
d="M1440 362l153 1088h414l-205 -1450h-1790l205 1450h414l-154 -1088h275l153 1088h414l-154 -1088h275z" />
    <glyph glyph-name="uni0429" unicode="&#x429;" horiz-adv-x="2099" 
d="M2007 1450l-154 -1088h158l-102 -716h-375l51 354h-1573l205 1450h414l-154 -1088h275l153 1088h414l-154 -1088h275l153 1088h414z" />
    <glyph glyph-name="uni042A" unicode="&#x42a;" horiz-adv-x="1501" 
d="M752 961h155q239 0 364.5 -105t125.5 -297q0 -266 -175.5 -412.5t-482.5 -146.5h-542l151 1077h-309l90 373h692zM666 330h108q101 0 158 45t57 129q0 68 -42 101.5t-132 33.5h-106z" />
    <glyph glyph-name="uni042B" unicode="&#x42b;" horiz-adv-x="1998" 
d="M12 0l205 1450h420l-70 -489h154q239 0 364 -105t125 -297q0 -266 -175 -412.5t-480 -146.5h-543zM1327 0l205 1450h414l-205 -1450h-414zM629 639h-107l-43 -309h109q101 0 159 45t58 129q0 135 -176 135z" />
    <glyph glyph-name="uni042C" unicode="&#x42c;" horiz-adv-x="1314" 
d="M12 0l205 1450h420l-70 -489h154q239 0 364 -105t125 -297q0 -266 -175 -412.5t-480 -146.5h-543zM629 639h-107l-43 -309h109q101 0 159 45t58 129q0 135 -176 135z" />
    <glyph glyph-name="uni042D" unicode="&#x42d;" horiz-adv-x="1568" 
d="M811 1489q299 0 482.5 -177t183.5 -474q0 -180 -68 -342t-184 -279.5t-278.5 -186.5t-344.5 -69q-218 0 -378.5 90t-235.5 266l344 189l39 -6q38 -78 100.5 -114t159.5 -36q132 0 226.5 71t137.5 191h-499l30 222h502q-9 128 -81.5 197t-192.5 69q-100 0 -175.5 -36
t-142.5 -114l-41 -8l-291 188q122 176 309 267.5t398 91.5z" />
    <glyph glyph-name="uni042E" unicode="&#x42e;" horiz-adv-x="2312" 
d="M1534 1489q315 0 500.5 -178t185.5 -473q0 -238 -117 -439.5t-320.5 -319.5t-447.5 -118q-284 0 -474.5 162t-213.5 424h-145l-76 -547h-414l205 1450h414l-78 -539h141q95 256 325.5 417t514.5 161zM1378 346q169 0 285.5 131.5t116.5 315.5q0 141 -77.5 227t-211.5 86
q-107 0 -200.5 -59.5t-149.5 -162.5t-56 -222q0 -138 83.5 -227t209.5 -89z" />
    <glyph glyph-name="uni042F" unicode="&#x42f;" horiz-adv-x="1392" 
d="M813 1450h526l-204 -1450h-420l69 506h-65l-397 -506h-445l-10 37l452 543q-188 93 -188 327q0 177 84.5 300t236.5 183t361 60zM870 1120h-106q-229 0 -229 -180q0 -127 167 -127h125z" />
    <glyph glyph-name="uni0430" unicode="&#x430;" horiz-adv-x="1257" 
d="M315 -39q-144 0 -227.5 105t-83.5 296q0 116 33.5 226t93 195t147 136.5t187.5 51.5q93 0 168 -47t117 -136l20 144h387l-131 -932h-395l4 31q6 43 22 106q-63 -85 -154 -130.5t-188 -45.5zM514 285q76 0 132 60.5t56 154.5q0 66 -35.5 106.5t-93.5 40.5q-74 0 -126 -63
t-52 -162q0 -64 32.5 -100.5t86.5 -36.5z" />
    <glyph glyph-name="uni0431" unicode="&#x431;" horiz-adv-x="1236" 
d="M551 -39q-282 0 -414.5 169t-87.5 460l25 160q87 578 645 692l254 51q48 8 133 41l68 -307q-61 -34 -156 -53l-236 -52q-154 -31 -224.5 -107t-98.5 -243h6q144 182 352 182q143 0 228 -103t85 -290q0 -269 -156 -434.5t-423 -165.5zM557 285q78 0 128 60t50 147
q0 64 -35.5 101.5t-95.5 37.5q-78 0 -132 -59.5t-54 -143.5q0 -64 39 -103.5t100 -39.5z" />
    <glyph glyph-name="uni0432" unicode="&#x432;" horiz-adv-x="1245" 
d="M518 -39q-280 0 -392.5 147.5t-66.5 483.5l60 418q34 249 179.5 382.5t399.5 133.5q214 0 327.5 -86.5t113.5 -239.5q0 -120 -80.5 -232.5t-200.5 -146.5v-4q126 -30 193 -114.5t67 -202.5q0 -156 -77 -279.5t-214 -191.5t-309 -68zM555 285q76 0 127 59t51 152
q0 65 -37.5 100t-105.5 35h-41l41 293h37q62 0 94.5 47t32.5 114q0 101 -97 101q-119 0 -139 -166l-76 -537q-12 -96 12 -147t101 -51z" />
    <glyph glyph-name="uni0433" unicode="&#x433;" horiz-adv-x="925" 
d="M342 -39q-173 0 -272 70.5t-99 189.5q0 127 79 205.5t231 136.5q97 34 137.5 59t40.5 56q0 41 -60 41q-42 0 -84 -24t-73 -64l-19 -2l-182 127q58 96 180.5 154.5t265.5 58.5q165 0 257 -68t92 -184q0 -132 -81.5 -212t-236.5 -134q-94 -33 -132 -58t-38 -55
q0 -45 72 -45q46 0 95.5 28t90.5 78l19 3l186 -132q-78 -112 -198.5 -170.5t-270.5 -58.5z" />
    <glyph glyph-name="uni0434" unicode="&#x434;" horiz-adv-x="1259" 
d="M440 -471q-172 0 -288.5 55.5t-194.5 175.5l246 156l12 -2q38 -52 88 -75t123 -23q87 0 139 45.5t66 132.5q6 54 31 156q-64 -86 -156.5 -131.5t-190.5 -45.5q-144 0 -227.5 105t-83.5 295q0 156 56 291.5t163 221t242 85.5q93 0 169 -47t118 -136l18 144h389l-125 -895
q-36 -258 -178 -383t-416 -125zM516 297q76 0 132.5 59.5t56.5 147.5q0 63 -36 103t-96 40q-75 0 -126.5 -62t-51.5 -157q0 -60 33 -95.5t88 -35.5z" />
    <glyph glyph-name="uni0435" unicode="&#x435;" horiz-adv-x="1198" 
d="M1067 406h-668v-5q-10 -87 26.5 -126t98.5 -39q42 0 82.5 22.5t69.5 63.5l20 6l312 -97q-78 -132 -212 -201t-311 -69q-222 0 -351.5 115.5t-129.5 314.5q0 161 78.5 294t215.5 209.5t302 76.5q221 0 352 -118t131 -318q0 -70 -16 -129zM596 715q-110 0 -162 -148h271
q6 68 -23 108t-86 40z" />
    <glyph glyph-name="uni0436" unicode="&#x436;" horiz-adv-x="1816" 
d="M334 0h-453l451 563l-299 369h461l112 -166l96 -139q4 225 43 512l52 362h399l-51 -362q-35 -259 -98 -508q87 102 118 135l158 166h475l-399 -369l291 -563h-441l-145 311l-86 -75l-33 -236h-399l32 236l-59 69z" />
    <glyph glyph-name="uni0437" unicode="&#x437;" horiz-adv-x="1085" 
d="M350 -471q-181 0 -295.5 57t-179.5 176l272 177l21 -2q36 -60 81.5 -90.5t112.5 -30.5q72 0 116 47.5t44 113.5q0 58 -37 90.5t-114 32.5h-211l41 287h215q76 0 122 44t46 122q0 117 -113 117q-67 0 -129 -32.5t-104 -86.5l-25 -4l-193 147q91 129 240 203t320 74
q192 0 288.5 -84t96.5 -215q0 -136 -81.5 -241.5t-205.5 -139.5v-4q114 -28 173.5 -106t59.5 -181q0 -138 -74.5 -246.5t-202 -166.5t-284.5 -58z" />
    <glyph glyph-name="uni0438" unicode="&#x438;" horiz-adv-x="1218" 
d="M285 -39q-144 0 -211 102t-41 287l84 582h399l-72 -500q-20 -141 62 -141q56 0 97.5 54t53.5 147l62 440h399l-129 -932h-389l21 141q-146 -180 -336 -180z" />
    <glyph glyph-name="uni0439" unicode="&#x439;" horiz-adv-x="1218" 
d="M623 1085q-161 0 -245.5 73t-80.5 216l22 19h185q3 -103 139 -103q144 0 168 103h184l19 -19q-32 -144 -131.5 -216.5t-259.5 -72.5zM285 -39q-144 0 -211 102t-41 287l84 582h399l-72 -500q-20 -141 62 -141q56 0 97.5 54t53.5 147l62 440h399l-129 -932h-389l21 141
q-146 -180 -336 -180z" />
    <glyph glyph-name="uni043A" unicode="&#x43a;" horiz-adv-x="1224" 
d="M1110 0h-451l-159 311l-82 -75l-35 -236h-399l211 1501h399l-66 -475q-18 -128 -65 -364l272 270h482l-424 -369z" />
    <glyph glyph-name="uni043B" unicode="&#x43b;" horiz-adv-x="1097" 
d="M289 0h-424l512 938h360l250 -938h-424l-57 559h-4z" />
    <glyph glyph-name="uni043C" unicode="&#x43c;" horiz-adv-x="1335" 
d="M1235 932l-129 -932h-391l59 430l-194 -313h-35l-109 317l-61 -434h-391l131 932h409l94 -371h5l194 371h418z" />
    <glyph glyph-name="uni043D" unicode="&#x43d;" horiz-adv-x="1220" 
d="M674 598l47 334h399l-131 -932h-399l45 319h-207l-45 -319h-399l131 932h399l-47 -334h207z" />
    <glyph glyph-name="uni043E" unicode="&#x43e;" horiz-adv-x="1208" 
d="M492 -39q-218 0 -352 121.5t-134 318.5q0 154 81 285.5t221 208t306 76.5q216 0 351 -121t135 -315q0 -115 -49 -221.5t-131 -183.5t-194.5 -123t-233.5 -46zM522 289q75 0 131 64t56 149q0 65 -34.5 103t-92.5 38q-77 0 -132 -62t-55 -151q0 -62 36 -101.5t91 -39.5z
" />
    <glyph glyph-name="uni043F" unicode="&#x43f;" horiz-adv-x="1228" 
d="M-16 0l131 932h387l-19 -141q143 180 334 180q148 0 220 -98.5t46 -278.5l-84 -594h-399l70 483q12 90 -6 124t-66 34q-56 0 -98.5 -52.5t-55.5 -146.5l-61 -442h-399z" />
    <glyph glyph-name="uni0440" unicode="&#x440;" horiz-adv-x="1243" 
d="M319 -446h-399l195 1378h387l-19 -141q68 87 159 133.5t187 46.5q143 0 226.5 -106t83.5 -290q0 -168 -62 -309.5t-169 -223t-234 -81.5q-94 0 -169 46t-114 130q-8 -116 -31 -289zM569 285q77 0 128 63t51 158q0 64 -34 102.5t-91 38.5q-78 0 -131.5 -63t-53.5 -156
q0 -64 36 -103.5t95 -39.5z" />
    <glyph glyph-name="uni0441" unicode="&#x441;" horiz-adv-x="1116" 
d="M465 -39q-212 0 -335.5 116t-123.5 314q0 158 76.5 291t211 211t296.5 78q164 0 278.5 -66t171.5 -196l-321 -160l-19 2q-24 54 -55 77t-74 23q-76 0 -127 -64.5t-51 -160.5q0 -67 34 -106t89 -39q91 0 164 102l20 2l275 -164q-93 -128 -223.5 -194t-286.5 -66z" />
    <glyph glyph-name="uni0442" unicode="&#x442;" horiz-adv-x="1810" 
d="M1403 971q143 0 214.5 -98.5t45.5 -276.5l-84 -596h-399l69 485q11 86 -5.5 121t-57.5 35q-49 0 -90 -54t-54 -145l-61 -442h-399l69 485q11 86 -5.5 121t-57.5 35q-49 0 -90.5 -54.5t-53.5 -144.5l-61 -442h-399l131 932h387l-19 -141q143 180 322 180q99 0 164.5 -52.5
t85.5 -150.5q152 203 348 203z" />
    <glyph glyph-name="uni0443" unicode="&#x443;" horiz-adv-x="1193" 
d="M401 -446h-430l303 497l-262 881h461l41 -557h4l230 557h452z" />
    <glyph glyph-name="uni0444" unicode="&#x444;" horiz-adv-x="1507" 
d="M1401 532q0 -150 -74.5 -276t-205 -203.5t-290.5 -89.5l-57 -409h-399l59 411q-196 19 -312 137.5t-116 300.5q0 224 163 385.5t404 180.5l76 532h400l-76 -534q195 -20 311.5 -138.5t116.5 -296.5zM514 270l55 392q-83 -6 -127.5 -75t-44.5 -165q0 -67 29.5 -107.5
t87.5 -44.5zM893 662l-57 -392q79 4 126.5 73t47.5 173q0 138 -117 146z" />
    <glyph glyph-name="uni0445" unicode="&#x445;" horiz-adv-x="1161" 
d="M338 0h-471l420 483l-275 449h447l45 -109q35 -105 41 -135h4q43 79 69 119l89 125h458l-401 -449l285 -483h-461l-51 119q-30 101 -35 133h-4q-29 -61 -68 -119z" />
    <glyph glyph-name="uni0446" unicode="&#x446;" horiz-adv-x="1269" 
d="M1118 932l-88 -635h133l-84 -594h-364l41 297h-156l21 141q-146 -180 -336 -180q-144 0 -211 102t-41 287l84 582h399l-72 -500q-20 -141 62 -141q56 0 97.5 54t53.5 147l62 440h399z" />
    <glyph glyph-name="uni0447" unicode="&#x447;" horiz-adv-x="1191" 
d="M643 582l49 350h400l-129 -932h-390l50 346q-78 -85 -157.5 -124.5t-174.5 -39.5q-140 0 -204.5 103t-37.5 307l47 340h396l-35 -309q-14 -109 53 -109q70 0 133 68z" />
    <glyph glyph-name="uni0448" unicode="&#x448;" horiz-adv-x="1810" 
d="M291 -39q-143 0 -214.5 99t-45.5 278l84 594h399l-70 -483q-11 -88 5 -123t57 -35q50 0 91.5 54t53.5 144l62 443h399l-70 -483q-11 -88 5 -123t57 -35q50 0 91.5 54t53.5 144l62 443h399l-131 -932h-387l18 141q-143 -180 -321 -180q-98 0 -164 53t-86 150
q-152 -203 -348 -203z" />
    <glyph glyph-name="uni0449" unicode="&#x449;" horiz-adv-x="1861" 
d="M1710 932l-90 -635h135l-84 -594h-366l41 297h-154l18 141q-143 -180 -321 -180q-98 0 -164 53t-86 150q-152 -203 -348 -203q-143 0 -214.5 99t-45.5 278l84 594h399l-70 -483q-11 -88 5 -123t57 -35q50 0 91.5 54t53.5 144l62 443h399l-70 -483q-11 -88 5 -123t57 -35
q50 0 91.5 54t53.5 144l62 443h399z" />
    <glyph glyph-name="uni044A" unicode="&#x44a;" horiz-adv-x="1253" 
d="M864 750q131 0 203 -79t72 -214q0 -230 -148.5 -363t-396.5 -133q-270 0 -369 119t-59 401l20 154h-166l43 297h549l-43 -311q57 60 133.5 94.5t161.5 34.5zM627 231q58 0 97.5 44t39.5 112q0 47 -26 74.5t-72 27.5q-60 0 -102 -45t-42 -110q0 -48 28 -75.5t77 -27.5z
" />
    <glyph glyph-name="uni044B" unicode="&#x44b;" horiz-adv-x="1753" 
d="M481 -39q-270 0 -369 119t-59 401l62 451h385l-43 -311q57 60 133.5 94.5t161.5 34.5q131 0 202.5 -79t71.5 -214q0 -230 -148.5 -363t-396.5 -133zM1524 0h-400l131 932h400zM512 231q59 0 99 44t40 112q0 47 -27 74.5t-73 27.5q-59 0 -100 -45.5t-41 -109.5
q0 -47 27.5 -75t74.5 -28z" />
    <glyph glyph-name="uni044C" unicode="&#x44c;" horiz-adv-x="1140" 
d="M481 -39q-270 0 -369 119t-59 401l62 451h385l-43 -311q57 60 133.5 94.5t161.5 34.5q131 0 202.5 -79t71.5 -214q0 -230 -148.5 -363t-396.5 -133zM512 231q59 0 99 44t40 112q0 47 -27 74.5t-73 27.5q-59 0 -100 -45.5t-41 -109.5q0 -47 27.5 -75t74.5 -28z" />
    <glyph glyph-name="uni044D" unicode="&#x44d;" horiz-adv-x="1103" 
d="M563 971q201 0 317.5 -115.5t116.5 -304.5q0 -123 -41.5 -231.5t-115 -187.5t-181.5 -125t-235 -46q-334 0 -463 244l283 157l18 -2q39 -48 79 -66t93 -18q121 0 168 121h-237l18 133h238q-3 61 -37.5 94t-94.5 33q-48 0 -91 -19.5t-93 -68.5l-18 -2l-252 162
q109 125 238 183.5t290 58.5z" />
    <glyph glyph-name="uni044E" unicode="&#x44e;" horiz-adv-x="1693" 
d="M1102 973q217 0 351 -121.5t134 -316.5q0 -115 -49 -221.5t-131 -183.5t-194.5 -123t-233.5 -46q-194 0 -322.5 97t-156.5 261h-72l-45 -319h-399l211 1501h399l-127 -903h63q66 166 221.5 270.5t350.5 104.5zM1010 289q75 0 130.5 64t55.5 149q0 65 -34.5 104t-92.5 39
q-77 0 -131.5 -63t-54.5 -152q0 -62 36 -101.5t91 -39.5z" />
    <glyph glyph-name="uni044F" unicode="&#x44f;" horiz-adv-x="1159" 
d="M1061 932l-131 -932h-400l35 252h-57l-201 -252h-416l267 313q-119 73 -119 224q0 125 66.5 215.5t180 135t259.5 44.5h516zM625 666h-78q-67 0 -105.5 -27t-38.5 -80q0 -76 101 -76h94z" />
    <glyph glyph-name="uni0450" unicode="&#x450;" horiz-adv-x="1198" 
d="M662 1475l245 -377h-297l-309 358l12 19h349zM1067 406h-668v-5q-10 -87 26.5 -126t98.5 -39q42 0 82.5 22.5t69.5 63.5l20 6l312 -97q-78 -132 -212 -201t-311 -69q-222 0 -351.5 115.5t-129.5 314.5q0 161 78.5 294t215.5 209.5t302 76.5q221 0 352 -118t131 -318
q0 -70 -16 -129zM596 715q-110 0 -162 -148h271q6 68 -23 108t-86 40z" />
    <glyph glyph-name="uni0451" unicode="&#x451;" horiz-adv-x="1198" 
d="M469 1079q-73 0 -122.5 49t-49.5 121t50 122t122 50q71 0 120.5 -50t49.5 -122t-49 -121t-121 -49zM895 1079q-72 0 -121 49t-49 121t49.5 122t120.5 50q72 0 122 -50t50 -122t-49.5 -121t-122.5 -49zM1067 406h-668v-5q-10 -87 26.5 -126t98.5 -39q42 0 82.5 22.5
t69.5 63.5l20 6l312 -97q-78 -132 -212 -201t-311 -69q-222 0 -351.5 115.5t-129.5 314.5q0 161 78.5 294t215.5 209.5t302 76.5q221 0 352 -118t131 -318q0 -70 -16 -129zM596 715q-110 0 -162 -148h271q6 68 -23 108t-86 40z" />
    <glyph glyph-name="uni0453" unicode="&#x453;" horiz-adv-x="925" 
d="M604 1098h-305l285 377h358l10 -19zM342 -39q-173 0 -272 70.5t-99 189.5q0 127 79 205.5t231 136.5q97 34 137.5 59t40.5 56q0 41 -60 41q-42 0 -84 -24t-73 -64l-19 -2l-182 127q58 96 180.5 154.5t265.5 58.5q165 0 257 -68t92 -184q0 -132 -81.5 -212t-236.5 -134
q-94 -33 -132 -58t-38 -55q0 -45 72 -45q46 0 95.5 28t90.5 78l19 3l186 -132q-78 -112 -198.5 -170.5t-270.5 -58.5z" />
    <glyph glyph-name="uni045C" unicode="&#x45c;" horiz-adv-x="1224" 
d="M981 1565h-289l244 274h342l8 -18zM1110 0h-451l-159 311l-82 -75l-35 -236h-399l211 1501h399l-66 -475q-18 -128 -65 -364l272 270h482l-424 -369z" />
    <glyph glyph-name="uni045D" unicode="&#x45d;" horiz-adv-x="1218" 
d="M883 1098h-297l-310 358l13 19h348zM285 -39q-144 0 -211 102t-41 287l84 582h399l-72 -500q-20 -141 62 -141q56 0 97.5 54t53.5 147l62 440h399l-129 -932h-389l21 141q-146 -180 -336 -180z" />
    <glyph glyph-name="Wgrave" unicode="&#x1e80;" horiz-adv-x="2082" 
d="M1409 1565h-289l-266 256l16 18h332zM713 -6h-387l-230 1456h457l45 -662q11 -136 6 -296h6q49 159 105 299l260 657h293l73 -657q17 -163 19 -299h6q26 107 90 296l234 662h460l-639 -1456h-387l-65 557q-17 156 -25 250h-4q-83 -220 -96 -250z" />
    <glyph glyph-name="wgrave" unicode="&#x1e81;" horiz-adv-x="1634" 
d="M1106 1098h-297l-309 358l12 19h348zM541 -6h-334l-191 938h410l43 -539h4l232 537h231l80 -537h4l194 539h420l-452 -938h-334l-84 481h-4z" />
    <glyph glyph-name="Wacute" unicode="&#x1e82;" horiz-adv-x="2082" 
d="M1139 1565h-289l244 274h342l8 -18zM713 -6h-387l-230 1456h457l45 -662q11 -136 6 -296h6q49 159 105 299l260 657h293l73 -657q17 -163 19 -299h6q26 107 90 296l234 662h460l-639 -1456h-387l-65 557q-17 156 -25 250h-4q-83 -220 -96 -250z" />
    <glyph glyph-name="wacute" unicode="&#x1e83;" horiz-adv-x="1634" 
d="M893 1098h-305l284 377h359l10 -19zM541 -6h-334l-191 938h410l43 -539h4l232 537h231l80 -537h4l194 539h420l-452 -938h-334l-84 481h-4z" />
    <glyph glyph-name="Wdieresis" unicode="&#x1e84;" horiz-adv-x="2082" 
d="M932 1571q-74 0 -123 49.5t-49 122.5q0 71 50 120.5t122 49.5q70 0 120 -49.5t50 -120.5q0 -73 -49 -122.5t-121 -49.5zM1376 1571q-72 0 -121 49.5t-49 122.5q0 71 50 120.5t120 49.5q72 0 122 -49.5t50 -120.5q0 -73 -50 -122.5t-122 -49.5zM713 -6h-387l-230 1456h457
l45 -662q11 -136 6 -296h6q49 159 105 299l260 657h293l73 -657q17 -163 19 -299h6q26 107 90 296l234 662h460l-639 -1456h-387l-65 557q-17 156 -25 250h-4q-83 -220 -96 -250z" />
    <glyph glyph-name="wdieresis" unicode="&#x1e85;" horiz-adv-x="1634" 
d="M668 1079q-73 0 -122.5 49t-49.5 121t50 122t122 50q71 0 120.5 -50t49.5 -122t-49 -121t-121 -49zM1094 1079q-72 0 -121 49t-49 121t49.5 122t120.5 50q72 0 122 -50t50 -122t-49.5 -121t-122.5 -49zM541 -6h-334l-191 938h410l43 -539h4l232 537h231l80 -537h4
l194 539h420l-452 -938h-334l-84 481h-4z" />
    <glyph glyph-name="uni1E9E" unicode="&#x1e9e;" horiz-adv-x="1464" 
d="M1354 1163l-252 -309q284 -66 284 -356q0 -150 -73.5 -273.5t-202 -193.5t-283.5 -70q-189 0 -299 96l78 326l35 6q54 -70 133 -70q71 0 115.5 41t44.5 107q0 121 -219 121h-43l28 211l228 293h-350l-152 -1092h-414l203 1450h1178z" />
    <glyph glyph-name="Ygrave" unicode="&#x1ef2;" horiz-adv-x="1429" 
d="M1071 1565h-289l-266 256l16 18h332zM799 0h-414l80 569l-391 881h493l76 -268q43 -156 66 -283h6q93 186 147 283l152 268h506l-641 -881z" />
    <glyph glyph-name="ygrave" unicode="&#x1ef3;" horiz-adv-x="1193" 
d="M864 1098h-297l-309 358l12 19h348zM401 -446h-430l303 497l-262 881h461l41 -557h4l230 557h452z" />
    <glyph glyph-name="uni2000" unicode="&#x2000;" horiz-adv-x="1024" 
 />
    <glyph glyph-name="uni2001" unicode="&#x2001;" horiz-adv-x="2048" 
 />
    <glyph glyph-name="uni2002" unicode="&#x2002;" horiz-adv-x="1024" 
 />
    <glyph glyph-name="uni2003" unicode="&#x2003;" horiz-adv-x="2048" 
 />
    <glyph glyph-name="uni2004" unicode="&#x2004;" horiz-adv-x="681" 
 />
    <glyph glyph-name="uni2005" unicode="&#x2005;" horiz-adv-x="512" 
 />
    <glyph glyph-name="uni2006" unicode="&#x2006;" horiz-adv-x="342" 
 />
    <glyph glyph-name="uni2007" unicode="&#x2007;" horiz-adv-x="1433" 
 />
    <glyph glyph-name="uni2008" unicode="&#x2008;" horiz-adv-x="653" 
 />
    <glyph glyph-name="uni2009" unicode="&#x2009;" horiz-adv-x="409" 
 />
    <glyph glyph-name="uni200A" unicode="&#x200a;" horiz-adv-x="286" 
 />
    <glyph glyph-name="uni200B" unicode="&#x200b;" 
 />
    <glyph glyph-name="uni200C" unicode="&#x200c;" 
d="M-297 1546l223 221l51 -49l-178 -172l178 -168l-51 -51zM201 1546l-178 172l51 49l223 -221l-223 -219l-51 51zM-39 1247h74v-1605h-74v1605z" />
    <glyph glyph-name="uni200D" unicode="&#x200d;" 
d="M-276 1718l51 49l223 -221l-223 -219l-51 51l178 168zM225 1767l51 -49l-178 -172l178 -168l-51 -51l-223 219zM-39 1247h74v-1605h-74v1605z" />
    <glyph glyph-name="endash" unicode="&#x2013;" horiz-adv-x="1024" 
d="M881 334h-901l30 227h901z" />
    <glyph glyph-name="emdash" unicode="&#x2014;" horiz-adv-x="1576" 
d="M1434 334h-1454l30 227h1454z" />
    <glyph glyph-name="quoteleft" unicode="&#x2018;" horiz-adv-x="673" 
d="M47 870l399 619l246 -96l-305 -631l-31 -17z" />
    <glyph glyph-name="quoteright" unicode="&#x2019;" horiz-adv-x="669" 
d="M674 1366l-400 -621l-243 97l305 631l29 16z" />
    <glyph glyph-name="quotesinglbase" unicode="&#x201a;" horiz-adv-x="667" 
d="M516 274l-399 -620l-246 96l305 631l31 16z" />
    <glyph glyph-name="quotedblleft" unicode="&#x201c;" horiz-adv-x="1226" 
d="M53 870l400 619l245 -96l-305 -631l-31 -17zM608 870l400 619l245 -96l-305 -631l-30 -17z" />
    <glyph glyph-name="quotedblright" unicode="&#x201d;" horiz-adv-x="1224" 
d="M674 1366l-400 -621l-243 97l305 631l29 16zM1229 1366l-400 -621l-243 97l303 631l31 16z" />
    <glyph glyph-name="quotedblbase" unicode="&#x201e;" horiz-adv-x="1206" 
d="M516 274l-399 -620l-246 96l305 631l31 16zM1055 274l-402 -620l-243 96l305 631l30 16z" />
    <glyph glyph-name="dagger" unicode="&#x2020;" horiz-adv-x="1208" 
d="M608 -446h-379l154 1085h-332l49 354h332l64 455h378l-63 -455h332l-49 -354h-332z" />
    <glyph glyph-name="daggerdbl" unicode="&#x2021;" horiz-adv-x="1208" 
d="M608 -446h-379l54 376h-328l49 353h328l63 456h-327l51 353h327l50 358h378l-49 -358h328l-49 -353h-328l-63 -456h327l-51 -353h-327z" />
    <glyph glyph-name="bullet" unicode="&#x2022;" horiz-adv-x="1208" 
d="M217 762q0 129 89.5 219t219.5 90t220 -90t90 -219t-90 -219t-220 -90t-219.5 90t-89.5 219z" />
    <glyph glyph-name="ellipsis" unicode="&#x2026;" horiz-adv-x="1921" 
d="M868 -23q-100 0 -162.5 62.5t-62.5 155.5t64 157t161 64q100 0 165 -64t65 -157q0 -92 -65 -155t-165 -63zM1503 -23q-99 0 -162 62.5t-63 155.5t64 157t161 64q100 0 165 -64t65 -157q0 -92 -65 -155t-165 -63zM233 -25q-98 0 -161.5 63t-63.5 155q0 93 64 157t161 64
q101 0 166.5 -63.5t65.5 -157.5q0 -92 -65.5 -155t-166.5 -63z" />
    <glyph glyph-name="uni202F" unicode="&#x202f;" horiz-adv-x="409" 
 />
    <glyph glyph-name="perthousand" unicode="&#x2030;" horiz-adv-x="2899" 
d="M492 700q-152 0 -251.5 95t-99.5 241q0 118 61 220.5t164.5 162.5t223.5 60q149 0 247.5 -94.5t98.5 -239.5q0 -118 -60.5 -221t-163 -163.5t-220.5 -60.5zM586 0h-252l1052 1450h254zM520 948q66 0 113 48t47 116q0 54 -33 87.5t-86 33.5q-66 0 -114 -48.5t-48 -115.5
q0 -54 33.5 -87.5t87.5 -33.5zM1386 -31q-152 0 -251 95t-99 241q0 118 61 220.5t164.5 162.5t223.5 60q149 0 248.5 -95.5t99.5 -240.5q0 -117 -61 -219.5t-164 -163t-222 -60.5zM2277 -31q-151 0 -250.5 95t-99.5 241q0 180 133.5 311.5t317.5 131.5q149 0 247.5 -95.5
t98.5 -240.5q0 -117 -61 -219.5t-164 -163t-222 -60.5zM1415 217q66 0 113 48t47 116q0 54 -33 87.5t-86 33.5q-66 0 -114 -49t-48 -115q0 -52 34 -86.5t87 -34.5zM2308 217q65 0 112.5 48.5t47.5 115.5q0 54 -33.5 87.5t-87.5 33.5q-66 0 -113 -49t-47 -115q0 -53 33.5 -87
t87.5 -34z" />
    <glyph glyph-name="minute" unicode="&#x2032;" horiz-adv-x="583" 
d="M401 1032h-266l66 514h346z" />
    <glyph glyph-name="second" unicode="&#x2033;" horiz-adv-x="1003" 
d="M401 1032h-266l66 514h346zM821 1032h-266l66 514h346z" />
    <glyph glyph-name="guilsinglleft" unicode="&#x2039;" horiz-adv-x="710" 
d="M502 188l-230 -139l-260 453l387 450l191 -139v-25l-240 -286l160 -289z" />
    <glyph glyph-name="guilsinglright" unicode="&#x203a;" horiz-adv-x="733" 
d="M602 502l-387 -453l-190 139v25l239 289l-160 286l9 25l229 139z" />
    <glyph glyph-name="fraction" unicode="&#x2044;" horiz-adv-x="421" 
d="M563 1526h328l-1043 -1600h-329z" />
    <glyph glyph-name="uni2070" unicode="&#x2070;" horiz-adv-x="827" 
d="M424 903q-149 0 -229 92.5t-80 261.5q0 153 50 279t148 202.5t226 76.5q148 0 228.5 -91t80.5 -254q0 -155 -50 -283t-148 -206t-226 -78zM449 1143q32 0 58 30.5t40.5 79t22.5 101.5t8 104q0 117 -64 117q-32 0 -58 -29t-41.5 -75.5t-23.5 -98t-8 -102.5q0 -127 66 -127
z" />
    <glyph glyph-name="uni2074" unicode="&#x2074;" horiz-adv-x="827" 
d="M700 940h-258l23 143h-399l26 187l422 516h307l-67 -483h92l-31 -220h-94zM453 1421l-101 -118h150l10 71q9 88 41 191h-4q-50 -93 -96 -144z" />
    <glyph glyph-name="uni2075" unicode="&#x2075;" horiz-adv-x="827" 
d="M426 903q-326 0 -332 254l254 51l21 -10q3 -78 73 -78q41 0 67 31.5t26 81.5q0 82 -101 82q-120 0 -229 -64l-47 19l106 512h549l-31 -213h-323l-21 -88q63 14 117 14q117 0 183.5 -61.5t66.5 -167.5q0 -158 -106.5 -260.5t-272.5 -102.5z" />
    <glyph glyph-name="uni2076" unicode="&#x2076;" horiz-adv-x="827" 
d="M422 903q-149 0 -235.5 75.5t-86.5 205.5q0 106 60 209.5t205 251.5l200 204l178 -114l5 -29l-101 -102q-62 -62 -155 -117v-4q73 28 126 28q96 0 150.5 -60t54.5 -167q0 -164 -114 -272.5t-287 -108.5zM449 1137q46 0 75 33t29 85q0 35 -20 55.5t-54 20.5
q-46 0 -76 -33.5t-30 -83.5q0 -35 20.5 -56t55.5 -21z" />
    <glyph glyph-name="uni2077" unicode="&#x2077;" horiz-adv-x="827" 
d="M162 979l348 571h-324l31 228h717l-6 -25l-514 -838l-45 -14z" />
    <glyph glyph-name="uni2078" unicode="&#x2078;" horiz-adv-x="827" 
d="M424 903q-151 0 -233 60t-82 163q0 94 51.5 160t142.5 96q-106 42 -106 160t96.5 195.5t253.5 77.5q136 0 212.5 -56.5t76.5 -148.5q0 -75 -43.5 -137t-118.5 -91q135 -48 135 -180q0 -139 -110.5 -219t-274.5 -80zM500 1460q31 0 51 26t20 68q0 62 -51 62
q-34 0 -55 -29.5t-21 -64.5q0 -28 16 -45t40 -17zM451 1100q40 0 67 30t27 82q0 39 -19 59.5t-51 20.5q-42 0 -68 -29.5t-26 -84.5q0 -38 18.5 -58t51.5 -20z" />
    <glyph glyph-name="uni2079" unicode="&#x2079;" horiz-adv-x="827" 
d="M604 1073l-201 -203l-180 117l-6 29l100 98q71 74 156 117l-2 4q-67 -27 -123 -27q-95 0 -150 59t-55 163q0 172 114.5 278.5t299.5 106.5q145 0 228 -75t83 -204q0 -108 -59 -212t-205 -251zM489 1389q46 0 75.5 31.5t29.5 80.5q0 37 -20.5 59.5t-55.5 22.5
q-44 0 -73 -33t-29 -84q0 -36 19.5 -56.5t53.5 -20.5z" />
    <glyph glyph-name="uni2080" unicode="&#x2080;" horiz-adv-x="827" 
d="M252 -326q-149 0 -229 93t-80 262q0 153 50 278.5t148 202t226 76.5q148 0 228.5 -91t80.5 -253q0 -155 -50 -283t-148 -206.5t-226 -78.5zM276 -86q42 0 73 53t44 122.5t13 139.5q0 117 -64 117q-32 0 -58 -29t-41.5 -75.5t-23.5 -98t-8 -102.5q0 -127 65 -127z" />
    <glyph glyph-name="uni2081" unicode="&#x2081;" horiz-adv-x="827" 
d="M420 -287h-260l53 389q11 90 49 181l-2 2q-54 -38 -104 -62l-86 -47l-23 8l55 252l355 152h86z" />
    <glyph glyph-name="uni2082" unicode="&#x2082;" horiz-adv-x="827" 
d="M573 -287h-694l4 29l389 383q65 61 91 99.5t26 74.5q0 24 -14.5 36.5t-38.5 12.5q-71 0 -107 -102l-22 -10l-232 34q57 161 158.5 238.5t257.5 77.5q123 0 198 -64t75 -168q0 -195 -195 -352l-25 -20q-33 -26 -98 -64v-6q93 22 160 22h98z" />
    <glyph glyph-name="uni2083" unicode="&#x2083;" horiz-adv-x="827" 
d="M264 -326q-169 0 -252 69t-82 210l250 41l21 -14q0 -91 73 -91q34 0 58 29.5t24 69.5q0 71 -80 71h-30l22 160h19q50 0 78 25.5t28 68.5q0 58 -51 58q-31 0 -55.5 -19t-36.5 -53l-23 -10l-223 43q103 254 391 254q124 0 194 -54.5t70 -152.5q0 -79 -45 -142t-122 -92
q62 -15 95.5 -62t33.5 -120q0 -120 -102.5 -204.5t-254.5 -84.5z" />
    <glyph glyph-name="uni2084" unicode="&#x2084;" horiz-adv-x="827" 
d="M528 -289h-258l23 144h-399l26 186l422 516h307l-67 -483h92l-31 -219h-94zM281 193l-101 -119h150l10 71q9 88 41 191h-4q-49 -91 -96 -143z" />
    <glyph glyph-name="uni2085" unicode="&#x2085;" horiz-adv-x="827" 
d="M254 -326q-326 0 -332 254l254 52l21 -11q3 -78 73 -78q41 0 66.5 31.5t25.5 81.5q0 82 -100 82q-121 0 -229 -63l-47 18l106 512h549l-31 -213h-323l-21 -88q63 14 117 14q117 0 183.5 -61.5t66.5 -167.5q0 -158 -106.5 -260.5t-272.5 -102.5z" />
    <glyph glyph-name="uni2086" unicode="&#x2086;" horiz-adv-x="827" 
d="M250 -326q-149 0 -235.5 75.5t-86.5 205.5q0 106 60 209.5t205 251.5l200 205l178 -115l4 -29l-100 -102q-60 -60 -156 -117v-4q76 29 127 29q96 0 150.5 -60.5t54.5 -167.5q0 -164 -114 -272.5t-287 -108.5zM276 -92q46 0 75.5 33.5t29.5 85.5q0 35 -20 55t-54 20
q-46 0 -76 -33t-30 -83q0 -36 20 -57t55 -21z" />
    <glyph glyph-name="uni2087" unicode="&#x2087;" horiz-adv-x="827" 
d="M-10 -250l348 572h-324l31 227h717l-6 -25l-514 -837l-45 -15z" />
    <glyph glyph-name="uni2088" unicode="&#x2088;" horiz-adv-x="827" 
d="M252 -326q-151 0 -233 60.5t-82 163.5q0 94 51.5 160t142.5 96q-106 42 -106 159q0 118 96.5 195.5t253.5 77.5q136 0 212.5 -56.5t76.5 -148.5q0 -75 -43.5 -136.5t-118.5 -90.5q135 -48 135 -181q0 -139 -110.5 -219t-274.5 -80zM328 231q31 0 51 26.5t20 68.5
q0 61 -51 61q-34 0 -55 -29.5t-21 -64.5q0 -28 16 -45t40 -17zM279 -129q40 0 67 30.5t27 82.5q0 39 -19 59t-51 20q-42 0 -68 -29.5t-26 -84.5q0 -38 18.5 -58t51.5 -20z" />
    <glyph glyph-name="uni2089" unicode="&#x2089;" horiz-adv-x="827" 
d="M432 -156l-201 -202l-180 116l-6 29l100 98q71 74 156 117l-2 4q-65 -26 -123 -26q-96 0 -150.5 58.5t-54.5 162.5q0 172 114.5 278.5t299.5 106.5q145 0 228 -75t83 -204q0 -108 -59 -212t-205 -251zM317 160q46 0 75.5 31.5t29.5 80.5q0 37 -20.5 59.5t-55.5 22.5
q-44 0 -73 -32.5t-29 -83.5q0 -37 19.5 -57.5t53.5 -20.5z" />
    <glyph glyph-name="lira" unicode="&#x20a4;" horiz-adv-x="1433" 
d="M1014 504h-281q-20 -82 -69 -131h606l-96 -373h-1117l52 373h155q47 55 58 129v2h-193l21 145h190l14 103h-188l18 145h191l10 72q34 230 197.5 375t390.5 145q137 0 249 -43.5t183 -122.5l-266 -268l-19 4q-56 71 -149 71q-71 0 -117.5 -50t-58.5 -144l-7 -39h281
l-20 -145h-281l-14 -103h278z" />
    <glyph glyph-name="Euro" unicode="&#x20ac;" horiz-adv-x="1433" 
d="M993 440l41 6l275 -206q-87 -124 -248 -201.5t-361 -77.5q-236 0 -388.5 149.5t-172.5 403.5h-151l61 131h88q2 48 13 113h-107l61 131h76q81 266 288 433t478 167q182 0 322 -80.5t184 -210.5l-346 -190l-35 6q-64 86 -172 86q-83 0 -149.5 -57.5t-106.5 -153.5h334
l-57 -131h-316q-12 -56 -12 -113h268l-57 -131h-199q43 -164 195 -164q61 0 106 22t88 68z" />
    <glyph glyph-name="uni2113" unicode="&#x2113;" horiz-adv-x="1105" 
d="M786 367l19 2l84 -279q-180 -129 -371 -129q-183 0 -283 77.5t-112 229.5l-62 -37l-77 168l153 97l76 536q31 218 162 337.5t340 119.5q157 0 241 -67t84 -193q0 -180 -129 -363.5t-364 -335.5l-8 -65q-21 -154 102 -154q69 0 145 56zM737 1292q-85 0 -106 -170l-49 -344
q97 72 156 187.5t59 232.5q0 44 -16 69t-44 25z" />
    <glyph glyph-name="uni2116" unicode="&#x2116;" horiz-adv-x="2277" 
d="M1886 891q-131 0 -212 71.5t-81 188.5q0 138 107 237t258 99q130 0 209.5 -71t79.5 -187q0 -138 -106.5 -238t-254.5 -100zM1266 -6h-383l-232 481q-109 240 -149 352h-4q8 -250 -15 -403l-59 -424h-412l203 1450h428l201 -440q65 -159 137 -361h4q-3 264 16 404l56 397
h413zM1907 1100q36 0 65 32t29 74q0 34 -17.5 55t-46.5 21q-39 0 -66.5 -33.5t-27.5 -79.5q0 -31 17.5 -50t46.5 -19zM2134 508h-594l29 197h594z" />
    <glyph glyph-name="uni2117" unicode="&#x2117;" horiz-adv-x="1847" 
d="M915 -39q-160 0 -303 59.5t-245.5 161.5t-162 243t-59.5 298q0 158 59.5 300t162 244t245.5 162t303 60q159 0 301.5 -60t244 -162t161 -244t59.5 -300q0 -157 -59.5 -298t-161 -243t-244 -161.5t-301.5 -59.5zM907 106q170 0 313 83t225.5 224.5t82.5 309.5
q0 169 -80.5 311.5t-221.5 225.5t-311 83q-128 0 -242.5 -49t-196.5 -132.5t-129.5 -198t-47.5 -240.5q0 -168 79 -309.5t219 -224.5t310 -83zM893 287h-244v848h316q338 0 338 -289q0 -132 -80 -206.5t-228 -74.5h-102v-278zM893 942v-188h63q113 0 113 92q0 51 -27 73.5
t-86 22.5h-63z" />
    <glyph glyph-name="trademark" unicode="&#x2122;" horiz-adv-x="2048" 
d="M586 606h-228v651h-237v193h700v-193h-235v-651zM1169 606h-215v844h273l225 -430h4l213 430h270v-844h-215v574h-4l-266 -500h-22l-258 500h-5v-574z" />
    <glyph glyph-name="uni2126" unicode="&#x2126;" horiz-adv-x="1730" 
d="M1649 893q0 -152 -68 -285.5t-190 -230.5h176l-54 -377h-669l26 201l23 159q77 0 150.5 63t119 163.5t45.5 204.5q0 139 -85 227t-220 88q-170 0 -289.5 -129t-119.5 -313q0 -128 60 -216t148 -88l-20 -159h-2l-27 -201h-669l53 377h176q-141 141 -141 348q0 155 70 296
t188 243.5t281.5 163.5t342.5 61q202 0 361 -75.5t246.5 -211.5t87.5 -309z" />
    <glyph glyph-name="estimated" unicode="&#x212e;" horiz-adv-x="1394" 
d="M1255 530h-917v-266q0 -51 50 -102t128.5 -83t155.5 -32q118 0 222 49.5t171 143.5l16 6l70 -51q-68 -104 -198 -163t-283 -59q-116 0 -226.5 43t-195.5 118.5t-137 187t-52 239.5q0 263 171 424.5t442 161.5q131 0 241.5 -43.5t185 -118.5t116.5 -176.5t42 -216.5
q0 -42 -2 -62zM338 604h649v252q-7 82 -98 150.5t-227 68.5q-138 0 -228.5 -69.5t-95.5 -149.5v-252z" />
    <glyph glyph-name="oneeighth" unicode="&#x215b;" horiz-adv-x="1982" 
d="M1241 1526h328l-1043 -1600h-329zM481 610h-260l53 389q16 103 52 181l-4 2q-52 -36 -105 -62l-84 -47l-22 8l53 252l354 152h86zM1399 -39q-151 0 -232.5 60t-81.5 163q0 94 51 160t142 96q-107 43 -107 160q0 118 97 195t256 77q135 0 210.5 -55.5t75.5 -148.5
q0 -76 -42.5 -137.5t-118.5 -90.5q137 -49 137 -180q0 -139 -111.5 -219t-275.5 -80zM1475 518q32 0 52.5 26t20.5 68q0 62 -53 62q-34 0 -54 -29t-20 -65q0 -29 15 -45.5t39 -16.5zM1425 158q40 0 68.5 30t28.5 82q0 39 -19.5 59.5t-52.5 20.5q-41 0 -66.5 -29.5
t-25.5 -84.5q0 -38 18 -58t49 -20z" />
    <glyph glyph-name="threeeighths" unicode="&#x215c;" horiz-adv-x="1982" 
d="M1309 1526h327l-1042 -1600h-330zM340 573q-169 0 -252 69t-82 210l250 41l20 -14q0 -91 74 -91q35 0 58.5 29.5t23.5 69.5q0 71 -78 71h-32l22 160h18q50 0 78.5 25.5t28.5 68.5q0 58 -51 58q-31 0 -55.5 -19t-34.5 -53l-25 -10l-223 43q103 254 391 254
q125 0 195.5 -54.5t70.5 -152.5q0 -79 -46.5 -141.5t-123.5 -92.5q62 -15 96.5 -62t34.5 -120q0 -120 -103 -204.5t-255 -84.5zM1466 -39q-151 0 -232 60t-81 163q0 94 51 160t142 96q-107 43 -107 160q0 118 96.5 195t255.5 77q134 0 210.5 -56t76.5 -148q0 -75 -43.5 -137
t-118.5 -91q137 -49 137 -180q0 -139 -111.5 -219t-275.5 -80zM1542 518q33 0 53.5 26t20.5 68q0 62 -53 62q-34 0 -54 -29t-20 -65q0 -29 14.5 -45.5t38.5 -16.5zM1493 158q40 0 68 30t28 82q0 39 -19 59.5t-52 20.5q-42 0 -68.5 -29.5t-26.5 -84.5q0 -38 18.5 -58
t51.5 -20z" />
    <glyph glyph-name="fiveeighths" unicode="&#x215d;" horiz-adv-x="1982" 
d="M1311 1526h327l-1042 -1600h-330zM342 571q-324 0 -330 254l252 52l21 -11q3 -41 20 -59.5t53 -18.5q42 0 68.5 31.5t26.5 81.5q0 82 -101 82q-123 0 -231 -63l-47 18l108 512h547l-31 -213h-321l-21 -88q60 14 117 14q115 0 182.5 -61.5t67.5 -167.5
q0 -158 -107.5 -260.5t-273.5 -102.5zM1473 -39q-151 0 -232.5 60t-81.5 163q0 94 51 160t142 96q-107 43 -107 160q0 118 96.5 195t255.5 77q134 0 210.5 -56t76.5 -148q0 -75 -43.5 -137t-118.5 -91q138 -49 138 -180q0 -139 -111.5 -219t-275.5 -80zM1548 518
q33 0 53.5 26t20.5 68q0 62 -53 62q-34 0 -54 -29t-20 -65q0 -29 14.5 -45.5t38.5 -16.5zM1499 158q40 0 68 30t28 82q0 39 -19 59.5t-52 20.5q-42 0 -68 -29.5t-26 -84.5q0 -38 18 -58t51 -20z" />
    <glyph glyph-name="seveneighths" unicode="&#x215e;" horiz-adv-x="1982" 
d="M1247 1526h328l-1043 -1600h-329zM133 647l348 572h-325l32 227h715l-6 -25l-514 -837l-45 -15zM1403 -39q-151 0 -232 60t-81 163q0 94 50.5 160t141.5 96q-106 43 -106 160q0 118 96.5 195t255.5 77q136 0 211.5 -55.5t75.5 -148.5q0 -76 -43 -137.5t-119 -90.5
q137 -49 137 -180q0 -139 -111.5 -219t-275.5 -80zM1479 518q32 0 52.5 26t20.5 68q0 62 -53 62q-34 0 -54 -29t-20 -65q0 -29 15 -45.5t39 -16.5zM1430 158q40 0 68 30t28 82q0 39 -19.5 59.5t-52.5 20.5q-41 0 -66.5 -29.5t-25.5 -84.5q0 -38 18.5 -58t49.5 -20z" />
    <glyph glyph-name="arrowleft" unicode="&#x2190;" horiz-adv-x="1857" 
d="M952 217l-176 -178l-649 670l649 669l176 -178v-16l-211 -205q-90 -84 -168 -139l2 -4q95 6 226 6h930v-267h-930q-131 0 -226 9l-2 -4q92 -68 168 -142l211 -205v-16z" />
    <glyph glyph-name="arrowup" unicode="&#x2191;" horiz-adv-x="1675" 
d="M838 1489l669 -649l-178 -176h-16l-205 210q-69 72 -141 168l-4 -2q8 -84 8 -225v-930h-266v930q0 130 6 225l-4 2q-52 -73 -140 -168l-205 -210h-16l-178 176z" />
    <glyph glyph-name="arrowright" unicode="&#x2192;" horiz-adv-x="1857" 
d="M1731 709l-648 -670l-178 178v16l211 205q63 61 168 142l-2 4q-95 -9 -225 -9h-930v267h930q131 0 225 -6l2 4q-89 65 -168 139l-211 205v16l178 178z" />
    <glyph glyph-name="arrowdown" unicode="&#x2193;" horiz-adv-x="1675" 
d="M1329 711l178 -179l-669 -647l-670 647l178 179h16l205 -211q79 -84 140 -168l4 2q-6 94 -6 225v930h266v-930q0 -141 -8 -225l4 -2q85 110 141 168l205 211h16z" />
    <glyph glyph-name="arrowboth" unicode="&#x2194;" horiz-adv-x="2705" 
d="M1753 1200l176 178l649 -669l-649 -670l-176 178v16l211 205q76 74 168 142l-2 4q-95 -9 -225 -9h-1104q-131 0 -226 9l-2 -4q92 -68 168 -142l211 -205v-16l-176 -178l-649 670l649 669l176 -178v-16l-211 -205q-90 -84 -168 -139l2 -4q95 6 226 6h1104q131 0 225 -6
l2 4q-78 55 -168 139l-211 205v16z" />
    <glyph glyph-name="arrowupdn" unicode="&#x2195;" horiz-adv-x="1675" 
d="M346 1110l-178 176l670 649l669 -649l-178 -176h-16l-205 211q-69 72 -141 168l-4 -2q8 -84 8 -225v-1104q0 -140 -8 -228l4 -2q67 94 141 170l205 211h16l178 -176l-669 -651l-670 651l178 176h16l205 -211q90 -96 140 -170l4 2q-6 99 -6 228v1104q0 130 6 225l-4 2
q-52 -73 -140 -168l-205 -211h-16z" />
    <glyph glyph-name="uni2196" unicode="&#x2196;" horiz-adv-x="1560" 
d="M438 322h-250l17 931l932 17l-2 -252l-11 -10l-293 2q-102 3 -221 20v-4q49 -41 164 -156l660 -655l-189 -188l-657 655q-80 77 -156 168l-4 -2q21 -143 21 -219l4 -293z" />
    <glyph glyph-name="uni2197" unicode="&#x2197;" horiz-adv-x="1560" 
d="M1356 1253l16 -931h-252l-12 14l2 293q2 75 23 219l-5 2q-81 -96 -155 -168l-658 -655l-188 188l657 655q142 137 164 156v4q-119 -18 -219 -20l-293 -2l-10 10l-2 252z" />
    <glyph glyph-name="uni2198" unicode="&#x2198;" horiz-adv-x="1560" 
d="M1120 973h252l-16 -932l-932 -14l2 249l10 13l293 -4q108 -3 219 -19v4q-30 25 -164 154l-657 655l188 191l658 -658q83 -80 155 -166l5 3q-21 144 -23 219l-2 293z" />
    <glyph glyph-name="uni2199" unicode="&#x2199;" horiz-adv-x="1560" 
d="M205 41l-17 932h250l15 -12l-4 -293q0 -76 -21 -219l4 -3q68 81 156 166l657 658l189 -191l-660 -655q-115 -115 -164 -154v-4q110 16 221 19l293 4l11 -13l2 -249z" />
    <glyph glyph-name="partialdiff" unicode="&#x2202;" horiz-adv-x="1433" 
d="M696 1489q115 0 207.5 -45t155 -122t104 -184t59.5 -228t17 -257q-4 -335 -161 -513.5t-435 -178.5q-136 0 -247 59t-177.5 172.5t-66.5 260.5q0 186 115.5 321t285.5 135q175 0 303 -131q-9 198 -68 301t-165 103q-101 0 -197 -111l-18 -2l-215 152q73 122 205 195
t298 73zM688 285q76 0 122 61t36 156q-64 84 -170 84q-57 0 -97 -40t-40 -108q0 -64 42 -108.5t107 -44.5z" />
    <glyph glyph-name="emptyset" unicode="&#x2205;" horiz-adv-x="1433" 
d="M1182 1257l141 -139l-156 -155q103 -144 103 -330q0 -160 -76.5 -291t-210 -206t-295.5 -75q-182 0 -330 95l-161 -162l-140 137l160 160q-106 147 -106 342q0 157 75.5 287t208 204t293.5 74q193 0 336 -98zM416 633q0 -63 22 -121l375 375q-57 31 -123 31
q-115 0 -194.5 -82.5t-79.5 -202.5zM965 633q0 57 -21 106l-371 -370q55 -25 117 -25q119 0 197 81.5t78 207.5z" />
    <glyph glyph-name="product" unicode="&#x220f;" horiz-adv-x="1511" 
d="M541 -446h-414v1533h-107v363h1471v-363h-107v-1533h-413v1533h-430v-1533z" />
    <glyph glyph-name="summation" unicode="&#x2211;" horiz-adv-x="1323" 
d="M1296 -446h-1269v311l544 674l-520 598v311h1223v-363h-696l456 -544l-491 -625h753v-362z" />
    <glyph glyph-name="minus" unicode="&#x2212;" horiz-adv-x="1433" 
d="M1235 494h-1081v258h1081v-258z" />
    <glyph glyph-name="uni2215" unicode="&#x2215;" horiz-adv-x="790" 
d="M592 1546h354l-745 -1620h-357z" />
    <glyph glyph-name="uni2219" unicode="&#x2219;" horiz-adv-x="901" 
d="M436 401q-99 0 -162 65t-63 159q0 93 63.5 154t161.5 61t162 -61t64 -154q0 -94 -63.5 -159t-162.5 -65z" />
    <glyph glyph-name="radical" unicode="&#x221a;" horiz-adv-x="1376" 
d="M887 -6h-475l-230 573h-149v363h459l151 -506h10l230 1026h489z" />
    <glyph glyph-name="infinity" unicode="&#x221e;" horiz-adv-x="1724" 
d="M461 236q-168 0 -276.5 107t-108.5 275q0 169 106 275t273 106q106 0 198.5 -49t190.5 -157q100 109 192 157.5t199 48.5q166 0 271.5 -106.5t105.5 -274.5t-108.5 -275t-276.5 -107q-103 0 -191 45t-192 151q-104 -106 -192 -151t-191 -45zM463 489q90 0 215 125
q-137 131 -221 131q-49 0 -83 -37.5t-34 -91.5q0 -57 34 -92t89 -35zM1225 489q57 0 90 35t33 92q0 55 -33 92t-84 37q-81 0 -221 -131q122 -125 215 -125z" />
    <glyph glyph-name="integral" unicode="&#x222b;" horiz-adv-x="1433" 
d="M514 172v866q0 144 15 233.5t55 148.5t104.5 82.5t167.5 23.5q48 0 109.5 -10.5t95.5 -22.5v-274l-33 -13q-54 29 -108 29q-55 0 -79 -49t-24 -178v-867q0 -144 -15 -233.5t-55 -148.5t-104.5 -82t-167.5 -23q-48 0 -109.5 10.5t-95.5 22.5v274l33 12q52 -28 109 -28
q55 0 78.5 49t23.5 178z" />
    <glyph glyph-name="approxequal" unicode="&#x2248;" horiz-adv-x="1433" 
d="M328 662l-21 -5l-180 117q153 281 360 281q72 0 133.5 -21t97.5 -46.5t85 -46.5t100 -21q106 0 176 131l19 2l182 -115q-155 -281 -362 -281q-67 0 -128 21.5t-99.5 46.5t-90 46.5t-100.5 21.5q-102 0 -172 -131zM328 199l-21 -2l-180 114q153 281 360 281
q72 0 133.5 -21t97.5 -46.5t85 -46.5t100 -21q106 0 176 131l19 4l182 -117q-155 -280 -362 -280q-67 0 -128 21t-99.5 46.5t-90 46.5t-100.5 21q-102 0 -172 -131z" />
    <glyph glyph-name="notequal" unicode="&#x2260;" horiz-adv-x="1433" 
d="M1264 956v-256h-402l-67 -151h469v-258h-586l-107 -240h-258l107 240h-287v258h404l67 151h-471v256h586l106 238h258l-106 -238h287z" />
    <glyph glyph-name="lessequal" unicode="&#x2264;" horiz-adv-x="1433" 
d="M174 985l1065 377v-285l-668 -211l668 -213v-284l-1065 376v240zM1239 0h-1065v256h1065v-256z" />
    <glyph glyph-name="greaterequal" unicode="&#x2265;" horiz-adv-x="1433" 
d="M170 1077v285l1065 -377v-240l-1065 -376v284l668 213zM1235 0h-1065v256h1065v-256z" />
    <glyph glyph-name="lozenge" unicode="&#x25ca;" horiz-adv-x="1433" 
d="M782 -39h-254l-372 764l374 764h252l381 -764zM467 725l188 -418l195 418l-195 420z" />
    <glyph glyph-name="fi" unicode="&#xfb01;" horiz-adv-x="1386" 
d="M809 1190l-21 -8q-34 18 -73 18q-45 0 -71 -32.5t-36 -104.5l-18 -131h170l-43 -295h-168l-152 -1083h-399l152 1083h-158l41 295h157l19 129q35 247 138.5 356t299.5 109q118 0 219 -33zM1135 1077q-100 0 -164 57t-64 146q0 90 63 145.5t165 55.5q101 0 163 -55.5
t62 -145.5q0 -89 -62.5 -146t-162.5 -57zM1155 0h-399l131 932h399z" />
    <glyph glyph-name="fl" unicode="&#xfb02;" horiz-adv-x="1396" 
d="M809 1190l-21 -8q-34 18 -73 18q-45 0 -71 -32.5t-36 -104.5l-18 -131h170l-43 -295h-168l-152 -1083h-399l152 1083h-158l41 295h157l19 129q35 247 138.5 356t299.5 109q118 0 219 -33zM1165 0h-399l211 1501h399z" />
    <glyph glyph-name="i.loclTRK" horiz-adv-x="612" 
d="M344 1057q-100 0 -163.5 57t-63.5 146q0 90 62.5 145t164.5 55q101 0 163 -55.5t62 -144.5t-62.5 -146t-162.5 -57zM383 0h-399l131 932h399z" />
    <glyph glyph-name="zero.osf" horiz-adv-x="1148" 
d="M457 -39q-211 0 -328 113t-117 317q0 282 163 458.5t423 176.5q211 0 326.5 -112.5t115.5 -317.5q0 -284 -161.5 -459.5t-421.5 -175.5zM485 238q72 0 123 106t51 258q0 148 -90 148q-75 0 -125.5 -105.5t-50.5 -259.5q0 -147 92 -147z" />
    <glyph glyph-name="one.osf" horiz-adv-x="821" 
d="M592 0h-436l39 270q9 62 45 163.5t77 178.5l-6 2q-17 -15 -47 -41t-46 -39.5t-40 -30t-47 -28.5l-115 -61l-32 12l79 379l519 219h153z" />
    <glyph glyph-name="two.osf" horiz-adv-x="991" 
d="M856 0h-971l4 39l525 442q67 55 96 98.5t29 88.5q0 34 -18.5 52.5t-51.5 18.5q-93 0 -137 -123l-41 -14l-309 45q63 186 204.5 282.5t350.5 96.5q188 0 292.5 -72t104.5 -204q0 -103 -50.5 -188t-166.5 -175l-17 -10q-70 -55 -155 -103v-4q115 33 221 33h131z" />
    <glyph glyph-name="three.osf" horiz-adv-x="1052" 
d="M436 -336q-246 0 -372.5 107.5t-122.5 314.5l358 59l37 -20q-3 -162 108 -162q60 0 101 49.5t41 122.5q0 107 -129 107h-41l35 237h20q83 0 127.5 43t44.5 123q0 88 -82 88q-107 0 -149 -139l-39 -16l-322 63q74 189 222.5 287t363.5 98q182 0 286.5 -82.5t104.5 -226.5
q0 -116 -71.5 -210t-190.5 -134q97 -26 150 -96t53 -171q0 -190 -152 -316t-381 -126z" />
    <glyph glyph-name="four.osf" horiz-adv-x="1212" 
d="M922 -317h-424l45 317h-604l32 252l647 739h486l-94 -688h145l-41 -303h-147zM532 496l-165 -193h233l16 115q14 109 72 282h-8q-108 -154 -148 -204z" />
    <glyph glyph-name="five.osf" horiz-adv-x="1028" 
d="M393 -336q-236 0 -356.5 97.5t-122.5 287.5l360 70l31 -15q3 -64 32 -93t89 -29q63 0 104 51.5t41 128.5q0 127 -147 127q-181 0 -344 -99l-68 27l160 770h807l-43 -301h-485l-35 -158q106 25 172 25q175 0 278 -93.5t103 -252.5q0 -154 -74.5 -278.5t-206 -194.5
t-295.5 -70z" />
    <glyph glyph-name="six.osf" horiz-adv-x="1179" 
d="M471 -39q-215 0 -340 110.5t-125 301.5q0 162 91.5 321t295.5 363l301 307l250 -162l6 -39l-145 -155q-125 -122 -238 -185l2 -6q101 43 191 43q141 0 223 -88.5t82 -243.5q0 -251 -165 -409t-429 -158zM516 291q69 0 118.5 55t49.5 133q0 57 -33 91t-90 34
q-72 0 -120 -53.5t-48 -136.5q0 -57 33 -90t90 -33z" />
    <glyph glyph-name="seven.osf" horiz-adv-x="983" 
d="M14 -240l537 924h-510l43 303h1022l-4 -43l-762 -1261l-72 -23z" />
    <glyph glyph-name="eight.osf" horiz-adv-x="1081" 
d="M420 -39q-223 0 -346 90t-123 250q0 139 78 240.5t221 148.5q-164 68 -164 242q0 182 147.5 299t380.5 117q195 0 308.5 -84t113.5 -226q0 -119 -65 -211t-180 -135q206 -73 206 -276q0 -202 -160 -328.5t-417 -126.5zM539 807q52 0 85 43t33 108q0 46 -23 73.5t-61 27.5
q-56 0 -90 -42t-34 -112q0 -45 24 -71.5t66 -26.5zM457 246q72 0 115.5 52.5t43.5 137.5q0 56 -30 88.5t-84 32.5q-70 0 -114 -51t-44 -133q0 -59 30.5 -93t82.5 -34z" />
    <glyph glyph-name="nine.osf" horiz-adv-x="1173" 
d="M727 -70l-270 -274l-248 162l-6 39l110 123q58 63 116 107t157 95l-2 8q-141 -61 -224 -61q-143 0 -225 87.5t-82 240.5q0 256 167.5 413.5t432.5 157.5q212 0 335.5 -111.5t123.5 -300.5q0 -75 -20 -150t-52.5 -139.5t-85 -135.5t-104 -129.5t-123.5 -131.5zM557 385
q73 0 121.5 52.5t48.5 133.5q0 58 -34 92.5t-91 34.5q-72 0 -120 -53.5t-48 -134.5q0 -57 33 -91t90 -34z" />
    <glyph glyph-name="zero.tf" horiz-adv-x="1433" 
d="M604 -39q-248 0 -383 155t-135 433q0 191 50.5 362t141 299.5t226 203.5t297.5 75q248 0 382 -153.5t134 -430.5q0 -153 -31 -294.5t-92.5 -259.5t-146.5 -205t-199 -136t-244 -49zM645 348q57 0 104 51.5t75.5 133t43.5 174t15 182.5q0 213 -123 213q-57 0 -104 -51
t-76 -131t-44.5 -172t-15.5 -181q0 -219 125 -219z" />
    <glyph glyph-name="one.tf" horiz-adv-x="1433" 
d="M1106 1487l-158 -1137h226l-50 -350h-911l49 350h264l47 348q19 136 80 293l-6 4q-82 -63 -170 -106l-151 -78l-33 14l86 404l590 258h137z" />
    <glyph glyph-name="two.tf" horiz-adv-x="1433" 
d="M1151 0h-1157l6 47l633 623q123 117 175 195.5t52 146.5q0 45 -26 69.5t-74 24.5q-135 0 -193 -186l-41 -17l-370 55q92 269 262.5 400t429.5 131q206 0 331.5 -106t125.5 -281q0 -163 -87.5 -324.5t-252.5 -294.5l-52 -43q-64 -53 -161 -110l-2 -6q145 34 264 34h186z
" />
    <glyph glyph-name="three.tf" horiz-adv-x="1433" 
d="M645 -39q-282 0 -422 118t-137 353l401 66l35 -21q0 -162 133 -162q69 0 115.5 53t46.5 130q0 56 -39 86t-110 30h-52l37 263h29q92 0 144.5 45t52.5 125q0 44 -26 68t-75 24q-57 0 -101.5 -35t-66.5 -96l-41 -19l-358 72q85 210 251 319t400 109q211 0 330 -91t119 -251
q0 -132 -79.5 -237.5t-211.5 -151.5q104 -28 163.5 -107.5t59.5 -193.5q0 -140 -78 -254t-215 -178t-305 -64z" />
    <glyph glyph-name="four.tf" horiz-adv-x="1433" 
d="M1059 0h-414l37 266h-682l41 293l737 897h488l-119 -840h160l-50 -350h-161zM664 846l-193 -230h270l21 142q19 146 69 323h-6q-71 -127 -161 -235z" />
    <glyph glyph-name="five.tf" horiz-adv-x="1433" 
d="M625 -39q-542 0 -551 430l407 80l35 -18q3 -72 35.5 -105t101.5 -33q77 0 126.5 58t49.5 147q0 73 -46 111.5t-134 38.5q-206 0 -389 -109l-76 29l181 860h911l-47 -344h-553l-35 -168q108 27 201 27q195 0 308.5 -105t113.5 -285q0 -176 -82 -316t-228 -219t-329 -79z
" />
    <glyph glyph-name="six.tf" horiz-adv-x="1433" 
d="M612 -39q-249 0 -392.5 126t-143.5 343q0 182 99.5 357t342.5 421l346 355l287 -187l8 -45l-176 -180q-132 -132 -268 -209l2 -4q116 49 217 49q162 0 255 -102.5t93 -282.5q0 -136 -51 -255.5t-139.5 -204t-213 -133t-266.5 -48.5zM653 338q85 0 140 60.5t55 154.5
q0 65 -36.5 102t-100.5 37q-85 0 -141 -60t-56 -151q0 -66 37.5 -104.5t101.5 -38.5z" />
    <glyph glyph-name="seven.tf" horiz-adv-x="1433" 
d="M207 86l608 995h-565l51 369h1192l-6 -43l-879 -1421l-69 -25z" />
    <glyph glyph-name="eight.tf" horiz-adv-x="1433" 
d="M602 -37q-252 0 -389 101t-137 276q0 153 89 263.5t245 160.5q-185 74 -185 266q0 197 163 328t427 131q223 0 350 -94.5t127 -249.5q0 -129 -72.5 -229.5t-201.5 -151.5q231 -81 231 -301q0 -154 -88.5 -269t-234 -173t-324.5 -58zM733 895q59 0 97 45.5t38 120.5
q0 50 -27 77t-75 27q-63 0 -99 -47.5t-36 -113.5q0 -52 27 -80.5t75 -28.5zM647 281q75 0 125.5 55t50.5 145q0 64 -36 99.5t-97 35.5q-75 0 -125.5 -55.5t-50.5 -144.5q0 -64 36 -99.5t97 -35.5z" />
    <glyph glyph-name="nine.tf" horiz-adv-x="1433" 
d="M891 242l-346 -355l-289 189l-10 47l176 176q72 74 132 121.5t134 85.5l-4 8q-121 -51 -209 -51q-162 0 -255 101t-93 278q0 190 86 337t242 228.5t358 81.5q243 0 382.5 -125t139.5 -342q0 -182 -99.5 -357t-344.5 -423zM702 758q83 0 137 59.5t54 151.5
q0 66 -37.5 104.5t-101.5 38.5q-84 0 -138.5 -60t-54.5 -153q0 -67 37.5 -104t103.5 -37z" />
    <glyph glyph-name="zero.dnom" horiz-adv-x="827" 
d="M293 -39q-149 0 -229 92.5t-80 261.5q0 153 50 278.5t148 202t226 76.5q148 0 228.5 -91t80.5 -253q0 -155 -50 -283t-148 -206t-226 -78zM317 201q32 0 58 30.5t40.5 79t22.5 101.5t8 104q0 117 -63 117q-32 0 -58 -29t-41.5 -75.5t-23.5 -98t-8 -102.5q0 -127 65 -127z
" />
    <glyph glyph-name="one.dnom" horiz-adv-x="827" 
d="M461 0h-260l53 389q10 89 49 180l-2 2q-49 -34 -104 -61l-86 -47l-23 8l55 252l355 151h86z" />
    <glyph glyph-name="two.dnom" horiz-adv-x="827" 
d="M614 0h-694l4 29l389 383q65 61 91 99.5t26 74.5q0 24 -14.5 36.5t-38.5 12.5q-70 0 -107 -103l-22 -10l-232 35q57 160 158.5 237.5t257.5 77.5q123 0 198 -63.5t75 -167.5q0 -195 -195 -352l-25 -21q-28 -23 -98 -63v-6q93 22 160 22h98z" />
    <glyph glyph-name="three.dnom" horiz-adv-x="827" 
d="M305 -39q-169 0 -252 69t-82 210l250 41l21 -15q0 -90 73 -90q34 0 58 29t24 69q0 72 -80 72h-30l22 160h19q50 0 78 25.5t28 68.5q0 57 -51 57q-31 0 -55.5 -19t-36.5 -52l-23 -11l-223 43q103 254 391 254q124 0 194 -54t70 -152q0 -79 -45.5 -142t-122.5 -92
q62 -15 96 -62t34 -120q0 -120 -102.5 -204.5t-254.5 -84.5z" />
    <glyph glyph-name="four.dnom" horiz-adv-x="827" 
d="M569 -2h-258l23 143h-400l27 187l422 516h307l-67 -484h92l-31 -219h-94zM322 479l-101 -119h150l10 72q9 88 41 191h-4q-50 -93 -96 -144z" />
    <glyph glyph-name="five.dnom" horiz-adv-x="827" 
d="M295 -39q-326 0 -332 254l254 51l21 -10q3 -78 73 -78q41 0 66.5 31.5t25.5 81.5q0 82 -100 82q-120 0 -229 -64l-47 19l106 512h549l-31 -213h-323l-21 -88q63 14 117 14q117 0 183.5 -61.5t66.5 -167.5q0 -158 -106.5 -260.5t-272.5 -102.5z" />
    <glyph glyph-name="six.dnom" horiz-adv-x="827" 
d="M291 -39q-149 0 -235.5 75.5t-86.5 205.5q0 106 60 209t204 251l201 205l178 -114l4 -29l-100 -102q-60 -60 -156 -117v-4q73 28 127 28q96 0 150.5 -60t54.5 -167q0 -164 -114 -272.5t-287 -108.5zM317 195q46 0 75.5 33t29.5 85q0 35 -20 55.5t-54 20.5
q-46 0 -76 -33.5t-30 -83.5q0 -35 20 -56t55 -21z" />
    <glyph glyph-name="seven.dnom" horiz-adv-x="827" 
d="M31 37l348 571h-324l31 228h717l-6 -25l-514 -838l-45 -14z" />
    <glyph glyph-name="eight.dnom" horiz-adv-x="827" 
d="M293 -39q-151 0 -233.5 60t-82.5 163q0 93 52 159.5t143 96.5q-106 42 -106 160t96.5 195t253.5 77q136 0 212.5 -56t76.5 -148q0 -75 -43.5 -137t-118.5 -91q135 -48 135 -180q0 -139 -110.5 -219t-274.5 -80zM369 518q31 0 51 26t20 68q0 62 -51 62q-34 0 -55 -29.5
t-21 -64.5q0 -28 16 -45t40 -17zM319 158q40 0 67.5 30t27.5 82q0 39 -19 59.5t-51 20.5q-42 0 -68 -29.5t-26 -84.5q0 -38 18 -58t51 -20z" />
    <glyph glyph-name="nine.dnom" horiz-adv-x="827" 
d="M473 131l-201 -203l-180 117l-6 29l100 98q71 74 156 117l-2 4q-68 -27 -123 -27q-96 0 -150.5 58.5t-54.5 162.5q0 172 114.5 278.5t299.5 106.5q145 0 228 -74.5t83 -203.5q0 -108 -59 -212t-205 -251zM358 446q46 0 75.5 32t29.5 81q0 37 -20.5 59.5t-55.5 22.5
q-44 0 -73 -33t-29 -84q0 -37 19.5 -57.5t53.5 -20.5z" />
    <glyph glyph-name="zero.numr" horiz-adv-x="827" 
d="M379 571q-149 0 -229 93t-80 262q0 153 50 278.5t148 202t226 76.5q148 0 228.5 -91t80.5 -253q0 -155 -50 -283t-148 -206.5t-226 -78.5zM403 811q32 0 58 30.5t40.5 79t22.5 101.5t8 104q0 117 -63 117q-32 0 -58 -29t-41.5 -75.5t-23.5 -98t-8 -102.5q0 -127 65 -127z
" />
    <glyph glyph-name="one.numr" horiz-adv-x="827" 
d="M547 610h-260l53 389q11 90 49 181l-2 2q-54 -38 -104 -62l-86 -47l-23 8l55 252l355 152h86z" />
    <glyph glyph-name="two.numr" horiz-adv-x="827" 
d="M700 610h-694l4 29l389 383q65 61 91 99.5t26 74.5q0 24 -14.5 36.5t-38.5 12.5q-71 0 -107 -102l-22 -10l-232 34q57 161 158.5 238.5t257.5 77.5q123 0 198 -64t75 -168q0 -195 -195 -352l-25 -20q-33 -26 -98 -64v-6q93 22 160 22h98z" />
    <glyph glyph-name="three.numr" horiz-adv-x="827" 
d="M391 571q-169 0 -252 69t-82 210l250 41l21 -14q0 -91 73 -91q34 0 58 29.5t24 69.5q0 71 -80 71h-30l22 160h19q50 0 78 25.5t28 68.5q0 58 -51 58q-31 0 -55.5 -19t-36.5 -53l-23 -10l-223 43q103 254 391 254q124 0 194 -54.5t70 -152.5q0 -79 -45.5 -142t-122.5 -92
q62 -15 96 -62t34 -120q0 -120 -102.5 -204.5t-254.5 -84.5z" />
    <glyph glyph-name="four.numr" horiz-adv-x="827" 
d="M655 608h-258l23 144h-400l27 186l422 516h307l-67 -483h92l-31 -219h-94zM408 1090l-101 -119h150l10 71q9 88 41 191h-4q-49 -91 -96 -143z" />
    <glyph glyph-name="five.numr" horiz-adv-x="827" 
d="M381 571q-326 0 -332 254l254 52l21 -11q3 -78 73 -78q41 0 66.5 31.5t25.5 81.5q0 82 -100 82q-121 0 -229 -63l-47 18l106 512h549l-31 -213h-323l-21 -88q63 14 117 14q117 0 183.5 -61.5t66.5 -167.5q0 -158 -106.5 -260.5t-272.5 -102.5z" />
    <glyph glyph-name="six.numr" horiz-adv-x="827" 
d="M377 571q-149 0 -235.5 75.5t-86.5 205.5q0 106 60 209.5t204 251.5l201 205l178 -115l4 -29l-100 -102q-60 -60 -156 -117v-4q76 29 127 29q96 0 150.5 -60.5t54.5 -167.5q0 -164 -114 -272.5t-287 -108.5zM403 805q46 0 75.5 33.5t29.5 85.5q0 35 -20 55t-54 20
q-46 0 -76 -33t-30 -83q0 -36 20 -57t55 -21z" />
    <glyph glyph-name="seven.numr" horiz-adv-x="827" 
d="M117 647l348 572h-324l31 227h717l-6 -25l-514 -837l-45 -15z" />
    <glyph glyph-name="eight.numr" horiz-adv-x="827" 
d="M379 571q-151 0 -233.5 60.5t-82.5 163.5q0 93 52 159.5t143 96.5q-106 42 -106 159q0 118 96.5 195.5t253.5 77.5q136 0 212.5 -56.5t76.5 -148.5q0 -75 -43.5 -136.5t-118.5 -90.5q135 -48 135 -181q0 -139 -110.5 -219t-274.5 -80zM455 1128q31 0 51 26.5t20 68.5
q0 61 -51 61q-34 0 -55 -29.5t-21 -64.5q0 -28 16 -45t40 -17zM406 768q40 0 67 30.5t27 82.5q0 39 -19 59.5t-51 20.5q-41 0 -67.5 -30t-26.5 -85q0 -38 18.5 -58t51.5 -20z" />
    <glyph glyph-name="nine.numr" horiz-adv-x="827" 
d="M559 741l-201 -202l-180 116l-6 29l100 98q71 74 156 117l-2 4q-65 -26 -123 -26q-96 0 -150.5 58.5t-54.5 162.5q0 172 114.5 278.5t299.5 106.5q145 0 228 -75t83 -204q0 -108 -59 -212t-205 -251zM444 1057q46 0 75.5 31.5t29.5 80.5q0 37 -20.5 59.5t-55.5 22.5
q-44 0 -73 -32.5t-29 -83.5q0 -37 19.5 -57.5t53.5 -20.5z" />
    <glyph glyph-name="exclamdown.case" horiz-adv-x="747" 
d="M442 1475q98 0 161 -63t63 -155q0 -93 -63.5 -157t-160.5 -64q-101 0 -166 63.5t-65 157.5q0 92 65 155t166 63zM203 930h381l-111 -930h-420z" />
    <glyph glyph-name="questiondown.case" horiz-adv-x="1196" 
d="M670 1475q100 0 162.5 -62.5t62.5 -155.5t-64 -157t-161 -64q-100 0 -165 64t-65 157q0 92 65 155t165 63zM440 930h379l-6 -56q-10 -97 -64 -168.5t-174 -154.5q-77 -52 -108 -89t-31 -81q0 -40 26 -63t70 -23q64 0 109.5 41t67.5 115l36 16l345 -49q-55 -215 -220 -337
t-399 -122q-207 0 -331 96t-124 254q0 142 75 250t235 201q55 34 79.5 64t30.5 71z" />
    <glyph glyph-name="periodcentered.case" horiz-adv-x="655" 
d="M297 492q-100 0 -162.5 61.5t-62.5 153.5q0 93 64 157t161 64q100 0 164.5 -63.5t64.5 -157.5q0 -92 -64.5 -153.5t-164.5 -61.5z" />
    <glyph glyph-name="parenleft.case" horiz-adv-x="743" 
d="M563 -109l-276 -116q-115 189 -163.5 429.5t-19.5 487.5q29 266 149 530.5t302 471.5l246 -121q-335 -395 -391 -881q-49 -444 153 -801z" />
    <glyph glyph-name="parenright.case" horiz-adv-x="743" 
d="M246 1583l276 117q115 -189 163.5 -430t19.5 -488q-29 -265 -148.5 -529.5t-302.5 -471.5l-246 121q336 395 391 880q49 444 -153 801z" />
    <glyph glyph-name="braceleft.case" horiz-adv-x="743" 
d="M18 604l37 258h13q67 1 105 40.5t50 119.5l41 303q24 154 112.5 241t229.5 87h185l-35 -248h-78q-53 0 -85 -35t-40 -98l-43 -295q-13 -104 -71.5 -168.5t-139.5 -73.5v-4q75 -9 115.5 -75t27.5 -171l-41 -292q-11 -63 11 -97.5t75 -34.5h80l-35 -247h-184
q-140 0 -205 88t-43 241l41 301q12 82 -14 121t-92 39h-17z" />
    <glyph glyph-name="braceright.case" horiz-adv-x="743" 
d="M774 862l-35 -258h-14q-133 -3 -154 -160l-43 -303q-22 -154 -111.5 -240.5t-230.5 -86.5h-184l35 247h78q53 0 85.5 35.5t41.5 98.5l41 294q15 103 73 168t138 74v4q-76 9 -116.5 75.5t-25.5 170.5l41 293q9 63 -13 97t-75 34h-80l35 248h186q139 0 204.5 -88.5
t43.5 -241.5l-41 -301q-12 -82 14.5 -121t92.5 -39h14z" />
    <glyph glyph-name="bracketleft.case" horiz-adv-x="712" 
d="M481 -186h-485l258 1839h485l-34 -248h-187l-188 -1344h186z" />
    <glyph glyph-name="bracketright.case" horiz-adv-x="710" 
d="M510 -186h-483l34 247h185l188 1344h-184l35 248h483z" />
    <glyph glyph-name="hyphen.case" horiz-adv-x="655" 
d="M500 477h-467l30 228h467z" />
    <glyph glyph-name="uni00AD.case" horiz-adv-x="655" 
d="M500 477h-467l30 228h467z" />
    <glyph glyph-name="endash.case" horiz-adv-x="1024" 
d="M901 477h-901l31 228h901z" />
    <glyph glyph-name="emdash.case" horiz-adv-x="1576" 
d="M1454 477h-1454l31 228h1454z" />
    <glyph glyph-name="guillemotleft.case" horiz-adv-x="1245" 
d="M506 332l-230 -139l-260 452l387 451l191 -140v-24l-240 -287l160 -289zM1018 332l-230 -139l-260 452l387 451l191 -140v-24l-240 -287l160 -289z" />
    <glyph glyph-name="guillemotright.case" horiz-adv-x="1245" 
d="M623 645l-387 -452l-191 139v24l240 289l-160 287l8 24l229 140zM1135 645l-387 -452l-191 139l-2 24l242 289l-160 287l8 24l229 140z" />
    <glyph glyph-name="guilsinglleft.case" horiz-adv-x="710" 
d="M522 332l-229 -139l-260 452l387 451l190 -140v-24l-239 -287l159 -289z" />
    <glyph glyph-name="guilsinglright.case" horiz-adv-x="735" 
d="M623 645l-387 -452l-191 139v24l240 289l-160 287l8 24l229 140z" />
    <glyph glyph-name="uni2206" horiz-adv-x="1552" 
d="M616 1450h496l330 -1450h-1571zM690 745l-174 -397h389l-63 397q-25 167 -25 334h-10q-45 -164 -117 -334z" />
    <glyph glyph-name="at.case" horiz-adv-x="1816" 
d="M924 -186q-258 0 -456.5 102t-307.5 289t-109 430q0 182 67 340.5t184 271.5t282 177.5t354 64.5q230 0 408.5 -90.5t277 -254t98.5 -374.5q0 -232 -132 -377t-343 -145q-86 0 -145 34.5t-74 94.5q-35 -57 -102.5 -93t-139.5 -36q-131 0 -212.5 97.5t-81.5 252.5
q0 197 112 330t277 133q66 0 120 -32t74 -83l12 62h244l-49 -250q-39 -189 -39 -215q0 -72 76 -72q65 0 109.5 81t44.5 198q0 247 -140 382.5t-395 135.5q-283 0 -457 -173t-174 -454q0 -279 173.5 -442.5t467.5 -163.5q197 0 371 86l20 -6l84 -195q-199 -106 -499 -106z
M858 471q63 0 107.5 70.5t44.5 167.5q0 133 -101 133q-60 0 -104.5 -71.5t-44.5 -168.5q0 -60 26 -95.5t72 -35.5z" />
    <glyph glyph-name="caron.alt" horiz-adv-x="495" 
d="M586 1395l-254 -398l-207 80l192 396l29 16z" />
    <glyph glyph-name="uni0308.case" 
d="M-698 1571q-74 0 -123 49.5t-49 122.5q0 71 50 120.5t122 49.5q70 0 120 -49.5t50 -120.5q0 -73 -49 -122.5t-121 -49.5zM-254 1571q-72 0 -121 49.5t-49 122.5q0 71 50 120.5t120 49.5q72 0 122 -49.5t50 -120.5q0 -73 -50 -122.5t-122 -49.5z" />
    <glyph glyph-name="uni0307.case" 
d="M-246 1567q-100 0 -163.5 56t-63.5 146q0 89 63 144t164 55t163.5 -55t62.5 -144q0 -90 -63 -146t-163 -56z" />
    <glyph glyph-name="gravecomb.case" 
d="M-68 1565h-288l-267 256l17 18h332z" />
    <glyph glyph-name="acutecomb.case" 
d="M-375 1565h-289l244 274h342l8 -18z" />
    <glyph glyph-name="uni030B.case" 
d="M-735 1565h-291l242 274h344l6 -18zM-254 1565h-291l242 274h342l8 -18z" />
    <glyph glyph-name="uni0302.case" 
d="M-352 1565l-123 135l-168 -135h-250l-14 20l289 254h311l211 -254l-19 -20h-237z" />
    <glyph glyph-name="uni030C.case" 
d="M-326 1565h-311l-215 258l21 20h241l127 -139l166 139h244l12 -20z" />
    <glyph glyph-name="uni0306.case" 
d="M-264 1554q-159 0 -242.5 72t-79.5 209l23 18h184q1 -46 38 -70t103 -24q138 0 166 94h183l20 -18q-32 -137 -134 -209t-261 -72z" />
    <glyph glyph-name="uni030A.case" 
d="M-137 1538q-88 0 -145.5 55t-57.5 140q0 107 77 183.5t183 76.5q88 0 145.5 -55t57.5 -140q0 -106 -77 -183t-183 -77zM-125 1647q57 0 97 39.5t40 95.5q0 44 -29 73t-75 29q-57 0 -97 -39.5t-40 -95.5q0 -44 29 -73t75 -29z" />
    <glyph glyph-name="tildecomb.case" 
d="M-133 1569q92 0 166.5 79t99.5 203h-158l-16 -12q-27 -65 -82 -65q-37 0 -80.5 19t-92.5 38.5t-99 19.5q-91 0 -166 -79t-101 -203h162l19 12q23 68 82 68q36 0 77 -20t89 -40t100 -20z" />
    <glyph glyph-name="uni0304.case" 
d="M66 1622h-691l31 213h690z" />
    <glyph glyph-name="brevecombcy" 
d="M-414 1085q-161 0 -245 73t-80 216l22 19h185q3 -103 139 -103q144 0 168 103h184l18 -19q-32 -144 -131.5 -216.5t-259.5 -72.5z" />
    <glyph glyph-name="brevecombcy.case" 
d="M-264 1554q-159 0 -242.5 72t-79.5 209l23 18h184q1 -46 38 -70t103 -24q138 0 166 94h183l20 -18q-32 -137 -134 -209t-261 -72z" />
    </font>
</defs>
</svg>
