<?xml version="1.0" standalone="no"?>
<!DOCTYPE svg PUBLIC "-//W3C//DTD SVG 1.1//EN" "http://www.w3.org/Graphics/SVG/1.1/DTD/svg11.dtd" >
<svg xmlns="http://www.w3.org/2000/svg" xmlns:xlink="http://www.w3.org/1999/xlink" version="1.1">
<metadata>
Created by FontForge 20201107 at Thu Jul 11 23:01:29 2024
 By 
Copyright (c) 2020 by Botio Nikoltchev. All rights reserved.
</metadata>
<defs>
<font id="Quasimoda-SemiBoldItalic" horiz-adv-x="0" >
  <font-face 
    font-family="Quasimoda SemiBold"
    font-weight="600"
    font-style="italic"
    font-stretch="normal"
    units-per-em="2048"
    panose-1="0 0 7 0 0 0 0 0 0 0"
    ascent="1638"
    descent="-410"
    x-height="915"
    cap-height="1450"
    bbox="-1249 -565 2572 2300"
    underline-thickness="102"
    underline-position="-204"
    slope="-8"
    unicode-range="U+000D-FB02"
  />
<missing-glyph horiz-adv-x="1343" 
d="M205 1522h934v-1522h-934v1522zM1020 109v1304h-696v-1304h696zM500 995l-21 -8l-78 17q19 104 91.5 164.5t179.5 60.5q113 0 183.5 -64t70.5 -166q0 -75 -27.5 -128t-95.5 -109q-61 -51 -79 -83t-19 -91l-3 -68h-96l-2 70q-2 65 23.5 115.5t83.5 101.5q66 56 87 94.5
t21 93.5q0 63 -41.5 103.5t-109.5 40.5q-66 0 -110.5 -37.5t-57.5 -106.5zM662 252q-32 0 -55 22t-23 54q0 33 22.5 55.5t55.5 22.5q31 0 53 -22.5t22 -55.5q0 -32 -22 -54t-53 -22z" />
    <glyph glyph-name="f_i" unicode="fi" horiz-adv-x="1177" 
d="M721 1315l-16 -8q-45 22 -89 22q-63 0 -96.5 -45t-50.5 -160l-29 -209h211l-24 -178h-211l-166 -1183h-223l166 1183h-170l24 178h170l29 207q32 221 113.5 312.5t238.5 91.5q77 0 160 -27zM979 1186q-64 0 -106 39t-42 100q0 58 42.5 97.5t105.5 39.5q62 0 103.5 -39.5
t41.5 -99.5t-41.5 -98.5t-103.5 -38.5zM905 0h-223l127 915h223z" />
    <glyph glyph-name="f_l" unicode="fl" horiz-adv-x="1187" 
d="M721 1315l-16 -8q-45 22 -89 22q-63 0 -96.5 -45t-50.5 -160l-29 -209h211l-24 -178h-211l-166 -1183h-223l166 1183h-170l24 178h170l29 207q32 221 113.5 312.5t238.5 91.5q77 0 160 -27zM915 0h-223l211 1501h223z" />
    <glyph glyph-name=".notdef" horiz-adv-x="1343" 
d="M205 1522h934v-1522h-934v1522zM1020 109v1304h-696v-1304h696zM500 995l-21 -8l-78 17q19 104 91.5 164.5t179.5 60.5q113 0 183.5 -64t70.5 -166q0 -75 -27.5 -128t-95.5 -109q-61 -51 -79 -83t-19 -91l-3 -68h-96l-2 70q-2 65 23.5 115.5t83.5 101.5q66 56 87 94.5
t21 93.5q0 63 -41.5 103.5t-109.5 40.5q-66 0 -110.5 -37.5t-57.5 -106.5zM662 252q-32 0 -55 22t-23 54q0 33 22.5 55.5t55.5 22.5q31 0 53 -22.5t22 -55.5q0 -32 -22 -54t-53 -22z" />
    <glyph glyph-name=".null" 
 />
    <glyph glyph-name="nonmarkingreturn" horiz-adv-x="682" 
 />
    <glyph glyph-name="NULL" 
 />
    <glyph glyph-name="NULL" 
 />
    <glyph glyph-name="CR" unicode="&#xd;" horiz-adv-x="595" 
 />
    <glyph glyph-name="space" unicode=" " horiz-adv-x="595" 
 />
    <glyph glyph-name="exclam" unicode="!" horiz-adv-x="677" 
d="M387 428h-215l133 1022h238zM238 -20q-63 0 -105.5 41.5t-42.5 103.5t42.5 104.5t105.5 42.5t106 -42.5t43 -104.5q0 -61 -43 -103t-106 -42z" />
    <glyph glyph-name="quotedbl" unicode="&#x22;" horiz-adv-x="710" 
d="M293 879h-178l80 571h178zM627 879h-178l79 571h177z" />
    <glyph glyph-name="numbersign" unicode="#" horiz-adv-x="1390" 
d="M1323 1065l-27 -184h-209l-86 -312h232l-27 -184h-258l-108 -385h-201l109 385h-338l-109 -385h-203l109 385h-182l24 184h211l86 312h-231l24 184h260l109 385h203l-109 -385h338l109 385h200l-108 -385h182zM463 569h338l86 312h-338z" />
    <glyph glyph-name="dollar" unicode="$" horiz-adv-x="1433" 
d="M893 1270l-59 -424q185 -89 262.5 -181.5t77.5 -220.5q0 -185 -129 -319t-334 -160l-21 -145h-164l21 145q-285 29 -404 301l183 113l36 -10q37 -90 88.5 -137.5t124.5 -59.5l70 500q-175 78 -254.5 169.5t-79.5 217.5q0 176 123.5 294.5t325.5 133.5l20 145h164
l-20 -151q112 -21 194.5 -81t126.5 -155l-178 -112l-35 12q-52 99 -139 125zM559 1085q0 -44 26.5 -80t96.5 -79l49 352q-79 -17 -125.5 -68.5t-46.5 -124.5zM799 594l-58 -414q84 28 134.5 91t50.5 141q0 55 -29.5 97.5t-97.5 84.5z" />
    <glyph glyph-name="percent" unicode="%" horiz-adv-x="1918" 
d="M494 745q-141 0 -233.5 89t-92.5 225q0 170 125 295t295 125q142 0 234.5 -88.5t92.5 -225.5q0 -170 -125.5 -295t-295.5 -125zM506 0h-201l1075 1450h199zM512 909q94 0 161.5 69.5t67.5 164.5q0 75 -48.5 123.5t-123.5 48.5q-94 0 -160.5 -68.5t-66.5 -165.5
q0 -76 47.5 -124t122.5 -48zM1298 -29q-142 0 -234.5 88.5t-92.5 225.5q0 170 125 295t295 125q141 0 234 -89.5t93 -224.5q0 -169 -125 -294.5t-295 -125.5zM1317 135q94 0 161.5 69.5t67.5 164.5q0 76 -48.5 124t-123.5 48q-95 0 -162 -69t-67 -165q0 -75 48 -123.5
t124 -48.5z" />
    <glyph glyph-name="ampersand" unicode="&#x26;" horiz-adv-x="1435" 
d="M1130 784h216q-105 -298 -256 -497l247 -287h-284l-119 139q-205 -178 -475 -178q-191 0 -306.5 100t-115.5 265q0 291 340 460q-127 146 -127 299q0 180 123.5 292t320.5 112q158 0 254 -78t96 -207q0 -140 -91 -255.5t-261 -200.5l264 -310q95 138 156 334zM674 1317
q-88 0 -147.5 -58.5t-59.5 -144.5q0 -50 29.5 -113.5t81.5 -121.5q253 127 253 297q0 63 -43.5 102t-113.5 39zM498 154q166 0 309 133l-311 366q-230 -115 -230 -297q0 -92 64 -147t168 -55z" />
    <glyph glyph-name="quotesingle" unicode="'" horiz-adv-x="382" 
d="M281 879h-177l80 571h176z" />
    <glyph glyph-name="parenleft" unicode="(" horiz-adv-x="657" 
d="M424 -254l-170 -84q-95 155 -143 355t-41 411q9 290 126 580.5t314 515.5l152 -97q-183 -215 -287 -473.5t-111 -519.5q-15 -385 160 -688z" />
    <glyph glyph-name="parenright" unicode=")" horiz-adv-x="657" 
d="M252 1442l168 84q95 -155 143 -355t41 -411q-7 -290 -124.5 -580.5t-315.5 -515.5l-152 96q184 215 288 474t112 520q12 385 -160 688z" />
    <glyph glyph-name="asterisk" unicode="*" horiz-adv-x="892" 
d="M713 731l-101 -53l-28 4l-131 272l-211 -213l-27 2l-82 84v29l213 191l-254 122l-8 27l57 104l27 9l248 -140l39 271l22 14l115 -18l18 -23l-53 -266l279 49l24 -16l19 -115l-13 -25l-284 -30l139 -250z" />
    <glyph glyph-name="plus" unicode="+" horiz-adv-x="1433" 
d="M768 700h467v-159h-467v-467h-162v467h-467v159h467v469h162v-469z" />
    <glyph glyph-name="comma" unicode="," horiz-adv-x="610" 
d="M391 213l-342 -551l-147 59l276 560l23 10z" />
    <glyph glyph-name="hyphen" unicode="-" horiz-adv-x="655" 
d="M479 373h-467l23 162h467z" />
    <glyph glyph-name="period" unicode="." horiz-adv-x="591" 
d="M195 -20q-63 0 -105.5 41.5t-42.5 103.5t42.5 104.5t105.5 42.5q64 0 106.5 -42.5t42.5 -104.5t-42.5 -103.5t-106.5 -41.5z" />
    <glyph glyph-name="slash" unicode="/" horiz-adv-x="819" 
d="M692 1450h213l-776 -1448h-215z" />
    <glyph glyph-name="zero" unicode="0" horiz-adv-x="1288" 
d="M530 -39q-216 0 -334 149.5t-118 421.5q0 268 82 486.5t231 344.5t336 126q216 0 334.5 -149t118.5 -418t-82.5 -488.5t-231.5 -346t-336 -126.5zM545 180q110 0 199.5 102.5t138.5 272t49 367.5q0 169 -56.5 258.5t-162.5 89.5q-110 0 -199.5 -101t-138.5 -269t-49 -365
q0 -172 56.5 -263.5t162.5 -91.5z" />
    <glyph glyph-name="one" unicode="1" horiz-adv-x="731" 
d="M442 0h-241l139 989q13 90 39 178l-6 2q-39 -28 -127 -75l-185 -93l-20 9l53 243l490 226h65z" />
    <glyph glyph-name="two" unicode="2" horiz-adv-x="1097" 
d="M887 0h-979l4 39l438 410q242 219 349.5 372.5t107.5 280.5q0 82 -50 127t-139 45q-229 0 -309 -260l-41 -15l-196 33q68 226 215 341.5t368 115.5q181 0 289.5 -96t108.5 -256q0 -332 -424 -715l-127 -113q-18 -16 -38 -32.5t-47 -37.5t-46 -36l-6 -2q97 10 215 10h335z
" />
    <glyph glyph-name="three" unicode="3" horiz-adv-x="1124" 
d="M457 -39q-230 0 -352.5 113.5t-116.5 320.5l207 31l32 -20q-2 -110 61 -174t173 -64q129 0 210 85t81 220q0 193 -248 193h-55l24 174h39q145 0 228 73t83 201q0 78 -50.5 123t-139.5 45q-100 0 -175.5 -57t-109.5 -158l-37 -12l-192 35q60 189 204.5 294t344.5 105
q184 0 293.5 -92t109.5 -246q0 -142 -83.5 -250.5t-223.5 -146.5q106 -22 167.5 -102t61.5 -199q0 -209 -154.5 -350.5t-381.5 -141.5z" />
    <glyph glyph-name="four" unicode="4" horiz-adv-x="1181" 
d="M854 0h-238l41 299h-718l16 123l911 1048h195l-135 -962h168l-29 -209h-170zM666 946l-387 -438h411l37 270q34 221 70 348l-4 -6q-69 -107 -127 -174z" />
    <glyph glyph-name="five" unicode="5" horiz-adv-x="1142" 
d="M449 -39q-222 0 -344 106.5t-119 297.5l209 34l32 -14q-1 -106 58.5 -161.5t175.5 -55.5q137 0 230 102.5t93 253.5q0 107 -67.5 169.5t-184.5 62.5q-196 0 -360 -113l-55 19l162 788h772l-29 -207h-565l-74 -350q113 45 244 45q183 0 292 -105t109 -280
q0 -167 -75 -302.5t-207.5 -212.5t-296.5 -77z" />
    <glyph glyph-name="six" unicode="6" horiz-adv-x="1179" 
d="M684 922q169 0 269 -103t100 -278q0 -166 -75 -298.5t-208.5 -207t-300.5 -74.5q-209 0 -329 112.5t-120 307.5q0 159 84.5 314.5t305.5 402.5l370 418l168 -107l2 -31l-223 -252q-133 -147 -270 -264q111 60 227 60zM492 172q135 0 226 99t91 245q0 103 -60 162t-165 59
q-138 0 -229 -96.5t-91 -245.5q0 -103 62 -163t166 -60z" />
    <glyph glyph-name="seven" unicode="7" horiz-adv-x="991" 
d="M2 37l741 1198h-655l31 215h999l-4 -39l-891 -1440l-47 -10z" />
    <glyph glyph-name="eight" unicode="8" horiz-adv-x="1122" 
d="M440 -39q-218 0 -337 94t-119 260q0 162 95 285t255 170q-195 71 -195 272q0 195 141 321t367 126q186 0 297 -87.5t111 -230.5q0 -138 -78.5 -245.5t-212.5 -153.5q118 -37 181 -117t63 -194q0 -226 -159 -363t-409 -137zM569 872q112 0 178 68t66 182q0 85 -52.5 133
t-144.5 48q-111 0 -177 -69t-66 -181q0 -86 51 -133.5t145 -47.5zM471 154q133 0 214 83t81 220q0 103 -63 161t-175 58q-131 0 -214 -84.5t-83 -220.5q0 -103 63.5 -160t176.5 -57z" />
    <glyph glyph-name="nine" unicode="9" horiz-adv-x="1181" 
d="M748 352l-373 -418l-166 107l-6 31l223 252q169 179 279 268l-5 4q-123 -68 -227 -68q-169 0 -270 104t-101 277q0 256 165.5 418t426.5 162q209 0 327 -110t118 -302q0 -161 -84 -317t-307 -408zM580 713q135 0 223 97t88 247q0 103 -60 162t-163 59q-137 0 -228.5 -97
t-91.5 -243q0 -106 61 -165.5t171 -59.5z" />
    <glyph glyph-name="colon" unicode=":" horiz-adv-x="671" 
d="M328 639q-62 0 -105 43t-43 104q0 60 42.5 102t105.5 42t105 -42t42 -102q0 -61 -42.5 -104t-104.5 -43zM236 -20q-63 0 -105.5 42.5t-42.5 102.5t42.5 101.5t105.5 41.5q62 0 104.5 -41.5t42.5 -101.5q0 -61 -42.5 -103t-104.5 -42z" />
    <glyph glyph-name="semicolon" unicode=";" horiz-adv-x="745" 
d="M446 639q-62 0 -104.5 43t-42.5 104q0 60 42 102t105 42t105.5 -42t42.5 -102q0 -61 -43 -104t-105 -43zM475 213l-342 -551l-147 59l276 560l23 10z" />
    <glyph glyph-name="less" unicode="&#x3c;" horiz-adv-x="1433" 
d="M143 688l1065 475v-170l-833 -370l833 -371v-172l-1065 475v133z" />
    <glyph glyph-name="equal" unicode="=" horiz-adv-x="1433" 
d="M1255 739h-1114v160h1114v-160zM1255 344h-1114v160h1114v-160z" />
    <glyph glyph-name="greater" unicode="&#x3e;" horiz-adv-x="1433" 
d="M188 993v170l1065 -475v-133l-1065 -475v170l834 373z" />
    <glyph glyph-name="question" unicode="?" horiz-adv-x="1101" 
d="M565 428h-215l12 96q10 97 61 175.5t155 158.5q102 71 148 134.5t46 148.5q0 68 -46 110.5t-124 42.5q-96 0 -162 -53t-96 -151l-37 -11l-182 35q56 177 187.5 276t314.5 99q174 0 277.5 -88t103.5 -232q0 -133 -64.5 -234.5t-193.5 -193.5q-92 -62 -126 -107t-44 -122z
M426 -20q-64 0 -107 41.5t-43 103.5t43.5 104.5t106.5 42.5t106 -42.5t43 -104.5q0 -61 -43 -103t-106 -42z" />
    <glyph glyph-name="at" unicode="@" horiz-adv-x="1841" 
d="M891 -354q-250 0 -440 101t-294 287.5t-104 432.5q0 175 64.5 330t176.5 265t269.5 174t335.5 64q229 0 407 -89t276.5 -250.5t98.5 -370.5q0 -233 -123 -380t-319 -147q-89 0 -144.5 42.5t-58.5 113.5q-39 -69 -112 -112.5t-154 -43.5q-135 0 -217 95.5t-82 251.5
q0 202 120.5 339.5t295.5 137.5q72 0 131 -35.5t84 -95.5l20 88h164l-74 -350q-5 -25 -14.5 -74t-13.5 -72.5t-4 -36.5q0 -96 102 -96q94 0 158.5 103t64.5 251q0 267 -162 419.5t-446 152.5q-192 0 -343.5 -86t-236 -240.5t-84.5 -349.5q0 -305 181.5 -482.5t488.5 -177.5
q130 0 222.5 20.5t201.5 72.5l16 -4l62 -136q-193 -112 -514 -112zM805 215q100 0 171 95.5t71 234.5q0 90 -42 139t-118 49q-94 0 -163 -97t-69 -233q0 -83 42 -135.5t108 -52.5z" />
    <glyph glyph-name="A" unicode="A" horiz-adv-x="1415" 
d="M1305 0h-261l-83 340h-639l-179 -340h-276l809 1450h235zM627 922l-207 -394h493l-96 390q-33 143 -55 276h-4q-71 -160 -131 -272z" />
    <glyph glyph-name="B" unicode="B" horiz-adv-x="1234" 
d="M463 0h-418l205 1450h395q232 0 349.5 -81t117.5 -239q0 -132 -73.5 -228.5t-202.5 -133.5v-4q120 -28 187 -107.5t67 -193.5q0 -224 -161.5 -343.5t-465.5 -119.5zM461 1255l-62 -417h174q146 0 227 66.5t81 185.5q0 84 -65.5 124.5t-201.5 40.5h-153zM373 659l-64 -460
h162q193 0 288.5 67t98.5 205q1 97 -71 142.5t-226 45.5h-188z" />
    <glyph glyph-name="C" unicode="C" horiz-adv-x="1603" 
d="M741 -39q-293 0 -478 179.5t-185 469.5q0 179 68 341.5t183 280.5t274 187.5t333 69.5q220 0 376.5 -97t235.5 -286l-188 -111l-35 13q-111 258 -399 258q-160 0 -296.5 -86.5t-216 -233.5t-79.5 -317q0 -198 120.5 -321.5t311.5 -123.5q154 0 272.5 64t216.5 201l35 4
l158 -117q-272 -375 -707 -375z" />
    <glyph glyph-name="D" unicode="D" horiz-adv-x="1501" 
d="M469 0h-424l205 1450h405q354 0 544 -155.5t190 -444.5q1 -253 -111.5 -445.5t-322 -298.5t-486.5 -106zM457 1235l-144 -1020h156q325 0 499.5 163t174.5 460q0 397 -525 397h-161z" />
    <glyph glyph-name="E" unicode="E" horiz-adv-x="1167" 
d="M45 0l205 1450h846l8 -209h-647l-58 -397h592l-26 -205h-592l-62 -430h647l-53 -209h-860z" />
    <glyph glyph-name="F" unicode="F" horiz-adv-x="1107" 
d="M45 0l205 1450h817l6 -209h-616l-58 -407h568l-27 -203h-569l-88 -631h-238z" />
    <glyph glyph-name="G" unicode="G" horiz-adv-x="1703" 
d="M715 -39q-284 0 -460.5 178t-176.5 467q0 181 68.5 345t184 281.5t275.5 187t336 69.5q225 0 383.5 -95t239.5 -280l-189 -108l-33 10q-66 131 -163.5 190.5t-245.5 59.5q-164 0 -302.5 -85.5t-218 -232t-79.5 -319.5q0 -201 118.5 -325t307.5 -124q197 0 342 106.5
t180 278.5v6h-385l29 193h604l-107 -764h-219l8 70q10 80 43 149l-4 2q-91 -120 -230 -190t-306 -70z" />
    <glyph glyph-name="H" unicode="H" horiz-adv-x="1495" 
d="M283 0h-238l205 1450h237l-86 -610h684l86 610h238l-205 -1450h-237l88 627h-684z" />
    <glyph glyph-name="I" unicode="I" horiz-adv-x="573" 
d="M45 0l205 1450h237l-204 -1450h-238z" />
    <glyph glyph-name="J" unicode="J" horiz-adv-x="1024" 
d="M147 344l33 -8q9 -78 51.5 -120t114.5 -42q92 0 151 72t78 211l142 993h237l-141 -995q-32 -239 -156.5 -366.5t-324.5 -127.5q-160 0 -260 82.5t-115 224.5z" />
    <glyph glyph-name="K" unicode="K" horiz-adv-x="1320" 
d="M1092 1450h305l-639 -600l469 -850h-273l-370 688l-236 -221l-65 -467h-238l205 1450h237l-94 -670z" />
    <glyph glyph-name="L" unicode="L" horiz-adv-x="1093" 
d="M45 0l205 1450h237l-174 -1233h664l-57 -217h-875z" />
    <glyph glyph-name="M" unicode="M" horiz-adv-x="1835" 
d="M553 1450l309 -899h4l566 899h317l-205 -1450h-233l162 1145h-5l-634 -993h-37l-357 993h-4l-157 -1145h-234l205 1450h303z" />
    <glyph glyph-name="N" unicode="N" horiz-adv-x="1574" 
d="M281 0h-236l203 1450h201l440 -653q84 -124 225 -344h6q23 220 45 374l88 623h236l-205 -1473h-133l-506 734q-139 205 -221 336h-6q-15 -177 -45 -385z" />
    <glyph glyph-name="O" unicode="O" horiz-adv-x="1751" 
d="M760 -39q-197 0 -352.5 82.5t-242.5 232t-87 340.5q0 178 70 339.5t188.5 278.5t281 186t340.5 69q301 0 490.5 -181t189.5 -472q0 -177 -70.5 -339t-188.5 -279.5t-280.5 -187t-338.5 -69.5zM776 184q162 0 303 85.5t224 231.5t83 316q0 202 -123 326.5t-321 124.5
q-165 0 -306 -85t-223.5 -231.5t-82.5 -318.5q0 -199 124.5 -324t321.5 -125z" />
    <glyph glyph-name="P" unicode="P" horiz-adv-x="1185" 
d="M285 0h-240l203 1450h424q235 0 354 -93.5t119 -271.5q0 -234 -150.5 -369.5t-412.5 -135.5h-217zM461 1249l-68 -471h168q170 0 258 72.5t88 212.5q0 97 -66.5 141.5t-209.5 44.5h-170z" />
    <glyph glyph-name="Q" unicode="Q" horiz-adv-x="1751" 
d="M1044 43l-2 -10q161 -44 394 -84l18 -23l-92 -184q-376 86 -707 225q-259 32 -418 209t-159 440q0 178 70 339.5t188.5 278.5t281 186t340.5 69q301 0 490.5 -181t189.5 -472q0 -279 -164.5 -493.5t-429.5 -299.5zM330 633q0 -199 124.5 -324t321.5 -125q162 0 303 85.5
t224 231.5t83 316q0 202 -123 326.5t-321 124.5q-165 0 -306 -85t-223.5 -231.5t-82.5 -318.5z" />
    <glyph glyph-name="R" unicode="R" horiz-adv-x="1273" 
d="M811 637l348 -602l-20 -35h-238l-332 602h-200l-84 -602h-240l203 1450h444q461 0 461 -356q0 -172 -90.5 -291.5t-251.5 -165.5zM643 1249h-182l-66 -452h183q167 0 252 62t85 208q0 98 -65.5 140t-206.5 42z" />
    <glyph glyph-name="S" unicode="S" horiz-adv-x="1179" 
d="M481 -39q-178 0 -297 75t-188 230l184 113l35 -10q44 -107 110.5 -155t168.5 -48q121 0 202.5 72.5t81.5 173.5q0 75 -58.5 130.5t-207.5 123.5q-184 80 -266 172t-82 221q0 188 139 309t363 121q155 0 266.5 -62.5t165.5 -181.5l-178 -112l-35 12q-38 72 -95.5 105.5
t-140.5 33.5q-105 0 -171 -55.5t-66 -143.5q0 -61 53 -109.5t207 -123.5q193 -91 274.5 -184t81.5 -224q0 -100 -41 -189t-112.5 -154t-174 -102.5t-219.5 -37.5z" />
    <glyph glyph-name="T" unicode="T" horiz-adv-x="1243" 
d="M379 0l174 1233h-481l30 217h1203l-31 -217h-481l-175 -1233h-239z" />
    <glyph glyph-name="U" unicode="U" horiz-adv-x="1484" 
d="M631 -39q-597 0 -508 631l121 858h237l-119 -852q-32 -217 37.5 -315.5t245.5 -98.5q181 0 281.5 101.5t132.5 322.5l117 842h237l-121 -872q-41 -298 -211 -457.5t-450 -159.5z" />
    <glyph glyph-name="V" unicode="V" horiz-adv-x="1388" 
d="M651 -23h-157l-402 1473h262l207 -838q43 -184 55 -256h9q47 106 125 254l440 840h274z" />
    <glyph glyph-name="W" unicode="W" horiz-adv-x="1984" 
d="M532 -23h-178l-243 1473h251l105 -750q1 -6 16.5 -130t22.5 -193h8q2 4 152 325l348 738h112l144 -738q7 -43 26 -152.5t29 -172.5h8q15 40 131 323l314 750h264l-658 -1473h-180l-139 719q-7 37 -25.5 129t-27.5 144h-6q-24 -49 -66 -140t-61 -131z" />
    <glyph glyph-name="X" unicode="X" horiz-adv-x="1308" 
d="M168 0h-291l610 766l-376 684h288l254 -514l400 514h288l-567 -692l412 -758h-283l-293 580z" />
    <glyph glyph-name="Y" unicode="Y" horiz-adv-x="1253" 
d="M623 0h-238l84 588l-389 862h266l146 -371q18 -48 56 -144.5t56 -146.5h8q142 206 195 289l252 373h278l-630 -862z" />
    <glyph glyph-name="Z" unicode="Z" horiz-adv-x="1329" 
d="M-86 37l1018 1198h-797l31 215h1212l-6 -39l-1020 -1190h817l-30 -221h-1231z" />
    <glyph glyph-name="bracketleft" unicode="[" horiz-adv-x="651" 
d="M383 -330h-389l258 1839h389l-25 -159h-196l-211 -1520h197z" />
    <glyph glyph-name="backslash" unicode="\" horiz-adv-x="1021" 
d="M662 2l-572 1448h209l573 -1448h-210z" />
    <glyph glyph-name="bracketright" unicode="]" horiz-adv-x="649" 
d="M410 -330h-390l23 160h197l213 1520h-197l23 159h389z" />
    <glyph glyph-name="asciicircum" unicode="^" horiz-adv-x="1333" 
d="M360 557h-241l465 893h166l464 -893h-241l-307 649z" />
    <glyph glyph-name="underscore" unicode="_" horiz-adv-x="1024" 
d="M920 -150l-19 -141h-1024l19 141h1024z" />
    <glyph glyph-name="grave" unicode="`" horiz-adv-x="641" 
d="M670 1094h-174l-293 360l8 16h221z" />
    <glyph glyph-name="a" unicode="a" horiz-adv-x="1189" 
d="M375 -39q-160 0 -255 107.5t-95 293.5q0 118 38 227t102 189t153.5 128t187.5 48q96 0 175.5 -52t121.5 -146l22 159h222l-129 -915h-224l6 35l19 110q-63 -86 -156.5 -135t-187.5 -49zM453 156q132 0 224.5 103t92.5 257q0 108 -60.5 176t-156.5 68q-127 0 -214 -107
t-87 -270q0 -108 53.5 -167.5t147.5 -59.5z" />
    <glyph glyph-name="b" unicode="b" horiz-adv-x="1181" 
d="M567 -39q-94 0 -179.5 54t-125.5 139l-20 -154h-215l211 1501h223l-64 -444q-25 -181 -45 -297q71 94 164.5 144t194.5 50q155 0 249.5 -108t94.5 -291q0 -162 -66 -299t-178.5 -216t-243.5 -79zM522 156q129 0 217 108.5t88 270.5q0 107 -54 166t-148 59
q-133 0 -227.5 -107t-94.5 -260q0 -108 60 -172.5t159 -64.5z" />
    <glyph glyph-name="c" unicode="c" horiz-adv-x="1071" 
d="M444 -39q-193 0 -305 113t-112 303q0 157 70 289t194.5 210t275.5 78q140 0 244.5 -64.5t159.5 -189.5l-180 -96l-17 6q-39 82 -91.5 118t-125.5 36q-130 0 -217.5 -109.5t-87.5 -261.5q0 -112 59 -176.5t154 -64.5q78 0 143.5 38t128.5 121l17 2l153 -102
q-88 -124 -207.5 -187t-255.5 -63z" />
    <glyph glyph-name="d" unicode="d" horiz-adv-x="1193" 
d="M375 -39q-162 0 -256 107t-94 294q0 157 63 293t173.5 217.5t240.5 81.5q99 0 181 -51.5t124 -142.5q14 136 37 299l63 442h223l-210 -1501h-215l22 150q-62 -87 -158 -138t-194 -51zM453 156q133 0 226 103.5t93 256.5q0 109 -61 176.5t-158 67.5q-129 0 -215 -107.5
t-86 -269.5q0 -107 53 -167t148 -60z" />
    <glyph glyph-name="e" unicode="e" horiz-adv-x="1107" 
d="M956 420h-702q-2 -14 -2 -45q-3 -110 57 -173t160 -63q143 0 258 146l16 2l164 -84q-81 -120 -198 -181t-258 -61q-194 0 -310 113t-116 303q0 244 155.5 410.5t382.5 166.5q191 0 300.5 -108t109.5 -297q0 -66 -17 -129zM559 782q-96 0 -168 -60t-108 -165l469 -4
q9 106 -43 167.5t-150 61.5z" />
    <glyph glyph-name="f" unicode="f" horiz-adv-x="655" 
d="M721 1315l-16 -8q-45 22 -89 22q-63 0 -96.5 -45t-50.5 -160l-29 -209h211l-24 -178h-211l-166 -1183h-223l166 1183h-170l24 178h170l29 207q32 221 113.5 312.5t238.5 91.5q77 0 160 -27z" />
    <glyph glyph-name="g" unicode="g" horiz-adv-x="1198" 
d="M403 -471q-153 0 -258 55t-178 174l158 99l16 -2q47 -78 109.5 -112t155.5 -34q122 0 198.5 73t93.5 206q5 43 29 170q-64 -86 -158.5 -135.5t-191.5 -49.5q-161 0 -256.5 107t-95.5 291q0 156 64 290t175.5 213.5t243.5 79.5q98 0 177.5 -52t123.5 -146l22 159h222
l-127 -913q-31 -229 -163.5 -351t-359.5 -122zM455 168q134 0 227.5 101.5t93.5 248.5q0 108 -62 175t-163 67q-129 0 -214 -105.5t-85 -265.5q0 -104 54 -162.5t149 -58.5z" />
    <glyph glyph-name="h" unicode="h" horiz-adv-x="1167" 
d="M250 0h-223l211 1501h223l-62 -446q-3 -20 -20.5 -129.5t-26.5 -165.5q71 95 161.5 144.5t188.5 49.5q154 0 226.5 -98t46.5 -281l-82 -575h-221l71 506q20 137 -16.5 194.5t-126.5 57.5q-108 0 -189 -87.5t-102 -236.5z" />
    <glyph glyph-name="i" unicode="i" horiz-adv-x="522" 
d="M324 1186q-64 0 -106 39t-42 100q0 58 42.5 97.5t105.5 39.5q62 0 103.5 -39.5t41.5 -99.5t-41.5 -98.5t-103.5 -38.5zM250 0h-223l127 915h223z" />
    <glyph glyph-name="j" unicode="j" horiz-adv-x="583" 
d="M385 1186q-63 0 -105 39t-42 100q0 59 42 98t105 39q62 0 103.5 -39.5t41.5 -99.5t-41.5 -98.5t-103.5 -38.5zM-59 -471q-83 0 -150 29l45 178l19 6q40 -14 75 -14q66 0 101.5 44t52.5 150l139 993h223l-143 -1017q-28 -190 -116.5 -279.5t-245.5 -89.5z" />
    <glyph glyph-name="k" unicode="k" horiz-adv-x="1062" 
d="M938 0h-264l-246 420l-137 -119l-41 -301h-223l211 1501h223l-64 -461q-5 -38 -75 -487l403 362h295l-424 -356z" />
    <glyph glyph-name="l" unicode="l" horiz-adv-x="522" 
d="M250 0h-223l211 1501h223z" />
    <glyph glyph-name="m" unicode="m" horiz-adv-x="1753" 
d="M1294 954q147 0 221 -97t50 -269l-84 -588h-224l74 512q35 246 -133 246q-97 0 -174.5 -90.5t-97.5 -229.5l-60 -438h-223l70 512q20 129 -14 187.5t-119 58.5q-96 0 -173.5 -90.5t-97.5 -229.5l-59 -438h-223l127 915h221l-23 -153q139 192 324 192q113 0 180.5 -58
t81.5 -165q72 112 165.5 167.5t190.5 55.5z" />
    <glyph glyph-name="n" unicode="n" horiz-adv-x="1167" 
d="M27 0l127 915h221l-23 -155q71 95 161.5 144.5t188.5 49.5q154 0 226.5 -98t46.5 -281l-80 -575h-223l71 508q20 136 -16.5 193t-126.5 57q-108 0 -189.5 -87.5t-101.5 -236.5l-59 -434h-223z" />
    <glyph glyph-name="o" unicode="o" horiz-adv-x="1169" 
d="M473 -39q-198 0 -322 120.5t-124 311.5q0 152 75 280.5t206.5 204.5t287.5 76q196 0 320 -119.5t124 -308.5q0 -113 -45.5 -217.5t-122 -180.5t-181 -121.5t-218.5 -45.5zM483 158q133 0 231.5 105.5t98.5 248.5q0 109 -63 177.5t-164 68.5q-139 0 -236.5 -104
t-97.5 -248q0 -109 64.5 -178.5t166.5 -69.5z" />
    <glyph glyph-name="p" unicode="p" horiz-adv-x="1179" 
d="M186 -446h-223l191 1361h221l-23 -153q70 93 163 142.5t192 49.5q158 0 252 -107.5t94 -291.5q0 -162 -65.5 -299t-178 -216t-244.5 -79q-95 0 -176.5 50t-120.5 134q-12 -99 -41 -297zM520 156q131 0 218 108t87 271q0 107 -53 166t-149 59q-133 0 -227.5 -107
t-94.5 -260q0 -108 60 -172.5t159 -64.5z" />
    <glyph glyph-name="q" unicode="q" horiz-adv-x="1198" 
d="M809 756l22 159h222l-193 -1361h-223l43 301q25 183 47 290q-65 -87 -159 -135.5t-191 -48.5q-161 0 -256.5 107.5t-95.5 293.5q0 158 64 294t175.5 217t243.5 81q98 0 177.5 -52t123.5 -146zM455 156q135 0 228 103t93 257q0 109 -61.5 176.5t-161.5 67.5
q-128 0 -214.5 -107t-86.5 -270q0 -108 53.5 -167.5t149.5 -59.5z" />
    <glyph glyph-name="r" unicode="r" horiz-adv-x="849" 
d="M250 0h-223l129 915h206l-24 -170q134 209 299 209q76 0 124 -46t60 -134l-198 -104l-17 6q-15 72 -76 72q-70 0 -136.5 -97t-86.5 -237z" />
    <glyph glyph-name="s" unicode="s" horiz-adv-x="868" 
d="M315 -39q-131 0 -223 55.5t-131 161.5l156 94l12 -6q52 -137 193 -137q74 0 122 34t48 89q0 38 -38.5 70t-127.5 67q-137 53 -198.5 115t-61.5 149q0 130 106 215.5t266 85.5q122 0 208.5 -53t115.5 -147l-146 -86l-16 6q-41 112 -168 112q-63 0 -105 -32.5t-42 -79.5
q0 -36 36 -64.5t132 -70.5q137 -55 196.5 -118t59.5 -153q0 -136 -110 -221.5t-284 -85.5z" />
    <glyph glyph-name="t" unicode="t" horiz-adv-x="733" 
d="M559 182l16 -8l-16 -180q-87 -33 -192 -33q-140 0 -204.5 77.5t-43.5 229.5l65 469h-170l25 178h170l39 261l194 108h41l-51 -369h252l-25 -178h-251l-60 -422q-12 -88 11.5 -122.5t91.5 -34.5q47 0 108 24z" />
    <glyph glyph-name="u" unicode="u" horiz-adv-x="1142" 
d="M342 -39q-151 0 -222 100t-44 285l80 569h225l-76 -522q-35 -235 131 -235q99 0 178 86.5t99 222.5l63 448h223l-129 -915h-219l21 150q-68 -92 -156 -140.5t-174 -48.5z" />
    <glyph glyph-name="v" unicode="v" horiz-adv-x="983" 
d="M424 -25h-111l-290 940h237l150 -610h4l323 610h242z" />
    <glyph glyph-name="w" unicode="w" horiz-adv-x="1456" 
d="M365 -25h-125l-199 940h233l97 -604h4l315 594h90l144 -594h4l272 604h234l-463 -940h-125l-156 586h-4z" />
    <glyph glyph-name="x" unicode="x" horiz-adv-x="1001" 
d="M166 0h-272l417 475l-276 440h260l104 -190q6 -13 27 -52t29 -59h4q16 20 44.5 56.5t39.5 50.5l166 194h272l-408 -440l289 -475h-264l-117 213l-51 111h-4q-27 -38 -82 -107z" />
    <glyph glyph-name="y" unicode="y" horiz-adv-x="1011" 
d="M199 -446h-250l330 526l-256 835h253l140 -624h4l334 624h256z" />
    <glyph glyph-name="z" unicode="z" horiz-adv-x="944" 
d="M-66 20l580 713h-461l27 182h817l-4 -20l-584 -711h482l-25 -184h-834z" />
    <glyph glyph-name="braceleft" unicode="{" horiz-adv-x="698" 
d="M6 510l21 160h12q72 0 119.5 56t62.5 157l49 354q19 129 94 200.5t195 71.5h148l-23 -159h-90q-58 0 -93 -42.5t-46 -121.5l-47 -332q-17 -116 -76 -183.5t-146 -78.5v-4q77 -9 119.5 -82t28.5 -189l-47 -329q-24 -158 88 -158h96l-22 -160h-142q-120 0 -178 75.5
t-39 203.5l49 356q28 205 -116 205h-17z" />
    <glyph glyph-name="bar" unicode="|" horiz-adv-x="489" 
d="M342 -528h-195v2109h195v-2109z" />
    <glyph glyph-name="braceright" unicode="}" horiz-adv-x="698" 
d="M705 670l-23 -160h-12q-71 0 -119.5 -56t-61.5 -157l-51 -354q-19 -130 -93.5 -201.5t-194.5 -71.5h-148l23 160h90q116 0 141 164l45 332q17 116 75.5 183.5t145.5 78.5v4q-77 9 -119.5 81.5t-25.5 188.5l45 330q24 158 -88 158h-96l22 159h141q121 0 178.5 -75
t38.5 -203l-47 -357q-15 -100 14 -152t101 -52h19z" />
    <glyph glyph-name="asciitilde" unicode="~" horiz-adv-x="1433" 
d="M276 471l-16 -2l-115 76q140 229 320 229q59 0 112 -15t92 -36t75.5 -42.5t78.5 -36.5t86 -15q112 0 195 137l18 4l113 -78q-137 -227 -317 -227q-58 0 -110.5 15t-91.5 36.5t-76 42.5t-80.5 36t-88.5 15q-108 0 -195 -139z" />
    <glyph glyph-name="uni00A0" unicode="&#xa0;" horiz-adv-x="595" 
 />
    <glyph glyph-name="exclamdown" unicode="&#xa1;" horiz-adv-x="679" 
d="M403 954q64 0 107 -42t43 -103q0 -62 -43.5 -104.5t-106.5 -42.5t-106 42.5t-43 104.5q0 60 43 102.5t106 42.5zM254 504h215l-131 -1020h-238z" />
    <glyph glyph-name="cent" unicode="&#xa2;" horiz-adv-x="1433" 
d="M899 311l16 2l154 -102q-147 -208 -377 -244l-20 -147h-164l20 147q-158 22 -249 131.5t-91 278.5q0 224 136 387t344 186l20 148h162l-21 -152q105 -21 183.5 -83t120.5 -163l-179 -96l-18 6q-54 113 -135 140l-80 -584q95 35 178 145zM414 393q0 -89 38 -149t105 -82
l82 590q-100 -32 -162.5 -132.5t-62.5 -226.5z" />
    <glyph glyph-name="sterling" unicode="&#xa3;" horiz-adv-x="1433" 
d="M1112 0h-985l31 215h145q71 86 92 240l29 200h-195l25 174h195l22 164q32 230 167 363t333 133q116 0 207 -37t147 -102l-151 -160l-15 4q-75 88 -196 88q-104 0 -171 -78t-87 -227l-21 -148h311l-24 -174h-312l-24 -174q-22 -166 -105 -266h639z" />
    <glyph glyph-name="currency" unicode="&#xa4;" horiz-adv-x="1433" 
d="M416 197l-193 -193l-121 121l191 192q-98 134 -98 316q0 174 92 305l-185 184l121 121l185 -184q141 98 311 98q179 0 309 -100l186 186l119 -121l-182 -184q94 -134 94 -305q0 -181 -100 -318l188 -190l-119 -121l-192 195q-134 -95 -303 -95q-164 0 -303 93zM721 309
q130 0 215.5 92t85.5 232q0 138 -86 228.5t-215 90.5q-133 0 -218 -90t-85 -229q0 -140 85 -232t218 -92z" />
    <glyph glyph-name="yen" unicode="&#xa5;" horiz-adv-x="1433" 
d="M1145 1450h280l-526 -633h260l-22 -166h-334l-25 -174h334l-25 -166h-333l-43 -311h-238l43 311h-334l25 166h334l24 174h-334l25 166h260l-348 633h266l271 -584h8z" />
    <glyph glyph-name="brokenbar" unicode="&#xa6;" horiz-adv-x="489" 
d="M342 678h-195v905h195v-905zM342 -528h-195v907h195v-907z" />
    <glyph glyph-name="section" unicode="&#xa7;" horiz-adv-x="1185" 
d="M655 975l144 -70q114 -52 167.5 -118t53.5 -152q0 -101 -58 -185.5t-151 -123.5q98 -82 98 -215q0 -164 -139.5 -278t-341.5 -114q-158 0 -270 65t-152 179l187 109l18 -6q25 -77 89 -119.5t155 -42.5q97 0 157 51t60 133q0 45 -29 79t-94 64l-191 97
q-116 51 -168.5 114.5t-52.5 153.5q0 97 61 178t164 121q-94 85 -94 217q0 164 127.5 270.5t323.5 106.5q139 0 240 -56.5t133 -152.5l-179 -98l-16 4q-23 56 -76 87.5t-125 31.5q-88 0 -141 -45.5t-53 -120.5q0 -49 35 -86.5t118 -77.5zM504 481l162 -73q54 15 92.5 68
t38.5 116q0 52 -34 89t-112 71l-141 61q-63 -12 -108.5 -64.5t-45.5 -115.5q0 -46 32.5 -79t115.5 -73z" />
    <glyph glyph-name="dieresis" unicode="&#xa8;" horiz-adv-x="765" 
d="M303 1112q-56 0 -93.5 37t-37.5 92q0 53 38.5 91t92.5 38q52 0 89.5 -38t37.5 -91q0 -56 -36 -92.5t-91 -36.5zM684 1112q-56 0 -92.5 37t-36.5 92q0 53 37.5 91t91.5 38q52 0 90.5 -38t38.5 -91q0 -55 -36.5 -92t-92.5 -37z" />
    <glyph glyph-name="copyright" unicode="&#xa9;" horiz-adv-x="1914" 
d="M948 -39q-159 0 -301.5 59.5t-245 161t-162 242.5t-59.5 299q0 159 59.5 301t162 244t245 161.5t301.5 59.5t301.5 -59.5t244 -161.5t161 -244t59.5 -301q0 -158 -59.5 -299t-161 -242.5t-244 -161t-301.5 -59.5zM946 92q173 0 317.5 83.5t227 228.5t82.5 319
q0 131 -48.5 249t-131.5 202.5t-199 134t-246 49.5q-173 0 -317 -84t-226.5 -230t-82.5 -321q0 -174 82 -319t225.5 -228.5t316.5 -83.5zM950 281q-183 0 -304.5 123.5t-121.5 318.5q0 196 121 320t305 124q122 0 223 -55.5t160 -159.5l-123 -78l-18 3q-88 131 -238 131
q-111 0 -182.5 -78.5t-71.5 -206.5q0 -127 71.5 -204t180.5 -77q81 0 135.5 29.5t104.5 99.5l20 7l121 -86q-144 -211 -383 -211z" />
    <glyph glyph-name="ordfeminine" unicode="&#xaa;" horiz-adv-x="741" 
d="M274 891q-86 0 -137 63t-51 172q0 144 78 251.5t196 107.5q54 0 99 -29t69 -82l13 86h207l-78 -547h-209l4 19q2 18 12 65q-37 -51 -91.5 -78.5t-111.5 -27.5zM375 1065q54 0 91.5 40.5t37.5 102.5q0 45 -24.5 73t-63.5 28q-51 0 -86 -43t-35 -109q0 -42 22 -67t58 -25z
" />
    <glyph glyph-name="guillemotleft" unicode="&#xab;" horiz-adv-x="1034" 
d="M395 141l-131 -84l-227 412l342 412l108 -84v-15l-251 -313l165 -313zM788 141l-131 -84l-227 412l342 412l109 -84v-15l-252 -313l166 -313z" />
    <glyph glyph-name="logicalnot" unicode="&#xac;" horiz-adv-x="1433" 
d="M135 541v159h1100v-505h-160v346h-940z" />
    <glyph glyph-name="uni00AD" unicode="&#xad;" horiz-adv-x="655" 
d="M479 373h-467l23 162h467z" />
    <glyph glyph-name="registered" unicode="&#xae;" horiz-adv-x="1241" 
d="M641 563q-194 0 -330.5 134t-136.5 327t136.5 329t330.5 136t330.5 -136t136.5 -329t-136.5 -327t-330.5 -134zM641 637q161 0 274 114t113 273q0 160 -113 273.5t-274 113.5t-274 -113.5t-113 -273.5q0 -159 113 -273t274 -114zM825 1120q0 -97 -92 -133l141 -201
l-4 -10h-110l-131 195h-51v-195h-103v498h170q180 0 180 -154zM580 1190v-135h53q47 0 68.5 15.5t21.5 51.5t-21.5 52t-68.5 16h-53z" />
    <glyph glyph-name="macron" unicode="&#xaf;" horiz-adv-x="716" 
d="M754 1169h-590l18 154h592z" />
    <glyph glyph-name="degree" unicode="&#xb0;" horiz-adv-x="829" 
d="M416 852q-137 0 -227.5 90.5t-90.5 226.5q0 138 90.5 229t227.5 91t227 -91t90 -229q0 -137 -90.5 -227t-226.5 -90zM416 967q85 0 140.5 57.5t55.5 144.5t-56 146t-140 59q-85 0 -142 -59.5t-57 -145.5t57 -144t142 -58z" />
    <glyph glyph-name="plusminus" unicode="&#xb1;" horiz-adv-x="1433" 
d="M784 874h469v-159h-469v-305h-159v305h-467v159h467v304h159v-304zM1255 115h-1099v161h1099v-161z" />
    <glyph glyph-name="uni00B2" unicode="&#xb2;" horiz-adv-x="792" 
d="M680 942h-608l4 25l293 280q124 116 175.5 184.5t51.5 129.5q0 41 -25.5 64.5t-68.5 23.5q-116 0 -162 -131l-23 -11l-149 25q91 274 362 274q112 0 180 -59t68 -156q0 -186 -235 -389l-62 -53q-26 -24 -82 -64l-4 -2q94 11 137 11h168z" />
    <glyph glyph-name="uni00B3" unicode="&#xb3;" horiz-adv-x="792" 
d="M410 903q-145 0 -219.5 67t-71.5 195l155 23l21 -12q-1 -58 31 -91.5t88 -33.5q65 0 106 44t41 113q0 101 -127 101h-33l17 118h22q75 0 118.5 39t43.5 105q0 41 -25.5 63.5t-68.5 22.5q-109 0 -148 -111l-22 -8l-143 29q38 115 127.5 177t214.5 62q112 0 178.5 -55
t66.5 -147q0 -82 -48.5 -144.5t-129.5 -89.5q63 -12 98 -59.5t35 -118.5q0 -122 -94 -205.5t-233 -83.5z" />
    <glyph glyph-name="acute" unicode="&#xb4;" horiz-adv-x="585" 
d="M334 1094h-182l278 376h227l7 -16z" />
    <glyph glyph-name="uni00B5" unicode="&#xb5;" horiz-adv-x="1150" 
d="M186 -446h-223l191 1361h223l-72 -520q-18 -123 19 -180t131 -57q101 0 178.5 84t97.5 223l62 450h223l-105 -731q-3 -30 5 -41.5t32 -11.5q20 0 56 16l16 -8l-21 -149q-87 -23 -153 -23q-77 0 -117 39t-33 115l2 26q-60 -91 -141 -138.5t-164 -47.5q-80 0 -141 55z" />
    <glyph glyph-name="paragraph" unicode="&#xb6;" horiz-adv-x="1300" 
d="M594 -446h-195l154 1091q-172 1 -275.5 93t-103.5 243q0 211 150.5 340t398.5 129h553l-266 -1896h-195l244 1728h-223z" />
    <glyph glyph-name="periodcentered" unicode="&#xb7;" horiz-adv-x="593" 
d="M252 444q-63 0 -106.5 43t-43.5 105q0 61 43.5 103t106.5 42t105 -41.5t42 -103.5t-42 -105t-105 -43z" />
    <glyph glyph-name="cedilla" unicode="&#xb8;" horiz-adv-x="593" 
d="M152 -475q-127 0 -213 49l51 98l16 6q67 -43 148 -43q52 0 83 23t31 61q0 58 -94 58q-48 0 -88 -15l-41 41l154 197h125l-111 -143q31 8 63 8q67 0 109.5 -37t42.5 -96q0 -94 -75.5 -150.5t-200.5 -56.5z" />
    <glyph glyph-name="uni00B9" unicode="&#xb9;" horiz-adv-x="792" 
d="M520 942h-174l74 528q6 55 29 127h-3q-61 -38 -84 -49l-100 -53l-16 6l37 174l307 140h53z" />
    <glyph glyph-name="ordmasculine" unicode="&#xba;" horiz-adv-x="737" 
d="M369 891q-125 0 -203 71.5t-78 186.5q0 139 102.5 237.5t249.5 98.5q126 0 203.5 -71.5t77.5 -188.5q0 -136 -104 -235t-248 -99zM385 1069q52 0 90.5 41.5t38.5 99.5q0 45 -24.5 72t-65.5 27q-52 0 -89.5 -43t-37.5 -103q0 -42 24.5 -68t63.5 -26z" />
    <glyph glyph-name="guillemotright" unicode="&#xbb;" horiz-adv-x="1034" 
d="M473 469l-342 -412l-108 84l-3 15l252 313l-163 313l6 15l131 84zM866 469l-342 -412l-108 84v15l252 313l-166 313l6 15l131 84z" />
    <glyph glyph-name="onequarter" unicode="&#xbc;" horiz-adv-x="1792" 
d="M1249 1526h219l-1042 -1600h-221zM428 614h-172l72 529q5 51 30 127h-2q-54 -34 -84 -49l-100 -54l-16 7l37 174l307 139h51zM1411 0h-172l23 166h-416l14 104l504 588h168l-76 -543h96l-20 -149h-98zM1260 535l-191 -220h217l17 136q18 126 40 200l-2 -2
q-46 -76 -81 -114z" />
    <glyph glyph-name="onehalf" unicode="&#xbd;" horiz-adv-x="1792" 
d="M1227 1526h217l-1043 -1600h-219zM403 614h-172l72 529q9 60 31 127h-2q-61 -38 -84 -49l-101 -54l-16 7l37 174l307 139h51zM1544 0h-608l4 25l293 280q125 116 176 184.5t51 128.5q0 41 -25.5 65t-68.5 24q-112 0 -162 -132l-22 -10l-150 25q91 274 363 274
q112 0 179.5 -59t67.5 -156q0 -186 -235 -389l-61 -53q-26 -24 -82 -64l-4 -2q94 11 137 11h168z" />
    <glyph glyph-name="threequarters" unicode="&#xbe;" horiz-adv-x="1792" 
d="M1315 1526h217l-1043 -1600h-219zM344 575q-145 0 -219.5 67.5t-71.5 195.5l156 24l20 -14q-1 -58 31 -90.5t88 -32.5q65 0 106.5 43.5t41.5 112.5q0 100 -127 100h-33l16 119h23q75 0 118.5 38.5t43.5 104.5q0 41 -26 63.5t-69 22.5q-108 0 -147 -108l-23 -11l-143 29
q38 115 127.5 177.5t214.5 62.5q112 0 179 -55t67 -146q0 -83 -48.5 -146t-129.5 -90q63 -12 98 -59t35 -119q0 -121 -94.5 -205t-233.5 -84zM1475 0h-172l22 166h-416l15 104l506 588h165l-75 -543h98l-21 -149h-100zM1325 535l-190 -220h215l18 136q12 102 41 200l-4 -2
q-42 -70 -80 -114z" />
    <glyph glyph-name="questiondown" unicode="&#xbf;" horiz-adv-x="1101" 
d="M645 954q63 0 105.5 -42.5t42.5 -102.5q0 -62 -42.5 -104.5t-105.5 -42.5q-64 0 -106.5 42.5t-42.5 104.5q0 61 42.5 103t106.5 42zM506 504h215l-12 -96q-12 -98 -62 -175t-153 -157q-104 -74 -150.5 -137t-46.5 -148q0 -68 45.5 -109.5t124.5 -41.5q96 0 163 53t97 149
l37 13l180 -35q-54 -179 -185.5 -278t-314.5 -99q-176 0 -279.5 87.5t-103.5 231.5q0 134 64.5 236t193.5 192q93 63 127 108.5t46 123.5z" />
    <glyph glyph-name="Agrave" unicode="&#xc0;" horiz-adv-x="1415" 
d="M821 1839l195 -274h-170l-248 258l12 16h211zM1305 0h-261l-83 340h-639l-179 -340h-276l809 1450h235zM627 922l-207 -394h493l-96 390q-33 143 -55 276h-4q-71 -160 -131 -272z" />
    <glyph glyph-name="Aacute" unicode="&#xc1;" horiz-adv-x="1415" 
d="M1049 1839l6 -16l-283 -258h-178l233 274h222zM1305 0h-261l-83 340h-639l-179 -340h-276l809 1450h235zM627 922l-207 -394h493l-96 390q-33 143 -55 276h-4q-71 -160 -131 -272z" />
    <glyph glyph-name="Acircumflex" unicode="&#xc2;" horiz-adv-x="1415" 
d="M834 1747l-193 -182h-160l-8 16l260 258h217l183 -258l-15 -16h-149zM1305 0h-261l-83 340h-639l-179 -340h-276l809 1450h235zM627 922l-207 -394h493l-96 390q-33 143 -55 276h-4q-71 -160 -131 -272z" />
    <glyph glyph-name="Atilde" unicode="&#xc3;" horiz-adv-x="1415" 
d="M598 1589l-18 -12h-123q28 112 93 180t142 68q43 0 95 -24t99.5 -48t80.5 -24q56 0 86 83l16 13h123q-29 -111 -94.5 -179.5t-143.5 -68.5q-48 0 -98.5 24t-95.5 48t-78 24q-58 0 -84 -84zM1305 0h-261l-83 340h-639l-179 -340h-276l809 1450h235zM627 922l-207 -394h493
l-96 390q-33 143 -55 276h-4q-71 -160 -131 -272z" />
    <glyph glyph-name="Adieresis" unicode="&#xc4;" horiz-adv-x="1415" 
d="M621 1606q-56 0 -92.5 36t-36.5 93q0 51 38.5 90t90.5 39q53 0 90 -38t37 -91q0 -57 -35.5 -93t-91.5 -36zM1036 1606q-55 0 -92 36.5t-37 92.5q0 52 38 90.5t91 38.5q54 0 91.5 -38t37.5 -91q0 -57 -36.5 -93t-92.5 -36zM1305 0h-261l-83 340h-639l-179 -340h-276
l809 1450h235zM627 922l-207 -394h493l-96 390q-33 143 -55 276h-4q-71 -160 -131 -272z" />
    <glyph glyph-name="Aring" unicode="&#xc5;" horiz-adv-x="1415" 
d="M803 1544q-77 0 -128.5 49.5t-51.5 124.5q0 97 69 165.5t166 68.5q78 0 129 -49.5t51 -124.5q0 -96 -69 -165t-166 -69zM848 1866q-57 0 -97 -39.5t-40 -95.5q0 -44 29 -72.5t75 -28.5q56 0 95.5 39t39.5 94q0 44 -29 73.5t-73 29.5zM1305 0h-261l-83 340h-639l-179 -340
h-276l809 1450h235zM627 922l-207 -394h493l-96 390q-33 143 -55 276h-4q-71 -160 -131 -272z" />
    <glyph glyph-name="AE" unicode="&#xc6;" horiz-adv-x="1914" 
d="M1712 639h-592l-59 -430h645l-53 -209h-860l47 340h-455l-238 -340h-280l1018 1450h960l6 -209h-647l-55 -397h592zM772 901l-266 -373h360l56 377q15 116 63 342h-6q-67 -134 -207 -346z" />
    <glyph glyph-name="Ccedilla" unicode="&#xc7;" horiz-adv-x="1603" 
d="M1255 449l35 4l158 -117q-249 -343 -633 -373l-82 -106q31 8 64 8q67 0 109 -37t42 -96q0 -94 -75.5 -150.5t-200.5 -56.5q-127 0 -213 49l51 98l16 6q67 -43 148 -43q52 0 83 23t31 61q0 58 -94 58q-48 0 -88 -15l-41 41l125 160q-274 17 -443 194t-169 453
q0 179 68 341.5t183 280.5t274 187.5t333 69.5q220 0 376.5 -97t235.5 -286l-188 -111l-35 13q-111 258 -399 258q-160 0 -296.5 -86.5t-216 -233.5t-79.5 -317q0 -198 120.5 -321.5t311.5 -123.5q154 0 272.5 64t216.5 201z" />
    <glyph glyph-name="Egrave" unicode="&#xc8;" horiz-adv-x="1167" 
d="M905 1565h-170l-248 258l13 16h211zM45 0l205 1450h846l8 -209h-647l-58 -397h592l-26 -205h-592l-62 -430h647l-53 -209h-860z" />
    <glyph glyph-name="Eacute" unicode="&#xc9;" horiz-adv-x="1167" 
d="M659 1565h-178l234 274h221l6 -16zM45 0l205 1450h846l8 -209h-647l-58 -397h592l-26 -205h-592l-62 -430h647l-53 -209h-860z" />
    <glyph glyph-name="Ecircumflex" unicode="&#xca;" horiz-adv-x="1167" 
d="M856 1565l-135 182l-193 -182h-159l-9 16l261 258h217l182 -258l-14 -16h-150zM45 0l205 1450h846l8 -209h-647l-58 -397h592l-26 -205h-592l-62 -430h647l-53 -209h-860z" />
    <glyph glyph-name="Edieresis" unicode="&#xcb;" horiz-adv-x="1167" 
d="M510 1606q-56 0 -92.5 36t-36.5 93q0 51 38.5 90t90.5 39q53 0 90 -38t37 -91q0 -57 -35.5 -93t-91.5 -36zM926 1606q-55 0 -92 36.5t-37 92.5q0 52 38 90.5t91 38.5q54 0 91.5 -38t37.5 -91q0 -57 -36.5 -93t-92.5 -36zM45 0l205 1450h846l8 -209h-647l-58 -397h592
l-26 -205h-592l-62 -430h647l-53 -209h-860z" />
    <glyph glyph-name="Igrave" unicode="&#xcc;" horiz-adv-x="573" 
d="M575 1565h-169l-248 258l12 16h211zM45 0l205 1450h237l-204 -1450h-238z" />
    <glyph glyph-name="Iacute" unicode="&#xcd;" horiz-adv-x="573" 
d="M332 1565h-178l233 274h221l6 -16zM45 0l205 1450h237l-204 -1450h-238z" />
    <glyph glyph-name="Icircumflex" unicode="&#xce;" horiz-adv-x="573" 
d="M528 1565l-135 182l-192 -182h-160l-8 16l260 258h217l182 -258l-14 -16h-150zM45 0l205 1450h237l-204 -1450h-238z" />
    <glyph glyph-name="Idieresis" unicode="&#xcf;" horiz-adv-x="573" 
d="M180 1606q-56 0 -92.5 36t-36.5 93q0 51 38.5 90t90.5 39q53 0 90 -38t37 -91q0 -57 -35.5 -93t-91.5 -36zM596 1606q-55 0 -92 36.5t-37 92.5q0 52 38 90.5t91 38.5q54 0 91.5 -38t37.5 -91q0 -57 -36.5 -93t-92.5 -36zM45 0l205 1450h237l-204 -1450h-238z" />
    <glyph glyph-name="Eth" unicode="&#xd0;" horiz-adv-x="1501" 
d="M1389 850q1 -253 -111.5 -445.5t-322 -298.5t-486.5 -106h-424l90 645h-123l27 186h123l88 619h405q354 0 544 -155.5t190 -444.5zM313 215h156q325 0 499.5 163t174.5 460q0 397 -525 397h-161l-58 -404h359l-27 -186h-356z" />
    <glyph glyph-name="Ntilde" unicode="&#xd1;" horiz-adv-x="1574" 
d="M1059 1577q78 0 143 68.5t94 179.5h-122l-17 -13q-30 -83 -86 -83q-33 0 -80.5 24t-99 48t-94.5 24q-77 0 -142.5 -68t-93.5 -180h123l18 12q26 84 84 84q33 0 78 -24t96 -48t99 -24zM281 0h-236l203 1450h201l440 -653q84 -124 225 -344h6q23 220 45 374l88 623h236
l-205 -1473h-133l-506 734q-139 205 -221 336h-6q-15 -177 -45 -385z" />
    <glyph glyph-name="Ograve" unicode="&#xd2;" horiz-adv-x="1751" 
d="M1241 1565h-170l-248 258l13 16h211zM760 -39q-197 0 -352.5 82.5t-242.5 232t-87 340.5q0 178 70 339.5t188.5 278.5t281 186t340.5 69q301 0 490.5 -181t189.5 -472q0 -177 -70.5 -339t-188.5 -279.5t-280.5 -187t-338.5 -69.5zM776 184q162 0 303 85.5t224 231.5
t83 316q0 202 -123 326.5t-321 124.5q-165 0 -306 -85t-223.5 -231.5t-82.5 -318.5q0 -199 124.5 -324t321.5 -125z" />
    <glyph glyph-name="Oacute" unicode="&#xd3;" horiz-adv-x="1751" 
d="M997 1565h-178l234 274h221l6 -16zM760 -39q-197 0 -352.5 82.5t-242.5 232t-87 340.5q0 178 70 339.5t188.5 278.5t281 186t340.5 69q301 0 490.5 -181t189.5 -472q0 -177 -70.5 -339t-188.5 -279.5t-280.5 -187t-338.5 -69.5zM776 184q162 0 303 85.5t224 231.5t83 316
q0 202 -123 326.5t-321 124.5q-165 0 -306 -85t-223.5 -231.5t-82.5 -318.5q0 -199 124.5 -324t321.5 -125z" />
    <glyph glyph-name="Ocircumflex" unicode="&#xd4;" horiz-adv-x="1751" 
d="M1194 1565l-135 182l-193 -182h-159l-9 16l260 258h218l182 -258l-15 -16h-149zM760 -39q-197 0 -352.5 82.5t-242.5 232t-87 340.5q0 178 70 339.5t188.5 278.5t281 186t340.5 69q301 0 490.5 -181t189.5 -472q0 -177 -70.5 -339t-188.5 -279.5t-280.5 -187
t-338.5 -69.5zM776 184q162 0 303 85.5t224 231.5t83 316q0 202 -123 326.5t-321 124.5q-165 0 -306 -85t-223.5 -231.5t-82.5 -318.5q0 -199 124.5 -324t321.5 -125z" />
    <glyph glyph-name="Otilde" unicode="&#xd5;" horiz-adv-x="1751" 
d="M1180 1577q78 0 143 68.5t94 179.5h-123l-16 -13q-30 -83 -86 -83q-33 0 -80.5 24t-99 48t-94.5 24q-77 0 -142.5 -68t-93.5 -180h123l18 12q26 84 84 84q33 0 78 -24t96 -48t99 -24zM760 -39q-197 0 -352.5 82.5t-242.5 232t-87 340.5q0 178 70 339.5t188.5 278.5
t281 186t340.5 69q301 0 490.5 -181t189.5 -472q0 -177 -70.5 -339t-188.5 -279.5t-280.5 -187t-338.5 -69.5zM776 184q162 0 303 85.5t224 231.5t83 316q0 202 -123 326.5t-321 124.5q-165 0 -306 -85t-223.5 -231.5t-82.5 -318.5q0 -199 124.5 -324t321.5 -125z" />
    <glyph glyph-name="Odieresis" unicode="&#xd6;" horiz-adv-x="1751" 
d="M846 1606q-56 0 -92.5 36t-36.5 93q0 51 38.5 90t90.5 39q53 0 90 -38t37 -91q0 -57 -35.5 -93t-91.5 -36zM1262 1606q-55 0 -92 36.5t-37 92.5q0 52 38 90.5t91 38.5q54 0 91.5 -38t37.5 -91q0 -57 -36.5 -93t-92.5 -36zM760 -39q-197 0 -352.5 82.5t-242.5 232
t-87 340.5q0 178 70 339.5t188.5 278.5t281 186t340.5 69q301 0 490.5 -181t189.5 -472q0 -177 -70.5 -339t-188.5 -279.5t-280.5 -187t-338.5 -69.5zM776 184q162 0 303 85.5t224 231.5t83 316q0 202 -123 326.5t-321 124.5q-165 0 -306 -85t-223.5 -231.5t-82.5 -318.5
q0 -199 124.5 -324t321.5 -125z" />
    <glyph glyph-name="multiply" unicode="&#xd7;" horiz-adv-x="1433" 
d="M1083 1108l115 -113l-375 -374l375 -375l-115 -113l-372 375l-375 -375l-113 113l375 375l-375 374l113 113l375 -375z" />
    <glyph glyph-name="Oslash" unicode="&#xd8;" horiz-adv-x="1751" 
d="M1616 1405l-133 -133q155 -175 155 -436q0 -177 -70.5 -339t-188.5 -279.5t-280.5 -187t-338.5 -69.5q-256 0 -441 139l-126 -129l-91 72l134 135q-158 179 -158 438q0 178 70 339.5t188.5 278.5t281 186t340.5 69q262 0 445 -141l129 131zM330 633q0 -160 84 -277
l815 820q-115 92 -287 92q-165 0 -306 -85t-223.5 -231.5t-82.5 -318.5zM776 184q162 0 303 85.5t224 231.5t83 316q0 162 -79 277l-813 -820q120 -90 282 -90z" />
    <glyph glyph-name="Ugrave" unicode="&#xd9;" horiz-adv-x="1484" 
d="M1051 1565h-170l-248 258l12 16h211zM631 -39q-597 0 -508 631l121 858h237l-119 -852q-32 -217 37.5 -315.5t245.5 -98.5q181 0 281.5 101.5t132.5 322.5l117 842h237l-121 -872q-41 -298 -211 -457.5t-450 -159.5z" />
    <glyph glyph-name="Uacute" unicode="&#xda;" horiz-adv-x="1484" 
d="M805 1565h-178l233 274h221l6 -16zM631 -39q-597 0 -508 631l121 858h237l-119 -852q-32 -217 37.5 -315.5t245.5 -98.5q181 0 281.5 101.5t132.5 322.5l117 842h237l-121 -872q-41 -298 -211 -457.5t-450 -159.5z" />
    <glyph glyph-name="Ucircumflex" unicode="&#xdb;" horiz-adv-x="1484" 
d="M1001 1565l-135 182l-192 -182h-160l-8 16l260 258h217l182 -258l-14 -16h-150zM631 -39q-597 0 -508 631l121 858h237l-119 -852q-32 -217 37.5 -315.5t245.5 -98.5q181 0 281.5 101.5t132.5 322.5l117 842h237l-121 -872q-41 -298 -211 -457.5t-450 -159.5z" />
    <glyph glyph-name="Udieresis" unicode="&#xdc;" horiz-adv-x="1484" 
d="M655 1606q-56 0 -92.5 36t-36.5 93q0 51 38.5 90t90.5 39q53 0 90 -38t37 -91q0 -57 -35.5 -93t-91.5 -36zM1071 1606q-55 0 -92 36.5t-37 92.5q0 52 38 90.5t91 38.5q54 0 91.5 -38t37.5 -91q0 -57 -36.5 -93t-92.5 -36zM631 -39q-597 0 -508 631l121 858h237l-119 -852
q-32 -217 37.5 -315.5t245.5 -98.5q181 0 281.5 101.5t132.5 322.5l117 842h237l-121 -872q-41 -298 -211 -457.5t-450 -159.5z" />
    <glyph glyph-name="Yacute" unicode="&#xdd;" horiz-adv-x="1253" 
d="M678 1565h-178l233 274h221l7 -16zM623 0h-238l84 588l-389 862h266l146 -371q18 -48 56 -144.5t56 -146.5h8q142 206 195 289l252 373h278l-630 -862z" />
    <glyph glyph-name="Thorn" unicode="&#xde;" horiz-adv-x="1185" 
d="M285 0h-240l205 1450h239l-38 -270h182q235 0 354 -93.5t119 -271.5q0 -235 -150.5 -371.5t-412.5 -136.5h-217zM422 977l-68 -471h168q170 0 258 73.5t88 213.5q0 95 -66.5 139.5t-207.5 44.5h-172z" />
    <glyph glyph-name="germandbls" unicode="&#xdf;" horiz-adv-x="1171" 
d="M559 -39q-101 0 -194 37l51 182l16 6q52 -30 115 -30q113 0 185.5 96t72.5 252q0 114 -64.5 172.5t-189.5 58.5h-43l22 166h33q113 0 178.5 73t65.5 195q0 79 -44.5 122.5t-121.5 43.5q-108 0 -166.5 -72t-81.5 -235l-207 -1474h-223l207 1472q37 258 152.5 379
t326.5 121q168 0 268.5 -89t100.5 -241q0 -129 -66.5 -226t-181.5 -134q125 -23 193.5 -111.5t68.5 -226.5q0 -150 -62 -273.5t-170.5 -193.5t-240.5 -70z" />
    <glyph glyph-name="agrave" unicode="&#xe0;" horiz-adv-x="1189" 
d="M829 1110h-172l-295 360l9 17h221zM375 -39q-160 0 -255 107.5t-95 293.5q0 118 38 227t102 189t153.5 128t187.5 48q96 0 175.5 -52t121.5 -146l22 159h222l-129 -915h-224l6 35l19 110q-63 -86 -156.5 -135t-187.5 -49zM453 156q132 0 224.5 103t92.5 257
q0 108 -60.5 176t-156.5 68q-127 0 -214 -107t-87 -270q0 -108 53.5 -167.5t147.5 -59.5z" />
    <glyph glyph-name="aacute" unicode="&#xe1;" horiz-adv-x="1189" 
d="M602 1110h-182l278 377h228l6 -17zM375 -39q-160 0 -255 107.5t-95 293.5q0 118 38 227t102 189t153.5 128t187.5 48q96 0 175.5 -52t121.5 -146l22 159h222l-129 -915h-224l6 35l19 110q-63 -86 -156.5 -135t-187.5 -49zM453 156q132 0 224.5 103t92.5 257
q0 108 -60.5 176t-156.5 68q-127 0 -214 -107t-87 -270q0 -108 53.5 -167.5t147.5 -59.5z" />
    <glyph glyph-name="acircumflex" unicode="&#xe2;" horiz-adv-x="1189" 
d="M807 1094l-127 264l-201 -264h-162l-10 16l273 360h221l170 -360l-15 -16h-149zM375 -39q-160 0 -255 107.5t-95 293.5q0 118 38 227t102 189t153.5 128t187.5 48q96 0 175.5 -52t121.5 -146l22 159h222l-129 -915h-224l6 35l19 110q-63 -86 -156.5 -135t-187.5 -49z
M453 156q132 0 224.5 103t92.5 257q0 108 -60.5 176t-156.5 68q-127 0 -214 -107t-87 -270q0 -108 53.5 -167.5t147.5 -59.5z" />
    <glyph glyph-name="atilde" unicode="&#xe3;" horiz-adv-x="1189" 
d="M788 1114q77 0 142.5 69t93.5 179h-121l-16 -12q-31 -84 -88 -84q-32 0 -79 24t-99 48t-95 24q-78 0 -143 -68t-94 -180h125l16 12q30 84 86 84q33 0 78 -24t95.5 -48t98.5 -24zM375 -39q-160 0 -255 107.5t-95 293.5q0 118 38 227t102 189t153.5 128t187.5 48
q96 0 175.5 -52t121.5 -146l22 159h222l-129 -915h-224l6 35l19 110q-63 -86 -156.5 -135t-187.5 -49zM453 156q132 0 224.5 103t92.5 257q0 108 -60.5 176t-156.5 68q-127 0 -214 -107t-87 -270q0 -108 53.5 -167.5t147.5 -59.5z" />
    <glyph glyph-name="adieresis" unicode="&#xe4;" horiz-adv-x="1189" 
d="M467 1112q-56 0 -93.5 37t-37.5 92q0 53 38.5 91t92.5 38q53 0 90 -38t37 -91q0 -56 -36 -92.5t-91 -36.5zM848 1112q-56 0 -92.5 37t-36.5 92q0 53 37.5 91t91.5 38q52 0 90.5 -38t38.5 -91q0 -55 -36.5 -92t-92.5 -37zM375 -39q-160 0 -255 107.5t-95 293.5
q0 118 38 227t102 189t153.5 128t187.5 48q96 0 175.5 -52t121.5 -146l22 159h222l-129 -915h-224l6 35l19 110q-63 -86 -156.5 -135t-187.5 -49zM453 156q132 0 224.5 103t92.5 257q0 108 -60.5 176t-156.5 68q-127 0 -214 -107t-87 -270q0 -108 53.5 -167.5t147.5 -59.5z
" />
    <glyph glyph-name="aring" unicode="&#xe5;" horiz-adv-x="1189" 
d="M635 1073q-77 0 -128.5 49.5t-51.5 124.5q0 95 69.5 164.5t165.5 69.5q78 0 129 -49.5t51 -124.5q0 -95 -69 -164.5t-166 -69.5zM647 1159q56 0 95.5 39t39.5 94q0 44 -29 73.5t-73 29.5q-57 0 -97 -39.5t-40 -95.5q0 -44 29 -72.5t75 -28.5zM375 -39q-160 0 -255 107.5
t-95 293.5q0 118 38 227t102 189t153.5 128t187.5 48q96 0 175.5 -52t121.5 -146l22 159h222l-129 -915h-224l6 35l19 110q-63 -86 -156.5 -135t-187.5 -49zM453 156q132 0 224.5 103t92.5 257q0 108 -60.5 176t-156.5 68q-127 0 -214 -107t-87 -270q0 -108 53.5 -167.5
t147.5 -59.5z" />
    <glyph glyph-name="ae" unicode="&#xe6;" horiz-adv-x="1630" 
d="M223 -39q-118 0 -178.5 56.5t-60.5 148.5q0 153 154.5 243t453.5 128l8 59q21 172 -121 172q-132 0 -260 -147l-18 -3l-129 95q83 111 206 176t259 65q198 0 245 -145h4q130 145 338 145q164 0 267.5 -109.5t103.5 -295.5q0 -70 -16 -129h-680v-47q-1 -107 54.5 -170.5
t139.5 -63.5q141 0 256 146l19 2l162 -84q-81 -120 -198 -181t-257 -61q-107 0 -203 52.5t-143 131.5q-115 -101 -209 -142.5t-197 -41.5zM827 555l449 -2q9 105 -41.5 167t-140.5 62q-92 0 -163.5 -61t-103.5 -166zM315 115q61 0 124 30.5t149 104.5q-17 71 -8 160
q-197 -29 -284 -78t-87 -131q0 -39 26 -62.5t80 -23.5z" />
    <glyph glyph-name="ccedilla" unicode="&#xe7;" horiz-adv-x="1071" 
d="M737 311l17 2l153 -102q-156 -221 -397 -246l-84 -108q31 8 63 8q67 0 109.5 -37t42.5 -96q0 -94 -75.5 -150.5t-200.5 -56.5q-127 0 -213 49l51 98l16 6q67 -43 148 -43q52 0 83 23t31 61q0 58 -94 58q-47 0 -88 -15l-41 41l125 162q-165 17 -260.5 127.5t-95.5 284.5
q0 157 70 289t194.5 210t275.5 78q140 0 244.5 -64.5t159.5 -189.5l-180 -96l-17 6q-39 82 -91.5 118t-125.5 36q-130 0 -217.5 -109.5t-87.5 -261.5q0 -112 59 -176.5t154 -64.5q78 0 143.5 38t128.5 121z" />
    <glyph glyph-name="egrave" unicode="&#xe8;" horiz-adv-x="1107" 
d="M567 1487l238 -377h-172l-295 360l8 17h221zM956 420h-702q-2 -14 -2 -45q-3 -110 57 -173t160 -63q143 0 258 146l16 2l164 -84q-81 -120 -198 -181t-258 -61q-194 0 -310 113t-116 303q0 244 155.5 410.5t382.5 166.5q191 0 300.5 -108t109.5 -297q0 -66 -17 -129z
M559 782q-96 0 -168 -60t-108 -165l469 -4q9 106 -43 167.5t-150 61.5z" />
    <glyph glyph-name="eacute" unicode="&#xe9;" horiz-adv-x="1107" 
d="M903 1487l6 -17l-329 -360h-183l279 377h227zM956 420h-702q-2 -14 -2 -45q-3 -110 57 -173t160 -63q143 0 258 146l16 2l164 -84q-81 -120 -198 -181t-258 -61q-194 0 -310 113t-116 303q0 244 155.5 410.5t382.5 166.5q191 0 300.5 -108t109.5 -297q0 -66 -17 -129z
M559 782q-96 0 -168 -60t-108 -165l469 -4q9 106 -43 167.5t-150 61.5z" />
    <glyph glyph-name="ecircumflex" unicode="&#xea;" horiz-adv-x="1107" 
d="M657 1358l-200 -264h-162l-10 16l272 360h221l170 -360l-14 -16h-150zM956 420h-702q-2 -14 -2 -45q-3 -110 57 -173t160 -63q143 0 258 146l16 2l164 -84q-81 -120 -198 -181t-258 -61q-194 0 -310 113t-116 303q0 244 155.5 410.5t382.5 166.5q191 0 300.5 -108
t109.5 -297q0 -66 -17 -129zM559 782q-96 0 -168 -60t-108 -165l469 -4q9 106 -43 167.5t-150 61.5z" />
    <glyph glyph-name="edieresis" unicode="&#xeb;" horiz-adv-x="1107" 
d="M444 1112q-56 0 -93.5 37t-37.5 92q0 53 38.5 91t92.5 38q53 0 90 -38t37 -91q0 -56 -36 -92.5t-91 -36.5zM825 1112q-55 0 -92 37t-37 92q0 53 37.5 91t91.5 38q53 0 91 -38t38 -91q0 -55 -37 -92t-92 -37zM956 420h-702q-2 -14 -2 -45q-3 -110 57 -173t160 -63
q143 0 258 146l16 2l164 -84q-81 -120 -198 -181t-258 -61q-194 0 -310 113t-116 303q0 244 155.5 410.5t382.5 166.5q191 0 300.5 -108t109.5 -297q0 -66 -17 -129zM559 782q-96 0 -168 -60t-108 -165l469 -4q9 106 -43 167.5t-150 61.5z" />
    <glyph glyph-name="igrave" unicode="&#xec;" horiz-adv-x="522" 
d="M485 1110h-172l-295 360l9 17h221zM250 0h-223l127 915h223z" />
    <glyph glyph-name="iacute" unicode="&#xed;" horiz-adv-x="522" 
d="M258 1110h-182l278 377h228l6 -17zM250 0h-223l127 915h223z" />
    <glyph glyph-name="icircumflex" unicode="&#xee;" horiz-adv-x="522" 
d="M463 1094l-127 264l-201 -264h-162l-10 16l273 360h221l170 -360l-15 -16h-149zM250 0h-223l127 915h223z" />
    <glyph glyph-name="idieresis" unicode="&#xef;" horiz-adv-x="522" 
d="M123 1112q-56 0 -93.5 37t-37.5 92q0 53 38.5 91t92.5 38q53 0 90 -38t37 -91q0 -56 -36 -92.5t-91 -36.5zM504 1112q-56 0 -92.5 37t-36.5 92q0 53 37.5 91t91.5 38q52 0 90.5 -38t38.5 -91q0 -55 -36.5 -92t-92.5 -37zM250 0h-223l127 915h223z" />
    <glyph glyph-name="eth" unicode="&#xf0;" horiz-adv-x="1183" 
d="M1044 1376l-208 -92q101 -154 148.5 -300t47.5 -304q0 -319 -167.5 -519t-434.5 -200q-190 0 -297.5 110.5t-107.5 305.5q0 155 66 288t178.5 211t244.5 78q104 0 185 -51t122 -143q3 83 -47.5 202.5t-136.5 233.5l-182 -80l-70 103l176 77q-56 74 -100 121l188 105
q63 -69 115 -136l209 93zM467 156q136 0 227.5 101.5t91.5 252.5q0 113 -63.5 181.5t-167.5 68.5q-132 0 -216.5 -102.5t-84.5 -262.5q0 -114 56 -176.5t157 -62.5z" />
    <glyph glyph-name="ntilde" unicode="&#xf1;" horiz-adv-x="1167" 
d="M770 1114q77 0 142.5 69t93.5 179h-121l-17 -12q-31 -84 -88 -84q-32 0 -79 24t-98.5 48t-94.5 24q-78 0 -143.5 -68t-94.5 -180h125l17 12q30 84 86 84q33 0 78 -24t95.5 -48t98.5 -24zM27 0l127 915h221l-23 -155q71 95 161.5 144.5t188.5 49.5q154 0 226.5 -98
t46.5 -281l-80 -575h-223l71 508q20 136 -16.5 193t-126.5 57q-108 0 -189.5 -87.5t-101.5 -236.5l-59 -434h-223z" />
    <glyph glyph-name="ograve" unicode="&#xf2;" horiz-adv-x="1169" 
d="M854 1110h-172l-295 360l8 17h221zM473 -39q-198 0 -322 120.5t-124 311.5q0 152 75 280.5t206.5 204.5t287.5 76q196 0 320 -119.5t124 -308.5q0 -113 -45.5 -217.5t-122 -180.5t-181 -121.5t-218.5 -45.5zM483 158q133 0 231.5 105.5t98.5 248.5q0 109 -63 177.5
t-164 68.5q-139 0 -236.5 -104t-97.5 -248q0 -109 64.5 -178.5t166.5 -69.5z" />
    <glyph glyph-name="oacute" unicode="&#xf3;" horiz-adv-x="1169" 
d="M627 1110h-183l279 377h227l6 -17zM473 -39q-198 0 -322 120.5t-124 311.5q0 152 75 280.5t206.5 204.5t287.5 76q196 0 320 -119.5t124 -308.5q0 -113 -45.5 -217.5t-122 -180.5t-181 -121.5t-218.5 -45.5zM483 158q133 0 231.5 105.5t98.5 248.5q0 109 -63 177.5
t-164 68.5q-139 0 -236.5 -104t-97.5 -248q0 -109 64.5 -178.5t166.5 -69.5z" />
    <glyph glyph-name="ocircumflex" unicode="&#xf4;" horiz-adv-x="1169" 
d="M831 1094l-126 264l-201 -264h-162l-10 16l272 360h221l170 -360l-14 -16h-150zM473 -39q-198 0 -322 120.5t-124 311.5q0 152 75 280.5t206.5 204.5t287.5 76q196 0 320 -119.5t124 -308.5q0 -113 -45.5 -217.5t-122 -180.5t-181 -121.5t-218.5 -45.5zM483 158
q133 0 231.5 105.5t98.5 248.5q0 109 -63 177.5t-164 68.5q-139 0 -236.5 -104t-97.5 -248q0 -109 64.5 -178.5t166.5 -69.5z" />
    <glyph glyph-name="otilde" unicode="&#xf5;" horiz-adv-x="1169" 
d="M813 1114q77 0 142.5 69t93.5 179h-121l-17 -12q-31 -84 -88 -84q-32 0 -79 24t-98.5 48t-94.5 24q-78 0 -143.5 -68t-94.5 -180h125l17 12q30 84 86 84q33 0 78 -24t95.5 -48t98.5 -24zM473 -39q-198 0 -322 120.5t-124 311.5q0 152 75 280.5t206.5 204.5t287.5 76
q196 0 320 -119.5t124 -308.5q0 -113 -45.5 -217.5t-122 -180.5t-181 -121.5t-218.5 -45.5zM483 158q133 0 231.5 105.5t98.5 248.5q0 109 -63 177.5t-164 68.5q-139 0 -236.5 -104t-97.5 -248q0 -109 64.5 -178.5t166.5 -69.5z" />
    <glyph glyph-name="odieresis" unicode="&#xf6;" horiz-adv-x="1169" 
d="M492 1112q-56 0 -94 37t-38 92q0 53 39 91t93 38q53 0 89.5 -38t36.5 -91q0 -56 -35.5 -92.5t-90.5 -36.5zM872 1112q-56 0 -92.5 37t-36.5 92q0 53 37.5 91t91.5 38q52 0 90.5 -38t38.5 -91q0 -55 -36.5 -92t-92.5 -37zM473 -39q-198 0 -322 120.5t-124 311.5
q0 152 75 280.5t206.5 204.5t287.5 76q196 0 320 -119.5t124 -308.5q0 -113 -45.5 -217.5t-122 -180.5t-181 -121.5t-218.5 -45.5zM483 158q133 0 231.5 105.5t98.5 248.5q0 109 -63 177.5t-164 68.5q-139 0 -236.5 -104t-97.5 -248q0 -109 64.5 -178.5t166.5 -69.5z" />
    <glyph glyph-name="divide" unicode="&#xf7;" horiz-adv-x="1433" 
d="M688 842q-56 0 -94.5 39.5t-38.5 95.5t38 93.5t95 37.5t95 -37.5t38 -93.5t-38.5 -95.5t-94.5 -39.5zM1237 541h-1098v159h1098v-159zM688 133q-56 0 -94.5 39.5t-38.5 95.5q0 54 38.5 92.5t94.5 38.5t94.5 -38.5t38.5 -92.5q0 -56 -38.5 -95.5t-94.5 -39.5z" />
    <glyph glyph-name="oslash" unicode="&#xf8;" horiz-adv-x="1169" 
d="M473 -39q-153 0 -272 82l-72 -72l-86 68l78 78q-94 118 -94 276q0 152 75 280.5t206.5 204.5t287.5 76q163 0 274 -82l72 72l82 -70l-76 -75q92 -112 92 -273q0 -113 -45.5 -217.5t-122 -180.5t-181 -121.5t-218.5 -45.5zM281 279l438 440q-59 43 -133 43
q-139 0 -237.5 -106t-98.5 -253q0 -60 31 -124zM483 154q134 0 233 107.5t99 250.5q0 67 -29 123l-434 -440q57 -41 131 -41z" />
    <glyph glyph-name="ugrave" unicode="&#xf9;" horiz-adv-x="1142" 
d="M791 1110h-173l-294 360l8 17h221zM342 -39q-151 0 -222 100t-44 285l80 569h225l-76 -522q-35 -235 131 -235q99 0 178 86.5t99 222.5l63 448h223l-129 -915h-219l21 150q-68 -92 -156 -140.5t-174 -48.5z" />
    <glyph glyph-name="uacute" unicode="&#xfa;" horiz-adv-x="1142" 
d="M565 1110h-182l279 377h227l6 -17zM342 -39q-151 0 -222 100t-44 285l80 569h225l-76 -522q-35 -235 131 -235q99 0 178 86.5t99 222.5l63 448h223l-129 -915h-219l21 150q-68 -92 -156 -140.5t-174 -48.5z" />
    <glyph glyph-name="ucircumflex" unicode="&#xfb;" horiz-adv-x="1142" 
d="M770 1094l-127 264l-201 -264h-161l-11 16l273 360h221l170 -360l-14 -16h-150zM342 -39q-151 0 -222 100t-44 285l80 569h225l-76 -522q-35 -235 131 -235q99 0 178 86.5t99 222.5l63 448h223l-129 -915h-219l21 150q-68 -92 -156 -140.5t-174 -48.5z" />
    <glyph glyph-name="udieresis" unicode="&#xfc;" horiz-adv-x="1142" 
d="M430 1112q-56 0 -93.5 37t-37.5 92q0 53 38.5 91t92.5 38q53 0 90 -38t37 -91q0 -56 -36 -92.5t-91 -36.5zM811 1112q-55 0 -92 37t-37 92q0 53 37.5 91t91.5 38q53 0 91 -38t38 -91q0 -55 -37 -92t-92 -37zM342 -39q-151 0 -222 100t-44 285l80 569h225l-76 -522
q-35 -235 131 -235q99 0 178 86.5t99 222.5l63 448h223l-129 -915h-219l21 150q-68 -92 -156 -140.5t-174 -48.5z" />
    <glyph glyph-name="yacute" unicode="&#xfd;" horiz-adv-x="1011" 
d="M494 1110h-183l279 377h227l6 -17zM199 -446h-250l330 526l-256 835h253l140 -624h4l334 624h256z" />
    <glyph glyph-name="thorn" unicode="&#xfe;" horiz-adv-x="1179" 
d="M186 -446h-223l275 1947h223l-64 -444q-22 -158 -45 -295q70 93 163 142.5t192 49.5q158 0 252 -107.5t94 -291.5q0 -162 -65.5 -299t-178 -216t-244.5 -79q-95 0 -176.5 50t-120.5 134q-12 -99 -41 -297zM520 156q131 0 218 108t87 271q0 107 -53 166t-149 59
q-132 0 -227 -107t-95 -260q0 -108 60 -172.5t159 -64.5z" />
    <glyph glyph-name="ydieresis" unicode="&#xff;" horiz-adv-x="1011" 
d="M358 1112q-56 0 -93.5 37t-37.5 92q0 53 38.5 91t92.5 38q53 0 90 -38t37 -91q0 -56 -36 -92.5t-91 -36.5zM739 1112q-55 0 -92 37t-37 92q0 53 37.5 91t91.5 38q53 0 91 -38t38 -91q0 -55 -37 -92t-92 -37zM199 -446h-250l330 526l-256 835h253l140 -624h4l334 624h256z
" />
    <glyph glyph-name="Amacron" unicode="&#x100;" horiz-adv-x="1415" 
d="M541 1786h592l-23 -154h-592zM1305 0h-261l-83 340h-639l-179 -340h-276l809 1450h235zM627 922l-207 -394h493l-96 390q-33 143 -55 276h-4q-71 -160 -131 -272z" />
    <glyph glyph-name="amacron" unicode="&#x101;" horiz-adv-x="1189" 
d="M942 1169h-592l21 154h590zM375 -39q-160 0 -255 107.5t-95 293.5q0 118 38 227t102 189t153.5 128t187.5 48q96 0 175.5 -52t121.5 -146l22 159h222l-129 -915h-224l6 35l19 110q-63 -86 -156.5 -135t-187.5 -49zM453 156q132 0 224.5 103t92.5 257q0 108 -60.5 176
t-156.5 68q-127 0 -214 -107t-87 -270q0 -108 53.5 -167.5t147.5 -59.5z" />
    <glyph glyph-name="Abreve" unicode="&#x102;" horiz-adv-x="1415" 
d="M797 1563q-145 0 -225.5 72t-73.5 196l18 14h133q4 -66 45 -96.5t121 -30.5q156 0 201 127h133l14 -14q-26 -125 -123 -196.5t-243 -71.5zM1305 0h-261l-83 340h-639l-179 -340h-276l809 1450h235zM627 922l-207 -394h493l-96 390q-33 143 -55 276h-4q-71 -160 -131 -272
z" />
    <glyph glyph-name="abreve" unicode="&#x103;" horiz-adv-x="1189" 
d="M623 1100q-146 0 -227 71.5t-74 198.5l18 14h133q6 -67 46 -98t120 -31q157 0 201 129h133l16 -14q-28 -127 -124.5 -198.5t-241.5 -71.5zM375 -39q-160 0 -255 107.5t-95 293.5q0 118 38 227t102 189t153.5 128t187.5 48q96 0 175.5 -52t121.5 -146l22 159h222
l-129 -915h-224l6 35l19 110q-63 -86 -156.5 -135t-187.5 -49zM453 156q132 0 224.5 103t92.5 257q0 108 -60.5 176t-156.5 68q-127 0 -214 -107t-87 -270q0 -108 53.5 -167.5t147.5 -59.5z" />
    <glyph glyph-name="Aogonek" unicode="&#x104;" horiz-adv-x="1415" 
d="M1231 -291h12l27 -121q-90 -53 -201 -53q-86 0 -138 42t-52 112q0 86 69.5 166t173.5 145h-78l-83 340h-639l-179 -340h-276l809 1450h235l394 -1450h-60q-198 -142 -198 -260q0 -33 20.5 -51.5t54.5 -18.5q61 0 109 39zM627 922l-207 -394h493l-96 390q-33 143 -55 276
h-4q-71 -160 -131 -272z" />
    <glyph glyph-name="aogonek" unicode="&#x105;" horiz-adv-x="1189" 
d="M918 0h-39q-199 -143 -199 -260q0 -33 21 -51.5t55 -18.5q60 0 108 39h13l26 -121q-90 -53 -201 -53q-86 0 -138 42t-52 112q0 86 70 166t174 145h-62l6 35l19 110q-63 -86 -156.5 -135t-187.5 -49q-160 0 -255 107.5t-95 293.5q0 118 38 227t102 189t153.5 128t187.5 48
q96 0 175.5 -52t121.5 -146l22 159h222zM453 156q132 0 224.5 103t92.5 257q0 108 -60.5 176t-156.5 68q-127 0 -214 -107t-87 -270q0 -108 53.5 -167.5t147.5 -59.5z" />
    <glyph glyph-name="Cacute" unicode="&#x106;" horiz-adv-x="1603" 
d="M948 1565h-178l234 274h221l6 -16zM741 -39q-293 0 -478 179.5t-185 469.5q0 179 68 341.5t183 280.5t274 187.5t333 69.5q220 0 376.5 -97t235.5 -286l-188 -111l-35 13q-111 258 -399 258q-160 0 -296.5 -86.5t-216 -233.5t-79.5 -317q0 -198 120.5 -321.5
t311.5 -123.5q154 0 272.5 64t216.5 201l35 4l158 -117q-272 -375 -707 -375z" />
    <glyph glyph-name="cacute" unicode="&#x107;" horiz-adv-x="1071" 
d="M590 1110h-182l278 377h227l7 -17zM444 -39q-193 0 -305 113t-112 303q0 157 70 289t194.5 210t275.5 78q140 0 244.5 -64.5t159.5 -189.5l-180 -96l-17 6q-39 82 -91.5 118t-125.5 36q-130 0 -217.5 -109.5t-87.5 -261.5q0 -112 59 -176.5t154 -64.5q78 0 143.5 38
t128.5 121l17 2l153 -102q-88 -124 -207.5 -187t-255.5 -63z" />
    <glyph glyph-name="Ccircumflex" unicode="&#x108;" horiz-adv-x="1603" 
d="M1145 1565l-135 182l-193 -182h-160l-8 16l260 258h217l183 -258l-15 -16h-149zM741 -39q-293 0 -478 179.5t-185 469.5q0 179 68 341.5t183 280.5t274 187.5t333 69.5q220 0 376.5 -97t235.5 -286l-188 -111l-35 13q-111 258 -399 258q-160 0 -296.5 -86.5t-216 -233.5
t-79.5 -317q0 -198 120.5 -321.5t311.5 -123.5q154 0 272.5 64t216.5 201l35 4l158 -117q-272 -375 -707 -375z" />
    <glyph glyph-name="ccircumflex" unicode="&#x109;" horiz-adv-x="1071" 
d="M795 1094l-127 264l-201 -264h-162l-10 16l272 360h221l170 -360l-14 -16h-149zM444 -39q-193 0 -305 113t-112 303q0 157 70 289t194.5 210t275.5 78q140 0 244.5 -64.5t159.5 -189.5l-180 -96l-17 6q-39 82 -91.5 118t-125.5 36q-130 0 -217.5 -109.5t-87.5 -261.5
q0 -112 59 -176.5t154 -64.5q78 0 143.5 38t128.5 121l17 2l153 -102q-88 -124 -207.5 -187t-255.5 -63z" />
    <glyph glyph-name="Cdotaccent" unicode="&#x10a;" horiz-adv-x="1603" 
d="M1010 1587q-62 0 -104 39.5t-42 99.5t42 99t104 39q63 0 104 -40t41 -100q0 -59 -41 -98t-104 -39zM741 -39q-293 0 -478 179.5t-185 469.5q0 179 68 341.5t183 280.5t274 187.5t333 69.5q220 0 376.5 -97t235.5 -286l-188 -111l-35 13q-111 258 -399 258
q-160 0 -296.5 -86.5t-216 -233.5t-79.5 -317q0 -198 120.5 -321.5t311.5 -123.5q154 0 272.5 64t216.5 201l35 4l158 -117q-272 -375 -707 -375z" />
    <glyph glyph-name="cdotaccent" unicode="&#x10b;" horiz-adv-x="1071" 
d="M629 1106q-62 0 -104 39.5t-42 99.5q0 58 42 97.5t104 39.5q63 0 104 -39.5t41 -99.5q0 -59 -41 -98t-104 -39zM444 -39q-193 0 -305 113t-112 303q0 157 70 289t194.5 210t275.5 78q140 0 244.5 -64.5t159.5 -189.5l-180 -96l-17 6q-39 82 -91.5 118t-125.5 36
q-130 0 -217.5 -109.5t-87.5 -261.5q0 -112 59 -176.5t154 -64.5q78 0 143.5 38t128.5 121l17 2l153 -102q-88 -124 -207.5 -187t-255.5 -63z" />
    <glyph glyph-name="Ccaron" unicode="&#x10c;" horiz-adv-x="1603" 
d="M1092 1565h-218l-184 272l15 18h151l135 -198l193 198h157l9 -18zM741 -39q-293 0 -478 179.5t-185 469.5q0 179 68 341.5t183 280.5t274 187.5t333 69.5q220 0 376.5 -97t235.5 -286l-188 -111l-35 13q-111 258 -399 258q-160 0 -296.5 -86.5t-216 -233.5t-79.5 -317
q0 -198 120.5 -321.5t311.5 -123.5q154 0 272.5 64t216.5 201l35 4l158 -117q-272 -375 -707 -375z" />
    <glyph glyph-name="ccaron" unicode="&#x10d;" horiz-adv-x="1071" 
d="M510 1470l125 -264l201 264h161l11 -16l-273 -360h-221l-170 360l14 16h152zM444 -39q-193 0 -305 113t-112 303q0 157 70 289t194.5 210t275.5 78q140 0 244.5 -64.5t159.5 -189.5l-180 -96l-17 6q-39 82 -91.5 118t-125.5 36q-130 0 -217.5 -109.5t-87.5 -261.5
q0 -112 59 -176.5t154 -64.5q78 0 143.5 38t128.5 121l17 2l153 -102q-88 -124 -207.5 -187t-255.5 -63z" />
    <glyph glyph-name="Dcaron" unicode="&#x10e;" horiz-adv-x="1501" 
d="M895 1565h-217l-184 272l14 18h151l136 -198l192 198h158l8 -18zM469 0h-424l205 1450h405q354 0 544 -155.5t190 -444.5q1 -253 -111.5 -445.5t-322 -298.5t-486.5 -106zM457 1235l-144 -1020h156q325 0 499.5 163t174.5 460q0 397 -525 397h-161z" />
    <glyph glyph-name="dcaron" unicode="&#x10f;" horiz-adv-x="1390" 
d="M375 -39q-162 0 -256 107t-94 294q0 157 63 293t173.5 217.5t240.5 81.5q99 0 181 -51.5t124 -142.5q14 136 37 299l63 442h223l-210 -1501h-215l22 150q-62 -87 -158 -138t-194 -51zM1526 1423l-252 -403l-133 53l198 406l25 10zM453 156q133 0 226 103.5t93 256.5
q0 109 -61 176.5t-158 67.5q-129 0 -215 -107.5t-86 -269.5q0 -107 53 -167t148 -60z" />
    <glyph glyph-name="Dcroat" unicode="&#x110;" horiz-adv-x="1501" 
d="M1389 850q1 -253 -111.5 -445.5t-322 -298.5t-486.5 -106h-424l90 645h-123l27 186h123l88 619h405q354 0 544 -155.5t190 -444.5zM313 215h156q325 0 499.5 163t174.5 460q0 397 -525 397h-161l-58 -404h359l-27 -186h-356z" />
    <glyph glyph-name="dcroat" unicode="&#x111;" horiz-adv-x="1193" 
d="M1102 1298h125l-23 -170h-127l-157 -1128h-215l22 150q-62 -87 -158 -138t-194 -51q-162 0 -256 107t-94 294q0 157 63 293t173.5 217.5t240.5 81.5q99 0 181 -51.5t124 -142.5q14 136 37 299l10 69h-291l25 170h291l28 203h223zM453 156q133 0 226 103.5t93 256.5
q0 109 -61 176.5t-158 67.5q-129 0 -215 -107.5t-86 -269.5q0 -107 53 -167t148 -60z" />
    <glyph glyph-name="Emacron" unicode="&#x112;" horiz-adv-x="1167" 
d="M997 1632h-591l22 154h592zM45 0l205 1450h846l8 -209h-647l-58 -397h592l-26 -205h-592l-62 -430h647l-53 -209h-860z" />
    <glyph glyph-name="emacron" unicode="&#x113;" horiz-adv-x="1107" 
d="M346 1323h590l-18 -154h-592zM956 420h-702q-2 -14 -2 -45q-3 -110 57 -173t160 -63q143 0 258 146l16 2l164 -84q-81 -120 -198 -181t-258 -61q-194 0 -310 113t-116 303q0 244 155.5 410.5t382.5 166.5q191 0 300.5 -108t109.5 -297q0 -66 -17 -129zM559 782
q-96 0 -168 -60t-108 -165l469 -4q9 106 -43 167.5t-150 61.5z" />
    <glyph glyph-name="Edotaccent" unicode="&#x116;" horiz-adv-x="1167" 
d="M721 1587q-62 0 -104 39.5t-42 99.5t42 99t104 39q63 0 104 -40t41 -100q0 -59 -41 -98t-104 -39zM45 0l205 1450h846l8 -209h-647l-58 -397h592l-26 -205h-592l-62 -430h647l-53 -209h-860z" />
    <glyph glyph-name="edotaccent" unicode="&#x117;" horiz-adv-x="1107" 
d="M618 1106q-62 0 -103.5 39.5t-41.5 99.5q0 58 41.5 97.5t103.5 39.5q63 0 104.5 -39.5t41.5 -99.5q0 -59 -41.5 -98t-104.5 -39zM956 420h-702q-2 -14 -2 -45q-3 -110 57 -173t160 -63q143 0 258 146l16 2l164 -84q-81 -120 -198 -181t-258 -61q-194 0 -310 113t-116 303
q0 244 155.5 410.5t382.5 166.5q191 0 300.5 -108t109.5 -297q0 -66 -17 -129zM559 782q-96 0 -168 -60t-108 -165l469 -4q9 106 -43 167.5t-150 61.5z" />
    <glyph glyph-name="Eogonek" unicode="&#x118;" horiz-adv-x="1167" 
d="M1104 1241h-647l-58 -397h592l-26 -205h-592l-62 -430h647l-53 -209h-49q-199 -143 -199 -260q0 -33 21 -51.5t55 -18.5q61 0 109 39h12l27 -121q-90 -53 -201 -53q-87 0 -139 42t-52 112q0 86 70 166t174 145h-688l205 1450h846z" />
    <glyph glyph-name="eogonek" unicode="&#x119;" horiz-adv-x="1107" 
d="M956 420h-702q-2 -14 -2 -45q-3 -110 57 -173t160 -63q143 0 258 146l16 2l164 -84q-97 -144 -250 -205q-196 -143 -196 -258q0 -33 21 -51.5t55 -18.5q60 0 108 39h12l27 -121q-90 -53 -201 -53q-86 0 -138 42t-52 112q0 135 186 272h-28q-194 0 -310 113t-116 303
q0 244 155.5 410.5t382.5 166.5q191 0 300.5 -108t109.5 -297q0 -66 -17 -129zM559 782q-96 0 -168 -60t-108 -165l469 -4q9 106 -43 167.5t-150 61.5z" />
    <glyph glyph-name="Ecaron" unicode="&#x11a;" horiz-adv-x="1167" 
d="M803 1565h-217l-185 272l15 18h151l135 -198l193 198h158l8 -18zM45 0l205 1450h846l8 -209h-647l-58 -397h592l-26 -205h-592l-62 -430h647l-53 -209h-860z" />
    <glyph glyph-name="ecaron" unicode="&#x11b;" horiz-adv-x="1107" 
d="M997 1454l-272 -360h-221l-170 360l14 16h152l125 -264l200 264h162zM563 954q191 0 300.5 -108t109.5 -297q0 -66 -17 -129h-702q-2 -14 -2 -45q-3 -110 57 -173t160 -63q143 0 258 146l16 2l164 -84q-81 -120 -198 -181t-258 -61q-194 0 -310 113t-116 303
q0 244 155.5 410.5t382.5 166.5zM283 557l469 -4q9 106 -43 167.5t-150 61.5q-96 0 -168 -60t-108 -165z" />
    <glyph glyph-name="Gbreve" unicode="&#x11e;" horiz-adv-x="1703" 
d="M979 1563q-145 0 -225.5 72t-73.5 196l18 14h133q4 -66 45 -96.5t121 -30.5q156 0 201 127h133l15 -14q-26 -125 -123.5 -196.5t-243.5 -71.5zM715 -39q-284 0 -460.5 178t-176.5 467q0 181 68.5 345t184 281.5t275.5 187t336 69.5q225 0 383.5 -95t239.5 -280l-189 -108
l-33 10q-66 131 -163.5 190.5t-245.5 59.5q-164 0 -302.5 -85.5t-218 -232t-79.5 -319.5q0 -201 118.5 -325t307.5 -124q197 0 342 106.5t180 278.5v6h-385l29 193h604l-107 -764h-219l8 70q10 80 43 149l-4 2q-91 -120 -230 -190t-306 -70z" />
    <glyph glyph-name="gbreve" unicode="&#x11f;" horiz-adv-x="1198" 
d="M627 1100q-146 0 -227 71.5t-74 198.5l18 14h133q6 -67 46 -98t120 -31q157 0 201 129h133l16 -14q-28 -127 -124.5 -198.5t-241.5 -71.5zM403 -471q-153 0 -258 55t-178 174l158 99l16 -2q47 -78 109.5 -112t155.5 -34q122 0 198.5 73t93.5 206q5 43 29 170
q-64 -86 -158.5 -135.5t-191.5 -49.5q-161 0 -256.5 107t-95.5 291q0 156 64 290t175.5 213.5t243.5 79.5q98 0 177.5 -52t123.5 -146l22 159h222l-127 -913q-31 -229 -163.5 -351t-359.5 -122zM455 168q134 0 227.5 101.5t93.5 248.5q0 108 -62 175t-163 67
q-129 0 -214 -105.5t-85 -265.5q0 -104 54 -162.5t149 -58.5z" />
    <glyph glyph-name="Gdotaccent" unicode="&#x120;" horiz-adv-x="1703" 
d="M1018 1587q-62 0 -104 39.5t-42 99.5t42 99t104 39q63 0 104 -40t41 -100q0 -59 -41 -98t-104 -39zM715 -39q-284 0 -460.5 178t-176.5 467q0 181 68.5 345t184 281.5t275.5 187t336 69.5q225 0 383.5 -95t239.5 -280l-189 -108l-33 10q-66 131 -163.5 190.5t-245.5 59.5
q-164 0 -302.5 -85.5t-218 -232t-79.5 -319.5q0 -201 118.5 -325t307.5 -124q197 0 342 106.5t180 278.5v6h-385l29 193h604l-107 -764h-219l8 70q10 80 43 149l-4 2q-91 -120 -230 -190t-306 -70z" />
    <glyph glyph-name="gdotaccent" unicode="&#x121;" horiz-adv-x="1198" 
d="M645 1106q-62 0 -103.5 39.5t-41.5 99.5q0 58 41.5 97.5t103.5 39.5q63 0 104.5 -39.5t41.5 -99.5q0 -59 -41.5 -98t-104.5 -39zM403 -471q-153 0 -258 55t-178 174l158 99l16 -2q47 -78 109.5 -112t155.5 -34q122 0 198.5 73t93.5 206q5 43 29 170
q-64 -86 -158.5 -135.5t-191.5 -49.5q-161 0 -256.5 107t-95.5 291q0 156 64 290t175.5 213.5t243.5 79.5q98 0 177.5 -52t123.5 -146l22 159h222l-127 -913q-31 -229 -163.5 -351t-359.5 -122zM455 168q134 0 227.5 101.5t93.5 248.5q0 108 -62 175t-163 67
q-129 0 -214 -105.5t-85 -265.5q0 -104 54 -162.5t149 -58.5z" />
    <glyph glyph-name="uni0122" unicode="&#x122;" horiz-adv-x="1703" 
d="M715 -39q-284 0 -460.5 178t-176.5 467q0 181 68.5 345t184 281.5t275.5 187t336 69.5q225 0 383.5 -95t239.5 -280l-189 -108l-33 10q-66 131 -163.5 190.5t-245.5 59.5q-164 0 -302.5 -85.5t-218 -232t-79.5 -319.5q0 -201 118.5 -325t307.5 -124q197 0 342 106.5
t180 278.5v6h-385l29 193h604l-107 -764h-219l8 70q10 80 43 149l-4 2q-91 -120 -230 -190t-306 -70zM920 -168l-236 -379l-143 60l170 385l22 10z" />
    <glyph glyph-name="uni0123" unicode="&#x123;" horiz-adv-x="1198" 
d="M489 1135l238 378l141 -59l-170 -385l-22 -10zM403 -471q-153 0 -258 55t-178 174l158 99l16 -2q47 -78 109.5 -112t155.5 -34q122 0 198.5 73t93.5 206q5 43 29 170q-64 -86 -158.5 -135.5t-191.5 -49.5q-161 0 -256.5 107t-95.5 291q0 156 64 290t175.5 213.5
t243.5 79.5q98 0 177.5 -52t123.5 -146l22 159h222l-127 -913q-31 -229 -163.5 -351t-359.5 -122zM455 168q134 0 227.5 101.5t93.5 248.5q0 108 -62 175t-163 67q-129 0 -214 -105.5t-85 -265.5q0 -104 54 -162.5t149 -58.5z" />
    <glyph glyph-name="Hbar" unicode="&#x126;" horiz-adv-x="1495" 
d="M1380 1251h113l-20 -157h-115l-154 -1094h-237l88 627h-684l-88 -627h-238l154 1094h-113l23 157h112l29 199h237l-28 -199h684l28 199h238zM436 1094l-35 -254h684l35 254h-684z" />
    <glyph glyph-name="hbar" unicode="&#x127;" horiz-adv-x="1167" 
d="M702 954q154 0 226.5 -98t46.5 -281l-82 -575h-221l71 506q20 137 -16.5 194.5t-126.5 57.5q-108 0 -189 -87.5t-102 -236.5l-59 -434h-223l157 1128h-121l25 170h121l29 203h223l-29 -203h295l-22 -170h-295l-11 -73q-3 -20 -20.5 -129.5t-26.5 -165.5
q71 95 161.5 144.5t188.5 49.5z" />
    <glyph glyph-name="Itilde" unicode="&#x128;" horiz-adv-x="573" 
d="M514 1577q78 0 143.5 68.5t94.5 179.5h-123l-17 -13q-30 -83 -86 -83q-33 0 -80.5 24t-99 48t-94.5 24q-77 0 -142.5 -68t-93.5 -180h123l19 12q26 84 84 84q33 0 78 -24t95.5 -48t98.5 -24zM45 0l205 1450h237l-204 -1450h-238z" />
    <glyph glyph-name="itilde" unicode="&#x129;" horiz-adv-x="522" 
d="M444 1114q77 0 142.5 69t93.5 179h-121l-16 -12q-31 -84 -88 -84q-32 0 -79 24t-99 48t-95 24q-78 0 -143 -68t-94 -180h125l16 12q30 84 86 84q33 0 78 -24t95.5 -48t98.5 -24zM250 0h-223l127 915h223z" />
    <glyph glyph-name="Imacron" unicode="&#x12a;" horiz-adv-x="573" 
d="M670 1632h-592l22 154h592zM45 0l205 1450h237l-204 -1450h-238z" />
    <glyph glyph-name="imacron" unicode="&#x12b;" horiz-adv-x="522" 
d="M596 1169h-592l21 154h589zM250 0h-223l127 915h223z" />
    <glyph glyph-name="Ibreve" unicode="&#x12c;" horiz-adv-x="573" 
d="M356 1563q-145 0 -225.5 72t-73.5 196l19 14h133q4 -66 45 -96.5t121 -30.5q155 0 200 127h134l14 -14q-26 -125 -123.5 -196.5t-243.5 -71.5zM45 0l205 1450h237l-204 -1450h-238z" />
    <glyph glyph-name="ibreve" unicode="&#x12d;" horiz-adv-x="522" 
d="M279 1100q-146 0 -227.5 72t-74.5 198l19 14h133q6 -67 46 -98t120 -31q157 0 201 129h133l16 -14q-28 -127 -124.5 -198.5t-241.5 -71.5zM250 0h-223l127 915h223z" />
    <glyph glyph-name="Iogonek" unicode="&#x12e;" horiz-adv-x="573" 
d="M283 0h-35q-199 -143 -199 -260q0 -33 21 -51.5t55 -18.5q60 0 108 39h13l26 -121q-90 -53 -200 -53q-87 0 -139 42t-52 112q0 86 70 166t174 145h-80l205 1450h237z" />
    <glyph glyph-name="iogonek" unicode="&#x12f;" horiz-adv-x="522" 
d="M297 1382q63 0 104 -39.5t41 -99.5q0 -59 -41 -98t-104 -39q-62 0 -103.5 39.5t-41.5 99.5q0 58 41.5 97.5t103.5 39.5zM92 0h-65l127 915h223l-127 -915h-35q-199 -143 -199 -260q0 -33 21 -51.5t55 -18.5q61 0 109 39h12l27 -121q-90 -53 -201 -53q-87 0 -139 42
t-52 112q0 86 70 166t174 145z" />
    <glyph glyph-name="Idotaccent" unicode="&#x130;" horiz-adv-x="573" 
d="M393 1587q-62 0 -103.5 39.5t-41.5 99.5t41.5 99t103.5 39q63 0 104.5 -40t41.5 -100q0 -59 -41.5 -98t-104.5 -39zM45 0l205 1450h237l-204 -1450h-238z" />
    <glyph glyph-name="dotlessi" unicode="&#x131;" horiz-adv-x="522" 
d="M250 0h-223l127 915h223z" />
    <glyph glyph-name="IJ" unicode="&#x132;" horiz-adv-x="1597" 
d="M45 0l205 1450h237l-204 -1450h-238zM721 344l33 -8q9 -78 51.5 -120t114.5 -42q92 0 151 72t78 211l141 993h238l-142 -995q-32 -239 -156.5 -366.5t-324.5 -127.5q-160 0 -260 82.5t-115 224.5z" />
    <glyph glyph-name="ij" unicode="&#x133;" horiz-adv-x="1105" 
d="M324 1186q-64 0 -106 39t-42 100q0 58 42.5 97.5t105.5 39.5q62 0 103.5 -39.5t41.5 -99.5t-41.5 -98.5t-103.5 -38.5zM907 1186q-63 0 -105 39t-42 100q0 59 42 98t105 39q62 0 104 -39.5t42 -99.5q0 -59 -42 -98t-104 -39zM250 0h-223l127 915h223zM463 -471
q-83 0 -150 29l45 178l19 6q40 -14 76 -14q66 0 101 43.5t52 150.5l139 993h224l-144 -1017q-28 -190 -116.5 -279.5t-245.5 -89.5z" />
    <glyph glyph-name="uni0136" unicode="&#x136;" horiz-adv-x="1320" 
d="M1092 1450h305l-639 -600l469 -850h-273l-370 688l-236 -221l-65 -467h-238l205 1450h237l-94 -670zM356 -487l170 385l23 10l186 -76l-235 -379z" />
    <glyph glyph-name="uni0137" unicode="&#x137;" horiz-adv-x="1062" 
d="M938 0h-264l-246 420l-137 -119l-41 -301h-223l211 1501h223l-64 -461q-5 -38 -75 -487l403 362h295l-424 -356zM608 -168l-235 -379l-144 60l170 385l23 10z" />
    <glyph glyph-name="kgreenlandic" unicode="&#x138;" horiz-adv-x="1062" 
d="M938 0h-264l-246 420l-137 -119l-41 -301h-223l127 915h223l-19 -124q-14 -104 -39 -240l406 364h295l-424 -356z" />
    <glyph glyph-name="Lacute" unicode="&#x139;" horiz-adv-x="1093" 
d="M352 1565h-178l234 274h221l6 -16zM45 0l205 1450h237l-174 -1233h664l-57 -217h-875z" />
    <glyph glyph-name="lacute" unicode="&#x13a;" horiz-adv-x="522" 
d="M344 1565h-178l233 274h222l6 -16zM250 0h-223l211 1501h223z" />
    <glyph glyph-name="uni013B" unicode="&#x13b;" horiz-adv-x="1093" 
d="M45 0l205 1450h237l-174 -1233h664l-57 -217h-875zM670 -168l-236 -379l-143 60l170 385l22 10z" />
    <glyph glyph-name="uni013C" unicode="&#x13c;" horiz-adv-x="522" 
d="M250 0h-223l211 1501h223zM305 -168l-235 -379l-144 60l170 385l23 10z" />
    <glyph glyph-name="Lcaron" unicode="&#x13d;" horiz-adv-x="1095" 
d="M977 1423l-252 -403l-133 53l199 406l24 10zM45 0l205 1450h237l-174 -1233h664l-57 -217h-875z" />
    <glyph glyph-name="lcaron" unicode="&#x13e;" horiz-adv-x="718" 
d="M250 0h-223l211 1501h223zM854 1423l-252 -403l-133 53l199 406l24 10z" />
    <glyph glyph-name="Ldot" unicode="&#x13f;" horiz-adv-x="1093" 
d="M45 0l205 1450h237l-174 -1233h664l-57 -217h-875zM778 606q-57 0 -95 39t-38 96q0 56 38 94.5t95 38.5q56 0 94.5 -39t38.5 -94q0 -57 -38.5 -96t-94.5 -39z" />
    <glyph glyph-name="ldot" unicode="&#x140;" horiz-adv-x="657" 
d="M250 0h-223l211 1501h223zM580 668q-56 0 -95 39t-39 94t39 94t95 39t94.5 -39t38.5 -94t-38.5 -94t-94.5 -39z" />
    <glyph glyph-name="Lslash" unicode="&#x141;" horiz-adv-x="1093" 
d="M381 694l-68 -477h664l-57 -217h-875l80 561l-166 -86l25 189l168 86l98 700h237l-79 -567l331 172l-24 -189z" />
    <glyph glyph-name="lslash" unicode="&#x142;" horiz-adv-x="522" 
d="M383 954l135 74l-24 -180l-136 -74l-108 -774h-223l90 641l-135 -74l24 181l135 73l97 680h223z" />
    <glyph glyph-name="Nacute" unicode="&#x143;" horiz-adv-x="1574" 
d="M874 1565h-178l234 274h221l6 -16zM281 0h-236l203 1450h201l440 -653q84 -124 225 -344h6q23 220 45 374l88 623h236l-205 -1473h-133l-506 734q-139 205 -221 336h-6q-15 -177 -45 -385z" />
    <glyph glyph-name="nacute" unicode="&#x144;" horiz-adv-x="1167" 
d="M584 1110h-183l279 377h227l6 -17zM27 0l127 915h221l-23 -155q71 95 161.5 144.5t188.5 49.5q154 0 226.5 -98t46.5 -281l-80 -575h-223l71 508q20 136 -16.5 193t-126.5 57q-108 0 -189.5 -87.5t-101.5 -236.5l-59 -434h-223z" />
    <glyph glyph-name="uni0145" unicode="&#x145;" horiz-adv-x="1574" 
d="M281 0h-236l203 1450h201l440 -653q84 -124 225 -344h6q23 220 45 374l88 623h236l-205 -1473h-133l-506 734q-139 205 -221 336h-6q-15 -177 -45 -385zM864 -168l-235 -379l-144 60l170 385l23 10z" />
    <glyph glyph-name="uni0146" unicode="&#x146;" horiz-adv-x="1167" 
d="M27 0l127 915h221l-23 -155q71 95 161.5 144.5t188.5 49.5q154 0 226.5 -98t46.5 -281l-80 -575h-223l71 508q20 136 -16.5 193t-126.5 57q-108 0 -189.5 -87.5t-101.5 -236.5l-59 -434h-223zM614 -168l-235 -379l-143 60l170 385l22 10z" />
    <glyph glyph-name="Ncaron" unicode="&#x147;" horiz-adv-x="1574" 
d="M1018 1565h-217l-185 272l15 18h151l136 -198l192 198h158l8 -18zM281 0h-236l203 1450h201l440 -653q84 -124 225 -344h6q23 220 45 374l88 623h236l-205 -1473h-133l-506 734q-139 205 -221 336h-6q-15 -177 -45 -385z" />
    <glyph glyph-name="ncaron" unicode="&#x148;" horiz-adv-x="1167" 
d="M506 1470l125 -264l200 264h162l11 -16l-273 -360h-221l-170 360l14 16h152zM27 0l127 915h221l-23 -155q71 95 161.5 144.5t188.5 49.5q154 0 226.5 -98t46.5 -281l-80 -575h-223l71 508q20 136 -16.5 193t-126.5 57q-108 0 -189.5 -87.5t-101.5 -236.5l-59 -434h-223z
" />
    <glyph glyph-name="Eng" unicode="&#x14a;" horiz-adv-x="1574" 
d="M907 -471q-80 0 -147 29l47 184l16 6q44 -14 76 -14q60 0 93 40.5t48 135.5l27 186l-422 615q-139 205 -221 336h-6q-15 -177 -45 -385l-92 -662h-236l203 1450h201l440 -653q98 -144 225 -346h6q23 218 45 376l88 623h236l-217 -1552q-27 -190 -117.5 -279.5
t-247.5 -89.5z" />
    <glyph glyph-name="eng" unicode="&#x14b;" horiz-adv-x="1167" 
d="M702 954q154 0 226.5 -98t46.5 -281l-94 -677q-27 -190 -117.5 -279.5t-247.5 -89.5q-78 0 -149 29l47 178l16 6q40 -14 76 -14q67 0 102.5 43.5t50.5 150.5l84 586q20 136 -16.5 193t-126.5 57q-108 0 -189.5 -87.5t-101.5 -236.5l-59 -434h-223l127 915h221l-23 -155
q71 95 161.5 144.5t188.5 49.5z" />
    <glyph glyph-name="Omacron" unicode="&#x14c;" horiz-adv-x="1751" 
d="M1335 1632h-592l23 154h592zM760 -39q-197 0 -352.5 82.5t-242.5 232t-87 340.5q0 178 70 339.5t188.5 278.5t281 186t340.5 69q301 0 490.5 -181t189.5 -472q0 -177 -70.5 -339t-188.5 -279.5t-280.5 -187t-338.5 -69.5zM776 184q162 0 303 85.5t224 231.5t83 316
q0 202 -123 326.5t-321 124.5q-165 0 -306 -85t-223.5 -231.5t-82.5 -318.5q0 -199 124.5 -324t321.5 -125z" />
    <glyph glyph-name="omacron" unicode="&#x14d;" horiz-adv-x="1169" 
d="M967 1169h-592l20 154h590zM473 -39q-198 0 -322 120.5t-124 311.5q0 152 75 280.5t206.5 204.5t287.5 76q196 0 320 -119.5t124 -308.5q0 -113 -45.5 -217.5t-122 -180.5t-181 -121.5t-218.5 -45.5zM483 158q133 0 231.5 105.5t98.5 248.5q0 109 -63 177.5t-164 68.5
q-139 0 -236.5 -104t-97.5 -248q0 -109 64.5 -178.5t166.5 -69.5z" />
    <glyph glyph-name="Obreve" unicode="&#x14e;" horiz-adv-x="1751" 
d="M1022 1563q-145 0 -225.5 72t-73.5 196l18 14h133q4 -66 45 -96.5t121 -30.5q156 0 201 127h133l15 -14q-26 -125 -123.5 -196.5t-243.5 -71.5zM760 -39q-197 0 -352.5 82.5t-242.5 232t-87 340.5q0 178 70 339.5t188.5 278.5t281 186t340.5 69q301 0 490.5 -181
t189.5 -472q0 -177 -70.5 -339t-188.5 -279.5t-280.5 -187t-338.5 -69.5zM776 184q162 0 303 85.5t224 231.5t83 316q0 202 -123 326.5t-321 124.5q-165 0 -306 -85t-223.5 -231.5t-82.5 -318.5q0 -199 124.5 -324t321.5 -125z" />
    <glyph glyph-name="obreve" unicode="&#x14f;" horiz-adv-x="1169" 
d="M647 1100q-146 0 -227 71.5t-74 198.5l19 14h133q6 -67 46 -98t120 -31t128.5 31t71.5 98h133l17 -14q-28 -127 -125 -198.5t-242 -71.5zM473 -39q-198 0 -322 120.5t-124 311.5q0 152 75 280.5t206.5 204.5t287.5 76q196 0 320 -119.5t124 -308.5q0 -113 -45.5 -217.5
t-122 -180.5t-181 -121.5t-218.5 -45.5zM483 158q133 0 231.5 105.5t98.5 248.5q0 109 -63 177.5t-164 68.5q-139 0 -236.5 -104t-97.5 -248q0 -109 64.5 -178.5t166.5 -69.5z" />
    <glyph glyph-name="Ohungarumlaut" unicode="&#x150;" horiz-adv-x="1751" 
d="M903 1565h-178l229 274h222l8 -16zM1276 1565h-178l229 274h221l8 -16zM760 -39q-197 0 -352.5 82.5t-242.5 232t-87 340.5q0 178 70 339.5t188.5 278.5t281 186t340.5 69q301 0 490.5 -181t189.5 -472q0 -177 -70.5 -339t-188.5 -279.5t-280.5 -187t-338.5 -69.5z
M776 184q162 0 303 85.5t224 231.5t83 316q0 202 -123 326.5t-321 124.5q-165 0 -306 -85t-223.5 -231.5t-82.5 -318.5q0 -199 124.5 -324t321.5 -125z" />
    <glyph glyph-name="ohungarumlaut" unicode="&#x151;" horiz-adv-x="1169" 
d="M551 1094h-178l274 376h223l7 -16zM918 1094h-179l275 376h221l8 -16zM473 -39q-198 0 -322 120.5t-124 311.5q0 152 75 280.5t206.5 204.5t287.5 76q196 0 320 -119.5t124 -308.5q0 -113 -45.5 -217.5t-122 -180.5t-181 -121.5t-218.5 -45.5zM483 158q133 0 231.5 105.5
t98.5 248.5q0 109 -63 177.5t-164 68.5q-139 0 -236.5 -104t-97.5 -248q0 -109 64.5 -178.5t166.5 -69.5z" />
    <glyph glyph-name="OE" unicode="&#x152;" horiz-adv-x="2095" 
d="M2032 1241h-648l-55 -397h592l-29 -205h-592l-59 -430h645l-53 -209h-815q-118 -39 -258 -39q-197 0 -352.5 82.5t-242.5 232t-87 340.5q0 178 70 339.5t188.5 278.5t281 186t340.5 69q133 0 252 -39h815zM330 633q0 -199 124.5 -324t321.5 -125q122 0 230 54l139 987
q-87 43 -203 43q-165 0 -306 -85t-223.5 -231.5t-82.5 -318.5z" />
    <glyph glyph-name="oe" unicode="&#x153;" horiz-adv-x="1888" 
d="M473 -39q-198 0 -322 120.5t-124 311.5q0 152 75 280.5t206.5 204.5t287.5 76q253 0 360 -188h5q141 188 385 188q189 0 298 -108t109 -297q0 -70 -16 -129h-703q-2 -18 -2 -58q0 -103 60 -163t159 -60q141 0 256 146l17 2l164 -84q-81 -120 -198 -181t-257 -61
q-123 0 -214 48.5t-140 142.5h-5q-75 -91 -179 -141t-222 -50zM1061 557l471 -4q10 106 -42.5 167.5t-152.5 61.5q-98 0 -170 -60t-106 -165zM483 158q133 0 231.5 105.5t98.5 248.5q0 109 -63 177.5t-164 68.5q-139 0 -236.5 -104t-97.5 -248q0 -109 64.5 -178.5
t166.5 -69.5z" />
    <glyph glyph-name="Racute" unicode="&#x154;" horiz-adv-x="1273" 
d="M948 1839l6 -16l-282 -258h-178l233 274h221zM811 637l348 -602l-20 -35h-238l-332 602h-200l-84 -602h-240l203 1450h444q461 0 461 -356q0 -172 -90.5 -291.5t-251.5 -165.5zM643 1249h-182l-66 -452h183q167 0 252 62t85 208q0 98 -65.5 140t-206.5 42z" />
    <glyph glyph-name="racute" unicode="&#x155;" horiz-adv-x="849" 
d="M481 1110h-182l279 377h227l6 -17zM250 0h-223l129 915h206l-24 -170q134 209 299 209q76 0 124 -46t60 -134l-198 -104l-17 6q-15 72 -76 72q-70 0 -136.5 -97t-86.5 -237z" />
    <glyph glyph-name="uni0156" unicode="&#x156;" horiz-adv-x="1273" 
d="M811 637l348 -602l-20 -35h-238l-332 602h-200l-84 -602h-240l203 1450h444q461 0 461 -356q0 -172 -90.5 -291.5t-251.5 -165.5zM643 1249h-182l-66 -452h183q167 0 252 62t85 208q0 98 -65.5 140t-206.5 42zM334 -487l170 385l22 10l187 -76l-236 -379z" />
    <glyph glyph-name="uni0157" unicode="&#x157;" horiz-adv-x="849" 
d="M250 0h-223l129 915h206l-24 -170q134 209 299 209q76 0 124 -46t60 -134l-198 -104l-17 6q-15 72 -76 72q-70 0 -136.5 -97t-86.5 -237zM264 -168l-235 -379l-144 60l170 385l23 10z" />
    <glyph glyph-name="Rcaron" unicode="&#x158;" horiz-adv-x="1273" 
d="M1073 1837l-258 -272h-217l-184 272l14 18h152l135 -198l192 198h158zM811 637l348 -602l-20 -35h-238l-332 602h-200l-84 -602h-240l203 1450h444q461 0 461 -356q0 -172 -90.5 -291.5t-251.5 -165.5zM643 1249h-182l-66 -452h183q167 0 252 62t85 208q0 98 -65.5 140
t-206.5 42z" />
    <glyph glyph-name="rcaron" unicode="&#x159;" horiz-adv-x="849" 
d="M401 1470l125 -264l201 264h162l10 -16l-272 -360h-221l-170 360l14 16h151zM250 0h-223l129 915h206l-24 -170q134 209 299 209q76 0 124 -46t60 -134l-198 -104l-17 6q-15 72 -76 72q-70 0 -136.5 -97t-86.5 -237z" />
    <glyph glyph-name="Sacute" unicode="&#x15a;" horiz-adv-x="1179" 
d="M672 1565h-178l233 274h221l6 -16zM481 -39q-178 0 -297 75t-188 230l184 113l35 -10q44 -107 110.5 -155t168.5 -48q121 0 202.5 72.5t81.5 173.5q0 75 -58.5 130.5t-207.5 123.5q-184 80 -266 172t-82 221q0 188 139 309t363 121q155 0 266.5 -62.5t165.5 -181.5
l-178 -112l-35 12q-38 72 -95.5 105.5t-140.5 33.5q-105 0 -171 -55.5t-66 -143.5q0 -61 53 -109.5t207 -123.5q193 -91 274.5 -184t81.5 -224q0 -100 -41 -189t-112.5 -154t-174 -102.5t-219.5 -37.5z" />
    <glyph glyph-name="sacute" unicode="&#x15b;" horiz-adv-x="868" 
d="M461 1110h-182l278 377h227l7 -17zM315 -39q-131 0 -223 55.5t-131 161.5l156 94l12 -6q52 -137 193 -137q74 0 122 34t48 89q0 38 -38.5 70t-127.5 67q-137 53 -198.5 115t-61.5 149q0 130 106 215.5t266 85.5q122 0 208.5 -53t115.5 -147l-146 -86l-16 6
q-41 112 -168 112q-63 0 -105 -32.5t-42 -79.5q0 -36 36 -64.5t132 -70.5q137 -55 196.5 -118t59.5 -153q0 -136 -110 -221.5t-284 -85.5z" />
    <glyph glyph-name="Scedilla" unicode="&#x15e;" horiz-adv-x="1179" 
d="M672 852q193 -91 274.5 -184t81.5 -224q0 -177 -119 -308t-311 -165l-88 -114q31 8 63 8q67 0 109.5 -37t42.5 -96q0 -94 -75.5 -150.5t-200.5 -56.5q-127 0 -213 49l51 98l16 6q67 -43 148 -43q52 0 83 23t31 61q0 58 -94 58q-47 0 -88 -15l-41 41l123 158
q-171 3 -286.5 78t-182.5 227l184 113l35 -10q44 -107 110.5 -155t168.5 -48q121 0 202.5 72.5t81.5 173.5q0 75 -58.5 130.5t-207.5 123.5q-184 80 -266 172t-82 221q0 188 139 309t363 121q155 0 266.5 -62.5t165.5 -181.5l-178 -112l-35 12q-38 72 -95.5 105.5
t-140.5 33.5q-105 0 -171 -55.5t-66 -143.5q0 -61 53 -109.5t207 -123.5z" />
    <glyph glyph-name="scedilla" unicode="&#x15f;" horiz-adv-x="868" 
d="M453 539q137 -55 196.5 -118t59.5 -153q0 -120 -86.5 -201t-229.5 -102l-84 -108q31 8 64 8q67 0 109 -37t42 -96q0 -94 -75.5 -150.5t-200.5 -56.5q-127 0 -213 49l51 98l16 6q67 -43 148 -43q52 0 83.5 23t31.5 61q0 58 -95 58q-48 0 -88 -15l-41 41l125 160
q-112 9 -191 64t-114 151l156 94l12 -6q52 -137 193 -137q74 0 122 34t48 89q0 38 -38.5 70t-127.5 67q-137 53 -198.5 115t-61.5 149q0 130 106 215.5t266 85.5q122 0 208.5 -53t115.5 -147l-146 -86l-16 6q-41 112 -168 112q-63 0 -105 -32.5t-42 -79.5q0 -36 36 -64.5
t132 -70.5z" />
    <glyph glyph-name="Scaron" unicode="&#x160;" horiz-adv-x="1179" 
d="M813 1565h-217l-184 272l14 18h152l135 -198l192 198h158l8 -18zM481 -39q-178 0 -297 75t-188 230l184 113l35 -10q44 -107 110.5 -155t168.5 -48q121 0 202.5 72.5t81.5 173.5q0 75 -58.5 130.5t-207.5 123.5q-184 80 -266 172t-82 221q0 188 139 309t363 121
q155 0 266.5 -62.5t165.5 -181.5l-178 -112l-35 12q-38 72 -95.5 105.5t-140.5 33.5q-105 0 -171 -55.5t-66 -143.5q0 -61 53 -109.5t207 -123.5q193 -91 274.5 -184t81.5 -224q0 -100 -41 -189t-112.5 -154t-174 -102.5t-219.5 -37.5z" />
    <glyph glyph-name="scaron" unicode="&#x161;" horiz-adv-x="868" 
d="M383 1470l125 -264l201 264h161l11 -16l-273 -360h-221l-170 360l14 16h152zM315 -39q-131 0 -223 55.5t-131 161.5l156 94l12 -6q52 -137 193 -137q74 0 122 34t48 89q0 38 -38.5 70t-127.5 67q-137 53 -198.5 115t-61.5 149q0 130 106 215.5t266 85.5q122 0 208.5 -53
t115.5 -147l-146 -86l-16 6q-41 112 -168 112q-63 0 -105 -32.5t-42 -79.5q0 -36 36 -64.5t132 -70.5q137 -55 196.5 -118t59.5 -153q0 -136 -110 -221.5t-284 -85.5z" />
    <glyph glyph-name="uni0162" unicode="&#x162;" horiz-adv-x="1243" 
d="M72 1233l30 217h1203l-31 -217h-481l-175 -1233h-45l-112 -143q31 8 63 8q67 0 109.5 -37t42.5 -96q0 -94 -76 -150.5t-201 -56.5q-127 0 -213 49l52 98l18 6q64 -43 145 -43q52 0 83.5 23t31.5 61q0 58 -92 58q-46 0 -90 -15l-41 41l156 197h-70l174 1233h-481z" />
    <glyph glyph-name="uni0163" unicode="&#x163;" horiz-adv-x="733" 
d="M659 737h-251l-60 -422q-12 -88 11.5 -122.5t91.5 -34.5q47 0 108 24l16 -8l-16 -180q-87 -33 -192 -33h-5l-79 -104q31 8 63 8q67 0 109.5 -37t42.5 -96q0 -94 -76 -150.5t-201 -56.5q-127 0 -213 49l51 98l17 6q67 -43 147 -43q52 0 83.5 23t31.5 61q0 58 -94 58
q-48 0 -88 -15l-41 41l137 174q-167 61 -133 291l65 469h-170l25 178h170l39 261l194 108h41l-51 -369h252z" />
    <glyph glyph-name="Tcaron" unicode="&#x164;" horiz-adv-x="1243" 
d="M834 1565h-218l-184 272l14 18h152l135 -198l193 198h157l9 -18zM379 0l174 1233h-481l30 217h1203l-31 -217h-481l-175 -1233h-239z" />
    <glyph glyph-name="tcaron" unicode="&#x165;" horiz-adv-x="870" 
d="M944 1423l-250 -403l-133 53l199 406l24 10zM559 182l16 -8l-16 -180q-87 -33 -192 -33q-140 0 -204.5 77.5t-43.5 229.5l65 469h-170l25 178h170l39 261l194 108h41l-51 -369h252l-25 -178h-251l-60 -422q-12 -88 11.5 -122.5t91.5 -34.5q47 0 108 24z" />
    <glyph glyph-name="Tbar" unicode="&#x166;" horiz-adv-x="1243" 
d="M1305 1450l-31 -217h-481l-60 -420h250l-22 -170h-252l-91 -643h-239l90 643h-252l25 170h252l59 420h-481l30 217h1203z" />
    <glyph glyph-name="tbar" unicode="&#x167;" horiz-adv-x="733" 
d="M684 915l-25 -178h-251l-21 -143h229l-16 -113h-229l-23 -166q-12 -88 11.5 -122.5t91.5 -34.5q47 0 108 24l16 -8l-16 -180q-87 -33 -192 -33q-140 0 -204.5 77.5t-43.5 229.5l31 213h-146l16 113h144l20 143h-170l25 178h170l39 261l194 108h41l-51 -369h252z" />
    <glyph glyph-name="Utilde" unicode="&#x168;" horiz-adv-x="1484" 
d="M989 1577q78 0 143.5 68.5t94.5 179.5h-123l-17 -13q-30 -83 -86 -83q-33 0 -80.5 24t-99 48t-94.5 24q-77 0 -142 -68t-93 -180h122l19 12q26 84 84 84q33 0 78 -24t95.5 -48t98.5 -24zM631 -39q-597 0 -508 631l121 858h237l-119 -852q-32 -217 37.5 -315.5
t245.5 -98.5q181 0 281.5 101.5t132.5 322.5l117 842h237l-121 -872q-41 -298 -211 -457.5t-450 -159.5z" />
    <glyph glyph-name="utilde" unicode="&#x169;" horiz-adv-x="1142" 
d="M750 1114q77 0 142 69t93 179h-121l-16 -12q-31 -84 -88 -84q-32 0 -79 24t-99 48t-95 24q-78 0 -143 -68t-94 -180h125l16 12q30 84 86 84q33 0 78 -24t96 -48t99 -24zM342 -39q-151 0 -222 100t-44 285l80 569h225l-76 -522q-35 -235 131 -235q99 0 178 86.5t99 222.5
l63 448h223l-129 -915h-219l21 150q-68 -92 -156 -140.5t-174 -48.5z" />
    <glyph glyph-name="Umacron" unicode="&#x16a;" horiz-adv-x="1484" 
d="M1143 1632h-592l22 154h592zM631 -39q-597 0 -508 631l121 858h237l-119 -852q-32 -217 37.5 -315.5t245.5 -98.5q181 0 281.5 101.5t132.5 322.5l117 842h237l-121 -872q-41 -298 -211 -457.5t-450 -159.5z" />
    <glyph glyph-name="umacron" unicode="&#x16b;" horiz-adv-x="1142" 
d="M903 1169h-592l21 154h590zM342 -39q-151 0 -222 100t-44 285l80 569h225l-76 -522q-35 -235 131 -235q99 0 178 86.5t99 222.5l63 448h223l-129 -915h-219l21 150q-68 -92 -156 -140.5t-174 -48.5z" />
    <glyph glyph-name="Ubreve" unicode="&#x16c;" horiz-adv-x="1484" 
d="M829 1563q-145 0 -225.5 72t-73.5 196l19 14h133q4 -66 45 -96.5t121 -30.5q156 0 201 127h133l14 -14q-26 -125 -123.5 -196.5t-243.5 -71.5zM631 -39q-597 0 -508 631l121 858h237l-119 -852q-32 -217 37.5 -315.5t245.5 -98.5q181 0 281.5 101.5t132.5 322.5l117 842
h237l-121 -872q-41 -298 -211 -457.5t-450 -159.5z" />
    <glyph glyph-name="ubreve" unicode="&#x16d;" horiz-adv-x="1142" 
d="M586 1100q-146 0 -227 71.5t-74 198.5l18 14h133q6 -67 46 -98t120 -31q157 0 201 129h133l16 -14q-28 -127 -124.5 -198.5t-241.5 -71.5zM342 -39q-151 0 -222 100t-44 285l80 569h225l-76 -522q-35 -235 131 -235q99 0 178 86.5t99 222.5l63 448h223l-129 -915h-219
l21 150q-68 -92 -156 -140.5t-174 -48.5z" />
    <glyph glyph-name="Uring" unicode="&#x16e;" horiz-adv-x="1484" 
d="M836 1544q-77 0 -129 49.5t-52 124.5q0 97 69.5 165.5t166.5 68.5q78 0 129 -49.5t51 -124.5q0 -96 -69.5 -165t-165.5 -69zM848 1630q56 0 95.5 39t39.5 94q0 44 -29 73.5t-73 29.5q-57 0 -97.5 -39.5t-40.5 -95.5q0 -44 29.5 -72.5t75.5 -28.5zM631 -39
q-597 0 -508 631l121 858h237l-119 -852q-32 -217 37.5 -315.5t245.5 -98.5q181 0 281.5 101.5t132.5 322.5l117 842h237l-121 -872q-41 -298 -211 -457.5t-450 -159.5z" />
    <glyph glyph-name="uring" unicode="&#x16f;" horiz-adv-x="1142" 
d="M598 1073q-77 0 -128.5 49.5t-51.5 124.5q0 95 69 164.5t166 69.5q78 0 129.5 -49.5t51.5 -124.5q0 -95 -69.5 -164.5t-166.5 -69.5zM610 1159q56 0 95.5 39t39.5 94q0 44 -29 73.5t-73 29.5q-57 0 -97 -39.5t-40 -95.5q0 -44 29 -72.5t75 -28.5zM342 -39
q-151 0 -222 100t-44 285l80 569h225l-76 -522q-35 -235 131 -235q99 0 178 86.5t99 222.5l63 448h223l-129 -915h-219l21 150q-68 -92 -156 -140.5t-174 -48.5z" />
    <glyph glyph-name="Uhungarumlaut" unicode="&#x170;" horiz-adv-x="1484" 
d="M713 1565h-178l229 274h221l8 -16zM1085 1565h-178l230 274h221l8 -16zM631 -39q-597 0 -508 631l121 858h237l-119 -852q-32 -217 37.5 -315.5t245.5 -98.5q181 0 281.5 101.5t132.5 322.5l117 842h237l-121 -872q-41 -298 -211 -457.5t-450 -159.5z" />
    <glyph glyph-name="uhungarumlaut" unicode="&#x171;" horiz-adv-x="1142" 
d="M487 1094h-178l275 376h223l6 -16zM854 1094h-178l274 376h221l9 -16zM342 -39q-151 0 -222 100t-44 285l80 569h225l-76 -522q-35 -235 131 -235q99 0 178 86.5t99 222.5l63 448h223l-129 -915h-219l21 150q-68 -92 -156 -140.5t-174 -48.5z" />
    <glyph glyph-name="Uogonek" unicode="&#x172;" horiz-adv-x="1484" 
d="M1059 608l117 842h237l-121 -872q-31 -224 -136 -372t-277 -206q-199 -143 -199 -260q0 -33 21 -51.5t55 -18.5q60 0 108 39h13l26 -121q-90 -53 -201 -53q-86 0 -138 42t-52 112q0 137 190 274q-25 -2 -71 -2q-597 0 -508 631l121 858h237l-119 -852
q-32 -217 37.5 -315.5t245.5 -98.5q181 0 281.5 101.5t132.5 322.5z" />
    <glyph glyph-name="uogonek" unicode="&#x173;" horiz-adv-x="1142" 
d="M870 0h-32q-199 -143 -199 -260q0 -33 21 -51.5t55 -18.5q60 0 108 39h13l26 -121q-90 -53 -200 -53q-87 0 -139 42t-52 112q0 86 70 166t174 145h-64l21 150q-68 -92 -156 -140.5t-174 -48.5q-151 0 -222 100t-44 285l80 569h225l-76 -522q-35 -235 131 -235
q99 0 178 86.5t99 222.5l63 448h223z" />
    <glyph glyph-name="Wcircumflex" unicode="&#x174;" horiz-adv-x="1984" 
d="M1233 1565l-135 182l-193 -182h-160l-8 16l260 258h217l183 -258l-15 -16h-149zM532 -23h-178l-243 1473h251l105 -750q1 -6 16.5 -130t22.5 -193h8q2 4 152 325l348 738h112l144 -738q7 -43 26 -152.5t29 -172.5h8q15 40 131 323l314 750h264l-658 -1473h-180l-139 719
q-7 37 -25.5 129t-27.5 144h-6q-24 -49 -66 -140t-61 -131z" />
    <glyph glyph-name="wcircumflex" unicode="&#x175;" horiz-adv-x="1456" 
d="M930 1094l-127 264l-201 -264h-162l-10 16l272 360h222l170 -360l-15 -16h-149zM365 -25h-125l-199 940h233l97 -604h4l315 594h90l144 -594h4l272 604h234l-463 -940h-125l-156 586h-4z" />
    <glyph glyph-name="Ycircumflex" unicode="&#x176;" horiz-adv-x="1253" 
d="M874 1565l-135 182l-192 -182h-160l-8 16l260 258h217l182 -258l-14 -16h-150zM623 0h-238l84 588l-389 862h266l146 -371q18 -48 56 -144.5t56 -146.5h8q142 206 195 289l252 373h278l-630 -862z" />
    <glyph glyph-name="ycircumflex" unicode="&#x177;" horiz-adv-x="1011" 
d="M698 1094l-127 264l-200 -264h-162l-10 16l272 360h221l170 -360l-14 -16h-150zM199 -446h-250l330 526l-256 835h253l140 -624h4l334 624h256z" />
    <glyph glyph-name="Ydieresis" unicode="&#x178;" horiz-adv-x="1253" 
d="M526 1606q-56 0 -92.5 36t-36.5 93q0 51 38.5 90t90.5 39q53 0 90 -38t37 -91q0 -57 -35.5 -93t-91.5 -36zM942 1606q-55 0 -92 36.5t-37 92.5q0 52 38 90.5t91 38.5q54 0 91.5 -38t37.5 -91q0 -57 -36.5 -93t-92.5 -36zM623 0h-238l84 588l-389 862h266l146 -371
q18 -48 56 -144.5t56 -146.5h8q142 206 195 289l252 373h278l-630 -862z" />
    <glyph glyph-name="Zacute" unicode="&#x179;" horiz-adv-x="1329" 
d="M780 1565h-178l234 274h221l6 -16zM-86 37l1018 1198h-797l31 215h1212l-6 -39l-1020 -1190h817l-30 -221h-1231z" />
    <glyph glyph-name="zacute" unicode="&#x17a;" horiz-adv-x="944" 
d="M483 1110h-182l279 377h227l6 -17zM-66 20l580 713h-461l27 182h817l-4 -20l-584 -711h482l-25 -184h-834z" />
    <glyph glyph-name="Zdotaccent" unicode="&#x17b;" horiz-adv-x="1329" 
d="M842 1587q-62 0 -104 39.5t-42 99.5t42 99t104 39q63 0 104 -40t41 -100q0 -59 -41 -98t-104 -39zM-86 37l1018 1198h-797l31 215h1212l-6 -39l-1020 -1190h817l-30 -221h-1231z" />
    <glyph glyph-name="zdotaccent" unicode="&#x17c;" horiz-adv-x="944" 
d="M524 1106q-62 0 -103.5 39.5t-41.5 99.5q0 58 41.5 97.5t103.5 39.5q63 0 104.5 -39.5t41.5 -99.5q0 -59 -41.5 -98t-104.5 -39zM-66 20l580 713h-461l27 182h817l-4 -20l-584 -711h482l-25 -184h-834z" />
    <glyph glyph-name="Zcaron" unicode="&#x17d;" horiz-adv-x="1329" 
d="M922 1565h-217l-185 272l15 18h151l135 -198l193 198h157l9 -18zM-86 37l1018 1198h-797l31 215h1212l-6 -39l-1020 -1190h817l-30 -221h-1231z" />
    <glyph glyph-name="zcaron" unicode="&#x17e;" horiz-adv-x="944" 
d="M406 1470l124 -264l201 264h162l10 -16l-272 -360h-221l-170 360l14 16h152zM-66 20l580 713h-461l27 182h817l-4 -20l-584 -711h482l-25 -184h-834z" />
    <glyph glyph-name="florin" unicode="&#x192;" horiz-adv-x="1433" 
d="M334 -317q-83 0 -148 28l45 178l19 7q43 -15 76 -15q66 0 102 45t51 150l88 624h-170l25 179h170l29 206q32 222 112.5 313t237.5 91q79 0 162 -27l-37 -184l-19 -8q-43 22 -88 22q-61 0 -94.5 -45.5t-50.5 -159.5l-29 -208h211l-25 -179h-210l-93 -649
q-26 -189 -116 -278.5t-248 -89.5z" />
    <glyph glyph-name="Aringacute" unicode="&#x1fa;" horiz-adv-x="1415" 
d="M1118 2300l6 -16l-282 -259h-178l233 275h221zM803 1544q-77 0 -128.5 49.5t-51.5 124.5q0 97 69 165.5t166 68.5q78 0 129 -49.5t51 -124.5q0 -96 -69 -165t-166 -69zM848 1866q-57 0 -97 -39.5t-40 -95.5q0 -44 29 -72.5t75 -28.5q56 0 95.5 39t39.5 94q0 44 -29 73.5
t-73 29.5zM1305 0h-261l-83 340h-639l-179 -340h-276l809 1450h235zM627 922l-207 -394h493l-96 390q-33 143 -55 276h-4q-71 -160 -131 -272z" />
    <glyph glyph-name="aringacute" unicode="&#x1fb;" horiz-adv-x="1189" 
d="M682 1591h-182l278 377h228l6 -14zM635 1073q-77 0 -128.5 49.5t-51.5 124.5q0 95 69.5 164.5t165.5 69.5q78 0 129 -49.5t51 -124.5q0 -95 -69 -164.5t-166 -69.5zM647 1159q56 0 95.5 39t39.5 94q0 44 -29 73.5t-73 29.5q-57 0 -97 -39.5t-40 -95.5q0 -44 29 -72.5
t75 -28.5zM375 -39q-160 0 -255 107.5t-95 293.5q0 118 38 227t102 189t153.5 128t187.5 48q96 0 175.5 -52t121.5 -146l22 159h222l-129 -915h-224l6 35l19 110q-63 -86 -156.5 -135t-187.5 -49zM453 156q132 0 224.5 103t92.5 257q0 108 -60.5 176t-156.5 68
q-127 0 -214 -107t-87 -270q0 -108 53.5 -167.5t147.5 -59.5z" />
    <glyph glyph-name="AEacute" unicode="&#x1fc;" horiz-adv-x="1914" 
d="M1358 1565h-178l233 274h221l6 -16zM1712 639h-592l-59 -430h645l-53 -209h-860l47 340h-455l-238 -340h-280l1018 1450h960l6 -209h-647l-55 -397h592zM772 901l-266 -373h360l56 377q15 116 63 342h-6q-67 -134 -207 -346z" />
    <glyph glyph-name="aeacute" unicode="&#x1fd;" horiz-adv-x="1630" 
d="M870 1110h-182l279 377h227l6 -17zM223 -39q-118 0 -178.5 56.5t-60.5 148.5q0 153 154.5 243t453.5 128l8 59q21 172 -121 172q-132 0 -260 -147l-18 -3l-129 95q83 111 206 176t259 65q198 0 245 -145h4q130 145 338 145q164 0 267.5 -109.5t103.5 -295.5
q0 -70 -16 -129h-680v-47q-1 -107 54.5 -170.5t139.5 -63.5q141 0 256 146l19 2l162 -84q-81 -120 -198 -181t-257 -61q-107 0 -203 52.5t-143 131.5q-115 -101 -209 -142.5t-197 -41.5zM827 555l449 -2q9 105 -41.5 167t-140.5 62q-92 0 -163.5 -61t-103.5 -166zM315 115
q61 0 124 30.5t149 104.5q-17 71 -8 160q-197 -29 -284 -78t-87 -131q0 -39 26 -62.5t80 -23.5z" />
    <glyph glyph-name="Oslashacute" unicode="&#x1fe;" horiz-adv-x="1751" 
d="M1274 1839l6 -16l-283 -258h-178l234 274h221zM1616 1405l-133 -133q155 -175 155 -436q0 -177 -70.5 -339t-188.5 -279.5t-280.5 -187t-338.5 -69.5q-256 0 -441 139l-126 -129l-91 72l134 135q-158 179 -158 438q0 178 70 339.5t188.5 278.5t281 186t340.5 69
q262 0 445 -141l129 131zM330 633q0 -160 84 -277l815 820q-115 92 -287 92q-165 0 -306 -85t-223.5 -231.5t-82.5 -318.5zM776 184q162 0 303 85.5t224 231.5t83 316q0 162 -79 277l-813 -820q120 -90 282 -90z" />
    <glyph glyph-name="oslashacute" unicode="&#x1ff;" horiz-adv-x="1169" 
d="M631 1110h-182l278 377h227l7 -17zM473 -39q-153 0 -272 82l-72 -72l-86 68l78 78q-94 118 -94 276q0 152 75 280.5t206.5 204.5t287.5 76q163 0 274 -82l72 72l82 -70l-76 -75q92 -112 92 -273q0 -113 -45.5 -217.5t-122 -180.5t-181 -121.5t-218.5 -45.5zM281 279
l438 440q-59 43 -133 43q-139 0 -237.5 -106t-98.5 -253q0 -60 31 -124zM483 154q134 0 233 107.5t99 250.5q0 67 -29 123l-434 -440q57 -41 131 -41z" />
    <glyph glyph-name="uni0218" unicode="&#x218;" horiz-adv-x="1179" 
d="M481 -39q-178 0 -297 75t-188 230l184 113l35 -10q44 -107 110.5 -155t168.5 -48q121 0 202.5 72.5t81.5 173.5q0 75 -58.5 130.5t-207.5 123.5q-184 80 -266 172t-82 221q0 188 139 309t363 121q155 0 266.5 -62.5t165.5 -181.5l-178 -112l-35 12q-38 72 -95.5 105.5
t-140.5 33.5q-105 0 -171 -55.5t-66 -143.5q0 -61 53 -109.5t207 -123.5q193 -91 274.5 -184t81.5 -224q0 -100 -41 -189t-112.5 -154t-174 -102.5t-219.5 -37.5zM702 -168l-235 -379l-143 60l170 385l22 10z" />
    <glyph glyph-name="uni0219" unicode="&#x219;" horiz-adv-x="868" 
d="M315 -39q-131 0 -223 55.5t-131 161.5l156 94l12 -6q52 -137 193 -137q74 0 122 34t48 89q0 38 -38.5 70t-127.5 67q-137 53 -198.5 115t-61.5 149q0 130 106 215.5t266 85.5q122 0 208.5 -53t115.5 -147l-146 -86l-16 6q-41 112 -168 112q-63 0 -105 -32.5t-42 -79.5
q0 -36 36 -64.5t132 -70.5q137 -55 196.5 -118t59.5 -153q0 -136 -110 -221.5t-284 -85.5zM502 -168l-236 -379l-143 60l170 385l22 10z" />
    <glyph glyph-name="uni021A" unicode="&#x21a;" horiz-adv-x="1243" 
d="M379 0l174 1233h-481l30 217h1203l-31 -217h-481l-175 -1233h-239zM684 -168l-235 -379l-144 60l170 385l23 10z" />
    <glyph glyph-name="uni021B" unicode="&#x21b;" horiz-adv-x="733" 
d="M559 182l16 -8l-16 -180q-87 -33 -192 -33q-140 0 -204.5 77.5t-43.5 229.5l65 469h-170l25 178h170l39 261l194 108h41l-51 -369h252l-25 -178h-251l-60 -422q-12 -88 11.5 -122.5t91.5 -34.5q47 0 108 24zM475 -168l-235 -379l-144 60l170 385l23 10z" />
    <glyph glyph-name="uni0237" unicode="&#x237;" horiz-adv-x="589" 
d="M-59 -471q-83 0 -150 29l45 178l19 6q40 -14 75 -14q66 0 101.5 44t52.5 150l139 993h223l-143 -1017q-28 -190 -116.5 -279.5t-245.5 -89.5z" />
    <glyph glyph-name="uni02BC" unicode="&#x2bc;" horiz-adv-x="503" 
d="M518 1448l-309 -490l-146 60l240 498l25 10z" />
    <glyph glyph-name="circumflex" unicode="&#x2c6;" horiz-adv-x="786" 
d="M651 1094l-125 264l-200 -264h-162l-10 16l272 360h221l168 -360l-12 -16h-152z" />
    <glyph glyph-name="caron" unicode="&#x2c7;" horiz-adv-x="786" 
d="M367 1470l127 -264l200 264h160l10 -16l-272 -360h-221l-168 360l12 16h152z" />
    <glyph glyph-name="breve" unicode="&#x2d8;" horiz-adv-x="788" 
d="M489 1100q-146 0 -227 72t-72 198l17 14h133q6 -67 46.5 -98t119.5 -31q159 0 201 129h133l16 -14q-28 -127 -125 -198.5t-242 -71.5z" />
    <glyph glyph-name="dotaccent" unicode="&#x2d9;" horiz-adv-x="417" 
d="M319 1106q-63 0 -105 39.5t-42 99.5q0 59 42 98t105 39q62 0 104 -39.5t42 -99.5q0 -58 -42 -97.5t-104 -39.5z" />
    <glyph glyph-name="ring" unicode="&#x2da;" horiz-adv-x="534" 
d="M354 1073q-77 0 -128.5 49.5t-51.5 124.5q0 95 69.5 164.5t166.5 69.5q78 0 129 -49.5t51 -124.5q0 -95 -69.5 -164.5t-166.5 -69.5zM367 1159q56 0 95.5 39t39.5 94q0 44 -29.5 73.5t-73.5 29.5q-57 0 -97 -39.5t-40 -95.5q0 -44 29.5 -72.5t75.5 -28.5z" />
    <glyph glyph-name="ogonek" unicode="&#x2db;" horiz-adv-x="528" 
d="M145 -465q-86 0 -138 42t-52 112q0 86 70 166t174 145h123q-199 -143 -199 -260q0 -33 21 -51.5t55 -18.5q60 0 108 39h12l27 -121q-90 -53 -201 -53z" />
    <glyph glyph-name="tilde" unicode="&#x2dc;" horiz-adv-x="823" 
d="M653 1114q77 0 142.5 69t93.5 179h-121l-16 -12q-31 -84 -88 -84q-32 0 -79 24t-99 48t-95 24q-78 0 -143 -68t-94 -180h125l16 12q30 84 86 84q33 0 78 -24t95.5 -48t98.5 -24z" />
    <glyph glyph-name="hungarumlaut" unicode="&#x2dd;" horiz-adv-x="942" 
d="M330 1094h-178l274 376h221l8 -16zM696 1094h-178l275 376h221l8 -16z" />
    <glyph glyph-name="gravecomb" unicode="&#x300;" 
d="M-88 1094h-172l-295 360l8 16h221z" />
    <glyph glyph-name="acutecomb" unicode="&#x301;" 
d="M-342 1094h-182l278 376h228l6 -16z" />
    <glyph glyph-name="uni0302" unicode="&#x302;" 
d="M-250 1094l-127 264l-201 -264h-161l-11 16l273 360h221l170 -360l-14 -16h-150z" />
    <glyph glyph-name="tildecomb" unicode="&#x303;" 
d="M-170 1114q77 0 142.5 69t93.5 179h-121l-17 -12q-31 -84 -88 -84q-32 0 -79 24t-98.5 48t-94.5 24q-78 0 -143.5 -68t-94.5 -180h125l17 12q30 84 86 84q33 0 78 -24t95.5 -48t98.5 -24z" />
    <glyph glyph-name="uni0304" unicode="&#x304;" 
d="M-72 1169h-592l21 154h590z" />
    <glyph glyph-name="uni0306" unicode="&#x306;" 
d="M-326 1100q-146 0 -227 71.5t-74 198.5l19 14h133q6 -67 46 -98t120 -31t128.5 31t71.5 98h134l16 -14q-28 -127 -125 -198.5t-242 -71.5z" />
    <glyph glyph-name="uni0307" unicode="&#x307;" 
d="M-176 1106q-62 0 -104 39.5t-42 99.5q0 58 42 97.5t104 39.5q63 0 104 -39.5t41 -99.5q0 -59 -41 -98t-104 -39z" />
    <glyph glyph-name="uni0308" unicode="&#x308;" 
d="M-487 1112q-56 0 -93.5 37t-37.5 92q0 53 38.5 91t92.5 38q53 0 90 -38t37 -91q0 -56 -36 -92.5t-91 -36.5zM-106 1112q-56 0 -93 37t-37 92q0 53 38 91t92 38q52 0 90.5 -38t38.5 -91q0 -55 -36.5 -92t-92.5 -37z" />
    <glyph glyph-name="uni030A" unicode="&#x30a;" 
d="M-180 1073q-77 0 -128.5 49.5t-51.5 124.5q0 95 69 164.5t166 69.5q78 0 129 -49.5t51 -124.5q0 -95 -69.5 -164.5t-165.5 -69.5zM-168 1159q56 0 95.5 39t39.5 94q0 44 -29 73.5t-73 29.5q-57 0 -97 -39.5t-40 -95.5q0 -44 29 -72.5t75 -28.5z" />
    <glyph glyph-name="uni030B" unicode="&#x30b;" 
d="M-635 1094h-178l274 376h224l6 -16zM-268 1094h-178l274 376h221l8 -16z" />
    <glyph glyph-name="uni030C" unicode="&#x30c;" 
d="M-532 1470l124 -264l201 264h162l10 -16l-272 -360h-221l-170 360l14 16h152z" />
    <glyph glyph-name="uni0312" unicode="&#x312;" 
d="M-440 1135l237 378l142 -59l-170 -385l-23 -10z" />
    <glyph glyph-name="uni0315" unicode="&#x315;" 
d="M-63 1524l-236 -379l-143 59l172 385l22 10z" />
    <glyph glyph-name="dotbelowcomb" unicode="&#x323;" 
d="M-295 -512q-62 0 -103.5 39.5t-41.5 99.5q0 59 41 98t104 39t104 -39.5t41 -99.5q0 -59 -41 -98t-104 -39z" />
    <glyph glyph-name="uni0324" unicode="&#x324;" 
d="M-682 -432q-56 0 -92.5 37t-36.5 92q0 53 38.5 91t90.5 38q54 0 91.5 -37.5t37.5 -91.5q0 -56 -36 -92.5t-93 -36.5zM-301 -432q-54 0 -91.5 37t-37.5 92q0 53 38 91t91 38q54 0 91.5 -37.5t37.5 -91.5q0 -55 -37 -92t-92 -37z" />
    <glyph glyph-name="uni0325" unicode="&#x325;" 
d="M-410 -565q-77 0 -128.5 49.5t-51.5 124.5q0 97 69 165t167 68q77 0 128.5 -49.5t51.5 -124.5q0 -94 -70.5 -163.5t-165.5 -69.5zM-399 -477q56 0 95.5 39t39.5 94q0 44 -29 72t-74 28q-56 0 -95.5 -39t-39.5 -94q0 -44 29 -72t74 -28z" />
    <glyph glyph-name="uni0326" unicode="&#x326;" 
d="M-39 -168l-235 -379l-144 60l170 385l23 10z" />
    <glyph glyph-name="uni0327" unicode="&#x327;" 
d="M-442 -475q-127 0 -213 49l51 98l16 6q67 -43 148 -43q52 0 83 23t31 61q0 58 -94 58q-47 0 -88 -15l-41 41l154 197h125l-111 -143q31 8 64 8q67 0 109 -37t42 -96q0 -94 -75.5 -150.5t-200.5 -56.5z" />
    <glyph glyph-name="uni0328" unicode="&#x328;" 
d="M-383 -465q-86 0 -138 42t-52 112q0 86 69.5 166t173.5 145h123q-199 -143 -199 -260q0 -33 21 -51.5t55 -18.5q61 0 109 39h12l27 -121q-90 -53 -201 -53z" />
    <glyph glyph-name="uni0330" unicode="&#x330;" 
d="M-393 -463q78 0 143 68.5t94 179.5h-123l-16 -12q-31 -84 -86 -84q-33 0 -80.5 24t-99 48t-94.5 24q-77 0 -142.5 -68t-93.5 -180h123l18 12q26 84 84 84q33 0 78 -24t96 -48t99 -24z" />
    <glyph glyph-name="uni0331" unicode="&#x331;" 
d="M-180 -387h-592l20 154h590z" />
    <glyph glyph-name="uni0335" unicode="&#x335;" 
d="M-127 373h-467l23 162h467z" />
    <glyph glyph-name="uni0336" unicode="&#x336;" 
d="M205 373h-1454l22 162h1454z" />
    <glyph glyph-name="uni0337" unicode="&#x337;" 
d="M-61 610l-752 -432l-72 125l752 432z" />
    <glyph glyph-name="uni0338" unicode="&#x338;" 
d="M-61 1026l-1029 -1225l-110 95l1028 1224z" />
    <glyph glyph-name="uni0394" unicode="&#x394;" horiz-adv-x="1415" 
d="M676 1450h235l394 -1450h-1438zM627 922l-375 -713h741l-176 709q-33 143 -55 276h-4q-71 -160 -131 -272z" />
    <glyph glyph-name="pi" unicode="&#x3c0;" horiz-adv-x="1130" 
d="M625 172l80 565h-340l-103 -737h-223l102 737h-129l25 178h1055l-25 -178h-141l-76 -547q-5 -35 3.5 -47t39.5 -12q17 0 55 14l15 -8l-21 -147q-73 -23 -139 -23q-104 0 -148 50.5t-30 154.5z" />
    <glyph glyph-name="uni0400" unicode="&#x400;" horiz-adv-x="1167" 
d="M905 1565h-170l-248 258l13 16h211zM45 0l205 1450h846l8 -209h-647l-58 -397h592l-26 -205h-592l-62 -430h647l-53 -209h-860z" />
    <glyph glyph-name="uni0401" unicode="&#x401;" horiz-adv-x="1167" 
d="M510 1606q-56 0 -92.5 36t-36.5 93q0 51 38.5 90t90.5 39q53 0 90 -38t37 -91q0 -57 -35.5 -93t-91.5 -36zM926 1606q-55 0 -92 36.5t-37 92.5q0 52 38 90.5t91 38.5q54 0 91.5 -38t37.5 -91q0 -57 -36.5 -93t-92.5 -36zM45 0l205 1450h846l8 -209h-647l-58 -397h592
l-26 -205h-592l-62 -430h647l-53 -209h-860z" />
    <glyph glyph-name="uni0403" unicode="&#x403;" horiz-adv-x="1019" 
d="M692 1565h-178l234 274h221l6 -16zM45 0l205 1450h797l6 -217h-596l-172 -1233h-240z" />
    <glyph glyph-name="uni040C" unicode="&#x40c;" horiz-adv-x="1320" 
d="M1059 1839l6 -16l-283 -258h-178l234 274h221zM1092 1450h305l-639 -600l469 -850h-273l-370 688l-236 -221l-65 -467h-238l205 1450h237l-94 -670z" />
    <glyph glyph-name="uni040D" unicode="&#x40d;" horiz-adv-x="1599" 
d="M1110 1565h-170l-248 258l13 16h210zM1513 1450l-204 -1450h-238l94 674q22 169 58 368h-6q-76 -80 -281 -290l-758 -775h-137l209 1473h237l-90 -629q-41 -286 -57 -375h4q84 90 313 328l654 676h202z" />
    <glyph glyph-name="uni0410" unicode="&#x410;" horiz-adv-x="1415" 
d="M1305 0h-261l-83 340h-639l-179 -340h-276l809 1450h235zM627 922l-207 -394h493l-96 390q-33 143 -55 276h-4q-71 -160 -131 -272z" />
    <glyph glyph-name="uni0411" unicode="&#x411;" horiz-adv-x="1210" 
d="M403 860h201q234 0 350.5 -92t116.5 -264q0 -239 -155 -371.5t-422 -132.5h-449l205 1450h799l8 -215h-598zM311 199h176q344 0 344 280q0 95 -67 140t-209 45h-176z" />
    <glyph glyph-name="uni0412" unicode="&#x412;" horiz-adv-x="1234" 
d="M463 0h-418l205 1450h395q232 0 349.5 -81t117.5 -239q0 -132 -73.5 -228.5t-202.5 -133.5v-4q120 -28 187 -107.5t67 -193.5q0 -224 -161.5 -343.5t-465.5 -119.5zM461 1255l-62 -417h174q146 0 227 66.5t81 185.5q0 84 -65.5 124.5t-201.5 40.5h-153zM373 659l-64 -460
h162q193 0 288.5 67t98.5 205q1 97 -71 142.5t-226 45.5h-188z" />
    <glyph glyph-name="uni0413" unicode="&#x413;" horiz-adv-x="1019" 
d="M45 0l205 1450h797l6 -217h-596l-172 -1233h-240z" />
    <glyph glyph-name="uni0414" unicode="&#x414;" horiz-adv-x="1445" 
d="M926 1450l282 -1237h133l-79 -555h-220l48 342h-979l-50 -342h-219l80 555h131l637 1237h236zM954 213l-137 709q-22 116 -43 272h-6q-45 -109 -121 -272l-332 -709h639z" />
    <glyph glyph-name="uni0415" unicode="&#x415;" horiz-adv-x="1167" 
d="M45 0l205 1450h846l8 -209h-647l-58 -397h592l-26 -205h-592l-62 -430h647l-53 -209h-860z" />
    <glyph glyph-name="uni0416" unicode="&#x416;" horiz-adv-x="2086" 
d="M203 0h-297l667 836l-436 614h285l274 -401q134 -198 232 -351h2q6 44 27 220t34 266l39 266h238l-37 -266q-40 -274 -76 -477h4q248 271 318 342l389 401h295l-609 -614l430 -836h-284l-328 655l-250 -252l-57 -403h-238l56 403l-170 244z" />
    <glyph glyph-name="uni0417" unicode="&#x417;" horiz-adv-x="1200" 
d="M492 -39q-247 0 -375 111.5t-123 318.5l209 35l33 -18q0 -114 68 -177t196 -63q141 0 222 80.5t81 206.5q0 106 -67 158.5t-206 52.5h-145l27 174h135q151 0 235 69.5t84 194.5q0 85 -52 131.5t-150 46.5q-236 0 -310 -213l-37 -14l-192 32q61 191 210 296.5t367 105.5
q189 0 300.5 -91t111.5 -247q0 -133 -81.5 -244t-219.5 -151q113 -29 173.5 -109.5t60.5 -200.5q0 -211 -157 -348t-398 -137z" />
    <glyph glyph-name="uni0418" unicode="&#x418;" horiz-adv-x="1599" 
d="M1513 1450l-204 -1450h-238l94 674q22 169 58 368h-6q-76 -80 -281 -290l-758 -775h-137l209 1473h237l-90 -629q-41 -286 -57 -375h4q84 90 313 328l654 676h202z" />
    <glyph glyph-name="uni0419" unicode="&#x419;" horiz-adv-x="1599" 
d="M889 1563q-145 0 -225.5 72t-73.5 196l18 14h133q4 -66 45 -96.5t121 -30.5q156 0 201 127h133l14 -14q-26 -125 -123 -196.5t-243 -71.5zM1513 1450l-204 -1450h-238l94 674q22 169 58 368h-6q-76 -80 -281 -290l-758 -775h-137l209 1473h237l-90 -629
q-41 -286 -57 -375h4q84 90 313 328l654 676h202z" />
    <glyph glyph-name="uni041A" unicode="&#x41a;" horiz-adv-x="1320" 
d="M1092 1450h305l-639 -600l469 -850h-273l-370 688l-236 -221l-65 -467h-238l205 1450h237l-94 -670z" />
    <glyph glyph-name="uni041B" unicode="&#x41b;" horiz-adv-x="1396" 
d="M141 0h-274l801 1450h233l385 -1450h-262l-219 920q-41 191 -53 274h-7q-33 -78 -129 -274z" />
    <glyph glyph-name="uni041C" unicode="&#x41c;" horiz-adv-x="1835" 
d="M553 1450l309 -899h4l566 899h317l-205 -1450h-233l162 1145h-5l-634 -993h-37l-357 993h-4l-157 -1145h-234l205 1450h303z" />
    <glyph glyph-name="uni041D" unicode="&#x41d;" horiz-adv-x="1495" 
d="M283 0h-238l205 1450h237l-86 -610h684l86 610h238l-205 -1450h-237l88 627h-684z" />
    <glyph glyph-name="uni041E" unicode="&#x41e;" horiz-adv-x="1751" 
d="M760 -39q-197 0 -352.5 82.5t-242.5 232t-87 340.5q0 178 70 339.5t188.5 278.5t281 186t340.5 69q301 0 490.5 -181t189.5 -472q0 -177 -70.5 -339t-188.5 -279.5t-280.5 -187t-338.5 -69.5zM776 184q162 0 303 85.5t224 231.5t83 316q0 202 -123 326.5t-321 124.5
q-165 0 -306 -85t-223.5 -231.5t-82.5 -318.5q0 -199 124.5 -324t321.5 -125z" />
    <glyph glyph-name="uni041F" unicode="&#x41f;" horiz-adv-x="1515" 
d="M283 0h-238l205 1450h1180l-205 -1450h-238l174 1237h-704z" />
    <glyph glyph-name="uni0420" unicode="&#x420;" horiz-adv-x="1185" 
d="M285 0h-240l203 1450h424q235 0 354 -93.5t119 -271.5q0 -234 -150.5 -369.5t-412.5 -135.5h-217zM461 1249l-68 -471h168q170 0 258 72.5t88 212.5q0 97 -66.5 141.5t-209.5 44.5h-170z" />
    <glyph glyph-name="uni0421" unicode="&#x421;" horiz-adv-x="1603" 
d="M741 -39q-293 0 -478 179.5t-185 469.5q0 179 68 341.5t183 280.5t274 187.5t333 69.5q220 0 376.5 -97t235.5 -286l-188 -111l-35 13q-111 258 -399 258q-160 0 -296.5 -86.5t-216 -233.5t-79.5 -317q0 -198 120.5 -321.5t311.5 -123.5q154 0 272.5 64t216.5 201l35 4
l158 -117q-272 -375 -707 -375z" />
    <glyph glyph-name="uni0422" unicode="&#x422;" horiz-adv-x="1243" 
d="M379 0l174 1233h-481l30 217h1203l-31 -217h-481l-175 -1233h-239z" />
    <glyph glyph-name="uni0423" unicode="&#x423;" horiz-adv-x="1267" 
d="M348 0h-258l420 588l-389 862h268l146 -371q21 -57 61 -157.5t53 -133.5h6q142 206 195 289l252 373h276z" />
    <glyph glyph-name="uni0424" unicode="&#x424;" horiz-adv-x="1802" 
d="M1688 823q0 -160 -59.5 -302.5t-163.5 -246.5t-249 -170t-311 -79l-14 -105h-238l15 107q-270 25 -429 187t-159 417q0 160 59.5 302t163 246t249 169t312.5 77l15 105h237l-14 -107q270 -25 428 -185t158 -415zM324 637q0 -168 100.5 -276.5t277.5 -127.5l138 986
q-231 -20 -373.5 -182.5t-142.5 -399.5zM1067 1217l-137 -986q228 23 372 187t144 395q0 169 -100.5 277t-278.5 127z" />
    <glyph glyph-name="uni0425" unicode="&#x425;" horiz-adv-x="1308" 
d="M168 0h-291l610 766l-376 684h288l254 -514l400 514h288l-567 -692l412 -758h-283l-293 580z" />
    <glyph glyph-name="uni0426" unicode="&#x426;" horiz-adv-x="1517" 
d="M1161 1450h238l-174 -1237h164l-80 -555h-219l47 342h-1092l205 1450h237l-174 -1237h674z" />
    <glyph glyph-name="uni0427" unicode="&#x427;" horiz-adv-x="1386" 
d="M983 879l80 571h237l-204 -1450h-238l94 664q-82 -88 -200.5 -142.5t-231.5 -54.5q-214 0 -299 115.5t-51 359.5l72 506h237l-65 -467q-22 -162 19 -230.5t163 -68.5q105 0 198 44t189 153z" />
    <glyph glyph-name="uni0428" unicode="&#x428;" horiz-adv-x="2027" 
d="M1530 213l174 1237h238l-205 -1450h-1692l205 1450h237l-174 -1237h490l174 1237h237l-172 -1237h488z" />
    <glyph glyph-name="uni0429" unicode="&#x429;" horiz-adv-x="2060" 
d="M1704 1450h238l-175 -1237h164l-78 -555h-221l49 342h-1636l205 1450h237l-174 -1237h490l174 1237h237l-172 -1237h488z" />
    <glyph glyph-name="uni042A" unicode="&#x42a;" horiz-adv-x="1353" 
d="M565 870h201q228 0 346.5 -95.5t118.5 -280.5q0 -230 -154.5 -362t-425.5 -132h-446l174 1235h-326l56 215h540zM471 201h176q166 0 256 66t90 202q0 107 -66.5 155t-211.5 48h-176z" />
    <glyph glyph-name="uni042B" unicode="&#x42b;" horiz-adv-x="1765" 
d="M45 0l205 1450h239l-83 -580h200q228 0 346.5 -95.5t118.5 -280.5q0 -230 -153.5 -362t-423.5 -132h-449zM1239 0l205 1450h237l-204 -1450h-238zM555 672h-176l-68 -471h178q165 0 255 66t90 202q0 107 -67 155t-212 48z" />
    <glyph glyph-name="uni042C" unicode="&#x42c;" horiz-adv-x="1193" 
d="M45 0l205 1450h239l-83 -580h200q228 0 346.5 -95.5t118.5 -280.5q0 -230 -153.5 -362t-423.5 -132h-449zM555 672h-176l-68 -471h178q165 0 255 66t90 202q0 107 -67 155t-212 48z" />
    <glyph glyph-name="uni042D" unicode="&#x42d;" horiz-adv-x="1615" 
d="M856 1489q297 0 472 -177.5t175 -471.5q0 -178 -65 -339.5t-178 -280.5t-274 -189t-345 -70q-456 0 -627 375l187 110l35 -8q59 -132 158.5 -193t262.5 -61q214 0 366.5 129t203.5 332h-715l25 174h712v4q0 203 -112.5 323t-311.5 120q-156 0 -277.5 -63.5t-221.5 -196.5
l-39 -7l-156 111q130 188 315.5 283.5t409.5 95.5z" />
    <glyph glyph-name="uni042E" unicode="&#x42e;" horiz-adv-x="2234" 
d="M1452 1489q297 0 483.5 -181t186.5 -472q0 -177 -70 -339t-187 -279.5t-277.5 -187t-334.5 -69.5q-294 0 -482.5 183t-188.5 472v11h-211l-88 -627h-238l205 1450h237l-86 -610h209q50 186 173 334t298.5 231.5t370.5 83.5zM1270 184q159 0 297.5 85.5t220.5 231.5
t82 316q0 202 -121 326.5t-315 124.5q-119 0 -230.5 -50.5t-193 -135.5t-130.5 -202.5t-49 -246.5q0 -198 124.5 -323.5t314.5 -125.5z" />
    <glyph glyph-name="uni042F" unicode="&#x42f;" horiz-adv-x="1271" 
d="M766 1450h422l-205 -1450h-240l86 602h-204l-488 -602h-250l-10 35l510 608q-110 38 -167.5 118t-57.5 195q0 239 163.5 366.5t440.5 127.5zM674 797h182l64 452h-164q-359 0 -359 -270q0 -95 67.5 -138.5t209.5 -43.5z" />
    <glyph glyph-name="uni0430" unicode="&#x430;" horiz-adv-x="1189" 
d="M375 -39q-160 0 -255 107.5t-95 293.5q0 118 38 227t102 189t153.5 128t187.5 48q96 0 175.5 -52t121.5 -146l22 159h222l-129 -915h-224l6 35l19 110q-63 -86 -156.5 -135t-187.5 -49zM453 156q132 0 224.5 103t92.5 257q0 108 -60.5 176t-156.5 68q-127 0 -214 -107
t-87 -270q0 -108 53.5 -167.5t147.5 -59.5z" />
    <glyph glyph-name="uni0431" unicode="&#x431;" horiz-adv-x="1175" 
d="M516 -39q-254 0 -366 150t-72 421l18 130q18 133 46.5 237t75 196t111.5 158t156 114t209 73l250 53q60 13 133 41l39 -178q-54 -30 -153 -53l-220 -50q-103 -23 -169.5 -53.5t-118.5 -87t-83 -142.5t-53 -218h7q74 95 170.5 146.5t203.5 51.5q160 0 254.5 -105.5
t94.5 -287.5q0 -164 -67.5 -300t-190.5 -216t-275 -80zM512 156q95 0 166 52t106 134.5t35 181.5q0 109 -56.5 170.5t-160.5 61.5q-136 0 -228.5 -105t-92.5 -252q0 -111 62 -177t169 -66z" />
    <glyph glyph-name="uni0432" unicode="&#x432;" horiz-adv-x="1165" 
d="M485 -39q-246 0 -344.5 147.5t-56.5 444.5l68 465q35 243 168.5 375.5t343.5 132.5q171 0 273.5 -86t102.5 -226q0 -127 -80.5 -241.5t-199.5 -149.5v-4q128 -32 194 -117t66 -210q0 -141 -70 -263t-193.5 -195t-271.5 -73zM500 156q129 0 213 96t84 229q0 107 -63 165.5
t-185 58.5h-103l25 178h92q113 0 182.5 83t69.5 197q0 76 -46 120t-128 44q-112 0 -178.5 -78.5t-87.5 -226.5l-74 -518q-46 -348 199 -348z" />
    <glyph glyph-name="uni0433" unicode="&#x433;" horiz-adv-x="876" 
d="M303 -39q-146 0 -231.5 66.5t-85.5 173.5q0 66 22.5 117.5t70.5 90.5t103.5 67.5t139.5 58.5q128 46 173.5 82t45.5 85q0 37 -28 60.5t-85 23.5q-139 0 -213 -116l-16 -2l-121 88q53 92 157.5 145t237.5 53q136 0 212.5 -63.5t76.5 -161.5q0 -127 -85.5 -202.5
t-254.5 -133.5q-123 -41 -170 -79.5t-47 -90.5q0 -42 34.5 -68t102.5 -26q136 0 236 133l12 2l131 -96q-70 -101 -178 -154t-240 -53z" />
    <glyph glyph-name="uni0434" unicode="&#x434;" horiz-adv-x="1198" 
d="M403 -471q-153 0 -258 55t-178 174l158 99l16 -2q47 -78 109.5 -112t155.5 -34q122 0 198.5 73t93.5 206q5 43 29 170q-64 -86 -158.5 -135.5t-191.5 -49.5q-161 0 -256.5 107t-95.5 291q0 156 64 290t175.5 213.5t243.5 79.5q98 0 177.5 -52t123.5 -146l22 159h222
l-127 -913q-31 -229 -163.5 -351t-359.5 -122zM455 168q134 0 227.5 101.5t93.5 248.5q0 108 -62 175t-163 67q-129 0 -214 -105.5t-85 -265.5q0 -104 54 -162.5t149 -58.5z" />
    <glyph glyph-name="uni0435" unicode="&#x435;" horiz-adv-x="1107" 
d="M956 420h-702q-2 -14 -2 -45q-3 -110 57 -173t160 -63q143 0 258 146l16 2l164 -84q-81 -120 -198 -181t-258 -61q-194 0 -310 113t-116 303q0 244 155.5 410.5t382.5 166.5q191 0 300.5 -108t109.5 -297q0 -66 -17 -129zM559 782q-96 0 -168 -60t-108 -165l469 -4
q9 106 -43 167.5t-150 61.5z" />
    <glyph glyph-name="uni0436" unicode="&#x436;" horiz-adv-x="1558" 
d="M152 0h-263l463 563l-301 352h271l137 -176q22 -27 80 -97t90 -110q39 356 67 539l60 430h223l-59 -430q-58 -377 -86 -536q119 116 215 204l186 176h283l-400 -352l303 -563h-250l-217 426l-145 -125l-41 -301h-223l41 301l-101 117z" />
    <glyph glyph-name="uni0437" unicode="&#x437;" horiz-adv-x="999" 
d="M299 -471q-294 0 -412 231l168 105l17 -4q48 -82 102 -117t137 -35q116 0 189 73.5t73 190.5q0 189 -223 189h-188l24 176h185q108 0 185 73t77 193q0 77 -42 122.5t-122 45.5q-83 0 -157 -43t-122 -117l-20 -2l-123 92q74 117 200.5 184.5t274.5 67.5q156 0 245 -80
t89 -210q0 -141 -88 -250t-209 -142v-4q123 -26 180.5 -101t57.5 -181q0 -197 -142.5 -327t-355.5 -130z" />
    <glyph glyph-name="uni0438" unicode="&#x438;" horiz-adv-x="1142" 
d="M342 -39q-151 0 -222 100t-44 285l80 569h225l-76 -522q-35 -235 131 -235q99 0 178 86.5t99 222.5l63 448h223l-129 -915h-219l21 150q-68 -92 -156 -140.5t-174 -48.5z" />
    <glyph glyph-name="uni0439" unicode="&#x439;" horiz-adv-x="1142" 
d="M586 1100q-146 0 -227 71.5t-74 198.5l18 14h133q6 -67 46 -98t120 -31q157 0 201 129h133l16 -14q-28 -127 -124.5 -198.5t-241.5 -71.5zM342 -39q-151 0 -222 100t-44 285l80 569h225l-76 -522q-35 -235 131 -235q99 0 178 86.5t99 222.5l63 448h223l-129 -915h-219
l21 150q-68 -92 -156 -140.5t-174 -48.5z" />
    <glyph glyph-name="uni043A" unicode="&#x43a;" horiz-adv-x="1062" 
d="M938 0h-264l-246 420l-137 -119l-41 -301h-223l211 1501h223l-64 -461q-5 -38 -75 -487l403 362h295l-424 -356z" />
    <glyph glyph-name="uni043B" unicode="&#x43b;" horiz-adv-x="917" 
d="M102 0h-243l553 942h114l287 -942h-235l-152 610h-4z" />
    <glyph glyph-name="uni043C" unicode="&#x43c;" horiz-adv-x="1269" 
d="M1126 915l-129 -915h-221l82 582l-315 -469h-25l-188 475l-82 -588h-221l127 915h231l184 -489h4l318 489h235z" />
    <glyph glyph-name="uni043D" unicode="&#x43d;" horiz-adv-x="1142" 
d="M723 551l51 364h223l-127 -915h-223l53 377h-397l-53 -377h-223l127 915h223l-51 -364h397z" />
    <glyph glyph-name="uni043E" unicode="&#x43e;" horiz-adv-x="1169" 
d="M473 -39q-198 0 -322 120.5t-124 311.5q0 152 75 280.5t206.5 204.5t287.5 76q196 0 320 -119.5t124 -308.5q0 -113 -45.5 -217.5t-122 -180.5t-181 -121.5t-218.5 -45.5zM483 158q133 0 231.5 105.5t98.5 248.5q0 109 -63 177.5t-164 68.5q-139 0 -236.5 -104
t-97.5 -248q0 -109 64.5 -178.5t166.5 -69.5z" />
    <glyph glyph-name="uni043F" unicode="&#x43f;" horiz-adv-x="1167" 
d="M27 0l127 915h221l-23 -155q71 95 161.5 144.5t188.5 49.5q154 0 226.5 -98t46.5 -281l-80 -575h-223l71 508q20 136 -16.5 193t-126.5 57q-108 0 -189.5 -87.5t-101.5 -236.5l-59 -434h-223z" />
    <glyph glyph-name="uni0440" unicode="&#x440;" horiz-adv-x="1179" 
d="M186 -446h-223l191 1361h221l-23 -153q70 93 163 142.5t192 49.5q158 0 252 -107.5t94 -291.5q0 -162 -65.5 -299t-178 -216t-244.5 -79q-95 0 -176.5 50t-120.5 134q-12 -99 -41 -297zM520 156q131 0 218 108t87 271q0 107 -53 166t-149 59q-133 0 -227.5 -107
t-94.5 -260q0 -108 60 -172.5t159 -64.5z" />
    <glyph glyph-name="uni0441" unicode="&#x441;" horiz-adv-x="1071" 
d="M444 -39q-193 0 -305 113t-112 303q0 157 70 289t194.5 210t275.5 78q140 0 244.5 -64.5t159.5 -189.5l-180 -96l-17 6q-39 82 -91.5 118t-125.5 36q-130 0 -217.5 -109.5t-87.5 -261.5q0 -112 59 -176.5t154 -64.5q78 0 143.5 38t128.5 121l17 2l153 -102
q-88 -124 -207.5 -187t-255.5 -63z" />
    <glyph glyph-name="uni0442" unicode="&#x442;" horiz-adv-x="1753" 
d="M1294 954q147 0 221 -97t50 -269l-84 -588h-224l74 512q35 246 -133 246q-97 0 -174.5 -90.5t-97.5 -229.5l-60 -438h-223l70 512q20 129 -14 187.5t-119 58.5q-96 0 -173.5 -90.5t-97.5 -229.5l-59 -438h-223l127 915h221l-23 -153q139 192 324 192q113 0 180.5 -58
t81.5 -165q72 112 165.5 167.5t190.5 55.5z" />
    <glyph glyph-name="uni0443" unicode="&#x443;" horiz-adv-x="1011" 
d="M199 -446h-250l330 526l-256 835h253l140 -624h4l334 624h256z" />
    <glyph glyph-name="uni0444" unicode="&#x444;" horiz-adv-x="1361" 
d="M1233 530q0 -157 -70 -283t-197.5 -200.5t-291.5 -83.5l-60 -409h-223l58 409q-200 17 -311 132.5t-111 293.5q0 236 156 393t405 170l78 549h223l-78 -549q201 -18 311.5 -132t110.5 -290zM774 764l-86 -612q150 12 235 112.5t85 257.5q0 105 -57 169t-177 73zM256 397
q0 -107 56 -171.5t175 -73.5l84 612q-151 -12 -233 -111t-82 -256z" />
    <glyph glyph-name="uni0445" unicode="&#x445;" horiz-adv-x="1001" 
d="M166 0h-272l417 475l-276 440h260l104 -190q6 -13 27 -52t29 -59h4q16 20 44.5 56.5t39.5 50.5l166 194h272l-408 -440l289 -475h-264l-117 213l-51 111h-4q-27 -38 -82 -107z" />
    <glyph glyph-name="uni0446" unicode="&#x446;" horiz-adv-x="1187" 
d="M999 915l-104 -737h160l-70 -475h-205l41 297h-170l21 150q-68 -92 -156 -140.5t-174 -48.5q-151 0 -222 100t-44 285l80 569h225l-76 -522q-35 -235 131 -235q99 0 178 86.5t99 222.5l63 448h223z" />
    <glyph glyph-name="uni0447" unicode="&#x447;" horiz-adv-x="1079" 
d="M662 549l49 366h223l-127 -915h-219l53 387q-162 -156 -322 -156q-141 0 -205 98t-38 287l41 299h223l-39 -288q-26 -199 107 -199q130 0 254 121z" />
    <glyph glyph-name="uni0448" unicode="&#x448;" horiz-adv-x="1753" 
d="M340 -39q-145 0 -218.5 97.5t-49.5 271.5l82 585h223l-72 -512q-18 -130 14.5 -187.5t112.5 -57.5q101 0 180 90.5t99 228.5l59 438h223l-69 -512q-20 -131 12.5 -188t114.5 -57q98 0 177 90.5t99 228.5l59 438h224l-129 -915h-219l22 154q-143 -193 -323 -193
q-113 0 -181 58.5t-82 164.5q-72 -112 -166 -167.5t-192 -55.5z" />
    <glyph glyph-name="uni0449" unicode="&#x449;" horiz-adv-x="1800" 
d="M1610 915l-105 -737h160l-68 -475h-206l41 297h-170l22 154q-143 -193 -323 -193q-113 0 -181 58.5t-82 164.5q-72 -112 -166 -167.5t-192 -55.5q-145 0 -218.5 97.5t-49.5 271.5l82 585h223l-72 -512q-18 -130 14.5 -187.5t112.5 -57.5q101 0 180 90.5t99 228.5l59 438
h223l-69 -512q-20 -131 12.5 -188t114.5 -57q98 0 177 90.5t99 228.5l59 438h224z" />
    <glyph glyph-name="uni044A" unicode="&#x44a;" horiz-adv-x="1169" 
d="M745 721q134 0 211.5 -81t77.5 -214q0 -199 -135 -332t-340 -133q-219 0 -305 111.5t-53 341.5l43 323h-219l24 178h438l-49 -350q58 75 138.5 115.5t168.5 40.5zM569 141q105 0 173.5 70t68.5 176q0 72 -43 114t-123 42q-101 0 -172.5 -75.5t-71.5 -168.5q0 -74 43 -116
t125 -42z" />
    <glyph glyph-name="uni044B" unicode="&#x44b;" horiz-adv-x="1576" 
d="M444 -39q-218 0 -304.5 112t-53.5 341l68 501h219l-47 -350q57 75 137 115.5t168 40.5q136 0 212.5 -81t76.5 -214q0 -199 -135.5 -332t-340.5 -133zM1305 0h-224l127 915h224zM457 141q105 0 172 70t67 176q0 72 -43 114t-123 42q-101 0 -172 -75.5t-71 -168.5
q0 -74 43.5 -116t126.5 -42z" />
    <glyph glyph-name="uni044C" unicode="&#x44c;" horiz-adv-x="1054" 
d="M444 -39q-218 0 -304.5 112t-53.5 341l68 501h219l-47 -350q57 75 137 115.5t168 40.5q136 0 212.5 -81t76.5 -214q0 -199 -135.5 -332t-340.5 -133zM457 141q105 0 172 70t67 176q0 72 -43 114t-123 42q-101 0 -172 -75.5t-71 -168.5q0 -74 43.5 -116t126.5 -42z" />
    <glyph glyph-name="uni044D" unicode="&#x44d;" horiz-adv-x="1064" 
d="M537 954q191 0 296 -110t105 -295q0 -121 -37.5 -228.5t-105 -187t-169 -126t-223.5 -46.5q-306 0 -417 248l168 98l14 -4q44 -81 102.5 -117t145.5 -36q112 0 184.5 68.5t101.5 182.5h-374l16 127h373v7q0 111 -55.5 171t-157.5 60q-83 0 -149.5 -33.5t-135.5 -114.5
l-18 -4l-142 101q184 239 478 239z" />
    <glyph glyph-name="uni044E" unicode="&#x44e;" horiz-adv-x="1574" 
d="M1001 954q197 0 321 -119.5t124 -308.5q0 -113 -46 -217.5t-122.5 -180.5t-181.5 -121.5t-219 -45.5q-192 0 -315.5 115.5t-129.5 300.5h-129l-53 -377h-223l211 1501h223l-133 -950h127q52 176 202 289.5t344 113.5zM889 158q133 0 231.5 105.5t98.5 248.5
q0 109 -64.5 178.5t-165.5 69.5q-137 0 -234.5 -105t-97.5 -249q0 -109 64.5 -178.5t167.5 -69.5z" />
    <glyph glyph-name="uni044F" unicode="&#x44f;" horiz-adv-x="1034" 
d="M889 915l-127 -915h-223l43 309h-129l-265 -309h-256l293 328q-79 28 -123.5 88t-44.5 145q0 166 125 260t336 94h371zM414 467h190l37 278h-152q-103 0 -158 -45.5t-55 -124.5q0 -108 138 -108z" />
    <glyph glyph-name="uni0450" unicode="&#x450;" horiz-adv-x="1107" 
d="M567 1487l238 -377h-172l-295 360l8 17h221zM956 420h-702q-2 -14 -2 -45q-3 -110 57 -173t160 -63q143 0 258 146l16 2l164 -84q-81 -120 -198 -181t-258 -61q-194 0 -310 113t-116 303q0 244 155.5 410.5t382.5 166.5q191 0 300.5 -108t109.5 -297q0 -66 -17 -129z
M559 782q-96 0 -168 -60t-108 -165l469 -4q9 106 -43 167.5t-150 61.5z" />
    <glyph glyph-name="uni0451" unicode="&#x451;" horiz-adv-x="1107" 
d="M444 1112q-56 0 -93.5 37t-37.5 92q0 53 38.5 91t92.5 38q53 0 90 -38t37 -91q0 -56 -36 -92.5t-91 -36.5zM825 1112q-55 0 -92 37t-37 92q0 53 37.5 91t91.5 38q53 0 91 -38t38 -91q0 -55 -37 -92t-92 -37zM956 420h-702q-2 -14 -2 -45q-3 -110 57 -173t160 -63
q143 0 258 146l16 2l164 -84q-81 -120 -198 -181t-258 -61q-194 0 -310 113t-116 303q0 244 155.5 410.5t382.5 166.5q191 0 300.5 -108t109.5 -297q0 -66 -17 -129zM559 782q-96 0 -168 -60t-108 -165l469 -4q9 106 -43 167.5t-150 61.5z" />
    <glyph glyph-name="uni0453" unicode="&#x453;" horiz-adv-x="876" 
d="M512 1110h-182l278 377h228l6 -17zM303 -39q-146 0 -231.5 66.5t-85.5 173.5q0 66 22.5 117.5t70.5 90.5t103.5 67.5t139.5 58.5q128 46 173.5 82t45.5 85q0 37 -28 60.5t-85 23.5q-139 0 -213 -116l-16 -2l-121 88q53 92 157.5 145t237.5 53q136 0 212.5 -63.5
t76.5 -161.5q0 -127 -85.5 -202.5t-254.5 -133.5q-123 -41 -170 -79.5t-47 -90.5q0 -42 34.5 -68t102.5 -26q136 0 236 133l12 2l131 -96q-70 -101 -178 -154t-240 -53z" />
    <glyph glyph-name="uni045C" unicode="&#x45c;" horiz-adv-x="1062" 
d="M778 1565h-178l234 274h221l6 -16zM938 0h-264l-246 420l-137 -119l-41 -301h-223l211 1501h223l-64 -461q-5 -38 -75 -487l403 362h295l-424 -356z" />
    <glyph glyph-name="uni045D" unicode="&#x45d;" horiz-adv-x="1142" 
d="M791 1110h-173l-294 360l8 17h221zM342 -39q-151 0 -222 100t-44 285l80 569h225l-76 -522q-35 -235 131 -235q99 0 178 86.5t99 222.5l63 448h223l-129 -915h-219l21 150q-68 -92 -156 -140.5t-174 -48.5z" />
    <glyph glyph-name="Wgrave" unicode="&#x1e80;" horiz-adv-x="1984" 
d="M1280 1565h-170l-248 258l12 16h211zM532 -23h-178l-243 1473h251l105 -750q1 -6 16.5 -130t22.5 -193h8q2 4 152 325l348 738h112l144 -738q7 -43 26 -152.5t29 -172.5h8q15 40 131 323l314 750h264l-658 -1473h-180l-139 719q-7 37 -25.5 129t-27.5 144h-6
q-24 -49 -66 -140t-61 -131z" />
    <glyph glyph-name="wgrave" unicode="&#x1e81;" horiz-adv-x="1456" 
d="M952 1110h-172l-295 360l9 17h221zM365 -25h-125l-199 940h233l97 -604h4l315 594h90l144 -594h4l272 604h234l-463 -940h-125l-156 586h-4z" />
    <glyph glyph-name="Wacute" unicode="&#x1e82;" horiz-adv-x="1984" 
d="M1036 1565h-178l234 274h221l6 -16zM532 -23h-178l-243 1473h251l105 -750q1 -6 16.5 -130t22.5 -193h8q2 4 152 325l348 738h112l144 -738q7 -43 26 -152.5t29 -172.5h8q15 40 131 323l314 750h264l-658 -1473h-180l-139 719q-7 37 -25.5 129t-27.5 144h-6
q-24 -49 -66 -140t-61 -131z" />
    <glyph glyph-name="wacute" unicode="&#x1e83;" horiz-adv-x="1456" 
d="M725 1110h-182l278 377h228l6 -17zM365 -25h-125l-199 940h233l97 -604h4l315 594h90l144 -594h4l272 604h234l-463 -940h-125l-156 586h-4z" />
    <glyph glyph-name="Wdieresis" unicode="&#x1e84;" horiz-adv-x="1984" 
d="M885 1606q-56 0 -92.5 36t-36.5 93q0 51 38.5 90t90.5 39q53 0 90 -38t37 -91q0 -57 -35.5 -93t-91.5 -36zM1300 1606q-55 0 -92 36.5t-37 92.5q0 52 38 90.5t91 38.5q54 0 92 -38t38 -91q0 -57 -37 -93t-93 -36zM532 -23h-178l-243 1473h251l105 -750q1 -6 16.5 -130
t22.5 -193h8q2 4 152 325l348 738h112l144 -738q7 -43 26 -152.5t29 -172.5h8q15 40 131 323l314 750h264l-658 -1473h-180l-139 719q-7 37 -25.5 129t-27.5 144h-6q-24 -49 -66 -140t-61 -131z" />
    <glyph glyph-name="wdieresis" unicode="&#x1e85;" horiz-adv-x="1456" 
d="M590 1112q-56 0 -93.5 37t-37.5 92q0 53 38.5 91t92.5 38q53 0 90 -38t37 -91q0 -56 -36 -92.5t-91 -36.5zM971 1112q-55 0 -92 37t-37 92q0 53 37.5 91t91.5 38q53 0 91 -38t38 -91q0 -55 -37 -92t-92 -37zM365 -25h-125l-199 940h233l97 -604h4l315 594h90l144 -594h4
l272 604h234l-463 -940h-125l-156 586h-4z" />
    <glyph glyph-name="uni1E9E" unicode="&#x1e9e;" horiz-adv-x="1415" 
d="M1286 1272l-348 -426q170 -11 266 -107.5t96 -257.5q0 -226 -142 -373t-355 -147q-135 0 -229 56.5t-154 181.5l117 147l32 -6q40 -95 92 -135.5t132 -40.5q109 0 183.5 86.5t74.5 218.5q0 197 -273 197h-110l22 153l332 420h-567l-172 -1239h-238l203 1450h1063z" />
    <glyph glyph-name="Ygrave" unicode="&#x1ef2;" horiz-adv-x="1253" 
d="M922 1565h-170l-248 258l12 16h211zM623 0h-238l84 588l-389 862h266l146 -371q18 -48 56 -144.5t56 -146.5h8q142 206 195 289l252 373h278l-630 -862z" />
    <glyph glyph-name="ygrave" unicode="&#x1ef3;" horiz-adv-x="1011" 
d="M721 1110h-172l-295 360l8 17h221zM199 -446h-250l330 526l-256 835h253l140 -624h4l334 624h256z" />
    <glyph glyph-name="uni2000" unicode="&#x2000;" horiz-adv-x="1024" 
 />
    <glyph glyph-name="uni2001" unicode="&#x2001;" horiz-adv-x="2048" 
 />
    <glyph glyph-name="uni2002" unicode="&#x2002;" horiz-adv-x="1024" 
 />
    <glyph glyph-name="uni2003" unicode="&#x2003;" horiz-adv-x="2048" 
 />
    <glyph glyph-name="uni2004" unicode="&#x2004;" horiz-adv-x="681" 
 />
    <glyph glyph-name="uni2005" unicode="&#x2005;" horiz-adv-x="512" 
 />
    <glyph glyph-name="uni2006" unicode="&#x2006;" horiz-adv-x="342" 
 />
    <glyph glyph-name="uni2007" unicode="&#x2007;" horiz-adv-x="1433" 
 />
    <glyph glyph-name="uni2008" unicode="&#x2008;" horiz-adv-x="591" 
 />
    <glyph glyph-name="uni2009" unicode="&#x2009;" horiz-adv-x="409" 
 />
    <glyph glyph-name="uni200A" unicode="&#x200a;" horiz-adv-x="286" 
 />
    <glyph glyph-name="uni200B" unicode="&#x200b;" 
 />
    <glyph glyph-name="uni200C" unicode="&#x200c;" 
d="M-297 1546l223 221l51 -49l-178 -172l178 -168l-51 -51zM201 1546l-178 172l51 49l223 -221l-223 -219l-51 51zM-39 1247h74v-1605h-74v1605z" />
    <glyph glyph-name="uni200D" unicode="&#x200d;" 
d="M-276 1718l51 49l223 -221l-223 -219l-51 51l178 168zM225 1767l51 -49l-178 -172l178 -168l-51 -51l-223 219zM-39 1247h74v-1605h-74v1605z" />
    <glyph glyph-name="endash" unicode="&#x2013;" horiz-adv-x="1024" 
d="M881 373h-901l22 162h901z" />
    <glyph glyph-name="emdash" unicode="&#x2014;" horiz-adv-x="1576" 
d="M1434 373h-1454l22 162h1454z" />
    <glyph glyph-name="quoteleft" unicode="&#x2018;" horiz-adv-x="612" 
d="M72 938l342 551l147 -59l-276 -560l-23 -10z" />
    <glyph glyph-name="quoteright" unicode="&#x2019;" horiz-adv-x="610" 
d="M575 1411l-342 -551l-147 60l276 559l23 10z" />
    <glyph glyph-name="quotesinglbase" unicode="&#x201a;" horiz-adv-x="610" 
d="M391 213l-342 -551l-147 59l276 560l23 10z" />
    <glyph glyph-name="quotedblleft" unicode="&#x201c;" horiz-adv-x="1024" 
d="M94 938l344 551l146 -59l-275 -560l-24 -10zM508 938l342 551l147 -59l-276 -560l-23 -10z" />
    <glyph glyph-name="quotedblright" unicode="&#x201d;" horiz-adv-x="1024" 
d="M575 1411l-342 -551l-147 60l276 559l23 10zM989 1411l-344 -551l-145 60l274 559l25 10z" />
    <glyph glyph-name="quotedblbase" unicode="&#x201e;" horiz-adv-x="1017" 
d="M391 213l-342 -551l-147 59l276 560l23 10zM801 213l-344 -551l-146 59l275 560l22 10z" />
    <glyph glyph-name="dagger" unicode="&#x2020;" horiz-adv-x="1157" 
d="M506 -446h-223l166 1171h-383l26 207h385l72 518h223l-72 -518h383l-28 -207h-383z" />
    <glyph glyph-name="daggerdbl" unicode="&#x2021;" horiz-adv-x="1157" 
d="M506 -442h-223l63 446h-369l29 205h369l82 594h-369l29 205h368l64 442h223l-61 -442h368l-28 -205h-369l-84 -594h371l-29 -205h-371z" />
    <glyph glyph-name="bullet" unicode="&#x2022;" horiz-adv-x="1208" 
d="M217 762q0 129 89.5 219t219.5 90t220 -90t90 -219t-90 -219t-220 -90t-219.5 90t-89.5 219z" />
    <glyph glyph-name="ellipsis" unicode="&#x2026;" horiz-adv-x="1863" 
d="M195 -20q-63 0 -105.5 41.5t-42.5 103.5t42.5 104.5t105.5 42.5q64 0 106.5 -42.5t42.5 -104.5t-42.5 -103.5t-106.5 -41.5zM831 -20q-63 0 -106 42.5t-43 102.5q0 62 43 104.5t106 42.5t106.5 -42.5t43.5 -104.5q0 -60 -43.5 -102.5t-106.5 -42.5zM1468 -20
q-64 0 -106.5 42t-42.5 103q0 62 43 104.5t106 42.5t106.5 -42.5t43.5 -104.5q0 -60 -43.5 -102.5t-106.5 -42.5z" />
    <glyph glyph-name="uni202F" unicode="&#x202f;" horiz-adv-x="409" 
 />
    <glyph glyph-name="perthousand" unicode="&#x2030;" horiz-adv-x="2775" 
d="M494 745q-141 0 -233.5 89t-92.5 225q0 170 125 295t295 125q142 0 234.5 -88.5t92.5 -225.5q0 -170 -125.5 -295t-295.5 -125zM504 0h-197l1073 1450h199zM512 909q94 0 161.5 69.5t67.5 164.5q0 75 -48.5 123.5t-123.5 48.5q-94 0 -160.5 -68.5t-66.5 -165.5
q0 -76 47.5 -124t122.5 -48zM1298 -29q-142 0 -234.5 88.5t-92.5 225.5q0 170 125 295t295 125q141 0 234 -89.5t93 -224.5q0 -169 -125 -294.5t-295 -125.5zM2152 -29q-142 0 -234.5 88.5t-92.5 225.5q0 170 125 295t297 125q141 0 233 -89.5t92 -224.5q0 -169 -125 -294.5
t-295 -125.5zM1317 135q94 0 161.5 69.5t67.5 164.5q0 76 -48.5 124t-123.5 48q-95 0 -162 -69t-67 -165q0 -75 48 -123.5t124 -48.5zM2171 135q94 0 161.5 69.5t67.5 164.5q0 76 -48.5 124t-123.5 48q-95 0 -162 -69t-67 -165q0 -75 48 -123.5t124 -48.5z" />
    <glyph glyph-name="minute" unicode="&#x2032;" horiz-adv-x="468" 
d="M301 1057h-160l64 489h211z" />
    <glyph glyph-name="second" unicode="&#x2033;" horiz-adv-x="800" 
d="M301 1057h-160l64 489h211zM631 1057h-158l62 489h210z" />
    <glyph glyph-name="guilsinglleft" unicode="&#x2039;" horiz-adv-x="632" 
d="M395 141l-131 -84l-227 412l342 412l108 -84v-15l-251 -313l165 -313z" />
    <glyph glyph-name="guilsinglright" unicode="&#x203a;" horiz-adv-x="638" 
d="M473 469l-342 -412l-108 84l-3 15l252 313l-163 313l6 15l131 84z" />
    <glyph glyph-name="fraction" unicode="&#x2044;" horiz-adv-x="348" 
d="M578 1526h217l-1043 -1600h-219z" />
    <glyph glyph-name="uni2070" unicode="&#x2070;" horiz-adv-x="792" 
d="M408 903q-132 0 -205.5 89.5t-73.5 250.5q0 157 49 285t139.5 203t204.5 75q133 0 207 -89t74 -249q0 -157 -49 -285.5t-140 -204t-206 -75.5zM420 1063q58 0 105.5 58t72.5 149.5t25 193.5q0 89 -29.5 136t-83.5 47q-58 0 -105 -57.5t-71.5 -148t-24.5 -192.5
q0 -186 111 -186z" />
    <glyph glyph-name="uni2074" unicode="&#x2074;" horiz-adv-x="792" 
d="M639 942h-172l25 166h-418l16 104l504 588h166l-74 -543h96l-20 -149h-98zM489 1477l-190 -220h217l16 136q12 102 41 200l-2 -2q-44 -73 -82 -114z" />
    <glyph glyph-name="uni2075" unicode="&#x2075;" horiz-adv-x="792" 
d="M408 903q-141 0 -216 63t-73 179l157 29l21 -9q0 -112 119 -112q70 0 117 52t47 130q0 57 -36 88t-102 31q-114 0 -215 -64l-34 13l96 477h481l-20 -148h-330l-37 -172q62 23 137 23q108 0 173 -62.5t65 -165.5q0 -152 -99.5 -252t-250.5 -100z" />
    <glyph glyph-name="uni2076" unicode="&#x2076;" horiz-adv-x="792" 
d="M395 903q-130 0 -205 68.5t-75 187.5q0 96 52.5 190.5t186.5 241.5l213 234l119 -76l6 -20l-125 -136q-67 -73 -159 -145l-2 -2q79 35 135 35q98 0 156.5 -61t58.5 -165q0 -153 -102.5 -252.5t-258.5 -99.5zM414 1057q69 0 115 52t46 128q0 54 -30 84.5t-84 30.5
q-72 0 -119 -50t-47 -126q0 -56 31.5 -87.5t87.5 -31.5z" />
    <glyph glyph-name="uni2077" unicode="&#x2077;" horiz-adv-x="792" 
d="M170 956l412 670h-367l21 154h624l-4 -25l-520 -844l-35 -8z" />
    <glyph glyph-name="uni2078" unicode="&#x2078;" horiz-adv-x="792" 
d="M406 903q-135 0 -209 57t-74 156q0 94 55 164t148 98q-113 46 -113 162q0 117 86.5 191.5t226.5 74.5q119 0 186.5 -52.5t67.5 -139.5q0 -79 -45 -142t-123 -92q69 -22 105.5 -69t36.5 -113q0 -134 -98.5 -214.5t-249.5 -80.5zM481 1446q56 0 89.5 36t33.5 97
q0 43 -26.5 68.5t-71.5 25.5q-56 0 -89.5 -38t-33.5 -95q0 -45 25.5 -69.5t72.5 -24.5zM426 1040q67 0 109.5 43.5t42.5 114.5q0 56 -32.5 87.5t-88.5 31.5q-67 0 -109.5 -45.5t-42.5 -118.5q0 -54 32 -83.5t89 -29.5z" />
    <glyph glyph-name="uni2079" unicode="&#x2079;" horiz-adv-x="792" 
d="M573 1118l-215 -233l-120 78l-5 20l123 135q90 97 162 146l-2 2q-67 -37 -131 -37q-99 0 -157 60.5t-58 164.5q0 155 102 253.5t265 98.5q129 0 202.5 -67t73.5 -185q0 -98 -52.5 -193t-187.5 -243zM469 1360q70 0 115 49.5t45 124.5q0 56 -30.5 87.5t-84.5 31.5
q-71 0 -118.5 -51t-47.5 -127q0 -55 32 -85t89 -30z" />
    <glyph glyph-name="uni2080" unicode="&#x2080;" horiz-adv-x="792" 
d="M236 -326q-132 0 -205.5 89.5t-73.5 250.5q0 157 49 285.5t139.5 203.5t204.5 75q133 0 207 -89t74 -249q0 -157 -49 -285.5t-140 -204.5t-206 -76zM248 -166q58 0 105.5 58.5t72.5 150t25 193.5q0 89 -29.5 135.5t-83.5 46.5q-58 0 -105 -57.5t-71.5 -148t-24.5 -192.5
q0 -186 111 -186z" />
    <glyph glyph-name="uni2081" unicode="&#x2081;" horiz-adv-x="792" 
d="M348 -287h-174l74 529q6 60 28 127h-2q-68 -42 -84 -50l-100 -53l-16 6l37 174l307 140h53z" />
    <glyph glyph-name="uni2082" unicode="&#x2082;" horiz-adv-x="792" 
d="M508 -287h-608l4 25l293 280q124 116 175.5 184.5t51.5 129.5q0 41 -25.5 64.5t-68.5 23.5q-116 0 -162 -131l-23 -10l-149 24q91 275 362 275q112 0 180 -59.5t68 -156.5q0 -186 -235 -389l-62 -53q-22 -20 -82 -63l-4 -2q85 10 137 10h168z" />
    <glyph glyph-name="uni2083" unicode="&#x2083;" horiz-adv-x="792" 
d="M238 -326q-145 0 -219.5 67.5t-71.5 195.5l155 22l21 -12q-1 -58 31 -91.5t88 -33.5q64 0 105.5 44.5t41.5 113.5q0 100 -127 100h-33l17 119h22q75 0 118.5 38.5t43.5 104.5q0 41 -25.5 63.5t-68.5 22.5q-109 0 -148 -111l-22 -8l-143 29q38 115 127.5 177.5t214.5 62.5
q112 0 178.5 -55.5t66.5 -147.5q0 -82 -48.5 -144.5t-129.5 -89.5q63 -12 98 -59.5t35 -118.5q0 -122 -94 -205.5t-233 -83.5z" />
    <glyph glyph-name="uni2084" unicode="&#x2084;" horiz-adv-x="792" 
d="M467 -287h-172l24 166h-417l16 105l504 587h166l-74 -542h96l-20 -150h-98zM317 248l-190 -219h217l16 135q13 103 41 201l-2 -3q-44 -73 -82 -114z" />
    <glyph glyph-name="uni2085" unicode="&#x2085;" horiz-adv-x="792" 
d="M236 -326q-141 0 -216 63t-73 179l157 29l21 -8q0 -113 119 -113q70 0 117 52t47 130q0 57 -36 88t-102 31q-114 0 -215 -64l-35 13l97 477h481l-20 -148h-330l-37 -172q62 23 137 23q109 0 173.5 -62t64.5 -165q0 -152 -99.5 -252.5t-250.5 -100.5z" />
    <glyph glyph-name="uni2086" unicode="&#x2086;" horiz-adv-x="792" 
d="M223 -326q-130 0 -205 68.5t-75 187.5q0 96 52.5 190.5t186.5 241.5l213 234l119 -76l6 -20l-125 -135q-71 -77 -159 -146l-3 -2q79 35 136 35q99 0 157 -60.5t58 -164.5q0 -153 -102.5 -253t-258.5 -100zM242 -172q69 0 115 52.5t46 127.5q0 54 -30 84.5t-84 30.5
q-72 0 -119 -50t-47 -126q0 -55 31.5 -87t87.5 -32z" />
    <glyph glyph-name="uni2087" unicode="&#x2087;" horiz-adv-x="792" 
d="M-2 -272l412 669h-367l20 154h625l-4 -25l-520 -843l-35 -9z" />
    <glyph glyph-name="uni2088" unicode="&#x2088;" horiz-adv-x="792" 
d="M233 -326q-135 0 -208.5 57t-73.5 156q0 94 55 164.5t148 98.5q-113 46 -113 161q0 117 86.5 192t226.5 75q118 0 186 -53t68 -140q0 -79 -45 -141.5t-123 -91.5q69 -22 105.5 -69.5t36.5 -113.5q0 -134 -99 -214.5t-250 -80.5zM309 217q56 0 89.5 36t33.5 97
q0 43 -26.5 68.5t-71.5 25.5q-56 0 -89.5 -38t-33.5 -95q0 -45 25.5 -69.5t72.5 -24.5zM254 -188q67 0 109.5 43t42.5 114q0 56 -32.5 87.5t-88.5 31.5q-67 0 -109.5 -45.5t-42.5 -118.5q0 -54 32 -83t89 -29z" />
    <glyph glyph-name="uni2089" unicode="&#x2089;" horiz-adv-x="792" 
d="M401 -111l-215 -233l-120 78l-5 20l123 135q90 97 162 146l-2 2q-67 -37 -131 -37q-99 0 -157 60.5t-58 164.5q0 156 102.5 254.5t264.5 98.5q129 0 202.5 -67t73.5 -185q0 -98 -52.5 -193.5t-187.5 -243.5zM297 131q70 0 115 49.5t45 124.5q0 56 -30.5 87.5t-84.5 31.5
q-71 0 -118.5 -51t-47.5 -127q0 -55 32 -85t89 -30z" />
    <glyph glyph-name="lira" unicode="&#x20a4;" horiz-adv-x="1433" 
d="M963 1282q-104 0 -170 -78t-88 -229l-15 -103h311l-20 -135h-311l-17 -121h312l-19 -135h-311q-22 -166 -105 -266h639l-57 -215h-985l31 215h145q71 86 92 238l4 28h-196l18 135h197l16 121h-194l18 135h195l18 121q34 230 168.5 363t331.5 133q116 0 207 -37t147 -102
l-151 -160l-15 4q-75 88 -196 88z" />
    <glyph glyph-name="Euro" unicode="&#x20ac;" horiz-adv-x="1433" 
d="M1083 340l39 8l152 -117q-204 -270 -553 -270q-224 0 -365 146t-163 399h-168l61 131h107q3 82 18 158h-125l61 131h99q86 250 274.5 406.5t419.5 156.5q172 0 292.5 -68t180.5 -198l-186 -113l-37 8q-48 77 -112 112.5t-160 35.5q-131 0 -240 -93t-170 -247h518
l-57 -131h-502q-15 -75 -21 -158h457l-57 -131h-393q19 -151 101 -236.5t210 -85.5q101 0 175.5 37.5t143.5 118.5z" />
    <glyph glyph-name="uni2113" unicode="&#x2113;" horiz-adv-x="1046" 
d="M719 231h16l47 -165q-148 -105 -303 -105q-162 0 -236.5 96t-49.5 271v6l-64 -45l-70 131l162 112l76 547q28 192 130 301t255 109q126 0 193 -60.5t67 -173.5q0 -184 -129 -378.5t-360 -362.5l-23 -166q-26 -186 117 -186q73 0 172 69zM678 1331q-49 0 -88 -57.5
t-53 -165.5l-56 -391q120 95 193.5 235.5t73.5 274.5q0 104 -70 104z" />
    <glyph glyph-name="uni2116" unicode="&#x2116;" horiz-adv-x="2234" 
d="M1849 891q-125 0 -203.5 71.5t-78.5 186.5q0 139 103.5 237.5t250.5 98.5q126 0 203.5 -71.5t77.5 -188.5q0 -135 -104.5 -234.5t-248.5 -99.5zM1188 -23h-133l-422 691q-131 217 -213 360h-6q-19 -200 -43 -377l-90 -651h-236l203 1450h196l367 -602l215 -371h6
q13 139 43 377l82 596h236zM1866 1069q51 0 89 41.5t38 99.5q0 44 -24 71.5t-64 27.5q-53 0 -91 -43t-38 -103q0 -42 24.5 -68t65.5 -26zM2089 532h-584l21 150h585z" />
    <glyph glyph-name="uni2117" unicode="&#x2117;" horiz-adv-x="1914" 
d="M948 -39q-159 0 -301.5 59.5t-245 161t-162 242.5t-59.5 299q0 159 59.5 301t162 244t245 161.5t301.5 59.5t301.5 -59.5t244 -161.5t161 -244t59.5 -301q0 -158 -59.5 -299t-161 -242.5t-244 -161t-301.5 -59.5zM946 92q173 0 317.5 83.5t227 228.5t82.5 319
q0 131 -48.5 249t-131.5 202.5t-199 134t-246 49.5q-173 0 -317 -84t-226.5 -230t-82.5 -321q0 -174 82 -319t225.5 -228.5t316.5 -83.5zM879 287h-164v850h282q148 0 228 -69.5t80 -203.5q0 -122 -80.5 -194t-220.5 -72h-125v-311zM879 993v-254h98q89 0 127.5 30.5
t38.5 94.5q0 67 -38.5 98t-127.5 31h-98z" />
    <glyph glyph-name="trademark" unicode="&#x2122;" horiz-adv-x="2066" 
d="M584 606h-160v701h-264v143h682v-143h-258v-701zM1161 606h-157v844h221l241 -492h4l240 492h215v-844h-156v662h-4l-292 -582h-21l-287 582h-4v-662z" />
    <glyph glyph-name="uni2126" unicode="&#x2126;" horiz-adv-x="1748" 
d="M1640 854q0 -177 -92 -347.5t-241 -285.5h231l-33 -221h-616l8 70l4 26l8 66h2l7 45q113 0 222.5 90t177.5 232.5t68 287.5q0 203 -124 327t-328 124q-165 0 -303.5 -83t-218.5 -226t-80 -312q0 -183 93.5 -311.5t225.5 -128.5l-6 -45l-22 -162h-617l31 221h235
q-88 85 -137 200t-49 243q0 166 69.5 318.5t186.5 263.5t280 177t341 66q302 0 489.5 -176t187.5 -459z" />
    <glyph glyph-name="estimated" unicode="&#x212e;" horiz-adv-x="1429" 
d="M1280 530h-918v-266q0 -51 50 -102t128.5 -83t155.5 -32q118 0 222.5 49.5t171.5 143.5l16 6l70 -51q-68 -104 -198.5 -163t-283.5 -59q-116 0 -226.5 43t-195.5 118.5t-136.5 187t-51.5 239.5q0 174 78 308t217 206t317 72q131 0 241.5 -43.5t185.5 -118.5t117 -176.5
t42 -216.5q0 -42 -2 -62zM362 604h650v252q-7 82 -98.5 150.5t-227.5 68.5q-138 0 -228.5 -69.5t-95.5 -149.5v-252z" />
    <glyph glyph-name="oneeighth" unicode="&#x215b;" horiz-adv-x="1792" 
d="M1223 1526h219l-1043 -1600h-221zM403 614h-172l72 529q9 60 31 127h-2q-61 -38 -84 -49l-101 -54l-16 7l37 174l307 139h51zM1260 -39q-134 0 -207.5 57t-73.5 156q0 95 54 164.5t147 97.5q-113 47 -113 162q0 116 87.5 191t227.5 75q117 0 185.5 -52.5t68.5 -139.5
q0 -79 -46 -142t-124 -92q69 -22 105.5 -69t36.5 -113q0 -134 -98.5 -214.5t-249.5 -80.5zM1335 504q57 0 91 36t34 97q0 43 -26.5 68.5t-71.5 25.5q-57 0 -91 -38t-34 -95q0 -44 26 -69t72 -25zM1280 98q67 0 110.5 43.5t43.5 114.5q0 57 -33 88t-90 31q-65 0 -107.5 -45.5
t-42.5 -118.5q0 -54 31 -83.5t88 -29.5z" />
    <glyph glyph-name="threeeighths" unicode="&#x215c;" horiz-adv-x="1792" 
d="M1276 1526h219l-1042 -1600h-222zM303 578q-145 0 -219.5 67t-71.5 195l156 22l20 -12q-1 -58 31 -91.5t88 -33.5q65 0 106.5 44.5t41.5 113.5q0 100 -127 100h-33l16 119h23q75 0 118.5 38.5t43.5 104.5q0 41 -26 63.5t-69 22.5q-109 0 -147 -110l-23 -9l-143 29
q38 115 127.5 177.5t214.5 62.5q112 0 179 -55.5t67 -147.5q0 -82 -48.5 -144.5t-129.5 -89.5q63 -12 98 -59.5t35 -118.5q0 -122 -94.5 -205t-233.5 -83zM1309 -39q-135 0 -209 57t-74 156q0 94 55 164t148 98q-113 46 -113 162t87 191t227 75q118 0 185.5 -52.5
t67.5 -139.5q0 -80 -44.5 -142.5t-122.5 -91.5q69 -22 105 -69t36 -113q0 -134 -98.5 -214.5t-249.5 -80.5zM1384 504q56 0 89.5 36t33.5 97q0 43 -26 68.5t-70 25.5q-57 0 -91 -38t-34 -95q0 -45 25.5 -69.5t72.5 -24.5zM1329 98q67 0 109.5 43.5t42.5 114.5
q0 56 -32.5 87.5t-88.5 31.5q-67 0 -109.5 -45.5t-42.5 -118.5q0 -54 32 -83.5t89 -29.5z" />
    <glyph glyph-name="fiveeighths" unicode="&#x215d;" horiz-adv-x="1792" 
d="M1251 1526h219l-1042 -1600h-221zM293 575q-141 0 -216 63t-73 179l158 29l20 -8q0 -113 119 -113q70 0 117 52t47 130q0 57 -35.5 88t-101.5 31q-115 0 -215 -63l-35 12l96 477h481l-20 -147h-330l-37 -172q59 22 138 22q108 0 172.5 -62t64.5 -165q0 -152 -99.5 -252.5
t-250.5 -100.5zM1303 -39q-135 0 -208 56.5t-73 156.5q0 95 54 164.5t147 97.5q-113 47 -113 162q0 117 86.5 191.5t226.5 74.5q119 0 187.5 -52.5t68.5 -139.5q0 -79 -46 -142t-124 -92q69 -22 105.5 -69t36.5 -113q0 -134 -98.5 -214.5t-249.5 -80.5zM1378 504
q57 0 90 35.5t33 97.5q0 43 -26 68.5t-70 25.5q-57 0 -91 -38t-34 -95q0 -44 26 -69t72 -25zM1323 98q67 0 109.5 43.5t42.5 114.5q0 57 -32 88t-89 31q-66 0 -108 -45.5t-42 -118.5q0 -54 31 -83.5t88 -29.5z" />
    <glyph glyph-name="seveneighths" unicode="&#x215e;" horiz-adv-x="1792" 
d="M1225 1526h219l-1043 -1600h-221zM115 629l411 669h-366l20 154h625l-4 -25l-522 -843l-33 -9zM1257 -39q-134 0 -207 57t-73 156q0 95 54 164.5t147 97.5q-111 47 -111 162q0 117 86.5 191.5t226.5 74.5q117 0 185.5 -52.5t68.5 -139.5q0 -80 -45.5 -142.5t-124.5 -91.5
q69 -22 105.5 -69t36.5 -113q0 -134 -99 -214.5t-250 -80.5zM1333 504q57 0 91 36t34 97q0 43 -26.5 68.5t-71.5 25.5q-57 0 -91 -38t-34 -95q0 -44 26 -69t72 -25zM1278 98q67 0 110.5 43.5t43.5 114.5q0 57 -33 88t-90 31q-65 0 -107.5 -45.5t-42.5 -118.5
q0 -54 31.5 -83.5t87.5 -29.5z" />
    <glyph glyph-name="arrowleft" unicode="&#x2190;" horiz-adv-x="1882" 
d="M915 164l-124 -125l-652 670l652 669l124 -125v-10l-311 -309q-42 -42 -147 -133l2 -4q91 6 203 6h1083v-185h-1083q-96 0 -203 7l-2 -4q74 -64 147 -134l311 -313v-10z" />
    <glyph glyph-name="arrowup" unicode="&#x2191;" horiz-adv-x="1699" 
d="M850 1489l670 -651l-125 -125h-11l-313 311q-65 65 -133 147l-4 -2q6 -92 6 -202v-1084h-184v1084q0 141 6 202l-4 2q-96 -110 -133 -147l-310 -311h-10l-125 125z" />
    <glyph glyph-name="arrowright" unicode="&#x2192;" horiz-adv-x="1882" 
d="M1745 709l-653 -670l-125 125v10l311 313q73 70 147 134l-2 4q-107 -7 -202 -7h-1082v185h1082q111 0 202 -6l2 4q-105 91 -147 133l-311 309v10l125 125z" />
    <glyph glyph-name="arrowdown" unicode="&#x2193;" horiz-adv-x="1699" 
d="M1395 659l125 -122l-670 -654l-670 654l125 122h10l310 -311q37 -37 133 -147l4 2q-6 63 -6 205v1081h184v-1081q0 -111 -6 -205l4 -2q68 82 133 147l313 311h11z" />
    <glyph glyph-name="arrowboth" unicode="&#x2194;" horiz-adv-x="2680" 
d="M1767 1253l123 125l654 -669l-654 -670l-123 125v10l312 313q94 90 147 134l-2 4q-110 -7 -205 -7h-1357q-96 0 -203 7l-2 -4q74 -64 147 -134l311 -313v-10l-124 -125l-652 670l652 669l124 -125v-10l-311 -309q-42 -42 -147 -133l2 -4q91 6 203 6h1357q111 0 205 -6
l2 4q-82 68 -147 133l-312 309v10z" />
    <glyph glyph-name="arrowupdn" unicode="&#x2195;" horiz-adv-x="1699" 
d="M305 1135l-125 125l670 651l670 -651l-125 -125h-11l-313 311q-42 42 -133 147l-4 -2q6 -92 6 -202v-1360q0 -109 -6 -203l4 -2q79 96 133 147l313 314h11l125 -125l-670 -654l-670 654l125 125h10l310 -314q29 -28 133 -147l4 2q-6 63 -6 203v1360q0 141 6 202l-4 2
q-4 -5 -54.5 -62t-78.5 -85l-310 -311h-10z" />
    <glyph glyph-name="uni2196" unicode="&#x2196;" horiz-adv-x="1552" 
d="M377 319h-176l12 934l936 13v-176l-8 -7h-441q-30 0 -198 11v-4q21 -17 45.5 -40.5t55.5 -54.5t46 -45l766 -764l-131 -131l-764 764q-64 64 -139 150l-4 -2q10 -148 10 -199l-2 -440z" />
    <glyph glyph-name="uni2197" unicode="&#x2197;" horiz-adv-x="1552" 
d="M1339 1253l15 -934h-176l-9 9l-2 440q0 91 11 199l-4 2q-37 -43 -140 -150l-766 -764l-129 131l766 764q101 101 146 140v4q-168 -11 -199 -11h-440l-6 7v176z" />
    <glyph glyph-name="uni2198" unicode="&#x2198;" horiz-adv-x="1552" 
d="M1178 1001h176l-15 -933l-933 -13v176l6 7h440q31 0 199 -11v4q-45 39 -146 140l-766 766l129 129l766 -764q103 -108 140 -150l4 2q-11 108 -11 199l2 442z" />
    <glyph glyph-name="uni2199" unicode="&#x2199;" horiz-adv-x="1552" 
d="M213 68l-12 933h176l8 -6l2 -442q0 -51 -10 -199l4 -2q75 86 139 150l764 764l131 -129l-766 -766q-15 -14 -46 -45t-55.5 -54.5t-45.5 -40.5v-4q168 11 198 11h441l8 -7v-176z" />
    <glyph glyph-name="partialdiff" unicode="&#x2202;" horiz-adv-x="1433" 
d="M682 1489q131 0 229.5 -60.5t158.5 -172t89.5 -260.5t28.5 -334q0 -357 -142.5 -529t-392.5 -172q-196 0 -321 130t-125 333q0 129 55.5 237t152 170t212.5 62q208 0 344 -178q-11 296 -87 440.5t-231 144.5q-138 0 -243 -145l-17 -2l-139 94q67 111 181 176.5t247 65.5z
M684 156q133 0 205 93t69 247v20q-48 90 -119 136t-155 46q-111 0 -181.5 -77t-70.5 -201q0 -116 68.5 -190t183.5 -74z" />
    <glyph glyph-name="emptyset" unicode="&#x2205;" horiz-adv-x="1433" 
d="M1176 1217l102 -103l-158 -158q105 -140 105 -323q0 -231 -155 -385t-384 -154q-188 0 -328 103l-163 -164l-103 100l164 164q-109 147 -109 336q0 150 70.5 272.5t194 192t274.5 69.5q193 0 332 -108zM328 633q0 -119 57 -207l508 508q-92 61 -207 61q-154 0 -256 -103
t-102 -259zM1042 633q0 109 -51 194l-504 -503q86 -58 199 -58q154 0 255 104t101 263z" />
    <glyph glyph-name="product" unicode="&#x220f;" horiz-adv-x="1437" 
d="M377 -446h-238v1683h-119v213h1397v-213h-119v-1683h-237v1683h-684v-1683z" />
    <glyph glyph-name="summation" unicode="&#x2211;" horiz-adv-x="1259" 
d="M1214 -446h-1169v190l631 780l-604 738v190h1120v-215h-830l582 -713l-614 -757h884v-213z" />
    <glyph glyph-name="minus" unicode="&#x2212;" horiz-adv-x="1433" 
d="M1237 541h-1098v159h1098v-159z" />
    <glyph glyph-name="uni2215" unicode="&#x2215;" horiz-adv-x="765" 
d="M645 1546h223l-745 -1620h-225z" />
    <glyph glyph-name="uni2219" unicode="&#x2219;" horiz-adv-x="866" 
d="M418 473q-62 0 -105 43.5t-43 104.5q0 62 42.5 104.5t105.5 42.5t106 -42.5t43 -104.5q0 -61 -42.5 -104.5t-106.5 -43.5z" />
    <glyph glyph-name="radical" unicode="&#x221a;" horiz-adv-x="1157" 
d="M666 -23h-158l-313 725h-156v213h328l200 -512h8l297 1047h269z" />
    <glyph glyph-name="infinity" unicode="&#x221e;" horiz-adv-x="1609" 
d="M406 289q-140 0 -229 90t-89 231t87.5 232.5t223.5 91.5q94 0 186.5 -51.5t207.5 -169.5q115 118 206 169.5t185 51.5q138 0 225.5 -91.5t87.5 -232.5t-89.5 -231t-227.5 -90q-91 0 -175 45t-212 166q-130 -121 -214 -166t-173 -45zM408 444q110 0 282 164
q-109 98 -173 135t-118 37q-64 0 -106.5 -49t-42.5 -121q0 -74 43 -120t115 -46zM1178 444q71 0 113 46t42 120q0 73 -41.5 121.5t-105.5 48.5q-55 0 -120 -37t-171 -135q80 -78 154 -121t129 -43z" />
    <glyph glyph-name="integral" unicode="&#x222b;" horiz-adv-x="1433" 
d="M563 94v1016q0 234 64 325t229 91q83 0 156 -25v-184l-19 -8q-58 28 -112 28q-42 0 -65.5 -20.5t-35.5 -75.5t-12 -156v-1015q0 -234 -64 -325t-229 -91q-86 0 -156 24v185l19 8q60 -29 113 -29q62 0 87 52t25 200z" />
    <glyph glyph-name="approxequal" unicode="&#x2248;" horiz-adv-x="1433" 
d="M281 676l-19 -4l-112 78q140 227 317 227q72 0 137.5 -23t105.5 -50t94 -50t107 -23q110 0 197 140l16 2l115 -76q-73 -120 -150.5 -174.5t-166.5 -54.5q-58 0 -110.5 15t-91.5 36t-76 42.5t-80.5 36.5t-88.5 15q-111 0 -194 -137zM281 272l-19 -2l-112 76
q140 229 317 229q59 0 112 -15t92 -36t75.5 -42.5t78.5 -36.5t86 -15q112 0 197 139l16 2l115 -77q-73 -119 -151 -173.5t-166 -54.5q-71 0 -135.5 23t-105 50t-96 50t-110.5 23q-110 0 -194 -140z" />
    <glyph glyph-name="notequal" unicode="&#x2260;" horiz-adv-x="1433" 
d="M1255 899v-160h-419l-105 -235h524v-160h-596l-133 -297h-168l134 297h-351v160h422l105 235h-527v160h598l131 295h168l-131 -295h348z" />
    <glyph glyph-name="lessequal" unicode="&#x2264;" horiz-adv-x="1433" 
d="M174 858l1065 414v-170l-825 -309l825 -312v-170l-1065 414v133zM1239 0h-1065v160h1065v-160z" />
    <glyph glyph-name="greaterequal" unicode="&#x2265;" horiz-adv-x="1433" 
d="M158 1102v170l1065 -414v-133l-1065 -414v170l825 312zM1223 0h-1065v160h1065v-160z" />
    <glyph glyph-name="lozenge" unicode="&#x25ca;" horiz-adv-x="1433" 
d="M743 -39h-163l-355 764l357 764h161l359 -764zM422 725l240 -555l241 555l-241 557z" />
    <glyph glyph-name="fi" unicode="&#xfb01;" horiz-adv-x="1177" 
d="M721 1315l-16 -8q-45 22 -89 22q-63 0 -96.5 -45t-50.5 -160l-29 -209h211l-24 -178h-211l-166 -1183h-223l166 1183h-170l24 178h170l29 207q32 221 113.5 312.5t238.5 91.5q77 0 160 -27zM979 1186q-64 0 -106 39t-42 100q0 58 42.5 97.5t105.5 39.5q62 0 103.5 -39.5
t41.5 -99.5t-41.5 -98.5t-103.5 -38.5zM905 0h-223l127 915h223z" />
    <glyph glyph-name="fl" unicode="&#xfb02;" horiz-adv-x="1187" 
d="M721 1315l-16 -8q-45 22 -89 22q-63 0 -96.5 -45t-50.5 -160l-29 -209h211l-24 -178h-211l-166 -1183h-223l166 1183h-170l24 178h170l29 207q32 221 113.5 312.5t238.5 91.5q77 0 160 -27zM915 0h-223l211 1501h223z" />
    <glyph glyph-name="i.loclTRK" horiz-adv-x="522" 
d="M297 1106q-62 0 -103.5 39.5t-41.5 99.5q0 58 41.5 97.5t103.5 39.5q63 0 104 -39.5t41 -99.5q0 -59 -41 -98t-104 -39zM250 0h-223l127 915h223z" />
    <glyph glyph-name="zero.osf" horiz-adv-x="1054" 
d="M412 -39q-180 0 -281.5 111.5t-101.5 306.5q0 274 146 451.5t370 177.5q180 0 280.5 -110.5t100.5 -305.5q0 -182 -65.5 -326t-182.5 -224.5t-266 -80.5zM424 145q122 0 201.5 128.5t79.5 324.5q0 110 -44 167.5t-129 57.5q-121 0 -200.5 -127t-79.5 -321
q0 -113 43.5 -171.5t128.5 -58.5z" />
    <glyph glyph-name="one.osf" horiz-adv-x="669" 
d="M397 0h-233l72 535q13 81 49 188l-2 -2q-96 -68 -133 -88l-142 -80l-22 8l49 230l432 215h70z" />
    <glyph glyph-name="two.osf" horiz-adv-x="892" 
d="M741 0h-823l2 37l442 360q124 99 175 170.5t51 145.5q0 52 -34.5 82t-94.5 30q-85 0 -149 -50.5t-99 -145.5l-35 -15l-176 31q56 174 181 268.5t302 94.5q154 0 243 -71.5t89 -195.5q0 -107 -56.5 -202.5t-191.5 -202.5l-12 -10q-115 -91 -203 -148l-4 -2q94 12 254 12
h164z" />
    <glyph glyph-name="three.osf" horiz-adv-x="950" 
d="M369 -336q-198 0 -306 105t-104 292l188 27l35 -18q-3 -101 48.5 -160.5t140.5 -59.5q103 0 172 74.5t69 186.5q0 80 -53 122.5t-153 42.5h-35l22 164h23q118 0 189 67t71 177q0 66 -39.5 102.5t-110.5 36.5q-83 0 -147.5 -55t-93.5 -150l-39 -12l-176 35
q54 171 182.5 269t302.5 98q157 0 251.5 -80.5t94.5 -216.5q0 -126 -76 -222.5t-202 -130.5q99 -20 157 -92t58 -174q0 -115 -63.5 -213.5t-171.5 -156.5t-234 -58z" />
    <glyph glyph-name="four.osf" horiz-adv-x="1030" 
d="M729 -326h-233l47 326h-617l13 109l772 880h200l-110 -801h155l-24 -188h-156zM537 528l-291 -340h325l27 197q21 155 76 330h-4q-55 -90 -133 -187z" />
    <glyph glyph-name="five.osf" horiz-adv-x="897" 
d="M322 -336q-188 0 -295 99.5t-105 271.5l205 33l16 -13q-1 -97 49.5 -148.5t145.5 -51.5q110 0 186 90t76 221q0 89 -50 136.5t-144 47.5q-171 0 -324 -102l-49 14l145 707h672l-27 -189h-485l-66 -303q111 43 213 43q155 0 250.5 -94t95.5 -248q0 -141 -67.5 -259.5
t-184.5 -186.5t-257 -68z" />
    <glyph glyph-name="six.osf" horiz-adv-x="1071" 
d="M416 -37q-187 0 -295.5 99.5t-108.5 271.5q0 81 25 160.5t77 163t106.5 153t139.5 166.5l316 360l145 -96l4 -27l-172 -202q-144 -163 -254 -252l2 -4q103 59 207 59q148 0 238 -94t90 -248q0 -221 -147 -365.5t-373 -144.5zM436 154q115 0 197 88t82 211
q0 91 -54.5 143.5t-146.5 52.5q-117 0 -199 -87.5t-82 -211.5q0 -89 55.5 -142.5t147.5 -53.5z" />
    <glyph glyph-name="seven.osf" horiz-adv-x="901" 
d="M31 -272l602 1052h-578l25 189h883l-5 -37l-739 -1260l-47 -10z" />
    <glyph glyph-name="eight.osf" horiz-adv-x="958" 
d="M358 -39q-196 0 -301.5 85.5t-105.5 234.5q0 145 86.5 254.5t232.5 152.5q-180 64 -180 244q0 169 130 284t329 115q170 0 266 -78.5t96 -205.5q0 -122 -69.5 -219t-192.5 -138q110 -33 166.5 -106.5t56.5 -175.5q0 -196 -146 -321.5t-368 -125.5zM477 780
q96 0 152.5 60.5t56.5 158.5q0 73 -44.5 115.5t-119.5 42.5q-96 0 -154.5 -58.5t-58.5 -160.5q0 -74 43 -116t125 -42zM385 141q122 0 192 72.5t70 192.5q0 90 -55 143t-152 53q-114 0 -186 -75.5t-72 -192.5q0 -89 53.5 -141t149.5 -52z" />
    <glyph glyph-name="nine.osf" horiz-adv-x="1075" 
d="M649 -12l-287 -330l-145 96l-2 27l143 174q115 139 263 260l-3 4q-114 -63 -217 -63q-148 0 -237.5 94t-89.5 248q0 224 148 368t376 144q185 0 292 -100.5t107 -272.5q0 -68 -20 -138t-48 -127.5t-79.5 -131t-92 -123.5t-108.5 -129zM496 322q117 0 198.5 87t81.5 212
q0 89 -55 142.5t-146 53.5q-119 0 -199.5 -85.5t-80.5 -209.5q0 -93 54 -146.5t147 -53.5z" />
    <glyph glyph-name="zero.tf" horiz-adv-x="1433" 
d="M606 -39q-216 0 -334 150t-118 421q0 268 82 486.5t231 344.5t336 126q216 0 334 -149t118 -418t-82 -488.5t-231 -346t-336 -126.5zM621 180q110 0 199.5 103t138.5 272.5t49 366.5q0 168 -57 258t-163 90q-110 0 -199.5 -101.5t-138.5 -269.5t-49 -364q0 -171 57 -263
t163 -92z" />
    <glyph glyph-name="one.tf" horiz-adv-x="1433" 
d="M1020 1479l-178 -1270h241l-30 -209h-758l31 209h276l109 780q13 90 39 178l-5 2q-33 -23 -127 -75l-184 -93l-20 9l51 243l489 226h66z" />
    <glyph glyph-name="two.tf" horiz-adv-x="1433" 
d="M1073 0h-979l4 39l439 410q241 218 347.5 371.5t106.5 281.5q0 82 -49 127t-137 45q-229 0 -309 -260l-41 -15l-197 33q66 224 214 340.5t368 116.5q183 0 291 -96t108 -256q0 -166 -107 -348t-319 -367l-125 -113l-131 -106l-6 -2q97 10 215 10h336z" />
    <glyph glyph-name="three.tf" horiz-adv-x="1433" 
d="M612 -39q-230 0 -353 113.5t-118 320.5l209 31l31 -20q0 -111 62.5 -174.5t172.5 -63.5q128 0 209.5 85t81.5 220q0 193 -248 193h-55l25 174h39q145 0 228 73t83 201q0 78 -51 123t-140 45q-100 0 -174.5 -56t-109.5 -159l-39 -12l-193 35q60 189 205.5 294t345.5 105
q184 0 294 -92t110 -246q0 -142 -84 -250.5t-223 -146.5q106 -22 167.5 -102t61.5 -199q0 -207 -155 -349.5t-382 -142.5z" />
    <glyph glyph-name="four.tf" horiz-adv-x="1433" 
d="M985 0h-237l40 299h-718l16 123l911 1048h195l-135 -962h168l-29 -209h-170zM795 946l-385 -438h411l37 270q26 192 70 348l-4 -6q-72 -111 -129 -174z" />
    <glyph glyph-name="five.tf" horiz-adv-x="1433" 
d="M623 -39q-224 0 -345 106.5t-118 297.5l209 34l32 -14q-1 -106 58.5 -161.5t175.5 -55.5q137 0 230 102.5t93 253.5q0 109 -67 170.5t-184 61.5q-194 0 -361 -113l-55 19l162 788h774l-31 -207h-565l-74 -350q121 45 246 45q183 0 291 -105t108 -280q0 -167 -75 -302.5
t-207.5 -212.5t-296.5 -77z" />
    <glyph glyph-name="six.tf" horiz-adv-x="1433" 
d="M825 922q169 0 269 -103t100 -278q0 -166 -75 -298.5t-208.5 -207t-300.5 -74.5q-209 0 -328.5 112.5t-119.5 307.5q0 158 84 313t305 404l371 418l168 -107l2 -31l-224 -252q-121 -134 -270 -264q111 60 227 60zM633 172q134 0 225.5 99t91.5 245q0 103 -60.5 162
t-164.5 59q-138 0 -228.5 -96.5t-90.5 -245.5q0 -104 61 -163.5t166 -59.5z" />
    <glyph glyph-name="seven.tf" horiz-adv-x="1433" 
d="M264 37l742 1198h-658l31 215h1001l-4 -39l-891 -1440l-47 -10z" />
    <glyph glyph-name="eight.tf" horiz-adv-x="1433" 
d="M612 -39q-217 0 -336.5 94t-119.5 260q0 162 95 285t255 170q-95 35 -145 104.5t-50 167.5q0 195 141 321t367 126q188 0 298 -87t110 -231q0 -138 -78 -245.5t-211 -153.5q118 -37 180 -117t62 -194q0 -226 -159 -363t-409 -137zM741 872q112 0 178 68t66 182
q0 86 -51.5 133.5t-142.5 47.5q-113 0 -179.5 -69t-66.5 -181q0 -86 51.5 -133.5t144.5 -47.5zM643 154q134 0 214.5 82.5t80.5 220.5q0 103 -63 161t-173 58q-132 0 -214 -85t-82 -220q0 -103 62.5 -160t174.5 -57z" />
    <glyph glyph-name="nine.tf" horiz-adv-x="1433" 
d="M874 352l-372 -418l-166 107l-6 31l223 252q143 159 278 268l-4 4q-123 -68 -227 -68q-169 0 -269 104t-100 277q0 257 164.5 418.5t425.5 161.5q209 0 327 -110t118 -302q0 -162 -84.5 -319t-307.5 -406zM707 713q135 0 223 97t88 247q0 103 -59.5 162t-163.5 59
q-136 0 -228 -97t-92 -243q0 -107 61 -166t171 -59z" />
    <glyph glyph-name="zero.dnom" horiz-adv-x="792" 
d="M276 -39q-132 0 -205 89.5t-73 250.5q0 157 49 285t139.5 203t204.5 75q133 0 207 -89t74 -249q0 -157 -49 -285.5t-140.5 -204t-206.5 -75.5zM289 121q58 0 105.5 58t72.5 149.5t25 193.5q0 89 -29.5 136t-83.5 47q-58 0 -105 -57.5t-71.5 -148t-24.5 -192.5
q0 -186 111 -186z" />
    <glyph glyph-name="one.dnom" horiz-adv-x="792" 
d="M389 0h-174l74 528q6 60 28 127h-2q-61 -38 -84 -49l-100 -53l-16 6l37 174l307 139h53z" />
    <glyph glyph-name="two.dnom" horiz-adv-x="792" 
d="M549 0h-608l4 25l293 280q125 116 176 184.5t51 128.5q0 41 -25.5 65t-68.5 24q-115 0 -162 -132l-23 -10l-149 25q91 274 362 274q112 0 180 -59t68 -156q0 -186 -235 -389l-62 -53q-26 -24 -82 -64l-4 -2q94 11 137 11h168z" />
    <glyph glyph-name="three.dnom" horiz-adv-x="792" 
d="M279 -39q-145 0 -219.5 67t-71.5 195l155 23l21 -13q-1 -58 31 -91t88 -33q65 0 106 44t41 113q0 101 -127 101h-33l17 118h22q75 0 118.5 39t43.5 105q0 41 -25.5 63.5t-68.5 22.5q-109 0 -148 -111l-22 -8l-144 29q38 115 128 177t215 62q112 0 178.5 -55t66.5 -147
q0 -82 -48.5 -144.5t-129.5 -89.5q63 -12 98 -59.5t35 -118.5q0 -122 -94 -205.5t-233 -83.5z" />
    <glyph glyph-name="four.dnom" horiz-adv-x="792" 
d="M508 0h-172l24 166h-417l16 104l504 588h166l-74 -543h96l-20 -149h-99zM358 535l-190 -220h217l16 136q12 102 41 200l-2 -2q-44 -73 -82 -114z" />
    <glyph glyph-name="five.dnom" horiz-adv-x="792" 
d="M276 -39q-140 0 -215 63t-73 179l157 28l21 -8q0 -112 119 -112q70 0 117 52t47 130q0 57 -36 88t-102 31q-114 0 -215 -64l-35 12l97 478h481l-21 -148h-329l-37 -172q62 23 137 23q108 0 173 -62.5t65 -165.5q0 -152 -100 -252t-251 -100z" />
    <glyph glyph-name="six.dnom" horiz-adv-x="792" 
d="M264 -39q-130 0 -205 68.5t-75 187.5q0 96 52.5 190.5t186.5 241.5l213 234l119 -76l6 -21l-125 -135q-65 -71 -160 -145l-2 -2q79 35 136 35q98 0 156.5 -61t58.5 -165q0 -153 -102.5 -252.5t-258.5 -99.5zM283 115q69 0 115 52.5t46 127.5q0 54 -30 84.5t-84 30.5
q-72 0 -119 -50t-47 -127q0 -55 31.5 -86.5t87.5 -31.5z" />
    <glyph glyph-name="seven.dnom" horiz-adv-x="792" 
d="M39 14l412 670h-367l20 154h625l-4 -25l-520 -844l-35 -8z" />
    <glyph glyph-name="eight.dnom" horiz-adv-x="792" 
d="M274 -39q-135 0 -208.5 57t-73.5 156q0 94 55 164t148 98q-113 46 -113 162q0 117 86.5 191.5t226.5 74.5q119 0 186.5 -52.5t67.5 -139.5q0 -79 -45 -142t-123 -92q69 -22 105.5 -69t36.5 -113q0 -134 -99 -214.5t-250 -80.5zM350 504q56 0 89.5 36t33.5 97
q0 43 -26.5 68.5t-71.5 25.5q-56 0 -89.5 -38t-33.5 -95q0 -45 25.5 -69.5t72.5 -24.5zM295 98q67 0 109 43.5t42 114.5q0 57 -32 88t-88 31q-67 0 -109.5 -45.5t-42.5 -118.5q0 -54 32 -83.5t89 -29.5z" />
    <glyph glyph-name="nine.dnom" horiz-adv-x="792" 
d="M442 176l-215 -233l-121 77l-4 21l123 135q90 97 162 146l-2 2q-67 -37 -131 -37q-99 0 -157 60.5t-58 164.5q0 155 102 253.5t265 98.5q129 0 202.5 -67t73.5 -185q0 -98 -52.5 -193t-187.5 -243zM338 418q70 0 115 49.5t45 124.5q0 56 -30.5 87.5t-84.5 31.5
q-71 0 -118.5 -51.5t-47.5 -127.5q0 -55 32 -84.5t89 -29.5z" />
    <glyph glyph-name="zero.numr" horiz-adv-x="792" 
d="M362 575q-132 0 -205 89.5t-73 250.5q0 157 49 285.5t139.5 203.5t204.5 75q133 0 207 -89t74 -249q0 -157 -49 -286t-140.5 -204.5t-206.5 -75.5zM375 735q58 0 105.5 58.5t72.5 150t25 193.5q0 89 -29.5 135.5t-83.5 46.5q-58 0 -105 -57t-71.5 -147.5t-24.5 -192.5
q0 -187 111 -187z" />
    <glyph glyph-name="one.numr" horiz-adv-x="792" 
d="M475 614h-174l74 529q6 60 28 127h-2q-61 -38 -84 -49l-100 -54l-16 7l37 174l307 139h53z" />
    <glyph glyph-name="two.numr" horiz-adv-x="792" 
d="M635 614h-608l4 25l293 281q125 116 176 184.5t51 128.5q0 41 -25.5 64.5t-68.5 23.5q-116 0 -162 -131l-23 -10l-149 24q91 275 362 275q112 0 180 -59t68 -156q0 -187 -235 -390l-62 -53q-22 -20 -82 -63l-4 -2q85 10 137 10h168z" />
    <glyph glyph-name="three.numr" horiz-adv-x="792" 
d="M365 575q-145 0 -219.5 67.5t-71.5 195.5l155 22l21 -12q-1 -58 31 -91.5t88 -33.5q64 0 105.5 44.5t41.5 113.5q0 100 -127 100h-33l17 119h22q75 0 118.5 38.5t43.5 104.5q0 41 -25.5 63.5t-68.5 22.5q-110 0 -148 -110l-22 -9l-143 29q38 115 127.5 177.5t214.5 62.5
q112 0 178.5 -55.5t66.5 -147.5q0 -82 -48.5 -144.5t-129.5 -89.5q63 -12 98 -59.5t35 -118.5q0 -122 -94 -205.5t-233 -83.5z" />
    <glyph glyph-name="four.numr" horiz-adv-x="792" 
d="M594 614h-172l24 166h-417l16 105l504 588h166l-74 -543h96l-20 -150h-99zM444 1149l-190 -219h217l16 135q13 103 41 201l-2 -2q-45 -76 -82 -115z" />
    <glyph glyph-name="five.numr" horiz-adv-x="792" 
d="M362 575q-141 0 -215.5 63t-72.5 179l157 29l21 -8q0 -113 119 -113q70 0 117 52t47 130q0 57 -36 88t-102 31q-115 0 -215 -63l-35 12l97 477h481l-20 -147h-330l-37 -172q59 22 137 22q109 0 173.5 -62t64.5 -165q0 -152 -100 -252.5t-251 -100.5z" />
    <glyph glyph-name="six.numr" horiz-adv-x="792" 
d="M350 575q-130 0 -205 68.5t-75 187.5q0 96 52.5 191t186.5 242l213 233l119 -76l6 -20l-125 -135q-68 -74 -160 -146l-2 -2q79 35 136 35q99 0 157 -60.5t58 -164.5q0 -153 -102.5 -253t-258.5 -100zM369 729q69 0 115 52.5t46 127.5q0 54 -30 84.5t-84 30.5
q-72 0 -119 -50t-47 -126q0 -56 32 -87.5t87 -31.5z" />
    <glyph glyph-name="seven.numr" horiz-adv-x="792" 
d="M125 629l412 669h-367l20 154h625l-4 -25l-520 -843l-35 -9z" />
    <glyph glyph-name="eight.numr" horiz-adv-x="792" 
d="M360 575q-135 0 -208.5 57t-73.5 156q0 94 55 164.5t148 98.5q-113 46 -113 161q0 117 86.5 192t226.5 75q118 0 186 -53t68 -140q0 -79 -45 -141.5t-123 -91.5q69 -22 105.5 -69.5t36.5 -113.5q0 -134 -99 -214.5t-250 -80.5zM436 1118q56 0 89.5 36t33.5 97
q0 43 -26.5 69t-71.5 26q-56 0 -89.5 -38.5t-33.5 -95.5q0 -45 25.5 -69.5t72.5 -24.5zM381 713q67 0 109 43t42 114q0 57 -32 88t-88 31q-67 0 -109.5 -45.5t-42.5 -118.5q0 -54 32 -83t89 -29z" />
    <glyph glyph-name="nine.numr" horiz-adv-x="792" 
d="M528 791l-215 -234l-120 78l-5 20l123 136q88 94 162 145l-2 2q-67 -37 -131 -37q-99 0 -157 60.5t-58 164.5q0 156 102.5 254.5t264.5 98.5q129 0 202.5 -67t73.5 -185q0 -98 -52.5 -193t-187.5 -243zM424 1032q70 0 115 49.5t45 124.5q0 56 -30.5 87.5t-84.5 31.5
q-71 0 -118.5 -51t-47.5 -127q0 -55 32 -85t89 -30z" />
    <glyph glyph-name="exclamdown.case" horiz-adv-x="679" 
d="M416 1470q63 0 105 -41.5t42 -103.5t-42 -104.5t-105 -42.5q-64 0 -107 42.5t-43 104.5t43 103.5t107 41.5zM266 1022h215l-133 -1022h-237z" />
    <glyph glyph-name="questiondown.case" horiz-adv-x="1101" 
d="M657 1470q64 0 107 -41.5t43 -103.5t-43.5 -104.5t-106.5 -42.5t-106 42.5t-43 104.5q0 61 43 103t106 42zM518 1022h215l-12 -96q-10 -98 -61 -176t-154 -158q-104 -72 -150.5 -135t-46.5 -148q0 -69 46 -111t126 -42q96 0 162 53t96 151l37 11l182 -35
q-56 -177 -187 -276t-314 -99q-174 0 -277.5 88t-103.5 232q0 133 64.5 234.5t193.5 193.5q92 62 126 107t44 122z" />
    <glyph glyph-name="periodcentered.case" horiz-adv-x="593" 
d="M270 588q-63 0 -106 42.5t-43 102.5q0 62 43 105t106 43t106.5 -43t43.5 -105q0 -60 -43.5 -102.5t-106.5 -42.5z" />
    <glyph glyph-name="parenleft.case" horiz-adv-x="657" 
d="M444 -111l-170 -84q-95 155 -143 355t-41 411q9 290 126 580.5t314 515.5l152 -96q-183 -215 -286 -473.5t-111 -519.5q-15 -387 159 -689z" />
    <glyph glyph-name="parenright.case" horiz-adv-x="657" 
d="M272 1585l168 84q96 -156 144 -356t41 -410q-7 -289 -124.5 -580t-316.5 -516l-151 97q184 215 287.5 473.5t111.5 519.5q12 385 -160 688z" />
    <glyph glyph-name="braceleft.case" horiz-adv-x="698" 
d="M27 653l20 160h12q72 0 120 56t63 157l49 354q19 130 94.5 201.5t194.5 71.5h147l-22 -160h-91q-58 0 -93 -42.5t-46 -121.5l-47 -332q-17 -116 -75.5 -183.5t-145.5 -78.5v-4q77 -9 119 -81.5t28 -188.5l-47 -330q-24 -158 88 -158h97l-23 -159h-141q-120 0 -178 75
t-39 203l49 357q28 204 -117 204h-16z" />
    <glyph glyph-name="braceright.case" horiz-adv-x="698" 
d="M725 813l-23 -160h-12q-71 0 -119 -56t-61 -157l-51 -354q-19 -130 -93.5 -201t-195.5 -71h-147l22 159h90q116 0 141 164l46 332q17 116 75.5 183.5t145.5 78.5v4q-77 9 -120 82t-26 189l45 329q24 158 -88 158h-96l23 160h141q121 0 178.5 -75.5t38.5 -203.5l-47 -356
q-15 -100 14 -152.5t101 -52.5h18z" />
    <glyph glyph-name="bracketleft.case" horiz-adv-x="651" 
d="M403 -186h-389l258 1839h390l-25 -160h-197l-211 -1520h197z" />
    <glyph glyph-name="bracketright.case" horiz-adv-x="649" 
d="M430 -186h-389l22 159h197l213 1520h-197l23 160h389z" />
    <glyph glyph-name="hyphen.case" horiz-adv-x="655" 
d="M500 516h-467l22 162h467z" />
    <glyph glyph-name="uni00AD.case" horiz-adv-x="655" 
d="M500 516h-467l22 162h467z" />
    <glyph glyph-name="endash.case" horiz-adv-x="1024" 
d="M901 516h-901l23 162h901z" />
    <glyph glyph-name="emdash.case" horiz-adv-x="1576" 
d="M1454 516h-1454l23 162h1454z" />
    <glyph glyph-name="guillemotleft.case" horiz-adv-x="1034" 
d="M412 285l-131 -84l-230 411l344 412l109 -84v-14l-252 -314l164 -313zM805 285l-131 -84l-228 411l342 412l109 -84v-14l-252 -314l166 -313z" />
    <glyph glyph-name="guillemotright.case" horiz-adv-x="1034" 
d="M494 612l-342 -411l-109 84l-2 14l252 313l-164 314l6 14l131 84zM887 612l-342 -411l-109 84v14l252 313l-166 314l6 14l131 84z" />
    <glyph glyph-name="guilsinglleft.case" horiz-adv-x="632" 
d="M416 285l-131 -84l-228 411l342 412l109 -84v-14l-252 -314l166 -313z" />
    <glyph glyph-name="guilsinglright.case" horiz-adv-x="641" 
d="M494 612l-342 -411l-109 84l-2 14l252 313l-164 314l6 14l131 84z" />
    <glyph glyph-name="uni2206" horiz-adv-x="1415" 
d="M676 1450h235l394 -1450h-1438zM627 922l-375 -713h741l-176 709q-33 143 -55 276h-4q-71 -160 -131 -272z" />
    <glyph glyph-name="at.case" horiz-adv-x="1841" 
d="M922 -166q-251 0 -441 101t-293.5 287t-103.5 433q0 175 64.5 330t176.5 265.5t269.5 174.5t335.5 64q229 0 407 -89t276.5 -251t98.5 -371q0 -233 -123 -379.5t-319 -146.5q-89 0 -144.5 42.5t-58.5 111.5q-38 -68 -112.5 -111t-153.5 -43q-135 0 -218 95t-83 251
q0 202 120.5 339.5t294.5 137.5q73 0 133 -36t85 -95l20 88h164l-74 -350q-6 -30 -15 -75.5t-13.5 -69.5t-4.5 -37q0 -47 26.5 -72t76.5 -25q94 0 158.5 103t64.5 252q0 267 -162 419t-446 152q-192 0 -344 -86t-237 -240.5t-85 -349.5q0 -305 182.5 -482t489.5 -177
q131 0 223.5 20.5t200.5 71.5l16 -6l62 -133q-198 -113 -514 -113zM834 403q102 0 172.5 95.5t70.5 234.5q0 90 -42 139.5t-117 49.5q-95 0 -163.5 -97t-68.5 -233q0 -83 41.5 -136t106.5 -53z" />
    <glyph glyph-name="caron.alt" horiz-adv-x="407" 
d="M506 1423l-252 -403l-133 53l198 406l25 10z" />
    <glyph glyph-name="uni0308.case" 
d="M-485 1606q-56 0 -92.5 36t-36.5 93q0 51 38.5 90t90.5 39q53 0 90 -38t37 -91q0 -57 -35.5 -93t-91.5 -36zM-70 1606q-55 0 -92 36.5t-37 92.5q0 52 38 90.5t91 38.5q54 0 91.5 -38t37.5 -91q0 -57 -36.5 -93t-92.5 -36z" />
    <glyph glyph-name="uni0307.case" 
d="M-162 1587q-62 0 -103.5 39.5t-41.5 99.5t41.5 99t103.5 39q63 0 104.5 -40t41.5 -100q0 -59 -41.5 -98t-104.5 -39z" />
    <glyph glyph-name="gravecomb.case" 
d="M-59 1565h-170l-248 258l12 16h211z" />
    <glyph glyph-name="acutecomb.case" 
d="M-334 1565h-178l233 274h222l6 -16z" />
    <glyph glyph-name="uni030B.case" 
d="M-645 1565h-178l229 274h221l8 -16zM-272 1565h-179l230 274h221l8 -16z" />
    <glyph glyph-name="uni0302.case" 
d="M-258 1565l-135 182l-193 -182h-159l-9 16l260 258h218l182 -258l-15 -16h-149z" />
    <glyph glyph-name="uni030C.case" 
d="M-289 1565h-217l-184 272l14 18h152l135 -198l192 198h158l8 -18z" />
    <glyph glyph-name="uni0306.case" 
d="M-236 1563q-145 0 -225.5 72t-73.5 196l19 14h133q4 -66 45 -96.5t121 -30.5q156 0 201 127h133l14 -14q-26 -125 -123.5 -196.5t-243.5 -71.5z" />
    <glyph glyph-name="uni030A.case" 
d="M-115 1544q-77 0 -128.5 49.5t-51.5 124.5q0 97 69.5 165.5t166.5 68.5q78 0 129 -49.5t51 -124.5q0 -95 -69.5 -164.5t-166.5 -69.5zM-102 1630q56 0 95.5 39t39.5 94q0 44 -29.5 73.5t-73.5 29.5q-57 0 -97 -39.5t-40 -95.5q0 -44 29.5 -72.5t75.5 -28.5z" />
    <glyph glyph-name="tildecomb.case" 
d="M-106 1577q78 0 143 68.5t94 179.5h-123l-16 -13q-30 -83 -86 -83q-33 0 -80.5 24t-99.5 48t-95 24q-77 0 -142 -68t-93 -180h123l18 12q26 84 84 84q33 0 78 -24t96 -48t99 -24z" />
    <glyph glyph-name="uni0304.case" 
d="M-27 1632h-591l22 154h592z" />
    <glyph glyph-name="brevecombcy" 
d="M-326 1100q-146 0 -227 71.5t-74 198.5l19 14h133q6 -67 46 -98t120 -31t128.5 31t71.5 98h134l16 -14q-28 -127 -125 -198.5t-242 -71.5z" />
    <glyph glyph-name="brevecombcy.case" 
d="M-236 1563q-145 0 -225.5 72t-73.5 196l19 14h133q4 -66 45 -96.5t121 -30.5q156 0 201 127h133l14 -14q-26 -125 -123.5 -196.5t-243.5 -71.5z" />
    </font>
</defs>
</svg>
