<?xml version="1.0" standalone="no"?>
<!DOCTYPE svg PUBLIC "-//W3C//DTD SVG 1.1//EN" "http://www.w3.org/Graphics/SVG/1.1/DTD/svg11.dtd" >
<svg xmlns="http://www.w3.org/2000/svg" xmlns:xlink="http://www.w3.org/1999/xlink" version="1.1">
<metadata>
Created by FontForge 20201107 at Thu Jul 11 23:01:29 2024
 By 
Copyright (c) 2020 by Botio Nikoltchev. All rights reserved.
</metadata>
<defs>
<font id="Quasimoda-MediumItalic" horiz-adv-x="0" >
  <font-face 
    font-family="Quasimoda Medium"
    font-weight="500"
    font-style="italic"
    font-stretch="normal"
    units-per-em="2048"
    panose-1="0 0 6 0 0 0 0 0 0 0"
    ascent="1638"
    descent="-410"
    x-height="911"
    cap-height="1450"
    bbox="-1249 -559 2537 2290"
    underline-thickness="102"
    underline-position="-204"
    slope="-8"
    unicode-range="U+000D-FB02"
  />
<missing-glyph horiz-adv-x="1343" 
d="M205 1522h934v-1522h-934v1522zM1020 109v1304h-696v-1304h696zM500 995l-21 -8l-78 17q19 104 91.5 164.5t179.5 60.5q113 0 183.5 -64t70.5 -166q0 -75 -27.5 -128t-95.5 -109q-61 -51 -79 -83t-19 -91l-3 -68h-96l-2 70q-2 65 23.5 115.5t83.5 101.5q66 56 87 94.5
t21 93.5q0 63 -41.5 103.5t-109.5 40.5q-66 0 -110.5 -37.5t-57.5 -106.5zM662 252q-32 0 -55 22t-23 54q0 33 22.5 55.5t55.5 22.5q31 0 53 -22.5t22 -55.5q0 -32 -22 -54t-53 -22z" />
    <glyph glyph-name="f_i" unicode="fi" horiz-adv-x="1128" 
d="M700 1343l-16 -6q-49 21 -92 21q-65 0 -101.5 -48.5t-54.5 -170.5l-30 -228h221l-21 -149h-221l-168 -1208h-182l168 1208h-172l20 149h172l31 226q32 216 107.5 302.5t224.5 86.5q74 0 147 -25zM942 1210q-54 0 -90.5 35.5t-36.5 89.5q0 52 36.5 87.5t90.5 35.5
t90.5 -36t36.5 -89q0 -52 -36.5 -87.5t-90.5 -35.5zM848 0h-182l127 911h182z" />
    <glyph glyph-name="f_l" unicode="fl" horiz-adv-x="1138" 
d="M700 1343l-16 -6q-49 21 -92 21q-65 0 -101.5 -48.5t-54.5 -170.5l-30 -228h221l-21 -149h-221l-168 -1208h-182l168 1208h-172l20 149h172l31 226q32 216 107.5 302.5t224.5 86.5q74 0 147 -25zM858 0h-182l211 1501h182z" />
    <glyph glyph-name=".notdef" horiz-adv-x="1343" 
d="M205 1522h934v-1522h-934v1522zM1020 109v1304h-696v-1304h696zM500 995l-21 -8l-78 17q19 104 91.5 164.5t179.5 60.5q113 0 183.5 -64t70.5 -166q0 -75 -27.5 -128t-95.5 -109q-61 -51 -79 -83t-19 -91l-3 -68h-96l-2 70q-2 65 23.5 115.5t83.5 101.5q66 56 87 94.5
t21 93.5q0 63 -41.5 103.5t-109.5 40.5q-66 0 -110.5 -37.5t-57.5 -106.5zM662 252q-32 0 -55 22t-23 54q0 33 22.5 55.5t55.5 22.5q31 0 53 -22.5t22 -55.5q0 -32 -22 -54t-53 -22z" />
    <glyph glyph-name=".null" 
 />
    <glyph glyph-name="nonmarkingreturn" horiz-adv-x="682" 
 />
    <glyph glyph-name="NULL" 
 />
    <glyph glyph-name="NULL" 
 />
    <glyph glyph-name="CR" unicode="&#xd;" horiz-adv-x="608" 
 />
    <glyph glyph-name="space" unicode=" " horiz-adv-x="608" 
 />
    <glyph glyph-name="exclam" unicode="!" horiz-adv-x="661" 
d="M356 408h-176l137 1042h195zM227 -20q-55 0 -93 37.5t-38 91.5t38.5 91.5t92.5 37.5q55 0 93 -37.5t38 -91.5t-38 -91.5t-93 -37.5z" />
    <glyph glyph-name="quotedbl" unicode="&#x22;" horiz-adv-x="636" 
d="M256 887h-147l77 563h148zM565 887h-147l78 563h147z" />
    <glyph glyph-name="numbersign" unicode="#" horiz-adv-x="1394" 
d="M1321 1057l-23 -168h-208l-95 -328h236l-23 -168h-260l-110 -393h-185l111 393h-361l-110 -393h-187l111 393h-186l24 168h209l94 328h-237l24 168h261l110 393h186l-110 -393h360l111 393h184l-110 -393h184zM451 561h360l94 328h-360z" />
    <glyph glyph-name="dollar" unicode="$" horiz-adv-x="1433" 
d="M891 1307l-68 -473q185 -87 262.5 -178.5t77.5 -221.5q0 -184 -129.5 -316.5t-331.5 -152.5l-20 -145h-143l20 145q-142 15 -238 89t-153 214l151 92l35 -12q38 -98 93 -148.5t137 -62.5l78 557q-171 77 -249.5 167.5t-78.5 211.5q0 171 121 286.5t317 127.5l21 145h143
l-21 -151q110 -17 190.5 -75.5t121.5 -152.5l-148 -92l-35 13q-55 107 -153 133zM539 1094q0 -55 33 -97t118 -94l58 410q-95 -15 -152 -74t-57 -145zM795 629l-68 -486q102 23 166.5 98t64.5 169q0 67 -37.5 118t-125.5 101z" />
    <glyph glyph-name="percent" unicode="%" horiz-adv-x="1898" 
d="M496 756q-140 0 -231 87t-91 220q0 169 123.5 292.5t290.5 123.5q140 0 231.5 -87.5t91.5 -222.5q0 -167 -124 -290t-291 -123zM485 0h-184l1077 1450h187zM512 899q99 0 171.5 75t72.5 177q0 80 -52 132t-133 52q-100 0 -171.5 -74.5t-71.5 -177.5q0 -82 51 -133
t133 -51zM1278 -29q-140 0 -231 87.5t-91 220.5q0 110 56.5 206t152 152.5t205.5 56.5q139 0 230.5 -87.5t91.5 -219.5q0 -168 -123 -292t-291 -124zM1292 115q101 0 173.5 75t72.5 177q0 82 -51 133t-133 51q-100 0 -172 -74.5t-72 -177.5q0 -80 51.5 -132t130.5 -52z" />
    <glyph glyph-name="ampersand" unicode="&#x26;" horiz-adv-x="1388" 
d="M1120 784h176q-101 -306 -249 -497l243 -287h-235l-131 154q-205 -193 -475 -193q-184 0 -296 98.5t-112 259.5q0 291 344 467q-131 153 -131 306q0 177 117 287t305 110q149 0 241.5 -76.5t92.5 -200.5q0 -139 -93.5 -257t-267.5 -203l291 -340q99 147 164 360z
M659 1339q-96 0 -160.5 -62t-64.5 -155q0 -54 31.5 -123.5t87.5 -134.5q141 74 208.5 153t67.5 171q0 68 -47 109.5t-123 41.5zM477 125q182 0 342 151l-336 394q-130 -66 -191 -145t-61 -181q0 -99 67.5 -159t178.5 -60z" />
    <glyph glyph-name="quotesingle" unicode="'" horiz-adv-x="335" 
d="M242 887h-146l78 563h148z" />
    <glyph glyph-name="parenleft" unicode="(" horiz-adv-x="636" 
d="M395 -256l-143 -74q-91 148 -139 338.5t-45 392.5q3 293 120 591.5t318 525.5l129 -91q-188 -220 -293.5 -487.5t-108.5 -531.5q-3 -376 162 -664z" />
    <glyph glyph-name="parenright" unicode=")" horiz-adv-x="636" 
d="M258 1444l143 74q91 -148 139.5 -339t45.5 -393q-3 -293 -120.5 -590.5t-318.5 -525.5l-129 90q188 220 293.5 488t108.5 532q3 376 -162 664z" />
    <glyph glyph-name="asterisk" unicode="*" horiz-adv-x="868" 
d="M688 739l-88 -47l-25 4l-133 277l-217 -215l-22 4l-70 74v24l219 195l-260 129l-6 24l51 90l23 7l252 -144l43 281l20 10l98 -16l17 -19l-55 -276l286 51l21 -16l16 -99l-12 -22l-291 -33l141 -258z" />
    <glyph glyph-name="plus" unicode="+" horiz-adv-x="1433" 
d="M756 690h481v-137h-481v-483h-138v483h-483v137h483v481h138v-481z" />
    <glyph glyph-name="comma" unicode="," horiz-adv-x="595" 
d="M362 199l-329 -537l-123 51l268 543l21 10z" />
    <glyph glyph-name="hyphen" unicode="-" horiz-adv-x="655" 
d="M479 381h-467l21 147h467z" />
    <glyph glyph-name="period" unicode="." horiz-adv-x="577" 
d="M186 -20q-55 0 -93 37.5t-38 91.5t38 91.5t93 37.5t93 -37.5t38 -91.5t-38 -91.5t-93 -37.5z" />
    <glyph glyph-name="slash" unicode="/" horiz-adv-x="792" 
d="M696 1450h183l-777 -1448h-184z" />
    <glyph glyph-name="zero" unicode="0" horiz-adv-x="1265" 
d="M518 -39q-209 0 -322.5 148t-113.5 419q0 203 47.5 381t131 305.5t202 201t254.5 73.5q207 0 321.5 -148t114.5 -415q0 -271 -81.5 -492t-227 -347t-326.5 -126zM528 141q118 0 215 106t152 286.5t55 396.5q0 183 -63 281t-180 98q-119 0 -216 -105t-151.5 -284
t-54.5 -394q0 -186 62.5 -285.5t180.5 -99.5z" />
    <glyph glyph-name="one" unicode="1" horiz-adv-x="696" 
d="M399 0h-198l147 1057q6 50 29 151l-4 2q-18 -13 -37 -24t-43.5 -23.5t-36.5 -19.5l-193 -99l-16 9l43 207l467 219h49z" />
    <glyph glyph-name="two" unicode="2" horiz-adv-x="1067" 
d="M307 172q105 6 199 6h368l-24 -178h-936l2 39l395 358q268 242 388 413t120 312q0 91 -55 141t-154 50q-249 0 -336 -277l-38 -14l-158 29q62 214 204 326t353 112q177 0 281 -94t104 -252q0 -328 -445 -735l-143 -127q-34 -32 -125 -109z" />
    <glyph glyph-name="three" unicode="3" horiz-adv-x="1095" 
d="M436 -39q-218 0 -336 112.5t-112 313.5l162 21l30 -21q-1 -117 68.5 -184.5t189.5 -67.5q143 0 232.5 92t89.5 240q0 211 -271 211h-55l21 153h41q158 0 249 80t91 219q0 86 -57 135.5t-156 49.5q-110 0 -192.5 -62t-119.5 -172l-37 -12l-155 29q56 183 196 287t332 104
q178 0 284.5 -91.5t106.5 -244.5q0 -146 -85 -255t-226 -146q107 -19 169 -99t62 -200q0 -207 -150.5 -349.5t-371.5 -142.5z" />
    <glyph glyph-name="four" unicode="4" horiz-adv-x="1155" 
d="M821 0h-196l43 307h-727l10 82l952 1086h125l-139 -992h172l-27 -176h-170zM680 971l-432 -488h446l41 299q33 232 70 355l-4 -9q-61 -89 -121 -157z" />
    <glyph glyph-name="five" unicode="5" horiz-adv-x="1118" 
d="M432 -39q-212 0 -329.5 105.5t-112.5 291.5l164 25l32 -14q-1 -114 64.5 -174t191.5 -60q151 0 254 112.5t103 276.5q0 117 -72 184.5t-197 67.5q-192 0 -354 -112l-49 16l156 770h741l-25 -176h-569l-82 -391q119 49 256 49q180 0 287.5 -104.5t107.5 -278.5
q0 -165 -73.5 -299.5t-203.5 -211.5t-290 -77z" />
    <glyph glyph-name="six" unicode="6" horiz-adv-x="1146" 
d="M641 907q170 0 271.5 -104t101.5 -277q0 -246 -158.5 -405.5t-404.5 -159.5q-200 0 -314 109t-114 299q0 155 79.5 306t294.5 396l379 432l137 -86l5 -26l-236 -269q-101 -118 -264 -274q106 59 223 59zM469 133q146 0 245 108t99 267q0 112 -65 176t-179 64
q-152 0 -250 -105t-98 -268q0 -113 66.5 -177.5t181.5 -64.5z" />
    <glyph glyph-name="seven" unicode="7" horiz-adv-x="950" 
d="M-12 25l774 1247h-680l27 178h956l-4 -37l-893 -1446l-43 -6z" />
    <glyph glyph-name="eight" unicode="8" horiz-adv-x="1095" 
d="M426 -39q-208 0 -324 92.5t-116 255.5q0 164 96.5 290t257.5 173q-96 34 -146.5 103.5t-50.5 168.5q0 195 136.5 320t353.5 125q178 0 284.5 -85t106.5 -226q0 -139 -79.5 -248.5t-213.5 -155.5q119 -35 181.5 -116t62.5 -199q0 -224 -152.5 -361t-396.5 -137zM555 868
q124 0 196 73t72 196q0 93 -57.5 145.5t-159.5 52.5q-123 0 -196.5 -74.5t-73.5 -197.5q0 -94 57 -144.5t162 -50.5zM453 125q148 0 235.5 88.5t87.5 237.5q0 113 -68.5 176t-191.5 63q-145 0 -235.5 -92t-90.5 -240q0 -110 70 -171.5t193 -61.5z" />
    <glyph glyph-name="nine" unicode="9" horiz-adv-x="1148" 
d="M725 379l-381 -432l-137 88l-4 26l235 267q135 150 281 284l-4 2q-123 -71 -232 -71q-170 0 -272 104.5t-102 278.5q0 249 158.5 406t410.5 157q199 0 311.5 -106.5t112.5 -292.5q0 -156 -80.5 -308t-296.5 -403zM561 702q148 0 243 105.5t95 269.5q0 111 -65 175.5
t-177 64.5q-149 0 -248.5 -106.5t-99.5 -264.5q0 -116 65.5 -180t186.5 -64z" />
    <glyph glyph-name="colon" unicode=":" horiz-adv-x="659" 
d="M319 647q-54 0 -91.5 38.5t-37.5 92.5t37.5 91.5t91.5 37.5q55 0 93.5 -37.5t38.5 -91.5t-38.5 -92.5t-93.5 -38.5zM227 -20q-55 0 -93 37.5t-38 91.5t38 91.5t93 37.5q54 0 91.5 -37.5t37.5 -91.5t-37.5 -91.5t-91.5 -37.5z" />
    <glyph glyph-name="semicolon" unicode=";" horiz-adv-x="735" 
d="M442 647q-55 0 -93 38.5t-38 92.5t38 91.5t93 37.5q54 0 91.5 -37.5t37.5 -91.5t-37.5 -92.5t-91.5 -38.5zM455 199l-330 -537l-125 51l270 543l21 10z" />
    <glyph glyph-name="less" unicode="&#x3c;" horiz-adv-x="1433" 
d="M139 676l1065 481v-141l-870 -393l870 -396v-143l-1065 481v111z" />
    <glyph glyph-name="equal" unicode="=" horiz-adv-x="1433" 
d="M1253 748h-1110v137h1110v-137zM1253 356h-1110v138h1110v-138z" />
    <glyph glyph-name="greater" unicode="&#x3e;" horiz-adv-x="1433" 
d="M190 1016v141l1065 -481v-111l-1065 -481v141l873 396z" />
    <glyph glyph-name="question" unicode="?" horiz-adv-x="1081" 
d="M524 408h-176l12 106q12 98 61.5 176t149.5 158q109 77 159 146.5t50 164.5q0 75 -50 121.5t-138 46.5q-103 0 -174.5 -57t-104.5 -160l-37 -8l-143 31q54 169 178.5 262.5t294.5 93.5q167 0 266 -86t99 -225q0 -133 -61 -232.5t-183 -191.5q-102 -69 -137.5 -117
t-48.5 -135zM406 -20q-54 0 -92 37.5t-38 91.5t38 91.5t92 37.5q55 0 93 -37.5t38 -91.5t-38 -91.5t-93 -37.5z" />
    <glyph glyph-name="at" unicode="@" horiz-adv-x="1847" 
d="M891 -352q-377 0 -603.5 223.5t-226.5 597.5q0 174 64.5 327.5t175 263t266 173t330.5 63.5q229 0 407 -89t276.5 -250t98.5 -369q0 -234 -121.5 -381.5t-314.5 -147.5q-89 0 -144 45t-55 117q-38 -72 -113 -117t-157 -45q-137 0 -220 95t-83 252q0 203 122.5 342
t299.5 139q75 0 136 -37t87 -100l21 94h145l-78 -371q-30 -146 -30 -176q0 -50 28 -76t80 -26q100 0 169 108.5t69 265.5q0 270 -167.5 427t-457.5 157q-193 0 -347 -88.5t-240.5 -246t-86.5 -355.5q0 -309 184 -490.5t494 -181.5q137 0 229 20.5t207 73.5l17 -4l55 -121
q-193 -112 -516 -112zM799 195q109 0 185.5 101.5t76.5 248.5q0 97 -45 150t-127 53q-103 0 -176.5 -102.5t-73.5 -248.5q0 -89 44.5 -145.5t115.5 -56.5z" />
    <glyph glyph-name="A" unicode="A" horiz-adv-x="1384" 
d="M1272 0h-207l-96 367h-680l-199 -367h-223l823 1450h174zM612 963l-235 -435h549l-113 430q-25 87 -63 263h-5q-82 -164 -133 -258z" />
    <glyph glyph-name="B" unicode="B" horiz-adv-x="1218" 
d="M442 0h-389l205 1450h371q227 0 342.5 -80t115.5 -237q0 -134 -72.5 -231t-199.5 -132l-2 -6q118 -25 186 -105t68 -196q0 -224 -161.5 -343.5t-463.5 -119.5zM430 1282l-65 -457h194q159 0 247.5 73.5t88.5 203.5q0 91 -71.5 135.5t-221.5 44.5h-172zM342 672l-70 -502
h174q215 0 319.5 74t106.5 225q0 104 -78 153.5t-245 49.5h-207z" />
    <glyph glyph-name="C" unicode="C" horiz-adv-x="1609" 
d="M743 -39q-294 0 -476.5 179.5t-182.5 469.5q0 179 67.5 341.5t181.5 280.5t272 187.5t331 69.5q224 0 379.5 -98t234.5 -291l-151 -90l-33 12q-61 144 -168.5 213.5t-267.5 69.5q-129 0 -247 -54.5t-203.5 -146t-136 -218t-50.5 -263.5q0 -212 129 -345t336 -133
q169 0 298.5 70t235.5 219l35 4l125 -96q-275 -381 -709 -381z" />
    <glyph glyph-name="D" unicode="D" horiz-adv-x="1495" 
d="M459 0h-406l203 1450h387q357 0 546 -154.5t189 -445.5q0 -253 -112 -445.5t-321 -298.5t-486 -106zM428 1270l-154 -1090h177q349 0 536 174t187 492q0 213 -139 318.5t-425 105.5h-182z" />
    <glyph glyph-name="E" unicode="E" horiz-adv-x="1159" 
d="M53 0l205 1450h832l6 -176h-668l-63 -445h616l-23 -174h-616l-68 -479h668l-45 -176h-844z" />
    <glyph glyph-name="F" unicode="F" horiz-adv-x="1097" 
d="M53 0l205 1450h799l8 -176h-637l-63 -449h591l-22 -174h-592l-92 -651h-197z" />
    <glyph glyph-name="G" unicode="G" horiz-adv-x="1716" 
d="M729 -39q-289 0 -467 179t-178 468q0 180 68 343.5t183.5 281t274.5 187t334 69.5q225 0 383.5 -95.5t241.5 -283.5l-152 -90l-33 10q-70 144 -176.5 209.5t-267.5 65.5q-133 0 -253 -54t-207 -145.5t-138 -217.5t-51 -265q0 -213 129 -346.5t332 -133.5q217 0 376.5 122
t196.5 315v6h-414l25 166h594l-107 -752h-182l10 76q10 81 39 147l-4 2q-93 -119 -239 -191.5t-318 -72.5z" />
    <glyph glyph-name="H" unicode="H" horiz-adv-x="1486" 
d="M250 0h-197l205 1450h197l-90 -627h743l90 627h197l-205 -1450h-197l90 645h-743z" />
    <glyph glyph-name="I" unicode="I" horiz-adv-x="546" 
d="M53 0l205 1450h197l-205 -1450h-197z" />
    <glyph glyph-name="J" unicode="J" horiz-adv-x="997" 
d="M115 322l28 -9q12 -86 59 -131t126 -45q101 0 166.5 77.5t87.5 225.5l141 1010h197l-142 -1012q-32 -230 -152 -353.5t-311 -123.5q-155 0 -248.5 78.5t-105.5 216.5z" />
    <glyph glyph-name="K" unicode="K" horiz-adv-x="1277" 
d="M1100 1450h258l-649 -602l475 -848h-226l-393 715l-246 -230l-69 -485h-197l205 1450h197l-99 -698z" />
    <glyph glyph-name="L" unicode="L" horiz-adv-x="1071" 
d="M53 0l205 1450h197l-181 -1270h678l-47 -180h-852z" />
    <glyph glyph-name="M" unicode="M" horiz-adv-x="1820" 
d="M518 1450l330 -952h4l602 952h272l-204 -1450h-193l168 1196h-4l-666 -1038h-36l-373 1038h-4l-168 -1196h-193l205 1450h260z" />
    <glyph glyph-name="N" unicode="N" horiz-adv-x="1566" 
d="M248 0h-195l203 1450h147l486 -696q44 -63 239 -351h7q18 150 51 377l94 670h195l-207 -1477h-74l-555 787l-236 340h-6q-10 -96 -51 -389z" />
    <glyph glyph-name="O" unicode="O" horiz-adv-x="1753" 
d="M760 -39q-196 0 -350 82.5t-240 232t-86 340.5q0 142 44.5 275t125.5 240.5t189 188.5t241 125t274 44q300 0 488 -182t188 -473q0 -141 -44.5 -274t-126 -240.5t-189 -188.5t-240.5 -125.5t-274 -44.5zM770 145q175 0 326.5 92t241 248.5t89.5 337.5q0 216 -132.5 349
t-346.5 133q-133 0 -254.5 -54t-209.5 -145t-140.5 -216.5t-52.5 -262.5q0 -214 133.5 -348t345.5 -134z" />
    <glyph glyph-name="P" unicode="P" horiz-adv-x="1155" 
d="M250 0h-197l203 1450h401q225 0 341 -91t116 -263q0 -228 -148.5 -361t-404.5 -133h-227zM430 1278l-74 -506h185q184 0 279 78.5t95 230.5q0 102 -72.5 149.5t-226.5 47.5h-186z" />
    <glyph glyph-name="Q" unicode="Q" horiz-adv-x="1753" 
d="M1008 20v-8q193 -56 415 -92l17 -20l-80 -158q-389 92 -709 225q-255 34 -411 211t-156 438q0 142 44.5 275t125.5 240.5t189 188.5t241 125t274 44q300 0 488 -182t188 -473q0 -290 -175 -513t-451 -301zM291 627q0 -214 133.5 -348t345.5 -134q175 0 326.5 92
t241 248.5t89.5 337.5q0 216 -132.5 349t-346.5 133q-133 0 -254.5 -54t-209.5 -145t-140.5 -216.5t-52.5 -262.5z" />
    <glyph glyph-name="R" unicode="R" horiz-adv-x="1247" 
d="M768 653l360 -620l-18 -33h-197l-350 625h-225l-88 -625h-197l203 1450h422q444 0 444 -344q0 -176 -93.5 -293.5t-260.5 -159.5zM627 1278h-197l-70 -485h197q181 0 274 66.5t93 223.5q0 105 -71 150t-226 45z" />
    <glyph glyph-name="S" unicode="S" horiz-adv-x="1167" 
d="M481 -39q-177 0 -291 74.5t-180 232.5l152 92l35 -12q45 -115 113.5 -165t176.5 -50q133 0 224.5 82.5t91.5 194.5q0 84 -62.5 145t-214.5 129q-183 78 -266.5 170.5t-83.5 218.5q0 182 134 299t349 117q147 0 253 -60.5t157 -175.5l-147 -92l-35 13q-38 74 -96.5 108.5
t-143.5 34.5q-117 0 -191.5 -62.5t-74.5 -160.5q0 -68 55.5 -121t208.5 -129q197 -91 280 -184.5t83 -225.5q0 -199 -150.5 -336t-376.5 -137z" />
    <glyph glyph-name="T" unicode="T" horiz-adv-x="1222" 
d="M389 0l180 1270h-493l26 180h1182l-24 -180h-494l-178 -1270h-199z" />
    <glyph glyph-name="U" unicode="U" horiz-adv-x="1472" 
d="M623 -39q-288 0 -412.5 155.5t-83.5 456.5l125 877h197l-123 -870q-32 -225 43.5 -330t263.5 -105q194 0 303 109t143 340l119 856h197l-123 -885q-41 -291 -208.5 -447.5t-440.5 -156.5z" />
    <glyph glyph-name="V" unicode="V" horiz-adv-x="1353" 
d="M596 -27h-84l-420 1477h213l230 -864q20 -68 61 -244h8q4 8 127 242l473 866h223z" />
    <glyph glyph-name="W" unicode="W" horiz-adv-x="1959" 
d="M492 -27h-132l-247 1477h206l117 -770q8 -62 26 -185t21 -145h9l163 332l367 756h72l157 -756l68 -332h6q27 65 77 181t64 149l332 770h217l-661 -1477h-131l-156 756q-46 211 -59 281h-9l-135 -279z" />
    <glyph glyph-name="X" unicode="X" horiz-adv-x="1257" 
d="M121 0h-240l613 766l-379 684h237l273 -537l424 537h237l-567 -694l411 -756h-229l-311 606z" />
    <glyph glyph-name="Y" unicode="Y" horiz-adv-x="1212" 
d="M582 0h-197l84 594l-387 856h213l160 -393q24 -58 70 -164t57 -131h8q156 220 205 293l274 395h225l-628 -856z" />
    <glyph glyph-name="Z" unicode="Z" horiz-adv-x="1294" 
d="M-86 37l1059 1235h-834l27 178h1180l-7 -37l-1060 -1229h854l-27 -184h-1198z" />
    <glyph glyph-name="bracketleft" unicode="[" horiz-adv-x="636" 
d="M365 -330h-367l258 1839h367l-21 -139h-199l-219 -1560h201z" />
    <glyph glyph-name="backslash" unicode="\" horiz-adv-x="995" 
d="M662 2l-572 1448h180l574 -1448h-182z" />
    <glyph glyph-name="bracketright" unicode="]" horiz-adv-x="634" 
d="M391 -330h-366l20 140h199l217 1560h-199l21 139h366z" />
    <glyph glyph-name="asciicircum" unicode="^" horiz-adv-x="1302" 
d="M328 557h-207l467 893h125l469 -893h-209l-322 670z" />
    <glyph glyph-name="underscore" unicode="_" horiz-adv-x="1024" 
d="M920 -150l-19 -129h-1024l19 129h1024z" />
    <glyph glyph-name="grave" unicode="`" horiz-adv-x="610" 
d="M639 1094h-145l-291 362l8 14h190z" />
    <glyph glyph-name="a" unicode="a" horiz-adv-x="1175" 
d="M389 -39q-164 0 -262 108t-98 293q0 158 66 294t178 215t243 79q98 0 177.5 -53t121.5 -149l25 163h180l-127 -911h-184l6 37q9 61 18 108q-64 -85 -158 -134.5t-186 -49.5zM438 127q144 0 245 113t101 280q0 119 -65.5 192.5t-169.5 73.5q-139 0 -234.5 -117.5
t-95.5 -295.5q0 -118 58 -182t161 -64z" />
    <glyph glyph-name="b" unicode="b" horiz-adv-x="1167" 
d="M543 -39q-94 0 -183 55.5t-129 139.5l-18 -156h-176l211 1501h182l-65 -452q-6 -45 -20 -145.5t-21 -151.5q71 96 164 147t194 51q159 0 255.5 -108t96.5 -291q0 -161 -66.5 -297t-179.5 -214.5t-245 -78.5zM510 127q143 0 239.5 118t96.5 296q0 117 -58.5 181t-162.5 64
q-145 0 -249 -117t-104 -284q0 -119 65 -188.5t173 -69.5z" />
    <glyph glyph-name="c" unicode="c" horiz-adv-x="1058" 
d="M438 -39q-187 0 -297 112.5t-110 301.5q0 156 68.5 287.5t191.5 209.5t272 78q133 0 235.5 -64t155.5 -186l-145 -82l-16 7q-43 88 -101.5 127t-138.5 39q-142 0 -238 -120t-96 -286q0 -121 65 -191.5t169 -70.5q87 0 158.5 41t138.5 131l16 2l125 -88
q-86 -123 -203.5 -185.5t-249.5 -62.5z" />
    <glyph glyph-name="d" unicode="d" horiz-adv-x="1179" 
d="M389 -39q-166 0 -263 107.5t-97 293.5q0 156 64.5 291.5t176.5 216t242 80.5q100 0 183.5 -52.5t125.5 -145.5q19 157 39 301l66 448h182l-211 -1501h-176l22 152q-61 -87 -158.5 -139t-195.5 -52zM438 127q147 0 248.5 113t101.5 280q0 120 -66.5 193t-174.5 73
q-140 0 -234 -117.5t-94 -295.5q0 -117 57.5 -181.5t161.5 -64.5z" />
    <glyph glyph-name="e" unicode="e" horiz-adv-x="1087" 
d="M930 424h-711q0 -9 -1 -27.5t-1 -27.5q-1 -116 64.5 -184t175.5 -68q80 0 148 37.5t132 121.5h19l127 -81q-80 -115 -194 -174.5t-245 -59.5q-189 0 -301 112t-112 302q0 120 40.5 227t110 183t166.5 120.5t207 44.5q183 0 287 -106t104 -293q0 -71 -16 -127zM551 799
q-106 0 -186 -65t-119 -179l518 -4q9 114 -48.5 181t-164.5 67z" />
    <glyph glyph-name="f" unicode="f" horiz-adv-x="628" 
d="M700 1343l-16 -6q-49 21 -92 21q-65 0 -101.5 -48.5t-54.5 -170.5l-30 -228h221l-21 -149h-221l-168 -1208h-182l168 1208h-172l20 149h172l31 226q32 216 107.5 302.5t224.5 86.5q74 0 147 -25z" />
    <glyph glyph-name="g" unicode="g" horiz-adv-x="1183" 
d="M395 -471q-149 0 -251.5 55t-174.5 174l140 84l14 -2q51 -84 115 -119.5t163 -35.5q130 0 212.5 79.5t101.5 221.5q9 81 26 172q-64 -86 -159 -135.5t-191 -49.5q-165 0 -263.5 107.5t-98.5 288.5q0 156 65.5 290t178 212.5t245.5 78.5q98 0 179.5 -53t125.5 -149l23 163
h182l-127 -917q-29 -223 -159 -344t-347 -121zM440 139q148 0 250.5 110.5t102.5 270.5q0 120 -68 193t-178 73q-142 0 -235 -116t-93 -291q0 -114 58.5 -177t162.5 -63z" />
    <glyph glyph-name="h" unicode="h" horiz-adv-x="1153" 
d="M219 0h-182l211 1501h182l-63 -452l-43 -297q70 96 162 147t190 51q155 0 227.5 -98t46.5 -281l-80 -571h-182l74 512q21 148 -20 210t-142 62q-121 0 -210.5 -95t-110.5 -255z" />
    <glyph glyph-name="i" unicode="i" horiz-adv-x="501" 
d="M313 1210q-54 0 -90.5 35.5t-36.5 89.5q0 52 36.5 87.5t90.5 35.5t90.5 -36t36.5 -89q0 -52 -36.5 -87.5t-90.5 -35.5zM219 0h-182l127 911h182z" />
    <glyph glyph-name="j" unicode="j" horiz-adv-x="561" 
d="M373 1210q-53 0 -90 36t-37 89q0 52 37 87.5t90 35.5q54 0 90.5 -36t36.5 -89q0 -52 -36.5 -87.5t-90.5 -35.5zM-68 -471q-67 0 -131 27l37 149l17 6q44 -14 73 -14q69 0 107 46.5t55 156.5l141 1011h183l-146 -1038q-26 -178 -109 -261t-227 -83z" />
    <glyph glyph-name="k" unicode="k" horiz-adv-x="1026" 
d="M899 0h-221l-266 444l-150 -129l-43 -315h-182l211 1501h182l-63 -459q-10 -73 -80 -514l436 383h250l-422 -352z" />
    <glyph glyph-name="l" unicode="l" horiz-adv-x="501" 
d="M219 0h-182l211 1501h182z" />
    <glyph glyph-name="m" unicode="m" horiz-adv-x="1740" 
d="M1270 950q148 0 221 -96.5t49 -267.5l-82 -586h-182l74 518q20 138 -18.5 202t-131.5 64q-108 0 -193.5 -99t-107.5 -249l-59 -436h-183l70 518q21 138 -17 202t-132 64q-107 0 -193 -99t-106 -249l-60 -436h-182l127 911h180l-22 -155q138 194 325 194q114 0 182 -59.5
t82 -167.5q70 114 165.5 170.5t193.5 56.5z" />
    <glyph glyph-name="n" unicode="n" horiz-adv-x="1153" 
d="M37 0l127 911h180l-20 -159q70 96 162 147t190 51q155 0 227.5 -98.5t46.5 -282.5l-80 -569h-182l74 512q21 148 -20 210t-142 62q-121 0 -210.5 -95t-110.5 -255l-60 -434h-182z" />
    <glyph glyph-name="o" unicode="o" horiz-adv-x="1161" 
d="M467 -39q-192 0 -314 121t-122 311q0 150 74 278t203.5 203.5t283.5 75.5q192 0 313 -119t121 -307q0 -112 -45 -216t-120 -180t-178.5 -121.5t-215.5 -45.5zM475 127q147 0 255 115.5t108 271.5q0 120 -70 195t-182 75q-153 0 -260 -113.5t-107 -271.5q0 -120 71 -196
t185 -76z" />
    <glyph glyph-name="p" unicode="p" horiz-adv-x="1165" 
d="M156 -446h-183l191 1357h180l-22 -155q71 94 164 144t192 50q161 0 257.5 -108t96.5 -291q0 -161 -66.5 -297t-179.5 -214.5t-245 -78.5q-95 0 -178.5 51t-122.5 135l-43 -299zM510 127q142 0 238 118t96 296q0 117 -58.5 181t-162.5 64q-145 0 -249 -117t-104 -284
q0 -119 66 -188.5t174 -69.5z" />
    <glyph glyph-name="q" unicode="q" horiz-adv-x="1183" 
d="M823 748l23 163h182l-190 -1357h-183l43 303q29 210 43 288q-64 -85 -159 -134.5t-191 -49.5q-165 0 -263.5 108t-98.5 293q0 158 66 294t178.5 215t244.5 79q98 0 179.5 -53t125.5 -149zM440 127q149 0 251 112.5t102 280.5q0 120 -67.5 193t-176.5 73q-142 0 -236 -117
t-94 -296q0 -118 58 -182t163 -64z" />
    <glyph glyph-name="r" unicode="r" horiz-adv-x="811" 
d="M219 0h-182l129 911h166l-27 -176q137 215 303 215q69 0 116 -43.5t60 -122.5l-166 -88l-16 6q-15 76 -78 76q-79 0 -153.5 -106.5t-94.5 -255.5z" />
    <glyph glyph-name="s" unicode="s" horiz-adv-x="856" 
d="M313 -39q-127 0 -216.5 54.5t-127.5 158.5l140 86l12 -6q50 -145 198 -145q84 0 137.5 38t53.5 99q0 43 -40 77.5t-130 69.5q-141 54 -203.5 116t-62.5 148q0 126 101 209.5t255 83.5q117 0 199.5 -52t111.5 -146l-129 -76l-14 6q-44 121 -176 121q-71 0 -119.5 -36.5
t-48.5 -90.5q0 -39 38.5 -71t137.5 -75q140 -54 200 -116.5t60 -153.5q0 -132 -105.5 -215.5t-271.5 -83.5z" />
    <glyph glyph-name="t" unicode="t" horiz-adv-x="710" 
d="M526 154l17 -9l-15 -153q-91 -31 -180 -31q-128 0 -187.5 74.5t-39.5 220.5l72 504h-173l21 151h172l41 277l164 92h28l-51 -369h260l-22 -151h-258l-66 -467q-13 -93 10 -129.5t93 -36.5q50 0 114 27z" />
    <glyph glyph-name="u" unicode="u" horiz-adv-x="1126" 
d="M354 -39q-152 0 -223.5 99.5t-44.5 285.5l80 565h184l-78 -528q-38 -256 148 -256q111 0 198 94t107 242l63 448h183l-127 -911h-182l22 152q-68 -92 -156.5 -141.5t-173.5 -49.5z" />
    <glyph glyph-name="v" unicode="v" horiz-adv-x="946" 
d="M379 -31h-55l-299 942h194l172 -622h4l348 622h199z" />
    <glyph glyph-name="w" unicode="w" horiz-adv-x="1415" 
d="M324 -31h-76l-201 942h191l108 -620h4l336 610h57l160 -610h4l289 620h193l-465 -942h-78l-174 613h-4z" />
    <glyph glyph-name="x" unicode="x" horiz-adv-x="964" 
d="M127 0h-227l417 473l-278 438h217l121 -209l57 -106h4q74 88 88 104l185 211h227l-408 -438l289 -473h-219l-133 236l-53 106h-4q-41 -53 -86 -104z" />
    <glyph glyph-name="y" unicode="y" horiz-adv-x="968" 
d="M152 -446h-207l334 532l-254 825h204l164 -641h4l359 641h209z" />
    <glyph glyph-name="z" unicode="z" horiz-adv-x="913" 
d="M-61 20l602 736h-480l23 155h780l-4 -20l-604 -735h502l-21 -156h-800z" />
    <glyph glyph-name="braceleft" unicode="{" horiz-adv-x="686" 
d="M6 520l21 139h10q72 0 122.5 60t65.5 164l51 366q17 123 89.5 191.5t187.5 68.5h139l-20 -139h-92q-60 0 -96.5 -44t-47.5 -126l-47 -340q-18 -119 -77 -188t-146 -80v-4q76 -9 119 -83t28 -192l-49 -340q-12 -84 9.5 -123.5t80.5 -39.5h101l-21 -140h-133
q-115 0 -170.5 72t-38.5 197l51 366q28 215 -118 215h-19z" />
    <glyph glyph-name="bar" unicode="|" horiz-adv-x="477" 
d="M322 -528h-166v2111h166v-2111z" />
    <glyph glyph-name="braceright" unicode="}" horiz-adv-x="686" 
d="M692 659l-18 -139h-10q-74 0 -125 -59.5t-64 -163.5l-53 -367q-17 -123 -89.5 -191.5t-187.5 -68.5h-137l19 140h94q58 0 94 44t47 126l47 339q18 119 77.5 188.5t145.5 80.5v4q-77 9 -119.5 83t-25.5 191l47 340q12 84 -9.5 124t-80.5 40h-98l20 139h131
q115 0 170.5 -71.5t38.5 -196.5l-49 -367q-15 -105 14.5 -160t102.5 -55h18z" />
    <glyph glyph-name="asciitilde" unicode="~" horiz-adv-x="1433" 
d="M270 479l-18 -2l-98 68q72 112 147 164.5t162 52.5q59 0 112.5 -15t93.5 -37t77.5 -44t80 -37t86.5 -15q115 0 201 140l16 2l99 -68q-70 -112 -144.5 -164.5t-162.5 -52.5q-59 0 -111.5 15.5t-92 37.5t-77 44t-81.5 37.5t-91 15.5q-112 0 -199 -142z" />
    <glyph glyph-name="uni00A0" unicode="&#xa0;" horiz-adv-x="608" 
 />
    <glyph glyph-name="exclamdown" unicode="&#xa1;" horiz-adv-x="663" 
d="M397 950q55 0 93 -37.5t38 -91.5t-38 -91.5t-93 -37.5t-93 37.5t-38 91.5t38 91.5t93 37.5zM268 522h178l-139 -1042h-194z" />
    <glyph glyph-name="cent" unicode="&#xa2;" horiz-adv-x="1433" 
d="M909 295l19 2l123 -88q-149 -213 -377 -242l-21 -147h-143l20 145q-158 22 -247.5 131t-89.5 279q0 146 61 271.5t170 206t244 95.5l20 146h146l-21 -152q213 -40 303 -242l-147 -82l-17 7q-61 128 -164 155l-90 -647q114 29 211 162zM381 385q0 -103 46.5 -170
t125.5 -86l92 653q-116 -29 -190 -141.5t-74 -255.5z" />
    <glyph glyph-name="sterling" unicode="&#xa3;" horiz-adv-x="1433" 
d="M1098 0h-955l25 180h143q79 88 103 260l30 230h-194l20 147h197l25 180q32 232 159.5 362t319.5 130q111 0 197 -35.5t139 -97.5l-125 -135l-15 4q-76 92 -206 92q-110 0 -183 -85t-94 -247l-22 -168h317l-21 -147h-319l-27 -203q-25 -177 -112 -287h645z" />
    <glyph glyph-name="currency" unicode="&#xa4;" horiz-adv-x="1433" 
d="M414 209l-193 -193l-104 105l190 192q-102 133 -102 320q0 177 96 309l-184 184l104 105l182 -184q136 102 316 102q182 0 315 -105l185 187l102 -105l-184 -186q98 -131 98 -307q0 -187 -105 -320l191 -192l-102 -105l-193 195q-134 -98 -307 -98t-305 96zM721 289
q138 0 229.5 97.5t91.5 246.5q0 147 -91.5 243.5t-229.5 96.5q-141 0 -231.5 -96t-90.5 -244q0 -150 90.5 -247t231.5 -97z" />
    <glyph glyph-name="yen" unicode="&#xa5;" horiz-adv-x="1433" 
d="M1176 1450h227l-543 -653h268l-20 -146h-328l-26 -186h327l-20 -146h-328l-45 -319h-196l45 319h-328l20 146h328l27 186h-328l20 146h271l-359 653h213l299 -608h7z" />
    <glyph glyph-name="brokenbar" unicode="&#xa6;" horiz-adv-x="477" 
d="M322 680h-166v903h166v-903zM322 -528h-166v905h166v-905z" />
    <glyph glyph-name="section" unicode="&#xa7;" horiz-adv-x="1159" 
d="M633 971l155 -80q195 -94 195 -258q0 -101 -59.5 -185.5t-155.5 -121.5q104 -84 104 -222q0 -158 -131 -268t-321 -110q-154 0 -258.5 62.5t-138.5 176.5l159 86l17 -6q22 -79 84 -121.5t155 -42.5q107 0 174.5 57t67.5 148q0 94 -121 154l-215 110q-99 47 -145.5 109.5
t-46.5 146.5q0 97 62 178t165 119q-96 87 -96 221q0 160 119 262.5t305 102.5q130 0 225 -54.5t123 -144.5l-146 -80l-18 2q-22 58 -75 89.5t-130 31.5q-96 0 -154.5 -50t-58.5 -134q0 -54 37 -95.5t123 -82.5zM485 473l162 -80q62 17 105 77t43 130q0 56 -36 96t-116 76
l-131 57q-71 -11 -123.5 -69t-52.5 -129q0 -48 32.5 -82.5t116.5 -75.5z" />
    <glyph glyph-name="dieresis" unicode="&#xa8;" horiz-adv-x="735" 
d="M293 1120q-53 0 -87 33.5t-34 85.5q0 48 36 83.5t85 35.5t83 -34.5t34 -84.5q0 -53 -32.5 -86t-84.5 -33zM664 1120q-52 0 -86.5 33.5t-34.5 85.5q0 48 36 83.5t85 35.5q48 0 83 -35t35 -84q0 -52 -33.5 -85.5t-84.5 -33.5z" />
    <glyph glyph-name="copyright" unicode="&#xa9;" horiz-adv-x="1931" 
d="M956 -39q-160 0 -302.5 59t-244.5 160.5t-161.5 242.5t-59.5 300t59.5 301.5t161.5 244t244.5 161t302.5 59.5q159 0 301.5 -59.5t244 -161t161 -244t59.5 -301.5t-59.5 -300t-161 -242.5t-244 -160.5t-301.5 -59zM954 88q174 0 319 84t228.5 230t83.5 321
q0 132 -49 250.5t-133 203.5t-200.5 135t-246.5 50q-174 0 -319 -84.5t-228 -231.5t-83 -323q0 -175 83 -321t227.5 -230t317.5 -84zM958 279q-183 0 -304.5 123.5t-121.5 318.5q0 197 121 322.5t305 125.5q122 0 224 -56.5t161 -162.5l-108 -71l-18 4q-48 73 -110 108
t-149 35q-119 0 -193.5 -84t-74.5 -221q0 -135 75.5 -217t192.5 -82q87 0 146.5 32.5t112.5 108.5l20 6l106 -77q-151 -213 -385 -213z" />
    <glyph glyph-name="ordfeminine" unicode="&#xaa;" horiz-adv-x="731" 
d="M274 891q-87 0 -138.5 63t-51.5 172q0 144 79 250.5t197 106.5q54 0 99 -29t69 -82l13 86h198l-77 -545h-201l4 19q2 8 5.5 29t6.5 36q-37 -51 -91.5 -78.5t-111.5 -27.5zM369 1057q56 0 95.5 43.5t39.5 109.5q0 47 -26 76t-66 29q-52 0 -90.5 -45.5t-38.5 -114.5
q0 -44 24 -71t62 -27z" />
    <glyph glyph-name="guillemotleft" unicode="&#xab;" horiz-adv-x="985" 
d="M371 129l-109 -70l-221 402l334 401l90 -69v-13l-256 -319l166 -320zM737 129l-110 -70l-219 402l331 401l90 -69v-13l-254 -319l166 -320z" />
    <glyph glyph-name="logicalnot" unicode="&#xac;" horiz-adv-x="1433" 
d="M135 553v137h1102v-497h-137v360h-965z" />
    <glyph glyph-name="uni00AD" unicode="&#xad;" horiz-adv-x="655" 
d="M479 381h-467l21 147h467z" />
    <glyph glyph-name="registered" unicode="&#xae;" horiz-adv-x="1241" 
d="M639 563q-194 0 -330.5 134t-136.5 327t136.5 329t330.5 136t330.5 -136t136.5 -329t-136.5 -327t-330.5 -134zM639 637q161 0 274 113.5t113 273.5q0 161 -113 274t-274 113t-275 -113t-114 -274q0 -160 114 -273.5t275 -113.5zM819 1124q0 -101 -94 -133l145 -205
l-4 -10h-100l-137 201h-58v-201h-92v498h164q176 0 176 -150zM571 1198v-145h60q96 0 96 71q0 74 -96 74h-60z" />
    <glyph glyph-name="macron" unicode="&#xaf;" horiz-adv-x="692" 
d="M731 1174h-567l16 139h570z" />
    <glyph glyph-name="degree" unicode="&#xb0;" horiz-adv-x="819" 
d="M410 868q-134 0 -222 88t-88 222q0 135 88 223t222 88q132 0 220.5 -88.5t88.5 -222.5q0 -133 -88.5 -221.5t-220.5 -88.5zM410 973q84 0 141 59t57 146q0 88 -56.5 147t-141.5 59q-86 0 -142.5 -59t-56.5 -147q0 -87 56.5 -146t142.5 -59z" />
    <glyph glyph-name="plusminus" unicode="&#xb1;" horiz-adv-x="1433" 
d="M774 856h483v-137h-483v-318h-137v318h-481v137h481v320h137v-320zM1257 123h-1103v139h1103v-139z" />
    <glyph glyph-name="uni00B2" unicode="&#xb2;" horiz-adv-x="784" 
d="M666 942h-588l4 25l270 256q139 131 194.5 205t55.5 141q0 46 -26.5 71t-75.5 25q-125 0 -174 -137l-23 -10l-131 22q90 264 350 264q109 0 175.5 -59t66.5 -154q0 -180 -246 -397l-67 -59q-21 -19 -80 -64l-4 -2q65 8 133 8h184z" />
    <glyph glyph-name="uni00B3" unicode="&#xb3;" horiz-adv-x="784" 
d="M403 903q-138 0 -210.5 67t-69.5 191l135 21l18 -15q-1 -61 34 -96t96 -35q72 0 117.5 47t45.5 123q0 107 -139 107h-33l17 108h22q81 0 127.5 42.5t46.5 113.5q0 46 -27 70t-77 24q-56 0 -98 -31t-62 -88l-22 -10l-125 27q37 112 123.5 173.5t205.5 61.5
q110 0 176 -54.5t66 -145.5q0 -83 -49 -146.5t-131 -89.5q63 -10 98 -57.5t35 -118.5q0 -122 -92 -205.5t-228 -83.5z" />
    <glyph glyph-name="acute" unicode="&#xb4;" horiz-adv-x="550" 
d="M305 1094h-153l276 376h197l6 -14z" />
    <glyph glyph-name="uni00B5" unicode="&#xb5;" horiz-adv-x="1134" 
d="M156 -446h-183l191 1357h182l-74 -524q-19 -134 22.5 -197t145.5 -63q114 0 199.5 91.5t105.5 240.5l64 452h182l-106 -745q-3 -30 5.5 -40.5t33.5 -10.5q26 0 59 16l14 -8l-18 -133q-73 -23 -141 -23q-71 0 -106.5 40t-26.5 116l2 31q-64 -93 -152.5 -143t-177.5 -50
q-92 0 -154 62z" />
    <glyph glyph-name="paragraph" unicode="&#xb6;" horiz-adv-x="1286" 
d="M575 -446h-169l153 1091q-171 2 -276 95t-105 243q0 206 149.5 336.5t389.5 130.5h536l-266 -1896h-170l246 1749h-242z" />
    <glyph glyph-name="periodcentered" unicode="&#xb7;" horiz-adv-x="579" 
d="M246 467q-55 0 -93 37.5t-38 91.5t38 91.5t93 37.5q54 0 92.5 -37.5t38.5 -91.5t-38 -91.5t-93 -37.5z" />
    <glyph glyph-name="cedilla" unicode="&#xb8;" horiz-adv-x="571" 
d="M143 -473q-118 0 -204 49l45 90l18 6q62 -45 145 -45q54 0 86.5 24.5t32.5 65.5q0 62 -96 62q-36 0 -90 -15l-37 37l152 199h108l-113 -150q34 9 66 9q66 0 108 -36.5t42 -94.5q0 -90 -73 -145.5t-190 -55.5z" />
    <glyph glyph-name="uni00B9" unicode="&#xb9;" horiz-adv-x="784" 
d="M502 942h-152l76 561q9 55 27 115h-2q-51 -34 -80 -47l-103 -55l-16 6l33 155l297 135h43z" />
    <glyph glyph-name="ordmasculine" unicode="&#xba;" horiz-adv-x="729" 
d="M365 891q-123 0 -201 71.5t-78 186.5q0 137 102 235.5t248 98.5q126 0 202.5 -71t76.5 -187q0 -136 -103 -235t-247 -99zM381 1061q54 0 94.5 44t40.5 105q0 47 -25.5 76t-68.5 29q-57 0 -97 -45.5t-40 -108.5q0 -44 26.5 -72t69.5 -28z" />
    <glyph glyph-name="guillemotright" unicode="&#xbb;" horiz-adv-x="985" 
d="M444 461l-333 -402l-91 70v12l254 320l-163 319l4 13l108 69zM809 461l-332 -402l-90 70v12l254 320l-166 319l6 13l109 69z" />
    <glyph glyph-name="onequarter" unicode="&#xbc;" horiz-adv-x="1748" 
d="M1245 1526h193l-1043 -1600h-194zM408 614h-152l76 562q10 61 26 114h-2q-51 -34 -80 -47l-104 -55l-14 6l32 156l297 135h43zM1360 0h-152l25 170h-422l12 86l525 606h133l-78 -557h98l-18 -135h-99zM1233 549l-213 -244h233l19 152q16 110 41 200l-2 -2
q-33 -54 -78 -106z" />
    <glyph glyph-name="onehalf" unicode="&#xbd;" horiz-adv-x="1748" 
d="M1223 1526h192l-1042 -1600h-195zM387 614h-154l78 562q2 22 25 114h-2q-51 -34 -78 -47l-104 -55l-17 6l35 156l295 135h45zM1505 0h-590l5 25l272 256q139 131 194.5 205t55.5 141q0 45 -27.5 70.5t-75.5 25.5q-125 0 -174 -137l-24 -11l-129 23q90 264 350 264
q109 0 175.5 -59t66.5 -154q0 -180 -246 -397l-68 -59q-21 -19 -80 -64l-4 -2q65 8 133 8h185z" />
    <glyph glyph-name="threequarters" unicode="&#xbe;" horiz-adv-x="1748" 
d="M1313 1526h192l-1042 -1600h-195zM340 578q-138 0 -211 67t-70 191l136 18l18 -12q-1 -62 34 -96.5t97 -34.5q72 0 117 46.5t45 121.5q0 108 -139 108h-33l16 109h25q79 0 126.5 42t47.5 113q0 44 -28.5 68t-76.5 24q-57 0 -99 -30.5t-62 -87.5l-23 -8l-125 24
q37 112 124 174t206 62q112 0 177 -54t65 -145q0 -84 -49 -147.5t-130 -88.5q61 -10 96 -57.5t35 -118.5q0 -122 -91.5 -205t-227.5 -83zM1427 0h-151l22 170h-419l12 86l524 606h133l-78 -557h99l-19 -135h-98zM1300 549l-213 -244h234l18 152q16 110 41 200l-2 -2
q-33 -54 -78 -106z" />
    <glyph glyph-name="questiondown" unicode="&#xbf;" horiz-adv-x="1081" 
d="M643 950q54 0 91.5 -37.5t37.5 -91.5t-37.5 -91.5t-91.5 -37.5q-55 0 -93 37.5t-38 91.5t38 91.5t93 37.5zM524 522h176l-12 -106q-12 -98 -61.5 -176t-149.5 -158q-109 -77 -159 -146.5t-50 -164.5q0 -75 50.5 -121.5t138.5 -46.5q103 0 174 57t104 160l37 8l143 -31
q-56 -169 -179.5 -262.5t-293.5 -93.5q-167 0 -266.5 86t-99.5 225q0 132 62 231.5t184 192.5q101 69 136.5 117.5t49.5 134.5z" />
    <glyph glyph-name="Agrave" unicode="&#xc0;" horiz-adv-x="1384" 
d="M795 1839l192 -274h-145l-242 260l10 14h185zM1272 0h-207l-96 367h-680l-199 -367h-223l823 1450h174zM612 963l-235 -435h549l-113 430q-25 87 -63 263h-5q-82 -164 -133 -258z" />
    <glyph glyph-name="Aacute" unicode="&#xc1;" horiz-adv-x="1384" 
d="M1018 1839l6 -14l-279 -260h-151l229 274h195zM1272 0h-207l-96 367h-680l-199 -367h-223l823 1450h174zM612 963l-235 -435h549l-113 430q-25 87 -63 263h-5q-82 -164 -133 -258z" />
    <glyph glyph-name="Acircumflex" unicode="&#xc2;" horiz-adv-x="1384" 
d="M819 1759l-196 -194h-140l-8 16l254 258h195l176 -258l-15 -16h-129zM1272 0h-207l-96 367h-680l-199 -367h-223l823 1450h174zM612 963l-235 -435h549l-113 430q-25 87 -63 263h-5q-82 -164 -133 -258z" />
    <glyph glyph-name="Atilde" unicode="&#xc3;" horiz-adv-x="1384" 
d="M582 1591l-17 -12h-116q29 108 92 174t137 66q41 0 93.5 -25.5t100.5 -50.5t80 -25q58 0 86 88l19 13h112q-29 -107 -92.5 -173.5t-136.5 -66.5q-47 0 -98 25t-97 50t-79 25q-57 0 -84 -88zM1272 0h-207l-96 367h-680l-199 -367h-223l823 1450h174zM612 963l-235 -435
h549l-113 430q-25 87 -63 263h-5q-82 -164 -133 -258z" />
    <glyph glyph-name="Adieresis" unicode="&#xc4;" horiz-adv-x="1384" 
d="M608 1612q-51 0 -86 34.5t-35 86.5q0 47 36 82.5t85 35.5t83 -35t34 -83q0 -53 -32.5 -87t-84.5 -34zM1016 1612q-50 0 -84.5 34.5t-34.5 86.5q0 47 36 82.5t83 35.5q49 0 85 -35.5t36 -82.5q0 -53 -34.5 -87t-86.5 -34zM1272 0h-207l-96 367h-680l-199 -367h-223
l823 1450h174zM612 963l-235 -435h549l-113 430q-25 87 -63 263h-5q-82 -164 -133 -258z" />
    <glyph glyph-name="Aring" unicode="&#xc5;" horiz-adv-x="1384" 
d="M788 1546q-75 0 -125.5 47.5t-50.5 120.5q0 94 67.5 161t162.5 67q75 0 125.5 -48.5t50.5 -121.5q0 -92 -68 -159t-162 -67zM831 1860q-56 0 -95.5 -39.5t-39.5 -94.5q0 -44 29 -72t74 -28q56 0 95.5 39t39.5 94q0 44 -29.5 72.5t-73.5 28.5zM1272 0h-207l-96 367h-680
l-199 -367h-223l823 1450h174zM612 963l-235 -435h549l-113 430q-25 87 -63 263h-5q-82 -164 -133 -258z" />
    <glyph glyph-name="AE" unicode="&#xc6;" horiz-adv-x="1900" 
d="M1700 655h-617l-67 -479h667l-45 -176h-843l51 367h-486l-262 -367h-231l1048 1450h916l6 -176h-668l-63 -445h616zM778 952l-307 -424h397l60 426q23 144 61 326h-4q-72 -131 -207 -328z" />
    <glyph glyph-name="Ccedilla" unicode="&#xc7;" horiz-adv-x="1609" 
d="M1292 434l35 4l125 -96q-254 -352 -639 -379l-86 -113q35 9 66 9q66 0 107.5 -36.5t41.5 -94.5q0 -91 -72.5 -146t-189.5 -55q-119 0 -205 49l45 90l19 6q62 -45 145 -45q54 0 86.5 24.5t32.5 65.5q0 62 -96 62q-37 0 -91 -15l-36 37l122 160q-277 14 -447.5 192
t-170.5 457q0 179 67.5 341.5t181.5 280.5t272 187.5t331 69.5q224 0 379.5 -98t234.5 -291l-151 -90l-33 12q-61 144 -168.5 213.5t-267.5 69.5q-129 0 -247 -54.5t-203.5 -146t-136 -218t-50.5 -263.5q0 -212 129 -345t336 -133q169 0 298.5 70t235.5 219z" />
    <glyph glyph-name="Egrave" unicode="&#xc8;" horiz-adv-x="1159" 
d="M889 1565h-146l-241 260l10 14h184zM53 0l205 1450h832l6 -176h-668l-63 -445h616l-23 -174h-616l-68 -479h668l-45 -176h-844z" />
    <glyph glyph-name="Eacute" unicode="&#xc9;" horiz-adv-x="1159" 
d="M649 1565h-151l229 274h195l6 -14zM53 0l205 1450h832l6 -176h-668l-63 -445h616l-23 -174h-616l-68 -479h668l-45 -176h-844z" />
    <glyph glyph-name="Ecircumflex" unicode="&#xca;" horiz-adv-x="1159" 
d="M858 1565l-137 194l-197 -194h-139l-8 16l254 258h194l176 -258l-14 -16h-129zM53 0l205 1450h832l6 -176h-668l-63 -445h616l-23 -174h-616l-68 -479h668l-45 -176h-844z" />
    <glyph glyph-name="Edieresis" unicode="&#xcb;" horiz-adv-x="1159" 
d="M512 1612q-51 0 -86 34.5t-35 86.5q0 47 36 82.5t85 35.5t83 -35t34 -83q0 -53 -32.5 -87t-84.5 -34zM920 1612q-50 0 -84.5 34.5t-34.5 86.5q0 47 36 82.5t83 35.5q49 0 84.5 -35t35.5 -83q0 -53 -34 -87t-86 -34zM53 0l205 1450h832l6 -176h-668l-63 -445h616l-23 -174
h-616l-68 -479h668l-45 -176h-844z" />
    <glyph glyph-name="Igrave" unicode="&#xcc;" horiz-adv-x="546" 
d="M547 1565h-146l-241 260l10 14h184zM53 0l205 1450h197l-205 -1450h-197z" />
    <glyph glyph-name="Iacute" unicode="&#xcd;" horiz-adv-x="546" 
d="M305 1565h-151l229 274h195l6 -14zM53 0l205 1450h197l-205 -1450h-197z" />
    <glyph glyph-name="Icircumflex" unicode="&#xce;" horiz-adv-x="546" 
d="M516 1565l-137 194l-197 -194h-139l-8 16l254 258h194l176 -258l-14 -16h-129zM53 0l205 1450h197l-205 -1450h-197z" />
    <glyph glyph-name="Idieresis" unicode="&#xcf;" horiz-adv-x="546" 
d="M168 1612q-51 0 -86 34.5t-35 86.5q0 47 36 82.5t85 35.5t83 -35t34 -83q0 -53 -32.5 -87t-84.5 -34zM575 1612q-50 0 -84 34.5t-34 86.5q0 47 35.5 82.5t82.5 35.5q49 0 85 -35.5t36 -82.5q0 -53 -34 -87t-87 -34zM53 0l205 1450h197l-205 -1450h-197z" />
    <glyph glyph-name="Eth" unicode="&#xd0;" horiz-adv-x="1495" 
d="M256 1450h387q357 0 546 -154.5t189 -445.5q0 -253 -112 -445.5t-321 -298.5t-486 -106h-406l92 657h-129l23 168h129zM274 180h177q349 0 536 174t187 492q0 213 -139 318.5t-425 105.5h-182l-63 -445h383l-25 -168h-381z" />
    <glyph glyph-name="Ntilde" unicode="&#xd1;" horiz-adv-x="1566" 
d="M1051 1579q73 0 136.5 66.5t92.5 173.5h-113l-18 -13q-28 -88 -86 -88q-37 0 -130 50.5t-145 50.5q-74 0 -137 -66t-92 -174h117l16 12q27 88 84 88q33 0 79 -25t97.5 -50t98.5 -25zM248 0h-195l203 1450h147l486 -696q44 -63 239 -351h7q18 150 51 377l94 670h195
l-207 -1477h-74l-555 787l-236 340h-6q-10 -96 -51 -389z" />
    <glyph glyph-name="Ograve" unicode="&#xd2;" horiz-adv-x="1753" 
d="M1229 1565h-146l-241 260l10 14h184zM760 -39q-196 0 -350 82.5t-240 232t-86 340.5q0 142 44.5 275t125.5 240.5t189 188.5t241 125t274 44q300 0 488 -182t188 -473q0 -141 -44.5 -274t-126 -240.5t-189 -188.5t-240.5 -125.5t-274 -44.5zM770 145q175 0 326.5 92
t241 248.5t89.5 337.5q0 216 -132.5 349t-346.5 133q-133 0 -254.5 -54t-209.5 -145t-140.5 -216.5t-52.5 -262.5q0 -214 133.5 -348t345.5 -134z" />
    <glyph glyph-name="Oacute" unicode="&#xd3;" horiz-adv-x="1753" 
d="M987 1565h-151l229 274h195l6 -14zM760 -39q-196 0 -350 82.5t-240 232t-86 340.5q0 142 44.5 275t125.5 240.5t189 188.5t241 125t274 44q300 0 488 -182t188 -473q0 -141 -44.5 -274t-126 -240.5t-189 -188.5t-240.5 -125.5t-274 -44.5zM770 145q175 0 326.5 92
t241 248.5t89.5 337.5q0 216 -132.5 349t-346.5 133q-133 0 -254.5 -54t-209.5 -145t-140.5 -216.5t-52.5 -262.5q0 -214 133.5 -348t345.5 -134z" />
    <glyph glyph-name="Ocircumflex" unicode="&#xd4;" horiz-adv-x="1753" 
d="M1198 1565l-137 194l-197 -194h-139l-8 16l254 258h194l176 -258l-14 -16h-129zM760 -39q-196 0 -350 82.5t-240 232t-86 340.5q0 142 44.5 275t125.5 240.5t189 188.5t241 125t274 44q300 0 488 -182t188 -473q0 -141 -44.5 -274t-126 -240.5t-189 -188.5t-240.5 -125.5
t-274 -44.5zM770 145q175 0 326.5 92t241 248.5t89.5 337.5q0 216 -132.5 349t-346.5 133q-133 0 -254.5 -54t-209.5 -145t-140.5 -216.5t-52.5 -262.5q0 -214 133.5 -348t345.5 -134z" />
    <glyph glyph-name="Otilde" unicode="&#xd5;" horiz-adv-x="1753" 
d="M1182 1579q73 0 136.5 66.5t92.5 173.5h-113l-18 -13q-28 -88 -86 -88q-32 0 -80 25t-100.5 50.5t-93.5 25.5q-74 0 -137.5 -66t-92.5 -174h117l16 12q27 88 84 88q33 0 79 -25t97.5 -50t98.5 -25zM760 -39q-196 0 -350 82.5t-240 232t-86 340.5q0 142 44.5 275
t125.5 240.5t189 188.5t241 125t274 44q300 0 488 -182t188 -473q0 -141 -44.5 -274t-126 -240.5t-189 -188.5t-240.5 -125.5t-274 -44.5zM770 145q175 0 326.5 92t241 248.5t89.5 337.5q0 216 -132.5 349t-346.5 133q-133 0 -254.5 -54t-209.5 -145t-140.5 -216.5
t-52.5 -262.5q0 -214 133.5 -348t345.5 -134z" />
    <glyph glyph-name="Odieresis" unicode="&#xd6;" horiz-adv-x="1753" 
d="M850 1612q-51 0 -86 34.5t-35 86.5q0 47 36 82.5t85 35.5t83 -35t34 -83q0 -53 -32.5 -87t-84.5 -34zM1257 1612q-50 0 -84 34.5t-34 86.5q0 47 35.5 82.5t82.5 35.5q49 0 85 -35.5t36 -82.5q0 -53 -34 -87t-87 -34zM760 -39q-196 0 -350 82.5t-240 232t-86 340.5
q0 142 44.5 275t125.5 240.5t189 188.5t241 125t274 44q300 0 488 -182t188 -473q0 -141 -44.5 -274t-126 -240.5t-189 -188.5t-240.5 -125.5t-274 -44.5zM770 145q175 0 326.5 92t241 248.5t89.5 337.5q0 216 -132.5 349t-346.5 133q-133 0 -254.5 -54t-209.5 -145
t-140.5 -216.5t-52.5 -262.5q0 -214 133.5 -348t345.5 -134z" />
    <glyph glyph-name="multiply" unicode="&#xd7;" horiz-adv-x="1433" 
d="M1096 1102l96 -96l-385 -385l385 -385l-96 -97l-383 385l-385 -385l-97 97l385 385l-385 385l97 96l385 -385z" />
    <glyph glyph-name="Oslash" unicode="&#xd8;" horiz-adv-x="1753" 
d="M1616 1405l-135 -135q153 -176 153 -436q0 -141 -44.5 -274t-126 -240.5t-189 -188.5t-240.5 -125.5t-274 -44.5q-256 0 -438 139l-129 -129l-91 72l136 137q-154 181 -154 436q0 142 44.5 275t125.5 240.5t189 188.5t241 125t274 44q263 0 443 -141l131 131zM291 627
q0 -178 94 -301l875 878q-131 101 -312 101q-133 0 -254.5 -54t-209.5 -145t-140.5 -216.5t-52.5 -262.5zM770 145q175 0 326.5 92t241 248.5t89.5 337.5q0 175 -90 301l-874 -880q129 -99 307 -99z" />
    <glyph glyph-name="Ugrave" unicode="&#xd9;" horiz-adv-x="1472" 
d="M1030 1565h-145l-242 260l10 14h185zM623 -39q-288 0 -412.5 155.5t-83.5 456.5l125 877h197l-123 -870q-32 -225 43.5 -330t263.5 -105q194 0 303 109t143 340l119 856h197l-123 -885q-41 -291 -208.5 -447.5t-440.5 -156.5z" />
    <glyph glyph-name="Uacute" unicode="&#xda;" horiz-adv-x="1472" 
d="M791 1565h-152l229 274h195l6 -14zM623 -39q-288 0 -412.5 155.5t-83.5 456.5l125 877h197l-123 -870q-32 -225 43.5 -330t263.5 -105q194 0 303 109t143 340l119 856h197l-123 -885q-41 -291 -208.5 -447.5t-440.5 -156.5z" />
    <glyph glyph-name="Ucircumflex" unicode="&#xdb;" horiz-adv-x="1472" 
d="M999 1565l-137 194l-196 -194h-140l-8 16l254 258h195l176 -258l-15 -16h-129zM623 -39q-288 0 -412.5 155.5t-83.5 456.5l125 877h197l-123 -870q-32 -225 43.5 -330t263.5 -105q194 0 303 109t143 340l119 856h197l-123 -885q-41 -291 -208.5 -447.5t-440.5 -156.5z
" />
    <glyph glyph-name="Udieresis" unicode="&#xdc;" horiz-adv-x="1472" 
d="M651 1612q-51 0 -86 34.5t-35 86.5q0 47 36 82.5t85 35.5t83 -35t34 -83q0 -53 -32.5 -87t-84.5 -34zM1059 1612q-50 0 -84.5 34.5t-34.5 86.5q0 47 36 82.5t83 35.5q49 0 85 -35.5t36 -82.5q0 -53 -34 -87t-87 -34zM623 -39q-288 0 -412.5 155.5t-83.5 456.5l125 877
h197l-123 -870q-32 -225 43.5 -330t263.5 -105q194 0 303 109t143 340l119 856h197l-123 -885q-41 -291 -208.5 -447.5t-440.5 -156.5z" />
    <glyph glyph-name="Yacute" unicode="&#xdd;" horiz-adv-x="1212" 
d="M649 1565h-151l229 274h195l6 -14zM582 0h-197l84 594l-387 856h213l160 -393q24 -58 70 -164t57 -131h8q156 220 205 293l274 395h225l-628 -856z" />
    <glyph glyph-name="Thorn" unicode="&#xde;" horiz-adv-x="1155" 
d="M250 0h-197l205 1450h197l-41 -283h204q226 0 340.5 -90.5t114.5 -263.5q0 -228 -147.5 -359.5t-403.5 -131.5h-229zM389 997l-72 -505h183q186 0 281.5 78t95.5 229q0 103 -73 150.5t-229 47.5h-186z" />
    <glyph glyph-name="germandbls" unicode="&#xdf;" horiz-adv-x="1150" 
d="M543 -39q-105 0 -203 39l53 156l15 4q56 -33 129 -33q122 0 201 103.5t79 269.5q0 123 -70.5 186.5t-205.5 63.5h-47l20 147h31q121 0 192.5 77.5t71.5 209.5q0 84 -47 131t-131 47q-116 0 -178.5 -75.5t-87.5 -244.5l-209 -1488h-183l209 1486q35 250 146 368t309 118
q159 0 255.5 -89.5t96.5 -238.5q0 -131 -67 -228t-185 -132q129 -22 200 -111t71 -229q0 -150 -61.5 -273.5t-168.5 -193.5t-235 -70z" />
    <glyph glyph-name="agrave" unicode="&#xe0;" horiz-adv-x="1175" 
d="M803 1112h-146l-290 363l8 14h192zM389 -39q-164 0 -262 108t-98 293q0 158 66 294t178 215t243 79q98 0 177.5 -53t121.5 -149l25 163h180l-127 -911h-184l6 37q9 61 18 108q-64 -85 -158 -134.5t-186 -49.5zM438 127q144 0 245 113t101 280q0 119 -65.5 192.5
t-169.5 73.5q-139 0 -234.5 -117.5t-95.5 -295.5q0 -118 58 -182t161 -64z" />
    <glyph glyph-name="aacute" unicode="&#xe1;" horiz-adv-x="1175" 
d="M571 1112h-155l278 377h197l6 -14zM389 -39q-164 0 -262 108t-98 293q0 158 66 294t178 215t243 79q98 0 177.5 -53t121.5 -149l25 163h180l-127 -911h-184l6 37q9 61 18 108q-64 -85 -158 -134.5t-186 -49.5zM438 127q144 0 245 113t101 280q0 119 -65.5 192.5
t-169.5 73.5q-139 0 -234.5 -117.5t-95.5 -295.5q0 -118 58 -182t161 -64z" />
    <glyph glyph-name="acircumflex" unicode="&#xe2;" horiz-adv-x="1175" 
d="M795 1094l-129 278l-207 -278h-142l-8 16l266 360h197l164 -360l-14 -16h-127zM389 -39q-164 0 -262 108t-98 293q0 158 66 294t178 215t243 79q98 0 177.5 -53t121.5 -149l25 163h180l-127 -911h-184l6 37q9 61 18 108q-64 -85 -158 -134.5t-186 -49.5zM438 127
q144 0 245 113t101 280q0 119 -65.5 192.5t-169.5 73.5q-139 0 -234.5 -117.5t-95.5 -295.5q0 -118 58 -182t161 -64z" />
    <glyph glyph-name="atilde" unicode="&#xe3;" horiz-adv-x="1175" 
d="M772 1118q74 0 137 66t92 174h-114l-17 -12q-27 -89 -86 -89q-26 0 -62 16t-67.5 34.5t-71.5 34.5t-73 16q-74 0 -137.5 -66.5t-91.5 -173.5h114l19 12q28 89 84 89q33 0 79 -25.5t97 -50.5t98 -25zM389 -39q-164 0 -262 108t-98 293q0 158 66 294t178 215t243 79
q98 0 177.5 -53t121.5 -149l25 163h180l-127 -911h-184l6 37q9 61 18 108q-64 -85 -158 -134.5t-186 -49.5zM438 127q144 0 245 113t101 280q0 119 -65.5 192.5t-169.5 73.5q-139 0 -234.5 -117.5t-95.5 -295.5q0 -118 58 -182t161 -64z" />
    <glyph glyph-name="adieresis" unicode="&#xe4;" horiz-adv-x="1175" 
d="M457 1120q-52 0 -86.5 33.5t-34.5 85.5q0 48 36 83.5t85 35.5t83.5 -34.5t34.5 -84.5q0 -53 -33 -86t-85 -33zM827 1120q-51 0 -84.5 33.5t-33.5 85.5q0 48 34.5 83.5t83.5 35.5t84 -35t35 -84q0 -52 -34 -85.5t-85 -33.5zM389 -39q-164 0 -262 108t-98 293q0 158 66 294
t178 215t243 79q98 0 177.5 -53t121.5 -149l25 163h180l-127 -911h-184l6 37q9 61 18 108q-64 -85 -158 -134.5t-186 -49.5zM438 127q144 0 245 113t101 280q0 119 -65.5 192.5t-169.5 73.5q-139 0 -234.5 -117.5t-95.5 -295.5q0 -118 58 -182t161 -64z" />
    <glyph glyph-name="aring" unicode="&#xe5;" horiz-adv-x="1175" 
d="M621 1075q-76 0 -126.5 47.5t-50.5 120.5q0 94 67.5 160.5t162.5 66.5q75 0 125.5 -48.5t50.5 -121.5q0 -92 -67.5 -158.5t-161.5 -66.5zM631 1155q56 0 95.5 39t39.5 94q0 44 -29 72.5t-73 28.5q-56 0 -96 -39.5t-40 -94.5q0 -44 29 -72t74 -28zM389 -39
q-164 0 -262 108t-98 293q0 158 66 294t178 215t243 79q98 0 177.5 -53t121.5 -149l25 163h180l-127 -911h-184l6 37q9 61 18 108q-64 -85 -158 -134.5t-186 -49.5zM438 127q144 0 245 113t101 280q0 119 -65.5 192.5t-169.5 73.5q-139 0 -234.5 -117.5t-95.5 -295.5
q0 -118 58 -182t161 -64z" />
    <glyph glyph-name="ae" unicode="&#xe6;" horiz-adv-x="1611" 
d="M229 -39q-117 0 -177 58t-60 153q0 294 610 369l8 61q10 97 -21.5 143t-107.5 46q-147 0 -274 -156l-17 -2l-114 82q80 109 199.5 172t250.5 63q201 0 244 -153h4q64 76 152.5 114.5t187.5 38.5q160 0 259.5 -107.5t99.5 -291.5q0 -67 -17 -127h-684q-2 -18 -2 -57
q0 -113 61 -181.5t152 -68.5q159 0 281 159h16l129 -81q-82 -116 -195 -175t-245 -59q-101 0 -195.5 54t-140.5 132q-119 -103 -211 -144.5t-193 -41.5zM799 555l489 -4q10 113 -45 180.5t-153 67.5t-176 -65.5t-115 -178.5zM299 102q67 0 135 33t162 113q-19 85 -8 168
q-215 -29 -310.5 -80.5t-95.5 -140.5q0 -41 29.5 -67t87.5 -26z" />
    <glyph glyph-name="ccedilla" unicode="&#xe7;" horiz-adv-x="1058" 
d="M750 295l16 2l125 -88q-75 -107 -175 -168.5t-212 -75.5l-86 -115q34 9 65 9q66 0 108 -36.5t42 -94.5q0 -91 -72.5 -146t-189.5 -55q-119 0 -205 49l45 90l18 6q62 -45 146 -45q54 0 86.5 24.5t32.5 65.5q0 62 -97 62q-36 0 -90 -15l-37 37l123 162
q-167 14 -264.5 124.5t-97.5 287.5q0 156 68.5 287.5t191.5 209.5t272 78q133 0 235.5 -64t155.5 -186l-145 -82l-16 7q-43 88 -101.5 127t-138.5 39q-142 0 -238 -120t-96 -286q0 -121 65 -191.5t169 -70.5q87 0 158.5 41t138.5 131z" />
    <glyph glyph-name="egrave" unicode="&#xe8;" horiz-adv-x="1087" 
d="M547 1489l235 -377h-145l-291 363l8 14h193zM930 424h-711q0 -9 -1 -27.5t-1 -27.5q-1 -116 64.5 -184t175.5 -68q80 0 148 37.5t132 121.5h19l127 -81q-80 -115 -194 -174.5t-245 -59.5q-189 0 -301 112t-112 302q0 120 40.5 227t110 183t166.5 120.5t207 44.5
q183 0 287 -106t104 -293q0 -71 -16 -127zM551 799q-106 0 -186 -65t-119 -179l518 -4q9 114 -48.5 181t-164.5 67z" />
    <glyph glyph-name="eacute" unicode="&#xe9;" horiz-adv-x="1087" 
d="M872 1489l7 -14l-326 -363h-156l279 377h196zM930 424h-711q0 -9 -1 -27.5t-1 -27.5q-1 -116 64.5 -184t175.5 -68q80 0 148 37.5t132 121.5h19l127 -81q-80 -115 -194 -174.5t-245 -59.5q-189 0 -301 112t-112 302q0 120 40.5 227t110 183t166.5 120.5t207 44.5
q183 0 287 -106t104 -293q0 -71 -16 -127zM551 799q-106 0 -186 -65t-119 -179l518 -4q9 114 -48.5 181t-164.5 67z" />
    <glyph glyph-name="ecircumflex" unicode="&#xea;" horiz-adv-x="1087" 
d="M645 1372l-207 -278h-141l-8 16l266 360h197l163 -360l-14 -16h-127zM930 424h-711q0 -9 -1 -27.5t-1 -27.5q-1 -116 64.5 -184t175.5 -68q80 0 148 37.5t132 121.5h19l127 -81q-80 -115 -194 -174.5t-245 -59.5q-189 0 -301 112t-112 302q0 120 40.5 227t110 183
t166.5 120.5t207 44.5q183 0 287 -106t104 -293q0 -71 -16 -127zM551 799q-106 0 -186 -65t-119 -179l518 -4q9 114 -48.5 181t-164.5 67z" />
    <glyph glyph-name="edieresis" unicode="&#xeb;" horiz-adv-x="1087" 
d="M438 1120q-52 0 -86.5 33.5t-34.5 85.5q0 48 36 83.5t85 35.5q50 0 84.5 -35t34.5 -84q0 -53 -33.5 -86t-85.5 -33zM809 1120q-51 0 -85 33.5t-34 85.5q0 48 35 83.5t84 35.5t84 -35t35 -84q0 -52 -34 -85.5t-85 -33.5zM930 424h-711q0 -9 -1 -27.5t-1 -27.5
q-1 -116 64.5 -184t175.5 -68q80 0 148 37.5t132 121.5h19l127 -81q-80 -115 -194 -174.5t-245 -59.5q-189 0 -301 112t-112 302q0 120 40.5 227t110 183t166.5 120.5t207 44.5q183 0 287 -106t104 -293q0 -71 -16 -127zM551 799q-106 0 -186 -65t-119 -179l518 -4
q9 114 -48.5 181t-164.5 67z" />
    <glyph glyph-name="igrave" unicode="&#xec;" horiz-adv-x="501" 
d="M461 1112h-146l-290 363l8 14h192zM219 0h-182l127 911h182z" />
    <glyph glyph-name="iacute" unicode="&#xed;" horiz-adv-x="501" 
d="M229 1112h-155l278 377h197l6 -14zM219 0h-182l127 911h182z" />
    <glyph glyph-name="icircumflex" unicode="&#xee;" horiz-adv-x="501" 
d="M453 1094l-129 278l-207 -278h-142l-8 16l266 360h197l164 -360l-14 -16h-127zM219 0h-182l127 911h182z" />
    <glyph glyph-name="idieresis" unicode="&#xef;" horiz-adv-x="501" 
d="M115 1120q-52 0 -86.5 33.5t-34.5 85.5q0 48 36 83.5t85 35.5t83.5 -34.5t34.5 -84.5q0 -53 -33 -86t-85 -33zM485 1120q-51 0 -84.5 33.5t-33.5 85.5q0 48 34.5 83.5t83.5 35.5t84 -35t35 -84q0 -52 -34 -85.5t-85 -33.5zM219 0h-182l127 911h182z" />
    <glyph glyph-name="eth" unicode="&#xf0;" horiz-adv-x="1171" 
d="M1026 1378l-213 -92q103 -160 151 -307.5t48 -306.5q0 -315 -162.5 -513t-421.5 -198q-187 0 -292 109t-105 303q0 156 66.5 289t180.5 210.5t248 77.5q106 0 188.5 -51.5t125.5 -146.5q1 85 -53 210t-144 248l-188 -84l-68 101l184 82q-62 84 -96 123l160 90
q43 -51 110 -138l211 93zM455 127q151 0 251.5 110.5t100.5 274.5q0 123 -70.5 198.5t-187.5 75.5q-145 0 -237.5 -112t-92.5 -287q0 -124 61.5 -192t174.5 -68z" />
    <glyph glyph-name="ntilde" unicode="&#xf1;" horiz-adv-x="1153" 
d="M758 1118q74 0 137 66t92 174h-115l-16 -12q-27 -89 -86 -89q-26 0 -62 16t-67.5 34.5t-71.5 34.5t-73 16q-74 0 -138 -66.5t-92 -173.5h115l18 12q28 89 84 89q27 0 62 -16t64.5 -34.5t70.5 -34.5t78 -16zM37 0l127 911h180l-20 -159q70 96 162 147t190 51
q155 0 227.5 -98.5t46.5 -282.5l-80 -569h-182l74 512q21 148 -20 210t-142 62q-121 0 -210.5 -95t-110.5 -255l-60 -434h-182z" />
    <glyph glyph-name="ograve" unicode="&#xf2;" horiz-adv-x="1161" 
d="M838 1112h-146l-291 363l9 14h192zM467 -39q-192 0 -314 121t-122 311q0 150 74 278t203.5 203.5t283.5 75.5q192 0 313 -119t121 -307q0 -112 -45 -216t-120 -180t-178.5 -121.5t-215.5 -45.5zM475 127q147 0 255 115.5t108 271.5q0 120 -70 195t-182 75
q-153 0 -260 -113.5t-107 -271.5q0 -120 71 -196t185 -76z" />
    <glyph glyph-name="oacute" unicode="&#xf3;" horiz-adv-x="1161" 
d="M608 1112h-155l278 377h197l6 -14zM467 -39q-192 0 -314 121t-122 311q0 150 74 278t203.5 203.5t283.5 75.5q192 0 313 -119t121 -307q0 -112 -45 -216t-120 -180t-178.5 -121.5t-215.5 -45.5zM475 127q147 0 255 115.5t108 271.5q0 120 -70 195t-182 75
q-153 0 -260 -113.5t-107 -271.5q0 -120 71 -196t185 -76z" />
    <glyph glyph-name="ocircumflex" unicode="&#xf4;" horiz-adv-x="1161" 
d="M829 1094l-129 278l-206 -278h-142l-8 16l266 360h197l164 -360l-15 -16h-127zM467 -39q-192 0 -314 121t-122 311q0 150 74 278t203.5 203.5t283.5 75.5q192 0 313 -119t121 -307q0 -112 -45 -216t-120 -180t-178.5 -121.5t-215.5 -45.5zM475 127q147 0 255 115.5
t108 271.5q0 120 -70 195t-182 75q-153 0 -260 -113.5t-107 -271.5q0 -120 71 -196t185 -76z" />
    <glyph glyph-name="otilde" unicode="&#xf5;" horiz-adv-x="1161" 
d="M809 1118q74 0 137 66t92 174h-114l-17 -12q-27 -89 -86 -89q-37 0 -130 50.5t-144 50.5q-74 0 -138 -66.5t-92 -173.5h115l19 12q28 89 84 89q33 0 79 -25.5t97 -50.5t98 -25zM467 -39q-192 0 -314 121t-122 311q0 150 74 278t203.5 203.5t283.5 75.5q192 0 313 -119
t121 -307q0 -112 -45 -216t-120 -180t-178.5 -121.5t-215.5 -45.5zM475 127q147 0 255 115.5t108 271.5q0 120 -70 195t-182 75q-153 0 -260 -113.5t-107 -271.5q0 -120 71 -196t185 -76z" />
    <glyph glyph-name="odieresis" unicode="&#xf6;" horiz-adv-x="1161" 
d="M492 1120q-52 0 -86.5 33.5t-34.5 85.5q0 48 36 83.5t85 35.5t83.5 -34.5t34.5 -84.5q0 -53 -33 -86t-85 -33zM862 1120q-51 0 -85 33.5t-34 85.5q0 48 35 83.5t84 35.5q50 0 84.5 -35t34.5 -84q0 -52 -34 -85.5t-85 -33.5zM467 -39q-192 0 -314 121t-122 311
q0 150 74 278t203.5 203.5t283.5 75.5q192 0 313 -119t121 -307q0 -112 -45 -216t-120 -180t-178.5 -121.5t-215.5 -45.5zM475 127q147 0 255 115.5t108 271.5q0 120 -70 195t-182 75q-153 0 -260 -113.5t-107 -271.5q0 -120 71 -196t185 -76z" />
    <glyph glyph-name="divide" unicode="&#xf7;" horiz-adv-x="1433" 
d="M688 842q-52 0 -88.5 36t-36.5 89t36.5 89t88.5 36t88.5 -36t36.5 -89t-36.5 -89t-88.5 -36zM1239 553h-1102v137h1102v-137zM688 152q-52 0 -88.5 35.5t-36.5 86.5q0 52 36.5 88.5t88.5 36.5t88.5 -36.5t36.5 -88.5q0 -51 -36.5 -86.5t-88.5 -35.5z" />
    <glyph glyph-name="oslash" unicode="&#xf8;" horiz-adv-x="1161" 
d="M467 -39q-149 0 -268 82l-72 -72l-86 70l80 80q-90 114 -90 272q0 150 74 278t203.5 203.5t283.5 75.5q153 0 272 -82l72 72l82 -72l-78 -77q86 -109 86 -267q0 -112 -45 -216t-120 -180t-178.5 -121.5t-215.5 -45.5zM254 254l481 485q-62 47 -149 47q-153 0 -261 -114.5
t-108 -272.5q0 -79 37 -145zM475 125q147 0 255 116.5t108 272.5q0 82 -33 141l-479 -483q66 -47 149 -47z" />
    <glyph glyph-name="ugrave" unicode="&#xf9;" horiz-adv-x="1126" 
d="M770 1112h-145l-291 363l8 14h193zM354 -39q-152 0 -223.5 99.5t-44.5 285.5l80 565h184l-78 -528q-38 -256 148 -256q111 0 198 94t107 242l63 448h183l-127 -911h-182l22 152q-68 -92 -156.5 -141.5t-173.5 -49.5z" />
    <glyph glyph-name="uacute" unicode="&#xfa;" horiz-adv-x="1126" 
d="M541 1112h-156l279 377h196l6 -14zM354 -39q-152 0 -223.5 99.5t-44.5 285.5l80 565h184l-78 -528q-38 -256 148 -256q111 0 198 94t107 242l63 448h183l-127 -911h-182l22 152q-68 -92 -156.5 -141.5t-173.5 -49.5z" />
    <glyph glyph-name="ucircumflex" unicode="&#xfb;" horiz-adv-x="1126" 
d="M762 1094l-129 278l-207 -278h-141l-9 16l267 360h196l164 -360l-14 -16h-127zM354 -39q-152 0 -223.5 99.5t-44.5 285.5l80 565h184l-78 -528q-38 -256 148 -256q111 0 198 94t107 242l63 448h183l-127 -911h-182l22 152q-68 -92 -156.5 -141.5t-173.5 -49.5z" />
    <glyph glyph-name="udieresis" unicode="&#xfc;" horiz-adv-x="1126" 
d="M426 1120q-52 0 -86.5 33.5t-34.5 85.5q0 48 36 83.5t85 35.5q50 0 84.5 -35t34.5 -84q0 -53 -33.5 -86t-85.5 -33zM797 1120q-51 0 -85 33.5t-34 85.5q0 48 35 83.5t84 35.5t83.5 -34.5t34.5 -84.5q0 -52 -33.5 -85.5t-84.5 -33.5zM354 -39q-152 0 -223.5 99.5
t-44.5 285.5l80 565h184l-78 -528q-38 -256 148 -256q111 0 198 94t107 242l63 448h183l-127 -911h-182l22 152q-68 -92 -156.5 -141.5t-173.5 -49.5z" />
    <glyph glyph-name="yacute" unicode="&#xfd;" horiz-adv-x="968" 
d="M459 1112h-156l279 377h196l6 -14zM152 -446h-207l334 532l-254 825h204l164 -641h4l359 641h209z" />
    <glyph glyph-name="thorn" unicode="&#xfe;" horiz-adv-x="1165" 
d="M156 -446h-183l275 1947h182l-65 -452q-35 -245 -43 -293q72 93 164.5 143.5t191.5 50.5q161 0 257.5 -108t96.5 -291q0 -161 -66.5 -297t-179.5 -214.5t-245 -78.5q-95 0 -178.5 51t-122.5 135l-43 -299zM510 127q142 0 238 118t96 296q0 117 -58.5 181t-162.5 64
q-145 0 -249 -117t-104 -284q0 -119 66 -188.5t174 -69.5z" />
    <glyph glyph-name="ydieresis" unicode="&#xff;" horiz-adv-x="968" 
d="M344 1120q-52 0 -86.5 33.5t-34.5 85.5q0 48 36 83.5t85 35.5q50 0 84.5 -35t34.5 -84q0 -53 -33.5 -86t-85.5 -33zM715 1120q-51 0 -85 33.5t-34 85.5q0 48 35 83.5t84 35.5t84 -35t35 -84q0 -52 -34 -85.5t-85 -33.5zM152 -446h-207l334 532l-254 825h204l164 -641h4
l359 641h209z" />
    <glyph glyph-name="Amacron" unicode="&#x100;" horiz-adv-x="1384" 
d="M537 1776h567l-21 -142h-567zM1272 0h-207l-96 367h-680l-199 -367h-223l823 1450h174zM612 963l-235 -435h549l-113 430q-25 87 -63 263h-5q-82 -164 -133 -258z" />
    <glyph glyph-name="amacron" unicode="&#x101;" horiz-adv-x="1175" 
d="M915 1174h-567l19 139h567zM389 -39q-164 0 -262 108t-98 293q0 158 66 294t178 215t243 79q98 0 177.5 -53t121.5 -149l25 163h180l-127 -911h-184l6 37q9 61 18 108q-64 -85 -158 -134.5t-186 -49.5zM438 127q144 0 245 113t101 280q0 119 -65.5 192.5t-169.5 73.5
q-139 0 -234.5 -117.5t-95.5 -295.5q0 -118 58 -182t161 -64z" />
    <glyph glyph-name="Abreve" unicode="&#x102;" horiz-adv-x="1384" 
d="M780 1565q-143 0 -223.5 71.5t-71.5 192.5l17 16h123q6 -71 47 -104t123 -33q83 0 134 33t77 104h120l15 -16q-26 -122 -123 -193t-238 -71zM1272 0h-207l-96 367h-680l-199 -367h-223l823 1450h174zM612 963l-235 -435h549l-113 430q-25 87 -63 263h-5
q-82 -164 -133 -258z" />
    <glyph glyph-name="abreve" unicode="&#x103;" horiz-adv-x="1175" 
d="M608 1104q-142 0 -222 71.5t-73 192.5l17 16h123q6 -72 47 -104.5t125 -32.5q82 0 131.5 32.5t74.5 104.5h123l15 -16q-26 -122 -123 -193t-238 -71zM389 -39q-164 0 -262 108t-98 293q0 158 66 294t178 215t243 79q98 0 177.5 -53t121.5 -149l25 163h180l-127 -911h-184
l6 37q9 61 18 108q-64 -85 -158 -134.5t-186 -49.5zM438 127q144 0 245 113t101 280q0 119 -65.5 192.5t-169.5 73.5q-139 0 -234.5 -117.5t-95.5 -295.5q0 -118 58 -182t161 -64z" />
    <glyph glyph-name="Aogonek" unicode="&#x104;" horiz-adv-x="1384" 
d="M1214 -301h11l26 -109q-85 -49 -188 -49q-81 0 -130.5 41.5t-49.5 112.5q0 82 68.5 162t166.5 143h-53l-96 367h-680l-199 -367h-223l823 1450h174l408 -1450h-45q-201 -144 -201 -264q0 -35 22.5 -55.5t59.5 -20.5q61 0 106 39zM612 963l-235 -435h549l-113 430
q-25 87 -63 263h-5q-82 -164 -133 -258z" />
    <glyph glyph-name="aogonek" unicode="&#x105;" horiz-adv-x="1175" 
d="M893 0h-33q-201 -144 -201 -264q0 -35 22.5 -55.5t59.5 -20.5q62 0 107 39h10l27 -109q-85 -49 -189 -49q-81 0 -130.5 41.5t-49.5 112.5q0 82 68.5 162t167.5 143h-43l6 37q9 61 18 108q-64 -85 -158 -134.5t-186 -49.5q-164 0 -262 108t-98 293q0 158 66 294t178 215
t243 79q98 0 177.5 -53t121.5 -149l25 163h180zM438 127q144 0 245 113t101 280q0 119 -65.5 192.5t-169.5 73.5q-139 0 -234.5 -117.5t-95.5 -295.5q0 -118 58 -182t161 -64z" />
    <glyph glyph-name="Cacute" unicode="&#x106;" horiz-adv-x="1609" 
d="M940 1565h-152l230 274h194l7 -14zM743 -39q-294 0 -476.5 179.5t-182.5 469.5q0 179 67.5 341.5t181.5 280.5t272 187.5t331 69.5q224 0 379.5 -98t234.5 -291l-151 -90l-33 12q-61 144 -168.5 213.5t-267.5 69.5q-129 0 -247 -54.5t-203.5 -146t-136 -218t-50.5 -263.5
q0 -212 129 -345t336 -133q169 0 298.5 70t235.5 219l35 4l125 -96q-275 -381 -709 -381z" />
    <glyph glyph-name="cacute" unicode="&#x107;" horiz-adv-x="1058" 
d="M569 1112h-155l278 377h197l6 -14zM438 -39q-187 0 -297 112.5t-110 301.5q0 156 68.5 287.5t191.5 209.5t272 78q133 0 235.5 -64t155.5 -186l-145 -82l-16 7q-43 88 -101.5 127t-138.5 39q-142 0 -238 -120t-96 -286q0 -121 65 -191.5t169 -70.5q87 0 158.5 41
t138.5 131l16 2l125 -88q-86 -123 -203.5 -185.5t-249.5 -62.5z" />
    <glyph glyph-name="Ccircumflex" unicode="&#x108;" horiz-adv-x="1609" 
d="M1149 1565l-137 194l-197 -194h-139l-8 16l254 258h194l176 -258l-14 -16h-129zM743 -39q-294 0 -476.5 179.5t-182.5 469.5q0 179 67.5 341.5t181.5 280.5t272 187.5t331 69.5q224 0 379.5 -98t234.5 -291l-151 -90l-33 12q-61 144 -168.5 213.5t-267.5 69.5
q-129 0 -247 -54.5t-203.5 -146t-136 -218t-50.5 -263.5q0 -212 129 -345t336 -133q169 0 298.5 70t235.5 219l35 4l125 -96q-275 -381 -709 -381z" />
    <glyph glyph-name="ccircumflex" unicode="&#x109;" horiz-adv-x="1058" 
d="M791 1094l-129 278l-207 -278h-142l-8 16l266 360h197l164 -360l-14 -16h-127zM438 -39q-187 0 -297 112.5t-110 301.5q0 156 68.5 287.5t191.5 209.5t272 78q133 0 235.5 -64t155.5 -186l-145 -82l-16 7q-43 88 -101.5 127t-138.5 39q-142 0 -238 -120t-96 -286
q0 -121 65 -191.5t169 -70.5q87 0 158.5 41t138.5 131l16 2l125 -88q-86 -123 -203.5 -185.5t-249.5 -62.5z" />
    <glyph glyph-name="Cdotaccent" unicode="&#x10a;" horiz-adv-x="1609" 
d="M1014 1591q-54 0 -90.5 35.5t-36.5 89.5q0 53 36.5 89t90.5 36t90.5 -37t36.5 -90q0 -52 -37 -87.5t-90 -35.5zM743 -39q-294 0 -476.5 179.5t-182.5 469.5q0 179 67.5 341.5t181.5 280.5t272 187.5t331 69.5q224 0 379.5 -98t234.5 -291l-151 -90l-33 12
q-61 144 -168.5 213.5t-267.5 69.5q-129 0 -247 -54.5t-203.5 -146t-136 -218t-50.5 -263.5q0 -212 129 -345t336 -133q169 0 298.5 70t235.5 219l35 4l125 -96q-275 -381 -709 -381z" />
    <glyph glyph-name="cdotaccent" unicode="&#x10b;" horiz-adv-x="1058" 
d="M627 1116q-54 0 -90.5 35.5t-36.5 89.5q0 53 36.5 89t90.5 36t90.5 -37t36.5 -90q0 -52 -36.5 -87.5t-90.5 -35.5zM438 -39q-187 0 -297 112.5t-110 301.5q0 156 68.5 287.5t191.5 209.5t272 78q133 0 235.5 -64t155.5 -186l-145 -82l-16 7q-43 88 -101.5 127t-138.5 39
q-142 0 -238 -120t-96 -286q0 -121 65 -191.5t169 -70.5q87 0 158.5 41t138.5 131l16 2l125 -88q-86 -123 -203.5 -185.5t-249.5 -62.5z" />
    <glyph glyph-name="Ccaron" unicode="&#x10c;" horiz-adv-x="1609" 
d="M1081 1565h-194l-178 276l14 17h131l137 -213l197 213h137l10 -17zM743 -39q-294 0 -476.5 179.5t-182.5 469.5q0 179 67.5 341.5t181.5 280.5t272 187.5t331 69.5q224 0 379.5 -98t234.5 -291l-151 -90l-33 12q-61 144 -168.5 213.5t-267.5 69.5q-129 0 -247 -54.5
t-203.5 -146t-136 -218t-50.5 -263.5q0 -212 129 -345t336 -133q169 0 298.5 70t235.5 219l35 4l125 -96q-275 -381 -709 -381z" />
    <glyph glyph-name="ccaron" unicode="&#x10d;" horiz-adv-x="1058" 
d="M500 1470l129 -278l207 278h139l10 -16l-266 -360h-197l-164 360l13 16h129zM438 -39q-187 0 -297 112.5t-110 301.5q0 156 68.5 287.5t191.5 209.5t272 78q133 0 235.5 -64t155.5 -186l-145 -82l-16 7q-43 88 -101.5 127t-138.5 39q-142 0 -238 -120t-96 -286
q0 -121 65 -191.5t169 -70.5q87 0 158.5 41t138.5 131l16 2l125 -88q-86 -123 -203.5 -185.5t-249.5 -62.5z" />
    <glyph glyph-name="Dcaron" unicode="&#x10e;" horiz-adv-x="1495" 
d="M883 1565h-195l-178 276l14 17h131l138 -213l196 213h137l11 -17zM459 0h-406l203 1450h387q357 0 546 -154.5t189 -445.5q0 -253 -112 -445.5t-321 -298.5t-486 -106zM428 1270l-154 -1090h177q349 0 536 174t187 492q0 213 -139 318.5t-425 105.5h-182z" />
    <glyph glyph-name="dcaron" unicode="&#x10f;" horiz-adv-x="1345" 
d="M389 -39q-166 0 -263 107.5t-97 293.5q0 156 64.5 291.5t176.5 216t242 80.5q100 0 183.5 -52.5t125.5 -145.5q19 157 39 301l66 448h182l-211 -1501h-176l22 152q-61 -87 -158.5 -139t-195.5 -52zM1485 1430l-250 -406l-117 47l201 410l22 8zM438 127q147 0 248.5 113
t101.5 280q0 120 -66.5 193t-174.5 73q-140 0 -234 -117.5t-94 -295.5q0 -117 57.5 -181.5t161.5 -64.5z" />
    <glyph glyph-name="Dcroat" unicode="&#x110;" horiz-adv-x="1495" 
d="M256 1450h387q357 0 546 -154.5t189 -445.5q0 -253 -112 -445.5t-321 -298.5t-486 -106h-406l92 657h-129l23 168h129zM274 180h177q349 0 536 174t187 492q0 213 -139 318.5t-425 105.5h-182l-63 -445h383l-25 -168h-381z" />
    <glyph glyph-name="dcroat" unicode="&#x111;" horiz-adv-x="1179" 
d="M1077 1286h129l-20 -147h-129l-160 -1139h-176l22 152q-61 -87 -158.5 -139t-195.5 -52q-166 0 -263 107.5t-97 293.5q0 156 64.5 291.5t176.5 216t242 80.5q100 0 183.5 -52.5t125.5 -145.5q19 157 39 301l12 86h-301l21 147h303l31 215h182zM438 127q147 0 248.5 113
t101.5 280q0 120 -66.5 193t-174.5 73q-140 0 -234 -117.5t-94 -295.5q0 -117 57.5 -181.5t161.5 -64.5z" />
    <glyph glyph-name="Emacron" unicode="&#x112;" horiz-adv-x="1159" 
d="M987 1634h-567l20 142h568zM53 0l205 1450h832l6 -176h-668l-63 -445h616l-23 -174h-616l-68 -479h668l-45 -176h-844z" />
    <glyph glyph-name="emacron" unicode="&#x113;" horiz-adv-x="1087" 
d="M346 1313h567l-18 -139h-567zM930 424h-711q0 -9 -1 -27.5t-1 -27.5q-1 -116 64.5 -184t175.5 -68q80 0 148 37.5t132 121.5h19l127 -81q-80 -115 -194 -174.5t-245 -59.5q-189 0 -301 112t-112 302q0 120 40.5 227t110 183t166.5 120.5t207 44.5q183 0 287 -106
t104 -293q0 -71 -16 -127zM551 799q-106 0 -186 -65t-119 -179l518 -4q9 114 -48.5 181t-164.5 67z" />
    <glyph glyph-name="Edotaccent" unicode="&#x116;" horiz-adv-x="1159" 
d="M723 1591q-54 0 -90.5 35.5t-36.5 89.5q0 53 36.5 89t90.5 36t90.5 -37t36.5 -90q0 -52 -37 -87.5t-90 -35.5zM53 0l205 1450h832l6 -176h-668l-63 -445h616l-23 -174h-616l-68 -479h668l-45 -176h-844z" />
    <glyph glyph-name="edotaccent" unicode="&#x117;" horiz-adv-x="1087" 
d="M610 1116q-54 0 -90.5 35.5t-36.5 89.5q0 53 36.5 89t90.5 36t90.5 -37t36.5 -90q0 -52 -36.5 -87.5t-90.5 -35.5zM930 424h-711q0 -9 -1 -27.5t-1 -27.5q-1 -116 64.5 -184t175.5 -68q80 0 148 37.5t132 121.5h19l127 -81q-80 -115 -194 -174.5t-245 -59.5
q-189 0 -301 112t-112 302q0 120 40.5 227t110 183t166.5 120.5t207 44.5q183 0 287 -106t104 -293q0 -71 -16 -127zM551 799q-106 0 -186 -65t-119 -179l518 -4q9 114 -48.5 181t-164.5 67z" />
    <glyph glyph-name="Eogonek" unicode="&#x118;" horiz-adv-x="1159" 
d="M1096 1274h-668l-63 -445h616l-23 -174h-616l-68 -479h668l-45 -176h-43q-201 -144 -201 -264q0 -35 22.5 -55.5t59.5 -20.5q62 0 107 39h10l27 -109q-85 -49 -189 -49q-81 0 -130.5 41.5t-49.5 112.5q0 82 68.5 162t166.5 143h-692l205 1450h832z" />
    <glyph glyph-name="eogonek" unicode="&#x119;" horiz-adv-x="1087" 
d="M930 424h-711q0 -9 -1 -27.5t-1 -27.5q-1 -116 64.5 -184t175.5 -68q80 0 148 37.5t132 121.5h19l127 -81q-98 -140 -244 -197q-197 -145 -197 -262q0 -35 22.5 -55.5t59.5 -20.5q62 0 107 39h10l27 -109q-85 -49 -189 -49q-81 0 -130.5 41.5t-49.5 112.5q0 130 180 268
q-10 -2 -35 -2q-189 0 -301 112t-112 302q0 120 40.5 227t110 183t166.5 120.5t207 44.5q183 0 287 -106t104 -293q0 -71 -16 -127zM551 799q-106 0 -186 -65t-119 -179l518 -4q9 114 -48.5 181t-164.5 67z" />
    <glyph glyph-name="Ecaron" unicode="&#x11a;" horiz-adv-x="1159" 
d="M791 1565h-195l-178 276l14 17h131l137 -213l197 213h137l10 -17zM53 0l205 1450h832l6 -176h-668l-63 -445h616l-23 -174h-616l-68 -479h668l-45 -176h-844z" />
    <glyph glyph-name="ecaron" unicode="&#x11b;" horiz-adv-x="1087" 
d="M969 1454l-267 -360h-196l-164 360l12 16h129l129 -278l207 278h139zM555 950q183 0 287 -106t104 -293q0 -71 -16 -127h-711q0 -9 -1 -27.5t-1 -27.5q-1 -116 64.5 -184t175.5 -68q80 0 148 37.5t132 121.5h19l127 -81q-80 -115 -194 -174.5t-245 -59.5q-189 0 -301 112
t-112 302q0 120 40.5 227t110 183t166.5 120.5t207 44.5zM246 555l518 -4q9 114 -48.5 181t-164.5 67q-106 0 -186 -65t-119 -179z" />
    <glyph glyph-name="Gbreve" unicode="&#x11e;" horiz-adv-x="1716" 
d="M981 1565q-143 0 -223.5 71.5t-71.5 192.5l16 16h123q6 -71 47 -104t123 -33q83 0 134 33t77 104h121l14 -16q-26 -122 -122.5 -193t-237.5 -71zM729 -39q-289 0 -467 179t-178 468q0 180 68 343.5t183.5 281t274.5 187t334 69.5q225 0 383.5 -95.5t241.5 -283.5
l-152 -90l-33 10q-70 144 -176.5 209.5t-267.5 65.5q-133 0 -253 -54t-207 -145.5t-138 -217.5t-51 -265q0 -213 129 -346.5t332 -133.5q217 0 376.5 122t196.5 315v6h-414l25 166h594l-107 -752h-182l10 76q10 81 39 147l-4 2q-93 -119 -239 -191.5t-318 -72.5z" />
    <glyph glyph-name="gbreve" unicode="&#x11f;" horiz-adv-x="1183" 
d="M612 1104q-142 0 -222 71.5t-73 192.5l17 16h123q6 -72 47 -104.5t125 -32.5q82 0 132 32.5t75 104.5h122l15 -16q-26 -122 -123 -193t-238 -71zM395 -471q-149 0 -251.5 55t-174.5 174l140 84l14 -2q51 -84 115 -119.5t163 -35.5q130 0 212.5 79.5t101.5 221.5
q9 81 26 172q-64 -86 -159 -135.5t-191 -49.5q-165 0 -263.5 107.5t-98.5 288.5q0 156 65.5 290t178 212.5t245.5 78.5q98 0 179.5 -53t125.5 -149l23 163h182l-127 -917q-29 -223 -159 -344t-347 -121zM440 139q148 0 250.5 110.5t102.5 270.5q0 120 -68 193t-178 73
q-142 0 -235 -116t-93 -291q0 -114 58.5 -177t162.5 -63z" />
    <glyph glyph-name="Gdotaccent" unicode="&#x120;" horiz-adv-x="1716" 
d="M1022 1591q-54 0 -90.5 35.5t-36.5 89.5q0 53 36.5 89t90.5 36t90.5 -37t36.5 -90q0 -52 -37 -87.5t-90 -35.5zM729 -39q-289 0 -467 179t-178 468q0 180 68 343.5t183.5 281t274.5 187t334 69.5q225 0 383.5 -95.5t241.5 -283.5l-152 -90l-33 10q-70 144 -176.5 209.5
t-267.5 65.5q-133 0 -253 -54t-207 -145.5t-138 -217.5t-51 -265q0 -213 129 -346.5t332 -133.5q217 0 376.5 122t196.5 315v6h-414l25 166h594l-107 -752h-182l10 76q10 81 39 147l-4 2q-93 -119 -239 -191.5t-318 -72.5z" />
    <glyph glyph-name="gdotaccent" unicode="&#x121;" horiz-adv-x="1183" 
d="M633 1116q-54 0 -90.5 35.5t-36.5 89.5q0 53 36.5 89t90.5 36t90.5 -37t36.5 -90q0 -52 -36.5 -87.5t-90.5 -35.5zM395 -471q-149 0 -251.5 55t-174.5 174l140 84l14 -2q51 -84 115 -119.5t163 -35.5q130 0 212.5 79.5t101.5 221.5q9 81 26 172q-64 -86 -159 -135.5
t-191 -49.5q-165 0 -263.5 107.5t-98.5 288.5q0 156 65.5 290t178 212.5t245.5 78.5q98 0 179.5 -53t125.5 -149l23 163h182l-127 -917q-29 -223 -159 -344t-347 -121zM440 139q148 0 250.5 110.5t102.5 270.5q0 120 -68 193t-178 73q-142 0 -235 -116t-93 -291
q0 -114 58.5 -177t162.5 -63z" />
    <glyph glyph-name="uni0122" unicode="&#x122;" horiz-adv-x="1716" 
d="M729 -39q-289 0 -467 179t-178 468q0 180 68 343.5t183.5 281t274.5 187t334 69.5q225 0 383.5 -95.5t241.5 -283.5l-152 -90l-33 10q-70 144 -176.5 209.5t-267.5 65.5q-133 0 -253 -54t-207 -145.5t-138 -217.5t-51 -265q0 -213 129 -346.5t332 -133.5q217 0 376.5 122
t196.5 315v6h-414l25 166h594l-107 -752h-182l10 76q10 81 39 147l-4 2q-93 -119 -239 -191.5t-318 -72.5zM911 -160l-227 -366l-123 51l166 375l23 8z" />
    <glyph glyph-name="uni0123" unicode="&#x123;" horiz-adv-x="1183" 
d="M489 1122l228 367l123 -49l-168 -375l-21 -10zM395 -471q-149 0 -251.5 55t-174.5 174l140 84l14 -2q51 -84 115 -119.5t163 -35.5q130 0 212.5 79.5t101.5 221.5q9 81 26 172q-64 -86 -159 -135.5t-191 -49.5q-165 0 -263.5 107.5t-98.5 288.5q0 156 65.5 290t178 212.5
t245.5 78.5q98 0 179.5 -53t125.5 -149l23 163h182l-127 -917q-29 -223 -159 -344t-347 -121zM440 139q148 0 250.5 110.5t102.5 270.5q0 120 -68 193t-178 73q-142 0 -235 -116t-93 -291q0 -114 58.5 -177t162.5 -63z" />
    <glyph glyph-name="Hbar" unicode="&#x126;" horiz-adv-x="1486" 
d="M1364 1239h119l-21 -143h-116l-156 -1096h-197l90 645h-743l-90 -645h-197l156 1096h-121l21 143h118l31 211h197l-31 -211h743l31 211h197zM403 1096l-38 -273h743l39 273h-744z" />
    <glyph glyph-name="hbar" unicode="&#x127;" horiz-adv-x="1153" 
d="M676 950q155 0 227.5 -98t46.5 -281l-80 -571h-182l74 512q21 148 -20 210t-142 62q-121 0 -210.5 -95t-110.5 -255l-60 -434h-182l160 1139h-127l20 147h127l31 215h182l-31 -215h306l-21 -147h-305l-12 -90l-43 -297q70 96 162 147t190 51z" />
    <glyph glyph-name="Itilde" unicode="&#x128;" horiz-adv-x="546" 
d="M500 1579q73 0 136.5 66.5t92.5 173.5h-113l-18 -13q-28 -88 -86 -88q-32 0 -80 25t-100.5 50.5t-93.5 25.5q-74 0 -137.5 -66t-92.5 -174h117l16 12q27 88 84 88q33 0 79 -25t97.5 -50t98.5 -25zM53 0l205 1450h197l-205 -1450h-197z" />
    <glyph glyph-name="itilde" unicode="&#x129;" horiz-adv-x="501" 
d="M430 1118q74 0 137 66t92 174h-114l-17 -12q-27 -89 -86 -89q-26 0 -62 16t-67.5 34.5t-71.5 34.5t-73 16q-74 0 -137.5 -66.5t-91.5 -173.5h114l19 12q28 89 84 89q33 0 79 -25.5t97 -50.5t98 -25zM219 0h-182l127 911h182z" />
    <glyph glyph-name="Imacron" unicode="&#x12a;" horiz-adv-x="546" 
d="M643 1634h-567l20 142h568zM53 0l205 1450h197l-205 -1450h-197z" />
    <glyph glyph-name="imacron" unicode="&#x12b;" horiz-adv-x="501" 
d="M573 1174h-567l19 139h567zM219 0h-182l127 911h182z" />
    <glyph glyph-name="Ibreve" unicode="&#x12c;" horiz-adv-x="546" 
d="M340 1565q-143 0 -223.5 71.5t-71.5 192.5l16 16h123q6 -71 47 -104t123 -33q83 0 134 33t77 104h121l14 -16q-26 -122 -122.5 -193t-237.5 -71zM53 0l205 1450h197l-205 -1450h-197z" />
    <glyph glyph-name="ibreve" unicode="&#x12d;" horiz-adv-x="501" 
d="M266 1104q-142 0 -222 71.5t-73 192.5l17 16h123q6 -72 47 -104.5t125 -32.5q82 0 131.5 32.5t74.5 104.5h123l15 -16q-26 -122 -123 -193t-238 -71zM219 0h-182l127 911h182z" />
    <glyph glyph-name="Iogonek" unicode="&#x12e;" horiz-adv-x="546" 
d="M250 0h-29q-201 -144 -201 -264q0 -35 22.5 -55.5t59.5 -20.5q62 0 107 39h10l27 -109q-85 -49 -189 -49q-81 0 -130.5 41.5t-49.5 112.5q0 82 68.5 162t167.5 143h-60l205 1450h197z" />
    <glyph glyph-name="iogonek" unicode="&#x12f;" horiz-adv-x="501" 
d="M287 1366q54 0 90.5 -37t36.5 -90q0 -52 -36.5 -87.5t-90.5 -35.5t-90.5 35.5t-36.5 89.5q0 53 36.5 89t90.5 36zM80 0h-43l127 911h182l-127 -911h-31q-200 -143 -200 -264q0 -35 22.5 -55.5t59.5 -20.5q61 0 106 39h10l27 -109q-85 -49 -188 -49q-81 0 -131 41.5
t-50 112.5q0 82 68.5 162t167.5 143z" />
    <glyph glyph-name="Idotaccent" unicode="&#x130;" horiz-adv-x="546" 
d="M381 1591q-54 0 -90.5 35.5t-36.5 89.5q0 53 36.5 89t90.5 36t90.5 -37t36.5 -90q0 -52 -37 -87.5t-90 -35.5zM53 0l205 1450h197l-205 -1450h-197z" />
    <glyph glyph-name="dotlessi" unicode="&#x131;" horiz-adv-x="501" 
d="M219 0h-182l127 911h182z" />
    <glyph glyph-name="IJ" unicode="&#x132;" horiz-adv-x="1546" 
d="M53 0l205 1450h197l-205 -1450h-197zM662 322l28 -9q24 -176 184 -176q101 0 166.5 77.5t87.5 225.5l142 1010h196l-141 -1012q-32 -230 -152 -353.5t-311 -123.5q-155 0 -248.5 78.5t-105.5 216.5z" />
    <glyph glyph-name="ij" unicode="&#x133;" horiz-adv-x="1062" 
d="M313 1210q-54 0 -90.5 35.5t-36.5 89.5q0 52 36.5 87.5t90.5 35.5t90.5 -36t36.5 -89q0 -52 -36.5 -87.5t-90.5 -35.5zM874 1210q-53 0 -89.5 35.5t-36.5 89.5q0 52 36.5 87.5t89.5 35.5q54 0 90.5 -36t36.5 -89q0 -52 -36.5 -87.5t-90.5 -35.5zM219 0h-182l127 911h182z
M434 -471q-67 0 -131 27l37 149l16 6q44 -14 74 -14q69 0 107 46.5t55 156.5l141 1011h182l-145 -1038q-26 -178 -109 -261t-227 -83z" />
    <glyph glyph-name="uni0136" unicode="&#x136;" horiz-adv-x="1277" 
d="M1100 1450h258l-649 -602l475 -848h-226l-393 715l-246 -230l-69 -485h-197l205 1450h197l-99 -698zM350 -475l166 375l23 8l161 -68l-227 -366z" />
    <glyph glyph-name="uni0137" unicode="&#x137;" horiz-adv-x="1026" 
d="M899 0h-221l-266 444l-150 -129l-43 -315h-182l211 1501h182l-63 -459q-10 -73 -80 -514l436 383h250l-422 -352zM569 -160l-227 -366l-123 51l166 375l23 8z" />
    <glyph glyph-name="kgreenlandic" unicode="&#x138;" horiz-adv-x="1026" 
d="M899 0h-221l-266 444l-150 -129l-43 -315h-182l127 911h182l-20 -145q-15 -97 -39 -238l436 383h250l-422 -352z" />
    <glyph glyph-name="Lacute" unicode="&#x139;" horiz-adv-x="1071" 
d="M330 1565h-152l230 274h194l6 -14zM53 0l205 1450h197l-181 -1270h678l-47 -180h-852z" />
    <glyph glyph-name="lacute" unicode="&#x13a;" horiz-adv-x="501" 
d="M322 1565h-152l229 274h195l6 -14zM219 0h-182l211 1501h182z" />
    <glyph glyph-name="uni013B" unicode="&#x13b;" horiz-adv-x="1071" 
d="M53 0l205 1450h197l-181 -1270h678l-47 -180h-852zM647 -160l-227 -366l-123 51l166 375l22 8z" />
    <glyph glyph-name="uni013C" unicode="&#x13c;" horiz-adv-x="501" 
d="M219 0h-182l211 1501h182zM283 -160l-228 -366l-123 51l166 375l23 8z" />
    <glyph glyph-name="Lcaron" unicode="&#x13d;" horiz-adv-x="1071" 
d="M934 1430l-250 -406l-117 47l201 410l23 8zM53 0l205 1450h197l-181 -1270h678l-47 -180h-852z" />
    <glyph glyph-name="lcaron" unicode="&#x13e;" horiz-adv-x="667" 
d="M219 0h-182l211 1501h182zM807 1430l-250 -406l-117 47l201 410l23 8z" />
    <glyph glyph-name="Ldot" unicode="&#x13f;" horiz-adv-x="1071" 
d="M53 0l205 1450h197l-181 -1270h678l-47 -180h-852zM752 606q-52 0 -88.5 36t-36.5 89t36.5 89t88.5 36q51 0 86.5 -36.5t35.5 -88.5t-35.5 -88.5t-86.5 -36.5z" />
    <glyph glyph-name="ldot" unicode="&#x140;" horiz-adv-x="598" 
d="M219 0h-182l211 1501h182zM541 678q-53 0 -89 36t-36 89q0 51 36.5 88t88.5 37q51 0 88 -37t37 -88q0 -52 -37 -88.5t-88 -36.5z" />
    <glyph glyph-name="Lslash" unicode="&#x141;" horiz-adv-x="1071" 
d="M346 682l-72 -502h678l-47 -180h-852l82 573l-174 -90l23 172l174 90l100 705h197l-84 -594l344 178l-25 -174z" />
    <glyph glyph-name="lslash" unicode="&#x142;" horiz-adv-x="501" 
d="M350 938l139 76l-22 -162l-139 -76l-109 -776h-182l94 668l-139 -76l22 162l140 75l94 672h182z" />
    <glyph glyph-name="Nacute" unicode="&#x143;" horiz-adv-x="1566" 
d="M858 1565h-151l229 274h194l7 -14zM248 0h-195l203 1450h147l486 -696q44 -63 239 -351h7q18 150 51 377l94 670h195l-207 -1477h-74l-555 787l-236 340h-6q-10 -96 -51 -389z" />
    <glyph glyph-name="nacute" unicode="&#x144;" horiz-adv-x="1153" 
d="M557 1112h-156l279 377h197l6 -14zM37 0l127 911h180l-20 -159q70 96 162 147t190 51q155 0 227.5 -98.5t46.5 -282.5l-80 -569h-182l74 512q21 148 -20 210t-142 62q-121 0 -210.5 -95t-110.5 -255l-60 -434h-182z" />
    <glyph glyph-name="uni0145" unicode="&#x145;" horiz-adv-x="1566" 
d="M248 0h-195l203 1450h147l486 -696q44 -63 239 -351h7q18 150 51 377l94 670h195l-207 -1477h-74l-555 787l-236 340h-6q-10 -96 -51 -389zM840 -160l-228 -366l-123 51l166 375l23 8z" />
    <glyph glyph-name="uni0146" unicode="&#x146;" horiz-adv-x="1153" 
d="M37 0l127 911h180l-20 -159q70 96 162 147t190 51q155 0 227.5 -98.5t46.5 -282.5l-80 -569h-182l74 512q21 148 -20 210t-142 62q-121 0 -210.5 -95t-110.5 -255l-60 -434h-182zM588 -160l-228 -366l-122 51l165 375l23 8z" />
    <glyph glyph-name="Ncaron" unicode="&#x147;" horiz-adv-x="1566" 
d="M999 1565h-194l-178 276l14 17h131l137 -213l197 213h137l10 -17zM248 0h-195l203 1450h147l486 -696q44 -63 239 -351h7q18 150 51 377l94 670h195l-207 -1477h-74l-555 787l-236 340h-6q-10 -96 -51 -389z" />
    <glyph glyph-name="ncaron" unicode="&#x148;" horiz-adv-x="1153" 
d="M487 1470l129 -278l207 278h140l10 -16l-266 -360h-197l-164 360l12 16h129zM37 0l127 911h180l-20 -159q70 96 162 147t190 51q155 0 227.5 -98.5t46.5 -282.5l-80 -569h-182l74 512q21 148 -20 210t-142 62q-121 0 -210.5 -95t-110.5 -255l-60 -434h-182z" />
    <glyph glyph-name="Eng" unicode="&#x14a;" horiz-adv-x="1566" 
d="M918 -471q-72 0 -132 27l39 157l17 6q37 -16 73 -16q63 0 98 45.5t50 147.5l31 219l-455 645l-236 340h-6q-10 -96 -51 -389l-98 -711h-195l203 1450h147l486 -696q88 -127 239 -353h7q20 164 51 379l94 670h195l-222 -1577q-26 -178 -108.5 -261t-226.5 -83z" />
    <glyph glyph-name="eng" unicode="&#x14b;" horiz-adv-x="1153" 
d="M676 950q155 0 227.5 -98.5t46.5 -282.5l-98 -696q-26 -178 -109 -261t-227 -83q-71 0 -131 27l37 149l16 6q40 -14 74 -14q70 0 107.5 46t54.5 157l88 612q21 148 -20 210t-142 62q-121 0 -210.5 -95t-110.5 -255l-60 -434h-182l127 911h180l-20 -159q70 96 162 147
t190 51z" />
    <glyph glyph-name="Omacron" unicode="&#x14c;" horiz-adv-x="1753" 
d="M1325 1634h-567l20 142h568zM760 -39q-196 0 -350 82.5t-240 232t-86 340.5q0 142 44.5 275t125.5 240.5t189 188.5t241 125t274 44q300 0 488 -182t188 -473q0 -141 -44.5 -274t-126 -240.5t-189 -188.5t-240.5 -125.5t-274 -44.5zM770 145q175 0 326.5 92t241 248.5
t89.5 337.5q0 216 -132.5 349t-346.5 133q-133 0 -254.5 -54t-209.5 -145t-140.5 -216.5t-52.5 -262.5q0 -214 133.5 -348t345.5 -134z" />
    <glyph glyph-name="omacron" unicode="&#x14d;" horiz-adv-x="1161" 
d="M950 1174h-567l18 139h568zM467 -39q-192 0 -314 121t-122 311q0 150 74 278t203.5 203.5t283.5 75.5q192 0 313 -119t121 -307q0 -112 -45 -216t-120 -180t-178.5 -121.5t-215.5 -45.5zM475 127q147 0 255 115.5t108 271.5q0 120 -70 195t-182 75q-153 0 -260 -113.5
t-107 -271.5q0 -120 71 -196t185 -76z" />
    <glyph glyph-name="Obreve" unicode="&#x14e;" horiz-adv-x="1753" 
d="M1022 1565q-143 0 -223.5 71.5t-71.5 192.5l16 16h123q6 -71 47 -104t123 -33q83 0 134 33t77 104h121l14 -16q-26 -122 -122.5 -193t-237.5 -71zM760 -39q-196 0 -350 82.5t-240 232t-86 340.5q0 142 44.5 275t125.5 240.5t189 188.5t241 125t274 44q300 0 488 -182
t188 -473q0 -141 -44.5 -274t-126 -240.5t-189 -188.5t-240.5 -125.5t-274 -44.5zM770 145q175 0 326.5 92t241 248.5t89.5 337.5q0 216 -132.5 349t-346.5 133q-133 0 -254.5 -54t-209.5 -145t-140.5 -216.5t-52.5 -262.5q0 -214 133.5 -348t345.5 -134z" />
    <glyph glyph-name="obreve" unicode="&#x14f;" horiz-adv-x="1161" 
d="M643 1104q-142 0 -222 71.5t-73 192.5l17 16h122q6 -72 47 -104.5t125 -32.5q82 0 132 32.5t75 104.5h123l15 -16q-26 -122 -123 -193t-238 -71zM467 -39q-192 0 -314 121t-122 311q0 150 74 278t203.5 203.5t283.5 75.5q192 0 313 -119t121 -307q0 -112 -45 -216
t-120 -180t-178.5 -121.5t-215.5 -45.5zM475 127q147 0 255 115.5t108 271.5q0 120 -70 195t-182 75q-153 0 -260 -113.5t-107 -271.5q0 -120 71 -196t185 -76z" />
    <glyph glyph-name="Ohungarumlaut" unicode="&#x150;" horiz-adv-x="1753" 
d="M899 1565h-151l227 274h194l7 -14zM1247 1565h-151l227 274h195l6 -14zM760 -39q-196 0 -350 82.5t-240 232t-86 340.5q0 142 44.5 275t125.5 240.5t189 188.5t241 125t274 44q300 0 488 -182t188 -473q0 -141 -44.5 -274t-126 -240.5t-189 -188.5t-240.5 -125.5
t-274 -44.5zM770 145q175 0 326.5 92t241 248.5t89.5 337.5q0 216 -132.5 349t-346.5 133q-133 0 -254.5 -54t-209.5 -145t-140.5 -216.5t-52.5 -262.5q0 -214 133.5 -348t345.5 -134z" />
    <glyph glyph-name="ohungarumlaut" unicode="&#x151;" horiz-adv-x="1161" 
d="M541 1094h-152l277 376h192l8 -14zM885 1094h-154l277 376h194l6 -14zM467 -39q-192 0 -314 121t-122 311q0 150 74 278t203.5 203.5t283.5 75.5q192 0 313 -119t121 -307q0 -112 -45 -216t-120 -180t-178.5 -121.5t-215.5 -45.5zM475 127q147 0 255 115.5t108 271.5
q0 120 -70 195t-182 75q-153 0 -260 -113.5t-107 -271.5q0 -120 71 -196t185 -76z" />
    <glyph glyph-name="OE" unicode="&#x152;" horiz-adv-x="2084" 
d="M2021 1274h-667l-64 -445h617l-23 -174h-616l-68 -479h668l-45 -176h-805q-118 -39 -258 -39q-196 0 -350 82.5t-240 232t-86 340.5q0 142 44.5 275t125.5 240.5t189 188.5t241 125t274 44q131 0 250 -39h805zM291 627q0 -214 133.5 -348t345.5 -134q127 0 236 50
l151 1069q-93 41 -209 41q-133 0 -254.5 -54t-209.5 -145t-140.5 -216.5t-52.5 -262.5z" />
    <glyph glyph-name="oe" unicode="&#x153;" horiz-adv-x="1886" 
d="M467 -39q-192 0 -314 121t-122 311q0 150 74 278t203.5 203.5t283.5 75.5q125 0 219.5 -51t146.5 -151h5q143 202 393 202q183 0 287 -106t104 -293q0 -71 -16 -127h-711q-2 -20 -2 -59q0 -114 65.5 -181t173.5 -67q80 0 148.5 37.5t132.5 121.5h16l129 -81
q-81 -115 -194.5 -174.5t-245.5 -59.5q-125 0 -218 52.5t-138 152.5h-4q-76 -96 -184.5 -150.5t-231.5 -54.5zM1047 555l516 -4q10 114 -47.5 181t-165.5 67q-107 0 -187.5 -65.5t-115.5 -178.5zM475 127q147 0 255 115.5t108 271.5q0 120 -70 195t-182 75
q-153 0 -260 -113.5t-107 -271.5q0 -120 71 -196t185 -76z" />
    <glyph glyph-name="Racute" unicode="&#x154;" horiz-adv-x="1247" 
d="M924 1839l6 -14l-279 -260h-151l229 274h195zM768 653l360 -620l-18 -33h-197l-350 625h-225l-88 -625h-197l203 1450h422q444 0 444 -344q0 -176 -93.5 -293.5t-260.5 -159.5zM627 1278h-197l-70 -485h197q181 0 274 66.5t93 223.5q0 105 -71 150t-226 45z" />
    <glyph glyph-name="racute" unicode="&#x155;" horiz-adv-x="811" 
d="M446 1112h-155l278 377h197l6 -14zM219 0h-182l129 911h166l-27 -176q137 215 303 215q69 0 116 -43.5t60 -122.5l-166 -88l-16 6q-15 76 -78 76q-79 0 -153.5 -106.5t-94.5 -255.5z" />
    <glyph glyph-name="uni0156" unicode="&#x156;" horiz-adv-x="1247" 
d="M768 653l360 -620l-18 -33h-197l-350 625h-225l-88 -625h-197l203 1450h422q444 0 444 -344q0 -176 -93.5 -293.5t-260.5 -159.5zM627 1278h-197l-70 -485h197q181 0 274 66.5t93 223.5q0 105 -71 150t-226 45zM328 -475l166 375l22 8l162 -68l-227 -366z" />
    <glyph glyph-name="uni0157" unicode="&#x157;" horiz-adv-x="811" 
d="M219 0h-182l129 911h166l-27 -176q137 215 303 215q69 0 116 -43.5t60 -122.5l-166 -88l-16 6q-15 76 -78 76q-79 0 -153.5 -106.5t-94.5 -255.5zM244 -160l-228 -366l-122 51l165 375l23 8z" />
    <glyph glyph-name="Rcaron" unicode="&#x158;" horiz-adv-x="1247" 
d="M1047 1841l-254 -276h-195l-178 276l14 17h131l137 -213l197 213h137zM768 653l360 -620l-18 -33h-197l-350 625h-225l-88 -625h-197l203 1450h422q444 0 444 -344q0 -176 -93.5 -293.5t-260.5 -159.5zM627 1278h-197l-70 -485h197q181 0 274 66.5t93 223.5
q0 105 -71 150t-226 45z" />
    <glyph glyph-name="rcaron" unicode="&#x159;" horiz-adv-x="811" 
d="M377 1470l129 -278l207 278h139l10 -16l-266 -360h-197l-163 360l12 16h129zM219 0h-182l129 911h166l-27 -176q137 215 303 215q69 0 116 -43.5t60 -122.5l-166 -88l-16 6q-15 76 -78 76q-79 0 -153.5 -106.5t-94.5 -255.5z" />
    <glyph glyph-name="Sacute" unicode="&#x15a;" horiz-adv-x="1167" 
d="M651 1565h-151l229 274h195l6 -14zM481 -39q-177 0 -291 74.5t-180 232.5l152 92l35 -12q45 -115 113.5 -165t176.5 -50q133 0 224.5 82.5t91.5 194.5q0 84 -62.5 145t-214.5 129q-183 78 -266.5 170.5t-83.5 218.5q0 182 134 299t349 117q147 0 253 -60.5t157 -175.5
l-147 -92l-35 13q-38 74 -96.5 108.5t-143.5 34.5q-117 0 -191.5 -62.5t-74.5 -160.5q0 -68 55.5 -121t208.5 -129q197 -91 280 -184.5t83 -225.5q0 -199 -150.5 -336t-376.5 -137z" />
    <glyph glyph-name="sacute" unicode="&#x15b;" horiz-adv-x="856" 
d="M440 1112h-155l278 377h197l6 -14zM313 -39q-127 0 -216.5 54.5t-127.5 158.5l140 86l12 -6q50 -145 198 -145q84 0 137.5 38t53.5 99q0 43 -40 77.5t-130 69.5q-141 54 -203.5 116t-62.5 148q0 126 101 209.5t255 83.5q117 0 199.5 -52t111.5 -146l-129 -76l-14 6
q-44 121 -176 121q-71 0 -119.5 -36.5t-48.5 -90.5q0 -39 38.5 -71t137.5 -75q140 -54 200 -116.5t60 -153.5q0 -132 -105.5 -215.5t-271.5 -83.5z" />
    <glyph glyph-name="Scedilla" unicode="&#x15e;" horiz-adv-x="1167" 
d="M645 844q197 -91 280 -184.5t83 -225.5q0 -174 -117.5 -303.5t-304.5 -161.5l-90 -119q35 9 65 9q66 0 108 -36.5t42 -94.5q0 -91 -72.5 -146t-189.5 -55q-119 0 -205 49l45 90l18 6q62 -45 146 -45q54 0 86 24.5t32 65.5q0 62 -96 62q-36 0 -90 -15l-37 37l123 160
q-172 3 -284.5 77.5t-176.5 229.5l152 92l35 -12q45 -115 113.5 -165t176.5 -50q133 0 224.5 82.5t91.5 194.5q0 84 -62.5 145t-214.5 129q-183 78 -266.5 170.5t-83.5 218.5q0 182 134 299t349 117q147 0 253 -60.5t157 -175.5l-147 -92l-35 13q-38 74 -96.5 108.5
t-143.5 34.5q-117 0 -191.5 -62.5t-74.5 -160.5q0 -68 55.5 -121t208.5 -129z" />
    <glyph glyph-name="scedilla" unicode="&#x15f;" horiz-adv-x="856" 
d="M430 530q140 -54 200 -116.5t60 -153.5q0 -118 -85 -198t-224 -97l-86 -115q35 9 65 9q66 0 108 -36.5t42 -94.5q0 -91 -72.5 -146t-189.5 -55q-119 0 -205 49l45 90l18 6q62 -45 146 -45q54 0 86.5 24.5t32.5 65.5q0 62 -97 62q-36 0 -90 -15l-37 37l123 162
q-110 8 -188 61.5t-113 149.5l140 86l12 -6q50 -145 198 -145q84 0 137.5 38t53.5 99q0 43 -40 77.5t-130 69.5q-141 54 -203.5 116t-62.5 148q0 126 101 209.5t255 83.5q117 0 199.5 -52t111.5 -146l-129 -76l-14 6q-44 121 -176 121q-71 0 -119.5 -36.5t-48.5 -90.5
q0 -39 38.5 -71t137.5 -75z" />
    <glyph glyph-name="Scaron" unicode="&#x160;" horiz-adv-x="1167" 
d="M795 1565h-195l-178 276l14 17h131l138 -213l196 213h137l11 -17zM481 -39q-177 0 -291 74.5t-180 232.5l152 92l35 -12q45 -115 113.5 -165t176.5 -50q133 0 224.5 82.5t91.5 194.5q0 84 -62.5 145t-214.5 129q-183 78 -266.5 170.5t-83.5 218.5q0 182 134 299t349 117
q147 0 253 -60.5t157 -175.5l-147 -92l-35 13q-38 74 -96.5 108.5t-143.5 34.5q-117 0 -191.5 -62.5t-74.5 -160.5q0 -68 55.5 -121t208.5 -129q197 -91 280 -184.5t83 -225.5q0 -199 -150.5 -336t-376.5 -137z" />
    <glyph glyph-name="scaron" unicode="&#x161;" horiz-adv-x="856" 
d="M371 1470l129 -278l207 278h139l10 -16l-266 -360h-197l-164 360l13 16h129zM313 -39q-127 0 -216.5 54.5t-127.5 158.5l140 86l12 -6q50 -145 198 -145q84 0 137.5 38t53.5 99q0 43 -40 77.5t-130 69.5q-141 54 -203.5 116t-62.5 148q0 126 101 209.5t255 83.5
q117 0 199.5 -52t111.5 -146l-129 -76l-14 6q-44 121 -176 121q-71 0 -119.5 -36.5t-48.5 -90.5q0 -39 38.5 -71t137.5 -75q140 -54 200 -116.5t60 -153.5q0 -132 -105.5 -215.5t-271.5 -83.5z" />
    <glyph glyph-name="uni0162" unicode="&#x162;" horiz-adv-x="1222" 
d="M76 1270l26 180h1182l-24 -180h-494l-178 -1270h-39l-111 -150q30 9 64 9q67 0 109 -36t42 -95q0 -91 -72.5 -146t-189.5 -55q-121 0 -207 49l47 90l17 6q65 -45 145 -45q55 0 88 24.5t33 65.5q0 62 -98 62q-36 0 -90 -15l-35 37l151 199h-53l180 1270h-493z" />
    <glyph glyph-name="uni0163" unicode="&#x163;" horiz-adv-x="710" 
d="M633 760h-258l-66 -467q-13 -93 10 -129.5t93 -36.5q50 0 114 27l17 -9l-15 -153q-91 -31 -180 -31h-6l-84 -111q34 9 66 9q66 0 107.5 -36.5t41.5 -94.5q0 -91 -72.5 -146t-189.5 -55q-119 0 -205 49l45 90l19 6q62 -45 145 -45q54 0 86.5 24.5t32.5 65.5q0 62 -96 62
q-37 0 -91 -15l-36 37l133 176q-153 54 -123 279l72 504h-173l21 151h172l41 277l164 92h28l-51 -369h260z" />
    <glyph glyph-name="Tcaron" unicode="&#x164;" horiz-adv-x="1222" 
d="M811 1565h-195l-178 276l15 17h131l137 -213l197 213h137l10 -17zM389 0l180 1270h-493l26 180h1182l-24 -180h-494l-178 -1270h-199z" />
    <glyph glyph-name="tcaron" unicode="&#x165;" horiz-adv-x="821" 
d="M897 1430l-252 -406l-115 47l199 410l25 8zM526 154l17 -9l-15 -153q-91 -31 -180 -31q-128 0 -187.5 74.5t-39.5 220.5l72 504h-173l21 151h172l41 277l164 92h28l-51 -369h260l-22 -151h-258l-66 -467q-13 -93 10 -129.5t93 -36.5q50 0 114 27z" />
    <glyph glyph-name="Tbar" unicode="&#x166;" horiz-adv-x="1222" 
d="M1284 1450l-24 -180h-494l-64 -451h261l-21 -149h-260l-94 -670h-199l94 670h-260l19 149h264l63 451h-493l26 180h1182z" />
    <glyph glyph-name="tbar" unicode="&#x167;" horiz-adv-x="710" 
d="M655 911l-22 -151h-258l-23 -154h244l-16 -112h-242l-29 -201q-13 -93 10 -129.5t93 -36.5q50 0 114 27l17 -9l-15 -153q-91 -31 -180 -31q-128 0 -187.5 74.5t-39.5 220.5l35 238h-152l16 112h150l23 154h-173l21 151h172l41 277l164 92h28l-51 -369h260z" />
    <glyph glyph-name="Utilde" unicode="&#x168;" horiz-adv-x="1472" 
d="M983 1579q73 0 136.5 66.5t92.5 173.5h-112l-19 -13q-28 -88 -86 -88q-32 0 -80 25t-100.5 50.5t-93.5 25.5q-74 0 -137 -66t-92 -174h116l17 12q27 88 84 88q33 0 79 -25t97 -50t98 -25zM623 -39q-288 0 -412.5 155.5t-83.5 456.5l125 877h197l-123 -870
q-32 -225 43.5 -330t263.5 -105q194 0 303 109t143 340l119 856h197l-123 -885q-41 -291 -208.5 -447.5t-440.5 -156.5z" />
    <glyph glyph-name="utilde" unicode="&#x169;" horiz-adv-x="1126" 
d="M741 1118q74 0 137.5 66t92.5 174h-115l-16 -12q-27 -89 -86 -89q-32 0 -80.5 25.5t-101 50.5t-93.5 25q-74 0 -137.5 -66.5t-91.5 -173.5h115l18 12q28 89 84 89q33 0 79 -25.5t97 -50.5t98 -25zM354 -39q-152 0 -223.5 99.5t-44.5 285.5l80 565h184l-78 -528
q-38 -256 148 -256q111 0 198 94t107 242l63 448h183l-127 -911h-182l22 152q-68 -92 -156.5 -141.5t-173.5 -49.5z" />
    <glyph glyph-name="Umacron" unicode="&#x16a;" horiz-adv-x="1472" 
d="M1126 1634h-567l21 142h567zM623 -39q-288 0 -412.5 155.5t-83.5 456.5l125 877h197l-123 -870q-32 -225 43.5 -330t263.5 -105q194 0 303 109t143 340l119 856h197l-123 -885q-41 -291 -208.5 -447.5t-440.5 -156.5z" />
    <glyph glyph-name="umacron" unicode="&#x16b;" horiz-adv-x="1126" 
d="M883 1174h-568l19 139h567zM354 -39q-152 0 -223.5 99.5t-44.5 285.5l80 565h184l-78 -528q-38 -256 148 -256q111 0 198 94t107 242l63 448h183l-127 -911h-182l22 152q-68 -92 -156.5 -141.5t-173.5 -49.5z" />
    <glyph glyph-name="Ubreve" unicode="&#x16c;" horiz-adv-x="1472" 
d="M823 1565q-143 0 -223.5 71.5t-71.5 192.5l17 16h123q6 -71 47 -104t123 -33q83 0 134 33t77 104h120l15 -16q-26 -122 -123 -193t-238 -71zM623 -39q-288 0 -412.5 155.5t-83.5 456.5l125 877h197l-123 -870q-32 -225 43.5 -330t263.5 -105q194 0 303 109t143 340
l119 856h197l-123 -885q-41 -291 -208.5 -447.5t-440.5 -156.5z" />
    <glyph glyph-name="ubreve" unicode="&#x16d;" horiz-adv-x="1126" 
d="M575 1104q-141 0 -221 71.5t-73 192.5l16 16h123q6 -72 47 -104.5t125 -32.5q82 0 132 32.5t75 104.5h123l14 -16q-26 -122 -123 -193t-238 -71zM354 -39q-152 0 -223.5 99.5t-44.5 285.5l80 565h184l-78 -528q-38 -256 148 -256q111 0 198 94t107 242l63 448h183
l-127 -911h-182l22 152q-68 -92 -156.5 -141.5t-173.5 -49.5z" />
    <glyph glyph-name="Uring" unicode="&#x16e;" horiz-adv-x="1472" 
d="M831 1546q-75 0 -125.5 47.5t-50.5 120.5q0 94 67.5 161t162.5 67q75 0 125.5 -48.5t50.5 -121.5q0 -92 -68 -159t-162 -67zM842 1626q56 0 95.5 39t39.5 94q0 44 -29.5 72.5t-73.5 28.5q-56 0 -95.5 -39.5t-39.5 -94.5q0 -44 29 -72t74 -28zM623 -39
q-288 0 -412.5 155.5t-83.5 456.5l125 877h197l-123 -870q-32 -225 43.5 -330t263.5 -105q194 0 303 109t143 340l119 856h197l-123 -885q-41 -291 -208.5 -447.5t-440.5 -156.5z" />
    <glyph glyph-name="uring" unicode="&#x16f;" horiz-adv-x="1126" 
d="M590 1075q-75 0 -125.5 47.5t-50.5 120.5q0 94 67 160.5t162 66.5q75 0 125.5 -48.5t50.5 -121.5q0 -92 -67.5 -158.5t-161.5 -66.5zM600 1155q56 0 95.5 39t39.5 94q0 44 -29 72.5t-73 28.5q-56 0 -95.5 -39.5t-39.5 -94.5q0 -44 29 -72t73 -28zM354 -39
q-152 0 -223.5 99.5t-44.5 285.5l80 565h184l-78 -528q-38 -256 148 -256q111 0 198 94t107 242l63 448h183l-127 -911h-182l22 152q-68 -92 -156.5 -141.5t-173.5 -49.5z" />
    <glyph glyph-name="Uhungarumlaut" unicode="&#x170;" horiz-adv-x="1472" 
d="M702 1565h-151l227 274h195l6 -14zM1051 1565h-152l227 274h195l6 -14zM623 -39q-288 0 -412.5 155.5t-83.5 456.5l125 877h197l-123 -870q-32 -225 43.5 -330t263.5 -105q194 0 303 109t143 340l119 856h197l-123 -885q-41 -291 -208.5 -447.5t-440.5 -156.5z" />
    <glyph glyph-name="uhungarumlaut" unicode="&#x171;" horiz-adv-x="1126" 
d="M473 1094h-151l276 376h193l8 -14zM817 1094h-153l276 376h195l6 -14zM354 -39q-152 0 -223.5 99.5t-44.5 285.5l80 565h184l-78 -528q-38 -256 148 -256q111 0 198 94t107 242l63 448h183l-127 -911h-182l22 152q-68 -92 -156.5 -141.5t-173.5 -49.5z" />
    <glyph glyph-name="Uogonek" unicode="&#x172;" horiz-adv-x="1472" 
d="M1079 594l119 856h197l-123 -885q-31 -219 -134.5 -362.5t-271.5 -202.5q-200 -143 -200 -264q0 -35 22.5 -55.5t59.5 -20.5q61 0 106 39h10l27 -109q-85 -49 -189 -49q-81 0 -130.5 41.5t-49.5 112.5q0 131 185 270q-54 -4 -84 -4q-288 0 -412.5 155.5t-83.5 456.5
l125 877h197l-123 -870q-32 -225 43.5 -330t263.5 -105q194 0 303 109t143 340z" />
    <glyph glyph-name="uogonek" unicode="&#x173;" horiz-adv-x="1126" 
d="M844 0h-27q-201 -144 -201 -264q0 -35 22.5 -55.5t59.5 -20.5q62 0 107 39h10l27 -109q-85 -49 -189 -49q-81 0 -130.5 41.5t-49.5 112.5q0 82 68.5 162t167.5 143h-47l22 152q-68 -92 -156.5 -141.5t-173.5 -49.5q-152 0 -223.5 99.5t-44.5 285.5l80 565h184l-78 -528
q-38 -256 148 -256q111 0 198 94t107 242l63 448h183z" />
    <glyph glyph-name="Wcircumflex" unicode="&#x174;" horiz-adv-x="1959" 
d="M1221 1565l-138 194l-196 -194h-139l-9 16l254 258h195l176 -258l-14 -16h-129zM492 -27h-132l-247 1477h206l117 -770q8 -62 26 -185t21 -145h9l163 332l367 756h72l157 -756l68 -332h6q27 65 77 181t64 149l332 770h217l-661 -1477h-131l-156 756q-46 211 -59 281h-9
l-135 -279z" />
    <glyph glyph-name="wcircumflex" unicode="&#x175;" horiz-adv-x="1415" 
d="M909 1094l-129 278l-207 -278h-141l-8 16l266 360h197l164 -360l-15 -16h-127zM324 -31h-76l-201 942h191l108 -620h4l336 610h57l160 -610h4l289 620h193l-465 -942h-78l-174 613h-4z" />
    <glyph glyph-name="Ycircumflex" unicode="&#x176;" horiz-adv-x="1212" 
d="M858 1565l-137 194l-197 -194h-139l-8 16l254 258h194l176 -258l-14 -16h-129zM582 0h-197l84 594l-387 856h213l160 -393q24 -58 70 -164t57 -131h8q156 220 205 293l274 395h225l-628 -856z" />
    <glyph glyph-name="ycircumflex" unicode="&#x177;" horiz-adv-x="968" 
d="M680 1094l-129 278l-207 -278h-141l-8 16l266 360h196l164 -360l-14 -16h-127zM152 -446h-207l334 532l-254 825h204l164 -641h4l359 641h209z" />
    <glyph glyph-name="Ydieresis" unicode="&#x178;" horiz-adv-x="1212" 
d="M512 1612q-51 0 -86 34.5t-35 86.5q0 47 36 82.5t85 35.5t83 -35t34 -83q0 -53 -32.5 -87t-84.5 -34zM920 1612q-50 0 -84.5 34.5t-34.5 86.5q0 47 36 82.5t83 35.5q49 0 84.5 -35t35.5 -83q0 -53 -34 -87t-86 -34zM582 0h-197l84 594l-387 856h213l160 -393
q24 -58 70 -164t57 -131h8q156 220 205 293l274 395h225l-628 -856z" />
    <glyph glyph-name="Zacute" unicode="&#x179;" horiz-adv-x="1294" 
d="M754 1565h-152l229 274h195l6 -14zM-86 37l1059 1235h-834l27 178h1180l-7 -37l-1060 -1229h854l-27 -184h-1198z" />
    <glyph glyph-name="zacute" unicode="&#x17a;" horiz-adv-x="913" 
d="M455 1112h-156l279 377h196l6 -14zM-61 20l602 736h-480l23 155h780l-4 -20l-604 -735h502l-21 -156h-800z" />
    <glyph glyph-name="Zdotaccent" unicode="&#x17b;" horiz-adv-x="1294" 
d="M827 1591q-54 0 -90.5 35.5t-36.5 89.5q0 53 36.5 89t90.5 36t90.5 -37t36.5 -90q0 -52 -37 -87.5t-90 -35.5zM-86 37l1059 1235h-834l27 178h1180l-7 -37l-1060 -1229h854l-27 -184h-1198z" />
    <glyph glyph-name="zdotaccent" unicode="&#x17c;" horiz-adv-x="913" 
d="M512 1116q-54 0 -90.5 35.5t-36.5 89.5q0 53 36.5 89t90.5 36t90.5 -37t36.5 -90q0 -52 -36.5 -87.5t-90.5 -35.5zM-61 20l602 736h-480l23 155h780l-4 -20l-604 -735h502l-21 -156h-800z" />
    <glyph glyph-name="Zcaron" unicode="&#x17d;" horiz-adv-x="1294" 
d="M895 1565h-195l-178 276l15 17h131l137 -213l196 213h138l10 -17zM-86 37l1059 1235h-834l27 178h1180l-7 -37l-1060 -1229h854l-27 -184h-1198z" />
    <glyph glyph-name="zcaron" unicode="&#x17e;" horiz-adv-x="913" 
d="M385 1470l129 -278l207 278h139l10 -16l-266 -360h-196l-164 360l12 16h129zM-61 20l602 736h-480l23 155h780l-4 -20l-604 -735h502l-21 -156h-800z" />
    <glyph glyph-name="florin" unicode="&#x192;" horiz-adv-x="1433" 
d="M340 -317q-72 0 -133 26l39 150l16 6q43 -15 74 -15q69 0 108 47.5t52 155.5l94 672h-172l22 149h172l31 226q30 216 105.5 302.5t224.5 86.5q77 0 147 -25l-30 -157l-17 -7q-52 21 -92 21q-67 0 -103 -48.5t-53 -170.5l-30 -228h219l-21 -149h-221l-96 -698
q-24 -176 -108 -260t-228 -84z" />
    <glyph glyph-name="Aringacute" unicode="&#x1fa;" horiz-adv-x="1384" 
d="M1087 2290l7 -15l-279 -260h-151l229 275h194zM788 1546q-75 0 -125.5 47.5t-50.5 120.5q0 94 67.5 161t162.5 67q75 0 125.5 -48.5t50.5 -121.5q0 -92 -68 -159t-162 -67zM831 1860q-56 0 -95.5 -39.5t-39.5 -94.5q0 -44 29 -72t74 -28q56 0 95.5 39t39.5 94
q0 44 -29.5 72.5t-73.5 28.5zM1272 0h-207l-96 367h-680l-199 -367h-223l823 1450h174zM612 963l-235 -435h549l-113 430q-25 87 -63 263h-5q-82 -164 -133 -258z" />
    <glyph glyph-name="aringacute" unicode="&#x1fb;" horiz-adv-x="1175" 
d="M649 1589h-153l278 377h195l8 -14zM621 1075q-76 0 -126.5 47.5t-50.5 120.5q0 94 67.5 160.5t162.5 66.5q75 0 125.5 -48.5t50.5 -121.5q0 -92 -67.5 -158.5t-161.5 -66.5zM631 1155q56 0 95.5 39t39.5 94q0 44 -29 72.5t-73 28.5q-56 0 -96 -39.5t-40 -94.5
q0 -44 29 -72t74 -28zM389 -39q-164 0 -262 108t-98 293q0 158 66 294t178 215t243 79q98 0 177.5 -53t121.5 -149l25 163h180l-127 -911h-184l6 37q9 61 18 108q-64 -85 -158 -134.5t-186 -49.5zM438 127q144 0 245 113t101 280q0 119 -65.5 192.5t-169.5 73.5
q-139 0 -234.5 -117.5t-95.5 -295.5q0 -118 58 -182t161 -64z" />
    <glyph glyph-name="AEacute" unicode="&#x1fc;" horiz-adv-x="1900" 
d="M1346 1565h-152l229 274h195l6 -14zM1700 655h-617l-67 -479h667l-45 -176h-843l51 367h-486l-262 -367h-231l1048 1450h916l6 -176h-668l-63 -445h616zM778 952l-307 -424h397l60 426q23 144 61 326h-4q-72 -131 -207 -328z" />
    <glyph glyph-name="aeacute" unicode="&#x1fd;" horiz-adv-x="1611" 
d="M846 1112h-156l279 377h196l6 -14zM229 -39q-117 0 -177 58t-60 153q0 294 610 369l8 61q10 97 -21.5 143t-107.5 46q-147 0 -274 -156l-17 -2l-114 82q80 109 199.5 172t250.5 63q201 0 244 -153h4q64 76 152.5 114.5t187.5 38.5q160 0 259.5 -107.5t99.5 -291.5
q0 -67 -17 -127h-684q-2 -18 -2 -57q0 -113 61 -181.5t152 -68.5q159 0 281 159h16l129 -81q-82 -116 -195 -175t-245 -59q-101 0 -195.5 54t-140.5 132q-119 -103 -211 -144.5t-193 -41.5zM799 555l489 -4q10 113 -45 180.5t-153 67.5t-176 -65.5t-115 -178.5zM299 102
q67 0 135 33t162 113q-19 85 -8 168q-215 -29 -310.5 -80.5t-95.5 -140.5q0 -41 29.5 -67t87.5 -26z" />
    <glyph glyph-name="Oslashacute" unicode="&#x1fe;" horiz-adv-x="1753" 
d="M1260 1839l6 -14l-279 -260h-151l229 274h195zM1616 1405l-135 -135q153 -176 153 -436q0 -141 -44.5 -274t-126 -240.5t-189 -188.5t-240.5 -125.5t-274 -44.5q-256 0 -438 139l-129 -129l-91 72l136 137q-154 181 -154 436q0 142 44.5 275t125.5 240.5t189 188.5
t241 125t274 44q263 0 443 -141l131 131zM291 627q0 -178 94 -301l875 878q-131 101 -312 101q-133 0 -254.5 -54t-209.5 -145t-140.5 -216.5t-52.5 -262.5zM770 145q175 0 326.5 92t241 248.5t89.5 337.5q0 175 -90 301l-874 -880q129 -99 307 -99z" />
    <glyph glyph-name="oslashacute" unicode="&#x1ff;" horiz-adv-x="1161" 
d="M612 1112h-155l278 377h197l6 -14zM467 -39q-149 0 -268 82l-72 -72l-86 70l80 80q-90 114 -90 272q0 150 74 278t203.5 203.5t283.5 75.5q153 0 272 -82l72 72l82 -72l-78 -77q86 -109 86 -267q0 -112 -45 -216t-120 -180t-178.5 -121.5t-215.5 -45.5zM254 254l481 485
q-62 47 -149 47q-153 0 -261 -114.5t-108 -272.5q0 -79 37 -145zM475 125q147 0 255 116.5t108 272.5q0 82 -33 141l-479 -483q66 -47 149 -47z" />
    <glyph glyph-name="uni0218" unicode="&#x218;" horiz-adv-x="1167" 
d="M481 -39q-177 0 -291 74.5t-180 232.5l152 92l35 -12q45 -115 113.5 -165t176.5 -50q133 0 224.5 82.5t91.5 194.5q0 84 -62.5 145t-214.5 129q-183 78 -266.5 170.5t-83.5 218.5q0 182 134 299t349 117q147 0 253 -60.5t157 -175.5l-147 -92l-35 13q-38 74 -96.5 108.5
t-143.5 34.5q-117 0 -191.5 -62.5t-74.5 -160.5q0 -68 55.5 -121t208.5 -129q197 -91 280 -184.5t83 -225.5q0 -199 -150.5 -336t-376.5 -137zM684 -160l-227 -366l-123 51l166 375l22 8z" />
    <glyph glyph-name="uni0219" unicode="&#x219;" horiz-adv-x="856" 
d="M313 -39q-127 0 -216.5 54.5t-127.5 158.5l140 86l12 -6q50 -145 198 -145q84 0 137.5 38t53.5 99q0 43 -40 77.5t-130 69.5q-141 54 -203.5 116t-62.5 148q0 126 101 209.5t255 83.5q117 0 199.5 -52t111.5 -146l-129 -76l-14 6q-44 121 -176 121q-71 0 -119.5 -36.5
t-48.5 -90.5q0 -39 38.5 -71t137.5 -75q140 -54 200 -116.5t60 -153.5q0 -132 -105.5 -215.5t-271.5 -83.5zM485 -160l-227 -366l-123 51l166 375l23 8z" />
    <glyph glyph-name="uni021A" unicode="&#x21a;" horiz-adv-x="1222" 
d="M389 0l180 1270h-493l26 180h1182l-24 -180h-494l-178 -1270h-199zM664 -160l-228 -366l-123 51l166 375l23 8z" />
    <glyph glyph-name="uni021B" unicode="&#x21b;" horiz-adv-x="710" 
d="M526 154l17 -9l-15 -153q-91 -31 -180 -31q-128 0 -187.5 74.5t-39.5 220.5l72 504h-173l21 151h172l41 277l164 92h28l-51 -369h260l-22 -151h-258l-66 -467q-13 -93 10 -129.5t93 -36.5q50 0 114 27zM449 -160l-228 -366l-123 51l166 375l23 8z" />
    <glyph glyph-name="uni0237" unicode="&#x237;" horiz-adv-x="569" 
d="M-68 -471q-67 0 -131 27l37 149l17 6q44 -14 73 -14q69 0 107 46.5t55 156.5l141 1011h183l-146 -1038q-26 -178 -109 -261t-227 -83z" />
    <glyph glyph-name="uni02BC" unicode="&#x2bc;" horiz-adv-x="481" 
d="M489 1458l-301 -473l-122 49l235 484l25 8z" />
    <glyph glyph-name="circumflex" unicode="&#x2c6;" horiz-adv-x="749" 
d="M637 1094l-127 278l-207 -278h-141l-8 16l266 360h196l164 -360l-14 -16h-129z" />
    <glyph glyph-name="caron" unicode="&#x2c7;" horiz-adv-x="749" 
d="M344 1470l129 -278l207 278h139l10 -16l-266 -360h-196l-164 360l12 16h129z" />
    <glyph glyph-name="breve" unicode="&#x2d8;" horiz-adv-x="778" 
d="M485 1104q-143 0 -223.5 71.5t-71.5 192.5l15 16h123q8 -72 48.5 -104.5t123.5 -32.5q84 0 134 32.5t75 104.5h120l17 -16q-28 -122 -125 -193t-236 -71z" />
    <glyph glyph-name="dotaccent" unicode="&#x2d9;" horiz-adv-x="378" 
d="M299 1116q-54 0 -90.5 35.5t-36.5 89.5q0 53 36.5 89t90.5 36t90.5 -37t36.5 -90q0 -52 -36.5 -87.5t-90.5 -35.5z" />
    <glyph glyph-name="ring" unicode="&#x2da;" horiz-adv-x="522" 
d="M350 1075q-75 0 -125.5 47.5t-50.5 120.5q0 94 67 160.5t162 66.5q75 0 126 -48.5t51 -121.5q0 -92 -68 -158.5t-162 -66.5zM360 1155q56 0 96 39t40 94q0 44 -29.5 72.5t-73.5 28.5q-56 0 -95.5 -39.5t-39.5 -94.5q0 -44 29 -72t73 -28z" />
    <glyph glyph-name="ogonek" unicode="&#x2db;" horiz-adv-x="507" 
d="M137 -459q-81 0 -130.5 41.5t-49.5 112.5q0 82 68.5 162t167.5 143h108q-201 -144 -201 -264q0 -35 22.5 -55.5t59.5 -20.5q62 0 107 39h10l27 -109q-85 -49 -189 -49z" />
    <glyph glyph-name="tilde" unicode="&#x2dc;" horiz-adv-x="811" 
d="M647 1118q74 0 137.5 66t92.5 174h-115l-17 -12q-27 -89 -86 -89q-37 0 -130 50.5t-144 50.5q-74 0 -137.5 -66.5t-91.5 -173.5h114l19 12q28 89 84 89q33 0 79 -25.5t97 -50.5t98 -25z" />
    <glyph glyph-name="hungarumlaut" unicode="&#x2dd;" horiz-adv-x="890" 
d="M303 1094h-151l276 376h193l8 -14zM647 1094h-153l276 376h195l6 -14z" />
    <glyph glyph-name="gravecomb" unicode="&#x300;" 
d="M-82 1094h-145l-291 362l8 14h193z" />
    <glyph glyph-name="acutecomb" unicode="&#x301;" 
d="M-340 1094h-156l279 376h197l6 -14z" />
    <glyph glyph-name="uni0302" unicode="&#x302;" 
d="M-225 1094l-129 278l-207 -278h-141l-9 16l267 360h196l164 -360l-14 -16h-127z" />
    <glyph glyph-name="tildecomb" unicode="&#x303;" 
d="M-164 1118q74 0 137.5 66t92.5 174h-115l-17 -12q-27 -89 -86 -89q-26 0 -62 16t-67.5 34.5t-71.5 34.5t-73 16q-74 0 -137.5 -66.5t-91.5 -173.5h114l19 12q28 89 84 89q33 0 79 -25.5t97 -50.5t98 -25z" />
    <glyph glyph-name="uni0304" unicode="&#x304;" 
d="M-72 1174h-567l18 139h568z" />
    <glyph glyph-name="uni0306" unicode="&#x306;" 
d="M-305 1104q-142 0 -222 71.5t-73 192.5l16 16h123q6 -72 47 -104.5t125 -32.5q82 0 132 32.5t75 104.5h123l14 -16q-26 -122 -122.5 -193t-237.5 -71z" />
    <glyph glyph-name="uni0307" unicode="&#x307;" 
d="M-156 1116q-54 0 -90.5 35.5t-36.5 89.5q0 53 36.5 89t90.5 36t90.5 -37t36.5 -90q0 -52 -36.5 -87.5t-90.5 -35.5z" />
    <glyph glyph-name="uni0308" unicode="&#x308;" 
d="M-453 1120q-51 0 -85.5 33.5t-34.5 85.5q0 48 35.5 83.5t84.5 35.5t84 -35t35 -84q0 -53 -33 -86t-86 -33zM-82 1120q-51 0 -85 33.5t-34 85.5q0 48 35 83.5t84 35.5q50 0 84.5 -35t34.5 -84q0 -52 -34 -85.5t-85 -33.5z" />
    <glyph glyph-name="uni030A" unicode="&#x30a;" 
d="M-172 1075q-75 0 -125.5 47.5t-50.5 120.5q0 94 67 160.5t162 66.5q75 0 125.5 -48.5t50.5 -121.5q0 -92 -67.5 -158.5t-161.5 -66.5zM-162 1155q56 0 95.5 39t39.5 94q0 44 -29 72.5t-73 28.5q-56 0 -95.5 -39.5t-39.5 -94.5q0 -44 29 -72t73 -28z" />
    <glyph glyph-name="uni030B" unicode="&#x30b;" 
d="M-618 1094h-152l276 376h193l8 -14zM-274 1094h-154l276 376h195l6 -14z" />
    <glyph glyph-name="uni030C" unicode="&#x30c;" 
d="M-518 1470l129 -278l207 278h139l10 -16l-266 -360h-197l-163 360l12 16h129z" />
    <glyph glyph-name="uni0312" unicode="&#x312;" 
d="M-401 1122l227 367l123 -49l-168 -375l-21 -10z" />
    <glyph glyph-name="uni0315" unicode="&#x315;" 
d="M-53 1505l-228 -366l-122 51l165 375l23 8z" />
    <glyph glyph-name="dotbelowcomb" unicode="&#x323;" 
d="M-272 -506q-54 0 -90.5 35.5t-36.5 89.5q0 52 36.5 87.5t90.5 35.5q53 0 90 -36.5t37 -88.5t-37 -87.5t-90 -35.5z" />
    <glyph glyph-name="uni0324" unicode="&#x324;" 
d="M-659 -420q-52 0 -86.5 34t-34.5 85q0 48 36 83.5t85 35.5t82.5 -34.5t33.5 -84.5q0 -52 -32 -85.5t-84 -33.5zM-291 -420q-50 0 -84.5 34t-34.5 85q0 47 36 83t83 36q50 0 85.5 -35t35.5 -84q0 -51 -34.5 -85t-86.5 -34z" />
    <glyph glyph-name="uni0325" unicode="&#x325;" 
d="M-401 -559q-75 0 -126 48.5t-51 121.5q0 94 67.5 160.5t162.5 66.5q75 0 124.5 -48.5t49.5 -121.5q0 -93 -67 -160t-160 -67zM-391 -477q56 0 95.5 39t39.5 94q0 44 -29 72t-73 28q-56 0 -96 -39t-40 -94q0 -44 29 -72t74 -28z" />
    <glyph glyph-name="uni0326" unicode="&#x326;" 
d="M-31 -160l-227 -366l-123 51l166 375l22 8z" />
    <glyph glyph-name="uni0327" unicode="&#x327;" 
d="M-428 -473q-119 0 -205 49l45 90l19 6q62 -45 145 -45q54 0 86.5 24.5t32.5 65.5q0 62 -96 62q-37 0 -91 -15l-36 37l151 199h109l-113 -150q35 9 66 9q66 0 107.5 -36.5t41.5 -94.5q0 -91 -72.5 -146t-189.5 -55z" />
    <glyph glyph-name="uni0328" unicode="&#x328;" 
d="M-371 -459q-81 0 -130.5 41.5t-49.5 112.5q0 82 68.5 162t167.5 143h108q-201 -144 -201 -264q0 -35 22.5 -55.5t59.5 -20.5q62 0 107 39h10l27 -109q-85 -49 -189 -49z" />
    <glyph glyph-name="uni0330" unicode="&#x330;" 
d="M-387 -459q74 0 137 66t92 174h-112l-19 -12q-27 -88 -86 -88q-32 0 -80 25t-100.5 50t-93.5 25q-74 0 -137.5 -66.5t-92.5 -173.5h117l17 13q28 88 83 88q33 0 79 -25t97.5 -50.5t98.5 -25.5z" />
    <glyph glyph-name="uni0331" unicode="&#x331;" 
d="M-180 -381h-568l17 139h569z" />
    <glyph glyph-name="uni0335" unicode="&#x335;" 
d="M-113 381h-467l21 147h467z" />
    <glyph glyph-name="uni0336" unicode="&#x336;" 
d="M205 381h-1454l20 147h1454z" />
    <glyph glyph-name="uni0337" unicode="&#x337;" 
d="M-61 612l-742 -428l-63 111l743 426z" />
    <glyph glyph-name="uni0338" unicode="&#x338;" 
d="M-61 1024l-1022 -1219l-97 84l1022 1217z" />
    <glyph glyph-name="uni0394" unicode="&#x394;" horiz-adv-x="1384" 
d="M690 1450h174l408 -1450h-1405zM612 963l-426 -787h832l-205 782q-25 87 -63 263h-5q-82 -164 -133 -258z" />
    <glyph glyph-name="pi" unicode="&#x3c0;" horiz-adv-x="1099" 
d="M625 162l86 598h-375l-107 -760h-182l107 760h-140l23 151h1024l-21 -151h-149l-84 -586q-4 -36 5 -47.5t42 -11.5q24 0 59 12l15 -8l-19 -129q-65 -23 -125 -23q-94 0 -133 47t-26 148z" />
    <glyph glyph-name="uni0400" unicode="&#x400;" horiz-adv-x="1159" 
d="M889 1565h-146l-241 260l10 14h184zM53 0l205 1450h832l6 -176h-668l-63 -445h616l-23 -174h-616l-68 -479h668l-45 -176h-844z" />
    <glyph glyph-name="uni0401" unicode="&#x401;" horiz-adv-x="1159" 
d="M512 1612q-51 0 -86 34.5t-35 86.5q0 47 36 82.5t85 35.5t83 -35t34 -83q0 -53 -32.5 -87t-84.5 -34zM920 1612q-50 0 -84.5 34.5t-34.5 86.5q0 47 36 82.5t83 35.5q49 0 84.5 -35t35.5 -83q0 -53 -34 -87t-86 -34zM53 0l205 1450h832l6 -176h-668l-63 -445h616l-23 -174
h-616l-68 -479h668l-45 -176h-844z" />
    <glyph glyph-name="uni0403" unicode="&#x403;" horiz-adv-x="1003" 
d="M674 1565h-152l230 274h194l6 -14zM53 0l205 1450h774l8 -180h-612l-178 -1270h-197z" />
    <glyph glyph-name="uni040C" unicode="&#x40c;" horiz-adv-x="1277" 
d="M1022 1839l6 -14l-278 -260h-152l229 274h195zM1100 1450h258l-649 -602l475 -848h-226l-393 715l-246 -230l-69 -485h-197l205 1450h197l-99 -698z" />
    <glyph glyph-name="uni040D" unicode="&#x40d;" horiz-adv-x="1591" 
d="M1092 1565h-146l-241 260l10 14h184zM1499 1450l-205 -1450h-196l102 723q28 213 53 371h-6l-291 -291l-827 -830h-80l209 1477h197l-97 -676q-33 -236 -55 -375h6q52 54 162 164.5t166 169.5l711 717h151z" />
    <glyph glyph-name="uni0410" unicode="&#x410;" horiz-adv-x="1384" 
d="M1272 0h-207l-96 367h-680l-199 -367h-223l823 1450h174zM612 963l-235 -435h549l-113 430q-25 87 -63 263h-5q-82 -164 -133 -258z" />
    <glyph glyph-name="uni0411" unicode="&#x411;" horiz-adv-x="1183" 
d="M369 846h213q227 0 341.5 -90.5t114.5 -261.5q0 -233 -150 -363.5t-409 -130.5h-426l205 1450h768l10 -178h-606zM272 170h193q375 0 375 305q0 104 -73 152.5t-230 48.5h-193z" />
    <glyph glyph-name="uni0412" unicode="&#x412;" horiz-adv-x="1218" 
d="M442 0h-389l205 1450h371q227 0 342.5 -80t115.5 -237q0 -134 -72.5 -231t-199.5 -132l-2 -6q118 -25 186 -105t68 -196q0 -224 -161.5 -343.5t-463.5 -119.5zM430 1282l-65 -457h194q159 0 247.5 73.5t88.5 203.5q0 91 -71.5 135.5t-221.5 44.5h-172zM342 672l-70 -502
h174q215 0 319.5 74t106.5 225q0 104 -78 153.5t-245 49.5h-207z" />
    <glyph glyph-name="uni0413" unicode="&#x413;" horiz-adv-x="1003" 
d="M53 0l205 1450h774l8 -180h-612l-178 -1270h-197z" />
    <glyph glyph-name="uni0414" unicode="&#x414;" horiz-adv-x="1425" 
d="M885 1450l303 -1272h127l-74 -518h-182l47 340h-1032l-47 -340h-183l72 518h127l668 1272h174zM985 178l-166 785q-12 56 -29.5 146.5t-21.5 111.5h-4q-22 -46 -65 -136.5t-58 -121.5l-383 -785h727z" />
    <glyph glyph-name="uni0415" unicode="&#x415;" horiz-adv-x="1159" 
d="M53 0l205 1450h832l6 -176h-668l-63 -445h616l-23 -174h-616l-68 -479h668l-45 -176h-844z" />
    <glyph glyph-name="uni0416" unicode="&#x416;" horiz-adv-x="2037" 
d="M160 0h-248l676 831l-443 619h238l289 -416q30 -44 116.5 -169t131.5 -193h2q8 54 31.5 229.5t37.5 269.5l39 279h197l-39 -279l-74 -491h2q42 43 158 165t182 189l410 416h245l-618 -619l442 -831h-237l-352 684l-267 -266l-57 -418h-197l58 418l-181 260z" />
    <glyph glyph-name="uni0417" unicode="&#x417;" horiz-adv-x="1181" 
d="M479 -39q-236 0 -360.5 110.5t-118.5 311.5l162 25l33 -17q-2 -120 74 -188t216 -68q156 0 246 86t90 225q0 117 -73.5 174.5t-225.5 57.5h-153l22 153h148q163 0 254.5 76t91.5 211q0 94 -59 146.5t-167 52.5q-130 0 -214.5 -60.5t-122.5 -173.5l-37 -14l-156 25
q56 186 200 290.5t355 104.5q186 0 297 -90t111 -246q0 -134 -83.5 -246.5t-222.5 -152.5q112 -28 173 -108t61 -200q0 -211 -153 -348t-388 -137z" />
    <glyph glyph-name="uni0418" unicode="&#x418;" horiz-adv-x="1591" 
d="M1499 1450l-205 -1450h-196l102 723q28 213 53 371h-6l-291 -291l-827 -830h-80l209 1477h197l-97 -676q-33 -236 -55 -375h6q52 54 162 164.5t166 169.5l711 717h151z" />
    <glyph glyph-name="uni0419" unicode="&#x419;" horiz-adv-x="1591" 
d="M885 1565q-143 0 -223.5 71.5t-71.5 192.5l16 16h123q6 -71 47 -104t123 -33q83 0 134 33t77 104h121l14 -16q-26 -122 -122.5 -193t-237.5 -71zM1499 1450l-205 -1450h-196l102 723q28 213 53 371h-6l-291 -291l-827 -830h-80l209 1477h197l-97 -676q-33 -236 -55 -375
h6q52 54 162 164.5t166 169.5l711 717h151z" />
    <glyph glyph-name="uni041A" unicode="&#x41a;" horiz-adv-x="1277" 
d="M1100 1450h258l-649 -602l475 -848h-226l-393 715l-246 -230l-69 -485h-197l205 1450h197l-99 -698z" />
    <glyph glyph-name="uni041B" unicode="&#x41b;" horiz-adv-x="1363" 
d="M88 0h-221l813 1450h174l399 -1450h-211l-243 961q-7 28 -20 80.5t-23.5 96.5t-18.5 83h-4q-2 -4 -133 -260z" />
    <glyph glyph-name="uni041C" unicode="&#x41c;" horiz-adv-x="1820" 
d="M518 1450l330 -952h4l602 952h272l-204 -1450h-193l168 1196h-4l-666 -1038h-36l-373 1038h-4l-168 -1196h-193l205 1450h260z" />
    <glyph glyph-name="uni041D" unicode="&#x41d;" horiz-adv-x="1486" 
d="M250 0h-197l205 1450h197l-90 -627h743l90 627h197l-205 -1450h-197l90 645h-743z" />
    <glyph glyph-name="uni041E" unicode="&#x41e;" horiz-adv-x="1753" 
d="M760 -39q-196 0 -350 82.5t-240 232t-86 340.5q0 142 44.5 275t125.5 240.5t189 188.5t241 125t274 44q300 0 488 -182t188 -473q0 -141 -44.5 -274t-126 -240.5t-189 -188.5t-240.5 -125.5t-274 -44.5zM770 145q175 0 326.5 92t241 248.5t89.5 337.5q0 216 -132.5 349
t-346.5 133q-133 0 -254.5 -54t-209.5 -145t-140.5 -216.5t-52.5 -262.5q0 -214 133.5 -348t345.5 -134z" />
    <glyph glyph-name="uni041F" unicode="&#x41f;" horiz-adv-x="1507" 
d="M250 0h-197l205 1450h1157l-205 -1450h-196l178 1272h-764z" />
    <glyph glyph-name="uni0420" unicode="&#x420;" horiz-adv-x="1155" 
d="M250 0h-197l203 1450h401q225 0 341 -91t116 -263q0 -228 -148.5 -361t-404.5 -133h-227zM430 1278l-74 -506h185q184 0 279 78.5t95 230.5q0 102 -72.5 149.5t-226.5 47.5h-186z" />
    <glyph glyph-name="uni0421" unicode="&#x421;" horiz-adv-x="1609" 
d="M743 -39q-294 0 -476.5 179.5t-182.5 469.5q0 179 67.5 341.5t181.5 280.5t272 187.5t331 69.5q224 0 379.5 -98t234.5 -291l-151 -90l-33 12q-61 144 -168.5 213.5t-267.5 69.5q-129 0 -247 -54.5t-203.5 -146t-136 -218t-50.5 -263.5q0 -212 129 -345t336 -133
q169 0 298.5 70t235.5 219l35 4l125 -96q-275 -381 -709 -381z" />
    <glyph glyph-name="uni0422" unicode="&#x422;" horiz-adv-x="1222" 
d="M389 0l180 1270h-493l26 180h1182l-24 -180h-494l-178 -1270h-199z" />
    <glyph glyph-name="uni0423" unicode="&#x423;" horiz-adv-x="1228" 
d="M297 0h-213l430 594l-385 856h215l160 -393q10 -27 125 -295h8q100 138 205 293l274 395h225z" />
    <glyph glyph-name="uni0424" unicode="&#x424;" horiz-adv-x="1796" 
d="M1677 821q0 -160 -61 -303t-166 -248t-253 -170t-316 -75l-15 -105h-196l16 105q-276 22 -438 184.5t-162 421.5q0 215 102.5 392.5t285 284t409.5 117.5l14 105h197l-17 -105q277 -22 438.5 -184t161.5 -420zM287 637q0 -182 113.5 -299.5t310.5 -136.5l149 1048
q-168 -11 -298.5 -93.5t-202.5 -218t-72 -300.5zM1051 1249l-146 -1048q165 13 295 96.5t202.5 218.5t72.5 297q0 183 -113 300t-311 136z" />
    <glyph glyph-name="uni0425" unicode="&#x425;" horiz-adv-x="1257" 
d="M121 0h-240l613 766l-379 684h237l273 -537l424 537h237l-567 -694l411 -756h-229l-311 606z" />
    <glyph glyph-name="uni0426" unicode="&#x426;" horiz-adv-x="1505" 
d="M1184 1450h196l-180 -1272h168l-74 -518h-184l47 340h-1104l205 1450h197l-181 -1272h732z" />
    <glyph glyph-name="uni0427" unicode="&#x427;" horiz-adv-x="1363" 
d="M991 866l82 584h197l-205 -1450h-197l97 678q-83 -89 -201 -144t-229 -55q-214 0 -300.5 115t-54.5 354l70 500h196l-63 -467q-23 -174 20.5 -246.5t176.5 -72.5q113 0 211.5 45t199.5 159z" />
    <glyph glyph-name="uni0428" unicode="&#x428;" horiz-adv-x="2019" 
d="M1550 178l181 1272h196l-205 -1450h-1669l205 1450h197l-181 -1272h541l180 1272h197l-180 -1272h538z" />
    <glyph glyph-name="uni0429" unicode="&#x429;" horiz-adv-x="2052" 
d="M1731 1450h196l-180 -1272h166l-74 -518h-182l47 340h-1651l205 1450h197l-181 -1272h541l180 1272h197l-180 -1272h538z" />
    <glyph glyph-name="uni042A" unicode="&#x42a;" horiz-adv-x="1318" 
d="M522 850h211q225 0 342 -94t117 -277q0 -223 -149 -351t-412 -128h-426l180 1270h-328l45 180h506zM426 172h192q375 0 375 291q0 115 -72.5 166t-230.5 51h-190z" />
    <glyph glyph-name="uni042B" unicode="&#x42b;" horiz-adv-x="1712" 
d="M53 0l205 1450h197l-86 -600h211q225 0 341.5 -94t116.5 -277q0 -223 -148.5 -351t-410.5 -128h-426zM1219 0l204 1450h197l-205 -1450h-196zM537 680h-191l-74 -508h193q375 0 375 291q0 115 -72.5 166t-230.5 51z" />
    <glyph glyph-name="uni042C" unicode="&#x42c;" horiz-adv-x="1165" 
d="M53 0l205 1450h197l-86 -600h211q225 0 341.5 -94t116.5 -277q0 -223 -148.5 -351t-410.5 -128h-426zM537 680h-191l-74 -508h193q375 0 375 291q0 115 -72.5 166t-230.5 51z" />
    <glyph glyph-name="uni042D" unicode="&#x42d;" horiz-adv-x="1628" 
d="M866 1489q296 0 469.5 -178t173.5 -471q0 -179 -64.5 -340t-176.5 -280t-273.5 -189t-345.5 -70q-233 0 -387 93.5t-242 285.5l150 92l35 -8q64 -144 172.5 -211.5t286.5 -67.5q233 0 398 142t218 366h-764l23 162h761v14q0 217 -121.5 346.5t-336.5 129.5
q-168 0 -301.5 -69.5t-241.5 -215.5l-37 -8l-125 94q266 383 729 383z" />
    <glyph glyph-name="uni042E" unicode="&#x42e;" horiz-adv-x="2215" 
d="M1432 1489q294 0 479.5 -182t185.5 -473q0 -141 -44.5 -274t-125 -240.5t-187 -188.5t-238 -125.5t-269.5 -44.5q-192 0 -343.5 82.5t-237 232t-85.5 340.5v29h-227l-90 -645h-197l205 1450h197l-90 -627h227q35 141 115 264.5t190 212t249 139t286 50.5zM1243 145
q128 0 247.5 54.5t207 145.5t140 216.5t52.5 261.5q0 216 -130.5 349t-338.5 133q-129 0 -248.5 -54t-207 -144.5t-139.5 -216.5t-52 -263q0 -213 132 -347.5t337 -134.5z" />
    <glyph glyph-name="uni042F" unicode="&#x42f;" horiz-adv-x="1245" 
d="M754 1450h397l-203 -1450h-196l88 625h-236l-508 -625h-207l-10 33l524 626q-115 35 -174 114.5t-59 195.5q0 232 158.5 356.5t425.5 124.5zM666 793h196l68 485h-176q-187 0 -287 -68.5t-100 -222.5q0 -101 73 -147.5t226 -46.5z" />
    <glyph glyph-name="uni0430" unicode="&#x430;" horiz-adv-x="1175" 
d="M389 -39q-164 0 -262 108t-98 293q0 158 66 294t178 215t243 79q98 0 177.5 -53t121.5 -149l25 163h180l-127 -911h-184l6 37q9 61 18 108q-64 -85 -158 -134.5t-186 -49.5zM438 127q144 0 245 113t101 280q0 119 -65.5 192.5t-169.5 73.5q-139 0 -234.5 -117.5
t-95.5 -295.5q0 -118 58 -182t161 -64z" />
    <glyph glyph-name="uni0431" unicode="&#x431;" horiz-adv-x="1161" 
d="M508 -39q-248 0 -355.5 145t-68.5 414l16 121q20 140 47.5 245.5t72.5 201.5t108 162.5t153.5 115.5t208.5 74l248 53q60 13 133 41l31 -150q-53 -30 -154 -53l-213 -47q-111 -24 -180.5 -56t-124.5 -92.5t-87.5 -152.5t-55.5 -235h6q74 96 172.5 148t208.5 52
q165 0 260.5 -105t95.5 -288q0 -161 -67.5 -297t-188 -216.5t-266.5 -80.5zM502 127q105 0 183 57.5t116.5 148t38.5 199.5q0 119 -62.5 185.5t-177.5 66.5q-150 0 -251 -115.5t-101 -277.5q0 -121 68 -192.5t186 -71.5z" />
    <glyph glyph-name="uni0432" unicode="&#x432;" horiz-adv-x="1146" 
d="M477 -39q-468 0 -387 584l70 475q34 242 164.5 374t332.5 132q161 0 260 -85t99 -222q0 -128 -80.5 -243.5t-198.5 -150.5l-2 -4q130 -33 195 -119t65 -213q0 -138 -67.5 -259.5t-187.5 -195t-263 -73.5zM487 127q94 0 169 49.5t115 130t40 172.5q0 116 -69 180t-203 64
h-115l20 149h105q124 0 202 92.5t78 217.5q0 83 -51 131.5t-141 48.5q-123 0 -198 -88.5t-97 -249.5l-74 -516q-52 -381 219 -381z" />
    <glyph glyph-name="uni0433" unicode="&#x433;" horiz-adv-x="866" 
d="M293 -39q-138 0 -220.5 65.5t-82.5 168.5q0 66 22.5 117t71.5 90t105 66.5t143 59.5q136 49 182.5 87.5t46.5 93.5q0 41 -31.5 67.5t-95.5 26.5q-73 0 -131.5 -32.5t-93.5 -92.5l-16 -2l-107 80q52 90 152.5 142t230.5 52q131 0 202.5 -62.5t71.5 -156.5
q0 -124 -86 -199.5t-258 -134.5q-130 -44 -178.5 -85t-48.5 -97q0 -47 38.5 -76.5t113.5 -29.5q146 0 245 141l13 2l118 -88q-69 -98 -173.5 -150.5t-233.5 -52.5z" />
    <glyph glyph-name="uni0434" unicode="&#x434;" horiz-adv-x="1183" 
d="M395 -471q-149 0 -251.5 55t-174.5 174l140 84l14 -2q51 -84 115 -119.5t163 -35.5q130 0 212.5 79.5t101.5 221.5q9 81 26 172q-64 -86 -159 -135.5t-191 -49.5q-165 0 -263.5 107.5t-98.5 288.5q0 156 65.5 290t178 212.5t245.5 78.5q98 0 179.5 -53t125.5 -149l23 163
h182l-127 -917q-29 -223 -159 -344t-347 -121zM440 139q148 0 250.5 110.5t102.5 270.5q0 120 -68 193t-178 73q-142 0 -235 -116t-93 -291q0 -114 58.5 -177t162.5 -63z" />
    <glyph glyph-name="uni0435" unicode="&#x435;" horiz-adv-x="1087" 
d="M930 424h-711q0 -9 -1 -27.5t-1 -27.5q-1 -116 64.5 -184t175.5 -68q80 0 148 37.5t132 121.5h19l127 -81q-80 -115 -194 -174.5t-245 -59.5q-189 0 -301 112t-112 302q0 120 40.5 227t110 183t166.5 120.5t207 44.5q183 0 287 -106t104 -293q0 -71 -16 -127zM551 799
q-106 0 -186 -65t-119 -179l518 -4q9 114 -48.5 181t-164.5 67z" />
    <glyph glyph-name="uni0436" unicode="&#x436;" horiz-adv-x="1497" 
d="M109 0h-218l465 563l-301 348h226l145 -178q21 -25 85 -101.5t99 -119.5q58 436 74 543l61 446h183l-62 -446q-63 -427 -82 -543q127 121 238 221l192 178h238l-397 -348l305 -563h-205l-235 453l-160 -138l-43 -315h-182l43 315l-111 129z" />
    <glyph glyph-name="uni0437" unicode="&#x437;" horiz-adv-x="978" 
d="M289 -471q-283 0 -400 229l146 88l14 -2q50 -88 107.5 -123.5t144.5 -35.5q124 0 204.5 79.5t80.5 206.5q0 96 -58 150.5t-182 54.5h-184l20 152h176q118 0 202.5 78.5t84.5 207.5q0 84 -45.5 132.5t-132.5 48.5q-85 0 -162 -45t-127 -123l-18 -2l-107 80
q70 115 191.5 180t263.5 65q148 0 235.5 -78.5t87.5 -207.5q0 -145 -89.5 -254t-211.5 -144v-4q240 -48 240 -280q0 -193 -138.5 -323t-342.5 -130z" />
    <glyph glyph-name="uni0438" unicode="&#x438;" horiz-adv-x="1126" 
d="M354 -39q-152 0 -223.5 99.5t-44.5 285.5l80 565h184l-78 -528q-38 -256 148 -256q111 0 198 94t107 242l63 448h183l-127 -911h-182l22 152q-68 -92 -156.5 -141.5t-173.5 -49.5z" />
    <glyph glyph-name="uni0439" unicode="&#x439;" horiz-adv-x="1126" 
d="M575 1104q-141 0 -221 71.5t-73 192.5l16 16h123q6 -72 47 -104.5t125 -32.5q82 0 132 32.5t75 104.5h123l14 -16q-26 -122 -123 -193t-238 -71zM354 -39q-152 0 -223.5 99.5t-44.5 285.5l80 565h184l-78 -528q-38 -256 148 -256q111 0 198 94t107 242l63 448h183
l-127 -911h-182l22 152q-68 -92 -156.5 -141.5t-173.5 -49.5z" />
    <glyph glyph-name="uni043A" unicode="&#x43a;" horiz-adv-x="1026" 
d="M899 0h-221l-266 444l-150 -129l-43 -315h-182l211 1501h182l-63 -459q-10 -73 -80 -514l436 383h250l-422 -352z" />
    <glyph glyph-name="uni043B" unicode="&#x43b;" horiz-adv-x="876" 
d="M59 0h-202l561 942h59l297 -942h-194l-172 621h-5z" />
    <glyph glyph-name="uni043C" unicode="&#x43c;" horiz-adv-x="1255" 
d="M1100 911l-127 -911h-182l86 610l-342 -499h-23l-207 503l-88 -614h-180l127 911h188l207 -516h4l346 516h191z" />
    <glyph glyph-name="uni043D" unicode="&#x43d;" horiz-adv-x="1124" 
d="M735 539l51 372h183l-127 -911h-183l56 391h-441l-55 -391h-182l127 911h182l-51 -372h440z" />
    <glyph glyph-name="uni043E" unicode="&#x43e;" horiz-adv-x="1161" 
d="M467 -39q-192 0 -314 121t-122 311q0 150 74 278t203.5 203.5t283.5 75.5q192 0 313 -119t121 -307q0 -112 -45 -216t-120 -180t-178.5 -121.5t-215.5 -45.5zM475 127q147 0 255 115.5t108 271.5q0 120 -70 195t-182 75q-153 0 -260 -113.5t-107 -271.5q0 -120 71 -196
t185 -76z" />
    <glyph glyph-name="uni043F" unicode="&#x43f;" horiz-adv-x="1153" 
d="M37 0l127 911h180l-20 -159q70 96 162 147t190 51q155 0 227.5 -98.5t46.5 -282.5l-80 -569h-182l74 512q21 148 -20 210t-142 62q-121 0 -210.5 -95t-110.5 -255l-60 -434h-182z" />
    <glyph glyph-name="uni0440" unicode="&#x440;" horiz-adv-x="1165" 
d="M156 -446h-183l191 1357h180l-22 -155q71 94 164 144t192 50q161 0 257.5 -108t96.5 -291q0 -161 -66.5 -297t-179.5 -214.5t-245 -78.5q-95 0 -178.5 51t-122.5 135l-43 -299zM510 127q142 0 238 118t96 296q0 117 -58.5 181t-162.5 64q-145 0 -249 -117t-104 -284
q0 -119 66 -188.5t174 -69.5z" />
    <glyph glyph-name="uni0441" unicode="&#x441;" horiz-adv-x="1058" 
d="M438 -39q-187 0 -297 112.5t-110 301.5q0 156 68.5 287.5t191.5 209.5t272 78q133 0 235.5 -64t155.5 -186l-145 -82l-16 7q-43 88 -101.5 127t-138.5 39q-142 0 -238 -120t-96 -286q0 -121 65 -191.5t169 -70.5q87 0 158.5 41t138.5 131l16 2l125 -88
q-86 -123 -203.5 -185.5t-249.5 -62.5z" />
    <glyph glyph-name="uni0442" unicode="&#x442;" horiz-adv-x="1740" 
d="M1270 950q148 0 221 -96.5t49 -267.5l-82 -586h-182l74 518q20 138 -18.5 202t-131.5 64q-108 0 -193.5 -99t-107.5 -249l-59 -436h-183l70 518q21 138 -17 202t-132 64q-107 0 -193 -99t-106 -249l-60 -436h-182l127 911h180l-22 -155q138 194 325 194q114 0 182 -59.5
t82 -167.5q70 114 165.5 170.5t193.5 56.5z" />
    <glyph glyph-name="uni0443" unicode="&#x443;" horiz-adv-x="968" 
d="M152 -446h-207l334 532l-254 825h204l164 -641h4l359 641h209z" />
    <glyph glyph-name="uni0444" unicode="&#x444;" horiz-adv-x="1329" 
d="M1194 530q0 -240 -154 -397t-405 -170l-57 -409h-183l58 409q-205 17 -313.5 130t-108.5 294q0 238 155 393.5t408 167.5l76 553h182l-78 -553q201 -17 310.5 -129.5t109.5 -288.5zM745 788l-92 -665q168 13 260.5 120.5t92.5 280.5q0 113 -63.5 183.5t-197.5 80.5z
M221 393q0 -116 63 -188t195 -82l96 665q-168 -13 -261 -119t-93 -276z" />
    <glyph glyph-name="uni0445" unicode="&#x445;" horiz-adv-x="964" 
d="M127 0h-227l417 473l-278 438h217l121 -209l57 -106h4q74 88 88 104l185 211h227l-408 -438l289 -473h-219l-133 236l-53 106h-4q-41 -53 -86 -104z" />
    <glyph glyph-name="uni0446" unicode="&#x446;" horiz-adv-x="1169" 
d="M971 911l-107 -759h164l-63 -449h-170l41 297h-174l22 152q-68 -92 -156.5 -141.5t-173.5 -49.5q-152 0 -223.5 99.5t-44.5 285.5l80 565h184l-78 -528q-38 -256 148 -256q111 0 198 94t107 242l63 448h183z" />
    <glyph glyph-name="uni0447" unicode="&#x447;" horiz-adv-x="1052" 
d="M666 543l51 368h182l-129 -911h-180l57 395q-169 -153 -319 -153q-142 0 -206.5 97t-39.5 282l41 290h180l-39 -282q-29 -221 121 -221q149 0 281 135z" />
    <glyph glyph-name="uni0448" unicode="&#x448;" horiz-adv-x="1740" 
d="M352 -39q-147 0 -220.5 97.5t-49.5 269.5l82 583h182l-74 -518q-20 -140 17 -203t125 -63q114 0 201.5 98.5t109.5 249.5l59 436h183l-72 -518q-20 -142 15.5 -204t127.5 -62q109 0 197 99t108 249l60 436h182l-127 -911h-180l25 156q-142 -195 -326 -195
q-116 0 -184 59.5t-80 169.5q-72 -115 -167.5 -172t-193.5 -57z" />
    <glyph glyph-name="uni0449" unicode="&#x449;" horiz-adv-x="1785" 
d="M1585 911l-106 -759h166l-66 -449h-168l41 297h-174l25 156q-142 -195 -326 -195q-116 0 -184 59.5t-80 169.5q-72 -115 -167.5 -172t-193.5 -57q-147 0 -220.5 97.5t-49.5 269.5l82 583h182l-74 -518q-20 -140 17 -203t125 -63q114 0 201.5 98.5t109.5 249.5l59 436h183
l-72 -518q-20 -142 15.5 -204t127.5 -62q109 0 197 99t108 249l60 436h182z" />
    <glyph glyph-name="uni044A" unicode="&#x44a;" horiz-adv-x="1148" 
d="M719 713q135 0 213 -81.5t78 -213.5q0 -192 -132 -324.5t-327 -132.5q-207 0 -290.5 110t-53.5 328l51 361h-233l20 151h414l-49 -360q56 78 137 120t172 42zM557 121q116 0 191 75.5t75 190.5q0 78 -47.5 123t-136.5 45q-110 0 -188 -82t-78 -180q0 -81 47.5 -126.5
t136.5 -45.5z" />
    <glyph glyph-name="uni044B" unicode="&#x44b;" horiz-adv-x="1536" 
d="M436 -39q-207 0 -290 110t-52 328l70 512h180l-49 -360q58 79 138.5 120.5t170.5 41.5q136 0 213.5 -81t77.5 -214q0 -192 -132 -324.5t-327 -132.5zM1253 0h-182l127 911h182zM442 121q116 0 191.5 75.5t75.5 190.5q0 78 -47.5 123t-135.5 45q-111 0 -189.5 -82
t-78.5 -180q0 -81 47.5 -126.5t136.5 -45.5z" />
    <glyph glyph-name="uni044C" unicode="&#x44c;" horiz-adv-x="1034" 
d="M436 -39q-207 0 -290 110t-52 328l70 512h180l-49 -360q58 79 138.5 120.5t170.5 41.5q136 0 213.5 -81t77.5 -214q0 -192 -132 -324.5t-327 -132.5zM442 121q116 0 191.5 75.5t75.5 190.5q0 78 -47.5 123t-135.5 45q-111 0 -189.5 -82t-78.5 -180q0 -81 47.5 -126.5
t136.5 -45.5z" />
    <glyph glyph-name="uni044D" unicode="&#x44d;" horiz-adv-x="1056" 
d="M530 950q189 0 291.5 -108.5t102.5 -294.5q0 -162 -62 -294.5t-183 -212t-280 -79.5q-302 0 -409 250l143 84l14 -4q44 -90 106.5 -130t156.5 -40q125 0 205.5 77t109.5 203h-406l17 127h403v11q0 122 -60.5 187t-172.5 65q-91 0 -162 -37t-145 -125l-19 -2l-117 86
q181 237 467 237z" />
    <glyph glyph-name="uni044E" unicode="&#x44e;" horiz-adv-x="1546" 
d="M977 950q192 0 313 -119t121 -307q0 -150 -75.5 -280t-204 -206.5t-277.5 -76.5q-193 0 -314.5 120.5t-121.5 309.5h-144l-55 -391h-182l211 1501h182l-135 -962h141q48 180 197 295.5t344 115.5zM860 127q147 0 255 115.5t108 271.5q0 120 -70 196t-182 76
q-153 0 -260 -114.5t-107 -272.5q0 -120 71 -196t185 -76z" />
    <glyph glyph-name="uni044F" unicode="&#x44f;" horiz-adv-x="1003" 
d="M850 911l-129 -911h-182l45 322h-144l-280 -322h-217l301 334q-85 24 -134 84.5t-49 148.5q0 162 121 253t330 91h338zM393 463h211l43 301h-170q-113 0 -172 -48.5t-59 -135.5q0 -117 147 -117z" />
    <glyph glyph-name="uni0450" unicode="&#x450;" horiz-adv-x="1087" 
d="M547 1489l235 -377h-145l-291 363l8 14h193zM930 424h-711q0 -9 -1 -27.5t-1 -27.5q-1 -116 64.5 -184t175.5 -68q80 0 148 37.5t132 121.5h19l127 -81q-80 -115 -194 -174.5t-245 -59.5q-189 0 -301 112t-112 302q0 120 40.5 227t110 183t166.5 120.5t207 44.5
q183 0 287 -106t104 -293q0 -71 -16 -127zM551 799q-106 0 -186 -65t-119 -179l518 -4q9 114 -48.5 181t-164.5 67z" />
    <glyph glyph-name="uni0451" unicode="&#x451;" horiz-adv-x="1087" 
d="M438 1120q-52 0 -86.5 33.5t-34.5 85.5q0 48 36 83.5t85 35.5q50 0 84.5 -35t34.5 -84q0 -53 -33.5 -86t-85.5 -33zM809 1120q-51 0 -85 33.5t-34 85.5q0 48 35 83.5t84 35.5t84 -35t35 -84q0 -52 -34 -85.5t-85 -33.5zM930 424h-711q0 -9 -1 -27.5t-1 -27.5
q-1 -116 64.5 -184t175.5 -68q80 0 148 37.5t132 121.5h19l127 -81q-80 -115 -194 -174.5t-245 -59.5q-189 0 -301 112t-112 302q0 120 40.5 227t110 183t166.5 120.5t207 44.5q183 0 287 -106t104 -293q0 -71 -16 -127zM551 799q-106 0 -186 -65t-119 -179l518 -4
q9 114 -48.5 181t-164.5 67z" />
    <glyph glyph-name="uni0453" unicode="&#x453;" horiz-adv-x="866" 
d="M489 1112h-155l278 377h197l6 -14zM293 -39q-138 0 -220.5 65.5t-82.5 168.5q0 66 22.5 117t71.5 90t105 66.5t143 59.5q136 49 182.5 87.5t46.5 93.5q0 41 -31.5 67.5t-95.5 26.5q-73 0 -131.5 -32.5t-93.5 -92.5l-16 -2l-107 80q52 90 152.5 142t230.5 52
q131 0 202.5 -62.5t71.5 -156.5q0 -124 -86 -199.5t-258 -134.5q-130 -44 -178.5 -85t-48.5 -97q0 -47 38.5 -76.5t113.5 -29.5q146 0 245 141l13 2l118 -88q-69 -98 -173.5 -150.5t-233.5 -52.5z" />
    <glyph glyph-name="uni045C" unicode="&#x45c;" horiz-adv-x="1026" 
d="M731 1565h-151l229 274h195l6 -14zM899 0h-221l-266 444l-150 -129l-43 -315h-182l211 1501h182l-63 -459q-10 -73 -80 -514l436 383h250l-422 -352z" />
    <glyph glyph-name="uni045D" unicode="&#x45d;" horiz-adv-x="1126" 
d="M770 1112h-145l-291 363l8 14h193zM354 -39q-152 0 -223.5 99.5t-44.5 285.5l80 565h184l-78 -528q-38 -256 148 -256q111 0 198 94t107 242l63 448h183l-127 -911h-182l22 152q-68 -92 -156.5 -141.5t-173.5 -49.5z" />
    <glyph glyph-name="Wgrave" unicode="&#x1e80;" horiz-adv-x="1959" 
d="M1253 1565h-145l-242 260l11 14h184zM492 -27h-132l-247 1477h206l117 -770q8 -62 26 -185t21 -145h9l163 332l367 756h72l157 -756l68 -332h6q27 65 77 181t64 149l332 770h217l-661 -1477h-131l-156 756q-46 211 -59 281h-9l-135 -279z" />
    <glyph glyph-name="wgrave" unicode="&#x1e81;" horiz-adv-x="1415" 
d="M918 1112h-146l-291 363l8 14h193zM324 -31h-76l-201 942h191l108 -620h4l336 610h57l160 -610h4l289 620h193l-465 -942h-78l-174 613h-4z" />
    <glyph glyph-name="Wacute" unicode="&#x1e82;" horiz-adv-x="1959" 
d="M1012 1565h-152l230 274h194l6 -14zM492 -27h-132l-247 1477h206l117 -770q8 -62 26 -185t21 -145h9l163 332l367 756h72l157 -756l68 -332h6q27 65 77 181t64 149l332 770h217l-661 -1477h-131l-156 756q-46 211 -59 281h-9l-135 -279z" />
    <glyph glyph-name="wacute" unicode="&#x1e83;" horiz-adv-x="1415" 
d="M688 1112h-156l279 377h197l6 -14zM324 -31h-76l-201 942h191l108 -620h4l336 610h57l160 -610h4l289 620h193l-465 -942h-78l-174 613h-4z" />
    <glyph glyph-name="Wdieresis" unicode="&#x1e84;" horiz-adv-x="1959" 
d="M874 1612q-51 0 -85.5 34.5t-34.5 86.5q0 48 35.5 83t84.5 35t83 -35t34 -83q0 -53 -32.5 -87t-84.5 -34zM1282 1612q-50 0 -84.5 34.5t-34.5 86.5q0 47 36 82.5t83 35.5q49 0 85 -35.5t36 -82.5q0 -53 -34.5 -87t-86.5 -34zM492 -27h-132l-247 1477h206l117 -770
q8 -62 26 -185t21 -145h9l163 332l367 756h72l157 -756l68 -332h6q27 65 77 181t64 149l332 770h217l-661 -1477h-131l-156 756q-46 211 -59 281h-9l-135 -279z" />
    <glyph glyph-name="wdieresis" unicode="&#x1e85;" horiz-adv-x="1415" 
d="M571 1120q-51 0 -85.5 33.5t-34.5 85.5q0 48 35.5 83.5t84.5 35.5t84 -35t35 -84q0 -53 -33 -86t-86 -33zM942 1120q-51 0 -85 33.5t-34 85.5q0 48 35 83.5t84 35.5q50 0 84.5 -35t34.5 -84q0 -52 -34 -85.5t-85 -33.5zM324 -31h-76l-201 942h191l108 -620h4l336 610h57
l160 -610h4l289 620h193l-465 -942h-78l-174 613h-4z" />
    <glyph glyph-name="uni1E9E" unicode="&#x1e9e;" horiz-adv-x="1402" 
d="M1270 1298l-371 -454q178 -4 279.5 -102.5t101.5 -264.5q0 -224 -137.5 -370t-343.5 -146q-148 0 -245 63t-159 207l125 107l33 -10q41 -108 98.5 -154.5t147.5 -46.5q117 0 197.5 97t80.5 245q0 108 -69.5 160.5t-214.5 52.5h-125l20 143l356 447h-618l-176 -1272h-197
l203 1450h1034z" />
    <glyph glyph-name="Ygrave" unicode="&#x1ef2;" horiz-adv-x="1212" 
d="M889 1565h-146l-241 260l10 14h184zM582 0h-197l84 594l-387 856h213l160 -393q24 -58 70 -164t57 -131h8q156 220 205 293l274 395h225l-628 -856z" />
    <glyph glyph-name="ygrave" unicode="&#x1ef3;" horiz-adv-x="968" 
d="M688 1112h-145l-291 363l8 14h193zM152 -446h-207l334 532l-254 825h204l164 -641h4l359 641h209z" />
    <glyph glyph-name="uni2000" unicode="&#x2000;" horiz-adv-x="1024" 
 />
    <glyph glyph-name="uni2001" unicode="&#x2001;" horiz-adv-x="2048" 
 />
    <glyph glyph-name="uni2002" unicode="&#x2002;" horiz-adv-x="1024" 
 />
    <glyph glyph-name="uni2003" unicode="&#x2003;" horiz-adv-x="2048" 
 />
    <glyph glyph-name="uni2004" unicode="&#x2004;" horiz-adv-x="681" 
 />
    <glyph glyph-name="uni2005" unicode="&#x2005;" horiz-adv-x="512" 
 />
    <glyph glyph-name="uni2006" unicode="&#x2006;" horiz-adv-x="342" 
 />
    <glyph glyph-name="uni2007" unicode="&#x2007;" horiz-adv-x="1433" 
 />
    <glyph glyph-name="uni2008" unicode="&#x2008;" horiz-adv-x="577" 
 />
    <glyph glyph-name="uni2009" unicode="&#x2009;" horiz-adv-x="409" 
 />
    <glyph glyph-name="uni200A" unicode="&#x200a;" horiz-adv-x="286" 
 />
    <glyph glyph-name="uni200B" unicode="&#x200b;" 
 />
    <glyph glyph-name="uni200C" unicode="&#x200c;" 
d="M-297 1546l223 221l51 -49l-178 -172l178 -168l-51 -51zM201 1546l-178 172l51 49l223 -221l-223 -219l-51 51zM-39 1247h74v-1605h-74v1605z" />
    <glyph glyph-name="uni200D" unicode="&#x200d;" 
d="M-276 1718l51 49l223 -221l-223 -219l-51 51l178 168zM225 1767l51 -49l-178 -172l178 -168l-51 -51l-223 219zM-39 1247h74v-1605h-74v1605z" />
    <glyph glyph-name="endash" unicode="&#x2013;" horiz-adv-x="1024" 
d="M881 381h-901l20 147h901z" />
    <glyph glyph-name="emdash" unicode="&#x2014;" horiz-adv-x="1576" 
d="M1434 381h-1454l20 147h1454z" />
    <glyph glyph-name="quoteleft" unicode="&#x2018;" horiz-adv-x="598" 
d="M76 954l330 535l124 -51l-268 -543l-22 -8z" />
    <glyph glyph-name="quoteright" unicode="&#x2019;" horiz-adv-x="595" 
d="M553 1421l-330 -534l-123 49l269 545l22 8z" />
    <glyph glyph-name="quotesinglbase" unicode="&#x201a;" horiz-adv-x="595" 
d="M362 199l-329 -537l-123 51l268 543l21 10z" />
    <glyph glyph-name="quotedblleft" unicode="&#x201c;" horiz-adv-x="976" 
d="M104 954l330 535l123 -51l-268 -543l-21 -8zM483 954l332 535l123 -51l-268 -543l-23 -8z" />
    <glyph glyph-name="quotedblright" unicode="&#x201d;" horiz-adv-x="976" 
d="M553 1421l-330 -534l-123 49l269 545l22 8zM934 1421l-330 -534l-125 49l269 545l22 8z" />
    <glyph glyph-name="quotedblbase" unicode="&#x201e;" horiz-adv-x="974" 
d="M362 199l-329 -537l-123 51l268 543l21 10zM741 199l-329 -537l-125 51l270 543l21 10z" />
    <glyph glyph-name="dagger" unicode="&#x2020;" horiz-adv-x="1146" 
d="M483 -446h-188l168 1191h-395l24 173h395l74 532h189l-76 -532h395l-22 -173h-396z" />
    <glyph glyph-name="daggerdbl" unicode="&#x2021;" horiz-adv-x="1146" 
d="M483 -442h-188l65 465h-378l24 167h379l86 627h-377l23 170h379l65 463h189l-66 -463h377l-23 -170h-379l-88 -627h379l-22 -167h-379z" />
    <glyph glyph-name="bullet" unicode="&#x2022;" horiz-adv-x="1208" 
d="M217 762q0 129 89.5 219t219.5 90t220 -90t90 -219t-90 -219t-220 -90t-219.5 90t-89.5 219z" />
    <glyph glyph-name="ellipsis" unicode="&#x2026;" horiz-adv-x="1851" 
d="M823 -20q-55 0 -93 37.5t-38 91.5t38 92.5t93 38.5q54 0 92.5 -38.5t38.5 -92.5t-38.5 -91.5t-92.5 -37.5zM1460 -20q-55 0 -93 37.5t-38 91.5t38 92.5t93 38.5q54 0 92.5 -38.5t38.5 -92.5t-38.5 -91.5t-92.5 -37.5zM186 -20q-55 0 -93 37.5t-38 91.5t38 91.5t93 37.5
t93 -37.5t38 -91.5t-38 -91.5t-93 -37.5z" />
    <glyph glyph-name="uni202F" unicode="&#x202f;" horiz-adv-x="409" 
 />
    <glyph glyph-name="perthousand" unicode="&#x2030;" horiz-adv-x="2744" 
d="M496 756q-140 0 -231 87t-91 220q0 169 123.5 292.5t290.5 123.5q140 0 231.5 -87.5t91.5 -222.5q0 -167 -124 -290t-291 -123zM485 0h-184l1077 1450h187zM512 899q99 0 171.5 75t72.5 177q0 80 -52 132t-133 52q-100 0 -171.5 -74.5t-71.5 -177.5q0 -82 51 -133
t133 -51zM1278 -29q-140 0 -231 87.5t-91 220.5q0 110 56.5 206t152 152.5t205.5 56.5q139 0 230.5 -87.5t91.5 -219.5q0 -168 -123 -292t-291 -124zM2122 -29q-139 0 -229.5 87t-90.5 221q0 111 56 206.5t151.5 152t206.5 56.5q138 0 229.5 -87.5t91.5 -219.5
q0 -168 -123.5 -292t-291.5 -124zM1292 115q101 0 173.5 75t72.5 177q0 82 -51 133t-133 51q-100 0 -172 -74.5t-72 -177.5q0 -80 51.5 -132t130.5 -52zM2138 115q100 0 173 75.5t73 176.5q0 82 -51 133t-133 51q-100 0 -172 -74.5t-72 -177.5q0 -80 50.5 -132t131.5 -52z
" />
    <glyph glyph-name="minute" unicode="&#x2032;" horiz-adv-x="442" 
d="M276 1061h-133l62 485h180z" />
    <glyph glyph-name="second" unicode="&#x2033;" horiz-adv-x="753" 
d="M276 1061h-133l62 485h180zM588 1061h-135l61 485h180z" />
    <glyph glyph-name="guilsinglleft" unicode="&#x2039;" horiz-adv-x="616" 
d="M371 129l-109 -70l-221 402l334 401l90 -69v-13l-256 -319l166 -320z" />
    <glyph glyph-name="guilsinglright" unicode="&#x203a;" horiz-adv-x="618" 
d="M444 461l-333 -402l-91 70v12l254 320l-163 319l4 13l108 69z" />
    <glyph glyph-name="fraction" unicode="&#x2044;" horiz-adv-x="329" 
d="M580 1526h192l-1042 -1600h-195z" />
    <glyph glyph-name="uni2070" unicode="&#x2070;" horiz-adv-x="784" 
d="M403 903q-128 0 -199 88.5t-71 249.5q0 157 48.5 285t137 203t199.5 75q130 0 201.5 -88.5t71.5 -247.5q0 -157 -49 -286t-138.5 -204t-200.5 -75zM414 1044q94 0 156.5 125.5t62.5 296.5q0 95 -32 146t-91 51q-93 0 -156 -125t-63 -295q0 -97 31.5 -148t91.5 -51z" />
    <glyph glyph-name="uni2074" unicode="&#x2074;" horiz-adv-x="784" 
d="M625 942h-152l25 170h-422l12 86l524 606h133l-75 -557h98l-18 -135h-101zM498 1491l-211 -244h231l19 152q11 79 41 200l-3 -2q-43 -70 -77 -106z" />
    <glyph glyph-name="uni2075" unicode="&#x2075;" horiz-adv-x="784" 
d="M401 903q-134 0 -206 62.5t-72 177.5l137 24l21 -10q-3 -121 129 -121q77 0 128.5 57t51.5 142q0 60 -38.5 94.5t-107.5 34.5q-113 0 -213 -66l-32 13l96 469h465l-19 -133h-331l-41 -191q70 25 143 25q107 0 170 -62.5t63 -165.5q0 -151 -97.5 -250.5t-246.5 -99.5z" />
    <glyph glyph-name="uni2076" unicode="&#x2076;" horiz-adv-x="784" 
d="M522 1473q99 0 158 -61t59 -163q0 -151 -99 -248.5t-251 -97.5q-126 0 -198 67.5t-72 184.5q0 93 51 185t182 239l215 242l107 -68l4 -20l-129 -142q-74 -81 -160 -151q74 33 133 33zM406 1038q73 0 123.5 56.5t50.5 136.5q0 60 -33 92.5t-92 32.5q-77 0 -128 -54
t-51 -137q0 -59 35 -93t95 -34z" />
    <glyph glyph-name="uni2077" unicode="&#x2077;" horiz-adv-x="784" 
d="M172 952l428 690h-379l19 138h602l-2 -23l-523 -848l-30 -6z" />
    <glyph glyph-name="uni2078" unicode="&#x2078;" horiz-adv-x="784" 
d="M399 903q-130 0 -201 56t-71 155q0 95 55 165.5t148 98.5q-113 44 -113 162q0 115 85 189.5t220 74.5q113 0 179.5 -52t66.5 -136q0 -81 -46 -144.5t-124 -91.5q69 -22 105 -69t36 -115q0 -132 -96 -212.5t-244 -80.5zM475 1442q63 0 100 38t37 103q0 48 -28.5 75.5
t-79.5 27.5q-62 0 -98.5 -40t-36.5 -102q0 -49 27.5 -75.5t78.5 -26.5zM420 1026q73 0 119.5 47t46.5 123q0 58 -36 91.5t-99 33.5q-71 0 -116.5 -48.5t-45.5 -125.5q0 -57 34 -89t97 -32z" />
    <glyph glyph-name="uni2079" unicode="&#x2079;" horiz-adv-x="784" 
d="M565 1128l-217 -241l-106 69l-4 19l127 143q91 97 163 154l-2 2q-68 -41 -133 -41q-98 0 -157.5 61t-59.5 164q0 154 98.5 250t255.5 96q126 0 197.5 -65t71.5 -180q0 -95 -51 -189t-183 -242zM465 1352q75 0 123.5 53.5t48.5 136.5q0 59 -33 93t-92 34q-76 0 -127 -54.5
t-51 -137.5q0 -60 34.5 -92.5t96.5 -32.5z" />
    <glyph glyph-name="uni2080" unicode="&#x2080;" horiz-adv-x="784" 
d="M231 -326q-128 0 -199 88.5t-71 249.5q0 157 48.5 285t137 203t199.5 75q130 0 201 -88t71 -247q0 -240 -109.5 -403t-277.5 -163zM242 -184q94 0 156.5 125.5t62.5 296.5q0 95 -32 145.5t-91 50.5q-93 0 -156 -125t-63 -295q0 -97 31.5 -147.5t91.5 -50.5z" />
    <glyph glyph-name="uni2081" unicode="&#x2081;" horiz-adv-x="784" 
d="M330 -287h-152l76 561q9 55 27 115h-2q-51 -34 -80 -47l-103 -55l-16 6l33 156l297 135h43z" />
    <glyph glyph-name="uni2082" unicode="&#x2082;" horiz-adv-x="784" 
d="M494 -287h-588l4 25l270 256q139 131 194.5 205t55.5 141q0 46 -26.5 71t-75.5 25q-125 0 -174 -137l-23 -10l-131 22q90 264 350 264q109 0 175.5 -59t66.5 -154q0 -180 -246 -397l-67 -59q-21 -19 -80 -64l-4 -2q65 8 133 8h184z" />
    <glyph glyph-name="uni2083" unicode="&#x2083;" horiz-adv-x="784" 
d="M231 -326q-138 0 -210.5 67t-69.5 191l135 21l18 -14q-1 -61 34 -96.5t95 -35.5q72 0 118 47t46 123q0 107 -139 107h-33l17 109h22q81 0 127.5 42t46.5 113q0 46 -27 70t-77 24q-56 0 -98 -30.5t-62 -87.5l-22 -11l-125 27q37 112 123.5 173.5t205.5 61.5
q110 0 176 -54.5t66 -145.5q0 -83 -49 -146.5t-131 -89.5q63 -10 98 -57.5t35 -118.5q0 -122 -92 -205.5t-228 -83.5z" />
    <glyph glyph-name="uni2084" unicode="&#x2084;" horiz-adv-x="784" 
d="M453 -287h-152l25 170h-422l12 86l524 606h133l-75 -557h98l-18 -135h-101zM326 262l-211 -244h231l19 152q12 81 41 201l-3 -2q-45 -73 -77 -107z" />
    <glyph glyph-name="uni2085" unicode="&#x2085;" horiz-adv-x="784" 
d="M229 -326q-134 0 -206 62.5t-72 177.5l137 25l21 -11q-3 -121 129 -121q77 0 128.5 57t51.5 142q0 60 -38.5 94.5t-107.5 34.5q-115 0 -213 -65l-32 12l96 469h465l-19 -133h-331l-41 -191q70 25 143 25q107 0 170 -62t63 -165q0 -151 -97.5 -251t-246.5 -100z" />
    <glyph glyph-name="uni2086" unicode="&#x2086;" horiz-adv-x="784" 
d="M350 244q99 0 158 -61t59 -163q0 -151 -99 -248.5t-251 -97.5q-126 0 -198 67.5t-72 184.5q0 93 51 185t182 239l215 242l107 -68l4 -20l-129 -142q-74 -81 -160 -151q74 33 133 33zM233 -190q73 0 124 56t51 136q0 60 -33 92.5t-92 32.5q-77 0 -128 -53.5t-51 -136.5
q0 -59 34.5 -93t94.5 -34z" />
    <glyph glyph-name="uni2087" unicode="&#x2087;" horiz-adv-x="784" 
d="M0 -276l428 690h-379l19 137h602l-2 -23l-523 -847l-30 -7z" />
    <glyph glyph-name="uni2088" unicode="&#x2088;" horiz-adv-x="784" 
d="M227 -326q-130 0 -201 56t-71 155q0 95 55 166t148 99q-113 44 -113 161q0 115 85 189.5t220 74.5q113 0 179.5 -52t66.5 -136q0 -81 -46 -144t-124 -91q69 -22 105 -69.5t36 -115.5q0 -132 -96 -212.5t-244 -80.5zM303 213q63 0 100 38t37 103q0 48 -28.5 75.5
t-79.5 27.5q-62 0 -98.5 -40t-36.5 -102q0 -49 27.5 -75.5t78.5 -26.5zM248 -203q73 0 119.5 47t46.5 123q0 58 -36 91.5t-99 33.5q-71 0 -116.5 -48.5t-45.5 -125.5q0 -57 34 -89t97 -32z" />
    <glyph glyph-name="uni2089" unicode="&#x2089;" horiz-adv-x="784" 
d="M393 -100l-217 -242l-106 70l-4 18l127 143q91 97 163 154l-2 2q-68 -41 -133 -41q-98 0 -157.5 61t-59.5 164q0 154 98.5 250t255.5 96q126 0 197.5 -65t71.5 -180q0 -95 -51 -188.5t-183 -241.5zM293 123q75 0 123.5 53.5t48.5 136.5q0 59 -33 93t-92 34
q-76 0 -127 -54.5t-51 -137.5q0 -60 34.5 -92.5t96.5 -32.5z" />
    <glyph glyph-name="lira" unicode="&#x20a4;" horiz-adv-x="1433" 
d="M971 1489q111 0 197 -35.5t139 -97.5l-125 -135l-15 4q-76 92 -206 92q-110 0 -182 -85t-95 -247l-18 -119h319l-18 -133h-320l-16 -125h317l-18 -131h-316l-2 -8q-25 -180 -112 -289h645l-47 -180h-955l25 180h143q79 88 103 260l4 37h-197l19 131h196l17 125h-195
l18 133h195l21 131q34 230 161.5 361t317.5 131z" />
    <glyph glyph-name="Euro" unicode="&#x20ac;" horiz-adv-x="1433" 
d="M1104 315l39 9l123 -95q-207 -268 -539 -268q-223 0 -361.5 145t-158.5 398h-174l61 131h113q3 72 20 168h-131l62 131h106q85 247 268.5 401t405.5 154q338 0 467 -262l-152 -94l-34 8q-54 87 -123 125.5t-174 38.5q-140 0 -259 -101.5t-186 -269.5h559l-57 -131h-541
q-19 -84 -22 -168h497l-57 -131h-438q19 -168 108.5 -263.5t231.5 -95.5q109 0 191 40.5t155 129.5z" />
    <glyph glyph-name="uni2113" unicode="&#x2113;" horiz-adv-x="1032" 
d="M702 201h17l39 -142q-140 -98 -287 -98q-149 0 -218 91t-46 255l6 45l-70 -51l-67 123l164 119l77 549q26 184 121.5 290.5t235.5 106.5q118 0 182 -59t64 -168q0 -184 -129.5 -382t-360.5 -370l-27 -188q-26 -195 121 -195q74 0 178 74zM664 1339q-52 0 -92.5 -59.5
t-57.5 -173.5l-57 -404q126 101 203 248t77 285q0 104 -73 104z" />
    <glyph glyph-name="uni2116" unicode="&#x2116;" horiz-adv-x="2224" 
d="M1841 891q-125 0 -202.5 71.5t-77.5 186.5q0 137 102.5 235.5t249.5 98.5q124 0 200 -71t76 -187q0 -135 -103 -234.5t-245 -99.5zM1169 -27h-73l-469 740q-37 60 -114 181t-114 181h-6l-49 -373l-96 -702h-195l203 1450h143l404 -639q43 -68 122 -194.5t113 -180.5h6
q12 110 50 373l88 641h194zM1855 1061q56 0 97 44t41 105q0 47 -27 76t-70 29q-55 0 -95 -45.5t-40 -108.5q0 -45 26 -72.5t68 -27.5zM2079 537h-582l19 141h583z" />
    <glyph glyph-name="uni2117" unicode="&#x2117;" horiz-adv-x="1931" 
d="M956 -39q-160 0 -302.5 59t-244.5 160.5t-161.5 242.5t-59.5 300t59.5 301.5t161.5 244t244.5 161t302.5 59.5q159 0 301.5 -59.5t244 -161t161 -244t59.5 -301.5t-59.5 -300t-161 -242.5t-244 -160.5t-301.5 -59zM954 88q174 0 319 84t228.5 230t83.5 321
q0 132 -49 250.5t-133 203.5t-200.5 135t-246.5 50q-174 0 -319 -84.5t-228 -231.5t-83 -323q0 -175 83 -321t227.5 -230t317.5 -84zM874 287h-145v850h277q141 0 221 -69t80 -198q0 -121 -81 -192.5t-220 -71.5h-132v-319zM874 1006v-271h107q97 0 138.5 32.5t41.5 102.5
t-41.5 103t-138.5 33h-107z" />
    <glyph glyph-name="trademark" unicode="&#x2122;" horiz-adv-x="2070" 
d="M584 606h-146v713h-268v131h678v-131h-264v-713zM1159 606h-145v844h209l247 -506h5l245 506h203v-844h-143v682h-4l-297 -600h-21l-295 600h-4v-682z" />
    <glyph glyph-name="uni2126" unicode="&#x2126;" horiz-adv-x="1753" 
d="M1638 846q0 -182 -99 -362t-255 -300h246l-25 -184h-606l6 41h-2l19 129q92 0 185.5 58t163.5 149.5t114.5 210.5t44.5 235q0 217 -134 349.5t-354 132.5q-178 0 -327.5 -88t-235.5 -240t-86 -334q0 -128 46.5 -237t126.5 -172.5t173 -63.5l-18 -129l-7 -41h-604l27 184
h248q-91 87 -144 209t-53 256q0 169 69.5 324t186.5 268t280 180.5t341 67.5q301 0 487 -178t186 -465z" />
    <glyph glyph-name="estimated" unicode="&#x212e;" horiz-adv-x="1437" 
d="M1284 530h-917v-266q0 -51 50 -102t128 -83t155 -32q118 0 222.5 49.5t171.5 143.5l16 6l70 -51q-68 -104 -198.5 -163t-283.5 -59q-116 0 -226.5 43t-195.5 118.5t-136.5 187t-51.5 239.5q0 174 78 308t217 206t317 72q131 0 241.5 -43.5t185.5 -118.5t117 -176.5
t42 -216.5q0 -42 -2 -62zM367 604h649v252q-7 82 -98.5 150.5t-227.5 68.5q-138 0 -228 -69.5t-95 -149.5v-252z" />
    <glyph glyph-name="oneeighth" unicode="&#x215b;" horiz-adv-x="1748" 
d="M1219 1526h192l-1042 -1600h-195zM387 614h-154l78 562q2 22 25 114h-2q-51 -34 -78 -47l-104 -55l-17 6l35 156l295 135h45zM1227 -39q-130 0 -201.5 56t-71.5 155q0 95 55 165.5t148 98.5q-113 43 -113 162q0 115 85 189.5t219 74.5q114 0 180.5 -52t66.5 -136
q0 -82 -46 -145t-126 -91q69 -22 106.5 -69.5t37.5 -114.5q0 -132 -96 -212.5t-244 -80.5zM1303 500q63 0 100 38t37 103q0 47 -29 74.5t-80 27.5q-62 0 -98.5 -40t-36.5 -101q0 -49 28 -75.5t79 -26.5zM1247 84q73 0 119.5 47t46.5 123q0 58 -36 91.5t-99 33.5
q-71 0 -117.5 -48.5t-46.5 -125.5q0 -57 35 -89t98 -32z" />
    <glyph glyph-name="threeeighths" unicode="&#x215c;" horiz-adv-x="1748" 
d="M1268 1526h192l-1042 -1600h-195zM295 578q-139 0 -211.5 66.5t-69.5 191.5l133 20l21 -14q-1 -61 33.5 -96t95.5 -35q72 0 117 47t45 123q0 106 -137 106h-33l14 109h25q81 0 127.5 42t46.5 113q0 45 -28.5 70t-76.5 25q-116 0 -161 -119l-23 -10l-125 26
q38 112 125 174t207 62q110 0 176 -55t66 -146q0 -83 -49.5 -146.5t-131.5 -89.5q63 -10 98 -57.5t35 -118.5q0 -122 -91.5 -205t-227.5 -83zM1272 -39q-131 0 -203 56t-72 155q0 95 55.5 165.5t149.5 98.5q-115 44 -115 162q0 115 85.5 189.5t220.5 74.5q114 0 179.5 -51.5
t65.5 -136.5q0 -82 -45.5 -145t-124.5 -91q69 -22 105.5 -69t36.5 -115q0 -132 -95 -212.5t-243 -80.5zM1348 500q62 0 98.5 38.5t36.5 102.5q0 47 -29 74.5t-80 27.5q-62 0 -98.5 -40t-36.5 -101q0 -49 28 -75.5t81 -26.5zM1290 84q73 0 119.5 47t46.5 123q0 58 -35.5 91.5
t-97.5 33.5q-72 0 -118 -48t-46 -126q0 -57 34.5 -89t96.5 -32z" />
    <glyph glyph-name="fiveeighths" unicode="&#x215d;" horiz-adv-x="1748" 
d="M1237 1526h193l-1043 -1600h-194zM281 575q-136 0 -208.5 62.5t-70.5 177.5l137 25l21 -11q-3 -120 127 -120q77 0 128.5 56.5t51.5 141.5q0 60 -38 94.5t-105 34.5q-115 0 -213 -65l-33 12l96 469h463l-16 -133h-334l-39 -191q67 25 141 25q108 0 172 -62t64 -165
q0 -151 -98 -251t-246 -100zM1264 -39q-131 0 -203 56t-72 155q0 95 55.5 165.5t149.5 98.5q-115 44 -115 162q0 115 85 189.5t220 74.5q114 0 180 -52t66 -136q0 -81 -46 -144.5t-124 -91.5q69 -22 105.5 -69t36.5 -115q0 -132 -95.5 -212.5t-242.5 -80.5zM1339 500
q62 0 99 38.5t37 102.5q0 47 -29 74.5t-80 27.5q-62 0 -98.5 -40t-36.5 -101q0 -50 28 -76t80 -26zM1282 84q73 0 119.5 47t46.5 123q0 58 -35.5 91.5t-97.5 33.5q-72 0 -118 -48t-46 -126q0 -57 34 -89t97 -32z" />
    <glyph glyph-name="seveneighths" unicode="&#x215e;" horiz-adv-x="1748" 
d="M1221 1526h192l-1042 -1600h-195zM111 625l428 690h-379l18 137h602l-2 -22l-522 -848l-31 -7zM1225 -39q-131 0 -203 56t-72 155q0 95 55.5 165.5t149.5 98.5q-115 44 -115 162q0 115 85.5 189.5t220.5 74.5q114 0 179.5 -51.5t65.5 -136.5q0 -82 -45.5 -145t-124.5 -91
q69 -22 106.5 -69.5t37.5 -114.5q0 -132 -96 -212.5t-244 -80.5zM1300 500q62 0 99 38.5t37 102.5q0 47 -29 74.5t-80 27.5q-62 0 -98.5 -40t-36.5 -101q0 -50 28 -76t80 -26zM1243 84q73 0 119.5 47t46.5 123q0 58 -35.5 91.5t-97.5 33.5q-72 0 -118 -48t-46 -126
q0 -57 34.5 -89t96.5 -32z" />
    <glyph glyph-name="arrowleft" unicode="&#x2190;" horiz-adv-x="1888" 
d="M907 152l-112 -113l-654 670l654 669l112 -112v-9l-336 -335q-23 -22 -141 -129l2 -5q76 5 197 5h1118v-164h-1118q-105 0 -197 6l-2 -4q86 -78 141 -133l336 -338v-8z" />
    <glyph glyph-name="arrowup" unicode="&#x2191;" horiz-adv-x="1703" 
d="M852 1489l670 -653l-113 -113h-8l-338 336q-55 55 -133 141l-4 -2q6 -92 6 -197v-1118h-164v1118q0 136 4 197l-4 2q-107 -118 -129 -141l-336 -336h-8l-113 113z" />
    <glyph glyph-name="arrowright" unicode="&#x2192;" horiz-adv-x="1888" 
d="M1747 709l-653 -670l-113 113v8l336 338q68 68 143 133l-2 4q-95 -6 -198 -6h-1119v164h1119q119 0 198 -5l2 5q-86 75 -143 129l-336 335v9l113 112z" />
    <glyph glyph-name="arrowdown" unicode="&#x2193;" horiz-adv-x="1703" 
d="M1409 649l113 -112l-670 -654l-670 654l113 112h8l336 -336q22 -23 129 -141l4 2q-4 61 -4 197v1118h164v-1118q0 -105 -6 -197l4 -2q78 86 133 141l338 336h8z" />
    <glyph glyph-name="arrowboth" unicode="&#x2194;" horiz-adv-x="2676" 
d="M1769 1266l113 112l653 -669l-653 -670l-113 113v8l336 338q55 58 142 133l-2 4q-92 -6 -199 -6h-1417q-105 0 -197 6l-2 -4q86 -78 141 -133l336 -338v-8l-112 -113l-654 670l654 669l112 -112v-9l-336 -335q-23 -22 -141 -129l2 -5q76 5 197 5h1417q123 0 199 -5l2 5
q-97 85 -142 129l-336 335v9z" />
    <glyph glyph-name="arrowupdn" unicode="&#x2195;" horiz-adv-x="1703" 
d="M295 1141l-113 112l670 654l670 -654l-113 -112h-8l-338 336q-38 37 -133 141l-4 -2q6 -92 6 -197v-1419q0 -106 -6 -197l4 -2q98 108 133 140l338 338h8l113 -113l-670 -655l-670 655l113 113h8l336 -338q15 -14 129 -140l4 2q-4 61 -4 197v1419q0 136 4 197l-4 2
q-117 -129 -129 -141l-336 -336h-8z" />
    <glyph glyph-name="uni2196" unicode="&#x2196;" horiz-adv-x="1552" 
d="M362 317h-159l12 936l936 13v-158l-6 -8l-473 2q-18 0 -195 6v-4q70 -61 141 -135l791 -791l-115 -117l-790 791q-51 49 -135 145l-4 -2q0 -12 4 -84.5t4 -109.5l-4 -475z" />
    <glyph glyph-name="uni2197" unicode="&#x2197;" horiz-adv-x="1552" 
d="M1335 1253l13 -936h-158l-6 9l-4 475q0 80 8 194l-4 2q-68 -78 -135 -145l-793 -791l-115 117l791 791q96 96 141 135v4q-177 -6 -192 -6l-473 -2l-9 8v158z" />
    <glyph glyph-name="uni2198" unicode="&#x2198;" horiz-adv-x="1552" 
d="M1190 1010h158l-13 -936l-936 -13v158l9 8l473 -2q15 0 192 -6v4q-45 39 -141 135l-791 791l115 117l793 -791q67 -67 135 -145l4 2q-8 118 -8 194l4 475z" />
    <glyph glyph-name="uni2199" unicode="&#x2199;" horiz-adv-x="1552" 
d="M215 74l-12 936h159l7 -9l4 -475q0 -37 -3.5 -108t-4.5 -86l4 -2q84 96 135 145l790 791l115 -117l-791 -791q-71 -74 -141 -135v-4q177 6 195 6l473 2l6 -8v-158z" />
    <glyph glyph-name="partialdiff" unicode="&#x2202;" horiz-adv-x="1433" 
d="M678 1489q128 0 224.5 -58.5t156.5 -168.5t89.5 -259.5t29.5 -338.5q-1 -185 -39 -322t-108 -219.5t-163.5 -122t-212.5 -39.5q-192 0 -314 129t-122 328t123.5 335t302.5 136q217 0 352 -189q-11 319 -90.5 474t-244.5 155q-148 0 -256 -153l-17 -2l-121 79
q65 108 175 172t235 64zM684 127q146 0 224.5 100t76.5 267v26q-53 101 -131.5 153t-169.5 52q-123 0 -199.5 -86t-76.5 -223q0 -128 74.5 -208.5t201.5 -80.5z" />
    <glyph glyph-name="emptyset" unicode="&#x2205;" horiz-adv-x="1433" 
d="M1174 1206l94 -92l-160 -160q104 -139 104 -321q0 -229 -150.5 -380t-377.5 -151q-184 0 -324 105l-165 -166l-95 92l166 166q-110 141 -110 334q0 148 69 269t190 189t269 68q194 0 332 -110zM307 633q0 -129 68 -225l534 534q-98 72 -225 72q-162 0 -269.5 -108.5
t-107.5 -272.5zM1061 633q0 116 -60 215l-534 -535q94 -65 217 -65q163 0 270 109t107 276z" />
    <glyph glyph-name="product" unicode="&#x220f;" horiz-adv-x="1419" 
d="M338 -446h-197v1718h-121v178h1379v-178h-121v-1718h-197v1718h-743v-1718z" />
    <glyph glyph-name="summation" unicode="&#x2211;" horiz-adv-x="1245" 
d="M1196 -446h-1147v161l649 805l-622 770v162h1095v-178h-858l611 -754l-643 -788h915v-178z" />
    <glyph glyph-name="minus" unicode="&#x2212;" horiz-adv-x="1433" 
d="M1239 553h-1104v137h1104v-137z" />
    <glyph glyph-name="uni2215" unicode="&#x2215;" horiz-adv-x="759" 
d="M657 1546h193l-746 -1620h-194z" />
    <glyph glyph-name="uni2219" unicode="&#x2219;" horiz-adv-x="858" 
d="M414 492q-54 0 -91.5 37.5t-37.5 91.5t37.5 91.5t91.5 37.5q55 0 93 -37.5t38 -91.5t-38 -91.5t-93 -37.5z" />
    <glyph glyph-name="radical" unicode="&#x221a;" horiz-adv-x="1105" 
d="M614 -27h-84l-333 760h-156v178h297l213 -512h8l311 1051h217z" />
    <glyph glyph-name="infinity" unicode="&#x221e;" horiz-adv-x="1583" 
d="M391 301q-132 0 -216.5 86t-84.5 221t83.5 223.5t213.5 88.5q90 0 181 -52.5t212 -173.5q119 121 210.5 173.5t183.5 52.5q130 0 213 -88t83 -224q0 -135 -85.5 -221t-217.5 -86q-87 0 -170.5 45t-216.5 170q-135 -125 -218 -170t-171 -45zM393 434q121 0 299 172
q-115 105 -182 142.5t-125 37.5q-68 0 -112 -50t-44 -128t44.5 -126t119.5 -48zM1165 434q76 0 121 47.5t45 126.5q0 78 -44 128t-113 50q-57 0 -124 -38t-182 -142q85 -82 162.5 -127t134.5 -45z" />
    <glyph glyph-name="integral" unicode="&#x222b;" horiz-adv-x="1433" 
d="M575 76v1050q0 223 62 311.5t219 88.5q76 0 143 -23v-164l-14 -8q-51 29 -115 29t-89 -52.5t-25 -203.5v-1051q0 -223 -62 -311t-219 -88q-79 0 -143 22v164l14 8q49 -28 115 -28q64 0 89 52.5t25 203.5z" />
    <glyph glyph-name="approxequal" unicode="&#x2248;" horiz-adv-x="1433" 
d="M268 678l-16 -2l-98 67q72 112 147 165t162 53q72 0 138 -23.5t107.5 -51.5t96.5 -51.5t108 -23.5q115 0 201 141l16 2l99 -67q-136 -217 -307 -217q-59 0 -111.5 15t-92 37t-77 43.5t-81.5 36.5t-91 15q-113 0 -201 -139zM268 291l-16 -2l-98 65q71 113 146.5 165
t162.5 52q72 0 138 -23t107.5 -50.5t96.5 -50.5t108 -23q114 0 201 139l16 2l99 -65q-134 -217 -307 -217q-59 0 -111.5 15t-92 37t-77 43.5t-81.5 36.5t-91 15q-111 0 -201 -139z" />
    <glyph glyph-name="notequal" unicode="&#x2260;" horiz-adv-x="1433" 
d="M1253 885v-137h-424l-114 -254h538v-138h-600l-137 -309h-147l137 309h-363v138h424l115 254h-539v137h600l138 309h147l-137 -309h362z" />
    <glyph glyph-name="lessequal" unicode="&#x2264;" horiz-adv-x="1433" 
d="M174 829l1065 422v-143l-860 -332l860 -334v-143l-1065 422v108zM1239 0h-1065v137h1065v-137z" />
    <glyph glyph-name="greaterequal" unicode="&#x2265;" horiz-adv-x="1433" 
d="M156 1108v143l1065 -422v-108l-1065 -422v143l860 334zM1221 0h-1065v137h1065v-137z" />
    <glyph glyph-name="lozenge" unicode="&#x25ca;" horiz-adv-x="1433" 
d="M735 -39h-143l-350 764l350 764h143l352 -764zM412 725l252 -588l251 588l-251 588z" />
    <glyph glyph-name="fi" unicode="&#xfb01;" horiz-adv-x="1128" 
d="M700 1343l-16 -6q-49 21 -92 21q-65 0 -101.5 -48.5t-54.5 -170.5l-30 -228h221l-21 -149h-221l-168 -1208h-182l168 1208h-172l20 149h172l31 226q32 216 107.5 302.5t224.5 86.5q74 0 147 -25zM942 1210q-54 0 -90.5 35.5t-36.5 89.5q0 52 36.5 87.5t90.5 35.5
t90.5 -36t36.5 -89q0 -52 -36.5 -87.5t-90.5 -35.5zM848 0h-182l127 911h182z" />
    <glyph glyph-name="fl" unicode="&#xfb02;" horiz-adv-x="1138" 
d="M700 1343l-16 -6q-49 21 -92 21q-65 0 -101.5 -48.5t-54.5 -170.5l-30 -228h221l-21 -149h-221l-168 -1208h-182l168 1208h-172l20 149h172l31 226q32 216 107.5 302.5t224.5 86.5q74 0 147 -25zM858 0h-182l211 1501h182z" />
    <glyph glyph-name="i.loclTRK" horiz-adv-x="501" 
d="M287 1116q-54 0 -90.5 35.5t-36.5 89.5q0 53 36.5 89t90.5 36t90.5 -37t36.5 -90q0 -52 -36.5 -87.5t-90.5 -35.5zM219 0h-182l127 911h182z" />
    <glyph glyph-name="zero.osf" horiz-adv-x="1032" 
d="M401 -39q-172 0 -270 110.5t-98 305.5q0 179 64 322t178 224t257 81q172 0 269.5 -110t97.5 -304q0 -180 -63.5 -324t-177 -224.5t-257.5 -80.5zM410 125q132 0 218.5 133t86.5 338q0 120 -49.5 183t-141.5 63q-132 0 -218.5 -133t-86.5 -336q0 -121 49 -184.5t142 -63.5
z" />
    <glyph glyph-name="one.osf" horiz-adv-x="634" 
d="M29 788l411 211h52l-140 -999h-188l82 596q3 21 28 149q-79 -52 -118 -75l-150 -84l-20 6z" />
    <glyph glyph-name="two.osf" horiz-adv-x="868" 
d="M307 156q78 6 256 6h172l-20 -162h-789l2 35l424 342q136 109 191 187.5t55 158.5q0 57 -37.5 90t-103.5 33q-93 0 -164 -56t-109 -159l-34 -15l-144 27q53 172 174.5 266.5t290.5 94.5q146 0 231.5 -71.5t85.5 -191.5q0 -109 -58 -207t-198 -210l-10 -9
q-130 -103 -215 -159z" />
    <glyph glyph-name="three.osf" horiz-adv-x="927" 
d="M352 -336q-186 0 -289.5 104t-99.5 287l150 21l32 -21q-2 -104 55 -167.5t152 -63.5q114 0 190 80t76 200q0 87 -58 133t-167 46h-35l23 149h20q128 0 205.5 71t77.5 189q0 72 -44.5 112t-121.5 40q-91 0 -161.5 -58.5t-102.5 -160.5l-37 -11l-141 27q47 167 171 265
t288 98q154 0 244.5 -80t90.5 -215q0 -128 -76.5 -224.5t-203.5 -128.5q98 -19 157.5 -91.5t59.5 -174.5q0 -113 -62 -211.5t-167 -156.5t-226 -58z" />
    <glyph glyph-name="four.osf" horiz-adv-x="987" 
d="M684 -326h-188l47 326h-619l6 76l801 911h135l-114 -825h159l-22 -162h-158zM539 537l-322 -375h348l29 215q22 175 78 342h-4q-61 -100 -129 -182z" />
    <glyph glyph-name="five.osf" horiz-adv-x="866" 
d="M305 -336q-178 0 -281 99.5t-100 267.5l168 24l12 -10q-1 -105 54.5 -162t158.5 -57q122 0 206.5 99t84.5 241q0 95 -54.5 147t-154.5 52q-165 0 -315 -105l-47 14l143 691h641l-24 -162h-486l-71 -336q119 45 223 45q150 0 243 -94t93 -246q0 -138 -66 -255t-179.5 -185
t-248.5 -68z" />
    <glyph glyph-name="six.osf" horiz-adv-x="1044" 
d="M401 -37q-180 0 -283.5 97.5t-103.5 265.5q0 65 19.5 132.5t46 122.5t77.5 128t89 120.5t106 128.5l318 373l123 -80l2 -24l-179 -215q-153 -178 -256 -267l2 -4q101 64 211 64q149 0 241.5 -95.5t92.5 -250.5q0 -214 -144 -355t-362 -141zM418 121q125 0 215 96t90 229
q0 98 -60 157t-161 59q-126 0 -215.5 -95.5t-89.5 -230.5q0 -97 60.5 -156t160.5 -59z" />
    <glyph glyph-name="seven.osf" horiz-adv-x="880" 
d="M35 -281l618 1084h-596l23 162h850l-4 -35l-733 -1260l-43 -6z" />
    <glyph glyph-name="eight.osf" horiz-adv-x="929" 
d="M344 -39q-190 0 -291.5 84.5t-101.5 228.5q0 147 88.5 259t236.5 153q-184 63 -184 246q0 165 125.5 280t317.5 115q163 0 254.5 -76.5t91.5 -201.5q0 -123 -70.5 -221t-196.5 -138q113 -32 170.5 -106t57.5 -178q0 -194 -141.5 -319.5t-356.5 -125.5zM463 774
q105 0 168 65.5t63 170.5q0 79 -49.5 125.5t-134.5 46.5q-104 0 -169 -64t-65 -172q0 -80 48.5 -126t138.5 -46zM369 119q132 0 209 76t77 202q0 98 -61 156.5t-168 58.5q-123 0 -202 -80.5t-79 -205.5q0 -95 59 -151t165 -56z" />
    <glyph glyph-name="nine.osf" horiz-adv-x="1052" 
d="M631 2l-289 -342l-123 80l-2 24l152 185q106 131 260 274l-4 2q-108 -63 -213 -63q-149 0 -241.5 95.5t-92.5 250.5q0 215 143.5 355.5t362.5 140.5q181 0 284 -97t103 -266q0 -55 -11.5 -109t-38.5 -111t-52.5 -102.5t-72.5 -108t-77.5 -101t-87.5 -107.5zM481 307
q127 0 217 95t90 229q0 98 -60 156.5t-159 58.5q-129 0 -218 -94.5t-89 -227.5q0 -101 59 -159t160 -58z" />
    <glyph glyph-name="zero.tf" horiz-adv-x="1433" 
d="M606 -39q-207 0 -321.5 149t-114.5 418q0 203 47.5 381t131 305.5t202 201t254.5 73.5q207 0 321.5 -148t114.5 -415q0 -271 -81.5 -492t-227 -347t-326.5 -126zM616 141q118 0 215 106t152 287t55 396q0 183 -63 281t-180 98q-118 0 -215 -105t-152 -284.5t-55 -393.5
q0 -186 62.5 -285.5t180.5 -99.5z" />
    <glyph glyph-name="one.tf" horiz-adv-x="1433" 
d="M999 1479l-182 -1303h246l-27 -176h-721l25 176h281l122 881q9 77 29 151l-4 2q-19 -13 -37.5 -23.5t-43 -23.5t-36.5 -20l-192 -99l-19 9l45 207l467 219h47z" />
    <glyph glyph-name="two.tf" horiz-adv-x="1433" 
d="M510 172q105 6 199 6h368l-22 -178h-936l2 39l393 358q268 241 388 412.5t120 312.5q0 91 -54.5 141t-152.5 50q-123 0 -209 -70.5t-129 -206.5l-39 -14l-157 29q62 214 204.5 326t354.5 112q175 0 280 -94t105 -252q0 -164 -112.5 -352t-334.5 -383l-141 -127
q-121 -104 -127 -109z" />
    <glyph glyph-name="three.tf" horiz-adv-x="1433" 
d="M604 -39q-218 0 -336 112.5t-112 313.5l161 21l31 -21q-2 -117 67.5 -184.5t190.5 -67.5q143 0 232.5 92t89.5 240q0 211 -271 211h-55l21 153h41q158 0 249 80.5t91 218.5q0 86 -57 135.5t-156 49.5q-111 0 -192.5 -61t-119.5 -173l-37 -12l-155 29q56 183 195.5 287
t332.5 104q177 0 284 -92t107 -244q0 -146 -85 -255t-226 -146q107 -19 169 -99t62 -200q0 -207 -150.5 -349.5t-371.5 -142.5z" />
    <glyph glyph-name="four.tf" horiz-adv-x="1433" 
d="M967 0h-197l43 307h-727l10 82l953 1086h125l-138 -992h170l-24 -176h-172zM825 971l-430 -488h445l41 299q27 213 69 355l-4 -9q-70 -103 -121 -157z" />
    <glyph glyph-name="five.tf" horiz-adv-x="1433" 
d="M621 -39q-212 0 -329.5 106t-111.5 291l162 25l33 -14q-1 -114 64.5 -174t191.5 -60q151 0 253.5 112.5t102.5 276.5q0 117 -72 184.5t-196 67.5q-190 0 -352 -112l-52 16l158 770h741l-26 -176h-570l-81 -391q119 49 256 49q180 0 287.5 -104.5t107.5 -278.5
q0 -165 -73.5 -299.5t-203.5 -211.5t-290 -77z" />
    <glyph glyph-name="six.tf" horiz-adv-x="1433" 
d="M801 907q170 0 271.5 -104t101.5 -277q0 -246 -159 -405.5t-405 -159.5q-200 0 -314 109t-114 299q0 154 80.5 303.5t296.5 398.5l377 432l139 -86l2 -26l-235 -269q-87 -101 -267 -274q115 59 226 59zM629 133q146 0 245 108t99 267q0 112 -65 176t-179 64
q-152 0 -250 -105t-98 -268q0 -113 66.5 -177.5t181.5 -64.5z" />
    <glyph glyph-name="seven.tf" horiz-adv-x="1433" 
d="M279 25l772 1247h-678l24 178h957l-4 -37l-893 -1446l-43 -6z" />
    <glyph glyph-name="eight.tf" horiz-adv-x="1433" 
d="M614 -39q-208 0 -324 92.5t-116 255.5q0 164 96.5 290t257.5 173q-96 34 -146 103.5t-50 168.5q0 195 136 320t353 125q178 0 284.5 -85t106.5 -226q0 -139 -79 -248.5t-213 -155.5q118 -35 180.5 -116.5t62.5 -198.5q0 -224 -152.5 -361t-396.5 -137zM743 868
q124 0 196.5 73t72.5 196q0 93 -57.5 145.5t-159.5 52.5q-123 0 -197 -74.5t-74 -197.5q0 -93 58 -144t161 -51zM641 125q148 0 236 88.5t88 237.5q0 113 -68.5 176t-191.5 63q-145 0 -235.5 -92t-90.5 -240q0 -110 69 -171.5t193 -61.5z" />
    <glyph glyph-name="nine.tf" horiz-adv-x="1433" 
d="M870 379l-378 -432l-138 88l-4 26l234 267q105 119 280 284l-4 2q-123 -71 -229 -71q-171 0 -274 104.5t-103 278.5q0 249 159 406t410 157q200 0 313 -106t113 -293q0 -157 -81 -310t-298 -401zM709 702q148 0 243 105.5t95 269.5q0 111 -65 175.5t-177 64.5
q-149 0 -249.5 -106.5t-100.5 -264.5q0 -116 66.5 -180t187.5 -64z" />
    <glyph glyph-name="zero.dnom" horiz-adv-x="784" 
d="M272 -39q-128 0 -199 88.5t-71 249.5q0 157 48.5 285t137 203t199.5 75q130 0 201 -88.5t71 -247.5q0 -157 -49 -286t-138 -204t-200 -75zM283 102q94 0 156.5 125.5t62.5 296.5q0 95 -32 146t-91 51q-93 0 -156 -125t-63 -295q0 -97 31.5 -148t91.5 -51z" />
    <glyph glyph-name="one.dnom" horiz-adv-x="784" 
d="M371 0h-152l76 561q9 55 27 115h-3q-53 -35 -79 -47l-103 -56l-16 7l33 155l297 135h43z" />
    <glyph glyph-name="two.dnom" horiz-adv-x="784" 
d="M535 0h-588l4 25l270 256q139 131 194.5 205t55.5 141q0 46 -26.5 71t-75.5 25q-125 0 -174 -137l-23 -11l-131 23q90 264 350 264q109 0 175.5 -59t66.5 -154q0 -180 -246 -397l-68 -59q-26 -24 -79 -64l-4 -2q65 8 133 8h184z" />
    <glyph glyph-name="three.dnom" horiz-adv-x="784" 
d="M272 -39q-138 0 -210.5 67t-69.5 191l135 21l18 -15q-1 -61 34 -96t95 -35q72 0 118 47t46 123q0 107 -139 107h-33l17 108h22q81 0 127.5 42.5t46.5 113.5q0 46 -27 70t-77 24q-56 0 -98 -31t-62 -88l-22 -10l-125 27q37 112 123.5 173.5t205.5 61.5q110 0 176 -54.5
t66 -145.5q0 -83 -49 -146.5t-131 -89.5q63 -10 98 -57.5t35 -118.5q0 -122 -92 -205.5t-228 -83.5z" />
    <glyph glyph-name="four.dnom" horiz-adv-x="784" 
d="M494 0h-152l25 170h-422l12 86l524 606h133l-75 -557h98l-19 -135h-100zM367 549l-211 -244h231l19 152q13 89 40 200l-2 -2q-43 -70 -77 -106z" />
    <glyph glyph-name="five.dnom" horiz-adv-x="784" 
d="M270 -39q-134 0 -206 62.5t-72 177.5l137 24l21 -10q-3 -121 129 -121q77 0 128.5 57t51.5 142q0 60 -38.5 94.5t-107.5 34.5q-113 0 -213 -66l-32 13l96 469h465l-19 -133h-331l-41 -191q70 25 143 25q107 0 170 -62.5t63 -165.5q0 -151 -97.5 -250.5t-246.5 -99.5z" />
    <glyph glyph-name="six.dnom" horiz-adv-x="784" 
d="M391 530q99 0 158 -60.5t59 -162.5q0 -151 -99 -248.5t-251 -97.5q-126 0 -198 67.5t-72 184.5q0 93 51 185t182 239l215 242l107 -68l4 -20l-129 -142q-74 -81 -160 -151q72 32 133 32zM274 96q73 0 124 56.5t51 136.5q0 60 -33 92.5t-92 32.5q-77 0 -128 -54t-51 -137
q0 -59 34.5 -93t94.5 -34z" />
    <glyph glyph-name="seven.dnom" horiz-adv-x="784" 
d="M41 10l428 690h-379l19 138h602l-2 -23l-523 -848l-30 -6z" />
    <glyph glyph-name="eight.dnom" horiz-adv-x="784" 
d="M268 -39q-130 0 -201 56t-71 155q0 95 55 165.5t148 98.5q-113 44 -113 162q0 115 85 189.5t220 74.5q113 0 179.5 -52t66.5 -136q0 -81 -46 -144.5t-124 -91.5q69 -22 105 -69t36 -115q0 -132 -96 -212.5t-244 -80.5zM344 500q63 0 100 38t37 103q0 47 -28.5 74.5
t-79.5 27.5q-62 0 -98.5 -40t-36.5 -101q0 -49 27.5 -75.5t78.5 -26.5zM289 84q73 0 119.5 47t46.5 123q0 58 -36.5 91.5t-99.5 33.5q-71 0 -116 -48t-45 -126q0 -57 34 -89t97 -32z" />
    <glyph glyph-name="nine.dnom" horiz-adv-x="784" 
d="M434 186l-217 -241l-106 69l-5 19l127 143q88 94 164 154l-2 2q-68 -41 -133 -41q-98 0 -157.5 61t-59.5 164q0 154 98.5 250t255.5 96q126 0 197.5 -65.5t71.5 -180.5q0 -95 -51 -188.5t-183 -241.5zM334 410q75 0 123.5 53.5t48.5 136.5q0 59 -33 93t-92 34
q-76 0 -127 -54.5t-51 -137.5q0 -60 34.5 -92.5t96.5 -32.5z" />
    <glyph glyph-name="zero.numr" horiz-adv-x="784" 
d="M358 575q-128 0 -199 88.5t-71 249.5q0 157 48.5 285.5t137 203.5t199.5 75q130 0 201 -88.5t71 -247.5q0 -240 -109.5 -403t-277.5 -163zM369 717q94 0 156.5 125.5t62.5 296.5q0 95 -32 145.5t-91 50.5q-93 0 -156 -125t-63 -295q0 -97 31.5 -147.5t91.5 -50.5z" />
    <glyph glyph-name="one.numr" horiz-adv-x="784" 
d="M457 614h-152l76 562q9 52 27 114h-2q-51 -34 -80 -47l-103 -55l-16 6l33 156l297 135h43z" />
    <glyph glyph-name="two.numr" horiz-adv-x="784" 
d="M621 614h-588l4 25l270 256q139 131 194.5 205t55.5 141q0 46 -26.5 71t-75.5 25q-125 0 -174 -137l-23 -10l-131 22q43 128 131.5 196.5t218.5 68.5q109 0 175.5 -59t66.5 -154q0 -181 -246 -398l-67 -59q-21 -19 -80 -64l-4 -2q74 9 133 9h184z" />
    <glyph glyph-name="three.numr" horiz-adv-x="784" 
d="M358 575q-138 0 -210.5 67t-69.5 192l135 20l18 -14q-1 -61 34 -96t95 -35q72 0 118 47t46 123q0 106 -139 106h-33l17 109h22q81 0 127.5 42t46.5 113q0 46 -27 70t-77 24q-56 0 -98 -30.5t-62 -87.5l-22 -11l-125 27q37 112 123.5 174t205.5 62q110 0 176 -55t66 -146
q0 -83 -49 -146.5t-131 -89.5q63 -10 98 -57.5t35 -118.5q0 -122 -92 -205.5t-228 -83.5z" />
    <glyph glyph-name="four.numr" horiz-adv-x="784" 
d="M580 614h-152l25 170h-422l12 86l524 607h133l-75 -557h98l-18 -136h-101zM453 1163l-211 -243h231l19 151q13 91 40 201l-2 -2q-45 -73 -77 -107z" />
    <glyph glyph-name="five.numr" horiz-adv-x="784" 
d="M356 575q-134 0 -206 62.5t-72 177.5l137 25l21 -11q-3 -120 129 -120q77 0 128.5 56.5t51.5 141.5q0 60 -38.5 94.5t-107.5 34.5q-115 0 -213 -65l-32 12l96 469h465l-19 -133h-331l-41 -191q70 25 143 25q107 0 170 -62t63 -165q0 -151 -97.5 -251t-246.5 -100z" />
    <glyph glyph-name="six.numr" horiz-adv-x="784" 
d="M477 1145q99 0 158 -60.5t59 -162.5q0 -151 -99 -249t-251 -98q-126 0 -198 67.5t-72 184.5q0 93 51 185t182 239l215 242l107 -68l4 -20l-129 -141q-78 -85 -160 -152q74 33 133 33zM360 711q73 0 124 56t51 136q0 60 -33 92.5t-92 32.5q-77 0 -128 -53.5t-51 -136.5
q0 -59 34.5 -93t94.5 -34z" />
    <glyph glyph-name="seven.numr" horiz-adv-x="784" 
d="M127 625l428 690h-379l19 137h602l-2 -22l-523 -848l-30 -7z" />
    <glyph glyph-name="eight.numr" horiz-adv-x="784" 
d="M354 575q-130 0 -201 56t-71 155q0 95 55 166t148 99q-113 44 -113 161q0 115 85 190t220 75q113 0 179.5 -52.5t66.5 -136.5q0 -81 -46 -144t-124 -91q69 -22 105 -69.5t36 -115.5q0 -132 -96 -212.5t-244 -80.5zM430 1114q63 0 100 38t37 103q0 48 -28.5 75.5
t-79.5 27.5q-62 0 -98.5 -40t-36.5 -101q0 -50 27.5 -76.5t78.5 -26.5zM375 698q73 0 119.5 47t46.5 123q0 58 -36 91.5t-99 33.5q-71 0 -116.5 -48.5t-45.5 -125.5q0 -57 34 -89t97 -32z" />
    <glyph glyph-name="nine.numr" horiz-adv-x="784" 
d="M520 801l-217 -242l-106 70l-4 18l126 144q84 90 164 153l-2 2q-68 -41 -133 -41q-98 0 -157.5 61t-59.5 164q0 154 98.5 250.5t255.5 96.5q126 0 197.5 -65.5t71.5 -180.5q0 -95 -51 -188.5t-183 -241.5zM420 1024q75 0 123.5 53.5t48.5 136.5q0 59 -33 93t-92 34
q-76 0 -127 -54.5t-51 -137.5q0 -60 34.5 -92.5t96.5 -32.5z" />
    <glyph glyph-name="exclamdown.case" horiz-adv-x="663" 
d="M410 1470q55 0 93 -37.5t38 -91.5t-38.5 -91.5t-92.5 -37.5q-55 0 -93 37.5t-38 91.5t38 91.5t93 37.5zM281 1042h178l-140 -1042h-194z" />
    <glyph glyph-name="questiondown.case" horiz-adv-x="1081" 
d="M655 1470q55 0 93 -37.5t38 -91.5t-38.5 -91.5t-92.5 -37.5q-55 0 -93 37.5t-38 91.5t38 91.5t93 37.5zM537 1042h176l-13 -106q-12 -98 -61.5 -176t-149.5 -158q-109 -77 -158.5 -146.5t-49.5 -164.5q0 -75 50 -121.5t138 -46.5q103 0 175.5 57.5t103.5 159.5l36 8
l144 -31q-54 -169 -178.5 -262.5t-294.5 -93.5q-167 0 -266 86t-99 225q0 133 61 232.5t183 191.5q103 70 138.5 117.5t47.5 134.5z" />
    <glyph glyph-name="periodcentered.case" horiz-adv-x="579" 
d="M264 610q-55 0 -93 37.5t-38 91.5t38 91.5t93 37.5t93 -37.5t38 -91.5t-38 -91.5t-93 -37.5z" />
    <glyph glyph-name="parenleft.case" horiz-adv-x="636" 
d="M416 -113l-144 -73q-91 148 -139 338.5t-45 392.5q3 293 120 591t318 525l129 -90q-187 -220 -292.5 -488t-108.5 -532q-3 -376 162 -664z" />
    <glyph glyph-name="parenright.case" horiz-adv-x="636" 
d="M279 1587l143 74q91 -148 139 -338.5t45 -392.5q-3 -293 -120 -591t-318 -525l-129 90q187 220 292.5 488t108.5 532q3 377 -161 663z" />
    <glyph glyph-name="braceleft.case" horiz-adv-x="686" 
d="M27 664l20 139h10q72 0 123 59.5t66 163.5l51 367q17 124 89 192t187 68h140l-21 -140h-92q-60 0 -96 -44t-47 -126l-47 -339q-18 -119 -77.5 -188.5t-146.5 -80.5v-4q77 -9 119.5 -83t28.5 -191l-49 -340q-12 -84 9.5 -124t80.5 -40h100l-20 -139h-133
q-115 0 -170.5 71.5t-38.5 196.5l51 367q28 215 -119 215h-18z" />
    <glyph glyph-name="braceright.case" horiz-adv-x="686" 
d="M713 803l-19 -139h-10q-74 0 -124.5 -60t-63.5 -164l-54 -366q-17 -124 -89 -192t-187 -68h-137l18 139h94q58 0 94.5 44t47.5 126l47 340q18 119 77 188t146 80v4q-77 9 -119.5 83.5t-25.5 191.5l47 340q12 84 -9.5 123.5t-80.5 39.5h-99l21 140h131q115 0 170.5 -72
t38.5 -197l-49 -366q-31 -215 116 -215h19z" />
    <glyph glyph-name="bracketleft.case" horiz-adv-x="636" 
d="M385 -186h-367l258 1839h367l-20 -140h-199l-219 -1560h201z" />
    <glyph glyph-name="bracketright.case" horiz-adv-x="634" 
d="M412 -186h-367l21 139h198l217 1560h-198l20 140h367z" />
    <glyph glyph-name="hyphen.case" horiz-adv-x="655" 
d="M500 524h-467l20 148h467z" />
    <glyph glyph-name="uni00AD.case" horiz-adv-x="655" 
d="M500 524h-467l20 148h467z" />
    <glyph glyph-name="endash.case" horiz-adv-x="1024" 
d="M901 524h-901l20 148h902z" />
    <glyph glyph-name="emdash.case" horiz-adv-x="1576" 
d="M1454 524h-1454l20 148h1455z" />
    <glyph glyph-name="guillemotleft.case" horiz-adv-x="985" 
d="M389 272l-108 -69l-222 401l334 402l90 -70v-12l-254 -320l164 -319zM756 272l-109 -69l-221 401l332 402l90 -70v-12l-254 -320l166 -319z" />
    <glyph glyph-name="guillemotright.case" horiz-adv-x="985" 
d="M465 604l-334 -401l-90 69v13l254 319l-164 320l4 12l109 70zM829 604l-331 -401l-90 69v13l254 319l-166 320l6 12l108 70z" />
    <glyph glyph-name="guilsinglleft.case" horiz-adv-x="616" 
d="M391 272l-108 -69l-222 401l334 402l90 -70v-12l-256 -320l166 -319z" />
    <glyph glyph-name="guilsinglright.case" horiz-adv-x="620" 
d="M465 604l-334 -401l-90 69v13l254 319l-164 320l4 12l109 70z" />
    <glyph glyph-name="uni2206" horiz-adv-x="1384" 
d="M690 1450h174l408 -1450h-1405zM612 963l-426 -787h832l-205 782q-25 87 -63 263h-5q-82 -164 -133 -258z" />
    <glyph glyph-name="at.case" horiz-adv-x="1847" 
d="M922 -162q-377 0 -603.5 224t-226.5 597q0 175 64.5 329t175 264t266 173.5t330.5 63.5q229 0 407 -89t276.5 -251t98.5 -371q0 -232 -121.5 -379t-314.5 -147q-89 0 -144 45t-55 117q-40 -72 -114.5 -117t-155.5 -45q-137 0 -220 94.5t-83 251.5q0 203 122.5 342
t299.5 139q75 0 136 -37.5t87 -99.5l20 94h146l-78 -370q-33 -161 -33 -177q0 -50 28.5 -76t80.5 -26q101 0 170 108.5t69 264.5q0 270 -167 426.5t-457 156.5q-193 0 -347 -88t-240.5 -245t-86.5 -355q0 -309 184 -490t494 -181q139 0 231 20t205 74l14 -4l58 -121
q-193 -115 -516 -115zM829 387q110 0 186.5 101t76.5 249q0 97 -45.5 150t-128.5 53q-102 0 -176 -102.5t-74 -247.5q0 -89 45 -146t116 -57z" />
    <glyph glyph-name="caron.alt" horiz-adv-x="387" 
d="M487 1430l-249 -406l-117 47l201 410l22 8z" />
    <glyph glyph-name="uni0308.case" 
d="M-436 1612q-51 0 -86 34.5t-35 86.5q0 47 36 82.5t85 35.5t83 -35t34 -83q0 -53 -32.5 -87t-84.5 -34zM-29 1612q-50 0 -84 34.5t-34 86.5q0 47 35.5 82.5t82.5 35.5q49 0 85 -35.5t36 -82.5q0 -53 -34 -87t-87 -34z" />
    <glyph glyph-name="uni0307.case" 
d="M-141 1591q-54 0 -90.5 35.5t-36.5 89.5q0 53 36.5 89t90.5 36t90.5 -37t36.5 -90q0 -52 -37 -87.5t-90 -35.5z" />
    <glyph glyph-name="gravecomb.case" 
d="M-57 1565h-146l-241 260l10 14h184z" />
    <glyph glyph-name="acutecomb.case" 
d="M-326 1565h-151l229 274h195l6 -14z" />
    <glyph glyph-name="uni030B.case" 
d="M-627 1565h-151l227 274h195l6 -14zM-279 1565h-151l227 274h195l6 -14z" />
    <glyph glyph-name="uni0302.case" 
d="M-236 1565l-137 194l-196 -194h-140l-8 16l254 258h195l176 -258l-14 -16h-130z" />
    <glyph glyph-name="uni030C.case" 
d="M-281 1565h-194l-178 276l14 17h131l137 -213l197 213h137l10 -17z" />
    <glyph glyph-name="uni0306.case" 
d="M-229 1565q-143 0 -223.5 71.5t-71.5 192.5l16 16h123q6 -71 47 -104t123 -33q83 0 134 33t77 104h121l14 -16q-26 -122 -122.5 -193t-237.5 -71z" />
    <glyph glyph-name="uni030A.case" 
d="M-106 1546q-76 0 -126.5 47.5t-50.5 120.5q0 94 67.5 161t162.5 67q75 0 125.5 -48.5t50.5 -121.5q0 -92 -67.5 -159t-161.5 -67zM-96 1626q56 0 95.5 39t39.5 94q0 44 -29 72.5t-73 28.5q-56 0 -96 -39.5t-40 -94.5q0 -44 29 -72t74 -28z" />
    <glyph glyph-name="tildecomb.case" 
d="M-100 1579q73 0 136.5 66.5t92.5 173.5h-113l-18 -13q-28 -88 -86 -88q-32 0 -80 25t-100.5 50.5t-93.5 25.5q-74 0 -137.5 -66t-92.5 -174h117l16 12q27 88 84 88q33 0 79 -25t97.5 -50t98.5 -25z" />
    <glyph glyph-name="uni0304.case" 
d="M-47 1634h-567l20 142h567z" />
    <glyph glyph-name="brevecombcy" 
d="M-305 1104q-142 0 -222 71.5t-73 192.5l16 16h123q6 -72 47 -104.5t125 -32.5q82 0 132 32.5t75 104.5h123l14 -16q-26 -122 -122.5 -193t-237.5 -71z" />
    <glyph glyph-name="brevecombcy.case" 
d="M-229 1565q-143 0 -223.5 71.5t-71.5 192.5l16 16h123q6 -71 47 -104t123 -33q83 0 134 33t77 104h121l14 -16q-26 -122 -122.5 -193t-237.5 -71z" />
    </font>
</defs>
</svg>
