<?xml version="1.0" standalone="no"?>
<!DOCTYPE svg PUBLIC "-//W3C//DTD SVG 1.1//EN" "http://www.w3.org/Graphics/SVG/1.1/DTD/svg11.dtd" >
<svg xmlns="http://www.w3.org/2000/svg" xmlns:xlink="http://www.w3.org/1999/xlink" version="1.1">
<metadata>
Created by FontForge 20201107 at Thu Jul 11 23:01:29 2024
 By 
Copyright (c) 2016 by Botio Nikoltchev. All rights reserved.
</metadata>
<defs>
<font id="Quasimoda-Black" horiz-adv-x="0" >
  <font-face 
    font-family="Quasimoda Black"
    font-weight="850"
    font-stretch="normal"
    units-per-em="2048"
    panose-1="0 0 9 0 0 0 0 0 0 0"
    ascent="1638"
    descent="-410"
    x-height="932"
    cap-height="1450"
    bbox="-1303 -631 2793 2341"
    underline-thickness="102"
    underline-position="-204"
    unicode-range="U+000D-FB02"
  />
<missing-glyph horiz-adv-x="1343" 
d="M205 1522h934v-1522h-934v1522zM1020 109v1304h-696v-1304h696zM500 995l-21 -8l-78 17q19 104 91.5 164.5t179.5 60.5q113 0 183.5 -64t70.5 -166q0 -75 -27.5 -128t-95.5 -109q-61 -51 -79 -83t-19 -91l-3 -68h-96l-2 70q-2 65 23.5 115.5t83.5 101.5q66 56 87 94.5
t21 93.5q0 63 -41.5 103.5t-109.5 40.5q-66 0 -110.5 -37.5t-57.5 -106.5zM662 252q-32 0 -55 22t-23 54q0 33 22.5 55.5t55.5 22.5q31 0 53 -22.5t22 -55.5q0 -32 -22 -54t-53 -22z" />
    <glyph glyph-name="f_i" unicode="fi" horiz-adv-x="1386" 
d="M762 1190l-21 -10q-37 16 -71 16q-45 0 -64.5 -31t-19.5 -104v-129h168v-297h-168v-635h-404v635h-157v297h157v127q0 248 89 357.5t286 109.5q116 0 221 -31zM1081 1075q-101 0 -165 57t-64 148t63 146t166 55q101 0 164.5 -56t63.5 -145q0 -91 -63.5 -148t-164.5 -57z
M1282 0h-403v932h403v-932z" />
    <glyph glyph-name="f_l" unicode="fl" horiz-adv-x="1396" 
d="M762 1190l-21 -10q-37 16 -71 16q-45 0 -64.5 -31t-19.5 -104v-129h168v-297h-168v-635h-404v635h-157v297h157v127q0 248 89 357.5t286 109.5q116 0 221 -31zM1292 0h-403v1501h403v-1501z" />
    <glyph glyph-name=".notdef" horiz-adv-x="1343" 
d="M205 1522h934v-1522h-934v1522zM1020 109v1304h-696v-1304h696zM500 995l-21 -8l-78 17q19 104 91.5 164.5t179.5 60.5q113 0 183.5 -64t70.5 -166q0 -75 -27.5 -128t-95.5 -109q-61 -51 -79 -83t-19 -91l-3 -68h-96l-2 70q-2 65 23.5 115.5t83.5 101.5q66 56 87 94.5
t21 93.5q0 63 -41.5 103.5t-109.5 40.5q-66 0 -110.5 -37.5t-57.5 -106.5zM662 252q-32 0 -55 22t-23 54q0 33 22.5 55.5t55.5 22.5q31 0 53 -22.5t22 -55.5q0 -32 -22 -54t-53 -22z" />
    <glyph glyph-name=".null" 
 />
    <glyph glyph-name="nonmarkingreturn" horiz-adv-x="682" 
 />
    <glyph glyph-name="NULL" 
 />
    <glyph glyph-name="NULL" 
 />
    <glyph glyph-name="CR" unicode="&#xd;" horiz-adv-x="548" 
 />
    <glyph glyph-name="space" unicode=" " horiz-adv-x="548" 
 />
    <glyph glyph-name="exclam" unicode="!" horiz-adv-x="749" 
d="M567 522h-383l-20 928h424zM373 -25q-101 0 -164.5 63t-63.5 157t64.5 157.5t163.5 63.5q102 0 166.5 -63t64.5 -158q0 -94 -65 -157t-166 -63z" />
    <glyph glyph-name="quotedbl" unicode="&#x22;" horiz-adv-x="1034" 
d="M451 844h-310v606h310v-606zM893 844h-309v606h309v-606z" />
    <glyph glyph-name="numbersign" unicode="#" horiz-adv-x="1366" 
d="M1296 1100v-254h-202l-33 -242h215v-254h-252l-49 -350h-275l50 350h-242l-49 -350h-273l50 350h-166v254h202l33 242h-215v254h252l49 350h273l-50 -350h242l49 350h275l-50 -350h166zM545 604h241l33 242h-241z" />
    <glyph glyph-name="dollar" unicode="$" horiz-adv-x="1433" 
d="M897 877q198 -84 283.5 -187t85.5 -244q0 -176 -115 -304.5t-305 -168.5v-153h-248v145q-151 19 -274 94t-207 201l284 199l39 -10q99 -138 252 -138q64 0 103 26t39 66q0 32 -20.5 56.5t-80 56.5t-182.5 84q-200 83 -283.5 187.5t-83.5 269.5q0 156 115 272t299 150v153
h248v-153q271 -42 424 -260l-283 -211l-39 8q-87 121 -217 121q-57 0 -87 -22t-30 -60q0 -25 16.5 -43t76 -48.5t190.5 -86.5z" />
    <glyph glyph-name="percent" unicode="%" horiz-adv-x="2009" 
d="M506 700q-164 0 -279.5 114.5t-115.5 275.5q0 163 115.5 276t279.5 113t278.5 -113t114.5 -276q0 -162 -115 -276t-278 -114zM707 0h-254l850 1450h253zM506 950q58 0 96.5 40t38.5 100t-38.5 100.5t-96.5 40.5q-59 0 -99 -40t-40 -101q0 -60 40 -100t99 -40zM1503 -29
q-164 0 -278.5 113t-114.5 276q0 162 115 276t278 114q164 0 279.5 -114.5t115.5 -275.5q0 -163 -115.5 -276t-279.5 -113zM1503 219q60 0 99.5 40t39.5 101t-39.5 100.5t-99.5 39.5q-58 0 -96.5 -40t-38.5 -100t38.5 -100.5t96.5 -40.5z" />
    <glyph glyph-name="ampersand" unicode="&#x26;" horiz-adv-x="1642" 
d="M1348 295l307 -295h-494l-67 68q-192 -107 -461 -107q-244 0 -397.5 125.5t-153.5 325.5q0 121 69.5 220.5t198.5 162.5q-74 62 -113.5 145t-39.5 172q0 169 135.5 273t353.5 104q213 0 344 -103.5t131 -269.5q0 -124 -64 -216.5t-204 -168.5l182 -174q48 89 86 213
l19 14h385q-77 -303 -217 -489zM690 1210q-52 0 -83.5 -31t-31.5 -81q0 -83 99 -162q127 55 127 164q0 50 -30 80t-81 30zM670 283q92 0 170 34l-262 256q-91 -49 -91 -141q0 -66 51.5 -107.5t131.5 -41.5z" />
    <glyph glyph-name="quotesingle" unicode="'" horiz-adv-x="591" 
d="M453 844h-310v606h310v-606z" />
    <glyph glyph-name="parenleft" unicode="(" horiz-adv-x="743" 
d="M653 -250l-264 -119q-147 196 -230 449t-83 510t83 509.5t230 448.5l264 -118q-268 -378 -268 -840t268 -840z" />
    <glyph glyph-name="parenright" unicode=")" horiz-adv-x="755" 
d="M356 -369l-264 119q268 378 268 840t-268 840l264 118q147 -196 230.5 -449t83.5 -509t-83.5 -509.5t-230.5 -449.5z" />
    <glyph glyph-name="asterisk" unicode="*" horiz-adv-x="995" 
d="M346 643l-47 -6l-149 108l-5 43l158 191l-237 59l-21 39l61 180l41 17l238 -90l-10 237l28 29h189l31 -29l-13 -237l240 90l39 -17l61 -180l-20 -39l-238 -59l158 -191l-4 -43l-150 -108l-47 6l-151 225z" />
    <glyph glyph-name="plus" unicode="+" horiz-adv-x="1433" 
d="M846 752h405v-258h-405v-406h-258v406h-406v258h406v405h258v-405z" />
    <glyph glyph-name="comma" unicode="," horiz-adv-x="659" 
d="M590 274l-316 -620l-258 96l215 633l29 16z" />
    <glyph glyph-name="hyphen" unicode="-" horiz-adv-x="655" 
d="M561 315h-467v263h467v-263z" />
    <glyph glyph-name="period" unicode="." horiz-adv-x="616" 
d="M307 -25q-99 0 -162 65.5t-63 160.5q0 93 63.5 154t161.5 61q99 0 163.5 -61t64.5 -154q0 -94 -64.5 -160t-163.5 -66z" />
    <glyph glyph-name="slash" unicode="/" horiz-adv-x="933" 
d="M586 1450h336l-572 -1448h-338z" />
    <glyph glyph-name="zero" unicode="0" horiz-adv-x="1398" 
d="M698 -39q-280 0 -442 204.5t-162 559.5t162 559.5t442 204.5q281 0 444 -204.5t163 -559.5t-163 -559.5t-444 -204.5zM698 352q166 0 166 373t-166 373q-163 0 -163 -373t163 -373z" />
    <glyph glyph-name="one" unicode="1" horiz-adv-x="892" 
d="M756 0h-426v690q0 146 39 299l-9 2q-58 -50 -155 -106l-139 -78l-33 14l28 408l555 258h140v-1487z" />
    <glyph glyph-name="two" unicode="2" horiz-adv-x="1228" 
d="M1165 0h-1161v47l551 629q95 104 134.5 173t39.5 136q0 53 -31.5 85t-89.5 32q-123 0 -157 -184l-39 -17l-379 53q54 273 207 404t413 131q230 0 373 -128t143 -329q0 -157 -63.5 -289.5t-194.5 -257.5l-43 -41q-59 -54 -147 -110l2 -8q141 36 260 36h182v-362z" />
    <glyph glyph-name="three" unicode="3" horiz-adv-x="1257" 
d="M659 -39q-558 0 -614 471l397 68l37 -21q23 -160 156 -160q60 0 95.5 41t35.5 111q0 68 -43.5 104.5t-122.5 36.5h-49v265h31q82 0 126 36.5t44 104.5q0 56 -30 87.5t-85 31.5q-57 0 -95 -34.5t-50 -94.5l-37 -21l-373 72q56 212 209 321t397 109q223 0 355.5 -108
t132.5 -291q0 -110 -65 -200.5t-175 -131.5q125 -31 197.5 -129.5t72.5 -235.5q0 -192 -152.5 -312t-394.5 -120z" />
    <glyph glyph-name="four" unicode="4" horiz-adv-x="1310" 
d="M1122 0h-417v264h-680v299l606 891h491v-836h162v-354h-162v-264zM604 844l-155 -226h266v138q0 180 26 329h-6q-47 -105 -131 -241z" />
    <glyph glyph-name="five" unicode="5" horiz-adv-x="1251" 
d="M629 -39q-532 0 -600 430l401 82l37 -20q13 -70 50.5 -102t105.5 -32q66 0 105.5 44.5t39.5 119.5q0 88 -52.5 137.5t-150.5 49.5q-204 0 -372 -111l-80 29l57 862h915v-346h-550l-13 -166q104 29 189 29q224 0 356.5 -128.5t132.5 -342.5q0 -246 -154 -390.5
t-417 -144.5z" />
    <glyph glyph-name="six" unicode="6" horiz-adv-x="1329" 
d="M670 -39q-272 0 -437 154t-165 409q0 155 77 310t265 376l295 353l315 -187l14 -45l-149 -178q-61 -72 -112.5 -118.5t-125.5 -88.5l4 -8q108 51 205 51q187 0 298.5 -127t111.5 -344q0 -256 -161 -406.5t-435 -150.5zM670 342q73 0 117 48t44 128q0 79 -43.5 126.5
t-117.5 47.5q-72 0 -116 -48.5t-44 -127.5q0 -78 44 -126t116 -48z" />
    <glyph glyph-name="seven" unicode="7" horiz-adv-x="1128" 
d="M123 88l475 989h-571v373h1196v-43l-686 -1421l-68 -25z" />
    <glyph glyph-name="eight" unicode="8" horiz-adv-x="1247" 
d="M623 -37q-275 0 -429.5 121.5t-154.5 321.5q0 128 70 219.5t208 138.5q-225 87 -225 328q0 174 143.5 285.5t387.5 111.5q245 0 387.5 -111.5t142.5 -285.5q0 -239 -225 -328q138 -47 208 -138.5t70 -219.5q0 -201 -153.5 -322t-429.5 -121zM621 895q53 0 83.5 36
t30.5 99t-30.5 98t-83.5 35t-84 -35.5t-31 -97.5t31.5 -98.5t83.5 -36.5zM623 283q67 0 108 45.5t41 120.5q0 76 -40.5 120.5t-108.5 44.5q-67 0 -108.5 -44.5t-41.5 -120.5q0 -75 42 -120.5t108 -45.5z" />
    <glyph glyph-name="nine" unicode="9" horiz-adv-x="1339" 
d="M926 240l-295 -353l-316 189l-14 45l150 176q62 72 112.5 118.5t124.5 88.5l-4 8q-108 -51 -205 -51q-186 0 -297.5 129t-111.5 350q0 251 163.5 400t442.5 149q272 0 434 -153.5t162 -409.5q0 -156 -80.5 -313t-265.5 -373zM668 758q71 0 114 48.5t43 127.5t-43.5 126.5
t-115.5 47.5t-117 -48t-45 -126q0 -81 44.5 -128.5t119.5 -47.5z" />
    <glyph glyph-name="colon" unicode=":" horiz-adv-x="724" 
d="M362 604q-98 0 -160.5 63t-62.5 154q0 93 62.5 154t160.5 61t161 -61t63 -154q0 -91 -63 -154t-161 -63zM362 -25q-97 0 -160 64t-63 154q0 94 62.5 154.5t160.5 60.5t161 -60.5t63 -154.5q0 -90 -63 -154t-161 -64z" />
    <glyph glyph-name="semicolon" unicode=";" horiz-adv-x="788" 
d="M426 604q-98 0 -160.5 63t-62.5 154q0 92 63 153.5t160 61.5q98 0 161.5 -61t63.5 -154q0 -91 -63 -154t-162 -63zM606 274l-315 -620l-258 96l217 633l26 16z" />
    <glyph glyph-name="less" unicode="&#x3c;" horiz-adv-x="1433" 
d="M184 743l1065 441v-289l-678 -270l678 -273v-289l-1065 441v239z" />
    <glyph glyph-name="equal" unicode="=" horiz-adv-x="1433" 
d="M1282 698h-1130v260h1130v-260zM1282 289h-1130v260h1130v-260z" />
    <glyph glyph-name="greater" unicode="&#x3e;" horiz-adv-x="1433" 
d="M184 895v289l1065 -441v-239l-1065 -441v289l678 273z" />
    <glyph glyph-name="question" unicode="?" horiz-adv-x="1198" 
d="M788 522h-382v53q0 100 43.5 173t150.5 151q65 50 89 82t24 68q0 47 -29.5 74.5t-81.5 27.5q-64 0 -102 -39.5t-47 -112.5l-35 -18l-355 49q25 215 175.5 337t390.5 122q222 0 361.5 -113t139.5 -289q0 -129 -57.5 -219t-195.5 -178q-50 -34 -69.5 -63t-19.5 -70v-35z
M604 -25q-100 0 -163.5 63t-63.5 157t64.5 157.5t162.5 63.5q102 0 167 -63t65 -158q0 -93 -65.5 -156.5t-166.5 -63.5z" />
    <glyph glyph-name="at" unicode="@" horiz-adv-x="1816" 
d="M944 -358q-259 0 -458 102.5t-307.5 291t-106.5 433.5q1 181 69 338.5t184.5 269.5t280.5 176t352 64q230 0 408.5 -90t277.5 -253.5t99 -375.5q0 -232 -132 -376t-343 -144q-85 0 -141.5 33.5t-75.5 93.5q-34 -57 -100 -92t-138 -35q-132 0 -215.5 100t-83.5 258
q0 194 108.5 323.5t272.5 129.5q66 0 119 -31t73 -82l13 60h248l-48 -248q-32 -170 -32 -215q0 -72 71 -72q63 0 107.5 81t44.5 196q0 247 -139 381.5t-394 134.5q-283 0 -455.5 -172t-172.5 -453q0 -280 173 -443t468 -161q194 0 368 86l19 -6l86 -197q-199 -106 -500 -106
zM881 301q62 0 104.5 66t42.5 161q0 142 -100 142q-59 0 -102.5 -69t-43.5 -163q0 -63 27 -100t72 -37z" />
    <glyph glyph-name="A" unicode="A" horiz-adv-x="1554" 
d="M1565 0h-492l-67 221h-457l-66 -221h-493l542 1450h500zM700 741l-61 -209h274l-63 209q-51 183 -70 334h-10q-22 -176 -70 -334z" />
    <glyph glyph-name="B" unicode="B" horiz-adv-x="1314" 
d="M672 0h-539v1450h516q269 0 403 -100.5t134 -284.5q0 -107 -65 -189.5t-171 -113.5v-6q147 -36 226 -124t79 -222q0 -410 -583 -410zM551 1139v-250h84q162 0 162 123q0 127 -166 127h-80zM551 606v-282h100q199 0 199 143q0 139 -195 139h-104z" />
    <glyph glyph-name="C" unicode="C" horiz-adv-x="1574" 
d="M854 -39q-161 0 -303 56t-245.5 155.5t-163.5 242.5t-60 310q0 168 60.5 312t165 242.5t246.5 154t302 55.5q210 0 380 -91t267 -268l-321 -192l-39 6q-97 150 -271 150q-140 0 -235.5 -102t-95.5 -267q0 -163 97 -266t241 -103q169 0 266 150l39 6l321 -195
q-100 -176 -270 -266t-381 -90z" />
    <glyph glyph-name="D" unicode="D" horiz-adv-x="1544" 
d="M637 0h-504v1450h506q389 0 609 -193.5t220 -527.5q0 -338 -223.5 -533.5t-607.5 -195.5zM551 1079v-708h74q208 0 309.5 85.5t101.5 272.5q0 181 -101 265.5t-306 84.5h-78z" />
    <glyph glyph-name="E" unicode="E" horiz-adv-x="1202" 
d="M133 0v1450h930l39 -352h-551v-197h483v-334h-483v-215h551l-39 -352h-930z" />
    <glyph glyph-name="F" unicode="F" horiz-adv-x="1155" 
d="M133 0v1450h907l39 -352h-528v-230h463v-333h-463v-535h-418z" />
    <glyph glyph-name="G" unicode="G" horiz-adv-x="1646" 
d="M770 -39q-196 0 -352.5 94.5t-246 267.5t-89.5 394q0 171 60.5 317t165.5 245t247.5 154.5t304.5 55.5q219 0 390 -88.5t270 -263.5l-326 -195l-37 6q-51 76 -116.5 111t-157.5 35q-148 0 -245 -103t-97 -274q0 -168 91 -273.5t238 -105.5q239 0 285 168v4h-258v307h647
v-817h-375v37q0 69 35 158l-4 2q-67 -122 -172.5 -179t-257.5 -57z" />
    <glyph glyph-name="H" unicode="H" horiz-adv-x="1548" 
d="M551 0h-418v1450h418v-537h446v537h418v-1450h-418v547h-446v-547z" />
    <glyph glyph-name="I" unicode="I" horiz-adv-x="686" 
d="M133 0v1450h418v-1450h-418z" />
    <glyph glyph-name="J" unicode="J" horiz-adv-x="1142" 
d="M354 444l37 -10q25 -94 105 -94q53 0 79.5 43t26.5 145v922h418v-926q0 -278 -127.5 -420.5t-370.5 -142.5q-187 0 -325.5 98.5t-180.5 253.5z" />
    <glyph glyph-name="K" unicode="K" horiz-adv-x="1509" 
d="M1532 0h-500l-319 520l-162 -184v-336h-418v1450h418v-213q0 -166 -21 -420h5q100 160 204 287l279 346h502l-523 -604z" />
    <glyph glyph-name="L" unicode="L" horiz-adv-x="1189" 
d="M133 0v1450h418v-1071h602l-47 -379h-973z" />
    <glyph glyph-name="M" unicode="M" horiz-adv-x="1921" 
d="M639 1450l322 -670h4l317 670h506v-1450h-410l8 924h-4l-403 -799h-37l-403 799h-4l8 -924h-410v1450h506z" />
    <glyph glyph-name="N" unicode="N" horiz-adv-x="1630" 
d="M549 0h-416v1450h434l330 -467q128 -182 209 -319h4q-31 175 -31 360v426h418v-1456h-389l-371 495q-120 165 -217 320h-4q33 -183 33 -360v-449z" />
    <glyph glyph-name="O" unicode="O" horiz-adv-x="1759" 
d="M879 -39q-169 0 -317 58.5t-253.5 159.5t-166 243t-60.5 303q0 221 103.5 396t285.5 271.5t408 96.5q227 0 409 -96.5t285.5 -271.5t103.5 -396q0 -215 -103.5 -390t-286.5 -274.5t-408 -99.5zM879 350q151 0 252.5 106.5t101.5 268.5q0 166 -101 271.5t-253 105.5
t-253.5 -105.5t-101.5 -271.5q0 -162 102.5 -268.5t252.5 -106.5z" />
    <glyph glyph-name="P" unicode="P" horiz-adv-x="1316" 
d="M559 0h-426v1450h543q291 0 437.5 -125.5t146.5 -370.5q0 -227 -137 -354t-388 -127h-176v-473zM559 1116v-319h105q190 0 190 157q0 84 -47.5 123t-142.5 39h-105z" />
    <glyph glyph-name="Q" unicode="Q" horiz-adv-x="1761" 
d="M1282 150l-2 -9q163 -35 324 -59l30 -37l-104 -303q-401 86 -774 238q-195 25 -348.5 127t-239.5 263t-86 355q0 166 61 308.5t167.5 242.5t255 156.5t319.5 56.5q167 0 314.5 -56.5t252 -154t165 -233.5t60.5 -289q0 -201 -99.5 -361t-295.5 -245zM524 725
q0 -162 102.5 -268.5t254.5 -106.5t254 106.5t102 268.5q0 165 -102 271t-254 106q-153 0 -255 -106t-102 -271z" />
    <glyph glyph-name="R" unicode="R" horiz-adv-x="1394" 
d="M1034 573l377 -536l-14 -37h-443l-327 504h-68v-504h-426v1450h559q580 0 580 -485q0 -139 -61 -238.5t-177 -153.5zM678 1116h-119v-301h119q190 0 190 150q0 151 -190 151z" />
    <glyph glyph-name="S" unicode="S" horiz-adv-x="1234" 
d="M596 -39q-183 0 -332 76t-246 223l285 199l39 -8q100 -140 252 -140q64 0 102.5 26t38.5 66q0 33 -20 57t-79.5 56.5t-182.5 83.5q-199 83 -283 188t-84 269q0 120 70.5 219t195 156t277.5 57q171 0 310 -69.5t232 -200.5l-282 -211l-39 8q-87 121 -217 121
q-57 0 -87 -22t-30 -58q0 -26 17 -44t75.5 -49t188.5 -87q199 -85 284.5 -187.5t85.5 -243.5q0 -211 -160.5 -348t-410.5 -137z" />
    <glyph glyph-name="T" unicode="T" horiz-adv-x="1329" 
d="M453 0v1071h-433v379h1289v-379h-432v-1071h-424z" />
    <glyph glyph-name="U" unicode="U" horiz-adv-x="1536" 
d="M768 -39q-331 0 -488 168.5t-157 505.5v815h418v-774q0 -180 52 -253t175 -73t175 73t52 253v774h418v-813q0 -329 -161.5 -502.5t-483.5 -173.5z" />
    <glyph glyph-name="V" unicode="V" horiz-adv-x="1548" 
d="M1016 -6h-484l-530 1456h494l204 -721q53 -181 72 -315h8q6 45 16.5 96.5t16.5 76.5t21 81.5t16 60.5l203 721h493z" />
    <glyph glyph-name="W" unicode="W" horiz-adv-x="2084" 
d="M840 -6h-391l-435 1456h463l137 -659q34 -154 50 -297h4q33 188 61 299l164 655h299l164 -655q37 -144 61 -299h4q17 152 49 297l138 659h463l-433 -1456h-391l-143 553q-22 87 -60 250h-4q-16 -76 -59 -250z" />
    <glyph glyph-name="X" unicode="X" horiz-adv-x="1533" 
d="M492 0h-508l499 758l-471 692h516l238 -414l229 414h504l-465 -690l516 -760h-524l-272 461z" />
    <glyph glyph-name="Y" unicode="Y" horiz-adv-x="1433" 
d="M926 0h-418v569l-516 881h506l110 -264q60 -145 107 -285h4q65 181 106 283l111 266h506l-516 -881v-569z" />
    <glyph glyph-name="Z" unicode="Z" horiz-adv-x="1482" 
d="M31 41l698 1036h-647v373h1366v-41l-707 -1030h668v-379h-1378v41z" />
    <glyph glyph-name="bracketleft" unicode="[" horiz-adv-x="712" 
d="M586 -330h-488v1839h488v-249h-187v-1340h187v-250z" />
    <glyph glyph-name="backslash" unicode="\" horiz-adv-x="933" 
d="M584 2l-572 1448h336l574 -1448h-338z" />
    <glyph glyph-name="bracketright" unicode="]" horiz-adv-x="712" 
d="M614 1509v-1839h-487v250h186v1340h-186v249h487z" />
    <glyph glyph-name="asciicircum" unicode="^" horiz-adv-x="1468" 
d="M504 559h-398l455 891h346l455 -891h-397l-232 555z" />
    <glyph glyph-name="underscore" unicode="_" horiz-adv-x="1024" 
d="M1024 -150v-188h-1024v188h1024z" />
    <glyph glyph-name="grave" unicode="`" horiz-adv-x="722" 
d="M451 1470l211 -376h-291l-310 358l13 18h377z" />
    <glyph glyph-name="a" unicode="a" horiz-adv-x="1122" 
d="M1065 219l18 -8v-213q-97 -33 -200 -33q-192 0 -240 121q-122 -125 -326 -125q-132 0 -203 59t-71 160q0 89 49.5 150.5t171.5 109t332 80.5v39q0 103 -94 103q-100 0 -197 -109l-18 -2l-217 154q73 121 205.5 193.5t299.5 72.5q420 0 420 -393v-316q0 -32 6.5 -42.5
t24.5 -10.5q16 0 39 10zM408 240q0 -32 19.5 -51t53.5 -19q58 0 115 51v154q-103 -22 -145.5 -54.5t-42.5 -80.5z" />
    <glyph glyph-name="b" unicode="b" horiz-adv-x="1259" 
d="M803 -39q-93 0 -173 46t-132 132v-139h-392v1501h404v-414q0 -192 -8 -296q59 88 142 134t179 46q165 0 270 -133.5t105 -364.5q0 -232 -110.5 -372t-284.5 -140zM659 289q67 0 108.5 47.5t41.5 128.5q0 82 -42 131t-110 49q-69 0 -112 -50t-43 -130t44 -128t113 -48z
" />
    <glyph glyph-name="c" unicode="c" horiz-adv-x="1126" 
d="M582 -39q-236 0 -378.5 141t-142.5 361q0 219 146.5 363.5t380.5 144.5q331 0 481 -262l-301 -162l-20 2q-32 55 -67.5 77.5t-80.5 22.5q-65 0 -107 -48.5t-42 -135.5q0 -81 41.5 -130.5t109.5 -49.5q47 0 83 22.5t67 77.5l20 2l299 -164q-153 -262 -489 -262z" />
    <glyph glyph-name="d" unicode="d" horiz-adv-x="1259" 
d="M438 -39q-169 0 -273 136t-104 370q0 230 112.5 367t281.5 137q90 0 169.5 -46t135.5 -134q-8 78 -8 296v414h403v-1501h-391v139q-53 -86 -139.5 -132t-186.5 -46zM598 289q70 0 115 48t45 128t-42.5 130t-111.5 50q-67 0 -109 -49t-42 -133q0 -81 40 -127.5t105 -46.5z
" />
    <glyph glyph-name="e" unicode="e" horiz-adv-x="1204" 
d="M1137 406h-670v-19q0 -68 40 -108.5t109 -40.5q43 0 79.5 24t58.5 60l20 8l326 -97q-58 -131 -183.5 -201.5t-310.5 -70.5q-250 0 -397.5 142t-147.5 362q0 218 151.5 362t391.5 144q235 0 385 -144t150 -374q0 -22 -2 -47zM610 713q-55 0 -94.5 -39t-46.5 -107h276
q-3 69 -39 107.5t-96 38.5z" />
    <glyph glyph-name="f" unicode="f" horiz-adv-x="772" 
d="M762 1190l-21 -10q-37 16 -71 16q-45 0 -64.5 -31t-19.5 -104v-129h168v-297h-168v-635h-404v635h-157v297h157v127q0 248 89 357.5t286 109.5q116 0 221 -31z" />
    <glyph glyph-name="g" unicode="g" horiz-adv-x="1071" 
d="M508 -471q-255 0 -388.5 76t-133.5 221q0 147 188 211q-59 50 -59 119q0 57 37.5 98.5t107.5 60.5q-90 34 -145.5 117.5t-55.5 188.5q0 153 125.5 251.5t319.5 98.5q111 0 203 -39h315l10 -268l-20 -17l-213 27l-2 -12l139 -44q7 -42 2 -73q-21 -109 -119 -181.5
t-254 -82.5q-76 -4 -101.5 -13.5t-25.5 -27.5t35 -28t143 -26q217 -29 313.5 -108.5t96.5 -222.5q0 -160 -132 -243t-386 -83zM502 514q53 0 84.5 29.5t31.5 77.5q0 47 -31.5 76.5t-84.5 29.5q-52 0 -83.5 -30t-31.5 -76q0 -48 31.5 -77.5t83.5 -29.5zM512 -223
q92 0 131 14.5t39 48.5q0 29 -33 47.5t-114 30.5q-78 10 -107 16q-96 -24 -96 -81q0 -76 180 -76z" />
    <glyph glyph-name="h" unicode="h" horiz-adv-x="1236" 
d="M106 0v1501h404v-418q0 -182 -12 -292q120 180 311 180q151 0 236 -96t85 -273v-602h-401v483q0 87 -23 121.5t-73 34.5q-55 0 -89 -51.5t-34 -141.5v-446h-404z" />
    <glyph glyph-name="i" unicode="i" horiz-adv-x="616" 
d="M309 1075q-101 0 -165 57t-64 148t63 146t166 55q101 0 164.5 -56t63.5 -145q0 -91 -63.5 -148t-164.5 -57zM510 0h-404v932h404v-932z" />
    <glyph glyph-name="j" unicode="j" horiz-adv-x="618" 
d="M311 1075q-101 0 -165 57t-64 148q0 90 63.5 145.5t165.5 55.5q103 0 166.5 -56t63.5 -145q0 -91 -64.5 -148t-165.5 -57zM86 -471q-105 0 -203 31l37 307l17 8q40 -14 75 -14q54 0 75.5 33.5t21.5 130.5v907h403v-922q0 -250 -104.5 -365.5t-321.5 -115.5z" />
    <glyph glyph-name="k" unicode="k" horiz-adv-x="1234" 
d="M1241 0h-453l-206 305l-72 -72v-233h-404v1501h404v-362q0 -271 -25 -506q63 82 111 135l143 164h478l-371 -369z" />
    <glyph glyph-name="l" unicode="l" horiz-adv-x="616" 
d="M510 0h-404v1501h404v-1501z" />
    <glyph glyph-name="m" unicode="m" horiz-adv-x="1818" 
d="M1401 971q142 0 226.5 -97t84.5 -272v-602h-403v483q0 87 -21 121.5t-63 34.5q-49 0 -81 -52.5t-32 -142.5v-444h-403v483q0 86 -21.5 121t-64.5 35q-48 0 -80.5 -53t-32.5 -142v-444h-404v932h392v-141q120 180 301 180q99 0 171.5 -52.5t104.5 -150.5q126 203 326 203z
" />
    <glyph glyph-name="n" unicode="n" horiz-adv-x="1239" 
d="M106 0v932h392v-141q120 180 311 180q151 0 237.5 -96.5t86.5 -272.5v-602h-404v485q0 86 -23 120t-73 34q-55 0 -89 -51.5t-34 -141.5v-446h-404z" />
    <glyph glyph-name="o" unicode="o" horiz-adv-x="1214" 
d="M608 -39q-236 0 -391.5 144.5t-155.5 361.5q0 216 155 360t392 144q235 0 390 -144t155 -360q0 -217 -155.5 -361.5t-389.5 -144.5zM608 293q66 0 110 48.5t44 125.5t-42.5 124.5t-111.5 47.5t-112 -47.5t-43 -124.5t44 -125.5t111 -48.5z" />
    <glyph glyph-name="p" unicode="p" horiz-adv-x="1259" 
d="M510 -446h-404v1378h392v-141q59 88 143.5 134t181.5 46q165 0 270 -133.5t105 -364.5q0 -232 -110.5 -372t-284.5 -140q-93 0 -172.5 45t-132.5 131q12 -148 12 -289v-294zM659 289q67 0 108.5 47.5t41.5 128.5q0 82 -42 131t-110 49q-69 0 -112 -50t-43 -130t44 -128
t113 -48z" />
    <glyph glyph-name="q" unicode="q" horiz-adv-x="1259" 
d="M1155 -446l-403 2v292q0 166 10 289q-53 -85 -138.5 -130.5t-185.5 -45.5q-168 0 -272.5 136.5t-104.5 369.5q0 230 114 367t282 137q91 0 170.5 -46t134.5 -134v141h393v-1378zM598 289q70 0 115 48t45 128t-42.5 130t-111.5 50q-67 0 -109 -49t-42 -133
q0 -81 40 -127.5t105 -46.5z" />
    <glyph glyph-name="r" unicode="r" horiz-adv-x="1034" 
d="M510 0h-404v932h383v-146q55 92 128.5 138.5t150.5 46.5q99 0 162 -56t94 -184l-326 -174l-18 8q-20 56 -68 56q-45 0 -73.5 -53t-28.5 -154v-414z" />
    <glyph glyph-name="s" unicode="s" horiz-adv-x="925" 
d="M444 -39q-148 0 -256.5 58.5t-169.5 170.5l203 132l19 -3q35 -49 80 -76.5t90 -27.5q37 0 58 13t21 36q0 24 -34 47t-123 56q-145 55 -207 126.5t-62 178.5q0 135 109 217t291 82q142 0 252 -58t153 -155l-200 -127l-19 2q-24 39 -61 62.5t-78 23.5q-68 0 -68 -47
q0 -25 28.5 -44.5t131.5 -58.5q142 -58 203 -129.5t61 -177.5q0 -136 -115 -218.5t-307 -82.5z" />
    <glyph glyph-name="t" unicode="t" horiz-adv-x="843" 
d="M784 311l21 -10l10 -299q-41 -16 -108.5 -28.5t-128.5 -12.5q-398 0 -398 356v316h-157v299h159v192l303 176h97v-368h227v-299h-227v-221q0 -67 27.5 -93t92.5 -26q36 0 82 18z" />
    <glyph glyph-name="u" unicode="u" horiz-adv-x="1226" 
d="M1120 932v-932h-391v141q-120 -180 -313 -180q-143 0 -226.5 98.5t-83.5 280.5v592h404v-496q0 -78 21 -109.5t65 -31.5q54 0 87.5 51t33.5 146v440h403z" />
    <glyph glyph-name="v" unicode="v" horiz-adv-x="1138" 
d="M745 -6h-352l-389 938h430l133 -559h4l134 559h430z" />
    <glyph glyph-name="w" unicode="w" horiz-adv-x="1654" 
d="M676 -6h-340l-320 938h418l117 -537h4l156 535h233l156 -535h4l117 537h417l-319 -938h-340l-150 479h-4z" />
    <glyph glyph-name="x" unicode="x" horiz-adv-x="1165" 
d="M459 0h-471l354 483l-338 449h457l67 -123q39 -77 52 -119h4q22 60 53 119l68 123h456l-338 -449l353 -483h-471l-72 131q-27 50 -49 119h-4q-16 -50 -50 -119z" />
    <glyph glyph-name="y" unicode="y" horiz-adv-x="1210" 
d="M600 -446h-430l233 497l-389 881h473l119 -555h4l148 555h448z" />
    <glyph glyph-name="z" unicode="z" horiz-adv-x="1081" 
d="M37 20l399 607h-379v305h979v-21l-407 -602h399v-309h-991v20z" />
    <glyph glyph-name="braceleft" unicode="{" horiz-adv-x="745" 
d="M10 461v258h15q67 1 99 40.5t32 119.5v301q0 154 78 241.5t219 87.5h184v-249h-78q-53 0 -80.5 -34.5t-27.5 -97.5v-292q0 -105 -49 -170t-126 -74v-4q77 -9 126 -75t49 -169v-293q0 -63 27.5 -97t80.5 -34h78v-250h-188q-138 0 -215.5 88.5t-77.5 241.5v301
q0 160 -131 160h-15z" />
    <glyph glyph-name="bar" unicode="|" horiz-adv-x="544" 
d="M430 -528h-317v2107h317v-2107z" />
    <glyph glyph-name="braceright" unicode="}" horiz-adv-x="741" 
d="M717 719h14v-258h-14q-131 0 -131 -160v-301q0 -153 -77.5 -241.5t-215.5 -88.5h-189v250h78q53 0 81 34.5t28 96.5v293q0 104 48.5 169.5t125.5 74.5v4q-77 9 -125.5 74t-48.5 170v292q0 62 -28 97t-81 35h-78v249h185q141 0 219 -87.5t78 -241.5v-301q0 -80 32 -119.5
t99 -40.5z" />
    <glyph glyph-name="asciitilde" unicode="~" horiz-adv-x="1433" 
d="M342 434l-20 -4l-183 117q154 282 363 282q72 0 133 -21t96.5 -46.5t84 -46.5t99.5 -21q111 0 177 129l20 4l182 -116q-155 -283 -362 -283q-68 0 -129.5 21t-100 46.5t-89.5 46.5t-99 21q-106 0 -172 -129z" />
    <glyph glyph-name="uni00A0" unicode="&#xa0;" horiz-adv-x="548" 
 />
    <glyph glyph-name="exclamdown" unicode="&#xa1;" horiz-adv-x="749" 
d="M373 971q101 0 166 -62.5t65 -154.5q0 -95 -65 -159.5t-166 -64.5q-99 0 -163.5 64.5t-64.5 159.5q0 92 63.5 154.5t164.5 62.5zM164 -502l20 926h383l21 -926h-424z" />
    <glyph glyph-name="cent" unicode="&#xa2;" horiz-adv-x="1433" 
d="M920 387l299 -164q-119 -201 -351 -250v-153h-245v149q-191 32 -302.5 166.5t-111.5 327.5q0 190 113 327t301 171v153h245v-156q231 -46 349 -249l-302 -162l-20 2q-33 55 -67.5 77.5t-79.5 22.5q-65 0 -107.5 -49t-42.5 -135q0 -81 42 -130.5t110 -49.5q47 0 82.5 22.5
t66.5 77.5z" />
    <glyph glyph-name="sterling" unicode="&#xa3;" horiz-adv-x="1433" 
d="M1096 1055l-21 4q-60 67 -160 67q-75 0 -110 -52t-35 -140v-47h279v-293h-279v-62q0 -104 -51 -155h604l-43 -377h-1120v377h155q37 51 37 127v90h-190v293h190v82q0 80 19.5 155t61.5 142t102 116t146 78t189 29q296 0 461 -158z" />
    <glyph glyph-name="currency" unicode="&#xa4;" horiz-adv-x="1433" 
d="M430 145l-197 -196l-192 192l190 193q-77 127 -77 299q0 164 73 289l-186 186l195 192l190 -188q133 74 293 74q167 0 293 -72l186 186l195 -192l-183 -180q80 -124 80 -295t-84 -305l187 -187l-193 -192l-194 194q-124 -71 -287 -71q-146 0 -289 73zM721 397
q94 0 155.5 67.5t61.5 168.5q0 97 -62.5 164t-154.5 67q-93 0 -156 -67t-63 -164q0 -101 61.5 -168.5t157.5 -67.5z" />
    <glyph glyph-name="yen" unicode="&#xa5;" horiz-adv-x="1433" 
d="M936 1450h506l-381 -541h225v-258h-360v-119h360v-258h-360v-274h-418v274h-361v258h361v119h-361v258h224l-379 541h506l217 -483h4z" />
    <glyph glyph-name="brokenbar" unicode="&#xa6;" horiz-adv-x="544" 
d="M430 668h-317v915h317v-915zM430 -528h-317v917h317v-917z" />
    <glyph glyph-name="section" unicode="&#xa7;" horiz-adv-x="1302" 
d="M1069 326q96 -93 96 -222q0 -186 -148.5 -298.5t-395.5 -112.5q-175 0 -329 72.5t-233 193.5l279 207l18 -8q46 -67 123.5 -107.5t159.5 -40.5q46 0 76 20.5t30 53.5q0 34 -32.5 58t-120.5 51l-90 34q-212 63 -299.5 148t-87.5 217q0 90 46 159.5t128 108.5
q-113 93 -113 240q0 169 143 279t361 110q182 0 316 -65.5t200 -186.5l-293 -178l-20 6q-29 47 -80.5 76.5t-112.5 29.5q-98 0 -98 -67q0 -31 30 -54t115 -53l86 -30q208 -69 294.5 -156.5t86.5 -226.5q0 -84 -35 -151.5t-100 -106.5zM631 522l168 -59q21 8 34 29.5t13 48.5
q0 40 -36 70.5t-122 62.5l-164 59q-22 -8 -38.5 -31.5t-16.5 -50.5q0 -43 37 -69t125 -60z" />
    <glyph glyph-name="dieresis" unicode="&#xa8;" horiz-adv-x="894" 
d="M61 1249q0 72 50 123t122 51t122.5 -50.5t50.5 -123.5q0 -72 -50.5 -122t-122.5 -50q-73 0 -122.5 50t-49.5 122zM492 1249q0 72 49 123t121 51t122 -50.5t50 -123.5q0 -72 -49.5 -122t-122.5 -50q-72 0 -121 50t-49 122z" />
    <glyph glyph-name="copyright" unicode="&#xa9;" horiz-adv-x="1845" 
d="M924 -39q-160 0 -302.5 59.5t-244.5 161.5t-161.5 243t-59.5 298q0 158 59.5 300t161.5 244t244.5 162t302.5 60q159 0 301.5 -60t244 -162t161 -244t59.5 -300q0 -157 -59.5 -298t-161 -243t-244 -161.5t-301.5 -59.5zM918 106q170 0 312.5 83t224 224.5t81.5 309.5
q0 126 -47.5 240.5t-128.5 198t-195 132.5t-241 49q-170 0 -311.5 -83t-222.5 -225.5t-81 -311.5q0 -168 79.5 -309.5t219.5 -224.5t310 -83zM932 295q-186 0 -311 120.5t-125 311.5q0 193 125.5 314.5t310.5 121.5q118 0 214.5 -51t151.5 -151l-186 -111l-22 2
q-56 80 -148 80q-77 0 -128.5 -56t-51.5 -149q0 -90 51.5 -145.5t128.5 -55.5q91 0 148 80l22 2l186 -112q-56 -97 -152.5 -149t-213.5 -52z" />
    <glyph glyph-name="ordfeminine" unicode="&#xaa;" horiz-adv-x="743" 
d="M672 1049l10 -7v-129q-62 -20 -121 -20q-113 0 -145 70q-72 -72 -193 -72q-78 0 -120 35t-42 94q0 78 71 123.5t253 75.5v18q0 57 -49 57q-62 0 -115 -59l-12 -2l-131 94q43 71 123 115.5t178 44.5q254 0 254 -238v-176q0 -20 3.5 -26.5t14.5 -6.5q9 0 21 9zM285 1057
q0 -39 43 -39q28 0 57 26v84q-55 -12 -77.5 -28.5t-22.5 -42.5z" />
    <glyph glyph-name="guillemotleft" unicode="&#xab;" horiz-adv-x="1249" 
d="M606 188l-211 -139l-323 453l323 452l211 -141l6 -25l-200 -286l200 -287zM1122 188l-211 -139l-325 453l325 452l211 -141l4 -25l-200 -286l200 -287z" />
    <glyph glyph-name="logicalnot" unicode="&#xac;" horiz-adv-x="1433" 
d="M176 494v258h1081v-547h-260v289h-821z" />
    <glyph glyph-name="uni00AD" unicode="&#xad;" horiz-adv-x="655" 
d="M561 315h-467v263h467v-263z" />
    <glyph glyph-name="registered" unicode="&#xae;" horiz-adv-x="1241" 
d="M623 563q-127 0 -235 61t-171 167t-63 233q0 193 137.5 329t331.5 136q192 0 328 -136t136 -329q0 -127 -62 -233t-169 -167t-233 -61zM623 645q159 0 267.5 110.5t108.5 268.5q0 159 -108.5 269t-267.5 110q-161 0 -271 -110t-110 -269q0 -158 110.5 -268.5
t270.5 -110.5zM821 1104q0 -95 -80 -133l125 -183l-6 -12h-158l-106 168h-21v-168h-149v498h195q200 0 200 -170zM578 1159v-100h38q62 0 62 49q0 51 -62 51h-38z" />
    <glyph glyph-name="macron" unicode="&#xaf;" horiz-adv-x="815" 
d="M754 1153h-693v207h693v-207z" />
    <glyph glyph-name="degree" unicode="&#xb0;" horiz-adv-x="880" 
d="M440 778q-153 0 -253.5 101.5t-100.5 255.5q0 153 100.5 253.5t253.5 100.5q154 0 254.5 -100.5t100.5 -253.5q0 -154 -100.5 -255.5t-254.5 -101.5zM440 938q81 0 135 56.5t54 140.5q0 82 -54 139t-135 57t-133.5 -56.5t-52.5 -139.5q0 -84 52.5 -140.5t133.5 -56.5z
" />
    <glyph glyph-name="plusminus" unicode="&#xb1;" horiz-adv-x="1433" 
d="M846 948h405v-258h-405v-241h-258v241h-406v258h406v242h258v-242zM1257 80h-1081v258h1081v-258z" />
    <glyph glyph-name="uni00B2" unicode="&#xb2;" horiz-adv-x="827" 
d="M737 942h-694v29l336 385q50 59 69 91t19 66q0 29 -16.5 45.5t-47.5 16.5q-67 0 -84 -102l-22 -11l-238 35q34 162 125.5 240t245.5 78q138 0 223.5 -76t85.5 -195q0 -95 -34.5 -170t-108.5 -143l-23 -21q-12 -11 -90 -63v-4q83 22 158 22h96v-223z" />
    <glyph glyph-name="uni00B3" unicode="&#xb3;" horiz-adv-x="827" 
d="M422 903q-337 0 -367 279l248 41l21 -13q15 -90 82 -90q32 0 51.5 23t19.5 59q0 84 -90 84h-29v164h19q44 0 68 21t24 59q0 67 -59 67q-31 0 -53 -18.5t-29 -50.5l-21 -12l-231 45q68 254 364 254q133 0 212 -65.5t79 -180.5q0 -62 -38.5 -115t-102.5 -78q74 -19 116 -77
t42 -144q0 -112 -90.5 -182t-235.5 -70z" />
    <glyph glyph-name="acute" unicode="&#xb4;" horiz-adv-x="722" 
d="M352 1094h-291l211 376h377l13 -18z" />
    <glyph glyph-name="uni00B5" unicode="&#xb5;" horiz-adv-x="1247" 
d="M510 -446h-404v1378h404v-496q0 -78 21 -109.5t65 -31.5q54 0 87.5 51t33.5 146v440h403v-670q0 -32 7 -42.5t26 -10.5q14 0 39 10l18 -8v-213q-97 -33 -200 -33q-100 0 -163.5 34.5t-76.5 106.5l-2 15q-60 -160 -174 -160q-44 0 -84 27v-434z" />
    <glyph glyph-name="paragraph" unicode="&#xb6;" horiz-adv-x="1363" 
d="M797 -446h-293v1083q-204 9 -319 112.5t-115 282.5q0 209 134 313.5t394 104.5h633v-1896h-295v1634h-139v-1634z" />
    <glyph glyph-name="periodcentered" unicode="&#xb7;" horiz-adv-x="649" 
d="M324 344q-99 0 -162.5 65.5t-63.5 159.5q0 93 64 154t162 61q99 0 163 -61t64 -154q0 -95 -63 -160t-164 -65z" />
    <glyph glyph-name="cedilla" unicode="&#xb8;" horiz-adv-x="698" 
d="M319 -487q-65 0 -137.5 13t-120.5 34l58 137l22 6q74 -33 156 -33q88 0 88 51q0 48 -84 48q-47 0 -84 -13l-67 60l135 184h207l-95 -115q12 4 47 4q87 0 140 -45t53 -120q0 -97 -86.5 -154t-231.5 -57z" />
    <glyph glyph-name="uni00B9" unicode="&#xb9;" horiz-adv-x="827" 
d="M588 942h-266v385q0 74 26 184l-6 2q-36 -33 -94 -63l-80 -47l-21 8l19 254l334 152h88v-875z" />
    <glyph glyph-name="ordmasculine" unicode="&#xba;" horiz-adv-x="772" 
d="M385 891q-138 0 -231 85t-93 212q0 128 92.5 213.5t231.5 85.5q141 0 233.5 -85.5t92.5 -213.5q0 -127 -93 -212t-233 -85zM385 1096q36 0 59 25.5t23 66.5q0 43 -22 68.5t-60 25.5q-37 0 -58.5 -25.5t-21.5 -68.5q0 -41 23 -66.5t57 -25.5z" />
    <glyph glyph-name="guillemotright" unicode="&#xbb;" horiz-adv-x="1249" 
d="M664 502l-324 -453l-211 139l-6 27l201 287l-201 286l6 25l211 141zM1180 502l-326 -453l-211 139l-6 27l201 287l-201 286l6 25l211 141z" />
    <glyph glyph-name="onequarter" unicode="&#xbc;" horiz-adv-x="1994" 
d="M1212 1546h324l-848 -1620h-326zM561 610h-264v385q0 80 25 185l-7 2q-37 -34 -92 -64l-82 -47l-20 8l18 254l334 152h88v-875zM1761 0h-260v139h-397v189l346 516h311v-486h92v-219h-92v-139zM1442 475l-80 -117h147v72q0 114 15 191h-4q-33 -74 -78 -146z" />
    <glyph glyph-name="onehalf" unicode="&#xbd;" horiz-adv-x="1994" 
d="M1188 1546h323l-847 -1620h-326zM535 610h-265v385q0 80 25 185l-6 2q-35 -35 -92 -64l-80 -47l-21 8l17 254l336 152h86v-875zM1858 0h-695v29l334 385q50 59 69 91t19 66q0 62 -63 62t-84 -103l-23 -10l-235 35q32 162 123 239.5t247 77.5q139 0 224.5 -75.5
t85.5 -194.5q0 -95 -35.5 -170t-110.5 -143l-22 -21q-14 -13 -88 -63v-4q83 22 155 22h99v-223z" />
    <glyph glyph-name="threequarters" unicode="&#xbe;" horiz-adv-x="1994" 
d="M1290 1546h324l-848 -1620h-326zM422 567q-337 0 -367 279l246 39l23 -11q12 -90 82 -90q32 0 50.5 22t18.5 58q0 86 -88 86h-29v162h17q44 0 69 22t25 60q0 32 -15.5 50t-43.5 18q-31 0 -52.5 -19t-29.5 -51l-23 -12l-229 45q68 254 364 254q133 0 211 -65.5t78 -180.5
q0 -63 -38 -116.5t-101 -76.5q74 -19 116 -77t42 -144q0 -112 -90.5 -182t-235.5 -70zM1837 0h-260v139h-397v189l346 516h311v-486h92v-219h-92v-139zM1518 475l-78 -117h145v72q0 120 14 191h-4q-35 -79 -77 -146z" />
    <glyph glyph-name="questiondown" unicode="&#xbf;" horiz-adv-x="1198" 
d="M594 971q100 0 163.5 -62.5t63.5 -154.5q0 -94 -64.5 -159t-162.5 -65q-101 0 -166.5 64.5t-65.5 159.5q0 92 65.5 154.5t166.5 62.5zM410 424h383v-51q1 -99 -42.5 -172t-150.5 -152q-67 -51 -91 -82t-24 -67q0 -48 30 -75.5t83 -27.5q63 0 101 40t46 112l35 16l355 -47
q-25 -215 -175.5 -337t-388.5 -122q-224 0 -363.5 112t-139.5 290q0 129 58 219t196 178q50 34 69 63t19 70v33z" />
    <glyph glyph-name="Agrave" unicode="&#xc0;" horiz-adv-x="1554" 
d="M836 1839l204 -274h-290l-273 256l12 18h347zM1565 0h-492l-67 221h-457l-66 -221h-493l542 1450h500zM700 741l-61 -209h274l-63 209q-51 183 -70 334h-10q-22 -176 -70 -334z" />
    <glyph glyph-name="Aacute" unicode="&#xc1;" horiz-adv-x="1554" 
d="M1067 1839l12 -18l-270 -256h-291l205 274h344zM1565 0h-492l-67 221h-457l-66 -221h-493l542 1450h500zM700 741l-61 -209h274l-63 209q-51 183 -70 334h-10q-22 -176 -70 -334z" />
    <glyph glyph-name="Acircumflex" unicode="&#xc2;" horiz-adv-x="1554" 
d="M778 1700l-145 -135h-246l-16 20l250 254h313l252 -254l-19 -20h-245zM1565 0h-492l-67 221h-457l-66 -221h-493l542 1450h500zM700 741l-61 -209h274l-63 209q-51 183 -70 334h-10q-22 -176 -70 -334z" />
    <glyph glyph-name="Atilde" unicode="&#xc3;" horiz-adv-x="1554" 
d="M575 1581l-16 -12h-158q7 124 71.5 204t156.5 80q62 0 151 -39.5t131 -39.5q56 0 72 67l16 12h158q-7 -126 -71 -205t-156 -79q-52 0 -103.5 20t-97 40t-82.5 20q-55 0 -72 -68zM1565 0h-492l-67 221h-457l-66 -221h-493l542 1450h500zM700 741l-61 -209h274l-63 209
q-51 183 -70 334h-10q-22 -176 -70 -334z" />
    <glyph glyph-name="Adieresis" unicode="&#xc4;" horiz-adv-x="1554" 
d="M555 1567q-72 0 -121 50t-49 124q0 72 49 122t121 50t122 -50t50 -122q0 -74 -49.5 -124t-122.5 -50zM1001 1567q-72 0 -121 50t-49 124q0 72 49 122t121 50t123.5 -50t51.5 -122q0 -73 -50.5 -123.5t-124.5 -50.5zM1565 0h-492l-67 221h-457l-66 -221h-493l542 1450h500
zM700 741l-61 -209h274l-63 209q-51 183 -70 334h-10q-22 -176 -70 -334z" />
    <glyph glyph-name="Aring" unicode="&#xc5;" horiz-adv-x="1554" 
d="M778 1538q-95 0 -162 65t-67 162t67 162.5t162 65.5q96 0 164 -65.5t68 -162.5t-68 -162t-164 -65zM778 1884q-50 0 -83 -34.5t-33 -84.5t33 -84t83 -34q52 0 85.5 34t33.5 84t-33.5 84.5t-85.5 34.5zM1565 0h-492l-67 221h-457l-66 -221h-493l542 1450h500zM700 741
l-61 -209h274l-63 209q-51 183 -70 334h-10q-22 -176 -70 -334z" />
    <glyph glyph-name="AE" unicode="&#xc6;" horiz-adv-x="1976" 
d="M1808 567h-483v-215h551l-39 -352h-930v221h-327l-101 -221h-489l680 1450h1167l39 -352h-551v-197h483v-334zM776 674l-71 -142h202v162q0 135 19 408h-8q-49 -191 -142 -428z" />
    <glyph glyph-name="Ccedilla" unicode="&#xc7;" horiz-adv-x="1574" 
d="M1184 512l321 -195q-95 -166 -251 -255.5t-351 -98.5l-63 -78q12 4 47 4q86 0 139 -45t53 -120q0 -97 -86 -154t-231 -57q-65 0 -137.5 13t-120.5 34l57 137l23 6q74 -33 155 -33q88 0 88 51q0 48 -84 48q-47 0 -84 -13l-67 60l115 157q-134 23 -248.5 87.5t-198 161
t-131 226.5t-47.5 277q0 168 60.5 312t165 242.5t246.5 154t302 55.5q210 0 380 -91t267 -268l-321 -192l-39 6q-97 150 -271 150q-140 0 -235.5 -102t-95.5 -267q0 -163 97 -266t241 -103q169 0 266 150z" />
    <glyph glyph-name="Egrave" unicode="&#xc8;" horiz-adv-x="1202" 
d="M866 1565h-291l-272 256l12 18h347zM133 0v1450h930l39 -352h-551v-197h483v-334h-483v-215h551l-39 -352h-930z" />
    <glyph glyph-name="Eacute" unicode="&#xc9;" horiz-adv-x="1202" 
d="M635 1565h-291l205 274h344l12 -18zM133 0v1450h930l39 -352h-551v-197h483v-334h-483v-215h551l-39 -352h-930z" />
    <glyph glyph-name="Ecircumflex" unicode="&#xca;" horiz-adv-x="1202" 
d="M750 1565l-144 135l-145 -135h-246l-16 20l250 254h313l252 -254l-19 -20h-245zM133 0v1450h930l39 -352h-551v-197h483v-334h-483v-215h551l-39 -352h-930z" />
    <glyph glyph-name="Edieresis" unicode="&#xcb;" horiz-adv-x="1202" 
d="M211 1741q0 72 49 122t121 50t122 -50t50 -122q0 -74 -49.5 -124t-122.5 -50q-72 0 -121 50t-49 124zM657 1741q0 72 49 122t121 50t123 -50t51 -122q0 -73 -50.5 -123.5t-123.5 -50.5q-72 0 -121 50t-49 124zM133 0v1450h930l39 -352h-551v-197h483v-334h-483v-215h551
l-39 -352h-930z" />
    <glyph glyph-name="Igrave" unicode="&#xcc;" horiz-adv-x="686" 
d="M604 1565h-291l-272 256l12 18h346zM133 0v1450h418v-1450h-418z" />
    <glyph glyph-name="Iacute" unicode="&#xcd;" horiz-adv-x="686" 
d="M373 1565h-291l205 274h344l12 -18zM133 0v1450h418v-1450h-418z" />
    <glyph glyph-name="Icircumflex" unicode="&#xce;" horiz-adv-x="686" 
d="M487 1565l-143 135l-145 -135h-246l-16 20l249 254h314l252 -254l-19 -20h-246zM133 0v1450h418v-1450h-418z" />
    <glyph glyph-name="Idieresis" unicode="&#xcf;" horiz-adv-x="686" 
d="M-51 1741q0 72 49 122t121 50t122 -50t50 -122q0 -74 -49.5 -124t-122.5 -50q-72 0 -121 50t-49 124zM395 1741q0 72 49 122t121 50t123 -50t51 -122q0 -73 -50.5 -123.5t-123.5 -50.5q-72 0 -121 50t-49 124zM133 0v1450h418v-1450h-418z" />
    <glyph glyph-name="Eth" unicode="&#xd0;" horiz-adv-x="1544" 
d="M133 1450h506q389 0 609 -193.5t220 -527.5q0 -338 -223.5 -533.5t-607.5 -195.5h-504v590h-94v270h94v590zM551 371h74q208 0 309.5 85.5t101.5 272.5q0 181 -101 265.5t-306 84.5h-78v-219h260v-270h-260v-219z" />
    <glyph glyph-name="Ntilde" unicode="&#xd1;" horiz-adv-x="1630" 
d="M973 1569q92 0 156 79t71 205h-158l-16 -12q-16 -67 -72 -67q-42 0 -131 39.5t-151 39.5q-92 0 -156.5 -80t-71.5 -204h158l16 12q17 68 72 68q37 0 82.5 -20t97 -40t103.5 -20zM549 0h-416v1450h434l330 -467q128 -182 209 -319h4q-31 175 -31 360v426h418v-1456h-389
l-371 495q-120 165 -217 320h-4q33 -183 33 -360v-449z" />
    <glyph glyph-name="Ograve" unicode="&#xd2;" horiz-adv-x="1759" 
d="M1141 1565h-291l-272 256l12 18h346zM879 -39q-169 0 -317 58.5t-253.5 159.5t-166 243t-60.5 303q0 221 103.5 396t285.5 271.5t408 96.5q227 0 409 -96.5t285.5 -271.5t103.5 -396q0 -215 -103.5 -390t-286.5 -274.5t-408 -99.5zM879 350q151 0 252.5 106.5
t101.5 268.5q0 166 -101 271.5t-253 105.5t-253.5 -105.5t-101.5 -271.5q0 -162 102.5 -268.5t252.5 -106.5z" />
    <glyph glyph-name="Oacute" unicode="&#xd3;" horiz-adv-x="1759" 
d="M909 1565h-291l205 274h344l13 -18zM879 -39q-169 0 -317 58.5t-253.5 159.5t-166 243t-60.5 303q0 221 103.5 396t285.5 271.5t408 96.5q227 0 409 -96.5t285.5 -271.5t103.5 -396q0 -215 -103.5 -390t-286.5 -274.5t-408 -99.5zM879 350q151 0 252.5 106.5t101.5 268.5
q0 166 -101 271.5t-253 105.5t-253.5 -105.5t-101.5 -271.5q0 -162 102.5 -268.5t252.5 -106.5z" />
    <glyph glyph-name="Ocircumflex" unicode="&#xd4;" horiz-adv-x="1759" 
d="M1024 1565l-143 135l-146 -135h-246l-16 20l250 254h313l252 -254l-18 -20h-246zM879 -39q-169 0 -317 58.5t-253.5 159.5t-166 243t-60.5 303q0 221 103.5 396t285.5 271.5t408 96.5q227 0 409 -96.5t285.5 -271.5t103.5 -396q0 -215 -103.5 -390t-286.5 -274.5
t-408 -99.5zM879 350q151 0 252.5 106.5t101.5 268.5q0 166 -101 271.5t-253 105.5t-253.5 -105.5t-101.5 -271.5q0 -162 102.5 -268.5t252.5 -106.5z" />
    <glyph glyph-name="Otilde" unicode="&#xd5;" horiz-adv-x="1759" 
d="M1030 1569q92 0 156 79t71 205h-157l-17 -12q-16 -67 -71 -67q-42 0 -131.5 39.5t-151.5 39.5q-92 0 -155.5 -79.5t-71.5 -204.5h157l17 12q17 68 72 68q37 0 82.5 -20t96.5 -40t103 -20zM879 -39q-169 0 -317 58.5t-253.5 159.5t-166 243t-60.5 303q0 221 103.5 396
t285.5 271.5t408 96.5q227 0 409 -96.5t285.5 -271.5t103.5 -396q0 -215 -103.5 -390t-286.5 -274.5t-408 -99.5zM879 350q151 0 252.5 106.5t101.5 268.5q0 166 -101 271.5t-253 105.5t-253.5 -105.5t-101.5 -271.5q0 -162 102.5 -268.5t252.5 -106.5z" />
    <glyph glyph-name="Odieresis" unicode="&#xd6;" horiz-adv-x="1759" 
d="M485 1741q0 72 49 122t121 50t122 -50t50 -122q0 -74 -49.5 -124t-122.5 -50q-72 0 -121 50t-49 124zM932 1741q0 72 49 122t121 50t123 -50t51 -122q0 -73 -50 -123.5t-124 -50.5q-72 0 -121 50t-49 124zM879 -39q-169 0 -317 58.5t-253.5 159.5t-166 243t-60.5 303
q0 221 103.5 396t285.5 271.5t408 96.5q227 0 409 -96.5t285.5 -271.5t103.5 -396q0 -215 -103.5 -390t-286.5 -274.5t-408 -99.5zM879 350q151 0 252.5 106.5t101.5 268.5q0 166 -101 271.5t-253 105.5t-253.5 -105.5t-101.5 -271.5q0 -162 102.5 -268.5t252.5 -106.5z" />
    <glyph glyph-name="multiply" unicode="&#xd7;" horiz-adv-x="1433" 
d="M1047 1137l184 -185l-330 -329l330 -330l-184 -184l-330 329l-330 -329l-184 184l329 330l-329 329l184 185l330 -330z" />
    <glyph glyph-name="Oslash" unicode="&#xd8;" horiz-adv-x="1759" 
d="M1536 1411l-102 -121q116 -103 179.5 -248t63.5 -317q0 -215 -103.5 -390t-286.5 -274.5t-408 -99.5q-257 0 -457 129l-100 -119l-91 66l103 121q-120 104 -186 250.5t-66 316.5q0 221 103.5 396t285.5 271.5t408 96.5q266 0 469 -133l102 123zM524 725q0 -140 82 -246
l473 561q-87 62 -200 62q-152 0 -253.5 -105.5t-101.5 -271.5zM879 350q151 0 252.5 106.5t101.5 268.5q0 141 -74 240l-471 -559q88 -56 191 -56z" />
    <glyph glyph-name="Ugrave" unicode="&#xd9;" horiz-adv-x="1536" 
d="M1030 1565h-291l-272 256l12 18h346zM768 -39q-331 0 -488 168.5t-157 505.5v815h418v-774q0 -180 52 -253t175 -73t175 73t52 253v774h418v-813q0 -329 -161.5 -502.5t-483.5 -173.5z" />
    <glyph glyph-name="Uacute" unicode="&#xda;" horiz-adv-x="1536" 
d="M799 1565h-291l205 274h344l12 -18zM768 -39q-331 0 -488 168.5t-157 505.5v815h418v-774q0 -180 52 -253t175 -73t175 73t52 253v774h418v-813q0 -329 -161.5 -502.5t-483.5 -173.5z" />
    <glyph glyph-name="Ucircumflex" unicode="&#xdb;" horiz-adv-x="1536" 
d="M913 1565l-143 135l-145 -135h-246l-17 20l250 254h314l252 -254l-19 -20h-246zM768 -39q-331 0 -488 168.5t-157 505.5v815h418v-774q0 -180 52 -253t175 -73t175 73t52 253v774h418v-813q0 -329 -161.5 -502.5t-483.5 -173.5z" />
    <glyph glyph-name="Udieresis" unicode="&#xdc;" horiz-adv-x="1536" 
d="M375 1741q0 72 49 122t121 50t122 -50t50 -122q0 -74 -49.5 -124t-122.5 -50q-72 0 -121 50t-49 124zM821 1741q0 72 49 122t121 50t123 -50t51 -122q0 -73 -50.5 -123.5t-123.5 -50.5q-72 0 -121 50t-49 124zM768 -39q-331 0 -488 168.5t-157 505.5v815h418v-774
q0 -180 52 -253t175 -73t175 73t52 253v774h418v-813q0 -329 -161.5 -502.5t-483.5 -173.5z" />
    <glyph glyph-name="Yacute" unicode="&#xdd;" horiz-adv-x="1433" 
d="M748 1565h-291l205 274h344l12 -18zM926 0h-418v569l-516 881h506l110 -264q60 -145 107 -285h4q65 181 106 283l111 266h506l-516 -881v-569z" />
    <glyph glyph-name="Thorn" unicode="&#xde;" horiz-adv-x="1316" 
d="M559 0h-426v1450h426v-223h117q291 0 437.5 -125.5t146.5 -370.5q0 -227 -137.5 -355t-387.5 -128h-176v-248zM559 893v-320h105q190 0 190 158q0 84 -47.5 123t-142.5 39h-105z" />
    <glyph glyph-name="germandbls" unicode="&#xdf;" horiz-adv-x="1263" 
d="M748 -39q-88 0 -152 23l8 303l17 12q30 -10 51 -10q66 0 102.5 47t36.5 131q0 207 -186 207h-23v250h37q129 0 129 153q0 67 -31.5 103.5t-91.5 36.5q-77 0 -106 -54.5t-29 -191.5v-971h-404v958q0 297 124 432.5t401 135.5q224 0 352.5 -103.5t128.5 -287.5
q0 -107 -48.5 -188t-133.5 -118q128 -33 201 -138t73 -251q0 -225 -120 -352t-336 -127z" />
    <glyph glyph-name="agrave" unicode="&#xe0;" horiz-adv-x="1122" 
d="M600 1470l211 -376h-291l-309 358l12 18h377zM1065 219l18 -8v-213q-97 -33 -200 -33q-192 0 -240 121q-122 -125 -326 -125q-132 0 -203 59t-71 160q0 89 49.5 150.5t171.5 109t332 80.5v39q0 103 -94 103q-100 0 -197 -109l-18 -2l-217 154q73 121 205.5 193.5
t299.5 72.5q420 0 420 -393v-316q0 -32 6.5 -42.5t24.5 -10.5q16 0 39 10zM408 240q0 -32 19.5 -51t53.5 -19q58 0 115 51v154q-103 -22 -145.5 -54.5t-42.5 -80.5z" />
    <glyph glyph-name="aacute" unicode="&#xe1;" horiz-adv-x="1122" 
d="M946 1470l12 -18l-307 -358h-293l211 376h377zM1065 219l18 -8v-213q-97 -33 -200 -33q-192 0 -240 121q-122 -125 -326 -125q-132 0 -203 59t-71 160q0 89 49.5 150.5t171.5 109t332 80.5v39q0 103 -94 103q-100 0 -197 -109l-18 -2l-217 154q73 121 205.5 193.5
t299.5 72.5q420 0 420 -393v-316q0 -32 6.5 -42.5t24.5 -10.5q16 0 39 10zM408 240q0 -32 19.5 -51t53.5 -19q58 0 115 51v154q-103 -22 -145.5 -54.5t-42.5 -80.5z" />
    <glyph glyph-name="acircumflex" unicode="&#xe2;" horiz-adv-x="1122" 
d="M561 1296l-145 -202h-252l-17 20l248 356h330l248 -356l-17 -20h-251zM1065 219l18 -8v-213q-97 -33 -200 -33q-192 0 -240 121q-122 -125 -326 -125q-132 0 -203 59t-71 160q0 89 49.5 150.5t171.5 109t332 80.5v39q0 103 -94 103q-100 0 -197 -109l-18 -2l-217 154
q73 121 205.5 193.5t299.5 72.5q420 0 420 -393v-316q0 -32 6.5 -42.5t24.5 -10.5q16 0 39 10zM408 240q0 -32 19.5 -51t53.5 -19q58 0 115 51v154q-103 -22 -145.5 -54.5t-42.5 -80.5z" />
    <glyph glyph-name="atilde" unicode="&#xe3;" horiz-adv-x="1122" 
d="M358 1112l-16 -12h-158q7 124 71.5 204t156.5 80q62 0 151 -39.5t131 -39.5q56 0 72 67l16 12h158q-7 -126 -71 -205t-156 -79q-52 0 -103.5 20t-97 40t-82.5 20q-55 0 -72 -68zM1065 219l18 -8v-213q-97 -33 -200 -33q-192 0 -240 121q-122 -125 -326 -125
q-132 0 -203 59t-71 160q0 89 49.5 150.5t171.5 109t332 80.5v39q0 103 -94 103q-100 0 -197 -109l-18 -2l-217 154q73 121 205.5 193.5t299.5 72.5q420 0 420 -393v-316q0 -32 6.5 -42.5t24.5 -10.5q16 0 39 10zM408 240q0 -32 19.5 -51t53.5 -19q58 0 115 51v154
q-103 -22 -145.5 -54.5t-42.5 -80.5z" />
    <glyph glyph-name="adieresis" unicode="&#xe4;" horiz-adv-x="1122" 
d="M346 1077q-73 0 -122.5 50t-49.5 122t50 123t122 51t122 -50.5t50 -123.5q0 -72 -50 -122t-122 -50zM774 1077q-72 0 -121 50t-49 122t49 123t121 51t122 -50.5t50 -123.5q0 -72 -49.5 -122t-122.5 -50zM1065 219l18 -8v-213q-97 -33 -200 -33q-192 0 -240 121
q-122 -125 -326 -125q-132 0 -203 59t-71 160q0 89 49.5 150.5t171.5 109t332 80.5v39q0 103 -94 103q-100 0 -197 -109l-18 -2l-217 154q73 121 205.5 193.5t299.5 72.5q420 0 420 -393v-316q0 -32 6.5 -42.5t24.5 -10.5q16 0 39 10zM408 240q0 -32 19.5 -51t53.5 -19
q58 0 115 51v154q-103 -22 -145.5 -54.5t-42.5 -80.5z" />
    <glyph glyph-name="aring" unicode="&#xe5;" horiz-adv-x="1122" 
d="M561 1067q-95 0 -162 65t-67 162t67 162.5t162 65.5q96 0 164 -65.5t68 -162.5t-68 -162t-164 -65zM561 1413q-50 0 -83.5 -34.5t-33.5 -84.5t33 -84t84 -34q52 0 85.5 34t33.5 84t-33.5 84.5t-85.5 34.5zM1065 219l18 -8v-213q-97 -33 -200 -33q-192 0 -240 121
q-122 -125 -326 -125q-132 0 -203 59t-71 160q0 89 49.5 150.5t171.5 109t332 80.5v39q0 103 -94 103q-100 0 -197 -109l-18 -2l-217 154q73 121 205.5 193.5t299.5 72.5q420 0 420 -393v-316q0 -32 6.5 -42.5t24.5 -10.5q16 0 39 10zM408 240q0 -32 19.5 -51t53.5 -19
q58 0 115 51v154q-103 -22 -145.5 -54.5t-42.5 -80.5z" />
    <glyph glyph-name="ae" unicode="&#xe6;" horiz-adv-x="1714" 
d="M317 -39q-132 0 -203 59t-71 160q0 89 49 151.5t172 111t332 79.5v37q0 103 -94 103q-100 0 -197 -109l-18 -2l-217 154q72 120 202 193t285 73q180 0 272 -117h5q58 55 141 86t176 31q210 0 353 -145.5t143 -372.5q0 -22 -2 -47h-654q0 -80 35.5 -124t103.5 -44
q40 0 75 24t57 60l20 8l328 -97q-59 -131 -183.5 -201.5t-306.5 -70.5q-128 0 -235 46t-176 130q-152 -176 -392 -176zM991 563h264q-4 71 -39 109.5t-90 38.5q-52 0 -89 -38.5t-46 -109.5zM481 170q70 0 152 88q-22 69 -27 115q-110 -21 -154 -52.5t-44 -80.5
q0 -32 19.5 -51t53.5 -19z" />
    <glyph glyph-name="ccedilla" unicode="&#xe7;" horiz-adv-x="1126" 
d="M772 387l299 -164q-128 -220 -391 -256l-68 -82q12 4 47 4q87 0 140 -45t53 -120q0 -97 -86 -154t-231 -57q-65 0 -138 13t-121 34l58 137l22 6q74 -33 156 -33q88 0 88 51q0 48 -84 48q-47 0 -84 -13l-67 60l112 153q-192 30 -304 165t-112 329q0 219 146.5 363.5
t380.5 144.5q331 0 481 -262l-301 -162l-20 2q-32 55 -67.5 77.5t-80.5 22.5q-65 0 -107 -48.5t-42 -135.5q0 -81 41.5 -130.5t109.5 -49.5q47 0 83 22.5t67 77.5z" />
    <glyph glyph-name="egrave" unicode="&#xe8;" horiz-adv-x="1204" 
d="M639 1470l211 -376h-291l-309 358l12 18h377zM1137 406h-670v-19q0 -68 40 -108.5t109 -40.5q43 0 79.5 24t58.5 60l20 8l326 -97q-58 -131 -183.5 -201.5t-310.5 -70.5q-250 0 -397.5 142t-147.5 362q0 218 151.5 362t391.5 144q235 0 385 -144t150 -374q0 -22 -2 -47z
M610 713q-55 0 -94.5 -39t-46.5 -107h276q-3 69 -39 107.5t-96 38.5z" />
    <glyph glyph-name="eacute" unicode="&#xe9;" horiz-adv-x="1204" 
d="M987 1470l12 -18l-307 -358h-293l211 376h377zM1137 406h-670v-19q0 -68 40 -108.5t109 -40.5q43 0 79.5 24t58.5 60l20 8l326 -97q-58 -131 -183.5 -201.5t-310.5 -70.5q-250 0 -397.5 142t-147.5 362q0 218 151.5 362t391.5 144q235 0 385 -144t150 -374q0 -22 -2 -47z
M610 713q-55 0 -94.5 -39t-46.5 -107h276q-3 69 -39 107.5t-96 38.5z" />
    <glyph glyph-name="ecircumflex" unicode="&#xea;" horiz-adv-x="1204" 
d="M602 1296l-145 -202h-252l-17 20l248 356h330l248 -356l-17 -20h-252zM1137 406h-670v-19q0 -68 40 -108.5t109 -40.5q43 0 79.5 24t58.5 60l20 8l326 -97q-58 -131 -183.5 -201.5t-310.5 -70.5q-250 0 -397.5 142t-147.5 362q0 218 151.5 362t391.5 144q235 0 385 -144
t150 -374q0 -22 -2 -47zM610 713q-55 0 -94.5 -39t-46.5 -107h276q-3 69 -39 107.5t-96 38.5z" />
    <glyph glyph-name="edieresis" unicode="&#xeb;" horiz-adv-x="1204" 
d="M387 1077q-73 0 -122.5 50t-49.5 122t50 123t122 51t122 -50.5t50 -123.5q0 -72 -50 -122t-122 -50zM815 1077q-72 0 -121 50t-49 122t49 123t121 51t122 -50.5t50 -123.5q0 -72 -49.5 -122t-122.5 -50zM1137 406h-670v-19q0 -68 40 -108.5t109 -40.5q43 0 79.5 24
t58.5 60l20 8l326 -97q-58 -131 -183.5 -201.5t-310.5 -70.5q-250 0 -397.5 142t-147.5 362q0 218 151.5 362t391.5 144q235 0 385 -144t150 -374q0 -22 -2 -47zM610 713q-55 0 -94.5 -39t-46.5 -107h276q-3 69 -39 107.5t-96 38.5z" />
    <glyph glyph-name="igrave" unicode="&#xec;" horiz-adv-x="616" 
d="M346 1470l211 -376h-291l-309 358l12 18h377zM510 0h-404v932h404v-932z" />
    <glyph glyph-name="iacute" unicode="&#xed;" horiz-adv-x="616" 
d="M397 1094h-293l211 376h377l13 -18zM510 0h-404v932h404v-932z" />
    <glyph glyph-name="icircumflex" unicode="&#xee;" horiz-adv-x="616" 
d="M453 1094l-144 202l-145 -202h-252l-16 20l247 356h330l248 -356l-16 -20h-252zM510 0h-404v932h404v-932z" />
    <glyph glyph-name="idieresis" unicode="&#xef;" horiz-adv-x="616" 
d="M-78 1249q0 72 50 123t122 51t122 -50.5t50 -123.5q0 -72 -50 -122t-122 -50q-73 0 -122.5 50t-49.5 122zM352 1249q0 72 49 123t121 51t122 -50.5t50 -123.5q0 -72 -49.5 -122t-122.5 -50q-72 0 -121 50t-49 122zM510 0h-404v932h404v-932z" />
    <glyph glyph-name="eth" unicode="&#xf0;" horiz-adv-x="1259" 
d="M1061 1362l-176 -82q139 -170 202.5 -354t63.5 -353q-5 -279 -164 -445.5t-430 -166.5q-137 0 -249 59.5t-179.5 176t-67.5 270.5q0 230 112.5 367t281.5 137q90 0 169.5 -46t135.5 -134q-18 165 -180 344l-150 -70l-102 123l133 61q-44 42 -127 107l287 166
q87 -61 153 -125l184 88zM598 289q70 0 115 48t45 128t-42.5 130t-111.5 50q-67 0 -109 -49t-42 -133q0 -81 40 -127.5t105 -46.5z" />
    <glyph glyph-name="ntilde" unicode="&#xf1;" horiz-adv-x="1239" 
d="M770 1100q92 0 156 79t71 205h-157l-17 -12q-16 -67 -71 -67q-42 0 -131.5 39.5t-151.5 39.5q-92 0 -155.5 -79.5t-71.5 -204.5h157l17 12q17 68 71 68q37 0 82.5 -20t97 -40t103.5 -20zM106 0v932h392v-141q120 180 311 180q151 0 237.5 -96.5t86.5 -272.5v-602h-404
v485q0 86 -23 120t-73 34q-55 0 -89 -51.5t-34 -141.5v-446h-404z" />
    <glyph glyph-name="ograve" unicode="&#xf2;" horiz-adv-x="1214" 
d="M645 1470l211 -376h-291l-309 358l12 18h377zM608 -39q-236 0 -391.5 144.5t-155.5 361.5q0 216 155 360t392 144q235 0 390 -144t155 -360q0 -217 -155.5 -361.5t-389.5 -144.5zM608 293q66 0 110 48.5t44 125.5t-42.5 124.5t-111.5 47.5t-112 -47.5t-43 -124.5
t44 -125.5t111 -48.5z" />
    <glyph glyph-name="oacute" unicode="&#xf3;" horiz-adv-x="1214" 
d="M696 1094h-293l211 376h377l13 -18zM608 -39q-236 0 -391.5 144.5t-155.5 361.5q0 216 155 360t392 144q235 0 390 -144t155 -360q0 -217 -155.5 -361.5t-389.5 -144.5zM608 293q66 0 110 48.5t44 125.5t-42.5 124.5t-111.5 47.5t-112 -47.5t-43 -124.5t44 -125.5
t111 -48.5z" />
    <glyph glyph-name="ocircumflex" unicode="&#xf4;" horiz-adv-x="1214" 
d="M752 1094l-144 202l-145 -202h-252l-16 20l247 356h330l248 -356l-16 -20h-252zM608 -39q-236 0 -391.5 144.5t-155.5 361.5q0 216 155 360t392 144q235 0 390 -144t155 -360q0 -217 -155.5 -361.5t-389.5 -144.5zM608 293q66 0 110 48.5t44 125.5t-42.5 124.5
t-111.5 47.5t-112 -47.5t-43 -124.5t44 -125.5t111 -48.5z" />
    <glyph glyph-name="otilde" unicode="&#xf5;" horiz-adv-x="1214" 
d="M758 1100q92 0 156 79t71 205h-158l-16 -12q-16 -67 -72 -67q-42 0 -131 39.5t-151 39.5q-92 0 -156.5 -80t-71.5 -204h158l16 12q17 68 72 68q37 0 82.5 -20t97 -40t103.5 -20zM608 -39q-236 0 -391.5 144.5t-155.5 361.5q0 216 155 360t392 144q235 0 390 -144
t155 -360q0 -217 -155.5 -361.5t-389.5 -144.5zM608 293q66 0 110 48.5t44 125.5t-42.5 124.5t-111.5 47.5t-112 -47.5t-43 -124.5t44 -125.5t111 -48.5z" />
    <glyph glyph-name="odieresis" unicode="&#xf6;" horiz-adv-x="1214" 
d="M221 1249q0 72 50 123t122 51t122 -50.5t50 -123.5q0 -72 -50 -122t-122 -50q-73 0 -122.5 50t-49.5 122zM651 1249q0 72 49 123t121 51t122 -50.5t50 -123.5q0 -72 -49.5 -122t-122.5 -50q-72 0 -121 50t-49 122zM608 -39q-236 0 -391.5 144.5t-155.5 361.5
q0 216 155 360t392 144q235 0 390 -144t155 -360q0 -217 -155.5 -361.5t-389.5 -144.5zM608 293q66 0 110 48.5t44 125.5t-42.5 124.5t-111.5 47.5t-112 -47.5t-43 -124.5t44 -125.5t111 -48.5z" />
    <glyph glyph-name="divide" unicode="&#xf7;" horiz-adv-x="1433" 
d="M717 846q-76 0 -125 50t-49 122q0 71 49.5 119.5t124.5 48.5t124.5 -48.5t49.5 -119.5q0 -72 -49 -122t-125 -50zM1257 494h-1081v258h1081v-258zM717 59q-76 0 -125 50t-49 122q0 71 49.5 119.5t124.5 48.5t124.5 -48.5t49.5 -119.5q0 -72 -49 -122t-125 -50z" />
    <glyph glyph-name="oslash" unicode="&#xf8;" horiz-adv-x="1214" 
d="M1042 895l-51 -61q76 -70 119 -165t43 -202q0 -217 -155.5 -361.5t-389.5 -144.5q-161 0 -293 74l-53 -66l-90 66l53 63q-78 69 -121 163.5t-43 205.5q0 216 155 360t392 144q162 0 293 -72l55 64zM451 467q0 -45 18 -80l207 244q-27 18 -68 18q-70 0 -113.5 -51
t-43.5 -131zM610 283q65 0 110.5 52.5t45.5 131.5q0 37 -18 78l-205 -242q29 -20 67 -20z" />
    <glyph glyph-name="ugrave" unicode="&#xf9;" horiz-adv-x="1226" 
d="M651 1470l211 -376h-291l-309 358l12 18h377zM1120 932v-932h-391v141q-120 -180 -313 -180q-143 0 -226.5 98.5t-83.5 280.5v592h404v-496q0 -78 21 -109.5t65 -31.5q54 0 87.5 51t33.5 146v440h403z" />
    <glyph glyph-name="uacute" unicode="&#xfa;" horiz-adv-x="1226" 
d="M702 1094h-292l211 376h376l13 -18zM1120 932v-932h-391v141q-120 -180 -313 -180q-143 0 -226.5 98.5t-83.5 280.5v592h404v-496q0 -78 21 -109.5t65 -31.5q54 0 87.5 51t33.5 146v440h403z" />
    <glyph glyph-name="ucircumflex" unicode="&#xfb;" horiz-adv-x="1226" 
d="M758 1094l-144 202l-145 -202h-252l-16 20l248 356h329l248 -356l-16 -20h-252zM1120 932v-932h-391v141q-120 -180 -313 -180q-143 0 -226.5 98.5t-83.5 280.5v592h404v-496q0 -78 21 -109.5t65 -31.5q54 0 87.5 51t33.5 146v440h403z" />
    <glyph glyph-name="udieresis" unicode="&#xfc;" horiz-adv-x="1226" 
d="M227 1249q0 72 50 123t122 51t122 -50.5t50 -123.5q0 -72 -50 -122t-122 -50q-73 0 -122.5 50t-49.5 122zM657 1249q0 72 49 123t121 51t122 -50.5t50 -123.5q0 -72 -49.5 -122t-122.5 -50q-72 0 -121 50t-49 122zM1120 932v-932h-391v141q-120 -180 -313 -180
q-143 0 -226.5 98.5t-83.5 280.5v592h404v-496q0 -78 21 -109.5t65 -31.5q54 0 87.5 51t33.5 146v440h403z" />
    <glyph glyph-name="yacute" unicode="&#xfd;" horiz-adv-x="1210" 
d="M711 1094h-293l211 376h377l12 -18zM600 -446h-430l233 497l-389 881h473l119 -555h4l148 555h448z" />
    <glyph glyph-name="thorn" unicode="&#xfe;" horiz-adv-x="1259" 
d="M106 -446v1947h404v-414q0 -192 -8 -296q59 88 142 134t179 46q165 0 270 -133.5t105 -364.5q0 -232 -110.5 -372t-284.5 -140q-93 0 -172.5 45t-132.5 131q12 -148 12 -289v-294h-404zM659 289q67 0 108.5 47.5t41.5 128.5q0 82 -42 131t-110 49q-69 0 -112 -50
t-43 -130t44 -128t113 -48z" />
    <glyph glyph-name="ydieresis" unicode="&#xff;" horiz-adv-x="1210" 
d="M236 1249q0 72 50 123t122 51t122 -50.5t50 -123.5q0 -72 -50 -122t-122 -50q-73 0 -122.5 50t-49.5 122zM666 1249q0 72 49 123t121 51t122 -50.5t50 -123.5q0 -72 -49.5 -122t-122.5 -50q-72 0 -121 50t-49 122zM600 -446h-430l233 497l-389 881h473l119 -555h4
l148 555h448z" />
    <glyph glyph-name="Amacron" unicode="&#x100;" horiz-adv-x="1554" 
d="M432 1821h694v-199h-694v199zM1565 0h-492l-67 221h-457l-66 -221h-493l542 1450h500zM700 741l-61 -209h274l-63 209q-51 183 -70 334h-10q-22 -176 -70 -334z" />
    <glyph glyph-name="amacron" unicode="&#x101;" horiz-adv-x="1122" 
d="M215 1366h694v-213h-694v213zM1065 219l18 -8v-213q-97 -33 -200 -33q-192 0 -240 121q-122 -125 -326 -125q-132 0 -203 59t-71 160q0 89 49.5 150.5t171.5 109t332 80.5v39q0 103 -94 103q-100 0 -197 -109l-18 -2l-217 154q73 121 205.5 193.5t299.5 72.5
q420 0 420 -393v-316q0 -32 6.5 -42.5t24.5 -10.5q16 0 39 10zM408 240q0 -32 19.5 -51t53.5 -19q58 0 115 51v154q-103 -22 -145.5 -54.5t-42.5 -80.5z" />
    <glyph glyph-name="Abreve" unicode="&#x102;" horiz-adv-x="1554" 
d="M778 1554q-159 0 -252 72t-106 209l20 18h185q8 -44 47.5 -69t105.5 -25t106 25t46 69h186l21 -18q-13 -137 -106.5 -209t-252.5 -72zM1565 0h-492l-67 221h-457l-66 -221h-493l542 1450h500zM700 741l-61 -209h274l-63 209q-51 183 -70 334h-10q-22 -176 -70 -334z" />
    <glyph glyph-name="abreve" unicode="&#x103;" horiz-adv-x="1122" 
d="M561 1083q-161 0 -253 73.5t-105 217.5l20 19h185q15 -103 153 -103q140 0 152 103h186l21 -19q-13 -143 -106 -217t-253 -74zM1065 219l18 -8v-213q-97 -33 -200 -33q-192 0 -240 121q-122 -125 -326 -125q-132 0 -203 59t-71 160q0 89 49.5 150.5t171.5 109t332 80.5
v39q0 103 -94 103q-100 0 -197 -109l-18 -2l-217 154q73 121 205.5 193.5t299.5 72.5q420 0 420 -393v-316q0 -32 6.5 -42.5t24.5 -10.5q16 0 39 10zM408 240q0 -32 19.5 -51t53.5 -19q58 0 115 51v154q-103 -22 -145.5 -54.5t-42.5 -80.5z" />
    <glyph glyph-name="Aogonek" unicode="&#x104;" horiz-adv-x="1554" 
d="M1432 -246l16 2l57 -174q-109 -67 -252 -67q-115 0 -181 48t-66 132q0 171 221 305h-154l-67 221h-457l-66 -221h-493l542 1450h500l533 -1450h-146q-153 -124 -153 -227q0 -58 61 -58q44 0 105 39zM700 741l-61 -209h274l-63 209q-51 183 -70 334h-10q-22 -176 -70 -334
z" />
    <glyph glyph-name="aogonek" unicode="&#x105;" horiz-adv-x="1122" 
d="M928 -33q-115 -106 -115 -194q0 -58 61 -58q44 0 105 39l16 2l58 -174q-109 -67 -252 -67q-115 0 -181.5 48t-66.5 132q0 163 199 291q-82 28 -109 100q-122 -125 -326 -125q-132 0 -203 59t-71 160q0 89 49.5 150.5t171.5 109t332 80.5v39q0 103 -94 103
q-100 0 -197 -109l-18 -2l-217 154q73 121 205.5 193.5t299.5 72.5q420 0 420 -393v-316q0 -32 6.5 -42.5t24.5 -10.5q16 0 39 10l18 -8v-213q-79 -26 -155 -31zM408 240q0 -32 19.5 -51t53.5 -19q58 0 115 51v154q-103 -22 -145.5 -54.5t-42.5 -80.5z" />
    <glyph glyph-name="Cacute" unicode="&#x106;" horiz-adv-x="1574" 
d="M885 1565h-291l205 274h344l12 -18zM854 -39q-161 0 -303 56t-245.5 155.5t-163.5 242.5t-60 310q0 168 60.5 312t165 242.5t246.5 154t302 55.5q210 0 380 -91t267 -268l-321 -192l-39 6q-97 150 -271 150q-140 0 -235.5 -102t-95.5 -267q0 -163 97 -266t241 -103
q169 0 266 150l39 6l321 -195q-100 -176 -270 -266t-381 -90z" />
    <glyph glyph-name="cacute" unicode="&#x107;" horiz-adv-x="1126" 
d="M680 1094h-293l211 376h377l12 -18zM582 -39q-236 0 -378.5 141t-142.5 361q0 219 146.5 363.5t380.5 144.5q331 0 481 -262l-301 -162l-20 2q-32 55 -67.5 77.5t-80.5 22.5q-65 0 -107 -48.5t-42 -135.5q0 -81 41.5 -130.5t109.5 -49.5q47 0 83 22.5t67 77.5l20 2
l299 -164q-153 -262 -489 -262z" />
    <glyph glyph-name="Ccircumflex" unicode="&#x108;" horiz-adv-x="1574" 
d="M999 1565l-143 135l-145 -135h-246l-16 20l249 254h314l252 -254l-19 -20h-246zM854 -39q-161 0 -303 56t-245.5 155.5t-163.5 242.5t-60 310q0 168 60.5 312t165 242.5t246.5 154t302 55.5q210 0 380 -91t267 -268l-321 -192l-39 6q-97 150 -271 150q-140 0 -235.5 -102
t-95.5 -267q0 -163 97 -266t241 -103q169 0 266 150l39 6l321 -195q-100 -176 -270 -266t-381 -90z" />
    <glyph glyph-name="ccircumflex" unicode="&#x109;" horiz-adv-x="1126" 
d="M735 1094l-143 202l-146 -202h-251l-17 20l248 356h330l248 -356l-17 -20h-252zM582 -39q-236 0 -378.5 141t-142.5 361q0 219 146.5 363.5t380.5 144.5q331 0 481 -262l-301 -162l-20 2q-32 55 -67.5 77.5t-80.5 22.5q-65 0 -107 -48.5t-42 -135.5q0 -81 41.5 -130.5
t109.5 -49.5q47 0 83 22.5t67 77.5l20 2l299 -164q-153 -262 -489 -262z" />
    <glyph glyph-name="Cdotaccent" unicode="&#x10a;" horiz-adv-x="1574" 
d="M854 1565q-101 0 -165 56.5t-64 147.5t63 146t166 55t165 -55t62 -146t-63 -147.5t-164 -56.5zM854 -39q-161 0 -303 56t-245.5 155.5t-163.5 242.5t-60 310q0 168 60.5 312t165 242.5t246.5 154t302 55.5q210 0 380 -91t267 -268l-321 -192l-39 6q-97 150 -271 150
q-140 0 -235.5 -102t-95.5 -267q0 -163 97 -266t241 -103q169 0 266 150l39 6l321 -195q-100 -176 -270 -266t-381 -90z" />
    <glyph glyph-name="cdotaccent" unicode="&#x10b;" horiz-adv-x="1126" 
d="M592 1057q-101 0 -165.5 57t-64.5 148q0 89 63.5 144.5t166.5 55.5t165 -55.5t62 -146.5q0 -90 -63 -146.5t-164 -56.5zM582 -39q-236 0 -378.5 141t-142.5 361q0 219 146.5 363.5t380.5 144.5q331 0 481 -262l-301 -162l-20 2q-32 55 -67.5 77.5t-80.5 22.5
q-65 0 -107 -48.5t-42 -135.5q0 -81 41.5 -130.5t109.5 -49.5q47 0 83 22.5t67 77.5l20 2l299 -164q-153 -262 -489 -262z" />
    <glyph glyph-name="Ccaron" unicode="&#x10c;" horiz-adv-x="1574" 
d="M1012 1565h-314l-247 254l16 20h246l143 -135l141 135h246l17 -20zM854 -39q-161 0 -303 56t-245.5 155.5t-163.5 242.5t-60 310q0 168 60.5 312t165 242.5t246.5 154t302 55.5q210 0 380 -91t267 -268l-321 -192l-39 6q-97 150 -271 150q-140 0 -235.5 -102t-95.5 -267
q0 -163 97 -266t241 -103q169 0 266 150l39 6l321 -195q-100 -176 -270 -266t-381 -90z" />
    <glyph glyph-name="ccaron" unicode="&#x10d;" horiz-adv-x="1126" 
d="M446 1470l146 -202l143 202h252l17 -20l-248 -356h-330l-248 356l17 20h251zM582 -39q-236 0 -378.5 141t-142.5 361q0 219 146.5 363.5t380.5 144.5q331 0 481 -262l-301 -162l-20 2q-32 55 -67.5 77.5t-80.5 22.5q-65 0 -107 -48.5t-42 -135.5q0 -81 41.5 -130.5
t109.5 -49.5q47 0 83 22.5t67 77.5l20 2l299 -164q-153 -262 -489 -262z" />
    <glyph glyph-name="Dcaron" unicode="&#x10e;" horiz-adv-x="1544" 
d="M850 1565h-313l-248 254l16 20h246l143 -135l142 135h245l17 -20zM637 0h-504v1450h506q389 0 609 -193.5t220 -527.5q0 -338 -223.5 -533.5t-607.5 -195.5zM551 1079v-708h74q208 0 309.5 85.5t101.5 272.5q0 181 -101 265.5t-306 84.5h-78z" />
    <glyph glyph-name="dcaron" unicode="&#x10f;" horiz-adv-x="1675" 
d="M438 -39q-169 0 -273 136t-104 370q0 230 112.5 367t281.5 137q90 0 169.5 -46t135.5 -134q-8 78 -8 296v414h403v-1501h-391v139q-53 -86 -139.5 -132t-186.5 -46zM1659 1395l-199 -398l-221 80l137 396l27 16zM598 289q70 0 115 48t45 128t-42.5 130t-111.5 50
q-67 0 -109 -49t-42 -133q0 -81 40 -127.5t105 -46.5z" />
    <glyph glyph-name="Dcroat" unicode="&#x110;" horiz-adv-x="1544" 
d="M133 1450h506q389 0 609 -193.5t220 -527.5q0 -338 -223.5 -533.5t-607.5 -195.5h-504v590h-94v270h94v590zM551 371h74q208 0 309.5 85.5t101.5 272.5q0 181 -101 265.5t-306 84.5h-78v-219h260v-270h-260v-219z" />
    <glyph glyph-name="dcroat" unicode="&#x111;" horiz-adv-x="1259" 
d="M1155 1501v-149h100v-265h-100v-1087h-391v139q-53 -86 -139.5 -132t-186.5 -46q-169 0 -273 136t-104 370q0 230 112.5 367t281.5 137q90 0 169.5 -46t135.5 -134q-8 78 -8 296h-248v265h248v149h403zM598 289q70 0 115 48t45 128t-42.5 130t-111.5 50q-67 0 -109 -49
t-42 -133q0 -81 40 -127.5t105 -46.5z" />
    <glyph glyph-name="Emacron" unicode="&#x112;" horiz-adv-x="1202" 
d="M952 1622h-694v199h694v-199zM133 0v1450h930l39 -352h-551v-197h483v-334h-483v-215h551l-39 -352h-930z" />
    <glyph glyph-name="emacron" unicode="&#x113;" horiz-adv-x="1204" 
d="M256 1366h694v-213h-694v213zM1137 406h-670v-19q0 -68 40 -108.5t109 -40.5q43 0 79.5 24t58.5 60l20 8l326 -97q-58 -131 -183.5 -201.5t-310.5 -70.5q-250 0 -397.5 142t-147.5 362q0 218 151.5 362t391.5 144q235 0 385 -144t150 -374q0 -22 -2 -47zM610 713
q-55 0 -94.5 -39t-46.5 -107h276q-3 69 -39 107.5t-96 38.5z" />
    <glyph glyph-name="Edotaccent" unicode="&#x116;" horiz-adv-x="1202" 
d="M604 1565q-101 0 -165 56.5t-64 147.5t63 146t166 55t165 -55t62 -146t-63 -147.5t-164 -56.5zM133 0v1450h930l39 -352h-551v-197h483v-334h-483v-215h551l-39 -352h-930z" />
    <glyph glyph-name="edotaccent" unicode="&#x117;" horiz-adv-x="1204" 
d="M602 1057q-101 0 -165 57t-64 148q0 89 63 144.5t166 55.5t165 -55.5t62 -146.5q0 -90 -63 -146.5t-164 -56.5zM1137 406h-670v-19q0 -68 40 -108.5t109 -40.5q43 0 79.5 24t58.5 60l20 8l326 -97q-58 -131 -183.5 -201.5t-310.5 -70.5q-250 0 -397.5 142t-147.5 362
q0 218 151.5 362t391.5 144q235 0 385 -144t150 -374q0 -22 -2 -47zM610 713q-55 0 -94.5 -39t-46.5 -107h276q-3 69 -39 107.5t-96 38.5z" />
    <glyph glyph-name="Eogonek" unicode="&#x118;" horiz-adv-x="1202" 
d="M1034 -246l17 2l57 -174q-109 -67 -252 -67q-115 0 -181.5 48t-66.5 132q0 171 221 305h-696v1450h930l39 -352h-551v-197h483v-334h-483v-215h551l-39 -352h-41q-154 -124 -154 -227q0 -28 16.5 -43t45.5 -15q43 0 104 39z" />
    <glyph glyph-name="eogonek" unicode="&#x119;" horiz-adv-x="1204" 
d="M731 -485q-45 0 -86 9t-79 28t-60.5 56.5t-22.5 88.5q0 77 50.5 147.5t142.5 126.5q-45 -10 -70 -10q-250 0 -397.5 142t-147.5 362q0 217 151.5 361.5t389.5 144.5q236 0 386.5 -144.5t150.5 -373.5q0 -22 -2 -47h-670v-19q0 -68 40 -108.5t109 -40.5q43 0 79.5 24
t58.5 60l20 8l326 -97q-55 -107 -156 -178q-201 -159 -201 -280q0 -26 18 -43t46 -17q41 0 102 39l17 2l57 -174q-107 -67 -252 -67zM469 567h276q-3 68 -39.5 106t-97.5 38q-55 0 -93.5 -38t-45.5 -106z" />
    <glyph glyph-name="Ecaron" unicode="&#x11a;" horiz-adv-x="1202" 
d="M762 1565h-313l-248 254l16 20h246l143 -135l142 135h245l17 -20zM133 0v1450h930l39 -352h-551v-197h483v-334h-483v-215h551l-39 -352h-930z" />
    <glyph glyph-name="ecaron" unicode="&#x11b;" horiz-adv-x="1204" 
d="M1014 1450l-248 -356h-330l-248 356l17 20h252l145 -202l143 202h252zM1137 406h-670v-19q0 -68 40 -108.5t109 -40.5q43 0 79.5 24t58.5 60l20 8l326 -97q-58 -131 -183.5 -201.5t-310.5 -70.5q-250 0 -397.5 142t-147.5 362q0 218 151.5 362t391.5 144q235 0 385 -144
t150 -374q0 -22 -2 -47zM610 713q-55 0 -94.5 -39t-46.5 -107h276q-3 69 -39 107.5t-96 38.5z" />
    <glyph glyph-name="Gbreve" unicode="&#x11e;" horiz-adv-x="1646" 
d="M858 1554q-159 0 -252 72t-106 209l20 18h185q8 -44 47.5 -69t105.5 -25t106 25t46 69h186l21 -18q-13 -137 -106.5 -209t-252.5 -72zM770 -39q-196 0 -352.5 94.5t-246 267.5t-89.5 394q0 171 60.5 317t165.5 245t247.5 154.5t304.5 55.5q219 0 390 -88.5t270 -263.5
l-326 -195l-37 6q-51 76 -116.5 111t-157.5 35q-148 0 -245 -103t-97 -274q0 -168 91 -273.5t238 -105.5q239 0 285 168v4h-258v307h647v-817h-375v37q0 69 35 158l-4 2q-67 -122 -172.5 -179t-257.5 -57z" />
    <glyph glyph-name="gbreve" unicode="&#x11f;" horiz-adv-x="1071" 
d="M537 1083q-161 0 -253.5 73.5t-105.5 217.5l21 19h184q15 -103 154 -103t151 103h186l21 -19q-13 -143 -105.5 -217t-252.5 -74zM508 -471q-255 0 -388.5 76t-133.5 221q0 147 188 211q-59 50 -59 119q0 57 37.5 98.5t107.5 60.5q-90 34 -145.5 117.5t-55.5 188.5
q0 153 125.5 251.5t319.5 98.5q111 0 203 -39h315l10 -268l-20 -17l-213 27l-2 -12l139 -44q7 -42 2 -73q-21 -109 -119 -181.5t-254 -82.5q-76 -4 -101.5 -13.5t-25.5 -27.5t35 -28t143 -26q217 -29 313.5 -108.5t96.5 -222.5q0 -160 -132 -243t-386 -83zM502 514
q53 0 84.5 29.5t31.5 77.5q0 47 -31.5 76.5t-84.5 29.5q-52 0 -83.5 -30t-31.5 -76q0 -48 31.5 -77.5t83.5 -29.5zM512 -223q92 0 131 14.5t39 48.5q0 29 -33 47.5t-114 30.5q-78 10 -107 16q-96 -24 -96 -81q0 -76 180 -76z" />
    <glyph glyph-name="Gdotaccent" unicode="&#x120;" horiz-adv-x="1646" 
d="M858 1565q-101 0 -165 56.5t-64 147.5t63 146t166 55t165 -55t62 -146t-63 -147.5t-164 -56.5zM770 -39q-196 0 -352.5 94.5t-246 267.5t-89.5 394q0 171 60.5 317t165.5 245t247.5 154.5t304.5 55.5q219 0 390 -88.5t270 -263.5l-326 -195l-37 6q-51 76 -116.5 111
t-157.5 35q-148 0 -245 -103t-97 -274q0 -168 91 -273.5t238 -105.5q239 0 285 168v4h-258v307h647v-817h-375v37q0 69 35 158l-4 2q-67 -122 -172.5 -179t-257.5 -57z" />
    <glyph glyph-name="gdotaccent" unicode="&#x121;" horiz-adv-x="1071" 
d="M535 1057q-101 0 -165.5 57t-64.5 148q0 89 63.5 144.5t166.5 55.5t165 -55.5t62 -146.5q0 -90 -63 -146.5t-164 -56.5zM508 -471q-255 0 -388.5 76t-133.5 221q0 147 188 211q-59 50 -59 119q0 57 37.5 98.5t107.5 60.5q-90 34 -145.5 117.5t-55.5 188.5
q0 153 125.5 251.5t319.5 98.5q111 0 203 -39h315l10 -268l-20 -17l-213 27l-2 -12l139 -44q7 -42 2 -73q-21 -109 -119 -181.5t-254 -82.5q-76 -4 -101.5 -13.5t-25.5 -27.5t35 -28t143 -26q217 -29 313.5 -108.5t96.5 -222.5q0 -160 -132 -243t-386 -83zM502 514
q53 0 84.5 29.5t31.5 77.5q0 47 -31.5 76.5t-84.5 29.5q-52 0 -83.5 -30t-31.5 -76q0 -48 31.5 -77.5t83.5 -29.5zM512 -223q92 0 131 14.5t39 48.5q0 29 -33 47.5t-114 30.5q-78 10 -107 16q-96 -24 -96 -81q0 -76 180 -76z" />
    <glyph glyph-name="uni0122" unicode="&#x122;" horiz-adv-x="1646" 
d="M770 -39q-196 0 -352.5 94.5t-246 267.5t-89.5 394q0 171 60.5 317t165.5 245t247.5 154.5t304.5 55.5q219 0 390 -88.5t270 -263.5l-326 -195l-37 6q-51 76 -116.5 111t-157.5 35q-148 0 -245 -103t-97 -274q0 -168 91 -273.5t238 -105.5q239 0 285 168v4h-258v307h647
v-817h-375v37q0 69 35 158l-4 2q-67 -122 -172.5 -179t-257.5 -57zM1055 -207l-219 -424l-246 96l129 429l26 16z" />
    <glyph glyph-name="uni0123" unicode="&#x123;" horiz-adv-x="1071" 
d="M303 1217l219 423l244 -96l-129 -426l-27 -16zM508 -471q-255 0 -388.5 76t-133.5 221q0 147 188 211q-59 50 -59 119q0 57 37.5 98.5t107.5 60.5q-90 34 -145.5 117.5t-55.5 188.5q0 153 125.5 251.5t319.5 98.5q111 0 203 -39h315l10 -268l-20 -17l-213 27l-2 -12
l139 -44q7 -42 2 -73q-21 -109 -119 -181.5t-254 -82.5q-76 -4 -101.5 -13.5t-25.5 -27.5t35 -28t143 -26q217 -29 313.5 -108.5t96.5 -222.5q0 -160 -132 -243t-386 -83zM502 514q53 0 84.5 29.5t31.5 77.5q0 47 -31.5 76.5t-84.5 29.5q-52 0 -83.5 -30t-31.5 -76
q0 -48 31.5 -77.5t83.5 -29.5zM512 -223q92 0 131 14.5t39 48.5q0 29 -33 47.5t-114 30.5q-78 10 -107 16q-96 -24 -96 -81q0 -76 180 -76z" />
    <glyph glyph-name="Hbar" unicode="&#x126;" horiz-adv-x="1548" 
d="M1415 1450v-147h88v-216h-88v-1087h-418v547h-446v-547h-418v1087h-88v216h88v147h418v-147h446v147h418zM551 913h446v174h-446v-174z" />
    <glyph glyph-name="hbar" unicode="&#x127;" horiz-adv-x="1236" 
d="M809 971q151 0 236 -96t85 -273v-602h-401v483q0 87 -23 121.5t-73 34.5q-55 0 -89 -51.5t-34 -141.5v-446h-404v1087h-102v265h102v149h404v-149h248v-265h-248v-4q0 -182 -12 -292q120 180 311 180z" />
    <glyph glyph-name="Itilde" unicode="&#x128;" horiz-adv-x="686" 
d="M494 1569q92 0 156 79t71 205h-158l-16 -12q-16 -67 -72 -67q-42 0 -131 39.5t-151 39.5q-92 0 -156.5 -80t-71.5 -204h158l16 12q17 68 72 68q37 0 82.5 -20t97 -40t103.5 -20zM133 0v1450h418v-1450h-418z" />
    <glyph glyph-name="itilde" unicode="&#x129;" horiz-adv-x="616" 
d="M459 1100q92 0 156 79t71 205h-158l-16 -12q-16 -67 -72 -67q-42 0 -131 39.5t-151 39.5q-92 0 -156.5 -80t-71.5 -204h158l16 12q17 68 72 68q37 0 82.5 -20t97 -40t103.5 -20zM510 0h-404v932h404v-932z" />
    <glyph glyph-name="Imacron" unicode="&#x12a;" horiz-adv-x="686" 
d="M690 1622h-694v199h694v-199zM133 0v1450h418v-1450h-418z" />
    <glyph glyph-name="imacron" unicode="&#x12b;" horiz-adv-x="616" 
d="M655 1153h-694v213h694v-213zM510 0h-404v932h404v-932z" />
    <glyph glyph-name="Ibreve" unicode="&#x12c;" horiz-adv-x="686" 
d="M344 1554q-159 0 -252 72t-106 209l20 18h184q8 -44 48 -69t106 -25t106 25t46 69h186l20 -18q-13 -137 -106 -209t-252 -72zM133 0v1450h418v-1450h-418z" />
    <glyph glyph-name="ibreve" unicode="&#x12d;" horiz-adv-x="616" 
d="M309 1083q-161 0 -253 73.5t-105 217.5l20 19h185q15 -103 153 -103q140 0 152 103h186l21 -19q-13 -143 -106 -217t-253 -74zM510 0h-404v932h404v-932z" />
    <glyph glyph-name="Iogonek" unicode="&#x12e;" horiz-adv-x="686" 
d="M506 -246l16 2l58 -174q-109 -67 -252 -67q-115 0 -181.5 48t-66.5 132q0 171 221 305h-168v1450h418v-1450h-57q-154 -124 -154 -227q0 -58 61 -58q44 0 105 39z" />
    <glyph glyph-name="iogonek" unicode="&#x12f;" horiz-adv-x="616" 
d="M309 1057q-101 0 -165 57t-64 148q0 89 63 144.5t166 55.5t165.5 -55.5t62.5 -146.5q0 -89 -63.5 -146t-164.5 -57zM479 -246l17 2l57 -174q-109 -67 -252 -67q-115 0 -181.5 48t-66.5 132q0 171 221 305h-168v932h404v-932h-43q-154 -124 -154 -227q0 -28 16.5 -43
t45.5 -15q43 0 104 39z" />
    <glyph glyph-name="Idotaccent" unicode="&#x130;" horiz-adv-x="686" 
d="M342 1565q-101 0 -165 56.5t-64 147.5t63 146t166 55t165 -55t62 -146t-63 -147.5t-164 -56.5zM133 0v1450h418v-1450h-418z" />
    <glyph glyph-name="dotlessi" unicode="&#x131;" horiz-adv-x="616" 
d="M510 0h-404v932h404v-932z" />
    <glyph glyph-name="IJ" unicode="&#x132;" horiz-adv-x="1826" 
d="M133 0v1450h418v-1450h-418zM1040 444l37 -10q25 -94 105 -94q53 0 79.5 43t26.5 145v922h418v-926q0 -278 -127.5 -420.5t-370.5 -142.5q-187 0 -325.5 98.5t-180.5 253.5z" />
    <glyph glyph-name="ij" unicode="&#x133;" horiz-adv-x="1234" 
d="M309 1075q-101 0 -165 57t-64 148t63 146t166 55q101 0 164.5 -56t63.5 -145q0 -91 -63.5 -148t-164.5 -57zM928 1075q-101 0 -165.5 57t-64.5 148q0 90 64 145.5t166 55.5t165.5 -56t63.5 -145q0 -91 -64 -148t-165 -57zM510 0h-404v932h404v-932zM702 -471
q-104 0 -202 31l37 307l16 8q40 -14 76 -14q54 0 75 33.5t21 130.5v907h403v-922q0 -250 -104.5 -365.5t-321.5 -115.5z" />
    <glyph glyph-name="uni0136" unicode="&#x136;" horiz-adv-x="1509" 
d="M1532 0h-500l-319 520l-162 -184v-336h-418v1450h418v-213q0 -166 -21 -420h5q100 160 204 287l279 346h502l-523 -604zM997 -207l-219 -424l-246 96l130 429l26 16z" />
    <glyph glyph-name="uni0137" unicode="&#x137;" horiz-adv-x="1234" 
d="M1241 0h-453l-206 305l-72 -72v-233h-404v1501h404v-362q0 -271 -25 -506q63 82 111 135l143 164h478l-371 -369zM850 -207l-219 -424l-246 96l129 429l27 16z" />
    <glyph glyph-name="kgreenlandic" unicode="&#x138;" horiz-adv-x="1234" 
d="M1241 0h-453l-206 305l-72 -72v-233h-404v932h404v-21q0 -124 -25 -278q63 82 111 135l143 164h478l-371 -369z" />
    <glyph glyph-name="Lacute" unicode="&#x139;" horiz-adv-x="1189" 
d="M373 1565h-291l205 274h344l12 -18zM133 0v1450h418v-1071h602l-47 -379h-973z" />
    <glyph glyph-name="lacute" unicode="&#x13a;" horiz-adv-x="616" 
d="M338 1565h-291l205 274h344l12 -18zM510 0h-404v1501h404v-1501z" />
    <glyph glyph-name="uni013B" unicode="&#x13b;" horiz-adv-x="1189" 
d="M133 0v1450h418v-1071h602l-47 -379h-973zM827 -207l-219 -424l-246 96l130 429l26 16z" />
    <glyph glyph-name="uni013C" unicode="&#x13c;" horiz-adv-x="616" 
d="M510 0h-404v1501h404v-1501zM541 -207l-219 -424l-246 96l129 429l26 16z" />
    <glyph glyph-name="Lcaron" unicode="&#x13d;" horiz-adv-x="1198" 
d="M1083 1395l-198 -398l-221 80l137 396l26 16zM133 0v1450h418v-1071h602l-47 -379h-973z" />
    <glyph glyph-name="lcaron" unicode="&#x13e;" horiz-adv-x="1030" 
d="M510 0h-404v1501h404v-1501zM1012 1395l-199 -398l-219 80l135 396l29 16z" />
    <glyph glyph-name="Ldot" unicode="&#x13f;" horiz-adv-x="1189" 
d="M133 0v1450h418v-1071h602l-47 -379h-973zM899 608q-73 0 -122.5 50t-49.5 124q0 72 49.5 122t122.5 50q72 0 122 -50t50 -122q0 -73 -50 -123.5t-122 -50.5z" />
    <glyph glyph-name="ldot" unicode="&#x140;" horiz-adv-x="913" 
d="M510 0h-404v1501h404v-1501zM764 623q-73 0 -122.5 50t-49.5 124q0 73 49.5 123.5t122.5 50.5q72 0 123 -51t51 -123q0 -73 -51 -123.5t-123 -50.5z" />
    <glyph glyph-name="Lslash" unicode="&#x141;" horiz-adv-x="1189" 
d="M551 741v-362h602l-47 -379h-973v508l-127 -70v254l127 70v688h418v-455l260 144l2 -252z" />
    <glyph glyph-name="lslash" unicode="&#x142;" horiz-adv-x="616" 
d="M510 1022l106 63v-249l-106 -64v-772h-404v532l-108 -65v252l108 63v719h404v-479z" />
    <glyph glyph-name="Nacute" unicode="&#x143;" horiz-adv-x="1630" 
d="M852 1565h-291l205 274h344l12 -18zM549 0h-416v1450h434l330 -467q128 -182 209 -319h4q-31 175 -31 360v426h418v-1456h-389l-371 495q-120 165 -217 320h-4q33 -183 33 -360v-449z" />
    <glyph glyph-name="nacute" unicode="&#x144;" horiz-adv-x="1239" 
d="M709 1094h-293l211 376h377l12 -18zM106 0v932h392v-141q120 180 311 180q151 0 237.5 -96.5t86.5 -272.5v-602h-404v485q0 86 -23 120t-73 34q-55 0 -89 -51.5t-34 -141.5v-446h-404z" />
    <glyph glyph-name="uni0145" unicode="&#x145;" horiz-adv-x="1630" 
d="M549 0h-416v1450h434l330 -467q128 -182 209 -319h4q-31 175 -31 360v426h418v-1456h-389l-371 495q-120 165 -217 320h-4q33 -183 33 -360v-449zM1049 -207l-220 -424l-245 96l129 429l26 16z" />
    <glyph glyph-name="uni0146" unicode="&#x146;" horiz-adv-x="1239" 
d="M106 0v932h392v-141q120 180 311 180q151 0 237.5 -96.5t86.5 -272.5v-602h-404v485q0 86 -23 120t-73 34q-55 0 -89 -51.5t-34 -141.5v-446h-404zM850 -207l-219 -424l-246 96l129 429l27 16z" />
    <glyph glyph-name="Ncaron" unicode="&#x147;" horiz-adv-x="1630" 
d="M979 1565h-313l-248 254l16 20h246l143 -135l142 135h245l17 -20zM549 0h-416v1450h434l330 -467q128 -182 209 -319h4q-31 175 -31 360v426h418v-1456h-389l-371 495q-120 165 -217 320h-4q33 -183 33 -360v-449z" />
    <glyph glyph-name="ncaron" unicode="&#x148;" horiz-adv-x="1239" 
d="M475 1470l146 -202l143 202h252l16 -20l-248 -356h-329l-248 356l16 20h252zM106 0v932h392v-141q120 180 311 180q151 0 237.5 -96.5t86.5 -272.5v-602h-404v485q0 86 -23 120t-73 34q-55 0 -89 -51.5t-34 -141.5v-446h-404z" />
    <glyph glyph-name="Eng" unicode="&#x14a;" horiz-adv-x="1630" 
d="M1071 -471q-107 0 -205 31l39 309l17 8q40 -14 75 -14q46 0 68 25.5t22 86.5v48l-350 466q-120 165 -217 320h-4q33 -186 33 -360v-449h-416v1450h434l330 -467q128 -182 209 -319h4q-31 177 -31 360v426h418v-1440q0 -250 -105.5 -365.5t-320.5 -115.5z" />
    <glyph glyph-name="eng" unicode="&#x14b;" horiz-adv-x="1239" 
d="M809 971q151 0 237.5 -96.5t86.5 -272.5v-629q-9 -229 -114.5 -336.5t-311.5 -107.5q-107 0 -205 31l39 307l16 8q40 -14 76 -14q54 0 75 33.5t21 130.5v460q0 86 -23 120t-73 34q-55 0 -89 -51.5t-34 -141.5v-446h-404v932h392v-141q120 180 311 180z" />
    <glyph glyph-name="Omacron" unicode="&#x14c;" horiz-adv-x="1759" 
d="M1227 1622h-695v199h695v-199zM879 -39q-169 0 -317 58.5t-253.5 159.5t-166 243t-60.5 303q0 221 103.5 396t285.5 271.5t408 96.5q227 0 409 -96.5t285.5 -271.5t103.5 -396q0 -215 -103.5 -390t-286.5 -274.5t-408 -99.5zM879 350q151 0 252.5 106.5t101.5 268.5
q0 166 -101 271.5t-253 105.5t-253.5 -105.5t-101.5 -271.5q0 -162 102.5 -268.5t252.5 -106.5z" />
    <glyph glyph-name="omacron" unicode="&#x14d;" horiz-adv-x="1214" 
d="M954 1153h-694v213h694v-213zM608 -39q-236 0 -391.5 144.5t-155.5 361.5q0 216 155 360t392 144q235 0 390 -144t155 -360q0 -217 -155.5 -361.5t-389.5 -144.5zM608 293q66 0 110 48.5t44 125.5t-42.5 124.5t-111.5 47.5t-112 -47.5t-43 -124.5t44 -125.5t111 -48.5z
" />
    <glyph glyph-name="Obreve" unicode="&#x14e;" horiz-adv-x="1759" 
d="M881 1554q-159 0 -252.5 72t-106.5 209l21 18h184q8 -44 48 -69t106 -25t105.5 25t45.5 69h187l20 -18q-13 -137 -106 -209t-252 -72zM879 -39q-169 0 -317 58.5t-253.5 159.5t-166 243t-60.5 303q0 221 103.5 396t285.5 271.5t408 96.5q227 0 409 -96.5t285.5 -271.5
t103.5 -396q0 -215 -103.5 -390t-286.5 -274.5t-408 -99.5zM879 350q151 0 252.5 106.5t101.5 268.5q0 166 -101 271.5t-253 105.5t-253.5 -105.5t-101.5 -271.5q0 -162 102.5 -268.5t252.5 -106.5z" />
    <glyph glyph-name="obreve" unicode="&#x14f;" horiz-adv-x="1214" 
d="M608 1083q-161 0 -253 73.5t-105 217.5l20 19h185q15 -103 153 -103q140 0 152 103h186l21 -19q-13 -143 -106 -217t-253 -74zM608 -39q-236 0 -391.5 144.5t-155.5 361.5q0 216 155 360t392 144q235 0 390 -144t155 -360q0 -217 -155.5 -361.5t-389.5 -144.5zM608 293
q66 0 110 48.5t44 125.5t-42.5 124.5t-111.5 47.5t-112 -47.5t-43 -124.5t44 -125.5t111 -48.5z" />
    <glyph glyph-name="Ohungarumlaut" unicode="&#x150;" horiz-adv-x="1759" 
d="M754 1565h-293l203 274h346l10 -18zM1235 1565h-291l203 274h346l10 -18zM879 -39q-169 0 -317 58.5t-253.5 159.5t-166 243t-60.5 303q0 221 103.5 396t285.5 271.5t408 96.5q227 0 409 -96.5t285.5 -271.5t103.5 -396q0 -215 -103.5 -390t-286.5 -274.5t-408 -99.5z
M879 350q151 0 252.5 106.5t101.5 268.5q0 166 -101 271.5t-253 105.5t-253.5 -105.5t-101.5 -271.5q0 -162 102.5 -268.5t252.5 -106.5z" />
    <glyph glyph-name="ohungarumlaut" unicode="&#x151;" horiz-adv-x="1214" 
d="M520 1094h-293l228 376h346l10 -18zM989 1094h-293l228 376h346l10 -18zM608 -39q-236 0 -391.5 144.5t-155.5 361.5q0 216 155 360t392 144q235 0 390 -144t155 -360q0 -217 -155.5 -361.5t-389.5 -144.5zM608 293q66 0 110 48.5t44 125.5t-42.5 124.5t-111.5 47.5
t-112 -47.5t-43 -124.5t44 -125.5t111 -48.5z" />
    <glyph glyph-name="OE" unicode="&#x152;" horiz-adv-x="2138" 
d="M1970 567h-483v-215h551l-39 -352h-856q-128 -39 -264 -39q-169 0 -317 58.5t-253.5 159.5t-166 243t-60.5 303q0 221 103.5 396t285.5 271.5t408 96.5q142 0 266 -39h854l39 -352h-551v-197h483v-334zM524 725q0 -162 102.5 -268.5t252.5 -106.5q107 0 190 58v641
q-85 53 -190 53q-152 0 -253.5 -105.5t-101.5 -271.5z" />
    <glyph glyph-name="oe" unicode="&#x153;" horiz-adv-x="1890" 
d="M606 -39q-234 0 -389.5 144.5t-155.5 361.5q0 216 155 360t390 144q206 0 340 -125h4q140 125 342 125q233 0 382 -144.5t149 -373.5q0 -22 -2 -47h-668v-19q0 -68 40 -108.5t110 -40.5q43 0 78 23.5t57 60.5l20 8l328 -97q-59 -131 -184 -201.5t-310 -70.5
q-216 0 -348 123h-4q-135 -123 -334 -123zM1153 567h279q-5 68 -41.5 107t-96.5 39q-55 0 -93.5 -39t-47.5 -107zM606 293q66 0 110 48.5t44 125.5t-42.5 124.5t-111.5 47.5t-111 -47.5t-42 -124.5t44 -125.5t109 -48.5z" />
    <glyph glyph-name="Racute" unicode="&#x154;" horiz-adv-x="1394" 
d="M983 1839l12 -18l-270 -256h-291l205 274h344zM1034 573l377 -536l-14 -37h-443l-327 504h-68v-504h-426v1450h559q580 0 580 -485q0 -139 -61 -238.5t-177 -153.5zM678 1116h-119v-301h119q190 0 190 150q0 151 -190 151z" />
    <glyph glyph-name="racute" unicode="&#x155;" horiz-adv-x="1034" 
d="M606 1094h-293l211 376h377l12 -18zM510 0h-404v932h383v-146q55 92 128.5 138.5t150.5 46.5q99 0 162 -56t94 -184l-326 -174l-18 8q-20 56 -68 56q-45 0 -73.5 -53t-28.5 -154v-414z" />
    <glyph glyph-name="uni0156" unicode="&#x156;" horiz-adv-x="1394" 
d="M1034 573l377 -536l-14 -37h-443l-327 504h-68v-504h-426v1450h559q580 0 580 -485q0 -139 -61 -238.5t-177 -153.5zM678 1116h-119v-301h119q190 0 190 150q0 151 -190 151zM465 -535l129 429l27 16l309 -117l-219 -424z" />
    <glyph glyph-name="uni0157" unicode="&#x157;" horiz-adv-x="1034" 
d="M510 0h-404v932h383v-146q55 92 128.5 138.5t150.5 46.5q99 0 162 -56t94 -184l-326 -174l-18 8q-20 56 -68 56q-45 0 -73.5 -53t-28.5 -154v-414zM508 -207l-219 -424l-246 96l129 429l27 16z" />
    <glyph glyph-name="Rcaron" unicode="&#x158;" horiz-adv-x="1394" 
d="M1100 1819l-248 -254h-313l-248 254l16 20h246l143 -135l142 135h245zM1034 573l377 -536l-14 -37h-443l-327 504h-68v-504h-426v1450h559q580 0 580 -485q0 -139 -61 -238.5t-177 -153.5zM678 1116h-119v-301h119q190 0 190 150q0 151 -190 151z" />
    <glyph glyph-name="rcaron" unicode="&#x159;" horiz-adv-x="1034" 
d="M373 1470l145 -202l144 202h251l17 -20l-248 -356h-330l-248 356l17 20h252zM510 0h-404v932h383v-146q55 92 128.5 138.5t150.5 46.5q99 0 162 -56t94 -184l-326 -174l-18 8q-20 56 -68 56q-45 0 -73.5 -53t-28.5 -154v-414z" />
    <glyph glyph-name="Sacute" unicode="&#x15a;" horiz-adv-x="1234" 
d="M649 1565h-291l205 274h344l13 -18zM596 -39q-183 0 -332 76t-246 223l285 199l39 -8q100 -140 252 -140q64 0 102.5 26t38.5 66q0 33 -20 57t-79.5 56.5t-182.5 83.5q-199 83 -283 188t-84 269q0 120 70.5 219t195 156t277.5 57q171 0 310 -69.5t232 -200.5l-282 -211
l-39 8q-87 121 -217 121q-57 0 -87 -22t-30 -58q0 -26 17 -44t75.5 -49t188.5 -87q199 -85 284.5 -187.5t85.5 -243.5q0 -211 -160.5 -348t-410.5 -137z" />
    <glyph glyph-name="sacute" unicode="&#x15b;" horiz-adv-x="925" 
d="M553 1094h-293l211 376h377l12 -18zM444 -39q-148 0 -256.5 58.5t-169.5 170.5l203 132l19 -3q35 -49 80 -76.5t90 -27.5q37 0 58 13t21 36q0 24 -34 47t-123 56q-145 55 -207 126.5t-62 178.5q0 135 109 217t291 82q142 0 252 -58t153 -155l-200 -127l-19 2
q-24 39 -61 62.5t-78 23.5q-68 0 -68 -47q0 -25 28.5 -44.5t131.5 -58.5q142 -58 203 -129.5t61 -177.5q0 -136 -115 -218.5t-307 -82.5z" />
    <glyph glyph-name="Scedilla" unicode="&#x15e;" horiz-adv-x="1234" 
d="M797 877q199 -85 284.5 -187.5t85.5 -243.5q0 -179 -117 -306.5t-311 -166.5l-73 -88q12 4 47 4q86 0 139 -45t53 -120q0 -97 -86 -154t-231 -57q-65 0 -137.5 13t-120.5 34l57 137l23 6q74 -33 155 -33q88 0 88 51q0 48 -84 48q-47 0 -84 -13l-67 60l108 147
q-159 14 -289 89t-219 208l285 199l39 -8q100 -140 252 -140q64 0 102.5 26t38.5 66q0 33 -20 57t-79.5 56.5t-182.5 83.5q-199 83 -283 188t-84 269q0 120 70.5 219t195 156t277.5 57q171 0 310 -69.5t232 -200.5l-282 -211l-39 8q-87 121 -217 121q-57 0 -87 -22t-30 -58
q0 -26 17 -44t75.5 -49t188.5 -87z" />
    <glyph glyph-name="scedilla" unicode="&#x15f;" horiz-adv-x="925" 
d="M602 569q142 -58 203 -129.5t61 -177.5q0 -108 -75 -184.5t-207 -104.5l-74 -88q12 4 47 4q87 0 140 -45t53 -120q0 -97 -86.5 -154t-231.5 -57q-65 0 -137.5 13t-120.5 34l57 137l23 6q74 -33 156 -33q88 0 88 51q0 48 -84 48q-47 0 -84 -13l-68 60l109 149
q-244 28 -353 225l203 132l19 -3q35 -49 80 -76.5t90 -27.5q37 0 58 13t21 36q0 24 -34 47t-123 56q-145 55 -207 126.5t-62 178.5q0 135 109 217t291 82q142 0 252 -58t153 -155l-200 -127l-19 2q-24 39 -61 62.5t-78 23.5q-68 0 -68 -47q0 -25 28.5 -44.5t131.5 -58.5z
" />
    <glyph glyph-name="Scaron" unicode="&#x160;" horiz-adv-x="1234" 
d="M774 1565h-313l-248 254l16 20h246l143 -135l142 135h246l16 -20zM596 -39q-183 0 -332 76t-246 223l285 199l39 -8q100 -140 252 -140q64 0 102.5 26t38.5 66q0 33 -20 57t-79.5 56.5t-182.5 83.5q-199 83 -283 188t-84 269q0 120 70.5 219t195 156t277.5 57
q171 0 310 -69.5t232 -200.5l-282 -211l-39 8q-87 121 -217 121q-57 0 -87 -22t-30 -58q0 -26 17 -44t75.5 -49t188.5 -87q199 -85 284.5 -187.5t85.5 -243.5q0 -211 -160.5 -348t-410.5 -137z" />
    <glyph glyph-name="scaron" unicode="&#x161;" horiz-adv-x="925" 
d="M319 1470l146 -202l143 202h252l17 -20l-248 -356h-330l-248 356l17 20h251zM444 -39q-148 0 -256.5 58.5t-169.5 170.5l203 132l19 -3q35 -49 80 -76.5t90 -27.5q37 0 58 13t21 36q0 24 -34 47t-123 56q-145 55 -207 126.5t-62 178.5q0 135 109 217t291 82
q142 0 252 -58t153 -155l-200 -127l-19 2q-24 39 -61 62.5t-78 23.5q-68 0 -68 -47q0 -25 28.5 -44.5t131.5 -58.5q142 -58 203 -129.5t61 -177.5q0 -136 -115 -218.5t-307 -82.5z" />
    <glyph glyph-name="uni0162" unicode="&#x162;" horiz-adv-x="1329" 
d="M625 -487q-63 0 -135.5 13.5t-122.5 33.5l57 137l22 6q74 -33 156 -33q41 0 64.5 14t23.5 37q0 48 -82 48q-45 0 -86 -13l-67 60l141 184h-143v1071h-433v379h1289v-379h-432v-1071h-84l-91 -115q12 4 48 4q86 0 139 -45t53 -120q0 -97 -86 -154t-231 -57z" />
    <glyph glyph-name="uni0163" unicode="&#x163;" horiz-adv-x="843" 
d="M565 -111q87 0 140 -45t53 -120q0 -97 -86.5 -154t-231.5 -57q-65 0 -137.5 13t-120.5 34l58 137l22 6q74 -33 156 -33q88 0 88 51q0 48 -84 48q-47 0 -84 -13l-68 60l125 170q-215 71 -215 331v316h-157v299h159v192l303 176h97v-368h227v-299h-227v-221q0 -67 27.5 -93
t92.5 -26q36 0 82 18l21 -10l10 -299q-42 -16 -108 -28.5t-127 -12.5l-62 -76q12 4 47 4z" />
    <glyph glyph-name="Tcaron" unicode="&#x164;" horiz-adv-x="1329" 
d="M821 1565h-313l-248 254l16 20h246l144 -135l141 135h246l16 -20zM453 0v1071h-433v379h1289v-379h-432v-1071h-424z" />
    <glyph glyph-name="tcaron" unicode="&#x165;" horiz-adv-x="1064" 
d="M1079 1395l-198 -398l-222 80l138 396l26 16zM784 311l21 -10l10 -299q-41 -16 -108.5 -28.5t-128.5 -12.5q-398 0 -398 356v316h-157v299h159v192l303 176h97v-368h227v-299h-227v-221q0 -67 27.5 -93t92.5 -26q36 0 82 18z" />
    <glyph glyph-name="Tbar" unicode="&#x166;" horiz-adv-x="1329" 
d="M1309 1450v-379h-432v-278h206v-265h-206v-528h-424v528h-207v265h207v278h-433v379h1289z" />
    <glyph glyph-name="tbar" unicode="&#x167;" horiz-adv-x="843" 
d="M784 311l21 -10l10 -299q-41 -16 -108.5 -28.5t-128.5 -12.5q-398 0 -398 356v117h-117v113h117v86h-157v299h159v192l303 176h97v-368h227v-299h-227v-86h174v-113h-174v-22q0 -67 27.5 -93t92.5 -26q36 0 82 18z" />
    <glyph glyph-name="Utilde" unicode="&#x168;" horiz-adv-x="1536" 
d="M920 1569q92 0 156 79t71 205h-158l-16 -12q-16 -67 -72 -67q-42 0 -131.5 39.5t-151.5 39.5q-92 0 -155.5 -79.5t-71.5 -204.5h158l16 12q17 68 72 68q37 0 82.5 -20t97 -40t103.5 -20zM768 -39q-331 0 -488 168.5t-157 505.5v815h418v-774q0 -180 52 -253t175 -73
t175 73t52 253v774h418v-813q0 -329 -161.5 -502.5t-483.5 -173.5z" />
    <glyph glyph-name="utilde" unicode="&#x169;" horiz-adv-x="1226" 
d="M764 1100q92 0 156 79t71 205h-157l-17 -12q-16 -67 -72 -67q-42 0 -131 39.5t-151 39.5q-92 0 -155.5 -79.5t-71.5 -204.5h157l17 12q17 68 71 68q37 0 82.5 -20t97 -40t103.5 -20zM1120 932v-932h-391v141q-120 -180 -313 -180q-143 0 -226.5 98.5t-83.5 280.5v592h404
v-496q0 -78 21 -109.5t65 -31.5q54 0 87.5 51t33.5 146v440h403z" />
    <glyph glyph-name="Umacron" unicode="&#x16a;" horiz-adv-x="1536" 
d="M1116 1622h-694v199h694v-199zM768 -39q-331 0 -488 168.5t-157 505.5v815h418v-774q0 -180 52 -253t175 -73t175 73t52 253v774h418v-813q0 -329 -161.5 -502.5t-483.5 -173.5z" />
    <glyph glyph-name="umacron" unicode="&#x16b;" horiz-adv-x="1226" 
d="M961 1153h-695v213h695v-213zM1120 932v-932h-391v141q-120 -180 -313 -180q-143 0 -226.5 98.5t-83.5 280.5v592h404v-496q0 -78 21 -109.5t65 -31.5q54 0 87.5 51t33.5 146v440h403z" />
    <glyph glyph-name="Ubreve" unicode="&#x16c;" horiz-adv-x="1536" 
d="M768 1554q-159 0 -252 72t-106 209l20 18h184q8 -44 48 -69t106 -25t106 25t46 69h186l20 -18q-13 -137 -106 -209t-252 -72zM768 -39q-331 0 -488 168.5t-157 505.5v815h418v-774q0 -180 52 -253t175 -73t175 73t52 253v774h418v-813q0 -329 -161.5 -502.5
t-483.5 -173.5z" />
    <glyph glyph-name="ubreve" unicode="&#x16d;" horiz-adv-x="1226" 
d="M614 1083q-161 0 -253 73.5t-105 217.5l20 19h185q15 -103 153 -103q140 0 152 103h186l21 -19q-13 -143 -106 -217t-253 -74zM1120 932v-932h-391v141q-120 -180 -313 -180q-143 0 -226.5 98.5t-83.5 280.5v592h404v-496q0 -78 21 -109.5t65 -31.5q54 0 87.5 51
t33.5 146v440h403z" />
    <glyph glyph-name="Uring" unicode="&#x16e;" horiz-adv-x="1536" 
d="M768 1538q-95 0 -162 65t-67 162t67 162.5t162 65.5q96 0 163.5 -65.5t67.5 -162.5t-67.5 -162t-163.5 -65zM768 1647q52 0 85.5 34t33.5 84t-33.5 84.5t-85.5 34.5q-50 0 -83.5 -34.5t-33.5 -84.5t33 -84t84 -34zM768 -39q-331 0 -488 168.5t-157 505.5v815h418v-774
q0 -180 52 -253t175 -73t175 73t52 253v774h418v-813q0 -329 -161.5 -502.5t-483.5 -173.5z" />
    <glyph glyph-name="uring" unicode="&#x16f;" horiz-adv-x="1226" 
d="M612 1067q-95 0 -162 65t-67 162t67 162.5t162 65.5q96 0 164 -65.5t68 -162.5t-68 -162t-164 -65zM612 1176q52 0 85.5 34t33.5 84t-33.5 84.5t-85.5 34.5q-50 0 -83 -34.5t-33 -84.5t33 -84t83 -34zM1120 932v-932h-391v141q-120 -180 -313 -180q-143 0 -226.5 98.5
t-83.5 280.5v592h404v-496q0 -78 21 -109.5t65 -31.5q54 0 87.5 51t33.5 146v440h403z" />
    <glyph glyph-name="Uhungarumlaut" unicode="&#x170;" horiz-adv-x="1536" 
d="M641 1565h-293l203 274h346l10 -18zM1122 1565h-291l203 274h346l11 -18zM768 -39q-331 0 -488 168.5t-157 505.5v815h418v-774q0 -180 52 -253t175 -73t175 73t52 253v774h418v-813q0 -329 -161.5 -502.5t-483.5 -173.5z" />
    <glyph glyph-name="uhungarumlaut" unicode="&#x171;" horiz-adv-x="1226" 
d="M526 1094h-293l228 376h346l10 -18zM995 1094h-293l228 376h346l10 -18zM1120 932v-932h-391v141q-120 -180 -313 -180q-143 0 -226.5 98.5t-83.5 280.5v592h404v-496q0 -78 21 -109.5t65 -31.5q54 0 87.5 51t33.5 146v440h403z" />
    <glyph glyph-name="Uogonek" unicode="&#x172;" horiz-adv-x="1536" 
d="M995 676v774h418v-813q0 -251 -94.5 -412.5t-282.5 -224.5q-153 -124 -153 -227q0 -58 61 -58q44 0 105 39l16 2l57 -174q-109 -67 -252 -67q-115 0 -181 48t-66 132q0 148 161 266h-16q-331 0 -488 168.5t-157 505.5v815h418v-774q0 -180 52 -253t175 -73t175 73t52 253
z" />
    <glyph glyph-name="uogonek" unicode="&#x173;" horiz-adv-x="1226" 
d="M1069 -246l16 2l58 -174q-109 -67 -252 -67q-115 0 -181.5 48t-66.5 132q0 171 221 305h-135v141q-120 -180 -313 -180q-143 0 -226.5 98.5t-83.5 280.5v592h404v-496q0 -78 21 -109.5t65 -31.5q54 0 87.5 51t33.5 146v440h403v-932h-63q-154 -124 -154 -227
q0 -28 16.5 -43t45.5 -15q43 0 104 39z" />
    <glyph glyph-name="Wcircumflex" unicode="&#x174;" horiz-adv-x="2084" 
d="M1186 1565l-144 135l-145 -135h-246l-16 20l250 254h313l252 -254l-18 -20h-246zM840 -6h-391l-435 1456h463l137 -659q34 -154 50 -297h4q33 188 61 299l164 655h299l164 -655q37 -144 61 -299h4q17 152 49 297l138 659h463l-433 -1456h-391l-143 553q-22 87 -60 250h-4
q-16 -76 -59 -250z" />
    <glyph glyph-name="wcircumflex" unicode="&#x175;" horiz-adv-x="1654" 
d="M971 1094l-144 202l-145 -202h-252l-16 20l248 356h329l248 -356l-16 -20h-252zM676 -6h-340l-320 938h418l117 -537h4l156 535h233l156 -535h4l117 537h417l-319 -938h-340l-150 479h-4z" />
    <glyph glyph-name="Ycircumflex" unicode="&#x176;" horiz-adv-x="1433" 
d="M860 1565l-143 135l-146 -135h-245l-17 20l250 254h313l252 -254l-18 -20h-246zM926 0h-418v569l-516 881h506l110 -264q60 -145 107 -285h4q65 181 106 283l111 266h506l-516 -881v-569z" />
    <glyph glyph-name="ycircumflex" unicode="&#x177;" horiz-adv-x="1210" 
d="M766 1094l-143 202l-146 -202h-252l-16 20l248 356h329l248 -356l-16 -20h-252zM600 -446h-430l233 497l-389 881h473l119 -555h4l148 555h448z" />
    <glyph glyph-name="Ydieresis" unicode="&#x178;" horiz-adv-x="1433" 
d="M324 1741q0 72 49 122t121 50t122 -50t50 -122q0 -74 -49.5 -124t-122.5 -50q-72 0 -121 50t-49 124zM770 1741q0 72 49 122t121 50t123 -50t51 -122q0 -73 -50 -123.5t-124 -50.5q-72 0 -121 50t-49 124zM926 0h-418v569l-516 881h506l110 -264q60 -145 107 -285h4
q65 181 106 283l111 266h506l-516 -881v-569z" />
    <glyph glyph-name="Zacute" unicode="&#x179;" horiz-adv-x="1482" 
d="M772 1565h-291l205 274h344l12 -18zM31 41l698 1036h-647v373h1366v-41l-707 -1030h668v-379h-1378v41z" />
    <glyph glyph-name="zacute" unicode="&#x17a;" horiz-adv-x="1081" 
d="M629 1094h-293l211 376h377l12 -18zM37 20l399 607h-379v305h979v-21l-407 -602h399v-309h-991v20z" />
    <glyph glyph-name="Zdotaccent" unicode="&#x17b;" horiz-adv-x="1482" 
d="M741 1565q-101 0 -165 56.5t-64 147.5t63 146t166 55t165.5 -55t62.5 -146t-63.5 -147.5t-164.5 -56.5zM31 41l698 1036h-647v373h1366v-41l-707 -1030h668v-379h-1378v41z" />
    <glyph glyph-name="zdotaccent" unicode="&#x17c;" horiz-adv-x="1081" 
d="M541 1057q-101 0 -165.5 57t-64.5 148q0 89 63.5 144.5t166.5 55.5t165 -55.5t62 -146.5q0 -90 -63 -146.5t-164 -56.5zM37 20l399 607h-379v305h979v-21l-407 -602h399v-309h-991v20z" />
    <glyph glyph-name="Zcaron" unicode="&#x17d;" horiz-adv-x="1482" 
d="M899 1565h-313l-248 254l16 20h246l143 -135l142 135h245l17 -20zM31 41l698 1036h-647v373h1366v-41l-707 -1030h668v-379h-1378v41z" />
    <glyph glyph-name="zcaron" unicode="&#x17e;" horiz-adv-x="1081" 
d="M395 1470l146 -202l143 202h252l16 -20l-247 -356h-330l-248 356l16 20h252zM37 20l399 607h-379v305h979v-21l-407 -602h399v-309h-991v20z" />
    <glyph glyph-name="florin" unicode="&#x192;" horiz-adv-x="1433" 
d="M1004 1489q122 0 219 -33l-58 -305l-20 -10q-35 18 -74 18q-45 0 -69.5 -31t-34.5 -104l-19 -127h168l-41 -297h-168l-61 -438q-33 -245 -155 -361t-333 -116q-119 0 -223 34l82 310l16 6q51 -19 89 -19q54 0 80.5 33t41.5 127l60 424h-158l41 297h158l18 127
q35 247 139.5 356t301.5 109z" />
    <glyph glyph-name="Aringacute" unicode="&#x1fa;" horiz-adv-x="1554" 
d="M1067 2341l12 -19l-270 -256h-291l205 275h344zM549 1765q0 97 67 162.5t162 65.5q96 0 164 -65.5t68 -162.5t-68 -162t-164 -65q-95 0 -162 65t-67 162zM897 1765q0 50 -33.5 84.5t-85.5 34.5q-50 0 -83 -34.5t-33 -84.5t33 -84t83 -34q52 0 85.5 34t33.5 84zM1565 0
h-492l-67 221h-457l-66 -221h-493l542 1450h500zM700 741l-61 -209h274l-63 209q-51 183 -70 334h-10q-22 -176 -70 -334z" />
    <glyph glyph-name="aringacute" unicode="&#x1fb;" horiz-adv-x="1122" 
d="M946 1978l12 -18l-309 -358h-291l209 376h379zM561 1067q-95 0 -162 65t-67 162t67 162.5t162 65.5q96 0 164 -65.5t68 -162.5t-68 -162t-164 -65zM561 1413q-50 0 -83.5 -34.5t-33.5 -84.5t33 -84t84 -34q52 0 85.5 34t33.5 84t-33.5 84.5t-85.5 34.5zM1065 219l18 -8
v-213q-97 -33 -200 -33q-192 0 -240 121q-122 -125 -326 -125q-132 0 -203 59t-71 160q0 89 49.5 150.5t171.5 109t332 80.5v39q0 103 -94 103q-100 0 -197 -109l-18 -2l-217 154q73 121 205.5 193.5t299.5 72.5q420 0 420 -393v-316q0 -32 6.5 -42.5t24.5 -10.5q16 0 39 10
zM408 240q0 -32 19.5 -51t53.5 -19q58 0 115 51v154q-103 -22 -145.5 -54.5t-42.5 -80.5z" />
    <glyph glyph-name="AEacute" unicode="&#x1fc;" horiz-adv-x="1976" 
d="M1378 1565h-291l205 274h344l13 -18zM1808 567h-483v-215h551l-39 -352h-930v221h-327l-101 -221h-489l680 1450h1167l39 -352h-551v-197h483v-334zM776 674l-71 -142h202v162q0 135 19 408h-8q-49 -191 -142 -428z" />
    <glyph glyph-name="aeacute" unicode="&#x1fd;" horiz-adv-x="1714" 
d="M946 1094h-293l211 376h377l12 -18zM317 -39q-132 0 -203 59t-71 160q0 89 49 151.5t172 111t332 79.5v37q0 103 -94 103q-100 0 -197 -109l-18 -2l-217 154q72 120 202 193t285 73q180 0 272 -117h5q58 55 141 86t176 31q210 0 353 -145.5t143 -372.5q0 -22 -2 -47h-654
q0 -80 35.5 -124t103.5 -44q40 0 75 24t57 60l20 8l328 -97q-59 -131 -183.5 -201.5t-306.5 -70.5q-128 0 -235 46t-176 130q-152 -176 -392 -176zM991 563h264q-4 71 -39 109.5t-90 38.5q-52 0 -89 -38.5t-46 -109.5zM481 170q70 0 152 88q-22 69 -27 115
q-110 -21 -154 -52.5t-44 -80.5q0 -32 19.5 -51t53.5 -19z" />
    <glyph glyph-name="Oslashacute" unicode="&#x1fe;" horiz-adv-x="1759" 
d="M1167 1839l13 -18l-271 -256h-291l205 274h344zM1536 1411l-102 -121q116 -103 179.5 -248t63.5 -317q0 -215 -103.5 -390t-286.5 -274.5t-408 -99.5q-257 0 -457 129l-100 -119l-91 66l103 121q-120 104 -186 250.5t-66 316.5q0 221 103.5 396t285.5 271.5t408 96.5
q266 0 469 -133l102 123zM524 725q0 -140 82 -246l473 561q-87 62 -200 62q-152 0 -253.5 -105.5t-101.5 -271.5zM879 350q151 0 252.5 106.5t101.5 268.5q0 141 -74 240l-471 -559q88 -56 191 -56z" />
    <glyph glyph-name="oslashacute" unicode="&#x1ff;" horiz-adv-x="1214" 
d="M696 1094h-293l211 376h377l13 -18zM1042 895l-51 -61q76 -70 119 -165t43 -202q0 -217 -155.5 -361.5t-389.5 -144.5q-161 0 -293 74l-53 -66l-90 66l53 63q-78 69 -121 163.5t-43 205.5q0 216 155 360t392 144q162 0 293 -72l55 64zM451 467q0 -45 18 -80l207 244
q-27 18 -68 18q-70 0 -113.5 -51t-43.5 -131zM610 283q65 0 110.5 52.5t45.5 131.5q0 37 -18 78l-205 -242q29 -20 67 -20z" />
    <glyph glyph-name="uni0218" unicode="&#x218;" horiz-adv-x="1234" 
d="M596 -39q-183 0 -332 76t-246 223l285 199l39 -8q100 -140 252 -140q64 0 102.5 26t38.5 66q0 33 -20 57t-79.5 56.5t-182.5 83.5q-199 83 -283 188t-84 269q0 120 70.5 219t195 156t277.5 57q171 0 310 -69.5t232 -200.5l-282 -211l-39 8q-87 121 -217 121
q-57 0 -87 -22t-30 -58q0 -26 17 -44t75.5 -49t188.5 -87q199 -85 284.5 -187.5t85.5 -243.5q0 -211 -160.5 -348t-410.5 -137zM850 -207l-219 -424l-246 96l129 429l27 16z" />
    <glyph glyph-name="uni0219" unicode="&#x219;" horiz-adv-x="925" 
d="M444 -39q-148 0 -256.5 58.5t-169.5 170.5l203 132l19 -3q35 -49 80 -76.5t90 -27.5q37 0 58 13t21 36q0 24 -34 47t-123 56q-145 55 -207 126.5t-62 178.5q0 135 109 217t291 82q142 0 252 -58t153 -155l-200 -127l-19 2q-24 39 -61 62.5t-78 23.5q-68 0 -68 -47
q0 -25 28.5 -44.5t131.5 -58.5q142 -58 203 -129.5t61 -177.5q0 -136 -115 -218.5t-307 -82.5zM696 -207l-219 -424l-246 96l129 429l27 16z" />
    <glyph glyph-name="uni021A" unicode="&#x21a;" horiz-adv-x="1329" 
d="M453 0v1071h-433v379h1289v-379h-432v-1071h-424zM897 -207l-219 -424l-246 96l129 429l27 16z" />
    <glyph glyph-name="uni021B" unicode="&#x21b;" horiz-adv-x="843" 
d="M784 311l21 -10l10 -299q-41 -16 -108.5 -28.5t-128.5 -12.5q-398 0 -398 356v316h-157v299h159v192l303 176h97v-368h227v-299h-227v-221q0 -67 27.5 -93t92.5 -26q36 0 82 18zM702 -207l-219 -424l-245 96l129 429l26 16z" />
    <glyph glyph-name="uni0237" unicode="&#x237;" horiz-adv-x="618" 
d="M86 -471q-105 0 -203 31l37 307l17 8q40 -14 75 -14q54 0 75.5 33.5t21.5 130.5v907h403v-922q0 -250 -104.5 -365.5t-321.5 -115.5z" />
    <glyph glyph-name="uni02BC" unicode="&#x2bc;" horiz-adv-x="610" 
d="M573 1401l-278 -559l-258 96l180 571l27 17z" />
    <glyph glyph-name="circumflex" unicode="&#x2c6;" horiz-adv-x="948" 
d="M618 1094l-145 202l-143 -202h-252l-17 20l248 356h330l248 -356l-17 -20h-252z" />
    <glyph glyph-name="caron" unicode="&#x2c7;" horiz-adv-x="948" 
d="M330 1470l143 -202l145 202h252l17 -20l-248 -356h-330l-248 356l17 20h252z" />
    <glyph glyph-name="breve" unicode="&#x2d8;" horiz-adv-x="839" 
d="M420 1083q-160 0 -253 74t-106 217l21 19h184q15 -103 154 -103q138 0 153 103h185l20 -19q-13 -143 -105.5 -217t-252.5 -74z" />
    <glyph glyph-name="dotaccent" unicode="&#x2d9;" horiz-adv-x="579" 
d="M291 1057q-101 0 -165.5 57t-64.5 148q0 89 63.5 144.5t166.5 55.5t165 -55.5t62 -146.5q0 -90 -63 -146.5t-164 -56.5z" />
    <glyph glyph-name="ring" unicode="&#x2da;" horiz-adv-x="581" 
d="M291 1067q-95 0 -162.5 65t-67.5 162t67.5 162.5t162.5 65.5t162 -65.5t67 -162.5t-67 -162t-162 -65zM291 1176q52 0 85.5 34t33.5 84t-33.5 84.5t-85.5 34.5t-85.5 -34.5t-33.5 -84.5t33.5 -84t85.5 -34z" />
    <glyph glyph-name="ogonek" unicode="&#x2db;" horiz-adv-x="634" 
d="M309 -485q-115 0 -181.5 48t-66.5 132q0 89 55.5 163t166.5 142h192q-153 -124 -153 -227q0 -58 61 -58q43 0 104 39l17 2l57 -174q-109 -67 -252 -67z" />
    <glyph glyph-name="tilde" unicode="&#x2dc;" horiz-adv-x="878" 
d="M590 1100q92 0 156 79t71 205h-158l-16 -12q-16 -67 -72 -67q-37 0 -83 19.5t-97.5 39.5t-101.5 20q-92 0 -156.5 -80t-71.5 -204h158l17 12q17 68 73 68q37 0 81.5 -20t96 -40t103.5 -20z" />
    <glyph glyph-name="hungarumlaut" unicode="&#x2dd;" horiz-adv-x="1175" 
d="M352 1094h-291l228 376h344l12 -18zM821 1094h-291l228 376h344l12 -18z" />
    <glyph glyph-name="gravecomb" unicode="&#x300;" 
d="M-340 1470l211 -376h-291l-309 358l12 18h377z" />
    <glyph glyph-name="acutecomb" unicode="&#x301;" 
d="M-268 1094h-293l211 376h377l12 -18z" />
    <glyph glyph-name="uni0302" unicode="&#x302;" 
d="M-340 1094l-143 202l-146 -202h-252l-16 20l248 356h330l247 -356l-16 -20h-252z" />
    <glyph glyph-name="tildecomb" unicode="&#x303;" 
d="M-285 1100q93 0 157 79t71 205h-158l-16 -12q-16 -67 -72 -67q-42 0 -131.5 39.5t-151.5 39.5q-92 0 -155.5 -79.5t-71.5 -204.5h158l16 12q17 68 72 68q37 0 82.5 -20t96.5 -40t103 -20z" />
    <glyph glyph-name="uni0304" unicode="&#x304;" 
d="M-66 1153h-694v213h694v-213z" />
    <glyph glyph-name="uni0306" unicode="&#x306;" 
d="M-418 1083q-161 0 -253 73.5t-105 217.5l20 19h185q15 -103 153 -103q140 0 152 103h186l21 -19q-13 -143 -106 -217t-253 -74z" />
    <glyph glyph-name="uni0307" unicode="&#x307;" 
d="M-289 1057q-101 0 -165 57t-64 148q0 89 63 144.5t166 55.5t165.5 -55.5t62.5 -146.5q0 -89 -63.5 -146t-164.5 -57z" />
    <glyph glyph-name="uni0308" unicode="&#x308;" 
d="M-752 1249q0 72 50 123t122 51t122 -50.5t50 -123.5q0 -72 -50 -122t-122 -50q-73 0 -122.5 50t-49.5 122zM-322 1249q0 72 49 123t121 51t122 -50.5t50 -123.5q0 -72 -49.5 -122t-122.5 -50q-72 0 -121 50t-49 122z" />
    <glyph glyph-name="uni030A" unicode="&#x30a;" 
d="M-291 1067q-95 0 -162 65t-67 162t67 162.5t162 65.5q96 0 164 -65.5t68 -162.5t-68 -162t-164 -65zM-291 1176q52 0 85.5 34t33.5 84t-33.5 84.5t-85.5 34.5q-50 0 -83.5 -34.5t-33.5 -84.5t33 -84t84 -34z" />
    <glyph glyph-name="uni030B" unicode="&#x30b;" 
d="M-592 1094h-293l228 376h346l10 -18zM-123 1094h-293l228 376h346l10 -18z" />
    <glyph glyph-name="uni030C" unicode="&#x30c;" 
d="M-629 1470l146 -202l143 202h252l16 -20l-247 -356h-330l-248 356l16 20h252z" />
    <glyph glyph-name="uni0312" unicode="&#x312;" 
d="M-594 1217l219 423l244 -96l-129 -426l-27 -16z" />
    <glyph glyph-name="uni0315" unicode="&#x315;" 
d="M-129 1597l-219 -423l-246 96l129 426l27 16z" />
    <glyph glyph-name="dotbelowcomb" unicode="&#x323;" 
d="M-281 -541q-101 0 -165 57t-64 148t63 146t166 55t165.5 -55t62.5 -146t-63.5 -148t-164.5 -57z" />
    <glyph glyph-name="uni0324" unicode="&#x324;" 
d="M-938 -311q0 71 50 121.5t122 50.5t122 -50t50 -122q0 -73 -50 -123.5t-122 -50.5q-73 0 -122.5 50t-49.5 124zM-508 -311q0 71 49.5 121.5t120.5 50.5q72 0 122 -50t50 -122q0 -74 -49.5 -124t-122.5 -50q-72 0 -121 50t-49 124z" />
    <glyph glyph-name="uni0325" unicode="&#x325;" 
d="M-291 -590q-95 0 -162 65.5t-67 162.5t67 162t162 65q96 0 164 -65t68 -162t-68 -162.5t-164 -65.5zM-291 -481q52 0 85.5 34.5t33.5 84.5t-33.5 84t-85.5 34q-51 0 -84 -34t-33 -84t33.5 -84.5t83.5 -34.5z" />
    <glyph glyph-name="uni0326" unicode="&#x326;" 
d="M-86 -207l-219 -424l-246 96l129 429l27 16z" />
    <glyph glyph-name="uni0327" unicode="&#x327;" 
d="M-379 -487q-65 0 -137.5 13t-120.5 34l57 137l23 6q74 -33 156 -33q88 0 88 51q0 48 -84 48q-47 0 -84 -13l-68 60l135 184h207l-94 -115q12 4 47 4q87 0 140 -45t53 -120q0 -97 -86.5 -154t-231.5 -57z" />
    <glyph glyph-name="uni0328" unicode="&#x328;" 
d="M-326 -485q-115 0 -181 48t-66 132q0 171 221 305h192q-153 -124 -153 -227q0 -58 61 -58q44 0 105 39l16 2l57 -174q-109 -67 -252 -67z" />
    <glyph glyph-name="uni0330" unicode="&#x330;" 
d="M-285 -446q92 0 156.5 79t71.5 203h-158l-16 -12q-17 -66 -72 -66q-42 0 -131.5 39t-151.5 39q-92 0 -156 -79t-71 -203h158l16 12q17 65 72 65q42 0 129.5 -38.5t152.5 -38.5z" />
    <glyph glyph-name="uni0331" unicode="&#x331;" 
d="M-66 -414h-694v215h694v-215z" />
    <glyph glyph-name="uni0335" unicode="&#x335;" 
d="M-106 315h-467v263h467v-263z" />
    <glyph glyph-name="uni0336" unicode="&#x336;" 
d="M287 315h-1454v263h1454v-263z" />
    <glyph glyph-name="uni0337" unicode="&#x337;" 
d="M-106 569l-740 -424l-117 199l740 424z" />
    <glyph glyph-name="uni0338" unicode="&#x338;" 
d="M-111 991l-1022 -1212l-170 149l1018 1209z" />
    <glyph glyph-name="uni0394" unicode="&#x394;" horiz-adv-x="1554" 
d="M532 1450h500l533 -1450h-1575zM700 741l-114 -389h381l-117 389q-51 183 -70 334h-10q-22 -176 -70 -334z" />
    <glyph glyph-name="pi" unicode="&#x3c0;" horiz-adv-x="1265" 
d="M721 211v422h-189v-633h-403v633h-90v299h1175v-299h-92v-371q0 -32 6.5 -42.5t26.5 -10.5q14 0 39 10l18 -8v-213q-97 -33 -200 -33q-291 0 -291 246z" />
    <glyph glyph-name="uni0400" unicode="&#x400;" horiz-adv-x="1202" 
d="M866 1565h-291l-272 256l12 18h347zM133 0v1450h930l39 -352h-551v-197h483v-334h-483v-215h551l-39 -352h-930z" />
    <glyph glyph-name="uni0401" unicode="&#x401;" horiz-adv-x="1202" 
d="M211 1741q0 72 49 122t121 50t122 -50t50 -122q0 -74 -49.5 -124t-122.5 -50q-72 0 -121 50t-49 124zM657 1741q0 72 49 122t121 50t123 -50t51 -122q0 -73 -50.5 -123.5t-123.5 -50.5q-72 0 -121 50t-49 124zM133 0v1450h930l39 -352h-551v-197h483v-334h-483v-215h551
l-39 -352h-930z" />
    <glyph glyph-name="uni0403" unicode="&#x403;" horiz-adv-x="1099" 
d="M707 1565h-291l205 274h344l12 -18zM133 0v1450h905l41 -379h-520v-1071h-426z" />
    <glyph glyph-name="uni040C" unicode="&#x40c;" horiz-adv-x="1509" 
d="M786 1565h-290l204 274h344l13 -18zM1532 0h-500l-319 520l-162 -184v-336h-418v1450h418v-213q0 -166 -21 -420h5q100 160 204 287l279 346h502l-523 -604z" />
    <glyph glyph-name="uni040D" unicode="&#x40d;" horiz-adv-x="1630" 
d="M1077 1565h-291l-272 256l12 18h346zM1497 1450v-1450h-418v469q0 182 15 348h-4q-93 -144 -191 -285l-381 -538h-385v1456h418v-436q0 -182 -19 -365h5q32 52 196 299l340 502h424z" />
    <glyph glyph-name="uni0410" unicode="&#x410;" horiz-adv-x="1554" 
d="M1565 0h-492l-67 221h-457l-66 -221h-493l542 1450h500zM700 741l-61 -209h274l-63 209q-51 183 -70 334h-10q-22 -176 -70 -334z" />
    <glyph glyph-name="uni0411" unicode="&#x411;" horiz-adv-x="1323" 
d="M559 928h162q266 0 403.5 -121.5t137.5 -319.5q0 -240 -146.5 -363.5t-437.5 -123.5h-545v1450h948l43 -371h-565v-151zM559 324h107q190 0 190 147q0 68 -48 104.5t-142 36.5h-107v-288z" />
    <glyph glyph-name="uni0412" unicode="&#x412;" horiz-adv-x="1314" 
d="M672 0h-539v1450h516q269 0 403 -100.5t134 -284.5q0 -107 -65 -189.5t-171 -113.5v-6q147 -36 226 -124t79 -222q0 -410 -583 -410zM551 1139v-250h84q162 0 162 123q0 127 -166 127h-80zM551 606v-282h100q199 0 199 143q0 139 -195 139h-104z" />
    <glyph glyph-name="uni0413" unicode="&#x413;" horiz-adv-x="1099" 
d="M133 0v1450h905l41 -379h-520v-1071h-426z" />
    <glyph glyph-name="uni0414" unicode="&#x414;" horiz-adv-x="1517" 
d="M1014 1450l352 -1083h150v-721h-379v354h-754v-354h-381v721h152l358 1083h502zM911 367l-88 374q-45 205 -61 334h-10q-17 -139 -60 -334l-88 -374h307z" />
    <glyph glyph-name="uni0415" unicode="&#x415;" horiz-adv-x="1202" 
d="M133 0v1450h930l39 -352h-551v-197h483v-334h-483v-215h551l-39 -352h-930z" />
    <glyph glyph-name="uni0416" unicode="&#x416;" horiz-adv-x="2283" 
d="M487 0h-499l506 860l-494 590h504l256 -336q56 -76 190 -297h4q-22 262 -22 420v213h420v-213q0 -146 -23 -420h4q129 213 191 297l256 336h504l-494 -590l506 -860h-502l-287 524l-155 -188v-336h-420v336l-158 188z" />
    <glyph glyph-name="uni0417" unicode="&#x417;" horiz-adv-x="1284" 
d="M958 760v-4q123 -32 194 -130.5t71 -230.5q0 -195 -151.5 -314.5t-403.5 -119.5q-573 0 -629 471l397 68l37 -21q12 -82 52.5 -121t113.5 -39q69 0 107 41t38 111q0 141 -178 141h-135v265h117q174 0 174 141q0 57 -31 89t-86 32q-66 0 -107 -34.5t-53 -96.5l-36 -21
l-373 72q55 212 215 321t414 109q218 0 348.5 -108t130.5 -287q0 -115 -59.5 -205.5t-166.5 -128.5z" />
    <glyph glyph-name="uni0418" unicode="&#x418;" horiz-adv-x="1630" 
d="M1497 1450v-1450h-418v469q0 182 15 348h-4q-93 -144 -191 -285l-381 -538h-385v1456h418v-436q0 -182 -19 -365h5q32 52 196 299l340 502h424z" />
    <glyph glyph-name="uni0419" unicode="&#x419;" horiz-adv-x="1630" 
d="M817 1554q-159 0 -252 72t-106 209l20 18h185q8 -44 47.5 -69t105.5 -25t106 25t46 69h186l21 -18q-13 -137 -106.5 -209t-252.5 -72zM1497 1450v-1450h-418v469q0 182 15 348h-4q-93 -144 -191 -285l-381 -538h-385v1456h418v-436q0 -182 -19 -365h5q32 52 196 299
l340 502h424z" />
    <glyph glyph-name="uni041A" unicode="&#x41a;" horiz-adv-x="1509" 
d="M1532 0h-500l-319 520l-162 -184v-336h-418v1450h418v-213q0 -166 -21 -420h5q100 160 204 287l279 346h502l-523 -604z" />
    <glyph glyph-name="uni041B" unicode="&#x41b;" horiz-adv-x="1542" 
d="M483 0h-493l534 1450h502l526 -1450h-493l-215 741q-49 167 -70 334h-10q-19 -134 -70 -334z" />
    <glyph glyph-name="uni041C" unicode="&#x41c;" horiz-adv-x="1921" 
d="M639 1450l322 -670h4l317 670h506v-1450h-410l8 924h-4l-403 -799h-37l-403 799h-4l8 -924h-410v1450h506z" />
    <glyph glyph-name="uni041D" unicode="&#x41d;" horiz-adv-x="1548" 
d="M551 0h-418v1450h418v-537h446v537h418v-1450h-418v547h-446v-547z" />
    <glyph glyph-name="uni041E" unicode="&#x41e;" horiz-adv-x="1759" 
d="M879 -39q-169 0 -317 58.5t-253.5 159.5t-166 243t-60.5 303q0 221 103.5 396t285.5 271.5t408 96.5q227 0 409 -96.5t285.5 -271.5t103.5 -396q0 -215 -103.5 -390t-286.5 -274.5t-408 -99.5zM879 350q151 0 252.5 106.5t101.5 268.5q0 166 -101 271.5t-253 105.5
t-253.5 -105.5t-101.5 -271.5q0 -162 102.5 -268.5t252.5 -106.5z" />
    <glyph glyph-name="uni041F" unicode="&#x41f;" horiz-adv-x="1548" 
d="M551 0h-418v1450h1282v-1450h-418v1083h-446v-1083z" />
    <glyph glyph-name="uni0420" unicode="&#x420;" horiz-adv-x="1316" 
d="M559 0h-426v1450h543q291 0 437.5 -125.5t146.5 -370.5q0 -227 -137 -354t-388 -127h-176v-473zM559 1116v-319h105q190 0 190 157q0 84 -47.5 123t-142.5 39h-105z" />
    <glyph glyph-name="uni0421" unicode="&#x421;" horiz-adv-x="1574" 
d="M854 -39q-161 0 -303 56t-245.5 155.5t-163.5 242.5t-60 310q0 168 60.5 312t165 242.5t246.5 154t302 55.5q210 0 380 -91t267 -268l-321 -192l-39 6q-97 150 -271 150q-140 0 -235.5 -102t-95.5 -267q0 -163 97 -266t241 -103q169 0 266 150l39 6l321 -195
q-100 -176 -270 -266t-381 -90z" />
    <glyph glyph-name="uni0422" unicode="&#x422;" horiz-adv-x="1329" 
d="M453 0v1071h-433v379h1289v-379h-432v-1071h-424z" />
    <glyph glyph-name="uni0423" unicode="&#x423;" horiz-adv-x="1437" 
d="M696 0h-452l288 563l-522 887h516l113 -264q70 -177 104 -285h7q53 157 104 283l113 266h493z" />
    <glyph glyph-name="uni0424" unicode="&#x424;" horiz-adv-x="1824" 
d="M1743 725q0 -276 -170 -459.5t-451 -228.5v-119h-417v117q-282 45 -452.5 228.5t-170.5 461.5q0 284 169.5 465t453.5 225v117h417v-117q283 -44 452 -225t169 -465zM502 725q0 -298 219 -346v692q-219 -45 -219 -346zM1106 1071v-692q217 51 217 346q0 151 -52.5 236
t-164.5 110z" />
    <glyph glyph-name="uni0425" unicode="&#x425;" horiz-adv-x="1533" 
d="M492 0h-508l499 758l-471 692h516l238 -414l229 414h504l-465 -690l516 -760h-524l-272 461z" />
    <glyph glyph-name="uni0426" unicode="&#x426;" horiz-adv-x="1564" 
d="M1391 1450v-1083h157v-721h-379v354h-1036v1450h418v-1083h422v1083h418z" />
    <glyph glyph-name="uni0427" unicode="&#x427;" horiz-adv-x="1484" 
d="M934 877v573h418v-1450h-418v565q-69 -65 -179.5 -109t-230.5 -44q-206 0 -303.5 114t-97.5 357v567h418v-473q0 -104 34.5 -150.5t112.5 -46.5q138 0 246 97z" />
    <glyph glyph-name="uni0428" unicode="&#x428;" horiz-adv-x="2060" 
d="M1509 367v1083h418v-1450h-1794v1450h418v-1083h270v1083h418v-1083h270z" />
    <glyph glyph-name="uni0429" unicode="&#x429;" horiz-adv-x="2101" 
d="M1927 1450v-1083h158v-721h-381v354h-1571v1450h418v-1083h270v1083h418v-1083h270v1083h418z" />
    <glyph glyph-name="uni042A" unicode="&#x42a;" horiz-adv-x="1505" 
d="M743 963h181q250 0 387 -127t137 -349q0 -238 -146.5 -362.5t-437.5 -124.5h-545v1073h-311l39 377h696v-487zM745 334h107q190 0 190 153q0 71 -48.5 110.5t-141.5 39.5h-107v-303z" />
    <glyph glyph-name="uni042B" unicode="&#x42b;" horiz-adv-x="2002" 
d="M133 0v1450h426v-487h178q250 0 387.5 -127t137.5 -349q0 -238 -146.5 -362.5t-437.5 -124.5h-545zM1452 0v1450h418v-1450h-418zM666 637h-107v-303h107q190 0 190 153q0 72 -48 111t-142 39z" />
    <glyph glyph-name="uni042C" unicode="&#x42c;" horiz-adv-x="1318" 
d="M133 0v1450h426v-487h178q250 0 387.5 -127t137.5 -349q0 -238 -146.5 -362.5t-437.5 -124.5h-545zM666 637h-107v-303h107q190 0 190 153q0 72 -48 111t-142 39z" />
    <glyph glyph-name="uni042D" unicode="&#x42d;" horiz-adv-x="1556" 
d="M715 1489q160 0 299.5 -55.5t241 -154t159.5 -242t58 -312.5q0 -167 -59.5 -310t-162.5 -242.5t-245 -155.5t-304 -56q-211 0 -382 90t-271 266l324 191l37 -8q50 -75 116.5 -110.5t159.5 -35.5q126 0 211 68t113 190h-494v222h496q-26 125 -107 193.5t-200 68.5
q-98 0 -167 -36t-126 -112l-37 -6l-324 191q99 175 273.5 265.5t390.5 90.5z" />
    <glyph glyph-name="uni042E" unicode="&#x42e;" horiz-adv-x="2318" 
d="M1452 1489q227 0 405.5 -97t277.5 -271t99 -396q0 -162 -58.5 -303t-161 -242.5t-248 -160t-314.5 -58.5q-290 0 -498 162.5t-266 423.5h-137v-547h-418v1450h418v-537h139q59 261 265.5 418.5t496.5 157.5zM1452 350q150 0 245 105.5t95 269.5q0 167 -94.5 272
t-245.5 105t-245.5 -105t-94.5 -272q0 -164 95 -269.5t245 -105.5z" />
    <glyph glyph-name="uni042F" unicode="&#x42f;" horiz-adv-x="1394" 
d="M727 1450h535v-1450h-424v502h-74l-324 -502h-440l-16 37l374 538q-114 53 -173.5 151.5t-59.5 236.5q0 487 602 487zM836 1116h-117q-193 0 -193 -153q0 -150 191 -150h119v303z" />
    <glyph glyph-name="uni0430" unicode="&#x430;" horiz-adv-x="1122" 
d="M1065 219l18 -8v-213q-97 -33 -200 -33q-192 0 -240 121q-122 -125 -326 -125q-132 0 -203 59t-71 160q0 89 49.5 150.5t171.5 109t332 80.5v39q0 103 -94 103q-100 0 -197 -109l-18 -2l-217 154q73 121 205.5 193.5t299.5 72.5q420 0 420 -393v-316q0 -32 6.5 -42.5
t24.5 -10.5q16 0 39 10zM408 240q0 -32 19.5 -51t53.5 -19q58 0 115 51v154q-103 -22 -145.5 -54.5t-42.5 -80.5z" />
    <glyph glyph-name="uni0431" unicode="&#x431;" horiz-adv-x="1243" 
d="M651 -39q-268 0 -414.5 144.5t-146.5 439.5v207q0 175 57 313.5t182 238t310 138.5l248 51q49 9 127 41l112 -311q-54 -32 -147 -54l-231 -49q-146 -33 -205.5 -107.5t-65.5 -238.5h6q59 88 146 134t184 46q161 0 264 -130.5t103 -350.5q0 -236 -137.5 -374t-391.5 -138z
M641 289q66 0 108 46.5t42 121.5q0 76 -42 124t-108 48q-69 0 -113.5 -49.5t-44.5 -122.5q0 -74 45.5 -121t112.5 -47z" />
    <glyph glyph-name="uni0432" unicode="&#x432;" horiz-adv-x="1247" 
d="M639 -39q-283 0 -412 129.5t-129 409.5v522q0 239 131.5 371.5t393.5 132.5q225 0 350 -99t125 -260q0 -132 -66 -226.5t-162 -123.5v-4q151 -31 230.5 -133.5t79.5 -245.5q0 -210 -145.5 -341.5t-395.5 -131.5zM639 289q66 0 107.5 47.5t41.5 126.5q0 77 -43 120.5
t-116 43.5h-43v295h39q47 0 74.5 32t27.5 95q0 64 -28 99.5t-83 35.5q-116 0 -116 -164v-541q0 -103 35.5 -146.5t103.5 -43.5z" />
    <glyph glyph-name="uni0433" unicode="&#x433;" horiz-adv-x="925" 
d="M473 -39q-190 0 -302 82.5t-112 218.5q0 106 61 175t204 126q101 40 131 62t30 47q0 21 -17 34t-48 13q-42 0 -80.5 -24.5t-60.5 -63.5l-21 -2l-201 127q44 97 158.5 156t259.5 59q179 0 283 -81.5t104 -215.5q0 -109 -62 -179.5t-210 -123.5q-93 -34 -123.5 -57.5
t-30.5 -49.5q0 -23 21.5 -36t58.5 -13q45 0 90 27.5t78 76.5l18 3l205 -132q-61 -112 -173 -170.5t-261 -58.5z" />
    <glyph glyph-name="uni0434" unicode="&#x434;" horiz-adv-x="1261" 
d="M627 -471q-352 0 -502 227l219 156l18 -4q53 -53 95 -71.5t108 -18.5q95 0 143 48.5t46 139.5q0 24 4 80.5t4 63.5q-53 -85 -138.5 -131t-185.5 -46q-168 0 -272.5 135t-104.5 361q0 228 114 365t282 137q91 0 170.5 -46t134.5 -134v141h393l-2 -846q0 -274 -126 -415.5
t-400 -141.5zM598 301q70 0 115 47t45 123t-43 125t-111 49q-67 0 -109 -48.5t-42 -127.5q0 -76 40 -122t105 -46z" />
    <glyph glyph-name="uni0435" unicode="&#x435;" horiz-adv-x="1204" 
d="M1137 406h-670v-19q0 -68 40 -108.5t109 -40.5q43 0 79.5 24t58.5 60l20 8l326 -97q-58 -131 -183.5 -201.5t-310.5 -70.5q-250 0 -397.5 142t-147.5 362q0 218 151.5 362t391.5 144q235 0 385 -144t150 -374q0 -22 -2 -47zM610 713q-55 0 -94.5 -39t-46.5 -107h276
q-3 69 -39 107.5t-96 38.5z" />
    <glyph glyph-name="uni0436" unicode="&#x436;" horiz-adv-x="1822" 
d="M455 0h-451l369 563l-348 369h473l135 -166q47 -56 104 -133q-28 264 -28 506v362h403v-362q0 -272 -29 -506q59 76 107 133l133 166h475l-350 -369l371 -563h-451l-182 305l-74 -72v-233h-403v233l-72 72z" />
    <glyph glyph-name="uni0437" unicode="&#x437;" horiz-adv-x="1073" 
d="M520 -471q-181 0 -298 56t-197 177l251 179l21 -2q42 -59 91 -90t118 -31q66 0 101.5 40.5t35.5 106.5q0 133 -162 133h-194v289h188q70 0 109 40t39 108q0 61 -31.5 96t-91.5 35q-128 0 -226 -119l-18 -2l-217 149q74 126 210.5 201.5t315.5 75.5q212 0 320 -94.5
t108 -247.5q0 -127 -66 -222t-165 -124v-4q142 -30 207 -120.5t65 -203.5q0 -184 -136.5 -305t-377.5 -121z" />
    <glyph glyph-name="uni0438" unicode="&#x438;" horiz-adv-x="1226" 
d="M1120 932v-932h-391v141q-120 -180 -313 -180q-143 0 -226.5 98.5t-83.5 280.5v592h404v-496q0 -78 21 -109.5t65 -31.5q54 0 87.5 51t33.5 146v440h403z" />
    <glyph glyph-name="uni0439" unicode="&#x439;" horiz-adv-x="1226" 
d="M614 1083q-161 0 -253 73.5t-105 217.5l20 19h185q15 -103 153 -103q140 0 152 103h186l21 -19q-13 -143 -106 -217t-253 -74zM1120 932v-932h-391v141q-120 -180 -313 -180q-143 0 -226.5 98.5t-83.5 280.5v592h404v-496q0 -78 21 -109.5t65 -31.5q54 0 87.5 51
t33.5 146v440h403z" />
    <glyph glyph-name="uni043A" unicode="&#x43a;" horiz-adv-x="1234" 
d="M1241 0h-453l-206 305l-72 -72v-233h-404v1501h404v-362q0 -271 -25 -506q63 82 111 135l143 164h478l-371 -369z" />
    <glyph glyph-name="uni043B" unicode="&#x43b;" horiz-adv-x="1101" 
d="M416 0h-428l379 938h366l381 -938h-428l-133 559h-4z" />
    <glyph glyph-name="uni043C" unicode="&#x43c;" horiz-adv-x="1337" 
d="M1231 932v-932h-393v432l-152 -315h-33l-153 317v-434h-394v932h418l142 -367h4l143 367h418z" />
    <glyph glyph-name="uni043D" unicode="&#x43d;" horiz-adv-x="1222" 
d="M713 598v334h403v-932h-403v317h-203v-317h-404v932h404v-334h203z" />
    <glyph glyph-name="uni043E" unicode="&#x43e;" horiz-adv-x="1214" 
d="M608 -39q-236 0 -391.5 144.5t-155.5 361.5q0 216 155 360t392 144q235 0 390 -144t155 -360q0 -217 -155.5 -361.5t-389.5 -144.5zM608 293q66 0 110 48.5t44 125.5t-42.5 124.5t-111.5 47.5t-112 -47.5t-43 -124.5t44 -125.5t111 -48.5z" />
    <glyph glyph-name="uni043F" unicode="&#x43f;" horiz-adv-x="1239" 
d="M106 0v932h392v-141q120 180 311 180q151 0 237.5 -96.5t86.5 -272.5v-602h-404v485q0 86 -23 120t-73 34q-55 0 -89 -51.5t-34 -141.5v-446h-404z" />
    <glyph glyph-name="uni0440" unicode="&#x440;" horiz-adv-x="1259" 
d="M510 -446h-404v1378h392v-141q59 88 143.5 134t181.5 46q165 0 270 -133.5t105 -364.5q0 -232 -110.5 -372t-284.5 -140q-93 0 -172.5 45t-132.5 131q12 -148 12 -289v-294zM659 289q67 0 108.5 47.5t41.5 128.5q0 82 -42 131t-110 49q-69 0 -112 -50t-43 -130t44 -128
t113 -48z" />
    <glyph glyph-name="uni0441" unicode="&#x441;" horiz-adv-x="1126" 
d="M582 -39q-236 0 -378.5 141t-142.5 361q0 219 146.5 363.5t380.5 144.5q331 0 481 -262l-301 -162l-20 2q-32 55 -67.5 77.5t-80.5 22.5q-65 0 -107 -48.5t-42 -135.5q0 -81 41.5 -130.5t109.5 -49.5q47 0 83 22.5t67 77.5l20 2l299 -164q-153 -262 -489 -262z" />
    <glyph glyph-name="uni0442" unicode="&#x442;" horiz-adv-x="1818" 
d="M1401 971q142 0 226.5 -97t84.5 -272v-602h-403v483q0 87 -21 121.5t-63 34.5q-49 0 -81 -52.5t-32 -142.5v-444h-403v483q0 86 -21.5 121t-64.5 35q-48 0 -80.5 -53t-32.5 -142v-444h-404v932h392v-141q120 180 301 180q99 0 171.5 -52.5t104.5 -150.5q126 203 326 203z
" />
    <glyph glyph-name="uni0443" unicode="&#x443;" horiz-adv-x="1210" 
d="M600 -446h-430l233 497l-389 881h473l119 -555h4l148 555h448z" />
    <glyph glyph-name="uni0444" unicode="&#x444;" horiz-adv-x="1531" 
d="M1470 467q0 -211 -138 -353t-363 -159v-406h-404v406q-225 15 -364.5 157.5t-139.5 354.5q0 211 139 353t365 157v524h404v-524q226 -17 363.5 -158.5t137.5 -351.5zM453 467q0 -96 38.5 -151t112.5 -56v412q-76 -1 -113.5 -55.5t-37.5 -149.5zM930 672v-412
q73 1 111 56.5t38 150.5q0 202 -149 205z" />
    <glyph glyph-name="uni0445" unicode="&#x445;" horiz-adv-x="1165" 
d="M459 0h-471l354 483l-338 449h457l67 -123q39 -77 52 -119h4q22 60 53 119l68 123h456l-338 -449l353 -483h-471l-72 131q-27 50 -49 119h-4q-16 -50 -50 -119z" />
    <glyph glyph-name="uni0446" unicode="&#x446;" horiz-adv-x="1271" 
d="M1120 932v-633h131v-596h-368v297h-154v141q-120 -180 -313 -180q-143 0 -226.5 98.5t-83.5 280.5v592h404v-496q0 -78 21 -109.5t65 -31.5q54 0 87.5 51t33.5 146v440h403z" />
    <glyph glyph-name="uni0447" unicode="&#x447;" horiz-adv-x="1191" 
d="M682 580v352h403v-932h-393v334q-68 -76 -140.5 -112t-166.5 -36q-140 0 -219.5 96.5t-79.5 284.5v365h403v-289q0 -68 18 -95.5t56 -27.5q67 0 119 60z" />
    <glyph glyph-name="uni0448" unicode="&#x448;" horiz-adv-x="1808" 
d="M416 -39q-141 0 -225.5 97.5t-84.5 271.5v602h404v-483q0 -85 20.5 -119.5t61.5 -34.5q46 0 78 52t32 142v443h404v-483q0 -85 20.5 -119.5t61.5 -34.5q46 0 78 52t32 142v443h404v-932h-393v141q-122 -180 -297 -180q-98 0 -170.5 53t-104.5 150q-126 -203 -321 -203z
" />
    <glyph glyph-name="uni0449" unicode="&#x449;" horiz-adv-x="1853" 
d="M1702 932v-633h131v-596h-369v297h-155v141q-122 -180 -297 -180q-98 0 -170.5 53t-104.5 150q-126 -203 -321 -203q-141 0 -225.5 97.5t-84.5 271.5v602h404v-483q0 -85 20.5 -119.5t61.5 -34.5q46 0 78 52t32 142v443h404v-483q0 -85 20.5 -119.5t61.5 -34.5
q46 0 78 52t32 142v443h404z" />
    <glyph glyph-name="uni044A" unicode="&#x44a;" horiz-adv-x="1255" 
d="M883 750q152 0 236.5 -102t84.5 -269q0 -193 -125.5 -305.5t-359.5 -112.5q-270 0 -385 114.5t-115 379.5v178h-196v299h585v-309q103 127 275 127zM717 233q52 0 84.5 34.5t32.5 92.5t-31 92.5t-82 34.5q-54 0 -86.5 -37.5t-32.5 -95.5q0 -55 32 -88t83 -33z" />
    <glyph glyph-name="uni044B" unicode="&#x44b;" horiz-adv-x="1757" 
d="M606 -39q-270 0 -385 114.5t-115 379.5v477h388v-309q103 127 276 127q152 0 237 -102t85 -269q0 -193 -125.5 -305.5t-360.5 -112.5zM1651 0h-404v932h404v-932zM604 233q51 0 83 34.5t32 92.5t-30 92.5t-81 34.5q-54 0 -86.5 -37.5t-32.5 -95.5q0 -55 32 -88t83 -33z
" />
    <glyph glyph-name="uni044C" unicode="&#x44c;" horiz-adv-x="1140" 
d="M606 -39q-270 0 -385 114.5t-115 379.5v477h388v-309q103 127 276 127q152 0 237 -102t85 -269q0 -193 -125.5 -305.5t-360.5 -112.5zM604 233q51 0 83 34.5t32 92.5t-30 92.5t-81 34.5q-54 0 -86.5 -37.5t-32.5 -95.5q0 -55 32 -88t83 -33z" />
    <glyph glyph-name="uni044D" unicode="&#x44d;" horiz-adv-x="1112" 
d="M553 971q225 0 361.5 -142t136.5 -362q0 -224 -134.5 -365t-363.5 -141q-336 0 -498 244l262 157l19 -2q49 -47 89 -64t93 -17q121 0 146 118h-232v133h232q-21 123 -142 123q-93 0 -172 -84l-18 -2l-277 162q91 126 213.5 184t284.5 58z" />
    <glyph glyph-name="uni044E" unicode="&#x44e;" horiz-adv-x="1705" 
d="M1104 971q235 0 388 -144t153 -360q0 -217 -153.5 -361.5t-387.5 -144.5q-190 0 -330 98t-188 258h-76v-317h-404v1501h404v-903h70q43 166 185.5 269.5t338.5 103.5zM1104 293q65 0 107 48.5t42 125.5t-40.5 124.5t-108.5 47.5t-109 -47.5t-41 -124.5t42.5 -125.5
t107.5 -48.5z" />
    <glyph glyph-name="uni044F" unicode="&#x44f;" horiz-adv-x="1163" 
d="M1057 932v-932h-404v254h-59l-166 -254h-401l-9 10l215 305q-149 77 -149 275q0 158 117 250t321 92h535zM653 666h-92q-57 0 -82.5 -23t-25.5 -70q0 -88 110 -88h90v181z" />
    <glyph glyph-name="uni0450" unicode="&#x450;" horiz-adv-x="1204" 
d="M639 1470l211 -376h-291l-309 358l12 18h377zM1137 406h-670v-19q0 -68 40 -108.5t109 -40.5q43 0 79.5 24t58.5 60l20 8l326 -97q-58 -131 -183.5 -201.5t-310.5 -70.5q-250 0 -397.5 142t-147.5 362q0 218 151.5 362t391.5 144q235 0 385 -144t150 -374q0 -22 -2 -47z
M610 713q-55 0 -94.5 -39t-46.5 -107h276q-3 69 -39 107.5t-96 38.5z" />
    <glyph glyph-name="uni0451" unicode="&#x451;" horiz-adv-x="1204" 
d="M387 1077q-73 0 -122.5 50t-49.5 122t50 123t122 51t122 -50.5t50 -123.5q0 -72 -50 -122t-122 -50zM815 1077q-72 0 -121 50t-49 122t49 123t121 51t122 -50.5t50 -123.5q0 -72 -49.5 -122t-122.5 -50zM1137 406h-670v-19q0 -68 40 -108.5t109 -40.5q43 0 79.5 24
t58.5 60l20 8l326 -97q-58 -131 -183.5 -201.5t-310.5 -70.5q-250 0 -397.5 142t-147.5 362q0 218 151.5 362t391.5 144q235 0 385 -144t150 -374q0 -22 -2 -47zM610 713q-55 0 -94.5 -39t-46.5 -107h276q-3 69 -39 107.5t-96 38.5z" />
    <glyph glyph-name="uni0453" unicode="&#x453;" horiz-adv-x="925" 
d="M584 1094h-293l211 376h377l12 -18zM473 -39q-190 0 -302 82.5t-112 218.5q0 106 61 175t204 126q101 40 131 62t30 47q0 21 -17 34t-48 13q-42 0 -80.5 -24.5t-60.5 -63.5l-21 -2l-201 127q44 97 158.5 156t259.5 59q179 0 283 -81.5t104 -215.5q0 -109 -62 -179.5
t-210 -123.5q-93 -34 -123.5 -57.5t-30.5 -49.5q0 -23 21.5 -36t58.5 -13q45 0 90 27.5t78 76.5l18 3l205 -132q-61 -112 -173 -170.5t-261 -58.5z" />
    <glyph glyph-name="uni045C" unicode="&#x45c;" horiz-adv-x="1234" 
d="M854 1565h-291l205 274h344l12 -18zM1241 0h-453l-206 305l-72 -72v-233h-404v1501h404v-362q0 -271 -25 -506q63 82 111 135l143 164h478l-371 -369z" />
    <glyph glyph-name="uni045D" unicode="&#x45d;" horiz-adv-x="1226" 
d="M651 1470l211 -376h-291l-309 358l12 18h377zM1120 932v-932h-391v141q-120 -180 -313 -180q-143 0 -226.5 98.5t-83.5 280.5v592h404v-496q0 -78 21 -109.5t65 -31.5q54 0 87.5 51t33.5 146v440h403z" />
    <glyph glyph-name="Wgrave" unicode="&#x1e80;" horiz-adv-x="2084" 
d="M1305 1565h-291l-273 256l13 18h346zM840 -6h-391l-435 1456h463l137 -659q34 -154 50 -297h4q33 188 61 299l164 655h299l164 -655q37 -144 61 -299h4q17 152 49 297l138 659h463l-433 -1456h-391l-143 553q-22 87 -60 250h-4q-16 -76 -59 -250z" />
    <glyph glyph-name="wgrave" unicode="&#x1e81;" horiz-adv-x="1654" 
d="M864 1470l211 -376h-291l-309 358l12 18h377zM676 -6h-340l-320 938h418l117 -537h4l156 535h233l156 -535h4l117 537h417l-319 -938h-340l-150 479h-4z" />
    <glyph glyph-name="Wacute" unicode="&#x1e82;" horiz-adv-x="2084" 
d="M1073 1565h-291l205 274h344l12 -18zM840 -6h-391l-435 1456h463l137 -659q34 -154 50 -297h4q33 188 61 299l164 655h299l164 -655q37 -144 61 -299h4q17 152 49 297l138 659h463l-433 -1456h-391l-143 553q-22 87 -60 250h-4q-16 -76 -59 -250z" />
    <glyph glyph-name="wacute" unicode="&#x1e83;" horiz-adv-x="1654" 
d="M915 1094h-292l211 376h376l13 -18zM676 -6h-340l-320 938h418l117 -537h4l156 535h233l156 -535h4l117 537h417l-319 -938h-340l-150 479h-4z" />
    <glyph glyph-name="Wdieresis" unicode="&#x1e84;" horiz-adv-x="2084" 
d="M649 1741q0 72 49 122t121 50t122 -50t50 -122q0 -74 -49.5 -124t-122.5 -50q-72 0 -121 50t-49 124zM1096 1741q0 72 49 122t121 50t123 -50t51 -122q0 -73 -50 -123.5t-124 -50.5q-72 0 -121 50t-49 124zM840 -6h-391l-435 1456h463l137 -659q34 -154 50 -297h4
q33 188 61 299l164 655h299l164 -655q37 -144 61 -299h4q17 152 49 297l138 659h463l-433 -1456h-391l-143 553q-22 87 -60 250h-4q-16 -76 -59 -250z" />
    <glyph glyph-name="wdieresis" unicode="&#x1e85;" horiz-adv-x="1654" 
d="M440 1249q0 72 50 123t122 51t122 -50.5t50 -123.5q0 -72 -50 -122t-122 -50q-73 0 -122.5 50t-49.5 122zM870 1249q0 72 49 123t121 51t122 -50.5t50 -123.5q0 -72 -49.5 -122t-122.5 -50q-72 0 -121 50t-49 122zM676 -6h-340l-320 938h418l117 -537h4l156 535h233
l156 -535h4l117 537h417l-319 -938h-340l-150 479h-4z" />
    <glyph glyph-name="uni1E9E" unicode="&#x1e9e;" horiz-adv-x="1472" 
d="M1315 1159l-203 -305q161 -37 245.5 -141.5t84.5 -268.5q0 -221 -134.5 -352t-367.5 -131q-173 0 -293 94l31 328l35 8q61 -69 139 -69q66 0 101.5 32t35.5 92q0 67 -60 103.5t-175 36.5h-41v215l182 286h-344v-1087h-418v1450h1182v-291z" />
    <glyph glyph-name="Ygrave" unicode="&#x1ef2;" horiz-adv-x="1433" 
d="M979 1565h-291l-272 256l12 18h346zM926 0h-418v569l-516 881h506l110 -264q60 -145 107 -285h4q65 181 106 283l111 266h506l-516 -881v-569z" />
    <glyph glyph-name="ygrave" unicode="&#x1ef3;" horiz-adv-x="1210" 
d="M659 1470l211 -376h-290l-310 358l13 18h376zM600 -446h-430l233 497l-389 881h473l119 -555h4l148 555h448z" />
    <glyph glyph-name="uni2000" unicode="&#x2000;" horiz-adv-x="1024" 
 />
    <glyph glyph-name="uni2001" unicode="&#x2001;" horiz-adv-x="2048" 
 />
    <glyph glyph-name="uni2002" unicode="&#x2002;" horiz-adv-x="1024" 
 />
    <glyph glyph-name="uni2003" unicode="&#x2003;" horiz-adv-x="2048" 
 />
    <glyph glyph-name="uni2004" unicode="&#x2004;" horiz-adv-x="681" 
 />
    <glyph glyph-name="uni2005" unicode="&#x2005;" horiz-adv-x="512" 
 />
    <glyph glyph-name="uni2006" unicode="&#x2006;" horiz-adv-x="342" 
 />
    <glyph glyph-name="uni2007" unicode="&#x2007;" horiz-adv-x="1433" 
 />
    <glyph glyph-name="uni2008" unicode="&#x2008;" horiz-adv-x="616" 
 />
    <glyph glyph-name="uni2009" unicode="&#x2009;" horiz-adv-x="409" 
 />
    <glyph glyph-name="uni200A" unicode="&#x200a;" horiz-adv-x="286" 
 />
    <glyph glyph-name="uni200B" unicode="&#x200b;" 
 />
    <glyph glyph-name="uni200C" unicode="&#x200c;" 
d="M-297 1546l223 221l51 -49l-178 -172l178 -168l-51 -51zM201 1546l-178 172l51 49l223 -221l-223 -219l-51 51zM-39 1247h74v-1605h-74v1605z" />
    <glyph glyph-name="uni200D" unicode="&#x200d;" 
d="M-276 1718l51 49l223 -221l-223 -219l-51 51l178 168zM225 1767l51 -49l-178 -172l178 -168l-51 -51l-223 219zM-39 1247h74v-1605h-74v1605z" />
    <glyph glyph-name="endash" unicode="&#x2013;" horiz-adv-x="1024" 
d="M963 315h-902v263h902v-263z" />
    <glyph glyph-name="emdash" unicode="&#x2014;" horiz-adv-x="1576" 
d="M1516 315h-1455v263h1455v-263z" />
    <glyph glyph-name="quoteleft" unicode="&#x2018;" horiz-adv-x="673" 
d="M86 868l313 621l260 -96l-217 -633l-26 -17z" />
    <glyph glyph-name="quoteright" unicode="&#x2019;" horiz-adv-x="673" 
d="M590 1364l-316 -621l-258 97l215 633l29 16z" />
    <glyph glyph-name="quotesinglbase" unicode="&#x201a;" horiz-adv-x="669" 
d="M590 274l-316 -620l-258 96l215 633l29 16z" />
    <glyph glyph-name="quotedblleft" unicode="&#x201c;" horiz-adv-x="1232" 
d="M86 868l313 621l260 -96l-217 -633l-26 -17zM643 868l315 621l259 -96l-218 -633l-26 -17z" />
    <glyph glyph-name="quotedblright" unicode="&#x201d;" horiz-adv-x="1232" 
d="M590 1364l-316 -621l-258 97l215 633l29 16zM1147 1364l-313 -621l-261 97l218 633l26 16z" />
    <glyph glyph-name="quotedblbase" unicode="&#x201e;" horiz-adv-x="1210" 
d="M590 274l-316 -620l-258 96l215 633l29 16zM1130 274l-315 -620l-258 96l217 633l27 16z" />
    <glyph glyph-name="dagger" unicode="&#x2020;" horiz-adv-x="1208" 
d="M797 -446h-385v1085h-330v354h330v455h385v-455h329v-354h-329v-1085z" />
    <glyph glyph-name="daggerdbl" unicode="&#x2021;" horiz-adv-x="1208" 
d="M797 -446h-385v374h-326v355h326v454h-326v357h326v356h385v-356h325v-357h-325v-454h325v-355h-325v-374z" />
    <glyph glyph-name="bullet" unicode="&#x2022;" horiz-adv-x="1208" 
d="M604 453q-130 0 -219.5 90t-89.5 219t89.5 219t219.5 90t219.5 -90t89.5 -219t-89.5 -219t-219.5 -90z" />
    <glyph glyph-name="ellipsis" unicode="&#x2026;" horiz-adv-x="1884" 
d="M942 -23q-99 0 -163 65.5t-64 158.5q0 94 64 155.5t163 61.5q98 0 162.5 -61.5t64.5 -155.5q0 -93 -64 -158.5t-163 -65.5zM1577 -23q-99 0 -163 65.5t-64 158.5q0 94 64 155.5t163 61.5q98 0 162.5 -61.5t64.5 -155.5q0 -93 -64 -158.5t-163 -65.5zM307 -25
q-99 0 -162 65.5t-63 160.5q0 93 63.5 154t161.5 61q99 0 163.5 -61t64.5 -154q0 -94 -64.5 -160t-163.5 -66z" />
    <glyph glyph-name="uni202F" unicode="&#x202f;" horiz-adv-x="409" 
 />
    <glyph glyph-name="perthousand" unicode="&#x2030;" horiz-adv-x="2904" 
d="M506 700q-164 0 -279.5 114.5t-115.5 275.5q0 163 115.5 276t279.5 113t278.5 -113t114.5 -276q0 -162 -115 -276t-278 -114zM707 0h-254l850 1450h253zM506 950q58 0 96.5 40t38.5 100t-38.5 100.5t-96.5 40.5q-59 0 -99 -40t-40 -101q0 -60 40 -100t99 -40zM1503 -29
q-164 0 -278.5 113t-114.5 276q0 162 115 276t278 114q164 0 279.5 -114.5t115.5 -275.5q0 -163 -115.5 -276t-279.5 -113zM2398 -29q-164 0 -278.5 113t-114.5 276q0 162 115 276t278 114q164 0 279.5 -114.5t115.5 -275.5q0 -163 -115.5 -276t-279.5 -113zM1503 219
q60 0 99.5 40t39.5 101t-39.5 100.5t-99.5 39.5q-58 0 -96.5 -40t-38.5 -100t38.5 -100.5t96.5 -40.5zM2398 219q59 0 98 40t39 101t-38.5 100.5t-98.5 39.5q-59 0 -98 -40t-39 -100t39.5 -100.5t97.5 -40.5z" />
    <glyph glyph-name="minute" unicode="&#x2032;" horiz-adv-x="587" 
d="M362 1032h-268l66 514h350z" />
    <glyph glyph-name="second" unicode="&#x2033;" horiz-adv-x="1009" 
d="M362 1032h-268l66 514h350zM784 1032h-268l66 514h350z" />
    <glyph glyph-name="guilsinglleft" unicode="&#x2039;" horiz-adv-x="712" 
d="M606 188l-211 -139l-323 453l323 452l211 -141l6 -25l-200 -286l200 -287z" />
    <glyph glyph-name="guilsinglright" unicode="&#x203a;" horiz-adv-x="735" 
d="M664 502l-324 -453l-211 139l-6 27l201 287l-201 286l6 25l211 141z" />
    <glyph glyph-name="fraction" unicode="&#x2044;" horiz-adv-x="403" 
d="M465 1546h323l-847 -1620h-326z" />
    <glyph glyph-name="uni2070" unicode="&#x2070;" horiz-adv-x="827" 
d="M412 903q-166 0 -263.5 122t-97.5 333q0 214 97 335.5t264 121.5q168 0 265 -121.5t97 -335.5q0 -212 -97 -333.5t-265 -121.5zM412 1145q90 0 90 215q0 213 -90 213q-88 0 -88 -213q0 -215 88 -215z" />
    <glyph glyph-name="uni2074" unicode="&#x2074;" horiz-adv-x="827" 
d="M692 942h-258v139h-397v189l344 516h311v-486h94v-219h-94v-139zM375 1417l-80 -117h145v72q0 104 17 191h-6q-29 -72 -76 -146z" />
    <glyph glyph-name="uni2075" unicode="&#x2075;" horiz-adv-x="827" 
d="M412 903q-320 0 -361 256l246 51l25 -12q8 -38 27.5 -56t56.5 -18q34 0 54.5 24t20.5 64q0 103 -112 103q-121 0 -224 -64l-47 19l37 512h545v-215h-322l-6 -84q60 14 107 14q133 0 212 -75t79 -201q0 -145 -91.5 -231.5t-246.5 -86.5z" />
    <glyph glyph-name="uni2076" unicode="&#x2076;" horiz-adv-x="827" 
d="M412 903q-164 0 -262.5 92t-98.5 244q0 92 46.5 183.5t156.5 222.5l174 204l195 -116l8 -27l-84 -102q-33 -38 -64 -64.5t-77 -50.5l2 -6q63 28 120 28q108 0 174 -74t66 -202q0 -152 -96 -242t-260 -90zM412 1139q39 0 63.5 26t24.5 68q0 44 -24 70t-64 26t-63 -26
t-23 -70q0 -42 23.5 -68t62.5 -26z" />
    <glyph glyph-name="uni2077" unicode="&#x2077;" horiz-adv-x="827" 
d="M145 981l271 571h-330v230h717v-27l-402 -837l-41 -15z" />
    <glyph glyph-name="uni2078" unicode="&#x2078;" horiz-adv-x="827" 
d="M416 903q-166 0 -258 72t-92 194q0 75 41 130.5t122 82.5q-133 51 -133 199q0 102 87 168t233 66q145 0 230 -66t85 -168q0 -145 -131 -199q80 -27 121 -82.5t41 -130.5q0 -122 -91.5 -194t-254.5 -72zM414 1462q27 0 44 19.5t17 56.5q0 36 -17 57t-44 21q-28 0 -45 -21
t-17 -57q0 -37 17.5 -56.5t44.5 -19.5zM416 1102q34 0 56 26t22 70q0 41 -22 67.5t-56 26.5q-37 0 -59.5 -26.5t-22.5 -67.5q0 -44 22.5 -70t59.5 -26z" />
    <glyph glyph-name="uni2079" unicode="&#x2079;" horiz-adv-x="827" 
d="M567 1073l-172 -203l-194 115l-11 29l86 100q65 75 142 117l-2 4q-72 -29 -123 -29q-108 0 -174 76t-66 207q0 149 99 237.5t266 88.5q163 0 258.5 -91t95.5 -245q0 -91 -48 -183.5t-157 -222.5zM412 1389q39 0 62.5 26t23.5 70q0 43 -23.5 69.5t-62.5 26.5
q-40 0 -65 -27t-25 -71q0 -43 24.5 -68.5t65.5 -25.5z" />
    <glyph glyph-name="uni2080" unicode="&#x2080;" horiz-adv-x="827" 
d="M412 -326q-166 0 -263.5 122t-97.5 333q0 214 97 335.5t264 121.5q168 0 265 -121.5t97 -335.5q0 -212 -97 -333.5t-265 -121.5zM412 -84q90 0 90 215q0 213 -90 213q-88 0 -88 -213q0 -215 88 -215z" />
    <glyph glyph-name="uni2081" unicode="&#x2081;" horiz-adv-x="827" 
d="M588 -287h-266v385q0 75 26 185l-6 2q-38 -35 -94 -64l-80 -47l-21 8l19 254l334 152h88v-875z" />
    <glyph glyph-name="uni2082" unicode="&#x2082;" horiz-adv-x="827" 
d="M737 -287h-694v29l336 385q50 59 69 91.5t19 66.5q0 61 -64 61q-67 0 -84 -102l-22 -11l-238 35q34 162 125.5 240t245.5 78q138 0 223.5 -76t85.5 -195q0 -95 -34.5 -170t-108.5 -143l-23 -20q-18 -15 -90 -64v-4q87 23 158 23h96v-224z" />
    <glyph glyph-name="uni2083" unicode="&#x2083;" horiz-adv-x="827" 
d="M422 -326q-337 0 -367 279l248 41l21 -12q15 -91 82 -91q32 0 51.5 23t19.5 59q0 84 -90 84h-29v164h19q44 0 68 21t24 59q0 68 -59 68q-31 0 -52.5 -19t-29.5 -51l-21 -12l-231 45q68 254 364 254q133 0 212 -65.5t79 -180.5q0 -62 -38.5 -115t-102.5 -78
q74 -19 116 -77t42 -144q0 -112 -90.5 -182t-235.5 -70z" />
    <glyph glyph-name="uni2084" unicode="&#x2084;" horiz-adv-x="827" 
d="M692 -287h-258v140h-397v188l344 516h311v-485h94v-219h-94v-140zM375 188l-80 -116h145v71q0 104 17 191h-6q-29 -72 -76 -146z" />
    <glyph glyph-name="uni2085" unicode="&#x2085;" horiz-adv-x="827" 
d="M412 -326q-320 0 -361 256l246 52l25 -13q14 -73 84 -73q34 0 54.5 24t20.5 64q0 102 -112 102q-123 0 -224 -63l-47 18l37 512h545v-215h-322l-6 -84q60 14 107 14q133 0 212 -75t79 -201q0 -145 -91.5 -231.5t-246.5 -86.5z" />
    <glyph glyph-name="uni2086" unicode="&#x2086;" horiz-adv-x="827" 
d="M412 -326q-164 0 -262.5 92t-98.5 244q0 92 46.5 183.5t156.5 222.5l174 205l195 -117l8 -27l-84 -102q-33 -38 -64 -64.5t-77 -50.5l2 -6q65 29 120 29q108 0 174 -74.5t66 -202.5q0 -152 -96 -242t-260 -90zM412 -90q39 0 63.5 26t24.5 68q0 44 -24 70t-64 26t-63 -26
t-23 -70q0 -42 23.5 -68t62.5 -26z" />
    <glyph glyph-name="uni2087" unicode="&#x2087;" horiz-adv-x="827" 
d="M145 -248l271 572h-330v229h717v-27l-402 -837l-41 -15z" />
    <glyph glyph-name="uni2088" unicode="&#x2088;" horiz-adv-x="827" 
d="M416 -326q-166 0 -258 72.5t-92 194.5q0 75 41 130.5t122 82.5q-133 51 -133 198q0 102 87 168t233 66q145 0 230 -66t85 -168q0 -144 -131 -198q80 -27 121 -82.5t41 -130.5q0 -122 -91.5 -194.5t-254.5 -72.5zM414 233q27 0 44 19.5t17 56.5q0 36 -17 57t-44 21
q-28 0 -45 -21t-17 -57q0 -37 17.5 -56.5t44.5 -19.5zM416 -127q34 0 56 26t22 70q0 41 -22 67.5t-56 26.5q-37 0 -59.5 -26.5t-22.5 -67.5q0 -44 22.5 -70t59.5 -26z" />
    <glyph glyph-name="uni2089" unicode="&#x2089;" horiz-adv-x="827" 
d="M567 -156l-172 -202l-194 114l-11 29l86 100q65 75 142 117l-2 4q-72 -29 -123 -29q-108 0 -174 76t-66 207q0 149 99 237.5t266 88.5q163 0 258.5 -91t95.5 -245q0 -91 -48 -183.5t-157 -222.5zM412 160q39 0 62.5 26t23.5 70q0 43 -23.5 69.5t-62.5 26.5q-40 0 -65 -27
t-25 -71q0 -43 24.5 -68.5t65.5 -25.5z" />
    <glyph glyph-name="lira" unicode="&#x20a4;" horiz-adv-x="1433" 
d="M1049 504h-279q-6 -82 -51 -127h604l-43 -377h-1120v377h155q37 51 37 127h-190v145h190v105h-190v143h190v72q0 80 19.5 155t61.5 142t102 116t146 78t189 29q296 0 461 -158l-235 -276l-21 4q-60 67 -160 67q-75 0 -110 -52t-35 -140v-37h279v-143h-279v-105h279v-145z
" />
    <glyph glyph-name="Euro" unicode="&#x20ac;" horiz-adv-x="1433" 
d="M1049 442l38 7l308 -209q-67 -124 -219 -201.5t-355 -77.5q-235 0 -411.5 151t-233.5 402h-149l43 131h88q-4 54 -4 80v33h-107l43 131h78q30 181 126.5 317.5t242.5 209.5t321 73q181 0 332 -80t215 -211l-324 -194l-37 8q-73 84 -180 84q-79 0 -140 -55t-89 -152h336
l-39 -131h-320v-33q0 -30 4 -80h273l-39 -131h-201q31 -76 87.5 -118t131.5 -42q60 0 102.5 21.5t78.5 66.5z" />
    <glyph glyph-name="uni2113" unicode="&#x2113;" horiz-adv-x="1107" 
d="M852 369l20 2l123 -281q-159 -129 -354 -129q-188 0 -300.5 77.5t-143.5 227.5l-52 -35l-102 166l141 97v538q0 215 117 336t326 121q172 0 268 -81.5t96 -229.5q0 -367 -399 -648v-71q0 -67 33 -105.5t90 -38.5q40 0 70 12.5t67 41.5zM674 1292q-39 0 -60.5 -40.5
t-21.5 -116.5v-359q158 131 158 381q0 62 -21 98.5t-55 36.5z" />
    <glyph glyph-name="uni2116" unicode="&#x2116;" horiz-adv-x="2279" 
d="M1878 891q-140 0 -233 85t-93 212q0 128 92.5 213.5t233.5 85.5q139 0 231.5 -85.5t92.5 -213.5q0 -127 -93 -212t-231 -85zM1391 -6h-390l-292 475q-107 178 -199 354h-4q43 -245 43 -403v-420h-416v1450h434l256 -436q74 -126 187 -359h4q-41 231 -41 404v391h418
v-1456zM1878 1096q34 0 58 26t24 66q0 43 -22.5 68.5t-59.5 25.5t-59.5 -25.5t-22.5 -68.5q0 -41 23 -66.5t59 -25.5zM2175 508h-594v197h594v-197z" />
    <glyph glyph-name="uni2117" unicode="&#x2117;" horiz-adv-x="1845" 
d="M924 -39q-160 0 -302.5 59.5t-244.5 161.5t-161.5 243t-59.5 298q0 158 59.5 300t161.5 244t244.5 162t302.5 60q159 0 301.5 -60t244 -162t161 -244t59.5 -300q0 -157 -59.5 -298t-161 -243t-244 -161.5t-301.5 -59.5zM918 106q170 0 312.5 83t224 224.5t81.5 309.5
q0 126 -47.5 240.5t-128.5 198t-195 132.5t-241 49q-170 0 -311.5 -83t-222.5 -225.5t-81 -311.5q0 -168 79.5 -309.5t219.5 -224.5t310 -83zM905 287h-248v848h316q340 0 340 -289q0 -132 -79.5 -206.5t-227.5 -74.5h-101v-278zM905 940v-184h60q58 0 85 22t27 68
q0 49 -26.5 71.5t-85.5 22.5h-60z" />
    <glyph glyph-name="trademark" unicode="&#x2122;" horiz-adv-x="2048" 
d="M580 606h-228v649h-237v195h700v-195h-235v-649zM1165 606h-217v844h275l223 -428h4l213 428h270v-844h-217v572h-4l-264 -498h-23l-256 498h-4v-572z" />
    <glyph glyph-name="uni2126" unicode="&#x2126;" horiz-adv-x="1742" 
d="M1659 807q0 -258 -199 -428h182v-379h-675v365q96 0 177 105.5t81 258.5q0 163 -101.5 268t-253.5 105t-253 -105t-101 -268q0 -153 81.5 -258.5t178.5 -105.5v-365h-676v379h181q-199 170 -199 428q0 137 57.5 261.5t158.5 217.5t250 148t322 55q174 0 323 -55
t250.5 -148t158.5 -217.5t57 -261.5z" />
    <glyph glyph-name="estimated" unicode="&#x212e;" horiz-adv-x="1394" 
d="M1294 530h-917v-266q0 -51 50 -102t128.5 -83t155.5 -32q118 0 222 49.5t171 143.5l16 6l70 -51q-68 -104 -198 -163t-283 -59q-116 0 -226.5 43t-195.5 118.5t-137 187t-52 239.5q0 263 171 424.5t442 161.5q131 0 241.5 -43.5t185 -118.5t116.5 -176.5t42 -216.5
q0 -42 -2 -62zM377 604h649v252q-7 82 -98.5 150.5t-227.5 68.5q-138 0 -228 -69.5t-95 -149.5v-252z" />
    <glyph glyph-name="oneeighth" unicode="&#x215b;" horiz-adv-x="1994" 
d="M1184 1546h323l-848 -1620h-325zM532 610h-264v385q0 80 25 185l-6 2q-38 -35 -94 -64l-80 -47l-21 8l19 254l333 152h88v-875zM1534 -39q-165 0 -257.5 72t-92.5 194q0 75 41 130.5t123 82.5q-134 52 -134 199q0 102 87 167.5t233 65.5t231.5 -65.5t85.5 -167.5
q0 -144 -131 -199q80 -27 121 -82.5t41 -130.5q0 -122 -92 -194t-256 -72zM1532 520q28 0 44.5 19.5t16.5 56.5q0 36 -16.5 57t-44.5 21q-27 0 -43 -21t-16 -57q0 -37 16 -56.5t43 -19.5zM1534 160q36 0 58 26t22 70q0 41 -22.5 67.5t-57.5 26.5t-58.5 -26.5t-23.5 -67.5
q0 -44 23 -70t59 -26z" />
    <glyph glyph-name="threeeighths" unicode="&#x215c;" horiz-adv-x="1994" 
d="M1266 1546h323l-848 -1620h-325zM393 573q-334 0 -368 279l247 41l23 -12q12 -90 82 -90q32 0 50.5 22.5t18.5 58.5q0 84 -90 84h-28v164h18q44 0 69 21t25 59q0 32 -15.5 50t-43.5 18q-32 0 -53 -18.5t-29 -51.5l-23 -12l-229 45q68 254 363 254q134 0 212 -65.5
t78 -180.5q0 -62 -38.5 -114.5t-102.5 -77.5q74 -19 117 -77.5t43 -144.5q0 -112 -91.5 -182t-234.5 -70zM1616 -39q-166 0 -258 72t-92 194q0 75 41 130.5t123 82.5q-134 51 -134 199q0 102 87 167.5t233 65.5q145 0 230 -65.5t85 -167.5q0 -145 -131 -199
q80 -27 121 -82.5t41 -130.5q0 -122 -91.5 -194t-254.5 -72zM1614 520q27 0 43 19.5t16 56.5q0 36 -16 57t-43 21q-28 0 -45 -21t-17 -57q0 -37 17.5 -56.5t44.5 -19.5zM1616 160q34 0 56 26t22 70q0 41 -22 67.5t-56 26.5q-37 0 -59.5 -26.5t-22.5 -67.5q0 -44 22.5 -70
t59.5 -26z" />
    <glyph glyph-name="fiveeighths" unicode="&#x215d;" horiz-adv-x="1994" 
d="M1266 1546h323l-848 -1620h-325zM391 571q-319 0 -360 256l248 52l24 -13q8 -39 27 -56t55 -17q34 0 55 24t21 64q0 102 -113 102q-124 0 -221 -63l-47 18l35 512h547v-215h-324l-4 -84q57 14 106 14q133 0 211 -75t78 -201q0 -145 -91.5 -231.5t-246.5 -86.5zM1618 -39
q-165 0 -257.5 72t-92.5 194q0 75 41 130.5t123 82.5q-134 52 -134 199q0 102 87 167.5t233 65.5t231.5 -65.5t85.5 -167.5q0 -144 -131 -199q80 -27 121 -82.5t41 -130.5q0 -122 -92 -194t-256 -72zM1616 520q28 0 44.5 19.5t16.5 56.5q0 36 -17 57t-44 21t-43.5 -21
t-16.5 -57q0 -37 16.5 -56.5t43.5 -19.5zM1618 160q35 0 57.5 26.5t22.5 69.5q0 41 -22.5 67.5t-57.5 26.5t-58.5 -26.5t-23.5 -67.5q0 -44 23 -70t59 -26z" />
    <glyph glyph-name="seveneighths" unicode="&#x215e;" horiz-adv-x="1994" 
d="M1174 1546h323l-848 -1620h-325zM162 649l270 572h-330v229h717v-27l-401 -837l-41 -15zM1530 -39q-166 0 -258 72t-92 194q0 75 41 130.5t122 82.5q-133 51 -133 199q0 102 86 167.5t234 65.5q145 0 230 -65.5t85 -167.5q0 -144 -131 -199q80 -27 121 -82.5t41 -130.5
q0 -122 -91.5 -194t-254.5 -72zM1528 520q27 0 43 19.5t16 56.5q0 36 -16 57t-43 21q-28 0 -45 -21t-17 -57q0 -37 17.5 -56.5t44.5 -19.5zM1530 160q34 0 56 26t22 70q0 41 -22 67.5t-56 26.5q-37 0 -59.5 -26.5t-22.5 -67.5q0 -44 22.5 -70t59.5 -26z" />
    <glyph glyph-name="arrowleft" unicode="&#x2190;" horiz-adv-x="1857" 
d="M952 219l-178 -180l-647 670l647 669l178 -180v-16l-207 -201q-65 -63 -170 -141l3 -4q84 8 227 8h926v-269h-926q-133 0 -227 9l-3 -4q87 -65 170 -142l207 -202v-17z" />
    <glyph glyph-name="arrowup" unicode="&#x2191;" horiz-adv-x="1675" 
d="M838 1489l669 -649l-180 -176h-16l-203 206q-56 58 -141 168l-4 -2q8 -81 8 -225v-926h-269v926q0 133 9 225l-4 2q-81 -105 -142 -168l-203 -206h-16l-178 176z" />
    <glyph glyph-name="arrowright" unicode="&#x2192;" horiz-adv-x="1857" 
d="M1731 709l-648 -670l-178 180v17l207 202q83 77 170 142l-2 4q-94 -9 -227 -9h-926v269h926q143 0 227 -8l2 4q-105 78 -170 141l-207 201v16l178 180z" />
    <glyph glyph-name="arrowdown" unicode="&#x2193;" horiz-adv-x="1675" 
d="M1327 711l180 -179l-669 -647l-670 647l178 179h16l203 -207q67 -70 142 -170l4 2q-9 94 -9 227v926h269v-926q0 -143 -8 -227l4 -2q78 105 141 170l203 207h16z" />
    <glyph glyph-name="arrowboth" unicode="&#x2194;" horiz-adv-x="2705" 
d="M1753 1198l178 180l647 -669l-647 -670l-178 180v17l207 202q100 90 170 142l-2 4q-95 -9 -227 -9h-1096q-133 0 -227 9l-3 -4q87 -65 170 -142l207 -202v-17l-178 -180l-647 670l647 669l178 -180v-16l-207 -201q-65 -63 -170 -141l3 -4q84 8 227 8h1096q143 0 227 -8
l2 4q-94 70 -170 141l-207 201v16z" />
    <glyph glyph-name="arrowupdn" unicode="&#x2195;" horiz-adv-x="1675" 
d="M346 1110l-178 178l670 647l669 -647l-180 -178h-16l-203 207q-63 65 -141 170l-4 -2q8 -84 8 -228v-1095q0 -142 -8 -230l4 -2q73 102 141 172l203 207h16l180 -178l-669 -649l-670 649l178 178h16l203 -207q72 -74 142 -172l4 2q-9 99 -9 230v1095q0 133 9 228l-4 2
q-75 -100 -142 -170l-203 -207h-16z" />
    <glyph glyph-name="uni2196" unicode="&#x2196;" horiz-adv-x="1560" 
d="M440 322h-252l17 931l932 17l-2 -254l-11 -10l-290 4q-98 0 -220 18v-4q27 -24 87 -81t77 -73l656 -655l-191 -188l-655 653q-93 92 -154 166l-4 -2q19 -127 21 -219l2 -289z" />
    <glyph glyph-name="uni2197" unicode="&#x2197;" horiz-adv-x="1560" 
d="M1356 1253l16 -931h-252l-12 14l2 289q2 100 20 219l-4 2q-67 -80 -153 -166l-658 -653l-188 188l655 655q17 16 77 73t87 81v4q-122 -18 -219 -18l-291 -4l-10 10l-2 254z" />
    <glyph glyph-name="uni2198" unicode="&#x2198;" horiz-adv-x="1560" 
d="M1120 973h252l-16 -932l-932 -14l2 252l10 10l291 -4q90 0 219 -19v4q-22 19 -164 156l-655 653l188 191l658 -656q92 -92 153 -165l4 2q-18 119 -20 219l-2 288z" />
    <glyph glyph-name="uni2199" unicode="&#x2199;" horiz-adv-x="1560" 
d="M205 41l-17 932h252l13 -15l-2 -288q-2 -92 -21 -219l4 -2q56 67 154 165l655 656l191 -191l-656 -653q-142 -137 -164 -156v-4q129 19 220 19l290 4l11 -10l2 -252z" />
    <glyph glyph-name="partialdiff" unicode="&#x2202;" horiz-adv-x="1433" 
d="M717 1489q143 0 251 -68t171 -186t93 -264.5t28 -317.5q-4 -335 -161 -513.5t-435 -178.5q-136 0 -247.5 59t-179 172.5t-67.5 260.5q0 186 115.5 321t285.5 135q175 0 301 -129q-7 194 -66.5 296t-162.5 102q-100 0 -197 -109l-18 -2l-217 154q73 121 206 194.5
t300 73.5zM707 289q77 0 122 58t35 151q-63 86 -168 86q-56 0 -95.5 -39.5t-39.5 -106.5q0 -63 41.5 -106t104.5 -43z" />
    <glyph glyph-name="emptyset" unicode="&#x2205;" horiz-adv-x="1433" 
d="M1208 1257l142 -139l-156 -155q102 -142 102 -330q0 -160 -76.5 -291.5t-209.5 -207t-295 -75.5q-182 0 -330 95l-162 -162l-141 139l162 162q-107 148 -107 340q0 241 166 403t412 162q190 0 336 -98zM444 633q0 -59 23 -117l371 371q-58 28 -121 28q-116 0 -194.5 -81
t-78.5 -201zM989 633q0 60 -20 104l-367 -366q55 -25 115 -25q118 0 195 81t77 206z" />
    <glyph glyph-name="product" unicode="&#x220f;" horiz-adv-x="1513" 
d="M545 -446h-418v1529h-107v367h1473v-367h-107v-1529h-417v1529h-424v-1529z" />
    <glyph glyph-name="summation" unicode="&#x2211;" horiz-adv-x="1325" 
d="M1298 -446h-1271v315l542 672l-520 594v313h1227v-367h-694l456 -540l-491 -621h751v-366z" />
    <glyph glyph-name="minus" unicode="&#x2212;" horiz-adv-x="1433" 
d="M1257 494h-1081v258h1081v-258z" />
    <glyph glyph-name="uni2215" unicode="&#x2215;" horiz-adv-x="790" 
d="M590 1546h358l-745 -1620h-361z" />
    <glyph glyph-name="uni2219" unicode="&#x2219;" horiz-adv-x="901" 
d="M451 399q-99 0 -163.5 66t-64.5 160q0 93 65 155t163 62q99 0 163 -62t64 -155q0 -94 -64 -160t-163 -66z" />
    <glyph glyph-name="radical" unicode="&#x221a;" horiz-adv-x="1380" 
d="M893 -6h-483l-228 569h-149v369h461l151 -506h10l228 1024h493z" />
    <glyph glyph-name="infinity" unicode="&#x221e;" horiz-adv-x="1728" 
d="M481 233q-169 0 -278 108t-109 277q0 168 106.5 275.5t272.5 107.5q107 0 199 -49.5t192 -158.5q98 109 190.5 158.5t198.5 49.5q167 0 274 -107t107 -276q0 -168 -109.5 -276.5t-277.5 -108.5q-103 0 -191.5 45.5t-191.5 151.5q-105 -106 -193 -151.5t-190 -45.5z
M483 492q91 0 213 122q-134 129 -219 129q-49 0 -82 -36.5t-33 -90.5q0 -57 32.5 -90.5t88.5 -33.5zM1245 492q56 0 88.5 33.5t32.5 90.5q0 54 -33 90.5t-82 36.5q-84 0 -219 -129q122 -122 213 -122z" />
    <glyph glyph-name="integral" unicode="&#x222b;" horiz-adv-x="1433" 
d="M563 174v862q0 145 15 235t55 149t105 82.5t169 23.5q49 0 111 -10.5t96 -22.5v-276l-35 -13q-51 29 -106 29t-79 -49t-24 -178v-863q0 -145 -15 -235t-55 -149t-105 -82t-169 -23q-49 0 -111 10.5t-96 22.5v276l35 12q49 -28 107 -28q55 0 78.5 49t23.5 178z" />
    <glyph glyph-name="approxequal" unicode="&#x2248;" horiz-adv-x="1433" 
d="M342 662l-20 -5l-183 117q155 283 363 283q72 0 133 -21t96.5 -46.5t84 -46.5t99.5 -21q109 0 177 129l20 4l182 -117q-154 -281 -362 -281q-68 0 -129.5 21t-100 46t-89.5 46t-99 21q-106 0 -172 -129zM342 199l-20 -4l-183 116q154 281 363 281q72 0 133 -21
t96.5 -45.5t84 -45.5t99.5 -21q111 0 177 129l20 4l182 -117q-154 -282 -362 -282q-68 0 -129.5 21t-100 46.5t-89.5 46.5t-99 21q-104 0 -172 -129z" />
    <glyph glyph-name="notequal" unicode="&#x2260;" horiz-adv-x="1433" 
d="M1282 958v-260h-399l-68 -149h467v-260h-584l-106 -238h-262l106 238h-284v260h401l68 149h-469v260h583l107 236h262l-107 -236h285z" />
    <glyph glyph-name="lessequal" unicode="&#x2264;" horiz-adv-x="1433" 
d="M184 987l1065 379v-289l-663 -209l663 -211v-288l-1065 379v239zM1249 0h-1065v260h1065v-260z" />
    <glyph glyph-name="greaterequal" unicode="&#x2265;" horiz-adv-x="1433" 
d="M184 1077v289l1065 -379v-239l-1065 -379v288l664 211zM1249 0h-1065v260h1065v-260z" />
    <glyph glyph-name="lozenge" unicode="&#x25ca;" horiz-adv-x="1433" 
d="M840 -39h-256l-373 764l375 764h254l381 -764zM522 725l189 -416l194 416l-194 418z" />
    <glyph glyph-name="fi" unicode="&#xfb01;" horiz-adv-x="1386" 
d="M762 1190l-21 -10q-37 16 -71 16q-45 0 -64.5 -31t-19.5 -104v-129h168v-297h-168v-635h-404v635h-157v297h157v127q0 248 89 357.5t286 109.5q116 0 221 -31zM1081 1075q-101 0 -165 57t-64 148t63 146t166 55q101 0 164.5 -56t63.5 -145q0 -91 -63.5 -148t-164.5 -57z
M1282 0h-403v932h403v-932z" />
    <glyph glyph-name="fl" unicode="&#xfb02;" horiz-adv-x="1396" 
d="M762 1190l-21 -10q-37 16 -71 16q-45 0 -64.5 -31t-19.5 -104v-129h168v-297h-168v-635h-404v635h-157v297h157v127q0 248 89 357.5t286 109.5q116 0 221 -31zM1292 0h-403v1501h403v-1501z" />
    <glyph glyph-name="i.loclTRK" horiz-adv-x="616" 
d="M309 1057q-101 0 -165 57t-64 148q0 89 63 144.5t166 55.5t165.5 -55.5t62.5 -146.5q0 -89 -63.5 -146t-164.5 -57zM510 0h-404v932h404v-932z" />
    <glyph glyph-name="zero.osf" horiz-adv-x="1157" 
d="M580 -39q-165 0 -281.5 70t-172.5 188.5t-56 274.5q0 240 132 386t378 146q125 0 222.5 -39.5t159 -111t93.5 -168t32 -213.5q0 -116 -32 -213t-93.5 -168.5t-159 -111.5t-222.5 -40zM580 240q120 0 120 256q0 252 -120 252q-123 0 -123 -252q0 -256 123 -256z" />
    <glyph glyph-name="one.osf" horiz-adv-x="843" 
d="M735 0h-440l-2 264q0 58 23 156t55 180l-9 4q-85 -85 -167 -135l-107 -66l-33 15l29 370l494 236h157v-1024z" />
    <glyph glyph-name="two.osf" horiz-adv-x="1007" 
d="M989 0h-977v39l463 442q57 55 78.5 94t21.5 80q0 35 -21 58.5t-58 23.5q-92 0 -119 -121l-37 -14l-320 45q37 184 165.5 281.5t344.5 97.5q207 0 321 -85.5t114 -233.5q0 -94 -38 -163t-134 -155l-13 -12q-71 -59 -141 -98l2 -7q119 33 217 33h131v-305z" />
    <glyph glyph-name="three.osf" horiz-adv-x="1064" 
d="M557 -336q-247 0 -386.5 106t-164.5 314l356 59l37 -16q10 -86 43 -124t90 -38q53 0 83 36.5t30 102.5q0 138 -143 138h-41v239h24q71 0 110.5 34t39.5 99q0 58 -26 86.5t-72 28.5q-107 0 -127 -135l-37 -16l-334 63q50 189 186.5 287t354.5 98q194 0 313 -97t119 -261
q0 -99 -58 -178.5t-157 -114.5q116 -31 179.5 -116.5t63.5 -209.5q0 -169 -135.5 -277t-347.5 -108z" />
    <glyph glyph-name="four.osf" horiz-adv-x="1218" 
d="M1049 -317h-428v317h-605v254l543 737h490v-686h147v-305h-147v-317zM537 502l-131 -197h231v123q0 124 27 266h-9q-79 -133 -118 -192z" />
    <glyph glyph-name="five.osf" horiz-adv-x="1040" 
d="M516 -336q-232 0 -366 97.5t-162 287.5l350 72l37 -17q13 -64 45.5 -92t91.5 -28q53 0 86 39t33 104q0 77 -43 119.5t-125 42.5q-181 0 -332 -99l-72 25l52 772h811v-303h-486l-10 -156q106 27 168 27q195 0 313.5 -114.5t118.5 -303.5q0 -215 -139 -344t-371 -129z" />
    <glyph glyph-name="six.osf" horiz-adv-x="1189" 
d="M600 -39q-241 0 -385.5 135.5t-144.5 358.5q0 137 70 276.5t229 327.5l256 307l276 -166l12 -39l-125 -151q-38 -44 -61.5 -69.5t-63 -57.5t-85.5 -58l4 -8q96 45 182 45q162 0 260 -111t98 -300q0 -224 -141.5 -357t-380.5 -133zM600 295q63 0 101 43t38 111
q0 69 -38.5 111t-102.5 42q-63 0 -101 -42t-38 -111t38.5 -111.5t102.5 -42.5z" />
    <glyph glyph-name="seven.osf" horiz-adv-x="1015" 
d="M141 -240l406 922h-514v305h1026v-43l-586 -1261l-67 -23z" />
    <glyph glyph-name="eight.osf" horiz-adv-x="1155" 
d="M578 -39q-247 0 -385 110t-138 294q0 117 63.5 201t186.5 126q-201 72 -201 297q0 157 128 258t346 101q217 0 345 -101t128 -258q0 -105 -51 -181.5t-152 -115.5q124 -42 187 -126t63 -201q0 -185 -137 -294.5t-383 -109.5zM575 809q45 0 73 33t28 90q0 58 -27.5 91.5
t-73.5 33.5t-73 -33.5t-27 -91.5t27 -90.5t73 -32.5zM578 248q60 0 96.5 41.5t36.5 113.5q0 71 -37 112.5t-96 41.5q-60 0 -96 -41t-36 -113t36.5 -113.5t95.5 -41.5z" />
    <glyph glyph-name="nine.osf" horiz-adv-x="1191" 
d="M827 -78l-231 -266l-272 164l-13 39l92 112q47 55 67.5 77.5t68 61t108.5 72.5l-4 8q-131 -63 -213 -63q-162 0 -261 112.5t-99 301.5q0 225 143 356t391 131q232 0 375 -135.5t143 -357.5q0 -142 -68 -286t-227 -327zM594 387q64 0 102.5 42.5t38.5 111.5t-39 111
t-102 42t-102 -42.5t-39 -110.5q0 -69 38.5 -111.5t102.5 -42.5z" />
    <glyph glyph-name="zero.tf" horiz-adv-x="1433" 
d="M717 -39q-281 0 -442.5 204.5t-161.5 559.5t161.5 559.5t442.5 204.5t442.5 -204.5t161.5 -559.5t-161.5 -559.5t-442.5 -204.5zM717 352q164 0 164 373t-164 373t-164 -373t164 -373z" />
    <glyph glyph-name="one.tf" horiz-adv-x="1433" 
d="M1030 1487v-1133h225v-354h-915v354h262v336q0 133 39 299l-6 2q-64 -53 -156 -106l-139 -78l-35 14l29 408l555 258h141z" />
    <glyph glyph-name="two.tf" horiz-adv-x="1433" 
d="M1274 0h-1159v47l549 629q96 104 136 173t40 136q0 53 -32 85t-89 32q-124 0 -158 -184l-39 -17l-381 53q55 273 208.5 404t412.5 131q232 0 375 -128t143 -329q0 -157 -63.5 -289.5t-194.5 -257.5l-43 -41q-49 -46 -148 -110l3 -8q138 36 258 36h182v-362z" />
    <glyph glyph-name="three.tf" horiz-adv-x="1433" 
d="M752 -39q-561 0 -617 471l397 68l39 -21q23 -160 154 -160q61 0 97 41.5t36 110.5q0 67 -44 104t-122 37h-49v265h31q82 0 126 36.5t44 104.5q0 57 -30.5 88t-84.5 31q-58 0 -95.5 -34t-49.5 -95l-39 -21l-371 72q56 212 209 321t397 109q223 0 355.5 -108.5
t132.5 -290.5q0 -111 -65 -201.5t-175 -130.5q124 -31 197 -129.5t73 -235.5q0 -192 -152 -312t-394 -120z" />
    <glyph glyph-name="four.tf" horiz-adv-x="1433" 
d="M1178 0h-418v264h-680v299l606 891h492v-836h161v-354h-161v-264zM659 844l-155 -226h266v138q0 174 27 329h-6q-38 -88 -132 -241z" />
    <glyph glyph-name="five.tf" horiz-adv-x="1433" 
d="M733 -39q-535 0 -600 430l399 82l39 -20q13 -70 49.5 -102t104.5 -32q67 0 107 44.5t40 119.5q0 89 -52.5 138t-151.5 49q-205 0 -373 -111l-80 29l59 862h916v-346h-551l-12 -166q104 29 188 29q224 0 357 -128.5t133 -342.5q0 -246 -154.5 -390.5t-417.5 -144.5z" />
    <glyph glyph-name="six.tf" horiz-adv-x="1433" 
d="M719 -39q-272 0 -436 154t-164 409q0 155 77 309.5t263 376.5l295 353l315 -187l14 -45l-149 -178q-61 -72 -112.5 -118.5t-125.5 -88.5l4 -8q108 51 205 51q187 0 298.5 -127.5t111.5 -343.5q0 -256 -161 -406.5t-435 -150.5zM721 342q71 0 115.5 48.5t44.5 127.5
q0 80 -43.5 127t-116.5 47q-74 0 -118 -47.5t-44 -128.5q0 -79 44 -126.5t118 -47.5z" />
    <glyph glyph-name="seven.tf" horiz-adv-x="1433" 
d="M297 88l473 989h-569v373h1194v-43l-684 -1421l-68 -25z" />
    <glyph glyph-name="eight.tf" horiz-adv-x="1433" 
d="M717 -37q-276 0 -430 121t-154 322q0 127 70.5 219t208.5 139q-226 87 -226 328q0 174 143.5 285.5t387.5 111.5t387 -111.5t143 -285.5q0 -239 -225 -328q138 -47 208 -138.5t70 -219.5q0 -201 -153.5 -322t-429.5 -121zM715 895q53 0 83.5 36t30.5 99t-30.5 98
t-83.5 35t-84 -35.5t-31 -97.5q0 -63 31 -99t84 -36zM717 283q66 0 107.5 45.5t41.5 120.5q0 76 -40.5 120.5t-108.5 44.5t-109 -44.5t-41 -120.5q0 -75 42 -120.5t108 -45.5z" />
    <glyph glyph-name="nine.tf" horiz-adv-x="1433" 
d="M973 240l-295 -353l-316 189l-14 45l150 176q62 72 112.5 118.5t124.5 88.5l-4 8q-108 -51 -205 -51q-187 0 -298 128.5t-111 350.5q0 251 163.5 400t442.5 149q271 0 432.5 -153t161.5 -410q0 -157 -80 -314t-264 -372zM713 758q72 0 115.5 48t43.5 128
q0 79 -43.5 126.5t-115.5 47.5t-117 -48t-45 -126q0 -82 43.5 -129t118.5 -47z" />
    <glyph glyph-name="zero.dnom" horiz-adv-x="827" 
d="M412 -39q-166 0 -263.5 122t-97.5 333q0 214 97 335t264 121q168 0 265 -121t97 -335q0 -212 -97 -333.5t-265 -121.5zM412 203q90 0 90 215q0 213 -90 213q-88 0 -88 -213q0 -215 88 -215z" />
    <glyph glyph-name="one.dnom" horiz-adv-x="827" 
d="M588 0h-266v385q0 74 26 184l-6 2q-36 -33 -94 -63l-80 -47l-21 8l19 254l334 151h88v-874z" />
    <glyph glyph-name="two.dnom" horiz-adv-x="827" 
d="M737 0h-694v29l336 385q50 59 69 91t19 66q0 29 -16.5 45.5t-47.5 16.5q-66 0 -84 -103l-22 -10l-238 35q34 162 125 239.5t246 77.5q139 0 224 -75.5t85 -194.5q0 -95 -34.5 -170t-108.5 -143l-23 -21q-12 -11 -90 -63v-4q83 22 158 22h96v-223z" />
    <glyph glyph-name="three.dnom" horiz-adv-x="827" 
d="M422 -39q-337 0 -367 279l248 41l21 -13q15 -90 82 -90q32 0 51.5 23t19.5 59q0 84 -90 84h-29v164h19q44 0 68 21t24 59q0 67 -59 67q-31 0 -53 -18.5t-29 -50.5l-21 -13l-231 45q68 254 364 254q133 0 212 -65.5t79 -179.5q0 -62 -38.5 -115t-102.5 -78q74 -19 116 -77
t42 -144q0 -112 -90.5 -182t-235.5 -70z" />
    <glyph glyph-name="four.dnom" horiz-adv-x="827" 
d="M692 0h-258v139h-397v189l344 516h311v-486h94v-219h-94v-139zM375 475l-80 -117h145v72q0 104 17 191h-6q-29 -72 -76 -146z" />
    <glyph glyph-name="five.dnom" horiz-adv-x="827" 
d="M412 -39q-320 0 -361 256l246 51l25 -12q8 -38 27.5 -56t56.5 -18q34 0 54.5 24t20.5 64q0 103 -112 103q-121 0 -224 -64l-47 19l37 512h545v-215h-322l-6 -84q60 14 107 14q133 0 212 -75t79 -201q0 -145 -91.5 -231.5t-246.5 -86.5z" />
    <glyph glyph-name="six.dnom" horiz-adv-x="827" 
d="M412 -39q-164 0 -262.5 92t-98.5 244q0 92 46 183t157 222l174 205l195 -116l8 -27l-84 -102q-33 -38 -64 -64.5t-77 -50.5l2 -6q63 28 120 28q108 0 174 -74t66 -202q0 -152 -96 -242t-260 -90zM412 197q39 0 63.5 26t24.5 68q0 44 -24 70t-64 26t-63 -26t-23 -70
q0 -42 23.5 -68t62.5 -26z" />
    <glyph glyph-name="seven.dnom" horiz-adv-x="827" 
d="M145 39l271 571h-330v230h717v-27l-402 -838l-41 -14z" />
    <glyph glyph-name="eight.dnom" horiz-adv-x="827" 
d="M416 -39q-166 0 -258 72t-92 194q0 75 41 130.5t122 82.5q-133 51 -133 199q0 102 87 167.5t233 65.5q145 0 230 -65.5t85 -167.5q0 -145 -131 -199q80 -27 121 -82.5t41 -130.5q0 -122 -91.5 -194t-254.5 -72zM414 520q27 0 44 19.5t17 56.5q0 36 -17 57t-44 21
q-28 0 -45 -21t-17 -57q0 -37 17.5 -56.5t44.5 -19.5zM416 160q34 0 56 26t22 70q0 41 -22 67.5t-56 26.5q-37 0 -59.5 -26.5t-22.5 -67.5q0 -44 22.5 -70t59.5 -26z" />
    <glyph glyph-name="nine.dnom" horiz-adv-x="827" 
d="M567 131l-172 -203l-194 115l-11 29l86 100q65 75 142 117l-2 4q-72 -29 -123 -29q-108 0 -174 76t-66 207q0 149 99 237t266 88q163 0 258.5 -90.5t95.5 -244.5q0 -91 -48 -183.5t-157 -222.5zM412 446q38 0 62 26.5t24 70.5q0 43 -23.5 69.5t-62.5 26.5q-40 0 -65 -27
t-25 -71q0 -43 24.5 -69t65.5 -26z" />
    <glyph glyph-name="zero.numr" horiz-adv-x="827" 
d="M412 571q-166 0 -263.5 122t-97.5 333q0 214 97 335.5t264 121.5q168 0 265 -121.5t97 -335.5q0 -212 -97 -333.5t-265 -121.5zM412 813q90 0 90 215q0 213 -90 213q-88 0 -88 -213q0 -215 88 -215z" />
    <glyph glyph-name="one.numr" horiz-adv-x="827" 
d="M588 610h-266v385q0 75 26 185l-6 2q-38 -35 -94 -64l-80 -47l-21 8l19 254l334 152h88v-875z" />
    <glyph glyph-name="two.numr" horiz-adv-x="827" 
d="M737 610h-694v29l336 385q50 59 69 91.5t19 66.5q0 61 -64 61q-67 0 -84 -102l-22 -11l-238 35q34 162 125.5 240t245.5 78q138 0 223.5 -76t85.5 -195q0 -95 -34.5 -170t-108.5 -143l-23 -20q-18 -15 -90 -64v-4q87 23 158 23h96v-224z" />
    <glyph glyph-name="three.numr" horiz-adv-x="827" 
d="M422 571q-337 0 -367 279l248 41l21 -12q15 -91 82 -91q32 0 51.5 23t19.5 59q0 84 -90 84h-29v164h19q44 0 68 21t24 59q0 68 -59 68q-31 0 -52.5 -19t-29.5 -51l-21 -12l-231 45q68 254 364 254q133 0 212 -65.5t79 -180.5q0 -62 -38.5 -115t-102.5 -78q74 -19 116 -77
t42 -144q0 -112 -90.5 -182t-235.5 -70z" />
    <glyph glyph-name="four.numr" horiz-adv-x="827" 
d="M692 610h-258v140h-397v188l344 516h311v-485h94v-219h-94v-140zM375 1085l-80 -116h145v71q0 104 17 191h-6q-29 -72 -76 -146z" />
    <glyph glyph-name="five.numr" horiz-adv-x="827" 
d="M412 571q-320 0 -361 256l246 52l25 -13q14 -73 84 -73q34 0 54.5 24t20.5 64q0 102 -112 102q-123 0 -224 -63l-47 18l37 512h545v-215h-322l-6 -84q60 14 107 14q133 0 212 -75t79 -201q0 -145 -91.5 -231.5t-246.5 -86.5z" />
    <glyph glyph-name="six.numr" horiz-adv-x="827" 
d="M412 571q-164 0 -262.5 92t-98.5 244q0 92 46.5 183.5t156.5 222.5l174 205l195 -117l8 -27l-84 -102q-33 -38 -64 -64.5t-77 -50.5l2 -6q65 29 120 29q108 0 174 -74.5t66 -202.5q0 -152 -96 -242t-260 -90zM412 807q39 0 63.5 26t24.5 68q0 44 -24 70t-64 26t-63 -26
t-23 -70q0 -42 23.5 -68t62.5 -26z" />
    <glyph glyph-name="seven.numr" horiz-adv-x="827" 
d="M145 649l271 572h-330v229h717v-27l-402 -837l-41 -15z" />
    <glyph glyph-name="eight.numr" horiz-adv-x="827" 
d="M416 571q-166 0 -258 72.5t-92 194.5q0 75 41 130.5t122 82.5q-133 51 -133 198q0 102 87 168t233 66q145 0 230 -66t85 -168q0 -144 -131 -198q80 -27 121 -82.5t41 -130.5q0 -122 -91.5 -194.5t-254.5 -72.5zM414 1130q27 0 44 19.5t17 56.5q0 36 -17 57t-44 21
q-28 0 -45 -21t-17 -57q0 -37 17.5 -56.5t44.5 -19.5zM416 770q34 0 56 26t22 70q0 41 -22 68t-56 27q-36 0 -59 -26.5t-23 -68.5q0 -44 22.5 -70t59.5 -26z" />
    <glyph glyph-name="nine.numr" horiz-adv-x="827" 
d="M567 741l-172 -202l-194 114l-11 29l86 100q65 75 142 117l-2 4q-73 -29 -123 -29q-108 0 -174 76t-66 207q0 149 99 237.5t266 88.5q163 0 258.5 -91t95.5 -245q0 -91 -48 -183.5t-157 -222.5zM412 1057q39 0 62.5 26t23.5 70q0 43 -23.5 69.5t-62.5 26.5q-40 0 -65 -27
t-25 -71q0 -43 24.5 -68.5t65.5 -25.5z" />
    <glyph glyph-name="exclamdown.case" horiz-adv-x="749" 
d="M373 1475q101 0 166 -63t65 -157q0 -95 -64.5 -158t-166.5 -63q-99 0 -163.5 63.5t-64.5 157.5t63.5 157t164.5 63zM164 0l20 928h383l21 -928h-424z" />
    <glyph glyph-name="questiondown.case" horiz-adv-x="1198" 
d="M594 1475q100 0 163.5 -63t63.5 -157t-64.5 -157.5t-162.5 -63.5q-102 0 -167 63t-65 158q0 93 65.5 156.5t166.5 63.5zM410 928h383v-54q1 -99 -42.5 -171.5t-150.5 -151.5q-67 -50 -91 -82t-24 -68q0 -48 29.5 -75t83.5 -27q63 0 101 40t46 112l35 18l355 -49
q-25 -215 -175.5 -337t-388.5 -122q-223 0 -363 112.5t-140 288.5q0 129 58 219.5t196 178.5q50 34 69 63t19 70v35z" />
    <glyph glyph-name="periodcentered.case" horiz-adv-x="649" 
d="M307 487q-99 0 -162 65.5t-63 160.5q0 93 63.5 154t161.5 61q99 0 163.5 -61t64.5 -154q0 -94 -64.5 -160t-163.5 -66z" />
    <glyph glyph-name="parenleft.case" horiz-adv-x="743" 
d="M653 -106l-264 -119q-147 196 -230 448.5t-83 509.5t83 510t230 449l264 -119q-268 -378 -268 -840q0 -461 268 -839z" />
    <glyph glyph-name="parenright.case" horiz-adv-x="755" 
d="M356 -225l-264 119q268 378 268 839q0 462 -268 840l264 119q147 -196 230.5 -449.5t83.5 -509.5t-83.5 -509t-230.5 -449z" />
    <glyph glyph-name="braceleft.case" horiz-adv-x="745" 
d="M10 604v258h15q67 1 99 40.5t32 119.5v301q0 154 78 242t219 88h184v-250h-78q-53 0 -80.5 -34.5t-27.5 -96.5v-293q0 -105 -49 -170t-126 -74v-4q77 -9 126 -75t49 -169v-292q0 -63 27.5 -97.5t80.5 -34.5h78v-249h-188q-139 0 -216 88t-77 241v301q0 160 -131 160h-15z
" />
    <glyph glyph-name="braceright.case" horiz-adv-x="741" 
d="M717 862h14v-258h-14q-131 0 -131 -160v-301q0 -153 -77 -241t-216 -88h-189v249h78q53 0 81 35t28 97v292q0 104 48.5 169.5t125.5 74.5v4q-77 9 -125.5 74t-48.5 170v293q0 62 -28 96.5t-81 34.5h-78v250h185q141 0 219 -88t78 -242v-301q0 -80 32 -119.5t99 -40.5z
" />
    <glyph glyph-name="bracketleft.case" horiz-adv-x="712" 
d="M586 -186h-488v1839h488v-250h-187v-1340h187v-249z" />
    <glyph glyph-name="bracketright.case" horiz-adv-x="712" 
d="M614 1653v-1839h-487v249h186v1340h-186v250h487z" />
    <glyph glyph-name="hyphen.case" horiz-adv-x="655" 
d="M561 459h-467v262h467v-262z" />
    <glyph glyph-name="uni00AD.case" horiz-adv-x="655" 
d="M561 459h-467v262h467v-262z" />
    <glyph glyph-name="endash.case" horiz-adv-x="1024" 
d="M963 459h-902v262h902v-262z" />
    <glyph glyph-name="emdash.case" horiz-adv-x="1576" 
d="M1516 459h-1455v262h1455v-262z" />
    <glyph glyph-name="guillemotleft.case" horiz-adv-x="1249" 
d="M606 332l-211 -139l-323 452l323 453l211 -142l6 -24l-200 -287l200 -287zM1122 332l-211 -139l-325 452l325 453l211 -142l4 -24l-200 -287l200 -287z" />
    <glyph glyph-name="guillemotright.case" horiz-adv-x="1249" 
d="M664 645l-324 -452l-211 139l-6 26l201 287l-201 287l6 24l211 142zM1180 645l-326 -452l-211 139l-6 26l201 287l-201 287l6 24l211 142z" />
    <glyph glyph-name="guilsinglleft.case" horiz-adv-x="712" 
d="M606 332l-211 -139l-323 452l323 453l211 -142l6 -24l-200 -287l200 -287z" />
    <glyph glyph-name="guilsinglright.case" horiz-adv-x="735" 
d="M664 645l-324 -452l-211 139l-6 26l201 287l-201 287l6 24l211 142z" />
    <glyph glyph-name="uni2206" horiz-adv-x="1554" 
d="M532 1450h500l533 -1450h-1575zM700 741l-114 -389h381l-117 389q-51 183 -70 334h-10q-22 -176 -70 -334z" />
    <glyph glyph-name="at.case" horiz-adv-x="1816" 
d="M944 -188q-259 0 -458 103t-307.5 292t-106.5 434q2 240 116.5 434t317 304t452.5 110q172 0 318.5 -53t249 -146.5t160 -227.5t57.5 -292q0 -232 -132 -377t-343 -145q-84 0 -141 34.5t-76 94.5q-34 -57 -100 -93t-138 -36q-132 0 -215.5 100t-83.5 260
q0 194 108.5 322.5t272.5 128.5q66 0 119 -31t73 -82l13 62h248l-48 -248q-32 -170 -32 -217q0 -70 71 -70q63 0 107.5 81t44.5 196q0 246 -139 381t-394 135q-282 0 -455 -172.5t-173 -452.5q0 -279 173 -442.5t468 -163.5q194 3 368 86l19 -6l86 -197q-199 -106 -500 -106
zM881 473q63 0 105 65.5t42 159.5q0 144 -100 144q-59 0 -102.5 -69t-43.5 -163q0 -64 27 -100.5t72 -36.5z" />
    <glyph glyph-name="caron.alt" horiz-adv-x="550" 
d="M487 1395l-198 -398l-221 80l137 396l26 16z" />
    <glyph glyph-name="uni0308.case" 
d="M-825 1743q0 72 49 122t121 50t122 -50t50 -122q0 -74 -49.5 -124t-122.5 -50q-72 0 -121 50t-49 124zM-379 1743q0 72 49 122t121 50t123 -50t51 -122q0 -73 -50.5 -123.5t-123.5 -50.5q-72 0 -121 50t-49 124z" />
    <glyph glyph-name="uni0307.case" 
d="M-289 1565q-101 0 -165 56.5t-64 147.5t63 146t166 55t165.5 -55t62.5 -146t-63.5 -147.5t-164.5 -56.5z" />
    <glyph glyph-name="gravecomb.case" 
d="M-88 1565h-291l-272 256l12 18h346z" />
    <glyph glyph-name="acutecomb.case" 
d="M-356 1565h-291l205 274h344l12 -18z" />
    <glyph glyph-name="uni030B.case" 
d="M-750 1565h-292l202 274h346l11 -18zM-268 1565h-291l203 274h346l10 -18z" />
    <glyph glyph-name="uni0302.case" 
d="M-342 1565l-143 135l-146 -135h-246l-16 20l250 254h313l252 -254l-18 -20h-246z" />
    <glyph glyph-name="uni030C.case" 
d="M-328 1565h-313l-248 254l17 20h245l144 -135l141 135h246l16 -20z" />
    <glyph glyph-name="uni0306.case" 
d="M-418 1554q-159 0 -252 72t-106 209l20 18h185q8 -44 47.5 -69t105.5 -25t106 25t46 69h186l21 -18q-13 -137 -106.5 -209t-252.5 -72z" />
    <glyph glyph-name="uni030A.case" 
d="M-291 1538q-95 0 -162 65t-67 162t67 162.5t162 65.5q96 0 164 -65.5t68 -162.5t-68 -162t-164 -65zM-291 1647q52 0 85.5 34t33.5 84t-33.5 84.5t-85.5 34.5q-50 0 -83.5 -34.5t-33.5 -84.5t33 -84t84 -34z" />
    <glyph glyph-name="tildecomb.case" 
d="M-285 1569q93 0 157 79t71 205h-158l-16 -12q-16 -67 -72 -67q-42 0 -131.5 39.5t-151.5 39.5q-92 0 -155.5 -79.5t-71.5 -204.5h158l16 12q17 68 72 68q37 0 82.5 -20t96.5 -40t103 -20z" />
    <glyph glyph-name="uni0304.case" 
d="M-66 1622h-694v199h694v-199z" />
    <glyph glyph-name="brevecombcy" 
d="M-418 1083q-161 0 -253 73.5t-105 217.5l20 19h185q15 -103 153 -103q140 0 152 103h186l21 -19q-13 -143 -106 -217t-253 -74z" />
    <glyph glyph-name="brevecombcy.case" 
d="M-418 1554q-159 0 -252 72t-106 209l20 18h185q8 -44 47.5 -69t105.5 -25t106 25t46 69h186l21 -18q-13 -137 -106.5 -209t-252.5 -72z" />
    </font>
</defs>
</svg>
