<?xml version="1.0" standalone="no"?>
<!DOCTYPE svg PUBLIC "-//W3C//DTD SVG 1.1//EN" "http://www.w3.org/Graphics/SVG/1.1/DTD/svg11.dtd" >
<svg xmlns="http://www.w3.org/2000/svg" xmlns:xlink="http://www.w3.org/1999/xlink" version="1.1">
<metadata>
Created by FontForge 20201107 at Sun Feb  2 18:50:16 2025
 By 
Copyright (c) 2016 by Botio Nikoltchev. All rights reserved.
</metadata>
<defs>
<font id="Quasimoda-Thin" horiz-adv-x="0" >
  <font-face 
    font-family="Quasimoda Thin"
    font-weight="200"
    font-stretch="normal"
    units-per-em="2048"
    panose-1="0 0 3 0 0 0 0 0 0 0"
    ascent="1638"
    descent="-410"
    x-height="889"
    cap-height="1450"
    bbox="-1167 -582 2548 2271"
    underline-thickness="102"
    underline-position="-204"
    unicode-range="U+000D-FB02"
  />
<missing-glyph horiz-adv-x="1343" 
d="M205 1522h934v-1522h-934v1522zM1020 109v1304h-696v-1304h696zM500 995l-21 -8l-78 17q19 104 91.5 164.5t179.5 60.5q113 0 183.5 -64t70.5 -166q0 -75 -27.5 -128t-95.5 -109q-61 -51 -79 -83t-19 -91l-3 -68h-96l-2 70q-2 65 23.5 115.5t83.5 101.5q66 56 87 94.5
t21 93.5q0 63 -41.5 103.5t-109.5 40.5q-66 0 -110.5 -37.5t-57.5 -106.5zM662 252q-32 0 -55 22t-23 54q0 33 22.5 55.5t55.5 22.5q31 0 53 -22.5t22 -55.5q0 -32 -22 -54t-53 -22z" />
    <glyph glyph-name="f_i" unicode="fi" horiz-adv-x="987" 
d="M586 1448l-8 -4q-64 33 -125 33q-89 0 -129 -73t-41 -241l-2 -274h284v-47h-284v-842h-50v842h-184v47h184v272q0 191 53 278t167 87q65 0 141 -29zM768 1251q-22 0 -35.5 14.5t-13.5 39.5q0 23 13.5 37t35.5 14t35.5 -14t13.5 -37q0 -25 -13.5 -39.5t-35.5 -14.5zM793 0
h-50v889h50v-889z" />
    <glyph glyph-name="f_l" unicode="fl" horiz-adv-x="997" 
d="M586 1448l-8 -4q-64 33 -125 33q-89 0 -129 -73t-41 -241l-2 -274h284v-47h-284v-842h-50v842h-184v47h184v272q0 191 53 278t167 87q65 0 141 -29zM803 0h-49v1501h49v-1501z" />
    <glyph glyph-name=".notdef" horiz-adv-x="1343" 
d="M205 1522h934v-1522h-934v1522zM1020 109v1304h-696v-1304h696zM500 995l-21 -8l-78 17q19 104 91.5 164.5t179.5 60.5q113 0 183.5 -64t70.5 -166q0 -75 -27.5 -128t-95.5 -109q-61 -51 -79 -83t-19 -91l-3 -68h-96l-2 70q-2 65 23.5 115.5t83.5 101.5q66 56 87 94.5
t21 93.5q0 63 -41.5 103.5t-109.5 40.5q-66 0 -110.5 -37.5t-57.5 -106.5zM662 252q-32 0 -55 22t-23 54q0 33 22.5 55.5t55.5 22.5q31 0 53 -22.5t22 -55.5q0 -32 -22 -54t-53 -22z" />
    <glyph glyph-name=".null" 
 />
    <glyph glyph-name="nonmarkingreturn" horiz-adv-x="682" 
 />
    <glyph glyph-name="NULL" 
 />
    <glyph glyph-name="NULL" 
 />
    <glyph glyph-name="CR" unicode="&#xd;" horiz-adv-x="632" 
 />
    <glyph glyph-name="space" unicode=" " horiz-adv-x="632" 
 />
    <glyph glyph-name="exclam" unicode="!" horiz-adv-x="665" 
d="M356 393h-47l-2 1057h53zM332 -18q-21 0 -35 14.5t-14 38.5q0 23 14 38t35 15q22 0 36.5 -15t14.5 -38q0 -24 -14.5 -38.5t-36.5 -14.5z" />
    <glyph glyph-name="quotedbl" unicode="&#x22;" horiz-adv-x="737" 
d="M229 893h-45v557h45v-557zM553 893h-45v557h45v-557z" />
    <glyph glyph-name="numbersign" unicode="#" horiz-adv-x="1398" 
d="M1290 1051v-54h-223l-78 -544h281v-54h-287l-57 -399h-58l58 399h-543l-57 -399h-58l58 399h-217v54h223l78 544h-281v54h287l57 399h57l-57 -399h543l57 399h57l-57 -399h217zM389 453h543l78 544h-543z" />
    <glyph glyph-name="dollar" unicode="$" horiz-adv-x="1433" 
d="M1153 334q0 -159 -116.5 -263.5t-291.5 -107.5v-143h-49v145q-145 8 -252.5 82.5t-187.5 231.5l43 28l12 -2q69 -142 163.5 -211.5t221.5 -77.5v734q-8 5 -16 8q-208 96 -288.5 184t-80.5 223q0 141 108 231.5t277 92.5v143h49v-145q238 -18 355 -238l-39 -26l-12 2
q-99 193 -304 211v-645q1 0 3.5 -1.5t3.5 -1.5q233 -109 317 -205.5t84 -248.5zM369 1169q0 -116 65.5 -186t261.5 -168v623q-143 0 -235 -77.5t-92 -191.5zM745 727v-713q151 3 251 95.5t100 222.5q0 125 -74 210t-277 185z" />
    <glyph glyph-name="percent" unicode="%" horiz-adv-x="1814" 
d="M498 823q-134 0 -227 94.5t-93 233.5q0 138 93 233t227 95q135 0 227 -95t92 -233q0 -139 -92 -233.5t-227 -94.5zM514 0h-61l852 1450h61zM498 872q113 0 190.5 80.5t77.5 198.5q0 117 -78 198t-190 81q-111 0 -189 -81t-78 -198q0 -118 78 -198.5t189 -80.5zM1317 -29
q-135 0 -227.5 95t-92.5 233q0 139 92.5 233.5t227.5 94.5t227 -94.5t92 -233.5q0 -138 -92 -233t-227 -95zM1317 20q111 0 188.5 81t77.5 198q0 118 -77.5 198.5t-188.5 80.5t-189.5 -80.5t-78.5 -198.5q0 -116 78.5 -197.5t189.5 -81.5z" />
    <glyph glyph-name="ampersand" unicode="&#x26;" horiz-adv-x="1284" 
d="M1020 272l268 -272h-74l-221 227q-89 -140 -197 -202t-239 -62q-189 0 -306.5 113t-117.5 293q0 131 76.5 229.5t236.5 185.5l-6 7q-119 129 -164 211.5t-45 168.5q0 141 89.5 229.5t230.5 88.5q128 0 216.5 -83t88.5 -202q0 -129 -72.5 -225.5t-244.5 -200.5l-11 -6
l453 -461q101 184 162 467l8 6h49q-75 -324 -180 -512zM285 1176q0 -79 43 -155t157 -204l9 -8q166 100 236.5 188.5t70.5 198.5q0 102 -72.5 173t-181.5 71q-111 0 -186.5 -76t-75.5 -188zM559 14q238 0 395 250l-471 484q-154 -87 -224.5 -175t-70.5 -204
q2 -154 106.5 -254.5t264.5 -100.5z" />
    <glyph glyph-name="quotesingle" unicode="'" horiz-adv-x="471" 
d="M258 893h-45v557h45v-557z" />
    <glyph glyph-name="parenleft" unicode="(" horiz-adv-x="587" 
d="M438 -299l-45 -31q-128 183 -201 428.5t-73 491.5t73 491t201 428l45 -30q-118 -164 -191 -409.5t-73 -479.5t73 -479.5t191 -409.5z" />
    <glyph glyph-name="parenright" unicode=")" horiz-adv-x="595" 
d="M195 -330l-45 31q118 164 191 409.5t73 479.5t-73 479.5t-191 409.5l45 30q127 -183 199.5 -428t72.5 -491q0 -247 -72.5 -492t-199.5 -428z" />
    <glyph glyph-name="asterisk" unicode="*" horiz-adv-x="874" 
d="M236 758h-11l-24 18l-2 10l204 279l-327 98l-4 11l12 30l8 6l324 -106l-2 338l6 8h35l6 -8l-2 -338l325 106l9 -6l10 -30l-2 -11l-330 -98l205 -279l-2 -10l-25 -18h-10l-201 284z" />
    <glyph glyph-name="plus" unicode="+" horiz-adv-x="1433" 
d="M741 651h482v-47h-482v-483h-49v483h-481v47h481v484h49v-484z" />
    <glyph glyph-name="comma" unicode="," horiz-adv-x="450" 
d="M311 176l-184 -475l-39 14l170 475l8 3z" />
    <glyph glyph-name="hyphen" unicode="-" horiz-adv-x="634" 
d="M551 453h-467v51h467v-51z" />
    <glyph glyph-name="period" unicode="." horiz-adv-x="477" 
d="M238 -18q-21 0 -35.5 14.5t-14.5 38.5q0 23 14.5 38t35.5 15q22 0 36.5 -15t14.5 -38q0 -24 -14.5 -38.5t-36.5 -14.5z" />
    <glyph glyph-name="slash" unicode="/" horiz-adv-x="684" 
d="M600 1450h55l-571 -1448h-57z" />
    <glyph glyph-name="zero" unicode="0" horiz-adv-x="1263" 
d="M633 -39q-228 0 -360 205t-132 559t132 559t360 205q226 0 357.5 -205t131.5 -559t-131.5 -559t-357.5 -205zM633 14q200 0 316 191.5t116 521.5q0 327 -117 518t-315 191q-199 0 -316.5 -192t-117.5 -521q0 -323 118.5 -516t315.5 -193z" />
    <glyph glyph-name="one" unicode="1" horiz-adv-x="749" 
d="M489 0h-55v1190q0 146 2 205l-4 2q-39 -29 -88 -56l-246 -143l-10 4l4 55l385 220h12v-1477z" />
    <glyph glyph-name="two" unicode="2" horiz-adv-x="1073" 
d="M950 0h-872v12l463 471q195 197 282.5 337.5t87.5 283.5q0 147 -96 240.5t-254 93.5q-167 -2 -273 -97.5t-141 -279.5l-14 -6l-41 6q33 205 158.5 316.5t316.5 111.5q175 0 287.5 -107.5t112.5 -275.5q0 -143 -86.5 -289t-268.5 -336l-190 -196q-152 -152 -232 -230l3 -4
q92 2 276 2h481v-53z" />
    <glyph glyph-name="three" unicode="3" horiz-adv-x="1073" 
d="M549 -39q-197 0 -323 110t-148 302l43 6l12 -6q19 -162 131.5 -261.5t280.5 -99.5q169 0 276 103t107 264q0 167 -109 259.5t-313 92.5h-53v49h49q195 0 301 91t106 251q0 135 -96 225.5t-248 90.5q-159 0 -264.5 -88t-134.5 -246l-10 -6l-43 6q25 175 148.5 280
t307.5 105q170 0 284 -102.5t114 -260.5q0 -141 -81.5 -240.5t-232.5 -129.5q154 -22 243 -122.5t89 -252.5q0 -180 -124.5 -300t-311.5 -120z" />
    <glyph glyph-name="four" unicode="4" horiz-adv-x="1177" 
d="M893 0h-53v358h-774v17l811 1102h16v-1065h172v-54h-172v-358zM700 1151l-542 -739h682v639q0 197 4 299h-2q-30 -44 -83 -117.5t-59 -81.5z" />
    <glyph glyph-name="five" unicode="5" horiz-adv-x="1077" 
d="M520 -39q-188 0 -310 104t-142 281l45 8l10 -6q22 -157 129 -246.5t272 -89.5q181 0 294.5 120.5t113.5 311.5q0 180 -111 292t-289 112q-198 0 -360 -125l-12 4l47 723h678v-53h-631l-39 -596q157 98 328 98q199 0 322.5 -125t123.5 -325q0 -215 -130.5 -351.5
t-338.5 -136.5z" />
    <glyph glyph-name="six" unicode="6" horiz-adv-x="1163" 
d="M561 -39q-200 0 -323 130.5t-123 348.5q0 118 47.5 219t150.5 248l404 590l41 -24l2 -11l-373 -538q-16 -23 -139 -193l4 -2q57 72 147 116t191 44q188 0 310 -126.5t122 -326.5q0 -213 -128.5 -344t-332.5 -131zM565 12q175 0 287.5 117.5t112.5 300.5t-108.5 295.5
t-278.5 112.5q-176 0 -292 -117.5t-116 -292.5q0 -184 110.5 -300t284.5 -116z" />
    <glyph glyph-name="seven" unicode="7" horiz-adv-x="905" 
d="M162 -18l657 1415h-805v53h879v-12l-678 -1475l-12 -2z" />
    <glyph glyph-name="eight" unicode="8" horiz-adv-x="1077" 
d="M539 -39q-207 0 -331 114t-124 306q0 149 81 250t232 141q-127 37 -193.5 125.5t-66.5 220.5q0 164 112.5 267.5t289.5 103.5t289 -103.5t112 -267.5q0 -130 -66 -218t-194 -128q151 -40 232 -141t81 -250q0 -192 -122.5 -306t-331.5 -114zM539 797q154 0 249 87.5
t95 229.5q0 143 -96.5 234.5t-247.5 91.5t-247.5 -91.5t-96.5 -234.5q0 -142 95 -229.5t249 -87.5zM539 14q182 0 289.5 100t107.5 269q0 164 -108.5 263t-288.5 99q-179 0 -288.5 -99t-109.5 -263q0 -168 109 -268.5t289 -100.5z" />
    <glyph glyph-name="nine" unicode="9" horiz-adv-x="1159" 
d="M813 543l-395 -582l-43 25l-2 10l366 530q14 19 142 193l-4 2q-58 -73 -148 -116.5t-190 -43.5q-189 0 -311 127t-122 328q0 211 129 342t334 131q198 0 321.5 -129t123.5 -340q0 -55 -12.5 -110t-26 -93.5t-47.5 -96t-52 -84.5t-63 -93zM551 612q174 0 289.5 117.5
t115.5 292.5q0 184 -110 300t-281 116q-177 0 -289 -117.5t-112 -300.5t108 -295.5t279 -112.5z" />
    <glyph glyph-name="colon" unicode=":" horiz-adv-x="491" 
d="M246 754q-22 0 -35.5 15t-13.5 38q0 24 13.5 38.5t35.5 14.5t35.5 -14.5t13.5 -38.5q0 -23 -13.5 -38t-35.5 -15zM246 -18q-22 0 -35.5 14.5t-13.5 38.5q0 23 13.5 38t35.5 15t35.5 -15t13.5 -38q0 -24 -13.5 -38.5t-35.5 -14.5z" />
    <glyph glyph-name="semicolon" unicode=";" horiz-adv-x="557" 
d="M311 754q-22 0 -35.5 15t-13.5 38q0 24 13.5 38.5t35.5 14.5t35.5 -14.5t13.5 -38.5q0 -23 -13.5 -38t-35.5 -15zM326 176l-185 -475l-37 14l168 475l9 3z" />
    <glyph glyph-name="less" unicode="&#x3c;" horiz-adv-x="1433" 
d="M223 651l987 471v-53l-940 -444l940 -445v-53l-987 469v55z" />
    <glyph glyph-name="equal" unicode="=" horiz-adv-x="1433" 
d="M1223 795h-1012v49h1012v-49zM1223 403h-1012v50h1012v-50z" />
    <glyph glyph-name="greater" unicode="&#x3e;" horiz-adv-x="1433" 
d="M223 1069v53l987 -471v-55l-987 -469v53l940 445z" />
    <glyph glyph-name="question" unicode="?" horiz-adv-x="1075" 
d="M543 393h-54v125q0 87 34 155.5t108 131.5q119 100 159.5 175t40.5 175q0 123 -81 203t-211 80q-133 0 -225 -74.5t-119 -210.5l-13 -4l-41 8q26 154 134.5 243t263.5 89q157 0 252.5 -91.5t95.5 -240.5q0 -104 -39 -186t-135 -162q-104 -86 -137 -146t-33 -161v-109z
M522 -18q-22 0 -35.5 14.5t-13.5 38.5q0 23 13.5 38t35.5 15t35.5 -15t13.5 -38q0 -24 -13.5 -38.5t-35.5 -14.5z" />
    <glyph glyph-name="at" unicode="@" horiz-adv-x="1712" 
d="M893 -303q-228 0 -406 99t-277 277t-99 406q0 217 102 396t279.5 282t392.5 103q204 0 367.5 -84t255 -234.5t91.5 -339.5q0 -225 -106.5 -374.5t-267.5 -149.5q-89 0 -133 53.5t-31 153.5q-51 -100 -128 -153.5t-157 -53.5q-131 0 -206.5 85t-75.5 230
q0 209 112.5 351.5t276.5 142.5q97 0 161 -50t89 -145l28 154h51l-94 -469q-12 -52 -12 -129q0 -59 30.5 -91t92.5 -32q88 0 161 63t115.5 172t42.5 240q0 174 -86 313t-237.5 217t-339.5 78q-148 0 -281.5 -57t-230 -154t-153 -232.5t-56.5 -285.5q0 -211 94 -378.5
t261 -260.5t376 -92q195 0 383 84l6 -2l23 -43q-188 -90 -414 -90zM784 123q81 0 155.5 67t119.5 177t45 231q0 109 -59.5 176.5t-159.5 67.5q-94 0 -172.5 -60t-124 -164.5t-45.5 -228.5q0 -123 64.5 -194.5t176.5 -71.5z" />
    <glyph glyph-name="A" unicode="A" horiz-adv-x="1282" 
d="M1274 0h-62l-180 430h-784l-178 -430h-62l619 1456h24zM481 989l-211 -508h742l-213 506l-158 369h-4q-18 -42 -73 -170.5t-83 -196.5z" />
    <glyph glyph-name="B" unicode="B" horiz-adv-x="1239" 
d="M567 0h-313v1450h315q238 0 363 -91t125 -263q0 -126 -82 -216.5t-223 -121.5v-4q181 -25 277.5 -118t96.5 -243q0 -201 -136 -297t-423 -96zM307 1399v-625h299q172 0 282.5 89.5t110.5 230.5q0 147 -108 226t-313 79h-271zM307 725v-674h266q256 0 376 83.5t120 258.5
q0 156 -120 244t-333 88h-309z" />
    <glyph glyph-name="C" unicode="C" horiz-adv-x="1662" 
d="M879 -39q-158 0 -296.5 58t-237 159t-155.5 243t-57 304q0 161 56.5 303t154.5 243t235 159.5t293 58.5q220 0 381.5 -97.5t274.5 -297.5l-39 -29l-12 4q-204 367 -605 367q-143 0 -269.5 -55t-217 -149t-143 -226t-52.5 -281q0 -197 91 -360.5t248.5 -257t347.5 -93.5
q202 0 357.5 92.5t254.5 270.5l12 4l37 -27q-232 -393 -659 -393z" />
    <glyph glyph-name="D" unicode="D" horiz-adv-x="1533" 
d="M588 0h-334v1450h334q401 0 609 -182t208 -529q0 -356 -214 -547.5t-603 -191.5zM307 1397v-1344h254q384 0 585.5 172t201.5 514q0 658 -783 658h-258z" />
    <glyph glyph-name="E" unicode="E" horiz-adv-x="1198" 
d="M254 0v1450h776l8 -53h-731v-627h682v-53h-682v-664h731l-8 -53h-776z" />
    <glyph glyph-name="F" unicode="F" horiz-adv-x="1097" 
d="M254 0v1450h739l6 -53h-692v-627h645v-53h-645v-717h-53z" />
    <glyph glyph-name="G" unicode="G" horiz-adv-x="1765" 
d="M872 -39q-155 0 -292 58t-235 159t-155 243t-57 304q0 161 56.5 303t154.5 243t235.5 159.5t294.5 58.5q434 0 660 -393l-37 -27l-12 2q-203 365 -611 365q-144 0 -271 -55t-217.5 -149t-143 -226t-52.5 -281q0 -198 90 -361.5t246 -256.5t344 -93q206 0 372 113.5
t255 306.5v238h-510v51h561v-723h-53v100q0 165 4 226l-4 2q-111 -172 -270.5 -269.5t-352.5 -97.5z" />
    <glyph glyph-name="H" unicode="H" horiz-adv-x="1585" 
d="M307 0h-53v1450h53v-688h971v688h53v-1450h-53v709h-971v-709z" />
    <glyph glyph-name="I" unicode="I" horiz-adv-x="561" 
d="M254 0v1450h53v-1450h-53z" />
    <glyph glyph-name="J" unicode="J" horiz-adv-x="1003" 
d="M100 281l11 -2q29 -123 111.5 -195t191.5 -72q137 0 215 107t78 301v1030h55v-1036q0 -212 -94.5 -332.5t-251.5 -120.5q-135 0 -230.5 81t-128.5 218z" />
    <glyph glyph-name="K" unicode="K" horiz-adv-x="1292" 
d="M1268 0h-70l-571 813l-320 -346v-467h-53v1450h53v-549v-358q44 47 131 142t131 142l570 623h69l-544 -598z" />
    <glyph glyph-name="L" unicode="L" horiz-adv-x="1062" 
d="M254 0v1450h53v-1397h727l-8 -53h-772z" />
    <glyph glyph-name="M" unicode="M" horiz-adv-x="1886" 
d="M338 1450l602 -1165h4l606 1165h82v-1450h-53v1382h-4l-627 -1200h-12l-625 1200h-4v-1382h-53v1450h84z" />
    <glyph glyph-name="N" unicode="N" horiz-adv-x="1669" 
d="M307 0h-53v1450h65l779 -1001q49 -65 144 -186.5t114 -145.5h6v368v965h53v-1479h-10l-834 1069q-45 58 -132 168.5t-126 161.5h-6v-369v-1001z" />
    <glyph glyph-name="O" unicode="O" horiz-adv-x="1785" 
d="M893 -39q-167 0 -310 59t-241 161.5t-153.5 243t-55.5 300.5t54.5 300t152 242.5t241 162t312.5 59.5q170 0 313.5 -59.5t241 -162t151.5 -242.5t54 -300q0 -214 -93.5 -387.5t-268 -275t-398.5 -101.5zM893 14q153 0 285 56t223 151.5t142.5 226t51.5 277.5
q0 199 -87.5 360.5t-248.5 256t-366 94.5q-154 0 -286 -55t-223 -150.5t-142.5 -226.5t-51.5 -279q0 -147 52 -277.5t143 -226t223 -151.5t285 -56z" />
    <glyph glyph-name="P" unicode="P" horiz-adv-x="1153" 
d="M307 0h-53v1450h334q242 0 363.5 -105.5t121.5 -308.5q0 -199 -123.5 -308.5t-361.5 -109.5h-281v-618zM307 1399v-729h258q232 0 342.5 92t110.5 274q0 363 -443 363h-268z" />
    <glyph glyph-name="Q" unicode="Q" horiz-adv-x="1787" 
d="M981 -29v-4q264 -96 545 -155l8 -11l-16 -47q-343 80 -668 209q-213 10 -377 113t-252 272.5t-88 376.5q0 160 54.5 300t152 242.5t241.5 162t314 59.5t313.5 -59t241 -161t151.5 -241.5t54 -298.5q0 -156 -51.5 -292.5t-141.5 -234.5t-214 -158.5t-267 -72.5zM190 725
q0 -197 87.5 -358.5t250 -257t367.5 -95.5q153 0 284.5 56t223 152t143 227.5t51.5 279.5q0 198 -87.5 358.5t-248.5 254.5t-366 94t-367 -94.5t-250 -256.5t-88 -360z" />
    <glyph glyph-name="R" unicode="R" horiz-adv-x="1230" 
d="M723 649l457 -637l-6 -12h-56l-454 639h-357v-639h-53v1450h338q240 0 361.5 -103t121.5 -300q0 -160 -91.5 -266t-260.5 -132zM307 1399v-707h307q202 0 303 95.5t101 259.5q0 352 -438 352h-273z" />
    <glyph glyph-name="S" unicode="S" horiz-adv-x="1146" 
d="M606 -39q-161 0 -279 75t-202 243l43 28l12 -2q76 -153 178.5 -223t245.5 -70q155 0 258 94t103 226q0 134 -86.5 223.5t-329.5 202.5q-208 96 -288.5 183.5t-80.5 223.5q0 143 108.5 233.5t280.5 90.5q273 0 400 -240l-41 -26l-13 2q-110 213 -348 213
q-144 0 -236.5 -77.5t-92.5 -191.5q0 -123 75.5 -197t307.5 -184t316.5 -206t84.5 -248q0 -161 -119 -267t-297 -106z" />
    <glyph glyph-name="T" unicode="T" horiz-adv-x="1189" 
d="M567 0v1397h-530v53h1118v-53h-532v-1397h-56z" />
    <glyph glyph-name="U" unicode="U" horiz-adv-x="1558" 
d="M778 -39q-545 0 -545 617v872h56v-868q0 -568 489 -568q492 0 492 568v868h53v-872q0 -307 -137.5 -462t-407.5 -155z" />
    <glyph glyph-name="V" unicode="V" horiz-adv-x="1302" 
d="M657 -29h-12l-616 1479h61l453 -1090q8 -22 106 -254h4q63 146 107 252l452 1092h62z" />
    <glyph glyph-name="W" unicode="W" horiz-adv-x="1974" 
d="M565 -29h-45l-471 1479h60l256 -815q1 -2 176 -537h8l172 537l252 801h28l254 -801q129 -403 170 -537h9q30 95 90 275t86 262l256 815h59l-471 -1479h-41l-287 895q-10 33 -135 418h-8q-125 -385 -135 -418z" />
    <glyph glyph-name="X" unicode="X" horiz-adv-x="1116" 
d="M86 0h-66l506 754l-477 696h68l442 -651l438 651h68l-477 -698l508 -752h-68l-471 707z" />
    <glyph glyph-name="Y" unicode="Y" horiz-adv-x="1122" 
d="M590 0h-55v610l-508 840h59l256 -430q92 -156 217 -354h6q25 41 99.5 163.5t113.5 188.5l256 432h62l-506 -840v-610z" />
    <glyph glyph-name="Z" unicode="Z" horiz-adv-x="1243" 
d="M41 12l1063 1385h-1010v53h1108v-12l-1061 -1385h1028v-53h-1128v12z" />
    <glyph glyph-name="bracketleft" unicode="[" horiz-adv-x="598" 
d="M428 -330h-281v1839h281v-49h-227v-1741h227v-49z" />
    <glyph glyph-name="backslash" unicode="\" horiz-adv-x="684" 
d="M598 2l-571 1448h55l573 -1448h-57z" />
    <glyph glyph-name="bracketright" unicode="]" horiz-adv-x="602" 
d="M451 1509v-1839h-281v49h227v1741h-227v49h281z" />
    <glyph glyph-name="asciicircum" unicode="^" horiz-adv-x="1208" 
d="M203 557h-62l434 893h56l436 -893h-61l-402 842z" />
    <glyph glyph-name="underscore" unicode="_" horiz-adv-x="1024" 
d="M1024 -150v-47h-1024v47h1024z" />
    <glyph glyph-name="grave" unicode="`" horiz-adv-x="428" 
d="M117 1470l250 -376h-45l-261 368l5 8h51z" />
    <glyph glyph-name="a" unicode="a" horiz-adv-x="964" 
d="M907 31l6 -4v-39q-54 -23 -92 -23q-58 0 -82 30.5t-24 106.5v54q-115 -109 -203 -152t-182 -43q-102 0 -167 60.5t-65 156.5q0 140 142.5 220t474.5 118v72q0 152 -55.5 222.5t-172.5 70.5q-88 0 -176.5 -56.5t-148.5 -150.5l-8 -2l-35 24q64 105 167.5 168.5t207.5 63.5
q132 0 201 -79.5t69 -230.5v-512q0 -58 14 -77t53 -19q21 0 76 21zM150 182q0 -81 53.5 -127.5t140.5 -46.5q85 0 169 43t202 152v270q-299 -33 -432 -103t-133 -188z" />
    <glyph glyph-name="b" unicode="b" horiz-adv-x="1177" 
d="M647 -39q-133 0 -248 79.5t-157 203.5v-244h-47v1501h49v-563v-295q51 130 162 207.5t245 77.5q188 0 305 -130.5t117 -342.5q0 -222 -117 -358t-309 -136zM641 8q173 0 277 121.5t104 325.5q0 190 -105 307t-274 117q-171 0 -289 -129t-114 -314q3 -185 118 -306.5
t283 -121.5z" />
    <glyph glyph-name="c" unicode="c" horiz-adv-x="1064" 
d="M549 -39q-199 0 -322 133t-123 350q0 216 124 350t323 134q130 0 231.5 -62.5t165.5 -183.5l-37 -23l-6 3q-128 219 -352 219q-173 0 -285 -119.5t-112 -317.5t112 -317t285 -119q226 0 352 215l8 4l35 -22q-64 -120 -166 -182t-233 -62z" />
    <glyph glyph-name="d" unicode="d" horiz-adv-x="1181" 
d="M532 -39q-196 0 -312 134.5t-116 353.5q0 211 126 345t313 134q130 0 238 -77.5t157 -207.5v295v563h49v-1501h-47v244q-45 -124 -161 -203.5t-247 -79.5zM539 8q167 0 283.5 120t119.5 302q4 186 -112 317.5t-281 131.5q-169 0 -281 -120.5t-112 -309.5q0 -197 104 -319
t279 -122z" />
    <glyph glyph-name="e" unicode="e" horiz-adv-x="1071" 
d="M961 451h-801v-19q0 -190 112.5 -307t284.5 -117q225 0 350 209l8 2l35 -22q-61 -114 -164.5 -175t-232.5 -61q-198 0 -321 133.5t-123 349.5q0 215 121.5 349.5t312.5 134.5q190 0 305 -124.5t115 -330.5q0 -12 -2 -22zM543 881q-158 0 -264.5 -106.5t-116.5 -278.5h747
q-4 178 -103.5 281.5t-262.5 103.5z" />
    <glyph glyph-name="f" unicode="f" horiz-adv-x="548" 
d="M586 1448l-8 -4q-64 33 -125 33q-89 0 -129 -73t-41 -241l-2 -274h284v-47h-284v-842h-50v842h-184v47h184v272q0 191 53 278t167 87q65 0 141 -29z" />
    <glyph glyph-name="g" unicode="g" horiz-adv-x="983" 
d="M479 -471q-200 0 -321 73.5t-121 194.5q0 99 82 171.5t219 97.5q-72 22 -105.5 50t-33.5 68q0 50 44.5 83.5t127.5 45.5q-114 20 -185 102.5t-71 192.5q0 139 104 229.5t264 90.5q101 0 181 -39h268l2 -41l-6 -8l-201 8q59 -43 92 -106.5t33 -139.5q0 -136 -100.5 -218
t-278.5 -89q-225 -16 -225 -105q0 -40 59 -65.5t205 -50.5q231 -39 326.5 -97t95.5 -163q0 -129 -125.5 -207t-329.5 -78zM481 340q142 -1 231 72t89 192q0 121 -90.5 199t-227.5 78q-138 0 -227.5 -76.5t-89.5 -198.5q0 -118 87.5 -191t227.5 -75zM479 -424
q183 0 293.5 64.5t110.5 171.5q0 88 -85.5 137t-287.5 80q-12 2 -44 7.5t-48 8.5q-151 -17 -239.5 -83t-88.5 -161q0 -101 107 -163t282 -62z" />
    <glyph glyph-name="h" unicode="h" horiz-adv-x="1159" 
d="M195 0v1501h49v-563v-291q55 132 158 206.5t227 74.5q165 0 250.5 -100t85.5 -298v-530h-50v494q0 201 -73 293t-228 92q-146 0 -258 -119.5t-112 -274.5v-485h-49z" />
    <glyph glyph-name="i" unicode="i" horiz-adv-x="438" 
d="M219 1251q-22 0 -35.5 14.5t-13.5 39.5q0 23 13.5 37t35.5 14t35.5 -14t13.5 -37q0 -25 -13.5 -39.5t-35.5 -14.5zM244 0h-49v889h49v-889z" />
    <glyph glyph-name="j" unicode="j" horiz-adv-x="413" 
d="M201 1251q-21 0 -35 15t-14 39q0 23 14 37t35 14q22 0 35.5 -14t13.5 -37q0 -25 -13.5 -39.5t-35.5 -14.5zM2 -471q-75 0 -154 29l9 45l8 2q77 -29 133 -29q178 0 178 279v1034h49v-1041q0 -158 -58.5 -238.5t-164.5 -80.5z" />
    <glyph glyph-name="k" unicode="k" horiz-adv-x="937" 
d="M903 0h-63l-398 520l-198 -188v-332h-49v1501h49v-563v-549q51 50 153.5 149.5t153.5 149.5l209 201h67l-352 -336z" />
    <glyph glyph-name="l" unicode="l" horiz-adv-x="438" 
d="M244 0h-49v1501h49v-1501z" />
    <glyph glyph-name="m" unicode="m" horiz-adv-x="1806" 
d="M1294 928q153 0 235.5 -100.5t82.5 -297.5v-530h-49v494q0 198 -70.5 291.5t-212.5 93.5q-132 0 -242 -121.5t-110 -274.5v-483h-49v494q0 198 -71 291.5t-214 93.5q-85 0 -166 -55t-132.5 -147.5t-51.5 -193.5v-483h-49v889h49v-242q55 131 154.5 206t211.5 75
q130 0 209 -74.5t99 -222.5q55 142 159 219.5t217 77.5z" />
    <glyph glyph-name="n" unicode="n" horiz-adv-x="1159" 
d="M195 0v889h49v-242q55 132 157.5 206.5t227.5 74.5q166 0 251 -100t85 -298v-530h-50v494q0 200 -72.5 292.5t-228.5 92.5q-145 0 -257.5 -119.5t-112.5 -274.5v-485h-49z" />
    <glyph glyph-name="o" unicode="o" horiz-adv-x="1165" 
d="M582 -39q-205 0 -341.5 140t-136.5 343q0 133 60.5 243.5t170.5 175.5t247 65t247.5 -65t171 -175.5t60.5 -243.5q0 -203 -136 -343t-343 -140zM582 8q180 0 303 126.5t123 309.5t-122 309t-304 126t-304 -126t-122 -309t123.5 -309.5t302.5 -126.5z" />
    <glyph glyph-name="p" unicode="p" horiz-adv-x="1177" 
d="M244 -446h-49v1335h49v-246q51 130 162 207.5t245 77.5q188 0 305 -130.5t117 -342.5q0 -222 -117 -358t-309 -136q-133 0 -247.5 79.5t-155.5 201.5v-297v-391zM641 8q173 0 277 121.5t104 325.5q0 190 -105 307t-274 117q-171 0 -289 -129.5t-114 -317.5
q3 -182 118 -303t283 -121z" />
    <glyph glyph-name="q" unicode="q" horiz-adv-x="1181" 
d="M987 -446h-49v391v297q-44 -122 -159.5 -201.5t-246.5 -79.5q-196 0 -312 135t-116 353q0 212 125 345.5t314 133.5q130 0 238 -77.5t157 -207.5v246h49v-1335zM539 8q167 0 283.5 120t119.5 302q4 186 -111.5 317.5t-279.5 131.5q-172 0 -283.5 -120t-111.5 -310
q0 -197 104 -319t279 -122z" />
    <glyph glyph-name="r" unicode="r" horiz-adv-x="780" 
d="M244 0h-49v889h47v-248q53 137 139 212t180 75q137 0 189 -135l-41 -25h-9q-25 60 -60 85.5t-93 25.5q-110 0 -206.5 -127t-96.5 -281v-471z" />
    <glyph glyph-name="s" unicode="s" horiz-adv-x="829" 
d="M426 -39q-110 0 -200 53t-134 146l39 24l8 -2q45 -87 120.5 -130.5t170.5 -43.5q107 0 180.5 54t73.5 135q0 74 -53 123.5t-191 101.5q-187 69 -252 128t-65 152q0 97 79 161.5t199 64.5q100 0 181 -51.5t118 -139.5l-36 -22l-9 2q-34 75 -103 119.5t-155 44.5
q-95 0 -159 -51t-64 -125q0 -75 56.5 -122.5t230.5 -115.5q155 -62 214.5 -120t59.5 -148q0 -101 -88.5 -169.5t-220.5 -68.5z" />
    <glyph glyph-name="t" unicode="t" horiz-adv-x="667" 
d="M580 39l4 -2l4 -45q-82 -31 -154 -31q-107 0 -160 64t-53 180v637h-184v47h184v342l41 26h8v-368h312v-47h-312v-619q0 -116 42.5 -165.5t131.5 -49.5q68 0 136 31z" />
    <glyph glyph-name="u" unicode="u" horiz-adv-x="1142" 
d="M948 889v-889h-49v240q-55 -131 -157 -205t-220 -74q-159 0 -243 100t-84 297v531h49v-496q0 -199 72.5 -292t220.5 -93q138 0 250 120t112 275v486h49z" />
    <glyph glyph-name="v" unicode="v" horiz-adv-x="886" 
d="M446 -33h-6l-411 922h57l356 -815h4l355 815h57z" />
    <glyph glyph-name="w" unicode="w" horiz-adv-x="1390" 
d="M432 -33h-45l-319 922h55l287 -844h4l270 832h27l266 -832h4l287 844h55l-319 -922h-43l-263 807h-4z" />
    <glyph glyph-name="x" unicode="x" horiz-adv-x="854" 
d="M117 0h-60l342 446l-342 443h62l166 -221q59 -77 139 -185h6q59 77 139 185l168 221h60l-340 -443l342 -446h-60l-182 242q-7 10 -127 168h-6q-50 -70 -127 -168z" />
    <glyph glyph-name="y" unicode="y" horiz-adv-x="921" 
d="M279 -446h-58l221 464l-381 871h58l348 -809h4l365 809h57z" />
    <glyph glyph-name="z" unicode="z" horiz-adv-x="886" 
d="M68 20l663 820h-645v49h729v-21l-663 -819h665v-49h-749v20z" />
    <glyph glyph-name="braceleft" unicode="{" horiz-adv-x="610" 
d="M2 565v49h6q78 1 115 58t37 176v405q0 256 209 256h92v-49h-90q-158 0 -158 -213v-401q0 -112 -35.5 -177t-101.5 -77v-4q66 -12 101.5 -77t35.5 -177v-402q0 -213 158 -213h90v-49h-92q-209 0 -209 256v406q0 118 -37 174.5t-115 58.5h-6z" />
    <glyph glyph-name="bar" unicode="|" horiz-adv-x="516" 
d="M283 -528h-50v2111h50v-2111z" />
    <glyph glyph-name="braceright" unicode="}" horiz-adv-x="610" 
d="M602 614h8v-49h-8q-78 -1 -114.5 -57.5t-36.5 -175.5v-406q0 -256 -209 -256h-92v49h90q157 0 157 213v402q0 112 36 177t102 77v4q-66 12 -102 77t-36 177v401q0 213 -157 213h-90v49h92q209 0 209 -256v-405q0 -119 36.5 -176t114.5 -58z" />
    <glyph glyph-name="asciitilde" unicode="~" horiz-adv-x="1433" 
d="M274 520l-8 -2l-35 27q123 188 269 188q54 0 103 -17.5t86 -42.5t73.5 -50t80 -42.5t89.5 -17.5q122 0 225 166l8 2l35 -24q-121 -189 -268 -189q-52 0 -100 17.5t-85.5 42t-74 49t-81 42t-91.5 17.5q-123 0 -226 -166z" />
    <glyph glyph-name="uni00A0" unicode="&#xa0;" horiz-adv-x="632" 
 />
    <glyph glyph-name="exclamdown" unicode="&#xa1;" horiz-adv-x="665" 
d="M332 928q22 0 36.5 -15.5t14.5 -38.5q0 -24 -14.5 -38.5t-36.5 -14.5q-21 0 -35 14.5t-14 38.5q0 23 14.5 38.5t34.5 15.5zM307 -543l2 1057h47l4 -1057h-53z" />
    <glyph glyph-name="cent" unicode="&#xa2;" horiz-adv-x="1433" 
d="M1092 227l41 -24q-62 -115 -160.5 -176t-222.5 -66v-141h-50v141q-187 11 -301 142t-114 341q0 209 113.5 341t301.5 143v143h50v-143q123 -5 221 -66.5t159 -177.5l-38 -25l-9 3q-122 209 -333 215v-865q215 9 333 211zM340 444q0 -187 100.5 -303t259.5 -127v860
q-160 -11 -260 -127t-100 -303z" />
    <glyph glyph-name="sterling" unicode="&#xa3;" horiz-adv-x="1433" 
d="M1104 1346l-8 2q-93 90 -236 90q-141 0 -220 -104t-79 -296v-258h352v-49h-352v-352q0 -199 -76 -324h666l-8 -55h-858v55h145q76 126 76 299v377h-199v49h199v267q0 212 94 327t262 115q166 0 271 -100z" />
    <glyph glyph-name="currency" unicode="&#xa4;" horiz-adv-x="1433" 
d="M391 262l-192 -192l-35 36l190 193q-121 137 -121 336q0 187 113 326l-184 184l35 37l184 -187q132 129 334 129q197 0 334 -127l182 185l37 -37l-185 -184q115 -137 115 -326q0 -204 -123 -340l195 -195l-35 -34l-195 194q-134 -121 -325 -121t-324 123zM715 190
q183 0 304.5 128t121.5 317q0 187 -121 311.5t-305 124.5t-304 -124.5t-120 -311.5q0 -190 120.5 -317.5t303.5 -127.5z" />
    <glyph glyph-name="yen" unicode="&#xa5;" horiz-adv-x="1433" 
d="M1190 1450h59l-485 -698h346v-45h-367v-265h367v-45h-367v-397h-53v397h-366v45h366v265h-366v45h344l-486 698h60l473 -684h4z" />
    <glyph glyph-name="brokenbar" unicode="&#xa6;" horiz-adv-x="516" 
d="M283 715h-50v868h50v-868zM283 -528h-50v870h50v-870z" />
    <glyph glyph-name="section" unicode="&#xa7;" horiz-adv-x="1087" 
d="M639 303q115 -54 165 -119.5t50 -152.5q0 -132 -97.5 -216.5t-250.5 -84.5q-107 0 -198 42.5t-156 118.5l41 33l8 -4q55 -67 134.5 -104t172.5 -37q127 0 210 70t83 176q0 88 -59 147.5t-203 118.5l-105 45q-148 59 -206 126t-58 169q0 100 72 177.5t184 102.5
q-201 94 -201 279q0 132 94 215.5t246 83.5q104 0 185 -40t127 -112l-37 -28l-11 2q-36 59 -107 94t-159 35q-124 0 -204 -71t-80 -175q0 -46 15 -84t36 -64t59 -51t69 -39.5t81 -35.5l82 -33q151 -62 217.5 -133t66.5 -166q0 -112 -72 -189t-194 -96zM479 371l92 -39
q125 8 203 76.5t78 171.5q0 87 -60.5 148t-209.5 120l-90 35q-120 -17 -194.5 -85.5t-74.5 -162.5q0 -92 54 -148t202 -116z" />
    <glyph glyph-name="dieresis" unicode="&#xa8;" horiz-adv-x="509" 
d="M94 1178q-14 5 -19 19.5t1 31.5t21 23t28 -1q34 -14 18 -53q-6 -17 -20 -22.5t-29 2.5zM385 1178q-14 5 -19 19.5t1 31.5t20 22.5t29 -0.5q31 -14 18 -53q-6 -17 -20 -22.5t-29 2.5z" />
    <glyph glyph-name="copyright" unicode="&#xa9;" horiz-adv-x="2043" 
d="M1022 -37q-158 0 -299.5 59.5t-243.5 160.5t-161.5 242t-59.5 298q0 158 59.5 299.5t161.5 243.5t243.5 161.5t299.5 59.5t299.5 -59.5t243.5 -161.5t161.5 -243.5t59.5 -299.5q0 -157 -59.5 -298t-161.5 -242t-243.5 -160.5t-299.5 -59.5zM1022 12q196 0 360 94.5
t258.5 258t94.5 358.5q0 196 -94.5 360.5t-258.5 259.5t-360 95t-360 -95t-258.5 -259.5t-94.5 -360.5q0 -195 94.5 -358.5t258.5 -258t360 -94.5zM1032 274q-187 0 -310.5 129t-123.5 318q0 188 123.5 317t310.5 129q121 0 218 -58.5t161 -172.5l-39 -23l-6 2
q-118 203 -334 203q-163 0 -272 -114t-109 -283t110 -283t271 -114q108 0 195 52.5t143 151.5l6 4l41 -26q-148 -232 -385 -232z" />
    <glyph glyph-name="ordfeminine" unicode="&#xaa;" horiz-adv-x="610" 
d="M545 942l4 -2v-33q-40 -14 -62 -14q-37 0 -53 19.5t-16 64.5v20q-63 -59 -112.5 -82.5t-104.5 -23.5q-62 0 -101 36.5t-39 94.5q0 81 83.5 128.5t273.5 68.5v41q0 83 -30.5 120t-94.5 37q-51 0 -101 -29.5t-83 -82.5l-7 -2l-30 22q38 62 99.5 98.5t125.5 36.5
q80 0 123 -46t43 -136v-295q0 -30 8 -40.5t29 -10.5q16 0 45 10zM109 1024q0 -43 29 -67.5t77 -24.5t94.5 23.5t108.5 80.5v150q-163 -20 -236 -59t-73 -103z" />
    <glyph glyph-name="guillemotleft" unicode="&#xab;" horiz-adv-x="882" 
d="M395 125l-28 -19l-240 351l240 350l28 -19l2 -6l-215 -325l215 -326zM713 125l-29 -19l-242 351l242 350l29 -19l2 -6l-217 -325l217 -326z" />
    <glyph glyph-name="logicalnot" unicode="&#xac;" horiz-adv-x="1433" 
d="M211 604v47h1012v-407h-47v360h-965z" />
    <glyph glyph-name="uni00AD" unicode="&#xad;" horiz-adv-x="634" 
d="M551 453h-467v51h467v-51z" />
    <glyph glyph-name="registered" unicode="&#xae;" horiz-adv-x="1259" 
d="M641 565q-195 0 -332 134.5t-137 326.5t137 327.5t332 135.5q193 0 329 -135.5t136 -327.5q0 -126 -62 -232t-169 -167.5t-234 -61.5zM641 606q172 0 296 124t124 296q0 173 -124 296.5t-296 123.5q-175 0 -300.5 -123.5t-125.5 -296.5q0 -113 57.5 -209.5t156 -153.5
t212.5 -57zM805 1133q0 -50 -30 -86t-83 -48l158 -217l-4 -6h-47l-154 217h-98v-217h-45v498h135q168 0 168 -141zM547 1235v-201h86q125 0 125 99q0 53 -32 77.5t-99 24.5h-80z" />
    <glyph glyph-name="macron" unicode="&#xaf;" horiz-adv-x="608" 
d="M547 1196h-486v47h486v-47z" />
    <glyph glyph-name="degree" unicode="&#xb0;" horiz-adv-x="817" 
d="M410 901q-121 0 -205 85t-84 208t84 208t205 85t204.5 -85t83.5 -208t-83.5 -208t-204.5 -85zM410 946q103 0 173 72t70 176t-70 176t-173 72q-104 0 -174 -71.5t-70 -176.5t70 -176.5t174 -71.5z" />
    <glyph glyph-name="plusminus" unicode="&#xb1;" horiz-adv-x="1433" 
d="M741 799h482v-49h-482v-373h-49v373h-481v49h481v370h49v-370zM1223 209h-1012v49h1012v-49z" />
    <glyph glyph-name="uni00B2" unicode="&#xb2;" horiz-adv-x="743" 
d="M614 942h-522v10l262 269q118 124 167.5 200.5t49.5 157.5q0 76 -53 126.5t-141 49.5q-88 -2 -146.5 -55t-78.5 -154l-13 -4l-37 6q20 122 94 188t189 66q105 0 172.5 -62.5t67.5 -158.5q0 -85 -49.5 -167t-157.5 -195l-103 -109q-38 -40 -127 -121l2 -2q53 2 156 2h268
v-47z" />
    <glyph glyph-name="uni00B3" unicode="&#xb3;" horiz-adv-x="743" 
d="M365 903q-119 0 -194 65t-87 179l39 6l12 -4q9 -90 70.5 -144.5t154.5 -54.5q95 0 154 56t59 145q0 95 -60 147t-173 52h-33v43h29q109 0 168 49.5t59 138.5q0 76 -53 125t-137 49q-88 0 -146 -47.5t-73 -134.5l-13 -6l-37 6q13 104 87.5 166.5t183.5 62.5
q105 0 172 -60.5t67 -156.5q0 -82 -46.5 -139.5t-133.5 -75.5q89 -12 140 -70.5t51 -146.5q0 -107 -74 -178.5t-186 -71.5z" />
    <glyph glyph-name="acute" unicode="&#xb4;" horiz-adv-x="428" 
d="M106 1094h-45l250 376h51l5 -8z" />
    <glyph glyph-name="uni00B5" unicode="&#xb5;" horiz-adv-x="1148" 
d="M244 -446h-49v1335h49v-496q0 -199 72.5 -292t220.5 -93q138 0 250 120t112 275v486h49v-783q0 -57 14.5 -76.5t53.5 -19.5q20 0 76 21l6 -4v-39q-54 -23 -92 -23q-58 0 -82.5 30.5t-24.5 106.5v138q-55 -131 -157 -205t-220 -74q-103 0 -177.5 48t-100.5 136v-591z" />
    <glyph glyph-name="paragraph" unicode="&#xb6;" horiz-adv-x="1249" 
d="M635 -446h-53v1138q-194 0 -319.5 103.5t-125.5 265.5q0 187 118.5 288t338.5 101h401v-1896h-51v1849h-309v-1849z" />
    <glyph glyph-name="periodcentered" unicode="&#xb7;" horiz-adv-x="477" 
d="M238 514q-21 0 -35.5 15t-14.5 38q0 24 14.5 39t35.5 15q22 0 36.5 -15t14.5 -39q0 -23 -14.5 -38t-36.5 -15z" />
    <glyph glyph-name="cedilla" unicode="&#xb8;" horiz-adv-x="538" 
d="M264 -465q-94 0 -190 45l14 37l8 2q85 -43 172 -43q69 0 113.5 35.5t44.5 89.5q0 102 -141 102q-77 0 -131 -30l-17 16l119 193h45l-98 -156q53 16 104 16q74 0 120 -37.5t46 -101.5q0 -74 -58 -121t-151 -47z" />
    <glyph glyph-name="uni00B9" unicode="&#xb9;" horiz-adv-x="743" 
d="M426 942h-51v682q0 84 2 117l-2 2l-56 -37l-137 -78l-6 4l4 49l234 129h12v-868z" />
    <glyph glyph-name="ordmasculine" unicode="&#xba;" horiz-adv-x="692" 
d="M344 891q-122 0 -202.5 83t-80.5 204q0 120 80 201t203 81q124 0 205.5 -81.5t81.5 -200.5q0 -121 -82 -204t-205 -83zM344 934q100 0 169 70.5t69 173.5q0 102 -68 171.5t-170 69.5q-101 0 -168 -69.5t-67 -171.5q0 -103 68.5 -173.5t166.5 -70.5z" />
    <glyph glyph-name="guillemotright" unicode="&#xbb;" horiz-adv-x="882" 
d="M440 457l-239 -351l-31 19l-2 6l217 326l-217 325l2 6l31 19zM756 457l-240 -351l-29 19l-2 6l215 326l-215 325l2 6l29 19z" />
    <glyph glyph-name="onequarter" unicode="&#xbc;" horiz-adv-x="1726" 
d="M1192 1546h57l-848 -1620h-59zM436 612h-51v682q0 84 2 117l-2 2l-55 -37l-137 -78l-7 5l4 49l234 129h12v-869zM1362 0h-49v205h-451v20l473 643h27v-616h102v-47h-102v-205zM1237 655l-297 -403h373v336q0 90 6 182h-2q-51 -78 -80 -115z" />
    <glyph glyph-name="onehalf" unicode="&#xbd;" horiz-adv-x="1726" 
d="M1128 1546h60l-848 -1620h-61zM375 612h-51v682q0 84 4 117l-4 2q-53 -35 -56 -37l-137 -78l-4 5l2 49l233 129h13v-869zM1509 0h-522v10l260 269q119 123 169 200t50 158q0 76 -53 126.5t-141 49.5q-90 -2 -148 -55t-77 -154l-13 -4l-39 6q20 122 95 188t190 66
q104 0 172 -63t68 -158q0 -84 -49.5 -166.5t-157.5 -196.5l-103 -108q-38 -40 -127 -121l2 -2q53 2 156 2h268v-47z" />
    <glyph glyph-name="threequarters" unicode="&#xbe;" horiz-adv-x="1726" 
d="M1300 1546h58l-848 -1620h-59zM430 575q-119 0 -193.5 65t-86.5 179l38 6l13 -4q11 -90 72.5 -144t154.5 -54q94 0 153.5 55.5t59.5 144.5q0 95 -60.5 147t-174.5 52h-33v43h30q108 0 167 49t59 139q0 76 -53 125t-138 49q-89 0 -146.5 -47.5t-70.5 -134.5l-12 -6l-39 6
q15 104 89 167t183 63q104 0 172 -61t68 -157q0 -81 -47 -139t-133 -76q89 -12 139.5 -70.5t50.5 -146.5q0 -107 -75 -178.5t-187 -71.5zM1473 0h-50v205h-450v20l473 643h27v-616h102v-47h-102v-205zM1348 655l-297 -403h372v336q0 111 7 182h-3q-38 -57 -79 -115z" />
    <glyph glyph-name="questiondown" unicode="&#xbf;" horiz-adv-x="1032" 
d="M508 928q22 0 36.5 -15.5t14.5 -38.5q0 -24 -14.5 -38.5t-36.5 -14.5q-21 0 -35 14.5t-14 38.5q0 23 14.5 38.5t34.5 15.5zM489 514h52l2 -123q0 -88 -33.5 -157t-108.5 -132q-119 -99 -160.5 -174t-41.5 -176q0 -123 82 -202.5t213 -79.5q132 0 224.5 74.5t119.5 209.5
l10 6l43 -8q-28 -154 -136 -244t-261 -90q-157 0 -254 92t-97 242q0 103 39.5 184.5t136.5 163.5q104 86 137 146t33 162v106z" />
    <glyph glyph-name="Agrave" unicode="&#xc0;" horiz-adv-x="1282" 
d="M561 1839l197 -274h-49l-207 266l4 8h55zM1274 0h-62l-180 430h-784l-178 -430h-62l619 1456h24zM481 989l-211 -508h742l-213 506l-158 369h-4q-18 -42 -73 -170.5t-83 -196.5z" />
    <glyph glyph-name="Aacute" unicode="&#xc1;" horiz-adv-x="1282" 
d="M776 1839l6 -8l-209 -266h-49l197 274h55zM1274 0h-62l-180 430h-784l-178 -430h-62l619 1456h24zM481 989l-211 -508h742l-213 506l-158 369h-4q-18 -42 -73 -170.5t-83 -196.5z" />
    <glyph glyph-name="Acircumflex" unicode="&#xc2;" horiz-adv-x="1282" 
d="M641 1808l-190 -243h-43l-7 8l209 266h62l209 -266l-7 -8h-45zM1274 0h-62l-180 430h-784l-178 -430h-62l619 1456h24zM481 989l-211 -508h742l-213 506l-158 369h-4q-18 -42 -73 -170.5t-83 -196.5z" />
    <glyph glyph-name="Atilde" unicode="&#xc3;" horiz-adv-x="1282" 
d="M432 1628l-4 -4h-39q8 71 41 113.5t84 42.5q33 0 69.5 -17.5t63 -38t60 -38t61.5 -17.5q66 0 82 105l4 6h41q-9 -72 -42.5 -114t-84.5 -42q-34 0 -70 17t-62 37.5t-59.5 37.5t-62.5 17q-63 0 -82 -105zM1274 0h-62l-180 430h-784l-178 -430h-62l619 1456h24zM481 989
l-211 -508h742l-213 506l-158 369h-4q-18 -42 -73 -170.5t-83 -196.5z" />
    <glyph glyph-name="Adieresis" unicode="&#xc4;" horiz-adv-x="1282" 
d="M479 1657q-15 4 -20.5 20t0.5 33t21 24t30 1q32 -18 20 -56q-6 -17 -21 -23.5t-30 1.5zM774 1657q-14 5 -20 20.5t0 32.5t21 24t30 1q32 -18 20 -56q-6 -17 -21 -23.5t-30 1.5zM1274 0h-62l-180 430h-784l-178 -430h-62l619 1456h24zM481 989l-211 -508h742l-213 506
l-158 369h-4q-18 -42 -73 -170.5t-83 -196.5z" />
    <glyph glyph-name="Aring" unicode="&#xc5;" horiz-adv-x="1282" 
d="M641 1534q-81 0 -139 56.5t-58 138.5t58 138t139 56t139 -56t58 -138t-58 -138.5t-139 -56.5zM641 1886q-66 0 -112 -46t-46 -111t46 -111.5t112 -46.5t112 46.5t46 111.5t-46 111t-112 46zM1274 0h-62l-180 430h-784l-178 -430h-62l619 1456h24zM481 989l-211 -508h742
l-213 506l-158 369h-4q-18 -42 -73 -170.5t-83 -196.5z" />
    <glyph glyph-name="AE" unicode="&#xc6;" horiz-adv-x="1839" 
d="M1630 717h-682v-664h731l-8 -53h-776v430h-567l-258 -430h-62l873 1450h790l8 -53h-731v-627h682v-53zM625 926l-267 -445h537v443q0 302 2 454h-4q-111 -190 -268 -452z" />
    <glyph glyph-name="Ccedilla" unicode="&#xc7;" horiz-adv-x="1662" 
d="M879 -39h-25l-86 -135q53 16 104 16q74 0 120 -37.5t46 -101.5q0 -74 -58 -121t-151 -47q-94 0 -190 45l14 37l9 2q85 -43 172 -43q69 0 113 35.5t44 89.5q0 102 -141 102q-77 0 -131 -30l-17 16l109 174q-194 16 -349 118.5t-242 271t-87 372.5q0 161 56.5 303
t154.5 243t235 159.5t293 58.5q220 0 381.5 -97.5t274.5 -297.5l-39 -29l-12 4q-204 367 -605 367q-143 0 -269.5 -55t-217 -149t-143 -226t-52.5 -281q0 -197 91 -360.5t248.5 -257t347.5 -93.5q202 0 357.5 92.5t254.5 270.5l12 4l37 -27q-232 -393 -659 -393z" />
    <glyph glyph-name="Egrave" unicode="&#xc8;" horiz-adv-x="1198" 
d="M758 1565h-49l-207 266l4 8h55zM254 0v1450h776l8 -53h-731v-627h682v-53h-682v-664h731l-8 -53h-776z" />
    <glyph glyph-name="Eacute" unicode="&#xc9;" horiz-adv-x="1198" 
d="M573 1565h-49l197 274h55l6 -8zM254 0v1450h776l8 -53h-731v-627h682v-53h-682v-664h731l-8 -53h-776z" />
    <glyph glyph-name="Ecircumflex" unicode="&#xca;" horiz-adv-x="1198" 
d="M829 1565l-188 243l-190 -243h-43l-7 8l209 266h62l209 -266l-7 -8h-45zM254 0v1450h776l8 -53h-731v-627h682v-53h-682v-664h731l-8 -53h-776z" />
    <glyph glyph-name="Edieresis" unicode="&#xcb;" horiz-adv-x="1198" 
d="M477 1657q-15 4 -20.5 20t0.5 33t21 24t30 1q32 -18 20 -56q-6 -17 -21 -23.5t-30 1.5zM772 1657q-14 5 -20 20.5t0 32.5t21 24t30 1q32 -18 20 -56q-6 -17 -21 -23.5t-30 1.5zM254 0v1450h776l8 -53h-731v-627h682v-53h-682v-664h731l-8 -53h-776z" />
    <glyph glyph-name="Igrave" unicode="&#xcc;" horiz-adv-x="561" 
d="M397 1565h-49l-207 266l4 8h56zM254 0v1450h53v-1450h-53z" />
    <glyph glyph-name="Iacute" unicode="&#xcd;" horiz-adv-x="561" 
d="M213 1565h-49l196 274h56l6 -8zM254 0v1450h53v-1450h-53z" />
    <glyph glyph-name="Icircumflex" unicode="&#xce;" horiz-adv-x="561" 
d="M469 1565l-188 243l-191 -243h-43l-6 8l209 266h61l209 -266l-6 -8h-45zM254 0v1450h53v-1450h-53z" />
    <glyph glyph-name="Idieresis" unicode="&#xcf;" horiz-adv-x="561" 
d="M117 1657q-15 4 -21 20t0 33t21 24t30 1q33 -18 21 -56q-6 -17 -21 -23.5t-30 1.5zM412 1657q-14 5 -20.5 20.5t-0.5 32.5t21 24t30 1q33 -18 21 -56q-6 -17 -21 -23.5t-30 1.5zM254 0v1450h53v-1450h-53z" />
    <glyph glyph-name="Eth" unicode="&#xd0;" horiz-adv-x="1533" 
d="M254 1450h334q401 0 609 -182t208 -529q0 -356 -214 -547.5t-603 -191.5h-334v717h-139v53h139v680zM307 53h254q384 0 585.5 172t201.5 514q0 658 -783 658h-258v-627h486v-53h-486v-664z" />
    <glyph glyph-name="Ntilde" unicode="&#xd1;" horiz-adv-x="1669" 
d="M983 1624q51 0 84.5 42t42.5 114h-41l-4 -6q-16 -105 -82 -105q-28 0 -61.5 17.5t-60 38t-63 38t-69.5 17.5q-51 0 -84 -42.5t-41 -113.5h39l4 4q19 105 82 105q29 0 62.5 -17t59.5 -37.5t62 -37.5t70 -17zM307 0h-53v1450h65l779 -1001q49 -65 144 -186.5t114 -145.5h6
v368v965h53v-1479h-10l-834 1069q-45 58 -132 168.5t-126 161.5h-6v-369v-1001z" />
    <glyph glyph-name="Ograve" unicode="&#xd2;" horiz-adv-x="1785" 
d="M1010 1565h-49l-207 266l4 8h55zM893 -39q-167 0 -310 59t-241 161.5t-153.5 243t-55.5 300.5t54.5 300t152 242.5t241 162t312.5 59.5q170 0 313.5 -59.5t241 -162t151.5 -242.5t54 -300q0 -214 -93.5 -387.5t-268 -275t-398.5 -101.5zM893 14q153 0 285 56t223 151.5
t142.5 226t51.5 277.5q0 199 -87.5 360.5t-248.5 256t-366 94.5q-154 0 -286 -55t-223 -150.5t-142.5 -226.5t-51.5 -279q0 -147 52 -277.5t143 -226t223 -151.5t285 -56z" />
    <glyph glyph-name="Oacute" unicode="&#xd3;" horiz-adv-x="1785" 
d="M825 1565h-49l197 274h55l6 -8zM893 -39q-167 0 -310 59t-241 161.5t-153.5 243t-55.5 300.5t54.5 300t152 242.5t241 162t312.5 59.5q170 0 313.5 -59.5t241 -162t151.5 -242.5t54 -300q0 -214 -93.5 -387.5t-268 -275t-398.5 -101.5zM893 14q153 0 285 56t223 151.5
t142.5 226t51.5 277.5q0 199 -87.5 360.5t-248.5 256t-366 94.5q-154 0 -286 -55t-223 -150.5t-142.5 -226.5t-51.5 -279q0 -147 52 -277.5t143 -226t223 -151.5t285 -56z" />
    <glyph glyph-name="Ocircumflex" unicode="&#xd4;" horiz-adv-x="1785" 
d="M1081 1565l-188 243l-191 -243h-43l-6 8l209 266h62l209 -266l-7 -8h-45zM893 -39q-167 0 -310 59t-241 161.5t-153.5 243t-55.5 300.5t54.5 300t152 242.5t241 162t312.5 59.5q170 0 313.5 -59.5t241 -162t151.5 -242.5t54 -300q0 -214 -93.5 -387.5t-268 -275
t-398.5 -101.5zM893 14q153 0 285 56t223 151.5t142.5 226t51.5 277.5q0 199 -87.5 360.5t-248.5 256t-366 94.5q-154 0 -286 -55t-223 -150.5t-142.5 -226.5t-51.5 -279q0 -147 52 -277.5t143 -226t223 -151.5t285 -56z" />
    <glyph glyph-name="Otilde" unicode="&#xd5;" horiz-adv-x="1785" 
d="M1020 1624q51 0 84.5 42t42.5 114h-41l-4 -6q-16 -105 -82 -105q-28 0 -61.5 17.5t-60 38t-63 38t-69.5 17.5q-51 0 -84 -42.5t-41 -113.5h39l4 4q19 105 82 105q29 0 62.5 -17t59.5 -37.5t62 -37.5t70 -17zM893 -39q-167 0 -310 59t-241 161.5t-153.5 243t-55.5 300.5
t54.5 300t152 242.5t241 162t312.5 59.5q170 0 313.5 -59.5t241 -162t151.5 -242.5t54 -300q0 -214 -93.5 -387.5t-268 -275t-398.5 -101.5zM893 14q153 0 285 56t223 151.5t142.5 226t51.5 277.5q0 199 -87.5 360.5t-248.5 256t-366 94.5q-154 0 -286 -55t-223 -150.5
t-142.5 -226.5t-51.5 -279q0 -147 52 -277.5t143 -226t223 -151.5t285 -56z" />
    <glyph glyph-name="Odieresis" unicode="&#xd6;" horiz-adv-x="1785" 
d="M731 1657q-15 4 -20.5 20t0.5 33t21 24t30 1q32 -18 20 -56q-6 -17 -21 -23.5t-30 1.5zM1026 1657q-14 5 -20 20.5t0 32.5t21 24t30 1q32 -18 20 -56q-6 -17 -21 -23.5t-30 1.5zM893 -39q-167 0 -310 59t-241 161.5t-153.5 243t-55.5 300.5t54.5 300t152 242.5t241 162
t312.5 59.5q170 0 313.5 -59.5t241 -162t151.5 -242.5t54 -300q0 -214 -93.5 -387.5t-268 -275t-398.5 -101.5zM893 14q153 0 285 56t223 151.5t142.5 226t51.5 277.5q0 199 -87.5 360.5t-248.5 256t-366 94.5q-154 0 -286 -55t-223 -150.5t-142.5 -226.5t-51.5 -279
q0 -147 52 -277.5t143 -226t223 -151.5t285 -56z" />
    <glyph glyph-name="multiply" unicode="&#xd7;" horiz-adv-x="1433" 
d="M1106 1051l35 -33l-389 -391l389 -389l-35 -35l-389 389l-389 -389l-35 35l389 389l-389 391l35 33l389 -389z" />
    <glyph glyph-name="Oslash" unicode="&#xd8;" horiz-adv-x="1785" 
d="M1536 1460l-131 -153q119 -105 183.5 -255.5t64.5 -326.5q0 -214 -93.5 -387.5t-268 -275t-398.5 -101.5q-282 0 -487 162l-121 -143l-33 26l123 146q-116 103 -179 251.5t-63 321.5q0 160 54.5 300t152 242.5t241 162t312.5 59.5q282 0 481 -156l129 152zM190 725
q0 -156 58 -293.5t164 -236.5l925 1093q-188 148 -444 148q-154 0 -286 -55t-223 -150.5t-142.5 -226.5t-51.5 -279zM893 14q153 0 285 56t223 151.5t142.5 226t51.5 277.5q0 161 -59.5 300t-167.5 237l-924 -1094q188 -154 449 -154z" />
    <glyph glyph-name="Ugrave" unicode="&#xd9;" horiz-adv-x="1558" 
d="M895 1565h-49l-207 266l4 8h55zM778 -39q-545 0 -545 617v872h56v-868q0 -568 489 -568q492 0 492 568v868h53v-872q0 -307 -137.5 -462t-407.5 -155z" />
    <glyph glyph-name="Uacute" unicode="&#xda;" horiz-adv-x="1558" 
d="M713 1565h-49l196 274h55l7 -8zM778 -39q-545 0 -545 617v872h56v-868q0 -568 489 -568q492 0 492 568v868h53v-872q0 -307 -137.5 -462t-407.5 -155z" />
    <glyph glyph-name="Ucircumflex" unicode="&#xdb;" horiz-adv-x="1558" 
d="M967 1565l-189 243l-190 -243h-43l-6 8l209 266h61l209 -266l-6 -8h-45zM778 -39q-545 0 -545 617v872h56v-868q0 -568 489 -568q492 0 492 568v868h53v-872q0 -307 -137.5 -462t-407.5 -155z" />
    <glyph glyph-name="Udieresis" unicode="&#xdc;" horiz-adv-x="1558" 
d="M616 1657q-15 4 -20.5 20t0.5 33t21 24t30 1q33 -18 21 -56q-6 -17 -21.5 -23.5t-30.5 1.5zM911 1657q-14 5 -20 20.5t0 32.5t21 24t30 1q33 -18 21 -56q-6 -17 -21.5 -23.5t-30.5 1.5zM778 -39q-545 0 -545 617v872h56v-868q0 -568 489 -568q492 0 492 568v868h53v-872
q0 -307 -137.5 -462t-407.5 -155z" />
    <glyph glyph-name="Yacute" unicode="&#xdd;" horiz-adv-x="1122" 
d="M496 1565h-50l197 274h55l7 -8zM590 0h-55v610l-508 840h59l256 -430q92 -156 217 -354h6q25 41 99.5 163.5t113.5 188.5l256 432h62l-506 -840v-610z" />
    <glyph glyph-name="Thorn" unicode="&#xde;" horiz-adv-x="1153" 
d="M307 0h-53v1450h53v-289h281q242 0 363.5 -105t121.5 -308q0 -199 -123.5 -308.5t-361.5 -109.5h-281v-330zM307 1110v-729h258q232 0 342.5 92t110.5 275q0 362 -443 362h-268z" />
    <glyph glyph-name="germandbls" unicode="&#xdf;" horiz-adv-x="1144" 
d="M641 -39q-107 0 -207 35l12 43l7 4q103 -35 184 -35q152 0 247 115.5t95 290.5q0 184 -116 286.5t-292 102.5h-34v45h34q137 0 227.5 87.5t90.5 238.5q0 138 -87.5 221.5t-228.5 83.5q-329 0 -329 -443v-1036h-49v1034q0 236 92.5 364t287.5 128q162 0 263.5 -96
t101.5 -252q0 -144 -72 -233t-186 -114q165 -28 257.5 -136t92.5 -279q0 -198 -109 -326.5t-282 -128.5z" />
    <glyph glyph-name="agrave" unicode="&#xe0;" horiz-adv-x="964" 
d="M340 1470l250 -376h-45l-260 368l4 8h51zM907 31l6 -4v-39q-54 -23 -92 -23q-58 0 -82 30.5t-24 106.5v54q-115 -109 -203 -152t-182 -43q-102 0 -167 60.5t-65 156.5q0 140 142.5 220t474.5 118v72q0 152 -55.5 222.5t-172.5 70.5q-88 0 -176.5 -56.5t-148.5 -150.5
l-8 -2l-35 24q64 105 167.5 168.5t207.5 63.5q132 0 201 -79.5t69 -230.5v-512q0 -58 14 -77t53 -19q21 0 76 21zM150 182q0 -81 53.5 -127.5t140.5 -46.5q85 0 169 43t202 152v270q-299 -33 -432 -103t-133 -188z" />
    <glyph glyph-name="aacute" unicode="&#xe1;" horiz-adv-x="964" 
d="M666 1470l6 -8l-262 -368h-45l249 376h52zM907 31l6 -4v-39q-54 -23 -92 -23q-58 0 -82 30.5t-24 106.5v54q-115 -109 -203 -152t-182 -43q-102 0 -167 60.5t-65 156.5q0 140 142.5 220t474.5 118v72q0 152 -55.5 222.5t-172.5 70.5q-88 0 -176.5 -56.5t-148.5 -150.5
l-8 -2l-35 24q64 105 167.5 168.5t207.5 63.5q132 0 201 -79.5t69 -230.5v-512q0 -58 14 -77t53 -19q21 0 76 21zM150 182q0 -81 53.5 -127.5t140.5 -46.5q85 0 169 43t202 152v270q-299 -33 -432 -103t-133 -188z" />
    <glyph glyph-name="acircumflex" unicode="&#xe2;" horiz-adv-x="964" 
d="M479 1436l-196 -342h-43l-4 8l215 368h59l215 -368l-6 -8h-43zM907 31l6 -4v-39q-54 -23 -92 -23q-58 0 -82 30.5t-24 106.5v54q-115 -109 -203 -152t-182 -43q-102 0 -167 60.5t-65 156.5q0 140 142.5 220t474.5 118v72q0 152 -55.5 222.5t-172.5 70.5
q-88 0 -176.5 -56.5t-148.5 -150.5l-8 -2l-35 24q64 105 167.5 168.5t207.5 63.5q132 0 201 -79.5t69 -230.5v-512q0 -58 14 -77t53 -19q21 0 76 21zM150 182q0 -81 53.5 -127.5t140.5 -46.5q85 0 169 43t202 152v270q-299 -33 -432 -103t-133 -188z" />
    <glyph glyph-name="atilde" unicode="&#xe3;" horiz-adv-x="964" 
d="M270 1167l-4 -4h-39q8 71 41 113.5t84 42.5q33 0 69.5 -17.5t63 -38t60 -38t61.5 -17.5q66 0 82 105l4 6h41q-9 -72 -42.5 -114t-84.5 -42q-34 0 -70 17t-62 37.5t-59.5 37.5t-62.5 17q-63 0 -82 -105zM907 31l6 -4v-39q-54 -23 -92 -23q-58 0 -82 30.5t-24 106.5v54
q-115 -109 -203 -152t-182 -43q-102 0 -167 60.5t-65 156.5q0 140 142.5 220t474.5 118v72q0 152 -55.5 222.5t-172.5 70.5q-88 0 -176.5 -56.5t-148.5 -150.5l-8 -2l-35 24q64 105 167.5 168.5t207.5 63.5q132 0 201 -79.5t69 -230.5v-512q0 -58 14 -77t53 -19q21 0 76 21z
M150 182q0 -81 53.5 -127.5t140.5 -46.5q85 0 169 43t202 152v270q-299 -33 -432 -103t-133 -188z" />
    <glyph glyph-name="adieresis" unicode="&#xe4;" horiz-adv-x="964" 
d="M317 1178q-14 5 -19 19.5t1 31.5t21 23t28 -1q35 -14 19 -53q-6 -17 -20.5 -22.5t-29.5 2.5zM608 1178q-14 5 -19 19.5t1 31.5t20 22.5t29 -0.5q31 -14 18 -53q-6 -17 -20 -22.5t-29 2.5zM907 31l6 -4v-39q-54 -23 -92 -23q-58 0 -82 30.5t-24 106.5v54
q-115 -109 -203 -152t-182 -43q-102 0 -167 60.5t-65 156.5q0 140 142.5 220t474.5 118v72q0 152 -55.5 222.5t-172.5 70.5q-88 0 -176.5 -56.5t-148.5 -150.5l-8 -2l-35 24q64 105 167.5 168.5t207.5 63.5q132 0 201 -79.5t69 -230.5v-512q0 -58 14 -77t53 -19q21 0 76 21z
M150 182q0 -81 53.5 -127.5t140.5 -46.5q85 0 169 43t202 152v270q-299 -33 -432 -103t-133 -188z" />
    <glyph glyph-name="aring" unicode="&#xe5;" horiz-adv-x="964" 
d="M479 1065q-80 0 -138 56.5t-58 138.5t57.5 138t138.5 56t139 -56t58 -138t-58 -138.5t-139 -56.5zM479 1417q-66 0 -111.5 -46t-45.5 -111q0 -66 45.5 -112t111.5 -46t112 46t46 112q0 65 -46 111t-112 46zM907 31l6 -4v-39q-54 -23 -92 -23q-58 0 -82 30.5t-24 106.5v54
q-115 -109 -203 -152t-182 -43q-102 0 -167 60.5t-65 156.5q0 140 142.5 220t474.5 118v72q0 152 -55.5 222.5t-172.5 70.5q-88 0 -176.5 -56.5t-148.5 -150.5l-8 -2l-35 24q64 105 167.5 168.5t207.5 63.5q132 0 201 -79.5t69 -230.5v-512q0 -58 14 -77t53 -19q21 0 76 21z
M150 182q0 -81 53.5 -127.5t140.5 -46.5q85 0 169 43t202 152v270q-299 -33 -432 -103t-133 -188z" />
    <glyph glyph-name="ae" unicode="&#xe6;" horiz-adv-x="1644" 
d="M330 -39q-102 0 -167 60.5t-65 156.5q0 138 140 213t477 111v86q0 155 -52.5 224t-164.5 69q-92 0 -184 -56.5t-152 -150.5l-8 -2l-35 24q64 105 170 168.5t215 63.5q119 0 182.5 -70t69.5 -205h2q45 128 149.5 201.5t231.5 73.5q177 0 287 -124.5t110 -322.5v-22h-770
q-1 -206 105.5 -328.5t271.5 -122.5q104 0 191 53.5t147 155.5l8 2l37 -22q-63 -113 -164.5 -174.5t-222.5 -61.5q-120 0 -218.5 63t-152.5 173q-138 -139 -235 -187.5t-203 -48.5zM766 506h717q-4 169 -100.5 272t-245.5 103q-145 0 -250.5 -104.5t-120.5 -270.5zM344 8
q91 0 180.5 46t227.5 177q-37 107 -37 226q-305 -32 -435 -95t-130 -180q0 -81 53.5 -127.5t140.5 -46.5z" />
    <glyph glyph-name="ccedilla" unicode="&#xe7;" horiz-adv-x="1064" 
d="M905 223l8 4l35 -22q-64 -120 -166 -182t-231 -62l-86 -135q53 16 104 16q74 0 120 -37.5t46 -101.5q0 -74 -58 -121t-151 -47q-94 0 -190 45l14 37l8 2q85 -43 172 -43q69 0 113.5 35.5t44.5 89.5q0 102 -141 102q-77 0 -131 -30l-17 16l107 174q-181 14 -291.5 145
t-110.5 336q0 216 124 350t323 134q130 0 231.5 -62.5t165.5 -183.5l-37 -23l-6 3q-128 219 -352 219q-173 0 -285 -119.5t-112 -317.5t112 -317t285 -119q226 0 352 215z" />
    <glyph glyph-name="egrave" unicode="&#xe8;" horiz-adv-x="1071" 
d="M401 1470l250 -376h-45l-260 368l4 8h51zM961 451h-801v-19q0 -190 112.5 -307t284.5 -117q225 0 350 209l8 2l35 -22q-61 -114 -164.5 -175t-232.5 -61q-198 0 -321 133.5t-123 349.5q0 215 121.5 349.5t312.5 134.5q190 0 305 -124.5t115 -330.5q0 -12 -2 -22zM543 881
q-158 0 -264.5 -106.5t-116.5 -278.5h747q-4 178 -103.5 281.5t-262.5 103.5z" />
    <glyph glyph-name="eacute" unicode="&#xe9;" horiz-adv-x="1071" 
d="M727 1470l6 -8l-262 -368h-45l250 376h51zM961 451h-801v-19q0 -190 112.5 -307t284.5 -117q225 0 350 209l8 2l35 -22q-61 -114 -164.5 -175t-232.5 -61q-198 0 -321 133.5t-123 349.5q0 215 121.5 349.5t312.5 134.5q190 0 305 -124.5t115 -330.5q0 -12 -2 -22z
M543 881q-158 0 -264.5 -106.5t-116.5 -278.5h747q-4 178 -103.5 281.5t-262.5 103.5z" />
    <glyph glyph-name="ecircumflex" unicode="&#xea;" horiz-adv-x="1071" 
d="M541 1436l-197 -342h-43l-4 8l215 368h59l215 -368l-6 -8h-43zM961 451h-801v-19q0 -190 112.5 -307t284.5 -117q225 0 350 209l8 2l35 -22q-61 -114 -164.5 -175t-232.5 -61q-198 0 -321 133.5t-123 349.5q0 215 121.5 349.5t312.5 134.5q190 0 305 -124.5t115 -330.5
q0 -12 -2 -22zM543 881q-158 0 -264.5 -106.5t-116.5 -278.5h747q-4 178 -103.5 281.5t-262.5 103.5z" />
    <glyph glyph-name="edieresis" unicode="&#xeb;" horiz-adv-x="1071" 
d="M379 1178q-14 5 -19.5 19.5t0.5 31.5t21.5 23t28.5 -1q34 -14 18 -53q-6 -17 -20 -22.5t-29 2.5zM670 1178q-14 5 -19.5 19.5t0.5 31.5t20 22.5t29 -0.5q31 -14 19 -53q-6 -17 -20 -22.5t-29 2.5zM961 451h-801v-19q0 -190 112.5 -307t284.5 -117q225 0 350 209l8 2
l35 -22q-61 -114 -164.5 -175t-232.5 -61q-198 0 -321 133.5t-123 349.5q0 215 121.5 349.5t312.5 134.5q190 0 305 -124.5t115 -330.5q0 -12 -2 -22zM543 881q-158 0 -264.5 -106.5t-116.5 -278.5h747q-4 178 -103.5 281.5t-262.5 103.5z" />
    <glyph glyph-name="igrave" unicode="&#xec;" horiz-adv-x="438" 
d="M80 1470l250 -376h-45l-260 368l4 8h51zM244 0h-49v889h49v-889z" />
    <glyph glyph-name="iacute" unicode="&#xed;" horiz-adv-x="438" 
d="M147 1094h-45l250 376h51l7 -8zM244 0h-49v889h49v-889z" />
    <glyph glyph-name="icircumflex" unicode="&#xee;" horiz-adv-x="438" 
d="M416 1094l-197 342l-196 -342h-43l-5 8l215 368h60l215 -368l-6 -8h-43zM244 0h-49v889h49v-889z" />
    <glyph glyph-name="idieresis" unicode="&#xef;" horiz-adv-x="438" 
d="M57 1178q-14 5 -19 19.5t1 31.5t21 23t28 -1q34 -14 18 -53q-6 -17 -20 -22.5t-29 2.5zM348 1178q-14 5 -19 19.5t1 31.5t20 22.5t29 -0.5q31 -14 18 -53q-6 -17 -20 -22.5t-29 2.5zM244 0h-49v889h49v-889z" />
    <glyph glyph-name="eth" unicode="&#xf0;" horiz-adv-x="1181" 
d="M911 1409l-235 -111q319 -363 319 -833q0 -226 -131.5 -365t-328.5 -139q-198 0 -314.5 134.5t-116.5 353.5q0 211 126 345t313 134q130 0 238 -77.5t157 -207.5q-34 189 -106.5 339t-202.5 296l-242 -115l-29 35l238 113q-81 90 -193 180l39 31q96 -75 205 -187l236 109
zM539 8q168 0 284 121t119 303q4 185 -112 316t-281 131q-169 0 -281 -120.5t-112 -309.5q0 -197 104 -319t279 -122z" />
    <glyph glyph-name="ntilde" unicode="&#xf1;" horiz-adv-x="1159" 
d="M707 1163q51 0 84.5 42t42.5 114h-41l-5 -6q-16 -105 -81 -105q-28 0 -61.5 17.5t-60 38t-63 38t-69.5 17.5q-51 0 -84 -42.5t-41 -113.5h39l4 4q19 105 82 105q29 0 62.5 -17t59.5 -37.5t62 -37.5t70 -17zM195 0v889h49v-242q55 132 157.5 206.5t227.5 74.5
q166 0 251 -100t85 -298v-530h-50v494q0 200 -72.5 292.5t-228.5 92.5q-145 0 -257.5 -119.5t-112.5 -274.5v-485h-49z" />
    <glyph glyph-name="ograve" unicode="&#xf2;" horiz-adv-x="1165" 
d="M444 1470l250 -376h-45l-260 368l4 8h51zM582 -39q-205 0 -341.5 140t-136.5 343q0 133 60.5 243.5t170.5 175.5t247 65t247.5 -65t171 -175.5t60.5 -243.5q0 -203 -136 -343t-343 -140zM582 8q180 0 303 126.5t123 309.5t-122 309t-304 126t-304 -126t-122 -309
t123.5 -309.5t302.5 -126.5z" />
    <glyph glyph-name="oacute" unicode="&#xf3;" horiz-adv-x="1165" 
d="M512 1094h-45l250 376h51l6 -8zM582 -39q-205 0 -341.5 140t-136.5 343q0 133 60.5 243.5t170.5 175.5t247 65t247.5 -65t171 -175.5t60.5 -243.5q0 -203 -136 -343t-343 -140zM582 8q180 0 303 126.5t123 309.5t-122 309t-304 126t-304 -126t-122 -309t123.5 -309.5
t302.5 -126.5z" />
    <glyph glyph-name="ocircumflex" unicode="&#xf4;" horiz-adv-x="1165" 
d="M778 1094l-196 342l-197 -342h-43l-4 8l215 368h59l215 -368l-6 -8h-43zM582 -39q-205 0 -341.5 140t-136.5 343q0 133 60.5 243.5t170.5 175.5t247 65t247.5 -65t171 -175.5t60.5 -243.5q0 -203 -136 -343t-343 -140zM582 8q180 0 303 126.5t123 309.5t-122 309
t-304 126t-304 -126t-122 -309t123.5 -309.5t302.5 -126.5z" />
    <glyph glyph-name="otilde" unicode="&#xf5;" horiz-adv-x="1165" 
d="M709 1163q51 0 84.5 42t42.5 114h-41l-4 -6q-16 -105 -82 -105q-28 0 -61.5 17.5t-60 38t-63 38t-69.5 17.5q-51 0 -84 -42.5t-41 -113.5h39l4 4q19 105 82 105q29 0 62.5 -17t59.5 -37.5t62 -37.5t70 -17zM582 -39q-205 0 -341.5 140t-136.5 343q0 133 60.5 243.5
t170.5 175.5t247 65t247.5 -65t171 -175.5t60.5 -243.5q0 -203 -136 -343t-343 -140zM582 8q180 0 303 126.5t123 309.5t-122 309t-304 126t-304 -126t-122 -309t123.5 -309.5t302.5 -126.5z" />
    <glyph glyph-name="odieresis" unicode="&#xf6;" horiz-adv-x="1165" 
d="M422 1178q-14 5 -19.5 19.5t0.5 31.5t21.5 23t28.5 -1q34 -14 18 -53q-6 -17 -20 -22.5t-29 2.5zM713 1178q-14 5 -19.5 19.5t0.5 31.5t20 22.5t29 -0.5q31 -14 19 -53q-6 -17 -20 -22.5t-29 2.5zM582 -39q-205 0 -341.5 140t-136.5 343q0 133 60.5 243.5t170.5 175.5
t247 65t247.5 -65t171 -175.5t60.5 -243.5q0 -203 -136 -343t-343 -140zM582 8q180 0 303 126.5t123 309.5t-122 309t-304 126t-304 -126t-122 -309t123.5 -309.5t302.5 -126.5z" />
    <glyph glyph-name="divide" unicode="&#xf7;" horiz-adv-x="1433" 
d="M721 893q-34 0 -55 22.5t-21 57.5t21 57.5t55 22.5q32 0 53 -22.5t21 -57.5t-21 -57.5t-53 -22.5zM1223 604h-1012v47h1012v-47zM721 203q-34 0 -55 22.5t-21 57.5t21 57t55 22q32 0 53 -22t21 -57t-21 -57.5t-53 -22.5z" />
    <glyph glyph-name="oslash" unicode="&#xf8;" horiz-adv-x="1165" 
d="M981 883l-70 -82q71 -67 110.5 -159.5t39.5 -197.5q0 -203 -136 -343t-343 -140q-168 0 -295 100l-68 -81l-35 26l70 82q-70 67 -110 159.5t-40 196.5q0 133 60.5 243.5t170.5 175.5t247 65q167 0 299 -101l67 80zM156 444q0 -188 133 -315l559 659q-119 91 -266 91
q-182 0 -304 -126t-122 -309zM582 8q180 0 303 126.5t123 309.5q0 189 -129 318l-560 -662q116 -92 263 -92z" />
    <glyph glyph-name="ugrave" unicode="&#xf9;" horiz-adv-x="1142" 
d="M432 1470l250 -376h-45l-260 368l4 8h51zM948 889v-889h-49v240q-55 -131 -157 -205t-220 -74q-159 0 -243 100t-84 297v531h49v-496q0 -199 72.5 -292t220.5 -93q138 0 250 120t112 275v486h49z" />
    <glyph glyph-name="uacute" unicode="&#xfa;" horiz-adv-x="1142" 
d="M500 1094h-45l250 376h51l6 -8zM948 889v-889h-49v240q-55 -131 -157 -205t-220 -74q-159 0 -243 100t-84 297v531h49v-496q0 -199 72.5 -292t220.5 -93q138 0 250 120t112 275v486h49z" />
    <glyph glyph-name="ucircumflex" unicode="&#xfb;" horiz-adv-x="1142" 
d="M766 1094l-197 342l-196 -342h-43l-4 8l215 368h59l215 -368l-6 -8h-43zM948 889v-889h-49v240q-55 -131 -157 -205t-220 -74q-159 0 -243 100t-84 297v531h49v-496q0 -199 72.5 -292t220.5 -93q138 0 250 120t112 275v486h49z" />
    <glyph glyph-name="udieresis" unicode="&#xfc;" horiz-adv-x="1142" 
d="M410 1178q-14 5 -19.5 19.5t0.5 31.5t21 23t28 -1q35 -14 19 -53q-6 -17 -20 -22.5t-29 2.5zM700 1178q-14 5 -19 19.5t1 31.5t20 22.5t29 -0.5q31 -14 19 -53q-6 -17 -20.5 -22.5t-29.5 2.5zM948 889v-889h-49v240q-55 -131 -157 -205t-220 -74q-159 0 -243 100t-84 297
v531h49v-496q0 -199 72.5 -292t220.5 -93q138 0 250 120t112 275v486h49z" />
    <glyph glyph-name="yacute" unicode="&#xfd;" horiz-adv-x="921" 
d="M416 1094h-45l250 376h51l6 -8zM279 -446h-58l221 464l-381 871h58l348 -809h4l365 809h57z" />
    <glyph glyph-name="thorn" unicode="&#xfe;" horiz-adv-x="1177" 
d="M195 -446v1947h49v-563v-295q51 130 162 207.5t245 77.5q188 0 305 -130.5t117 -342.5q0 -222 -117 -358t-309 -136q-133 0 -247.5 79.5t-155.5 201.5v-297v-391h-49zM641 8q173 0 277 121.5t104 325.5q0 190 -105 307t-274 117q-171 0 -289 -129.5t-114 -317.5
q3 -182 118 -303t283 -121z" />
    <glyph glyph-name="ydieresis" unicode="&#xff;" horiz-adv-x="921" 
d="M326 1178q-14 5 -19.5 19.5t0.5 31.5t21 23t28 -1q35 -14 19 -53q-6 -17 -20 -22.5t-29 2.5zM616 1178q-14 5 -19 19.5t1 31.5t20 22.5t29 -0.5q31 -14 19 -53q-6 -17 -20.5 -22.5t-29.5 2.5zM279 -446h-58l221 464l-381 871h58l348 -809h4l365 809h57z" />
    <glyph glyph-name="Amacron" unicode="&#x100;" horiz-adv-x="1282" 
d="M399 1704h486v-47h-486v47zM1274 0h-62l-180 430h-784l-178 -430h-62l619 1456h24zM481 989l-211 -508h742l-213 506l-158 369h-4q-18 -42 -73 -170.5t-83 -196.5z" />
    <glyph glyph-name="amacron" unicode="&#x101;" horiz-adv-x="964" 
d="M236 1241h485v-45h-485v45zM907 31l6 -4v-39q-54 -23 -92 -23q-58 0 -82 30.5t-24 106.5v54q-115 -109 -203 -152t-182 -43q-102 0 -167 60.5t-65 156.5q0 140 142.5 220t474.5 118v72q0 152 -55.5 222.5t-172.5 70.5q-88 0 -176.5 -56.5t-148.5 -150.5l-8 -2l-35 24
q64 105 167.5 168.5t207.5 63.5q132 0 201 -79.5t69 -230.5v-512q0 -58 14 -77t53 -19q21 0 76 21zM150 182q0 -81 53.5 -127.5t140.5 -46.5q85 0 169 43t202 152v270q-299 -33 -432 -103t-133 -188z" />
    <glyph glyph-name="Abreve" unicode="&#x102;" horiz-adv-x="1282" 
d="M641 1579q-115 0 -187 66t-94 188l7 6h39q44 -213 235 -213q192 0 236 213h38l7 -6q-20 -122 -93 -188t-188 -66zM1274 0h-62l-180 430h-784l-178 -430h-62l619 1456h24zM481 989l-211 -508h742l-213 506l-158 369h-4q-18 -42 -73 -170.5t-83 -196.5z" />
    <glyph glyph-name="abreve" unicode="&#x103;" horiz-adv-x="964" 
d="M479 1110q-115 0 -186.5 65.5t-93.5 186.5l6 8h39q41 -215 235 -215q195 0 236 215h39l6 -8q-20 -121 -93 -186.5t-188 -65.5zM907 31l6 -4v-39q-54 -23 -92 -23q-58 0 -82 30.5t-24 106.5v54q-115 -109 -203 -152t-182 -43q-102 0 -167 60.5t-65 156.5q0 140 142.5 220
t474.5 118v72q0 152 -55.5 222.5t-172.5 70.5q-88 0 -176.5 -56.5t-148.5 -150.5l-8 -2l-35 24q64 105 167.5 168.5t207.5 63.5q132 0 201 -79.5t69 -230.5v-512q0 -58 14 -77t53 -19q21 0 76 21zM150 182q0 -81 53.5 -127.5t140.5 -46.5q85 0 169 43t202 152v270
q-299 -33 -432 -103t-133 -188z" />
    <glyph glyph-name="Aogonek" unicode="&#x104;" horiz-adv-x="1282" 
d="M1346 -360h8l18 -35q-72 -62 -168 -62q-78 0 -127 45.5t-49 120.5q0 68 48.5 138t150.5 153h-15l-180 430h-784l-178 -430h-62l619 1456h24l623 -1456h-4q-113 -102 -154 -162t-41 -121q0 -57 38.5 -94t98.5 -37q77 0 134 54zM481 989l-211 -508h742l-213 506l-158 369
h-4q-18 -42 -73 -170.5t-83 -196.5z" />
    <glyph glyph-name="aogonek" unicode="&#x105;" horiz-adv-x="964" 
d="M766 -25q-97 -89 -132.5 -144.5t-35.5 -113.5q0 -57 38.5 -94t98.5 -37q76 0 133 54h9l18 -35q-72 -62 -168 -62q-78 0 -127 45.5t-49 120.5q0 66 46.5 135t143.5 150q-26 29 -26 108v54q-115 -109 -203 -152t-182 -43q-102 0 -167 60.5t-65 156.5q0 140 142.5 220
t474.5 118v72q0 152 -55.5 222.5t-172.5 70.5q-88 0 -176.5 -56.5t-148.5 -150.5l-8 -2l-35 24q64 105 167.5 168.5t207.5 63.5q132 0 201 -79.5t69 -230.5v-512q0 -58 14 -77t53 -19q21 0 76 21l6 -4v-39q-54 -23 -92 -23q-37 0 -55 10zM150 182q0 -81 53.5 -127.5
t140.5 -46.5q85 0 169 43t202 152v270q-299 -33 -432 -103t-133 -188z" />
    <glyph glyph-name="Cacute" unicode="&#x106;" horiz-adv-x="1662" 
d="M827 1565h-49l197 274h55l6 -8zM879 -39q-158 0 -296.5 58t-237 159t-155.5 243t-57 304q0 161 56.5 303t154.5 243t235 159.5t293 58.5q220 0 381.5 -97.5t274.5 -297.5l-39 -29l-12 4q-204 367 -605 367q-143 0 -269.5 -55t-217 -149t-143 -226t-52.5 -281
q0 -197 91 -360.5t248.5 -257t347.5 -93.5q202 0 357.5 92.5t254.5 270.5l12 4l37 -27q-232 -393 -659 -393z" />
    <glyph glyph-name="cacute" unicode="&#x107;" horiz-adv-x="1064" 
d="M487 1094h-45l250 376h51l7 -8zM549 -39q-199 0 -322 133t-123 350q0 216 124 350t323 134q130 0 231.5 -62.5t165.5 -183.5l-37 -23l-6 3q-128 219 -352 219q-173 0 -285 -119.5t-112 -317.5t112 -317t285 -119q226 0 352 215l8 4l35 -22q-64 -120 -166 -182t-233 -62z
" />
    <glyph glyph-name="Ccircumflex" unicode="&#x108;" horiz-adv-x="1662" 
d="M1083 1565l-188 243l-190 -243h-43l-7 8l209 266h62l209 -266l-7 -8h-45zM879 -39q-158 0 -296.5 58t-237 159t-155.5 243t-57 304q0 161 56.5 303t154.5 243t235 159.5t293 58.5q220 0 381.5 -97.5t274.5 -297.5l-39 -29l-12 4q-204 367 -605 367q-143 0 -269.5 -55
t-217 -149t-143 -226t-52.5 -281q0 -197 91 -360.5t248.5 -257t347.5 -93.5q202 0 357.5 92.5t254.5 270.5l12 4l37 -27q-232 -393 -659 -393z" />
    <glyph glyph-name="ccircumflex" unicode="&#x109;" horiz-adv-x="1064" 
d="M754 1094l-197 342l-197 -342h-43l-4 8l215 368h60l215 -368l-6 -8h-43zM549 -39q-199 0 -322 133t-123 350q0 216 124 350t323 134q130 0 231.5 -62.5t165.5 -183.5l-37 -23l-6 3q-128 219 -352 219q-173 0 -285 -119.5t-112 -317.5t112 -317t285 -119q226 0 352 215
l8 4l35 -22q-64 -120 -166 -182t-233 -62z" />
    <glyph glyph-name="Cdotaccent" unicode="&#x10a;" horiz-adv-x="1662" 
d="M895 1620q-22 0 -35.5 14.5t-13.5 38.5q0 23 13.5 37t35.5 14t35.5 -14t13.5 -37q0 -24 -13.5 -38.5t-35.5 -14.5zM879 -39q-158 0 -296.5 58t-237 159t-155.5 243t-57 304q0 161 56.5 303t154.5 243t235 159.5t293 58.5q220 0 381.5 -97.5t274.5 -297.5l-39 -29l-12 4
q-204 367 -605 367q-143 0 -269.5 -55t-217 -149t-143 -226t-52.5 -281q0 -197 91 -360.5t248.5 -257t347.5 -93.5q202 0 357.5 92.5t254.5 270.5l12 4l37 -27q-232 -393 -659 -393z" />
    <glyph glyph-name="cdotaccent" unicode="&#x10b;" horiz-adv-x="1064" 
d="M559 1161q-22 0 -35.5 14.5t-13.5 38.5q0 23 13.5 38.5t35.5 15.5t35.5 -15.5t13.5 -38.5q0 -24 -13.5 -38.5t-35.5 -14.5zM549 -39q-199 0 -322 133t-123 350q0 216 124 350t323 134q130 0 231.5 -62.5t165.5 -183.5l-37 -23l-6 3q-128 219 -352 219q-173 0 -285 -119.5
t-112 -317.5t112 -317t285 -119q226 0 352 215l8 4l35 -22q-64 -120 -166 -182t-233 -62z" />
    <glyph glyph-name="Ccaron" unicode="&#x10c;" horiz-adv-x="1662" 
d="M926 1565h-62l-207 266l7 8h43l188 -244l186 244h45l7 -8zM879 -39q-158 0 -296.5 58t-237 159t-155.5 243t-57 304q0 161 56.5 303t154.5 243t235 159.5t293 58.5q220 0 381.5 -97.5t274.5 -297.5l-39 -29l-12 4q-204 367 -605 367q-143 0 -269.5 -55t-217 -149
t-143 -226t-52.5 -281q0 -197 91 -360.5t248.5 -257t347.5 -93.5q202 0 357.5 92.5t254.5 270.5l12 4l37 -27q-232 -393 -659 -393z" />
    <glyph glyph-name="ccaron" unicode="&#x10d;" horiz-adv-x="1064" 
d="M360 1470l197 -342l197 342h43l6 -8l-215 -368h-60l-215 368l4 8h43zM549 -39q-199 0 -322 133t-123 350q0 216 124 350t323 134q130 0 231.5 -62.5t165.5 -183.5l-37 -23l-6 3q-128 219 -352 219q-173 0 -285 -119.5t-112 -317.5t112 -317t285 -119q226 0 352 215l8 4
l35 -22q-64 -120 -166 -182t-233 -62z" />
    <glyph glyph-name="Dcaron" unicode="&#x10e;" horiz-adv-x="1533" 
d="M760 1565h-62l-206 266l6 8h43l188 -244l186 244h46l6 -8zM588 0h-334v1450h334q401 0 609 -182t208 -529q0 -356 -214 -547.5t-603 -191.5zM307 1397v-1344h254q384 0 585.5 172t201.5 514q0 658 -783 658h-258z" />
    <glyph glyph-name="dcaron" unicode="&#x10f;" horiz-adv-x="1271" 
d="M532 -39q-196 0 -312 134.5t-116 353.5q0 211 126 345t313 134q130 0 238 -77.5t157 -207.5v295v563h49v-1501h-47v244q-45 -124 -161 -203.5t-247 -79.5zM1290 1473l-145 -371l-37 16l131 369l8 2zM539 8q167 0 283.5 120t119.5 302q4 186 -112 317.5t-281 131.5
q-169 0 -281 -120.5t-112 -309.5q0 -197 104 -319t279 -122z" />
    <glyph glyph-name="Dcroat" unicode="&#x110;" horiz-adv-x="1533" 
d="M254 1450h334q401 0 609 -182t208 -529q0 -356 -214 -547.5t-603 -191.5h-334v717h-139v53h139v680zM307 53h254q384 0 585.5 172t201.5 514q0 658 -783 658h-258v-627h486v-53h-486v-664z" />
    <glyph glyph-name="dcroat" unicode="&#x111;" horiz-adv-x="1181" 
d="M987 1501v-268h143v-45h-143v-1188h-47v244q-45 -124 -161 -203.5t-247 -79.5q-196 0 -312 134.5t-116 353.5q0 211 126 345t313 134q130 0 238 -77.5t157 -207.5v295v250h-365v45h365v268h49zM942 430q4 186 -112 317.5t-281 131.5q-169 0 -281 -120.5t-112 -309.5
q0 -197 104 -319t279 -122q167 0 283.5 120t119.5 302z" />
    <glyph glyph-name="Emacron" unicode="&#x112;" horiz-adv-x="1198" 
d="M883 1657h-486v47h486v-47zM254 0v1450h776l8 -53h-731v-627h682v-53h-682v-664h731l-8 -53h-776z" />
    <glyph glyph-name="emacron" unicode="&#x113;" horiz-adv-x="1071" 
d="M297 1241h485v-45h-485v45zM961 451h-801v-19q0 -190 112.5 -307t284.5 -117q225 0 350 209l8 2l35 -22q-61 -114 -164.5 -175t-232.5 -61q-198 0 -321 133.5t-123 349.5q0 215 121.5 349.5t312.5 134.5q190 0 305 -124.5t115 -330.5q0 -12 -2 -22zM543 881
q-158 0 -264.5 -106.5t-116.5 -278.5h747q-4 178 -103.5 281.5t-262.5 103.5z" />
    <glyph glyph-name="Edotaccent" unicode="&#x116;" horiz-adv-x="1198" 
d="M641 1620q-22 0 -35.5 14.5t-13.5 38.5q0 23 13.5 37t35.5 14t35.5 -14t13.5 -37q0 -24 -13.5 -38.5t-35.5 -14.5zM254 0v1450h776l8 -53h-731v-627h682v-53h-682v-664h731l-8 -53h-776z" />
    <glyph glyph-name="edotaccent" unicode="&#x117;" horiz-adv-x="1071" 
d="M541 1161q-22 0 -35.5 14.5t-13.5 38.5q0 23 13.5 38.5t35.5 15.5t35.5 -15.5t13.5 -38.5q0 -24 -13.5 -38.5t-35.5 -14.5zM961 451h-801v-19q0 -190 112.5 -307t284.5 -117q225 0 350 209l8 2l35 -22q-61 -114 -164.5 -175t-232.5 -61q-198 0 -321 133.5t-123 349.5
q0 215 121.5 349.5t312.5 134.5q190 0 305 -124.5t115 -330.5q0 -12 -2 -22zM543 881q-158 0 -264.5 -106.5t-116.5 -278.5h747q-4 178 -103.5 281.5t-262.5 103.5z" />
    <glyph glyph-name="Eogonek" unicode="&#x118;" horiz-adv-x="1198" 
d="M1057 -360h8l18 -35q-72 -62 -168 -62q-78 0 -127 45.5t-49 120.5q0 68 48.5 138t150.5 153h-684v1450h776l8 -53h-731v-627h682v-53h-682v-664h731l-8 -53h-49q-113 -102 -154 -162t-41 -121q0 -57 39 -94t99 -37q76 0 133 54z" />
    <glyph glyph-name="eogonek" unicode="&#x119;" horiz-adv-x="1071" 
d="M678 -457q-78 0 -127 45.5t-49 120.5q0 123 172 268q-59 -16 -121 -16q-198 0 -321 133.5t-123 349.5q0 215 121.5 349.5t312.5 134.5t305.5 -125t114.5 -330q0 -14 -2 -22h-801v-19q0 -190 112.5 -307t284.5 -117q225 0 350 209l8 2l35 -22q-72 -136 -207 -197
q-112 -101 -153 -161.5t-41 -121.5q0 -57 38.5 -94t98.5 -37q76 0 133 54h8l19 -35q-75 -62 -168 -62zM162 496h747q-4 178 -103.5 281.5t-262.5 103.5q-158 0 -264.5 -106.5t-116.5 -278.5z" />
    <glyph glyph-name="Ecaron" unicode="&#x11a;" horiz-adv-x="1198" 
d="M672 1565h-62l-207 266l7 8h43l188 -244l186 244h45l7 -8zM254 0v1450h776l8 -53h-731v-627h682v-53h-682v-664h731l-8 -53h-776z" />
    <glyph glyph-name="ecaron" unicode="&#x11b;" horiz-adv-x="1071" 
d="M786 1462l-215 -368h-59l-215 368l4 8h43l197 -342l196 342h43zM961 451h-801v-19q0 -190 112.5 -307t284.5 -117q225 0 350 209l8 2l35 -22q-61 -114 -164.5 -175t-232.5 -61q-198 0 -321 133.5t-123 349.5q0 215 121.5 349.5t312.5 134.5q190 0 305 -124.5t115 -330.5
q0 -12 -2 -22zM543 881q-158 0 -264.5 -106.5t-116.5 -278.5h747q-4 178 -103.5 281.5t-262.5 103.5z" />
    <glyph glyph-name="Gbreve" unicode="&#x11e;" horiz-adv-x="1765" 
d="M870 1579q-115 0 -186.5 66t-93.5 188l6 6h39q44 -213 235 -213q192 0 236 213h39l6 -6q-20 -122 -93 -188t-188 -66zM872 -39q-155 0 -292 58t-235 159t-155 243t-57 304q0 161 56.5 303t154.5 243t235.5 159.5t294.5 58.5q434 0 660 -393l-37 -27l-12 2
q-203 365 -611 365q-144 0 -271 -55t-217.5 -149t-143 -226t-52.5 -281q0 -198 90 -361.5t246 -256.5t344 -93q206 0 372 113.5t255 306.5v238h-510v51h561v-723h-53v100q0 165 4 226l-4 2q-111 -172 -270.5 -269.5t-352.5 -97.5z" />
    <glyph glyph-name="gbreve" unicode="&#x11f;" horiz-adv-x="983" 
d="M492 1110q-115 0 -187 65.5t-94 186.5l6 8h39q41 -215 236 -215q194 0 235 215h39l6 -8q-20 -121 -92.5 -186.5t-187.5 -65.5zM479 -471q-200 0 -321 73.5t-121 194.5q0 99 82 171.5t219 97.5q-72 22 -105.5 50t-33.5 68q0 50 44.5 83.5t127.5 45.5q-114 20 -185 102.5
t-71 192.5q0 139 104 229.5t264 90.5q101 0 181 -39h268l2 -41l-6 -8l-201 8q59 -43 92 -106.5t33 -139.5q0 -136 -100.5 -218t-278.5 -89q-225 -16 -225 -105q0 -40 59 -65.5t205 -50.5q231 -39 326.5 -97t95.5 -163q0 -129 -125.5 -207t-329.5 -78zM481 340q142 -1 231 72
t89 192q0 121 -90.5 199t-227.5 78q-138 0 -227.5 -76.5t-89.5 -198.5q0 -118 87.5 -191t227.5 -75zM479 -424q183 0 293.5 64.5t110.5 171.5q0 88 -85.5 137t-287.5 80q-12 2 -44 7.5t-48 8.5q-151 -17 -239.5 -83t-88.5 -161q0 -101 107 -163t282 -62z" />
    <glyph glyph-name="Gdotaccent" unicode="&#x120;" horiz-adv-x="1765" 
d="M870 1620q-22 0 -35.5 14.5t-13.5 38.5q0 23 13.5 37t35.5 14t36 -14t14 -37q0 -24 -14 -38.5t-36 -14.5zM872 -39q-155 0 -292 58t-235 159t-155 243t-57 304q0 161 56.5 303t154.5 243t235.5 159.5t294.5 58.5q434 0 660 -393l-37 -27l-12 2q-203 365 -611 365
q-144 0 -271 -55t-217.5 -149t-143 -226t-52.5 -281q0 -198 90 -361.5t246 -256.5t344 -93q206 0 372 113.5t255 306.5v238h-510v51h561v-723h-53v100q0 165 4 226l-4 2q-111 -172 -270.5 -269.5t-352.5 -97.5z" />
    <glyph glyph-name="gdotaccent" unicode="&#x121;" horiz-adv-x="983" 
d="M494 1161q-22 0 -36 14.5t-14 38.5q0 23 14 38.5t36 15.5t35.5 -15.5t13.5 -38.5q0 -24 -13.5 -38.5t-35.5 -14.5zM479 -471q-200 0 -321 73.5t-121 194.5q0 99 82 171.5t219 97.5q-72 22 -105.5 50t-33.5 68q0 50 44.5 83.5t127.5 45.5q-114 20 -185 102.5t-71 192.5
q0 139 104 229.5t264 90.5q101 0 181 -39h268l2 -41l-6 -8l-201 8q59 -43 92 -106.5t33 -139.5q0 -136 -100.5 -218t-278.5 -89q-225 -16 -225 -105q0 -40 59 -65.5t205 -50.5q231 -39 326.5 -97t95.5 -163q0 -129 -125.5 -207t-329.5 -78zM481 340q142 -1 231 72t89 192
q0 121 -90.5 199t-227.5 78q-138 0 -227.5 -76.5t-89.5 -198.5q0 -118 87.5 -191t227.5 -75zM479 -424q183 0 293.5 64.5t110.5 171.5q0 88 -85.5 137t-287.5 80q-12 2 -44 7.5t-48 8.5q-151 -17 -239.5 -83t-88.5 -161q0 -101 107 -163t282 -62z" />
    <glyph glyph-name="uni0122" unicode="&#x122;" horiz-adv-x="1765" 
d="M872 -39q-155 0 -292 58t-235 159t-155 243t-57 304q0 161 56.5 303t154.5 243t235.5 159.5t294.5 58.5q434 0 660 -393l-37 -27l-12 2q-203 365 -611 365q-144 0 -271 -55t-217.5 -149t-143 -226t-52.5 -281q0 -198 90 -361.5t246 -256.5t344 -93q206 0 372 113.5
t255 306.5v238h-510v51h561v-723h-53v100q0 165 4 226l-4 2q-111 -172 -270.5 -269.5t-352.5 -97.5zM932 -109l-129 -329l-39 16l115 328l8 2z" />
    <glyph glyph-name="uni0123" unicode="&#x123;" horiz-adv-x="983" 
d="M408 1094l131 329l36 -14l-114 -328l-8 -4zM479 -471q-200 0 -321 73.5t-121 194.5q0 99 82 171.5t219 97.5q-72 22 -105.5 50t-33.5 68q0 50 44.5 83.5t127.5 45.5q-114 20 -185 102.5t-71 192.5q0 139 104 229.5t264 90.5q101 0 181 -39h268l2 -41l-6 -8l-201 8
q59 -43 92 -106.5t33 -139.5q0 -136 -100.5 -218t-278.5 -89q-225 -16 -225 -105q0 -40 59 -65.5t205 -50.5q231 -39 326.5 -97t95.5 -163q0 -129 -125.5 -207t-329.5 -78zM481 340q142 -1 231 72t89 192q0 121 -90.5 199t-227.5 78q-138 0 -227.5 -76.5t-89.5 -198.5
q0 -118 87.5 -191t227.5 -75zM479 -424q183 0 293.5 64.5t110.5 171.5q0 88 -85.5 137t-287.5 80q-12 2 -44 7.5t-48 8.5q-151 -17 -239.5 -83t-88.5 -161q0 -101 107 -163t282 -62z" />
    <glyph glyph-name="Hbar" unicode="&#x126;" horiz-adv-x="1585" 
d="M1331 1450v-252h107v-47h-107v-1151h-53v709h-971v-709h-53v1151h-107v47h107v252h53v-252h971v252h53zM307 762h971v389h-971v-389z" />
    <glyph glyph-name="hbar" unicode="&#x127;" horiz-adv-x="1159" 
d="M629 928q165 0 250.5 -100t85.5 -298v-530h-50v494q0 201 -73 293t-228 92q-146 0 -258 -119.5t-112 -274.5v-485h-49v1188h-142v45h142v268h49v-268h366v-45h-366v-250v-291q55 132 158 206.5t227 74.5z" />
    <glyph glyph-name="Itilde" unicode="&#x128;" horiz-adv-x="561" 
d="M408 1624q51 0 84.5 42t42.5 114h-41l-5 -6q-16 -105 -81 -105q-28 0 -61.5 17.5t-60 38t-63 38t-69.5 17.5q-51 0 -84 -42.5t-41 -113.5h39l4 4q19 105 82 105q29 0 62.5 -17t59.5 -37.5t62 -37.5t70 -17zM254 0v1450h53v-1450h-53z" />
    <glyph glyph-name="itilde" unicode="&#x129;" horiz-adv-x="438" 
d="M346 1163q51 0 84.5 42t42.5 114h-41l-4 -6q-16 -105 -82 -105q-28 0 -61.5 17.5t-60 38t-63 38t-69.5 17.5q-51 0 -84 -42.5t-41 -113.5h39l4 4q19 105 82 105q29 0 62.5 -17t59.5 -37.5t62 -37.5t70 -17zM244 0h-49v889h49v-889z" />
    <glyph glyph-name="Imacron" unicode="&#x12a;" horiz-adv-x="561" 
d="M522 1657h-485v47h485v-47zM254 0v1450h53v-1450h-53z" />
    <glyph glyph-name="imacron" unicode="&#x12b;" horiz-adv-x="438" 
d="M461 1196h-486v45h486v-45zM244 0h-49v889h49v-889z" />
    <glyph glyph-name="Ibreve" unicode="&#x12c;" horiz-adv-x="561" 
d="M281 1579q-115 0 -187 66t-94 188l6 6h39q44 -213 236 -213q191 0 235 213h39l6 -6q-20 -122 -92.5 -188t-187.5 -66zM254 0v1450h53v-1450h-53z" />
    <glyph glyph-name="ibreve" unicode="&#x12d;" horiz-adv-x="438" 
d="M219 1110q-115 0 -186.5 65.5t-93.5 186.5l6 8h39q41 -215 235 -215q195 0 236 215h39l6 -8q-20 -121 -93 -186.5t-188 -65.5zM244 0h-49v889h49v-889z" />
    <glyph glyph-name="Iogonek" unicode="&#x12e;" horiz-adv-x="561" 
d="M381 -360h8l19 -35q-72 -62 -168 -62q-78 0 -127.5 45.5t-49.5 120.5q0 68 48.5 138t150.5 153h-8v1450h53v-1450h-2q-112 -101 -153 -161.5t-41 -121.5q0 -57 38.5 -94t98.5 -37q76 0 133 54z" />
    <glyph glyph-name="iogonek" unicode="&#x12f;" horiz-adv-x="438" 
d="M219 1161q-22 0 -35.5 14.5t-13.5 38.5q0 23 13.5 38.5t35.5 15.5t35.5 -15.5t13.5 -38.5q0 -24 -13.5 -38.5t-35.5 -14.5zM317 -360h9l18 -35q-72 -62 -168 -62q-78 0 -127 45.5t-49 120.5q0 68 48.5 138t150.5 153h-4v889h49v-889h-2q-113 -102 -154 -162t-41 -121
q0 -57 38.5 -94t98.5 -37q76 0 133 54z" />
    <glyph glyph-name="Idotaccent" unicode="&#x130;" horiz-adv-x="561" 
d="M281 1620q-22 0 -36 14.5t-14 38.5q0 23 14 37t36 14t35.5 -14t13.5 -37q0 -24 -13.5 -38.5t-35.5 -14.5zM254 0v1450h53v-1450h-53z" />
    <glyph glyph-name="dotlessi" unicode="&#x131;" horiz-adv-x="438" 
d="M244 0h-49v889h49v-889z" />
    <glyph glyph-name="IJ" unicode="&#x132;" horiz-adv-x="1564" 
d="M254 0v1450h53v-1450h-53zM662 281l10 -2q29 -123 111.5 -195t191.5 -72q137 0 215 107t78 301v1030h55v-1036q0 -212 -94.5 -332.5t-251.5 -120.5q-135 0 -230.5 81t-128.5 218z" />
    <glyph glyph-name="ij" unicode="&#x133;" horiz-adv-x="851" 
d="M219 1251q-22 0 -35.5 14.5t-13.5 39.5q0 23 13.5 37t35.5 14t35.5 -14t13.5 -37q0 -25 -13.5 -39.5t-35.5 -14.5zM639 1251q-21 0 -35 15t-14 39q0 23 14 37t35 14q22 0 35.5 -14t13.5 -37q0 -25 -13.5 -39.5t-35.5 -14.5zM244 0h-49v889h49v-889zM440 -471
q-74 0 -153 29l8 45l8 2q77 -29 133 -29q178 0 178 279v1034h50v-1041q0 -158 -58.5 -238.5t-165.5 -80.5z" />
    <glyph glyph-name="uni0136" unicode="&#x136;" horiz-adv-x="1292" 
d="M1268 0h-70l-571 813l-320 -346v-467h-53v1450h53v-549v-358q44 47 131 142t131 142l570 623h69l-544 -598zM729 -109l-129 -329l-39 16l115 328l8 2z" />
    <glyph glyph-name="uni0137" unicode="&#x137;" horiz-adv-x="937" 
d="M903 0h-63l-398 520l-198 -188v-332h-49v1501h49v-563v-549q51 50 153.5 149.5t153.5 149.5l209 201h67l-352 -336zM553 -109l-129 -329l-39 16l115 328l8 2z" />
    <glyph glyph-name="kgreenlandic" unicode="&#x138;" horiz-adv-x="937" 
d="M903 0h-63l-398 520l-198 -188v-332h-49v889h49v-47v-453q51 50 153.5 149.5t153.5 149.5l209 201h67l-352 -336z" />
    <glyph glyph-name="Lacute" unicode="&#x139;" horiz-adv-x="1062" 
d="M213 1565h-49l196 274h56l6 -8zM254 0v1450h53v-1397h727l-8 -53h-772z" />
    <glyph glyph-name="lacute" unicode="&#x13a;" horiz-adv-x="438" 
d="M152 1565h-50l197 274h55l6 -8zM244 0h-49v1501h49v-1501z" />
    <glyph glyph-name="uni013B" unicode="&#x13b;" horiz-adv-x="1062" 
d="M254 0v1450h53v-1397h727l-8 -53h-772zM668 -109l-129 -329l-39 16l114 328l9 2z" />
    <glyph glyph-name="uni013C" unicode="&#x13c;" horiz-adv-x="438" 
d="M244 0h-49v1501h49v-1501zM301 -109l-129 -329l-39 16l115 328l8 2z" />
    <glyph glyph-name="Lcaron" unicode="&#x13d;" horiz-adv-x="1062" 
d="M731 1473l-145 -371l-37 16l131 369l6 2zM254 0v1450h53v-1397h727l-8 -53h-772z" />
    <glyph glyph-name="lcaron" unicode="&#x13e;" horiz-adv-x="528" 
d="M244 0h-49v1501h49v-1501zM545 1473l-144 -371l-39 16l132 369l8 2z" />
    <glyph glyph-name="Ldot" unicode="&#x13f;" horiz-adv-x="1062" 
d="M254 0v1450h53v-1397h727l-8 -53h-772zM643 672q-22 0 -35.5 14.5t-13.5 38.5t13.5 38.5t35.5 14.5t35.5 -14.5t13.5 -38.5t-13.5 -38.5t-35.5 -14.5z" />
    <glyph glyph-name="ldot" unicode="&#x140;" horiz-adv-x="446" 
d="M244 0h-49v1501h49v-1501zM438 782q-22 0 -35.5 14.5t-13.5 39.5q0 23 13.5 38t35.5 15t35.5 -15t13.5 -38q0 -25 -13.5 -39.5t-35.5 -14.5z" />
    <glyph glyph-name="Lslash" unicode="&#x141;" horiz-adv-x="1062" 
d="M307 694v-641h727l-8 -53h-772v666l-231 -127v55l231 125v731h53v-702l365 198v-53z" />
    <glyph glyph-name="lslash" unicode="&#x142;" horiz-adv-x="438" 
d="M244 864l149 88v-51l-149 -88v-813h-49v784l-152 -90v51l152 91v665h49v-637z" />
    <glyph glyph-name="Nacute" unicode="&#x143;" horiz-adv-x="1669" 
d="M788 1565h-49l197 274h55l6 -8zM307 0h-53v1450h65l779 -1001q49 -65 144 -186.5t114 -145.5h6v368v965h53v-1479h-10l-834 1069q-45 58 -132 168.5t-126 161.5h-6v-369v-1001z" />
    <glyph glyph-name="nacute" unicode="&#x144;" horiz-adv-x="1159" 
d="M510 1094h-45l250 376h51l6 -8zM195 0v889h49v-242q55 132 157.5 206.5t227.5 74.5q166 0 251 -100t85 -298v-530h-50v494q0 200 -72.5 292.5t-228.5 92.5q-145 0 -257.5 -119.5t-112.5 -274.5v-485h-49z" />
    <glyph glyph-name="uni0145" unicode="&#x145;" horiz-adv-x="1669" 
d="M307 0h-53v1450h65l779 -1001q49 -65 144 -186.5t114 -145.5h6v368v965h53v-1479h-10l-834 1069q-45 58 -132 168.5t-126 161.5h-6v-369v-1001zM918 -109l-130 -329l-38 16l114 328l8 2z" />
    <glyph glyph-name="uni0146" unicode="&#x146;" horiz-adv-x="1159" 
d="M195 0v889h49v-242q55 132 157.5 206.5t227.5 74.5q166 0 251 -100t85 -298v-530h-50v494q0 200 -72.5 292.5t-228.5 92.5q-145 0 -257.5 -119.5t-112.5 -274.5v-485h-49zM653 -109l-129 -329l-39 16l115 328l8 2z" />
    <glyph glyph-name="Ncaron" unicode="&#x147;" horiz-adv-x="1669" 
d="M887 1565h-62l-207 266l7 8h43l188 -244l186 244h45l7 -8zM307 0h-53v1450h65l779 -1001q49 -65 144 -186.5t114 -145.5h6v368v965h53v-1479h-10l-834 1069q-45 58 -132 168.5t-126 161.5h-6v-369v-1001z" />
    <glyph glyph-name="ncaron" unicode="&#x148;" horiz-adv-x="1159" 
d="M383 1470l197 -342l196 342h43l6 -8l-215 -368h-59l-215 368l4 8h43zM195 0v889h49v-242q55 132 157.5 206.5t227.5 74.5q166 0 251 -100t85 -298v-530h-50v494q0 200 -72.5 292.5t-228.5 92.5q-145 0 -257.5 -119.5t-112.5 -274.5v-485h-49z" />
    <glyph glyph-name="Eng" unicode="&#x14a;" horiz-adv-x="1669" 
d="M1192 -471q-76 0 -152 29l7 49l8 2q77 -29 133 -29q83 0 128.5 67.5t45.5 207.5v168l-791 1017q-45 58 -132 168.5t-126 161.5h-6v-369v-1001h-53v1450h65l779 -1001q49 -65 144 -186.5t114 -145.5h6v368v965h53v-1602q0 -158 -58.5 -238.5t-164.5 -80.5z" />
    <glyph glyph-name="eng" unicode="&#x14b;" horiz-adv-x="1159" 
d="M629 928q166 0 251 -100t85 -298v-682q0 -158 -58.5 -238.5t-165.5 -80.5q-75 0 -151 29l6 45l8 2q77 -29 133 -29q178 0 178 279v639q0 200 -72.5 292.5t-228.5 92.5q-145 0 -257.5 -119.5t-112.5 -274.5v-485h-49v889h49v-242q55 132 157.5 206.5t227.5 74.5z" />
    <glyph glyph-name="Omacron" unicode="&#x14c;" horiz-adv-x="1785" 
d="M1137 1657h-486v47h486v-47zM893 -39q-167 0 -310 59t-241 161.5t-153.5 243t-55.5 300.5t54.5 300t152 242.5t241 162t312.5 59.5q170 0 313.5 -59.5t241 -162t151.5 -242.5t54 -300q0 -214 -93.5 -387.5t-268 -275t-398.5 -101.5zM893 14q153 0 285 56t223 151.5
t142.5 226t51.5 277.5q0 199 -87.5 360.5t-248.5 256t-366 94.5q-154 0 -286 -55t-223 -150.5t-142.5 -226.5t-51.5 -279q0 -147 52 -277.5t143 -226t223 -151.5t285 -56z" />
    <glyph glyph-name="omacron" unicode="&#x14d;" horiz-adv-x="1165" 
d="M825 1196h-485v45h485v-45zM582 -39q-205 0 -341.5 140t-136.5 343q0 133 60.5 243.5t170.5 175.5t247 65t247.5 -65t171 -175.5t60.5 -243.5q0 -203 -136 -343t-343 -140zM582 8q180 0 303 126.5t123 309.5t-122 309t-304 126t-304 -126t-122 -309t123.5 -309.5
t302.5 -126.5z" />
    <glyph glyph-name="Obreve" unicode="&#x14e;" horiz-adv-x="1785" 
d="M893 1579q-115 0 -187 66t-94 188l6 6h39q44 -213 236 -213q191 0 235 213h39l7 -6q-20 -122 -93 -188t-188 -66zM893 -39q-167 0 -310 59t-241 161.5t-153.5 243t-55.5 300.5t54.5 300t152 242.5t241 162t312.5 59.5q170 0 313.5 -59.5t241 -162t151.5 -242.5t54 -300
q0 -214 -93.5 -387.5t-268 -275t-398.5 -101.5zM893 14q153 0 285 56t223 151.5t142.5 226t51.5 277.5q0 199 -87.5 360.5t-248.5 256t-366 94.5q-154 0 -286 -55t-223 -150.5t-142.5 -226.5t-51.5 -279q0 -147 52 -277.5t143 -226t223 -151.5t285 -56z" />
    <glyph glyph-name="obreve" unicode="&#x14f;" horiz-adv-x="1165" 
d="M582 1110q-115 0 -187 65.5t-94 186.5l6 8h39q41 -215 236 -215q194 0 235 215h39l6 -8q-20 -121 -92.5 -186.5t-187.5 -65.5zM582 -39q-205 0 -341.5 140t-136.5 343q0 133 60.5 243.5t170.5 175.5t247 65t247.5 -65t171 -175.5t60.5 -243.5q0 -203 -136 -343t-343 -140
zM582 8q180 0 303 126.5t123 309.5t-122 309t-304 126t-304 -126t-122 -309t123.5 -309.5t302.5 -126.5z" />
    <glyph glyph-name="Ohungarumlaut" unicode="&#x150;" horiz-adv-x="1785" 
d="M776 1565h-49l197 274h55l4 -8zM1022 1565h-49l198 274h54l6 -8zM893 -39q-167 0 -310 59t-241 161.5t-153.5 243t-55.5 300.5t54.5 300t152 242.5t241 162t312.5 59.5q170 0 313.5 -59.5t241 -162t151.5 -242.5t54 -300q0 -214 -93.5 -387.5t-268 -275t-398.5 -101.5z
M893 14q153 0 285 56t223 151.5t142.5 226t51.5 277.5q0 199 -87.5 360.5t-248.5 256t-366 94.5q-154 0 -286 -55t-223 -150.5t-142.5 -226.5t-51.5 -279q0 -147 52 -277.5t143 -226t223 -151.5t285 -56z" />
    <glyph glyph-name="ohungarumlaut" unicode="&#x151;" horiz-adv-x="1165" 
d="M477 1094h-45l250 376h51l4 -8zM723 1094h-45l250 376h51l4 -8zM582 -39q-205 0 -341.5 140t-136.5 343q0 133 60.5 243.5t170.5 175.5t247 65t247.5 -65t171 -175.5t60.5 -243.5q0 -203 -136 -343t-343 -140zM582 8q180 0 303 126.5t123 309.5t-122 309t-304 126
t-304 -126t-122 -309t123.5 -309.5t302.5 -126.5z" />
    <glyph glyph-name="OE" unicode="&#x152;" horiz-adv-x="2078" 
d="M1870 717h-680v-664h729l-6 -53h-762q-128 -39 -258 -39q-167 0 -310 59t-241 161.5t-153.5 243t-55.5 300.5t54.5 300t152 242.5t241 162t312.5 59.5q131 0 256 -39h764l6 -53h-729v-627h680v-53zM190 725q0 -147 52 -277.5t143 -226t223 -151.5t285 -56q127 0 242 41
v1342q-115 39 -242 39q-154 0 -286 -55t-223 -150.5t-142.5 -226.5t-51.5 -279z" />
    <glyph glyph-name="oe" unicode="&#x153;" horiz-adv-x="1949" 
d="M573 -39q-204 0 -336.5 139.5t-132.5 343.5q0 134 58.5 244t166.5 175t244 65q160 0 276.5 -89.5t160.5 -236.5h2q43 151 152.5 238.5t258.5 87.5q190 0 304 -125t114 -330v-22h-801v-19q0 -191 112 -307.5t284 -116.5q228 0 350 209l8 2l37 -22q-63 -114 -166 -175
t-231 -61q-156 0 -269 86.5t-153 239.5h-2q-47 -146 -163.5 -236t-273.5 -90zM1040 496h748q-4 178 -103.5 281.5t-261.5 103.5q-159 0 -265 -106t-118 -279zM573 8q176 0 296 126t120 310q0 183 -118 309t-298 126q-181 0 -299 -125.5t-118 -309.5t119.5 -310t297.5 -126z
" />
    <glyph glyph-name="Racute" unicode="&#x154;" horiz-adv-x="1230" 
d="M750 1839l6 -8l-209 -266h-49l196 274h56zM723 649l457 -637l-6 -12h-56l-454 639h-357v-639h-53v1450h338q240 0 361.5 -103t121.5 -300q0 -160 -91.5 -266t-260.5 -132zM307 1399v-707h307q202 0 303 95.5t101 259.5q0 352 -438 352h-273z" />
    <glyph glyph-name="racute" unicode="&#x155;" horiz-adv-x="780" 
d="M322 1094h-46l250 376h52l6 -8zM244 0h-49v889h47v-248q53 137 139 212t180 75q137 0 189 -135l-41 -25h-9q-25 60 -60 85.5t-93 25.5q-110 0 -206.5 -127t-96.5 -281v-471z" />
    <glyph glyph-name="uni0156" unicode="&#x156;" horiz-adv-x="1230" 
d="M723 649l457 -637l-6 -12h-56l-454 639h-357v-639h-53v1450h338q240 0 361.5 -103t121.5 -300q0 -160 -91.5 -266t-260.5 -132zM307 1399v-707h307q202 0 303 95.5t101 259.5q0 352 -438 352h-273zM530 -422l115 328l8 2l45 -17l-129 -329z" />
    <glyph glyph-name="uni0157" unicode="&#x157;" horiz-adv-x="780" 
d="M244 0h-49v889h47v-248q53 137 139 212t180 75q137 0 189 -135l-41 -25h-9q-25 60 -60 85.5t-93 25.5q-110 0 -206.5 -127t-96.5 -281v-471zM246 -109l-129 -329l-39 16l115 328l8 2z" />
    <glyph glyph-name="Rcaron" unicode="&#x158;" horiz-adv-x="1230" 
d="M852 1831l-207 -266h-61l-207 266l6 8h43l188 -244l187 244h45zM723 649l457 -637l-6 -12h-56l-454 639h-357v-639h-53v1450h338q240 0 361.5 -103t121.5 -300q0 -160 -91.5 -266t-260.5 -132zM307 1399v-707h307q202 0 303 95.5t101 259.5q0 352 -438 352h-273z" />
    <glyph glyph-name="rcaron" unicode="&#x159;" horiz-adv-x="780" 
d="M195 1470l196 -342l197 342h43l6 -8l-215 -368h-60l-215 368l5 8h43zM244 0h-49v889h47v-248q53 137 139 212t180 75q137 0 189 -135l-41 -25h-9q-25 60 -60 85.5t-93 25.5q-110 0 -206.5 -127t-96.5 -281v-471z" />
    <glyph glyph-name="Sacute" unicode="&#x15a;" horiz-adv-x="1146" 
d="M516 1565h-49l197 274h55l6 -8zM606 -39q-161 0 -279 75t-202 243l43 28l12 -2q76 -153 178.5 -223t245.5 -70q155 0 258 94t103 226q0 134 -86.5 223.5t-329.5 202.5q-208 96 -288.5 183.5t-80.5 223.5q0 143 108.5 233.5t280.5 90.5q273 0 400 -240l-41 -26l-13 2
q-110 213 -348 213q-144 0 -236.5 -77.5t-92.5 -191.5q0 -123 75.5 -197t307.5 -184t316.5 -206t84.5 -248q0 -161 -119 -267t-297 -106z" />
    <glyph glyph-name="sacute" unicode="&#x15b;" horiz-adv-x="829" 
d="M346 1094h-45l250 376h51l6 -8zM426 -39q-110 0 -200 53t-134 146l39 24l8 -2q45 -87 120.5 -130.5t170.5 -43.5q107 0 180.5 54t73.5 135q0 74 -53 123.5t-191 101.5q-187 69 -252 128t-65 152q0 97 79 161.5t199 64.5q100 0 181 -51.5t118 -139.5l-36 -22l-9 2
q-34 75 -103 119.5t-155 44.5q-95 0 -159 -51t-64 -125q0 -75 56.5 -122.5t230.5 -115.5q155 -62 214.5 -120t59.5 -148q0 -101 -88.5 -169.5t-220.5 -68.5z" />
    <glyph glyph-name="Scedilla" unicode="&#x15e;" horiz-adv-x="1146" 
d="M606 -39h-12l-86 -135q53 16 104 16q74 0 120 -37.5t46 -101.5q0 -74 -58 -121t-151 -47q-94 0 -190 45l14 37l8 2q85 -43 172 -43q69 0 113.5 35.5t44.5 89.5q0 102 -141 102q-77 0 -131 -30l-17 16l109 174q-140 11 -245 86.5t-181 229.5l43 28l12 -2
q76 -153 178.5 -223t245.5 -70q155 0 258 94t103 226q0 134 -86.5 223.5t-329.5 202.5q-208 96 -288.5 183.5t-80.5 223.5q0 143 108.5 233.5t280.5 90.5q273 0 400 -240l-41 -26l-13 2q-110 213 -348 213q-144 0 -236.5 -77.5t-92.5 -191.5q0 -123 75.5 -197t307.5 -184
t316.5 -206t84.5 -248q0 -161 -119 -267t-297 -106z" />
    <glyph glyph-name="scedilla" unicode="&#x15f;" horiz-adv-x="829" 
d="M735 199q0 -100 -86 -168.5t-215 -69.5l-86 -135q53 16 105 16q74 0 119.5 -37.5t45.5 -101.5q0 -74 -57.5 -121t-150.5 -47q-95 0 -191 45l14 37l9 2q85 -43 172 -43q69 0 113 35.5t44 89.5q0 102 -141 102q-77 0 -131 -30l-16 16l106 174q-98 8 -177 60t-120 137l39 24
l8 -2q45 -87 120.5 -130.5t170.5 -43.5q107 0 180.5 54t73.5 135q0 74 -53 123.5t-191 101.5q-187 69 -252 128t-65 152q0 97 79 161.5t199 64.5q100 0 181 -51.5t118 -139.5l-36 -22l-9 2q-34 75 -103 119.5t-155 44.5q-95 0 -159 -51t-64 -125q0 -75 56.5 -122.5
t230.5 -115.5q155 -62 214.5 -120t59.5 -148z" />
    <glyph glyph-name="Scaron" unicode="&#x160;" horiz-adv-x="1146" 
d="M614 1565h-61l-207 266l6 8h43l189 -244l186 244h45l6 -8zM606 -39q-161 0 -279 75t-202 243l43 28l12 -2q76 -153 178.5 -223t245.5 -70q155 0 258 94t103 226q0 134 -86.5 223.5t-329.5 202.5q-208 96 -288.5 183.5t-80.5 223.5q0 143 108.5 233.5t280.5 90.5
q273 0 400 -240l-41 -26l-13 2q-110 213 -348 213q-144 0 -236.5 -77.5t-92.5 -191.5q0 -123 75.5 -197t307.5 -184t316.5 -206t84.5 -248q0 -161 -119 -267t-297 -106z" />
    <glyph glyph-name="scaron" unicode="&#x161;" horiz-adv-x="829" 
d="M219 1470l197 -342l196 342h43l7 -8l-216 -368h-59l-215 368l4 8h43zM426 -39q-110 0 -200 53t-134 146l39 24l8 -2q45 -87 120.5 -130.5t170.5 -43.5q107 0 180.5 54t73.5 135q0 74 -53 123.5t-191 101.5q-187 69 -252 128t-65 152q0 97 79 161.5t199 64.5
q100 0 181 -51.5t118 -139.5l-36 -22l-9 2q-34 75 -103 119.5t-155 44.5q-95 0 -159 -51t-64 -125q0 -75 56.5 -122.5t230.5 -115.5q155 -62 214.5 -120t59.5 -148q0 -101 -88.5 -169.5t-220.5 -68.5z" />
    <glyph glyph-name="uni0162" unicode="&#x162;" horiz-adv-x="1189" 
d="M571 -465q-94 0 -190 45l14 37l8 2q85 -43 172 -43q69 0 113.5 35.5t44.5 89.5q0 48 -35.5 75t-105.5 27q-33 0 -72 -9t-59 -21l-17 16l131 211h-8v1397h-530v53h1118v-53h-532v-1397h-5l-108 -174q53 16 104 16q74 0 120 -38t46 -101q0 -74 -58 -121t-151 -47z" />
    <glyph glyph-name="uni0163" unicode="&#x163;" horiz-adv-x="667" 
d="M403 -158q74 0 120 -37.5t46 -101.5q0 -74 -58 -121t-151 -47q-94 0 -190 45l14 37l9 2q85 -43 172 -43q69 0 113 35.5t44 89.5q0 102 -141 102q-77 0 -131 -30l-17 16l115 186q-127 45 -127 230v637h-184v47h184v342l41 26h8v-368h312v-47h-312v-619q0 -116 42.5 -165.5
t131.5 -49.5q68 0 136 31l4 -2l4 -45q-82 -31 -154 -31q-19 0 -47 4l-88 -139q53 16 104 16z" />
    <glyph glyph-name="Tcaron" unicode="&#x164;" horiz-adv-x="1189" 
d="M627 1565h-62l-207 266l7 8h43l188 -244l186 244h45l7 -8zM567 0v1397h-530v53h1118v-53h-532v-1397h-56z" />
    <glyph glyph-name="tcaron" unicode="&#x165;" horiz-adv-x="669" 
d="M604 1473l-145 -371l-37 16l131 369l6 2zM580 39l4 -2l4 -45q-82 -31 -154 -31q-107 0 -160 64t-53 180v637h-184v47h184v342l41 26h8v-368h312v-47h-312v-619q0 -116 42.5 -165.5t131.5 -49.5q68 0 136 31z" />
    <glyph glyph-name="Tbar" unicode="&#x166;" horiz-adv-x="1189" 
d="M1155 1450v-53h-532v-627h290v-47h-290v-723h-56v723h-288v47h288v627h-530v53h1118z" />
    <glyph glyph-name="tbar" unicode="&#x167;" horiz-adv-x="667" 
d="M580 39l4 -2l4 -45q-82 -31 -154 -31q-107 0 -160 64t-53 180v323h-164v41h164v273h-184v47h184v342l41 26h8v-368h312v-47h-312v-273h291v-41h-291v-305q0 -116 42.5 -165.5t131.5 -49.5q68 0 136 31z" />
    <glyph glyph-name="Utilde" unicode="&#x168;" horiz-adv-x="1558" 
d="M905 1624q51 0 84.5 42t42.5 114h-41l-4 -6q-16 -105 -82 -105q-28 0 -61.5 17.5t-60 38t-63 38t-69.5 17.5q-51 0 -84 -42.5t-41 -113.5h39l4 4q19 105 82 105q29 0 62.5 -17t59.5 -37.5t62 -37.5t70 -17zM778 -39q-545 0 -545 617v872h56v-868q0 -568 489 -568
q492 0 492 568v868h53v-872q0 -307 -137.5 -462t-407.5 -155z" />
    <glyph glyph-name="utilde" unicode="&#x169;" horiz-adv-x="1142" 
d="M698 1163q51 0 84.5 42t42.5 114h-41l-4 -6q-16 -105 -82 -105q-28 0 -61.5 17.5t-60 38t-63 38t-69.5 17.5q-51 0 -84 -42.5t-41 -113.5h39l4 4q19 105 82 105q29 0 62.5 -17t59.5 -37.5t62 -37.5t70 -17zM948 889v-889h-49v240q-55 -131 -157 -205t-220 -74
q-159 0 -243 100t-84 297v531h49v-496q0 -199 72.5 -292t220.5 -93q138 0 250 120t112 275v486h49z" />
    <glyph glyph-name="Umacron" unicode="&#x16a;" horiz-adv-x="1558" 
d="M1022 1657h-485v47h485v-47zM778 -39q-545 0 -545 617v872h56v-868q0 -568 489 -568q492 0 492 568v868h53v-872q0 -307 -137.5 -462t-407.5 -155z" />
    <glyph glyph-name="umacron" unicode="&#x16b;" horiz-adv-x="1142" 
d="M813 1196h-485v45h485v-45zM948 889v-889h-49v240q-55 -131 -157 -205t-220 -74q-159 0 -243 100t-84 297v531h49v-496q0 -199 72.5 -292t220.5 -93q138 0 250 120t112 275v486h49z" />
    <glyph glyph-name="Ubreve" unicode="&#x16c;" horiz-adv-x="1558" 
d="M778 1579q-115 0 -186.5 66t-93.5 188l6 6h39q44 -213 235 -213q192 0 236 213h39l6 -6q-20 -122 -93 -188t-188 -66zM778 -39q-545 0 -545 617v872h56v-868q0 -568 489 -568q492 0 492 568v868h53v-872q0 -307 -137.5 -462t-407.5 -155z" />
    <glyph glyph-name="ubreve" unicode="&#x16d;" horiz-adv-x="1142" 
d="M571 1110q-115 0 -186.5 65.5t-93.5 186.5l6 8h39q41 -215 235 -215q195 0 236 215h39l6 -8q-20 -121 -93 -186.5t-188 -65.5zM948 889v-889h-49v240q-55 -131 -157 -205t-220 -74q-159 0 -243 100t-84 297v531h49v-496q0 -199 72.5 -292t220.5 -93q138 0 250 120
t112 275v486h49z" />
    <glyph glyph-name="Uring" unicode="&#x16e;" horiz-adv-x="1558" 
d="M778 1534q-80 0 -138 56.5t-58 138.5t57.5 138t138.5 56t139 -56t58 -138t-58 -138.5t-139 -56.5zM778 1571q66 0 112 46.5t46 111.5t-46 111t-112 46t-111.5 -46t-45.5 -111t45.5 -111.5t111.5 -46.5zM778 -39q-545 0 -545 617v872h56v-868q0 -568 489 -568
q492 0 492 568v868h53v-872q0 -307 -137.5 -462t-407.5 -155z" />
    <glyph glyph-name="uring" unicode="&#x16f;" horiz-adv-x="1142" 
d="M571 1065q-80 0 -138 56.5t-58 138.5t57.5 138t138.5 56t139 -56t58 -138t-58 -138.5t-139 -56.5zM571 1102q66 0 112 46t46 112q0 65 -46 111t-112 46t-111.5 -46t-45.5 -111q0 -66 45.5 -112t111.5 -46zM948 889v-889h-49v240q-55 -131 -157 -205t-220 -74
q-159 0 -243 100t-84 297v531h49v-496q0 -199 72.5 -292t220.5 -93q138 0 250 120t112 275v486h49z" />
    <glyph glyph-name="Uhungarumlaut" unicode="&#x170;" horiz-adv-x="1558" 
d="M662 1565h-50l197 274h55l4 -8zM907 1565h-49l199 274h53l6 -8zM778 -39q-545 0 -545 617v872h56v-868q0 -568 489 -568q492 0 492 568v868h53v-872q0 -307 -137.5 -462t-407.5 -155z" />
    <glyph glyph-name="uhungarumlaut" unicode="&#x171;" horiz-adv-x="1142" 
d="M465 1094h-45l250 376h51l4 -8zM711 1094h-45l249 376h52l4 -8zM948 889v-889h-49v240q-55 -131 -157 -205t-220 -74q-159 0 -243 100t-84 297v531h49v-496q0 -199 72.5 -292t220.5 -93q138 0 250 120t112 275v486h49z" />
    <glyph glyph-name="Uogonek" unicode="&#x172;" horiz-adv-x="1558" 
d="M1270 582v868h53v-872q0 -460 -307 -578q-113 -102 -154 -162t-41 -121q0 -57 38.5 -94t98.5 -37q77 0 134 54h8l18 -35q-72 -62 -168 -62q-78 0 -127 45.5t-49 120.5q0 122 174 271q-81 -19 -170 -19q-545 0 -545 617v872h56v-868q0 -568 489 -568q492 0 492 568z" />
    <glyph glyph-name="uogonek" unicode="&#x173;" horiz-adv-x="1142" 
d="M1020 -360h8l19 -35q-72 -62 -168 -62q-78 0 -127.5 45.5t-49.5 120.5q0 68 48.5 138t150.5 153h-2v240q-55 -131 -157 -205t-220 -74q-159 0 -243 100t-84 297v531h49v-496q0 -199 72.5 -292t220.5 -93q138 0 250 120t112 275v486h49v-889h-4q-112 -101 -153 -161.5
t-41 -121.5q0 -57 38.5 -94t98.5 -37q76 0 133 54z" />
    <glyph glyph-name="Wcircumflex" unicode="&#x174;" horiz-adv-x="1974" 
d="M1176 1565l-189 243l-190 -243h-43l-6 8l208 266h62l209 -266l-6 -8h-45zM565 -29h-45l-471 1479h60l256 -815q1 -2 176 -537h8l172 537l252 801h28l254 -801q129 -403 170 -537h9q30 95 90 275t86 262l256 815h59l-471 -1479h-41l-287 895q-10 33 -135 418h-8
q-125 -385 -135 -418z" />
    <glyph glyph-name="wcircumflex" unicode="&#x175;" horiz-adv-x="1390" 
d="M893 1094l-197 342l-196 -342h-43l-4 8l215 368h59l215 -368l-6 -8h-43zM432 -33h-45l-319 922h55l287 -844h4l270 832h27l266 -832h4l287 844h55l-319 -922h-43l-263 807h-4z" />
    <glyph glyph-name="Ycircumflex" unicode="&#x176;" horiz-adv-x="1122" 
d="M750 1565l-189 243l-190 -243h-43l-6 8l208 266h62l209 -266l-6 -8h-45zM590 0h-55v610l-508 840h59l256 -430q92 -156 217 -354h6q25 41 99.5 163.5t113.5 188.5l256 432h62l-506 -840v-610z" />
    <glyph glyph-name="ycircumflex" unicode="&#x177;" horiz-adv-x="921" 
d="M682 1094l-197 342l-196 -342h-43l-4 8l215 368h59l215 -368l-6 -8h-43zM279 -446h-58l221 464l-381 871h58l348 -809h4l365 809h57z" />
    <glyph glyph-name="Ydieresis" unicode="&#x178;" horiz-adv-x="1122" 
d="M399 1657q-15 4 -20.5 20t0.5 33t21 24t30 1q33 -18 21 -56q-6 -17 -21.5 -23.5t-30.5 1.5zM694 1657q-14 5 -20 20.5t0 32.5t21 24t30 1q32 -18 20 -56q-6 -17 -21 -23.5t-30 1.5zM590 0h-55v610l-508 840h59l256 -430q92 -156 217 -354h6q25 41 99.5 163.5t113.5 188.5
l256 432h62l-506 -840v-610z" />
    <glyph glyph-name="Zacute" unicode="&#x179;" horiz-adv-x="1243" 
d="M555 1565h-49l196 274h56l6 -8zM41 12l1063 1385h-1010v53h1108v-12l-1061 -1385h1028v-53h-1128v12z" />
    <glyph glyph-name="zacute" unicode="&#x17a;" horiz-adv-x="886" 
d="M373 1094h-45l250 376h51l6 -8zM68 20l663 820h-645v49h729v-21l-663 -819h665v-49h-749v20z" />
    <glyph glyph-name="Zdotaccent" unicode="&#x17b;" horiz-adv-x="1243" 
d="M623 1620q-22 0 -36 14.5t-14 38.5q0 23 14 37t36 14t35.5 -14t13.5 -37q0 -24 -13.5 -38.5t-35.5 -14.5zM41 12l1063 1385h-1010v53h1108v-12l-1061 -1385h1028v-53h-1128v12z" />
    <glyph glyph-name="zdotaccent" unicode="&#x17c;" horiz-adv-x="886" 
d="M442 1161q-22 0 -35.5 14.5t-13.5 38.5q0 23 13.5 38.5t35.5 15.5t36 -15.5t14 -38.5q0 -24 -14 -38.5t-36 -14.5zM68 20l663 820h-645v49h729v-21l-663 -819h665v-49h-749v20z" />
    <glyph glyph-name="Zcaron" unicode="&#x17d;" horiz-adv-x="1243" 
d="M653 1565h-61l-207 266l6 8h43l189 -244l186 244h45l6 -8zM41 12l1063 1385h-1010v53h1108v-12l-1061 -1385h1028v-53h-1128v12z" />
    <glyph glyph-name="zcaron" unicode="&#x17e;" horiz-adv-x="886" 
d="M246 1470l196 -342l197 342h43l6 -8l-215 -368h-59l-215 368l4 8h43zM68 20l663 820h-645v49h729v-21l-663 -819h665v-49h-749v20z" />
    <glyph glyph-name="florin" unicode="&#x192;" horiz-adv-x="1433" 
d="M1008 1489q64 0 137 -31l-12 -47l-9 -4q-60 33 -120 33q-88 0 -141 -76t-77 -246l-36 -266h282l-8 -47h-283l-112 -801q-23 -161 -91.5 -241t-175.5 -80q-82 0 -149 30l12 43l8 2q70 -28 129 -28q179 0 220 282l110 793h-184l8 47h184l35 264q28 197 93 285t180 88z" />
    <glyph glyph-name="Aringacute" unicode="&#x1fa;" horiz-adv-x="1282" 
d="M776 2271l6 -8l-209 -266h-49l197 274h55zM641 1534q-81 0 -139 56.5t-58 138.5t58 138t139 56t139 -56t58 -138t-58 -138.5t-139 -56.5zM641 1886q-66 0 -112 -46t-46 -111t46 -111.5t112 -46.5t112 46.5t46 111.5t-46 111t-112 46zM1274 0h-62l-180 430h-784l-178 -430
h-62l619 1456h24zM481 989l-211 -508h742l-213 506l-158 369h-4q-18 -42 -73 -170.5t-83 -196.5z" />
    <glyph glyph-name="aringacute" unicode="&#x1fb;" horiz-adv-x="964" 
d="M666 1954l4 -6l-260 -371h-45l249 377h52zM479 1065q-80 0 -138 56.5t-58 138.5t57.5 138t138.5 56t139 -56t58 -138t-58 -138.5t-139 -56.5zM479 1417q-66 0 -111.5 -46t-45.5 -111q0 -66 45.5 -112t111.5 -46t112 46t46 112q0 65 -46 111t-112 46zM907 31l6 -4v-39
q-54 -23 -92 -23q-58 0 -82 30.5t-24 106.5v54q-115 -109 -203 -152t-182 -43q-102 0 -167 60.5t-65 156.5q0 140 142.5 220t474.5 118v72q0 152 -55.5 222.5t-172.5 70.5q-88 0 -176.5 -56.5t-148.5 -150.5l-8 -2l-35 24q64 105 167.5 168.5t207.5 63.5q132 0 201 -79.5
t69 -230.5v-512q0 -58 14 -77t53 -19q21 0 76 21zM150 182q0 -81 53.5 -127.5t140.5 -46.5q85 0 169 43t202 152v270q-299 -33 -432 -103t-133 -188z" />
    <glyph glyph-name="AEacute" unicode="&#x1fc;" horiz-adv-x="1839" 
d="M1264 1565h-50l197 274h55l7 -8zM1630 717h-682v-664h731l-8 -53h-776v430h-567l-258 -430h-62l873 1450h790l8 -53h-731v-627h682v-53zM625 926l-267 -445h537v443q0 302 2 454h-4q-111 -190 -268 -452z" />
    <glyph glyph-name="aeacute" unicode="&#x1fd;" horiz-adv-x="1644" 
d="M752 1094h-45l249 376h52l6 -8zM330 -39q-102 0 -167 60.5t-65 156.5q0 138 140 213t477 111v86q0 155 -52.5 224t-164.5 69q-92 0 -184 -56.5t-152 -150.5l-8 -2l-35 24q64 105 170 168.5t215 63.5q119 0 182.5 -70t69.5 -205h2q45 128 149.5 201.5t231.5 73.5
q177 0 287 -124.5t110 -322.5v-22h-770q-1 -206 105.5 -328.5t271.5 -122.5q104 0 191 53.5t147 155.5l8 2l37 -22q-63 -113 -164.5 -174.5t-222.5 -61.5q-120 0 -218.5 63t-152.5 173q-138 -139 -235 -187.5t-203 -48.5zM766 506h717q-4 169 -100.5 272t-245.5 103
q-145 0 -250.5 -104.5t-120.5 -270.5zM344 8q91 0 180.5 46t227.5 177q-37 107 -37 226q-305 -32 -435 -95t-130 -180q0 -81 53.5 -127.5t140.5 -46.5z" />
    <glyph glyph-name="Oslashacute" unicode="&#x1fe;" horiz-adv-x="1785" 
d="M1028 1839l6 -8l-209 -266h-49l197 274h55zM1536 1460l-131 -153q119 -105 183.5 -255.5t64.5 -326.5q0 -214 -93.5 -387.5t-268 -275t-398.5 -101.5q-282 0 -487 162l-121 -143l-33 26l123 146q-116 103 -179 251.5t-63 321.5q0 160 54.5 300t152 242.5t241 162
t312.5 59.5q282 0 481 -156l129 152zM190 725q0 -156 58 -293.5t164 -236.5l925 1093q-188 148 -444 148q-154 0 -286 -55t-223 -150.5t-142.5 -226.5t-51.5 -279zM893 14q153 0 285 56t223 151.5t142.5 226t51.5 277.5q0 161 -59.5 300t-167.5 237l-924 -1094
q188 -154 449 -154z" />
    <glyph glyph-name="oslashacute" unicode="&#x1ff;" horiz-adv-x="1165" 
d="M512 1094h-45l250 376h51l6 -8zM981 883l-70 -82q71 -67 110.5 -159.5t39.5 -197.5q0 -203 -136 -343t-343 -140q-168 0 -295 100l-68 -81l-35 26l70 82q-70 67 -110 159.5t-40 196.5q0 133 60.5 243.5t170.5 175.5t247 65q167 0 299 -101l67 80zM156 444
q0 -188 133 -315l559 659q-119 91 -266 91q-182 0 -304 -126t-122 -309zM582 8q180 0 303 126.5t123 309.5q0 189 -129 318l-560 -662q116 -92 263 -92z" />
    <glyph glyph-name="uni0218" unicode="&#x218;" horiz-adv-x="1146" 
d="M606 -39q-161 0 -279 75t-202 243l43 28l12 -2q76 -153 178.5 -223t245.5 -70q155 0 258 94t103 226q0 134 -86.5 223.5t-329.5 202.5q-208 96 -288.5 183.5t-80.5 223.5q0 143 108.5 233.5t280.5 90.5q273 0 400 -240l-41 -26l-13 2q-110 213 -348 213
q-144 0 -236.5 -77.5t-92.5 -191.5q0 -123 75.5 -197t307.5 -184t316.5 -206t84.5 -248q0 -161 -119 -267t-297 -106zM657 -109l-129 -329l-39 16l115 328l8 2z" />
    <glyph glyph-name="uni0219" unicode="&#x219;" horiz-adv-x="829" 
d="M426 -39q-110 0 -200 53t-134 146l39 24l8 -2q45 -87 120.5 -130.5t170.5 -43.5q107 0 180.5 54t73.5 135q0 74 -53 123.5t-191 101.5q-187 69 -252 128t-65 152q0 97 79 161.5t199 64.5q100 0 181 -51.5t118 -139.5l-36 -22l-9 2q-34 75 -103 119.5t-155 44.5
q-95 0 -159 -51t-64 -125q0 -75 56.5 -122.5t230.5 -115.5q155 -62 214.5 -120t59.5 -148q0 -101 -88.5 -169.5t-220.5 -68.5zM498 -109l-129 -329l-39 16l114 328l9 2z" />
    <glyph glyph-name="uni021A" unicode="&#x21a;" horiz-adv-x="1189" 
d="M567 0v1397h-530v53h1118v-53h-532v-1397h-56zM678 -109l-129 -329l-39 16l115 328l8 2z" />
    <glyph glyph-name="uni021B" unicode="&#x21b;" horiz-adv-x="667" 
d="M580 39l4 -2l4 -45q-82 -31 -154 -31q-107 0 -160 64t-53 180v637h-184v47h184v342l41 26h8v-368h312v-47h-312v-619q0 -116 42.5 -165.5t131.5 -49.5q68 0 136 31zM449 -109l-130 -329l-38 16l114 328l8 2z" />
    <glyph glyph-name="uni0237" unicode="&#x237;" horiz-adv-x="419" 
d="M2 -471q-75 0 -154 29l9 45l8 2q77 -29 133 -29q178 0 178 279v1034h49v-1041q0 -158 -58.5 -238.5t-164.5 -80.5z" />
    <glyph glyph-name="uni02BC" unicode="&#x2bc;" horiz-adv-x="360" 
d="M281 1509l-164 -413l-37 14l147 414l9 2z" />
    <glyph glyph-name="circumflex" unicode="&#x2c6;" horiz-adv-x="612" 
d="M502 1094l-197 342l-196 -342h-43l-5 8l215 368h60l215 -368l-6 -8h-43z" />
    <glyph glyph-name="caron" unicode="&#x2c7;" horiz-adv-x="612" 
d="M109 1470l196 -342l197 342h43l6 -8l-215 -368h-60l-215 368l5 8h43z" />
    <glyph glyph-name="breve" unicode="&#x2d8;" horiz-adv-x="684" 
d="M342 1110q-115 0 -187 65.5t-94 186.5l9 8h36q44 -215 236 -215q195 0 236 215h38l7 -8q-20 -121 -92.5 -186.5t-188.5 -65.5z" />
    <glyph glyph-name="dotaccent" unicode="&#x2d9;" horiz-adv-x="221" 
d="M111 1161q-22 0 -36 14.5t-14 38.5q0 23 14 38.5t36 15.5t35.5 -15.5t13.5 -38.5q0 -24 -13.5 -38.5t-35.5 -14.5z" />
    <glyph glyph-name="ring" unicode="&#x2da;" horiz-adv-x="516" 
d="M258 1065q-81 0 -139 56.5t-58 138.5t58 138t139 56t139 -56t58 -138t-58 -138.5t-139 -56.5zM258 1102q66 0 112 46t46 112q0 65 -46 111t-112 46t-112 -46t-46 -111q0 -66 46 -112t112 -46z" />
    <glyph glyph-name="ogonek" unicode="&#x2db;" horiz-adv-x="466" 
d="M238 -457q-78 0 -127.5 45.5t-49.5 120.5q0 68 48.5 138t150.5 153h43q-112 -101 -153 -161.5t-41 -121.5q0 -57 38.5 -94t98.5 -37q76 0 133 54h8l19 -35q-72 -62 -168 -62z" />
    <glyph glyph-name="tilde" unicode="&#x2dc;" horiz-adv-x="628" 
d="M442 1163q50 0 84 42t41 114h-39l-6 -6q-16 -105 -80 -105q-29 0 -62.5 17.5t-60 38t-63.5 38t-70 17.5q-49 0 -82.5 -42.5t-42.5 -113.5h39l6 4q16 105 80 105q30 0 63.5 -17t59.5 -37.5t62.5 -37.5t70.5 -17z" />
    <glyph glyph-name="hungarumlaut" unicode="&#x2dd;" horiz-adv-x="675" 
d="M106 1094h-45l250 376h51l5 -8zM352 1094h-45l250 376h51l6 -8z" />
    <glyph glyph-name="gravecomb" unicode="&#x300;" 
d="M-346 1470l250 -376h-45l-260 368l4 8h51z" />
    <glyph glyph-name="acutecomb" unicode="&#x301;" 
d="M-260 1094h-45l250 376h51l6 -8z" />
    <glyph glyph-name="uni0302" unicode="&#x302;" 
d="M-115 1094l-196 342l-197 -342h-43l-4 8l215 368h59l215 -368l-6 -8h-43z" />
    <glyph glyph-name="tildecomb" unicode="&#x303;" 
d="M-188 1163q51 0 84.5 42t42.5 114h-41l-4 -6q-16 -105 -82 -105q-28 0 -61.5 17.5t-60 38t-63 38t-69.5 17.5q-51 0 -84 -42.5t-41 -113.5h39l4 4q19 105 82 105q29 0 62.5 -17t59.5 -37.5t62 -37.5t70 -17z" />
    <glyph glyph-name="uni0304" unicode="&#x304;" 
d="M-61 1196h-486v45h486v-45z" />
    <glyph glyph-name="uni0306" unicode="&#x306;" 
d="M-328 1110q-115 0 -186.5 65.5t-93.5 186.5l6 8h39q41 -215 235 -215q195 0 236 215h39l6 -8q-20 -121 -93 -186.5t-188 -65.5z" />
    <glyph glyph-name="uni0307" unicode="&#x307;" 
d="M-111 1161q-22 0 -35.5 14.5t-13.5 38.5q0 23 13.5 38.5t35.5 15.5t36 -15.5t14 -38.5q0 -24 -14 -38.5t-36 -14.5z" />
    <glyph glyph-name="uni0308" unicode="&#x308;" 
d="M-416 1178q-14 5 -19 19.5t1 31.5t21 23t28 -1q34 -14 18 -53q-6 -17 -20 -22.5t-29 2.5zM-125 1178q-14 5 -19 19.5t1 31.5t20 22.5t29 -0.5q31 -14 18 -53q-6 -17 -20 -22.5t-29 2.5z" />
    <glyph glyph-name="uni030A" unicode="&#x30a;" 
d="M-258 1065q-81 0 -139 56.5t-58 138.5t58 138t139 56t139 -56t58 -138t-58 -138.5t-139 -56.5zM-258 1102q66 0 112 46t46 112q0 65 -46 111t-112 46t-112 -46t-46 -111q0 -66 46 -112t112 -46z" />
    <glyph glyph-name="uni030B" unicode="&#x30b;" 
d="M-336 1094h-45l250 376h51l4 -8zM-90 1094h-45l250 376h51l4 -8z" />
    <glyph glyph-name="uni030C" unicode="&#x30c;" 
d="M-508 1470l197 -342l196 342h43l6 -8l-215 -368h-59l-215 368l4 8h43z" />
    <glyph glyph-name="uni0312" unicode="&#x312;" 
d="M-362 1094l131 329l36 -14l-114 -328l-8 -4z" />
    <glyph glyph-name="uni0315" unicode="&#x315;" 
d="M-59 1409l-129 -328l-39 15l114 327l9 4z" />
    <glyph glyph-name="dotbelowcomb" unicode="&#x323;" 
d="M-102 -428q-22 0 -36 14t-14 37q0 24 14 38.5t36 14.5q21 0 35 -15t14 -38t-14 -37t-35 -14z" />
    <glyph glyph-name="uni0324" unicode="&#x324;" 
d="M-414 -358q-14 5 -19 19.5t1 31.5t20 22.5t29 -0.5q34 -14 18 -53q-6 -17 -20 -22.5t-29 2.5zM-123 -358q-15 4 -19.5 19t1.5 32t20 22.5t29 -0.5q31 -14 18 -53q-6 -17 -21 -22.5t-28 2.5z" />
    <glyph glyph-name="uni0325" unicode="&#x325;" 
d="M-258 -565q-81 0 -139 56t-58 138t58 138.5t139 56.5t139 -56.5t58 -138.5t-58 -138t-139 -56zM-258 -528q66 0 112 45.5t46 111.5q0 65 -46 111.5t-112 46.5t-112 -46.5t-46 -111.5q0 -66 46 -111.5t112 -45.5z" />
    <glyph glyph-name="uni0326" unicode="&#x326;" 
d="M-57 -109l-129 -329l-39 16l114 328l9 2z" />
    <glyph glyph-name="uni0327" unicode="&#x327;" 
d="M-274 -465q-95 0 -191 45l14 37l9 2q85 -43 172 -43q69 0 113 35.5t44 89.5q0 102 -141 102q-77 0 -131 -30l-16 16l118 193h45l-98 -156q53 16 105 16q74 0 119.5 -37.5t45.5 -101.5q0 -74 -57.5 -121t-150.5 -47z" />
    <glyph glyph-name="uni0328" unicode="&#x328;" 
d="M-229 -457q-78 0 -127.5 45.5t-49.5 120.5q0 68 48.5 138t150.5 153h43q-112 -101 -153 -161.5t-41 -121.5q0 -57 38.5 -94t98.5 -37q76 0 133 54h8l19 -35q-72 -62 -168 -62z" />
    <glyph glyph-name="uni0330" unicode="&#x330;" 
d="M-188 -410q51 0 84.5 42t42.5 114h-41l-4 -6q-16 -105 -82 -105q-28 0 -61.5 17.5t-60 38t-63 38t-69.5 17.5q-51 0 -84 -42t-41 -114h39l4 7q19 104 82 104q29 0 62.5 -17.5t59.5 -38t62 -38t70 -17.5z" />
    <glyph glyph-name="uni0331" unicode="&#x331;" 
d="M-61 -332h-486v45h486v-45z" />
    <glyph glyph-name="uni0335" unicode="&#x335;" 
d="M-74 453h-467v51h467v-51z" />
    <glyph glyph-name="uni0336" unicode="&#x336;" 
d="M287 453h-1454v51h1454v-51z" />
    <glyph glyph-name="uni0337" unicode="&#x337;" 
d="M-8 645l-737 -424l-27 45l737 424z" />
    <glyph glyph-name="uni0338" unicode="&#x338;" 
d="M74 1051l-1018 -1213l-39 33l1018 1212z" />
    <glyph glyph-name="uni0394" unicode="&#x394;" horiz-adv-x="1282" 
d="M627 1456h24l623 -1456h-1266zM481 989l-389 -936h1098l-391 934l-158 369h-4q-18 -42 -73 -170.5t-83 -196.5z" />
    <glyph glyph-name="pi" unicode="&#x3c0;" horiz-adv-x="1017" 
d="M770 104v738h-539v-842h-49v842h-143v47h938v-47h-158v-736q0 -58 15 -77t57 -19q21 0 74 21l8 -4v-39q-54 -23 -94 -23q-59 0 -84 31t-25 108z" />
    <glyph glyph-name="uni0400" unicode="&#x400;" horiz-adv-x="1198" 
d="M758 1565h-49l-207 266l4 8h55zM254 0v1450h776l8 -53h-731v-627h682v-53h-682v-664h731l-8 -53h-776z" />
    <glyph glyph-name="uni0401" unicode="&#x401;" horiz-adv-x="1198" 
d="M477 1657q-15 4 -20.5 20t0.5 33t21 24t30 1q32 -18 20 -56q-6 -17 -21 -23.5t-30 1.5zM772 1657q-14 5 -20 20.5t0 32.5t21 24t30 1q32 -18 20 -56q-6 -17 -21 -23.5t-30 1.5zM254 0v1450h776l8 -53h-731v-627h682v-53h-682v-664h731l-8 -53h-776z" />
    <glyph glyph-name="uni0403" unicode="&#x403;" horiz-adv-x="999" 
d="M575 1565h-49l197 274h55l6 -8zM254 0v1450h702l7 -53h-656v-1397h-53z" />
    <glyph glyph-name="uni040C" unicode="&#x40c;" horiz-adv-x="1292" 
d="M559 1565h-49l197 274h55l6 -8zM1268 0h-70l-571 813l-320 -346v-467h-53v1450h53v-549v-358q44 47 131 142t131 142l570 623h69l-544 -598z" />
    <glyph glyph-name="uni040D" unicode="&#x40d;" horiz-adv-x="1669" 
d="M952 1565h-49l-207 266l4 8h56zM1415 1450v-1450h-53v1001v371h-6l-254 -325l-838 -1076h-10v1479h53v-965v-368h6l260 327l781 1006h61z" />
    <glyph glyph-name="uni0410" unicode="&#x410;" horiz-adv-x="1282" 
d="M1274 0h-62l-180 430h-784l-178 -430h-62l619 1456h24zM481 989l-211 -508h742l-213 506l-158 369h-4q-18 -42 -73 -170.5t-83 -196.5z" />
    <glyph glyph-name="uni0411" unicode="&#x411;" horiz-adv-x="1193" 
d="M307 836h291q239 0 362 -110t123 -312q0 -204 -121 -309t-364 -105h-344v1450h692l6 -53h-645v-561zM307 51h279q442 0 442 363q0 185 -110.5 277.5t-342.5 92.5h-268v-733z" />
    <glyph glyph-name="uni0412" unicode="&#x412;" horiz-adv-x="1239" 
d="M567 0h-313v1450h315q238 0 363 -91t125 -263q0 -126 -82 -216.5t-223 -121.5v-4q181 -25 277.5 -118t96.5 -243q0 -201 -136 -297t-423 -96zM307 1399v-625h299q172 0 282.5 89.5t110.5 230.5q0 147 -108 226t-313 79h-271zM307 725v-674h266q256 0 376 83.5t120 258.5
q0 156 -120 244t-333 88h-309z" />
    <glyph glyph-name="uni0413" unicode="&#x413;" horiz-adv-x="999" 
d="M254 0v1450h702l7 -53h-656v-1397h-53z" />
    <glyph glyph-name="uni0414" unicode="&#x414;" horiz-adv-x="1288" 
d="M655 1456l541 -1403h100v-391h-53v338h-1196v-338h-53v391h98l539 1403h24zM1135 53l-351 932l-139 371h-4q-66 -173 -139 -369l-348 -934h981z" />
    <glyph glyph-name="uni0415" unicode="&#x415;" horiz-adv-x="1198" 
d="M254 0v1450h776l8 -53h-731v-627h682v-53h-682v-664h731l-8 -53h-776z" />
    <glyph glyph-name="uni0416" unicode="&#x416;" horiz-adv-x="2002" 
d="M104 0h-69l588 860l-529 590h70l553 -619q164 -188 256 -288h2v358v549h53v-549v-358q92 98 258 288l553 619h70l-529 -590l588 -860h-72l-553 817l-315 -350v-467h-53v467l-316 350z" />
    <glyph glyph-name="uni0417" unicode="&#x417;" horiz-adv-x="1150" 
d="M707 758v-2q150 -23 237.5 -124t87.5 -251q0 -181 -128.5 -300.5t-328.5 -119.5q-210 0 -338.5 109.5t-150.5 302.5l43 6l12 -6q19 -164 133.5 -262.5t296.5 -98.5q183 0 293.5 102t110.5 265q0 168 -112.5 260t-330.5 92h-172v49h168q208 0 315 90t107 252
q0 137 -97 226.5t-259 89.5q-172 0 -281.5 -87.5t-138.5 -246.5l-12 -6l-41 6q25 176 152 280.5t325 104.5q182 0 295 -101.5t113 -261.5q0 -141 -77 -239.5t-222 -128.5z" />
    <glyph glyph-name="uni0418" unicode="&#x418;" horiz-adv-x="1669" 
d="M1415 1450v-1450h-53v1001v371h-6l-254 -325l-838 -1076h-10v1479h53v-965v-368h6l260 327l781 1006h61z" />
    <glyph glyph-name="uni0419" unicode="&#x419;" horiz-adv-x="1669" 
d="M836 1579q-115 0 -187 66t-94 188l6 6h39q44 -213 236 -213q191 0 235 213h39l6 -6q-20 -122 -92.5 -188t-187.5 -66zM1415 1450v-1450h-53v1001v371h-6l-254 -325l-838 -1076h-10v1479h53v-965v-368h6l260 327l781 1006h61z" />
    <glyph glyph-name="uni041A" unicode="&#x41a;" horiz-adv-x="1292" 
d="M1268 0h-70l-571 813l-320 -346v-467h-53v1450h53v-549v-358q44 47 131 142t131 142l570 623h69l-544 -598z" />
    <glyph glyph-name="uni041B" unicode="&#x41b;" horiz-adv-x="1261" 
d="M70 0h-62l608 1456h25l612 -1456h-61l-408 987l-153 369h-4q-11 -26 -67 -162t-85 -205z" />
    <glyph glyph-name="uni041C" unicode="&#x41c;" horiz-adv-x="1886" 
d="M338 1450l602 -1165h4l606 1165h82v-1450h-53v1382h-4l-627 -1200h-12l-625 1200h-4v-1382h-53v1450h84z" />
    <glyph glyph-name="uni041D" unicode="&#x41d;" horiz-adv-x="1585" 
d="M307 0h-53v1450h53v-688h971v688h53v-1450h-53v709h-971v-709z" />
    <glyph glyph-name="uni041E" unicode="&#x41e;" horiz-adv-x="1785" 
d="M893 -39q-167 0 -310 59t-241 161.5t-153.5 243t-55.5 300.5t54.5 300t152 242.5t241 162t312.5 59.5q170 0 313.5 -59.5t241 -162t151.5 -242.5t54 -300q0 -214 -93.5 -387.5t-268 -275t-398.5 -101.5zM893 14q153 0 285 56t223 151.5t142.5 226t51.5 277.5
q0 199 -87.5 360.5t-248.5 256t-366 94.5q-154 0 -286 -55t-223 -150.5t-142.5 -226.5t-51.5 -279q0 -147 52 -277.5t143 -226t223 -151.5t285 -56z" />
    <glyph glyph-name="uni041F" unicode="&#x41f;" horiz-adv-x="1585" 
d="M307 0h-53v1450h1077v-1450h-53v1397h-971v-1397z" />
    <glyph glyph-name="uni0420" unicode="&#x420;" horiz-adv-x="1153" 
d="M307 0h-53v1450h334q242 0 363.5 -105.5t121.5 -308.5q0 -199 -123.5 -308.5t-361.5 -109.5h-281v-618zM307 1399v-729h258q232 0 342.5 92t110.5 274q0 363 -443 363h-268z" />
    <glyph glyph-name="uni0421" unicode="&#x421;" horiz-adv-x="1662" 
d="M879 -39q-158 0 -296.5 58t-237 159t-155.5 243t-57 304q0 161 56.5 303t154.5 243t235 159.5t293 58.5q220 0 381.5 -97.5t274.5 -297.5l-39 -29l-12 4q-204 367 -605 367q-143 0 -269.5 -55t-217 -149t-143 -226t-52.5 -281q0 -197 91 -360.5t248.5 -257t347.5 -93.5
q202 0 357.5 92.5t254.5 270.5l12 4l37 -27q-232 -393 -659 -393z" />
    <glyph glyph-name="uni0422" unicode="&#x422;" horiz-adv-x="1189" 
d="M567 0v1397h-530v53h1118v-53h-532v-1397h-56z" />
    <glyph glyph-name="uni0423" unicode="&#x423;" horiz-adv-x="1097" 
d="M248 0h-60l357 604l-512 846h61l256 -430q32 -54 69 -114.5t81.5 -132.5t70.5 -114h4q31 52 104.5 173t111.5 186l251 432h60z" />
    <glyph glyph-name="uni0424" unicode="&#x424;" horiz-adv-x="1814" 
d="M1681 725q0 -202 -92.5 -360.5t-263 -249t-391.5 -92.5v-105h-53v105q-167 1 -307 54t-236.5 145.5t-150.5 221.5t-54 281q0 202 91 360.5t261.5 249t395.5 92.5v105h53v-105q168 -1 308.5 -54t236.5 -146t149 -222t53 -280zM190 725q0 -184 86.5 -331t244.5 -231.5
t360 -86.5v1298q-307 -3 -499 -184.5t-192 -464.5zM934 1374v-1298q305 3 497.5 186t192.5 463q0 283 -191.5 464.5t-498.5 184.5z" />
    <glyph glyph-name="uni0425" unicode="&#x425;" horiz-adv-x="1116" 
d="M86 0h-66l506 754l-477 696h68l442 -651l438 651h68l-477 -698l508 -752h-68l-471 707z" />
    <glyph glyph-name="uni0426" unicode="&#x426;" horiz-adv-x="1579" 
d="M1298 1450v-1397h187v-391h-53v338h-1178v1450h53v-1397h938v1397h53z" />
    <glyph glyph-name="uni0427" unicode="&#x427;" horiz-adv-x="1429" 
d="M1122 825v625h56v-1450h-56v766q-85 -96 -221.5 -171t-282.5 -75q-200 0 -292.5 112.5t-92.5 342.5v475h56v-455q0 -221 77.5 -321.5t258.5 -100.5q139 0 267 66.5t230 185.5z" />
    <glyph glyph-name="uni0428" unicode="&#x428;" horiz-adv-x="2097" 
d="M1790 53v1397h53v-1450h-1589v1450h53v-1397h715v1397h53v-1397h715z" />
    <glyph glyph-name="uni0429" unicode="&#x429;" horiz-adv-x="2123" 
d="M1843 1450v-1397h187v-391h-54v338h-1722v1450h53v-1397h715v1397h53v-1397h715v1397h53z" />
    <glyph glyph-name="uni042A" unicode="&#x42a;" horiz-adv-x="1275" 
d="M420 836h291q239 0 362 -110t123 -312q0 -204 -121 -309t-364 -105h-346v1397h-365l8 53h412v-614zM420 51h278q441 0 441 363q0 185 -109.5 277.5t-341.5 92.5h-268v-733z" />
    <glyph glyph-name="uni042B" unicode="&#x42b;" horiz-adv-x="1724" 
d="M254 0v1450h53v-614h291q239 0 362 -110t123 -312q0 -204 -121 -309t-364 -105h-344zM1419 0v1450h54v-1450h-54zM575 784h-268v-733h279q442 0 442 363q0 185 -110.5 277.5t-342.5 92.5z" />
    <glyph glyph-name="uni042C" unicode="&#x42c;" horiz-adv-x="1165" 
d="M254 0v1450h53v-614h291q239 0 362 -110t123 -312q0 -204 -121 -309t-364 -105h-344zM575 784h-268v-733h279q442 0 442 363q0 185 -110.5 277.5t-342.5 92.5z" />
    <glyph glyph-name="uni042D" unicode="&#x42d;" horiz-adv-x="1662" 
d="M825 1489q157 0 289 -57t223 -157.5t142 -242t51 -307.5q0 -218 -90.5 -392t-255 -273t-373.5 -99q-453 0 -686 391l37 27l12 -2q98 -176 264 -269.5t375 -93.5q185 0 335 90.5t235.5 249.5t89.5 355h-1027v53h1027q-8 195 -90.5 348t-227.5 239.5t-330 86.5
q-216 0 -378 -94t-261 -273l-12 -2l-39 29q226 393 690 393z" />
    <glyph glyph-name="uni042E" unicode="&#x42e;" horiz-adv-x="2228" 
d="M1348 1489q170 0 311 -59t235.5 -162t146.5 -243t52 -300q0 -161 -52.5 -301t-148 -242.5t-236 -161.5t-308.5 -59q-219 0 -389 99t-261.5 268.5t-95.5 380.5h-295v-709h-53v1450h53v-688h295q6 153 61 286.5t150 231t233 153.5t302 56zM1348 14q153 0 282.5 55.5
t218 151.5t138 226.5t49.5 277.5q0 149 -49.5 279.5t-137.5 226t-217.5 150.5t-283.5 55q-204 0 -362.5 -94.5t-242.5 -256t-84 -360.5q0 -197 84.5 -358.5t243 -257t361.5 -95.5z" />
    <glyph glyph-name="uni042F" unicode="&#x42f;" horiz-adv-x="1230" 
d="M659 1450h318v-1450h-53v639h-369l-444 -639h-54l-6 12l445 637q-166 29 -253 131.5t-87 253.5q0 204 129 310t374 106zM614 690h310v709h-258q-223 0 -338 -91.5t-115 -273.5q0 -155 101 -249.5t300 -94.5z" />
    <glyph glyph-name="uni0430" unicode="&#x430;" horiz-adv-x="964" 
d="M907 31l6 -4v-39q-54 -23 -92 -23q-58 0 -82 30.5t-24 106.5v54q-115 -109 -203 -152t-182 -43q-102 0 -167 60.5t-65 156.5q0 140 142.5 220t474.5 118v72q0 152 -55.5 222.5t-172.5 70.5q-88 0 -176.5 -56.5t-148.5 -150.5l-8 -2l-35 24q64 105 167.5 168.5t207.5 63.5
q132 0 201 -79.5t69 -230.5v-512q0 -58 14 -77t53 -19q21 0 76 21zM150 182q0 -81 53.5 -127.5t140.5 -46.5q85 0 169 43t202 152v270q-299 -33 -432 -103t-133 -188z" />
    <glyph glyph-name="uni0431" unicode="&#x431;" horiz-adv-x="1157" 
d="M625 -39q-194 0 -324.5 129.5t-130.5 355.5v175q0 104 4.5 184t16.5 161t32.5 141.5t54 117t79.5 96.5t110 70.5t145 48.5l219 47q60 13 127 41l15 -39q-59 -35 -148 -53l-190 -43q-92 -21 -155 -52t-115 -84.5t-82 -135t-47 -198.5t-19 -280h4q51 129 163.5 207
t246.5 78q188 0 305 -130.5t117 -342.5q0 -222 -117.5 -358t-310.5 -136zM621 8q172 0 276 121.5t104 325.5q0 190 -104.5 307t-273.5 117q-171 0 -290 -129t-116 -314q4 -187 118 -307.5t286 -120.5z" />
    <glyph glyph-name="uni0432" unicode="&#x432;" horiz-adv-x="1148" 
d="M600 -39q-217 0 -319.5 136t-102.5 405v520q0 241 101.5 372.5t300.5 131.5q166 0 268 -100t102 -255q0 -126 -75.5 -224.5t-174.5 -133.5v-4q167 -24 250.5 -131.5t83.5 -265.5q0 -202 -120.5 -326.5t-313.5 -124.5zM598 8q71 -1 138 23.5t123 72t90 126.5t34 178
q0 176 -100.5 271t-298.5 95h-144v47h144q51 0 106 25.5t102 69.5t77 110.5t30 140.5q0 138 -87.5 225t-236.5 87q-169 0 -258.5 -117t-89.5 -338v-520q0 -134 26 -230.5t76 -154t116.5 -84t152.5 -27.5z" />
    <glyph glyph-name="uni0433" unicode="&#x433;" horiz-adv-x="829" 
d="M391 -39q-123 0 -210 67t-87 162q0 96 59.5 154.5t215.5 120.5q176 71 231 119t55 127q0 70 -62 120t-157 50q-94 0 -162.5 -44t-101.5 -120l-8 -2l-37 22q38 90 119 140.5t196 50.5q113 0 189 -62t76 -149q0 -101 -64.5 -161.5t-251.5 -133.5q-141 -54 -193.5 -104
t-52.5 -130q0 -75 73 -127.5t175 -52.5q95 0 171 43.5t122 130.5l6 2l39 -24q-47 -94 -136.5 -146.5t-203.5 -52.5z" />
    <glyph glyph-name="uni0434" unicode="&#x434;" horiz-adv-x="1181" 
d="M563 -471q-285 0 -413 233l36 23l9 -2q64 -108 152 -157.5t216 -49.5q183 0 280.5 110t94.5 308v262q-44 -122 -159.5 -201.5t-246.5 -79.5q-195 0 -311.5 133t-116.5 345q0 210 125.5 342.5t313.5 132.5q130 0 238 -77.5t157 -207.5v246h49v-895q0 -227 -108.5 -346
t-315.5 -119zM539 23q166 0 283 118t120 291q4 185 -111.5 316t-279.5 131q-171 0 -283 -119t-112 -307q0 -191 104 -310.5t279 -119.5z" />
    <glyph glyph-name="uni0435" unicode="&#x435;" horiz-adv-x="1071" 
d="M961 451h-801v-19q0 -190 112.5 -307t284.5 -117q225 0 350 209l8 2l35 -22q-61 -114 -164.5 -175t-232.5 -61q-198 0 -321 133.5t-123 349.5q0 215 121.5 349.5t312.5 134.5q190 0 305 -124.5t115 -330.5q0 -12 -2 -22zM543 881q-158 0 -264.5 -106.5t-116.5 -278.5h747
q-4 178 -103.5 281.5t-262.5 103.5z" />
    <glyph glyph-name="uni0436" unicode="&#x436;" horiz-adv-x="1376" 
d="M109 0h-64l385 563l-330 326h68l319 -322q88 -85 177 -174v545v563h49v-563v-545q19 19 54.5 55t65.5 66t56 55l319 320h68l-330 -326l385 -563h-65l-353 530l-200 -198v-332h-49v332l-201 198z" />
    <glyph glyph-name="uni0437" unicode="&#x437;" horiz-adv-x="944" 
d="M469 -471q-267 0 -395 233l37 23l8 -2q63 -107 148.5 -156t201.5 -51q61 -1 120.5 20.5t109 61.5t80 105t30.5 143q0 149 -87 236t-265 87h-176v45h178q52 0 106.5 24t100.5 66t75 108.5t29 143.5q0 51 -16 97.5t-48 84.5t-85.5 60.5t-122.5 22.5q-101 0 -193.5 -56
t-154.5 -153l-7 -2l-37 24q65 108 171.5 171t224.5 63q103 0 177 -44.5t108 -112.5t34 -150q0 -130 -77 -230.5t-203 -130.5v-2q88 -10 153 -44t99.5 -84t50.5 -104t16 -116q0 -164 -111.5 -272.5t-279.5 -108.5z" />
    <glyph glyph-name="uni0438" unicode="&#x438;" horiz-adv-x="1142" 
d="M948 889v-889h-49v240q-55 -131 -157 -205t-220 -74q-159 0 -243 100t-84 297v531h49v-496q0 -199 72.5 -292t220.5 -93q138 0 250 120t112 275v486h49z" />
    <glyph glyph-name="uni0439" unicode="&#x439;" horiz-adv-x="1142" 
d="M571 1110q-115 0 -186.5 65.5t-93.5 186.5l6 8h39q41 -215 235 -215q195 0 236 215h39l6 -8q-20 -121 -93 -186.5t-188 -65.5zM948 889v-889h-49v240q-55 -131 -157 -205t-220 -74q-159 0 -243 100t-84 297v531h49v-496q0 -199 72.5 -292t220.5 -93q138 0 250 120
t112 275v486h49z" />
    <glyph glyph-name="uni043A" unicode="&#x43a;" horiz-adv-x="937" 
d="M903 0h-63l-398 520l-198 -188v-332h-49v1501h49v-563v-549q51 50 153.5 149.5t153.5 149.5l209 201h67l-352 -336z" />
    <glyph glyph-name="uni043B" unicode="&#x43b;" horiz-adv-x="823" 
d="M53 0h-55l410 922h6l411 -922h-55l-356 813h-4z" />
    <glyph glyph-name="uni043C" unicode="&#x43c;" horiz-adv-x="1241" 
d="M1047 889v-889h-48v819l-374 -708h-7l-376 708v-819h-47v889h65l358 -678h5l358 678h66z" />
    <glyph glyph-name="uni043D" unicode="&#x43d;" horiz-adv-x="1097" 
d="M854 485v404h49v-889h-49v438h-610v-438h-49v889h49v-404h610z" />
    <glyph glyph-name="uni043E" unicode="&#x43e;" horiz-adv-x="1165" 
d="M582 -39q-205 0 -341.5 140t-136.5 343q0 133 60.5 243.5t170.5 175.5t247 65t247.5 -65t171 -175.5t60.5 -243.5q0 -203 -136 -343t-343 -140zM582 8q180 0 303 126.5t123 309.5t-122 309t-304 126t-304 -126t-122 -309t123.5 -309.5t302.5 -126.5z" />
    <glyph glyph-name="uni043F" unicode="&#x43f;" horiz-adv-x="1159" 
d="M195 0v889h49v-242q55 132 157.5 206.5t227.5 74.5q166 0 251 -100t85 -298v-530h-50v494q0 200 -72.5 292.5t-228.5 92.5q-145 0 -257.5 -119.5t-112.5 -274.5v-485h-49z" />
    <glyph glyph-name="uni0440" unicode="&#x440;" horiz-adv-x="1177" 
d="M244 -446h-49v1335h49v-246q51 130 162 207.5t245 77.5q188 0 305 -130.5t117 -342.5q0 -222 -117 -358t-309 -136q-133 0 -247.5 79.5t-155.5 201.5v-297v-391zM641 8q173 0 277 121.5t104 325.5q0 190 -105 307t-274 117q-171 0 -289 -129.5t-114 -317.5
q3 -182 118 -303t283 -121z" />
    <glyph glyph-name="uni0441" unicode="&#x441;" horiz-adv-x="1064" 
d="M549 -39q-199 0 -322 133t-123 350q0 216 124 350t323 134q130 0 231.5 -62.5t165.5 -183.5l-37 -23l-6 3q-128 219 -352 219q-173 0 -285 -119.5t-112 -317.5t112 -317t285 -119q226 0 352 215l8 4l35 -22q-64 -120 -166 -182t-233 -62z" />
    <glyph glyph-name="uni0442" unicode="&#x442;" horiz-adv-x="1806" 
d="M1294 928q153 0 235.5 -100.5t82.5 -297.5v-530h-49v494q0 198 -70.5 291.5t-212.5 93.5q-132 0 -242 -121.5t-110 -274.5v-483h-49v494q0 198 -71 291.5t-214 93.5q-85 0 -166 -55t-132.5 -147.5t-51.5 -193.5v-483h-49v889h49v-242q55 131 154.5 206t211.5 75
q130 0 209 -74.5t99 -222.5q55 142 159 219.5t217 77.5z" />
    <glyph glyph-name="uni0443" unicode="&#x443;" horiz-adv-x="921" 
d="M279 -446h-58l221 464l-381 871h58l348 -809h4l365 809h57z" />
    <glyph glyph-name="uni0444" unicode="&#x444;" horiz-adv-x="1308" 
d="M678 934h4q236 0 379 -139.5t143 -350.5q0 -102 -37 -192t-104 -155.5t-165.5 -103.5t-215.5 -38h-4v-401h-49v401h-2q-117 0 -216 38t-165.5 103.5t-104 155.5t-37.5 192q0 210 143.5 350t379.5 140h2v567h49v-567zM156 444q0 -190 131 -316t340 -126h4v885h-4
q-212 0 -341.5 -126t-129.5 -317zM678 2h4q208 0 339.5 126t131.5 316q0 191 -129.5 317t-341.5 126h-4v-885z" />
    <glyph glyph-name="uni0445" unicode="&#x445;" horiz-adv-x="854" 
d="M117 0h-60l342 446l-342 443h62l166 -221q59 -77 139 -185h6q59 77 139 185l168 221h60l-340 -443l342 -446h-60l-182 242q-7 10 -127 168h-6q-50 -70 -127 -168z" />
    <glyph glyph-name="uni0446" unicode="&#x446;" horiz-adv-x="1163" 
d="M948 889v-842h185v-344h-48v297h-186v240q-55 -131 -157 -205t-220 -74q-159 0 -243 100t-84 297v531h49v-496q0 -199 72.5 -292t220.5 -93q138 0 250 120t112 275v486h49z" />
    <glyph glyph-name="uni0447" unicode="&#x447;" horiz-adv-x="1062" 
d="M821 510v379h49v-889h-49v461q-100 -105 -189 -149t-183 -44q-275 0 -275 348v273h49v-248q0 -170 59.5 -248t178.5 -78q84 0 168 44.5t192 150.5z" />
    <glyph glyph-name="uni0448" unicode="&#x448;" horiz-adv-x="1789" 
d="M508 -39q-150 0 -231.5 100t-81.5 295v533h49v-494q0 -200 70 -293.5t210 -93.5q62 0 125 33.5t111.5 87.5t79 128t30.5 149v483h50v-494q0 -200 70 -293.5t210 -93.5q62 0 125 33.5t111.5 87.5t79 128t30.5 149v483h49v-889h-49v240q-55 -130 -154 -204.5t-208 -74.5
q-128 0 -205.5 74.5t-97.5 222.5q-54 -142 -158 -219.5t-215 -77.5z" />
    <glyph glyph-name="uni0449" unicode="&#x449;" horiz-adv-x="1810" 
d="M1595 889v-842h185v-344h-47v297h-187v240q-55 -130 -154 -204.5t-208 -74.5q-128 0 -205.5 74.5t-97.5 222.5q-54 -142 -158 -219.5t-215 -77.5q-150 0 -231.5 100t-81.5 295v533h49v-494q0 -200 70 -293.5t210 -93.5q62 0 125 33.5t111.5 87.5t79 128t30.5 149v483h50
v-494q0 -200 70 -293.5t210 -93.5q62 0 125 33.5t111.5 87.5t79 128t30.5 149v483h49z" />
    <glyph glyph-name="uni044A" unicode="&#x44a;" horiz-adv-x="1142" 
d="M709 678q157 0 248.5 -97t91.5 -255q0 -154 -100 -259.5t-269 -105.5q-172 0 -263 104.5t-91 299.5v477h-289v47h340v-432q44 110 136 165.5t196 55.5zM680 8q135 0 226 86t91 230q0 145 -83.5 226t-215.5 81q-131 0 -226 -96t-95 -207q0 -146 81 -233t222 -87z" />
    <glyph glyph-name="uni044B" unicode="&#x44b;" horiz-adv-x="1449" 
d="M549 -39q-170 0 -262 104.5t-92 299.5v524h51v-432q30 74 86 125.5t118 73.5t128 22q157 0 248.5 -97t91.5 -255q0 -154 -100 -259.5t-269 -105.5zM1257 0h-49v889h49v-889zM549 8q136 0 226.5 86t90.5 230q0 145 -83.5 226t-215.5 81q-131 0 -226 -96t-95 -207
q0 -146 81 -233t222 -87z" />
    <glyph glyph-name="uni044C" unicode="&#x44c;" horiz-adv-x="1013" 
d="M549 -39q-170 0 -262 104.5t-92 299.5v524h51v-432q30 74 86 125.5t118 73.5t128 22q157 0 248.5 -97t91.5 -255q0 -154 -100 -259.5t-269 -105.5zM549 8q136 0 226.5 86t90.5 230q0 145 -83.5 226t-215.5 81q-131 0 -226 -96t-95 -207q0 -146 81 -233t222 -87z" />
    <glyph glyph-name="uni044D" unicode="&#x44d;" horiz-adv-x="1054" 
d="M532 928q193 0 305.5 -131.5t112.5 -347.5q0 -218 -117.5 -353t-306.5 -135q-136 0 -240 61.5t-169 178.5l37 22l6 -2q130 -213 368 -213q158 0 263 117t108 313h-508v45h508q-9 183 -109 290.5t-260 107.5q-121 0 -211 -53t-159 -160l-6 -2l-37 22q142 240 415 240z" />
    <glyph glyph-name="uni044E" unicode="&#x44e;" horiz-adv-x="1482" 
d="M913 928q136 0 243 -65t164.5 -175t57.5 -244q0 -204 -130.5 -343.5t-334.5 -139.5t-334.5 137t-132.5 340h-202v-438h-49v1501h49v-1016h205q12 191 140 317t324 126zM913 8q177 0 295.5 126t118.5 310t-116.5 309.5t-297.5 125.5t-297 -125.5t-116 -309.5
q0 -185 117.5 -310.5t295.5 -125.5z" />
    <glyph glyph-name="uni044F" unicode="&#x44f;" horiz-adv-x="1001" 
d="M807 889v-889h-49v344l-295 2l-252 -346h-55l-4 4l256 342q-127 6 -199 76.5t-72 189.5q0 123 88.5 200t249.5 77h332zM442 389h316v453h-289q-137 0 -208 -62t-71 -166q0 -109 64.5 -167t187.5 -58z" />
    <glyph glyph-name="uni0450" unicode="&#x450;" horiz-adv-x="1071" 
d="M401 1470l250 -376h-45l-260 368l4 8h51zM961 451h-801v-19q0 -190 112.5 -307t284.5 -117q225 0 350 209l8 2l35 -22q-61 -114 -164.5 -175t-232.5 -61q-198 0 -321 133.5t-123 349.5q0 215 121.5 349.5t312.5 134.5q190 0 305 -124.5t115 -330.5q0 -12 -2 -22zM543 881
q-158 0 -264.5 -106.5t-116.5 -278.5h747q-4 178 -103.5 281.5t-262.5 103.5z" />
    <glyph glyph-name="uni0451" unicode="&#x451;" horiz-adv-x="1071" 
d="M379 1178q-14 5 -19.5 19.5t0.5 31.5t21.5 23t28.5 -1q34 -14 18 -53q-6 -17 -20 -22.5t-29 2.5zM670 1178q-14 5 -19.5 19.5t0.5 31.5t20 22.5t29 -0.5q31 -14 19 -53q-6 -17 -20 -22.5t-29 2.5zM961 451h-801v-19q0 -190 112.5 -307t284.5 -117q225 0 350 209l8 2
l35 -22q-61 -114 -164.5 -175t-232.5 -61q-198 0 -321 133.5t-123 349.5q0 215 121.5 349.5t312.5 134.5q190 0 305 -124.5t115 -330.5q0 -12 -2 -22zM543 881q-158 0 -264.5 -106.5t-116.5 -278.5h747q-4 178 -103.5 281.5t-262.5 103.5z" />
    <glyph glyph-name="uni0453" unicode="&#x453;" horiz-adv-x="829" 
d="M403 1094h-45l250 376h51l7 -8zM391 -39q-123 0 -210 67t-87 162q0 96 59.5 154.5t215.5 120.5q176 71 231 119t55 127q0 70 -62 120t-157 50q-94 0 -162.5 -44t-101.5 -120l-8 -2l-37 22q38 90 119 140.5t196 50.5q113 0 189 -62t76 -149q0 -101 -64.5 -161.5
t-251.5 -133.5q-141 -54 -193.5 -104t-52.5 -130q0 -75 73 -127.5t175 -52.5q95 0 171 43.5t122 130.5l6 2l39 -24q-47 -94 -136.5 -146.5t-203.5 -52.5z" />
    <glyph glyph-name="uni045C" unicode="&#x45c;" horiz-adv-x="937" 
d="M469 1565h-49l196 274h56l6 -8zM903 0h-63l-398 520l-198 -188v-332h-49v1501h49v-563v-549q51 50 153.5 149.5t153.5 149.5l209 201h67l-352 -336z" />
    <glyph glyph-name="uni045D" unicode="&#x45d;" horiz-adv-x="1142" 
d="M432 1470l250 -376h-45l-260 368l4 8h51zM948 889v-889h-49v240q-55 -131 -157 -205t-220 -74q-159 0 -243 100t-84 297v531h49v-496q0 -199 72.5 -292t220.5 -93q138 0 250 120t112 275v486h49z" />
    <glyph glyph-name="Wgrave" unicode="&#x1e80;" horiz-adv-x="1974" 
d="M1104 1565h-49l-207 266l4 8h55zM565 -29h-45l-471 1479h60l256 -815q1 -2 176 -537h8l172 537l252 801h28l254 -801q129 -403 170 -537h9q30 95 90 275t86 262l256 815h59l-471 -1479h-41l-287 895q-10 33 -135 418h-8q-125 -385 -135 -418z" />
    <glyph glyph-name="wgrave" unicode="&#x1e81;" horiz-adv-x="1390" 
d="M557 1470l250 -376h-45l-260 368l4 8h51zM432 -33h-45l-319 922h55l287 -844h4l270 832h27l266 -832h4l287 844h55l-319 -922h-43l-263 807h-4z" />
    <glyph glyph-name="Wacute" unicode="&#x1e82;" horiz-adv-x="1974" 
d="M920 1565h-50l197 274h55l6 -8zM565 -29h-45l-471 1479h60l256 -815q1 -2 176 -537h8l172 537l252 801h28l254 -801q129 -403 170 -537h9q30 95 90 275t86 262l256 815h59l-471 -1479h-41l-287 895q-10 33 -135 418h-8q-125 -385 -135 -418z" />
    <glyph glyph-name="wacute" unicode="&#x1e83;" horiz-adv-x="1390" 
d="M625 1094h-45l249 376h52l6 -8zM432 -33h-45l-319 922h55l287 -844h4l270 832h27l266 -832h4l287 844h55l-319 -922h-43l-263 807h-4z" />
    <glyph glyph-name="Wdieresis" unicode="&#x1e84;" horiz-adv-x="1974" 
d="M823 1657q-15 4 -20.5 20t0.5 33t21 24t30 1q32 -18 20 -56q-6 -17 -21 -23.5t-30 1.5zM1118 1657q-14 5 -20 20.5t0 32.5t21 24t30 1q32 -18 20 -56q-6 -17 -21 -23.5t-30 1.5zM565 -29h-45l-471 1479h60l256 -815q1 -2 176 -537h8l172 537l252 801h28l254 -801
q129 -403 170 -537h9q30 95 90 275t86 262l256 815h59l-471 -1479h-41l-287 895q-10 33 -135 418h-8q-125 -385 -135 -418z" />
    <glyph glyph-name="wdieresis" unicode="&#x1e85;" horiz-adv-x="1390" 
d="M535 1178q-14 5 -19.5 19.5t0.5 31.5t21 23t28 -1q35 -14 19 -53q-6 -17 -20 -22.5t-29 2.5zM825 1178q-14 5 -19 19.5t1 31.5t20 22.5t29 -0.5q31 -14 18 -53q-6 -17 -20 -22.5t-29 2.5zM432 -33h-45l-319 922h55l287 -844h4l270 832h27l266 -832h4l287 844h55
l-319 -922h-43l-263 807h-4z" />
    <glyph glyph-name="uni1E9E" unicode="&#x1e9e;" horiz-adv-x="1447" 
d="M1204 1407l-364 -606q243 0 369 -107t126 -309q0 -190 -110.5 -307t-288.5 -117q-288 0 -444 313l40 29l13 -4q141 -287 397 -287q143 0 239.5 103.5t96.5 263.5q0 371 -447 371h-69v24l377 623h-832v-1397h-53v1450h950v-43z" />
    <glyph glyph-name="Ygrave" unicode="&#x1ef2;" horiz-adv-x="1122" 
d="M678 1565h-49l-207 266l4 8h55zM590 0h-55v610l-508 840h59l256 -430q92 -156 217 -354h6q25 41 99.5 163.5t113.5 188.5l256 432h62l-506 -840v-610z" />
    <glyph glyph-name="ygrave" unicode="&#x1ef3;" horiz-adv-x="921" 
d="M348 1470l250 -376h-45l-260 368l4 8h51zM279 -446h-58l221 464l-381 871h58l348 -809h4l365 809h57z" />
    <glyph glyph-name="uni2000" unicode="&#x2000;" horiz-adv-x="1024" 
 />
    <glyph glyph-name="uni2001" unicode="&#x2001;" horiz-adv-x="2048" 
 />
    <glyph glyph-name="uni2002" unicode="&#x2002;" horiz-adv-x="1024" 
 />
    <glyph glyph-name="uni2003" unicode="&#x2003;" horiz-adv-x="2048" 
 />
    <glyph glyph-name="uni2004" unicode="&#x2004;" horiz-adv-x="681" 
 />
    <glyph glyph-name="uni2005" unicode="&#x2005;" horiz-adv-x="512" 
 />
    <glyph glyph-name="uni2006" unicode="&#x2006;" horiz-adv-x="342" 
 />
    <glyph glyph-name="uni2007" unicode="&#x2007;" horiz-adv-x="1433" 
 />
    <glyph glyph-name="uni2008" unicode="&#x2008;" horiz-adv-x="477" 
 />
    <glyph glyph-name="uni2009" unicode="&#x2009;" horiz-adv-x="409" 
 />
    <glyph glyph-name="uni200A" unicode="&#x200a;" horiz-adv-x="286" 
 />
    <glyph glyph-name="uni200B" unicode="&#x200b;" 
 />
    <glyph glyph-name="uni200C" unicode="&#x200c;" 
d="M-297 1546l223 221l51 -49l-178 -172l178 -168l-51 -51zM201 1546l-178 172l51 49l223 -221l-223 -219l-51 51zM-39 1247h74v-1605h-74v1605z" />
    <glyph glyph-name="uni200D" unicode="&#x200d;" 
d="M-276 1718l51 49l223 -221l-223 -219l-51 51l178 168zM225 1767l51 -49l-178 -172l178 -168l-51 -51l-223 219zM-39 1247h74v-1605h-74v1605z" />
    <glyph glyph-name="endash" unicode="&#x2013;" horiz-adv-x="1024" 
d="M963 453h-902v51h902v-51z" />
    <glyph glyph-name="emdash" unicode="&#x2014;" horiz-adv-x="1576" 
d="M1516 453h-1455v51h1455v-51z" />
    <glyph glyph-name="quoteleft" unicode="&#x2018;" horiz-adv-x="460" 
d="M150 1014l184 475l39 -14l-168 -476l-8 -2z" />
    <glyph glyph-name="quoteright" unicode="&#x2019;" horiz-adv-x="460" 
d="M311 1473l-184 -476l-39 15l170 475l8 2z" />
    <glyph glyph-name="quotesinglbase" unicode="&#x201a;" horiz-adv-x="460" 
d="M311 176l-184 -475l-39 14l170 475l8 3z" />
    <glyph glyph-name="quotedblleft" unicode="&#x201c;" horiz-adv-x="788" 
d="M168 1014l184 475l39 -14l-170 -476l-8 -2zM477 1014l185 475l36 -14l-168 -476l-8 -2z" />
    <glyph glyph-name="quotedblright" unicode="&#x201d;" horiz-adv-x="770" 
d="M311 1473l-184 -476l-39 15l170 475l8 2zM621 1473l-185 -476l-39 15l170 475l8 2z" />
    <glyph glyph-name="quotedblbase" unicode="&#x201e;" horiz-adv-x="770" 
d="M311 176l-184 -475l-39 14l170 475l8 3zM621 176l-185 -475l-39 14l170 475l8 3z" />
    <glyph glyph-name="dagger" unicode="&#x2020;" horiz-adv-x="1089" 
d="M573 -446h-53v1280h-403v53h403v563h53v-563h398v-53h-398v-1280z" />
    <glyph glyph-name="daggerdbl" unicode="&#x2021;" horiz-adv-x="1089" 
d="M573 -446h-53v485h-399v51h399v823h-399v54h399v483h53v-483h396v-54h-396v-823h396v-51h-396v-485z" />
    <glyph glyph-name="bullet" unicode="&#x2022;" horiz-adv-x="1208" 
d="M604 453q-130 0 -219.5 90t-89.5 219t89.5 219t219.5 90t219.5 -90t89.5 -219t-89.5 -219t-219.5 -90z" />
    <glyph glyph-name="ellipsis" unicode="&#x2026;" horiz-adv-x="1646" 
d="M238 -18q-21 0 -35.5 14.5t-14.5 38.5q0 23 14.5 38t35.5 15q22 0 36.5 -15t14.5 -38q0 -24 -14.5 -38.5t-36.5 -14.5zM823 -18q-21 0 -35 14.5t-14 38.5q0 23 14 38t35 15q22 0 36.5 -15t14.5 -38q0 -24 -14.5 -38.5t-36.5 -14.5zM1407 -18q-21 0 -35 14.5t-14 38.5
q0 23 14 38t35 15q22 0 36.5 -15t14.5 -38q0 -24 -14.5 -38.5t-36.5 -14.5z" />
    <glyph glyph-name="uni202F" unicode="&#x202f;" horiz-adv-x="409" 
 />
    <glyph glyph-name="perthousand" unicode="&#x2030;" horiz-adv-x="2613" 
d="M498 823q-134 0 -227 94.5t-93 233.5q0 138 93 233t227 95q135 0 227 -95t92 -233q0 -139 -92 -233.5t-227 -94.5zM514 0h-61l852 1450h61zM498 872q113 0 190.5 80.5t77.5 198.5q0 117 -78 198t-190 81q-111 0 -189 -81t-78 -198q0 -118 78 -198.5t189 -80.5zM1317 -29
q-135 0 -227.5 95t-92.5 233q0 139 92.5 233.5t227.5 94.5t227 -94.5t92 -233.5q0 -138 -92 -233t-227 -95zM2116 -29q-135 0 -227.5 95t-92.5 233q0 139 92.5 233.5t227.5 94.5t227 -94.5t92 -233.5q0 -138 -92 -233t-227 -95zM1317 20q111 0 188.5 81t77.5 198
q0 118 -77.5 198.5t-188.5 80.5t-189.5 -80.5t-78.5 -198.5q0 -116 78.5 -197.5t189.5 -81.5zM2116 20q111 0 189.5 81.5t78.5 197.5q0 118 -78.5 198.5t-189.5 80.5t-190 -80.5t-79 -198.5q0 -116 79 -197.5t190 -81.5z" />
    <glyph glyph-name="minute" unicode="&#x2032;" horiz-adv-x="428" 
d="M188 1077h-41l76 469h58z" />
    <glyph glyph-name="second" unicode="&#x2033;" horiz-adv-x="722" 
d="M188 1077h-41l76 469h58zM485 1077h-43l76 469h57z" />
    <glyph glyph-name="guilsinglleft" unicode="&#x2039;" horiz-adv-x="567" 
d="M408 125l-31 -19l-240 351l240 350l31 -19l2 -6l-217 -325l217 -326z" />
    <glyph glyph-name="guilsinglright" unicode="&#x203a;" horiz-adv-x="567" 
d="M430 457l-242 -351l-28 19l-2 6l217 326l-217 325l2 6l28 19z" />
    <glyph glyph-name="fraction" unicode="&#x2044;" horiz-adv-x="278" 
d="M535 1546h59l-848 -1620h-61z" />
    <glyph glyph-name="uni2070" unicode="&#x2070;" horiz-adv-x="743" 
d="M371 903q-135 0 -213 121t-78 328q0 209 78 329.5t213 120.5q136 0 214.5 -120.5t78.5 -329.5q0 -208 -78.5 -328.5t-214.5 -120.5zM371 950q112 0 176.5 108t64.5 296q0 187 -65 294t-176 107t-175.5 -107.5t-64.5 -295.5q0 -186 65 -294t175 -108z" />
    <glyph glyph-name="uni2074" unicode="&#x2074;" horiz-adv-x="743" 
d="M559 942h-49v205h-451v20l473 643h27v-616h100v-47h-100v-205zM434 1597l-297 -403h373v336q0 121 6 182h-2q-26 -39 -80 -115z" />
    <glyph glyph-name="uni2075" unicode="&#x2075;" horiz-adv-x="743" 
d="M358 903q-114 0 -186 62t-84 168l43 6l8 -6q10 -86 69.5 -134.5t153.5 -48.5q100 0 163 66.5t63 173.5q0 101 -62.5 164t-163.5 63q-113 0 -208 -74l-13 5l29 432h408v-47h-365l-20 -328q82 53 184 53q117 0 189.5 -73.5t72.5 -192.5q0 -128 -77.5 -208.5t-203.5 -80.5z
" />
    <glyph glyph-name="uni2076" unicode="&#x2076;" horiz-adv-x="743" 
d="M356 903q-122 0 -196 77.5t-74 207.5q0 69 30.5 131.5t98.5 159.5l225 329l39 -22l4 -8l-202 -287q-10 -14 -93 -121l2 -2q33 39 83 61.5t106 22.5q111 0 180.5 -74t69.5 -194q0 -126 -75.5 -203.5t-197.5 -77.5zM356 950q99 0 160.5 64.5t61.5 167.5q0 101 -59.5 163
t-156.5 62q-98 0 -161.5 -63.5t-63.5 -163.5q0 -102 61.5 -166t157.5 -64z" />
    <glyph glyph-name="uni2077" unicode="&#x2077;" horiz-adv-x="743" 
d="M199 920l379 813h-459v47h530v-11l-403 -864l-10 -2z" />
    <glyph glyph-name="uni2078" unicode="&#x2078;" horiz-adv-x="743" 
d="M371 903q-126 0 -199.5 67t-73.5 181q0 88 48 147t137 82q-75 22 -114.5 74t-39.5 129q0 97 67.5 158t174.5 61q108 0 174.5 -61t66.5 -158q0 -155 -151 -203q88 -23 135 -82t47 -147q0 -115 -72.5 -181.5t-199.5 -66.5zM371 1403q86 0 138 48t52 128t-52.5 130
t-137.5 50q-84 0 -137.5 -50.5t-53.5 -129.5t53 -127.5t138 -48.5zM371 948q102 0 161.5 56t59.5 151q0 92 -60.5 147.5t-160.5 55.5t-160.5 -55.5t-60.5 -147.5q0 -95 60 -151t161 -56z" />
    <glyph glyph-name="uni2079" unicode="&#x2079;" horiz-adv-x="743" 
d="M510 1227l-227 -326l-37 23l-2 8l196 285q12 17 42 52.5t53 65.5l-3 2q-32 -38 -82 -60t-104 -22q-111 0 -182.5 74.5t-71.5 192.5q0 126 76.5 203t202.5 77q119 0 191.5 -75t72.5 -199q0 -55 -19.5 -111t-40.5 -90.5t-65 -99.5zM358 1298q98 0 162 65t64 165
q0 101 -61 165t-156 64q-98 0 -161 -65t-63 -168q0 -101 59.5 -163.5t155.5 -62.5z" />
    <glyph glyph-name="uni2080" unicode="&#x2080;" horiz-adv-x="743" 
d="M371 -326q-135 0 -213 121t-78 328q0 209 78 329.5t213 120.5q136 0 214.5 -120.5t78.5 -329.5q0 -208 -78.5 -328.5t-214.5 -120.5zM371 -279q112 0 176.5 108t64.5 296q0 187 -65 294t-176 107t-175.5 -107.5t-64.5 -295.5q0 -186 65 -294t175 -108z" />
    <glyph glyph-name="uni2081" unicode="&#x2081;" horiz-adv-x="743" 
d="M426 -287h-51v682q0 84 2 117l-2 2l-56 -37l-137 -78l-6 4l4 50l234 129h12v-869z" />
    <glyph glyph-name="uni2082" unicode="&#x2082;" horiz-adv-x="743" 
d="M614 -287h-522v11l262 268q118 124 167.5 200.5t49.5 157.5q0 76 -53 126.5t-141 49.5q-88 -2 -146.5 -55t-78.5 -154l-13 -4l-37 6q20 122 94 188t189 66q105 0 172.5 -62.5t67.5 -158.5q0 -85 -49.5 -167t-157.5 -195l-103 -109q-38 -40 -127 -121l2 -2q53 2 156 2h268
v-47z" />
    <glyph glyph-name="uni2083" unicode="&#x2083;" horiz-adv-x="743" 
d="M365 -326q-119 0 -194 65t-87 179l39 6l12 -4q9 -90 70.5 -144.5t154.5 -54.5q95 0 154 56t59 145q0 95 -60 147t-173 52h-33v43h29q109 0 168 49.5t59 138.5q0 76 -53 125t-137 49q-88 0 -146 -47.5t-73 -134.5l-13 -6l-37 6q13 104 87.5 166.5t183.5 62.5
q105 0 172 -60.5t67 -156.5q0 -82 -46.5 -139.5t-133.5 -75.5q89 -12 140 -70.5t51 -146.5q0 -107 -74 -178.5t-186 -71.5z" />
    <glyph glyph-name="uni2084" unicode="&#x2084;" horiz-adv-x="743" 
d="M559 -287h-49v205h-451v21l473 643h27v-617h100v-47h-100v-205zM434 369l-297 -404h373v336q0 121 6 182h-2q-17 -26 -80 -114z" />
    <glyph glyph-name="uni2085" unicode="&#x2085;" horiz-adv-x="743" 
d="M358 -326q-114 0 -186 62t-84 168l43 6l8 -6q10 -86 69.5 -134.5t153.5 -48.5q100 0 163 66.5t63 173.5q0 101 -62.5 164t-163.5 63q-114 0 -208 -73l-13 4l29 432h408v-47h-365l-20 -328q82 53 184 53q117 0 189.5 -73.5t72.5 -192.5q0 -128 -77.5 -208.5t-203.5 -80.5z
" />
    <glyph glyph-name="uni2086" unicode="&#x2086;" horiz-adv-x="743" 
d="M356 -326q-122 0 -196 77.5t-74 207.5q0 69 30.5 131.5t98.5 159.5l225 330l39 -23l4 -8l-202 -287q-10 -14 -93 -121l2 -2q33 39 83 61.5t106 22.5q111 0 180.5 -74t69.5 -194q0 -126 -75.5 -203.5t-197.5 -77.5zM356 -279q99 0 160.5 64.5t61.5 167.5q0 101 -59.5 163
t-156.5 62q-98 0 -161.5 -63.5t-63.5 -163.5q0 -102 61.5 -166t157.5 -64z" />
    <glyph glyph-name="uni2087" unicode="&#x2087;" horiz-adv-x="743" 
d="M199 -309l379 813h-459v47h530v-10l-403 -865l-10 -2z" />
    <glyph glyph-name="uni2088" unicode="&#x2088;" horiz-adv-x="743" 
d="M371 -326q-126 0 -199.5 67t-73.5 181q0 88 48 147.5t137 82.5q-75 22 -114.5 73.5t-39.5 128.5q0 97 67.5 158t174.5 61q108 0 174.5 -61t66.5 -158q0 -154 -151 -202q88 -23 135 -82.5t47 -147.5q0 -115 -72.5 -181.5t-199.5 -66.5zM371 174q86 0 138 48t52 128
t-52.5 130t-137.5 50q-84 0 -137.5 -50.5t-53.5 -129.5t53 -127.5t138 -48.5zM371 -281q102 0 161.5 56t59.5 151q0 92 -60.5 147.5t-160.5 55.5t-160.5 -55.5t-60.5 -147.5q0 -95 60 -151t161 -56z" />
    <glyph glyph-name="uni2089" unicode="&#x2089;" horiz-adv-x="743" 
d="M510 -2l-227 -326l-37 23l-2 8l196 285q12 17 42 52.5t53 65.5l-3 3q-32 -38 -82 -60t-104 -22q-111 0 -182.5 74t-71.5 192q0 126 76.5 203t202.5 77q119 0 191.5 -75t72.5 -199q0 -55 -19.5 -111t-40.5 -90.5t-65 -99.5zM358 70q98 0 162 64.5t64 164.5q0 101 -61 165
t-156 64q-98 0 -161 -65t-63 -168q0 -101 59.5 -163t155.5 -62z" />
    <glyph glyph-name="lira" unicode="&#x20a4;" horiz-adv-x="1433" 
d="M485 55h666l-8 -55h-858v55h145q76 126 76 299v164h-199v49h199v207h-199v49h199v224q0 212 94 327t262 115q166 0 271 -100l-29 -43l-8 2q-93 90 -236 90q-141 0 -220 -104t-79 -296v-215h352v-49h-352v-207h352v-49h-352v-139q0 -199 -76 -324z" />
    <glyph glyph-name="Euro" unicode="&#x20ac;" horiz-adv-x="1433" 
d="M1280 240l10 2l39 -29q-102 -128 -213 -190t-254 -62q-230 0 -384.5 158t-196.5 420h-177l17 49h153q-8 60 -8 137q0 79 8 139h-145l16 49h138q44 259 200.5 417.5t388.5 158.5q142 0 259.5 -65t189.5 -177l-39 -28l-12 2q-60 94 -165.5 154.5t-232.5 60.5
q-207 0 -348.5 -144t-183.5 -379h670l-17 -49h-661q-8 -60 -8 -139q0 -77 8 -137h592l-19 -49h-565q41 -235 180 -380t340 -145q237 0 420 226z" />
    <glyph glyph-name="uni2113" unicode="&#x2113;" horiz-adv-x="1024" 
d="M752 86l6 2l24 -39q-102 -88 -219 -88q-111 0 -171 63.5t-60 182.5v264l-86 -74l-27 39l113 96v601q0 170 57.5 263t161.5 93q94 0 148.5 -69t54.5 -193q0 -193 -94 -374t-273 -335v-301q0 -205 182 -205q97 0 183 74zM549 1438q-76 0 -119 -78.5t-43 -218.5v-561
q150 134 229.5 299.5t79.5 339.5q0 104 -39 161.5t-108 57.5z" />
    <glyph glyph-name="uni2116" unicode="&#x2116;" horiz-adv-x="2150" 
d="M1808 891q-122 0 -202 83t-80 204q0 120 79.5 201t202.5 81t204 -81t81 -201q0 -121 -81.5 -204t-203.5 -83zM1292 -29h-10l-711 1024q-45 66 -132 190.5t-126 180.5h-6v-367v-999h-53v1450h65l658 -950l256 -369h6v361v958h53v-1479zM1810 934q100 0 169 70.5t69 173.5
q0 102 -68 171.5t-170 69.5q-101 0 -169 -69.5t-68 -171.5t69 -173t168 -71zM2083 584h-545v49h545v-49z" />
    <glyph glyph-name="uni2117" unicode="&#x2117;" horiz-adv-x="2043" 
d="M1022 -37q-158 0 -299.5 59.5t-243.5 160.5t-161.5 242t-59.5 298q0 158 59.5 299.5t161.5 243.5t243.5 161.5t299.5 59.5t299.5 -59.5t243.5 -161.5t161.5 -243.5t59.5 -299.5q0 -157 -59.5 -298t-161.5 -242t-243.5 -160.5t-299.5 -59.5zM1022 12q196 0 360 94.5
t258.5 258t94.5 358.5q0 196 -94.5 360.5t-258.5 259.5t-360 95t-360 -95t-258.5 -259.5t-94.5 -360.5q0 -195 94.5 -358.5t258.5 -258t360 -94.5zM877 287h-52v852h209q142 0 217.5 -64t75.5 -188q0 -118 -76.5 -186t-214.5 -68h-159v-346zM877 1090v-408h145q130 0 192 51
t62 154q0 203 -248 203h-151z" />
    <glyph glyph-name="trademark" unicode="&#x2122;" horiz-adv-x="2011" 
d="M524 606h-49v795h-293v49h637v-49h-295v-795zM1071 606h-51v844h78l325 -659h2l326 659h78v-844h-49v787h-4l-349 -697h-8l-344 697h-4v-787z" />
    <glyph glyph-name="uni2126" unicode="&#x2126;" horiz-adv-x="1785" 
d="M1653 741q0 -233 -117.5 -420t-290.5 -266h342v-55h-532v51q75 0 153 34.5t147 98.5t123 148t85.5 190.5t31.5 218.5q0 143 -51.5 270t-142 221t-223 149t-285.5 55q-204 0 -366 -94t-249.5 -252t-87.5 -349q0 -139 49 -268.5t126 -220.5t174.5 -146t191.5 -55v-51h-532
v55h342q-173 79 -290.5 266t-117.5 420q0 154 54.5 290.5t152 238t241 160.5t312.5 59q170 0 313.5 -59t240.5 -160.5t151.5 -238t54.5 -290.5z" />
    <glyph glyph-name="estimated" unicode="&#x212e;" horiz-adv-x="1478" 
d="M1337 530h-917v-266q0 -51 50 -102t128.5 -83t155.5 -32q118 0 222 49.5t171 143.5l16 6l70 -51q-68 -104 -198 -163t-283 -59q-116 0 -226.5 43t-195.5 118.5t-137 187t-52 239.5q0 263 171 424.5t442 161.5q131 0 241.5 -43.5t185 -118.5t116.5 -176.5t42 -216.5
q0 -42 -2 -62zM420 604h649v252q-7 82 -98.5 150.5t-227.5 68.5q-138 0 -228 -69.5t-95 -149.5v-252z" />
    <glyph glyph-name="oneeighth" unicode="&#x215b;" horiz-adv-x="1726" 
d="M1149 1546h59l-848 -1620h-61zM395 612h-51v682q0 84 4 117l-4 2q-2 -1 -23 -16t-32 -21l-137 -78l-5 5l3 49l233 129h12v-869zM1272 -39q-126 0 -199.5 67t-73.5 181q0 87 47.5 146.5t135.5 82.5q-74 22 -113 74.5t-39 128.5q0 97 67.5 158t174.5 61q108 0 174.5 -61
t66.5 -158q0 -155 -151 -203q87 -23 134.5 -82.5t47.5 -146.5q0 -115 -72.5 -181.5t-199.5 -66.5zM1272 461q85 0 136.5 48.5t51.5 127.5q0 80 -52.5 130t-135.5 50q-85 0 -139 -50.5t-54 -129.5t53.5 -127.5t139.5 -48.5zM1272 6q101 0 161 56t60 151q0 92 -60.5 147.5
t-160.5 55.5t-160.5 -55.5t-60.5 -147.5q0 -95 60 -151t161 -56z" />
    <glyph glyph-name="threeeighths" unicode="&#x215c;" horiz-adv-x="1726" 
d="M1251 1546h58l-848 -1620h-60zM360 575q-119 0 -193.5 65t-86.5 179l39 6l12 -4q9 -90 70.5 -144t156.5 -54q94 0 152.5 55.5t58.5 144.5q0 95 -60 147t-173 52h-33v43h29q109 0 168 49.5t59 138.5q0 76 -53 125t-137 49q-88 0 -146 -47.5t-73 -134.5l-11 -6l-39 6
q14 104 88.5 167t184.5 63q103 0 170 -61t67 -157q0 -81 -46 -139t-132 -76q88 -12 138.5 -70.5t50.5 -146.5q0 -107 -74.5 -178.5t-186.5 -71.5zM1354 -39q-125 0 -198 67t-73 181q0 88 47 147t136 82q-75 22 -113.5 74t-38.5 129q0 97 67 158t173 61q108 0 174.5 -61
t66.5 -158q0 -156 -151 -203q88 -23 135 -82t47 -147q0 -115 -72.5 -181.5t-199.5 -66.5zM1354 461q86 0 138 48t52 128t-52.5 130t-137.5 50q-84 0 -137.5 -50.5t-53.5 -129.5t53 -127.5t138 -48.5zM1354 6q103 0 163 56t60 151q0 92 -61 147.5t-162 55.5
q-100 0 -159.5 -55.5t-59.5 -147.5q0 -95 59 -151t160 -56z" />
    <glyph glyph-name="fiveeighths" unicode="&#x215d;" horiz-adv-x="1726" 
d="M1253 1546h58l-848 -1620h-60zM350 573q-114 0 -186 62t-84 168l43 6l8 -6q10 -86 69.5 -134t153.5 -48q100 0 164 66t64 173q0 101 -63 164t-163 63q-117 0 -211 -73l-12 4l29 432h407v-47h-364l-21 -328q82 53 185 53q117 0 190.5 -74t73.5 -192q0 -128 -78.5 -208.5
t-204.5 -80.5zM1356 -39q-126 0 -199.5 67t-73.5 181q0 87 47.5 146.5t135.5 82.5q-75 22 -113.5 74t-38.5 129q0 97 67.5 158t174.5 61t174 -61t67 -158q0 -156 -153 -203q88 -23 136 -82.5t48 -146.5q0 -114 -73 -181t-199 -67zM1356 461q85 0 136.5 48.5t51.5 127.5
q0 80 -52.5 130t-135.5 50q-85 0 -139 -50.5t-54 -129.5t53.5 -127.5t139.5 -48.5zM1356 6q101 0 161 56t60 151q0 92 -60.5 147.5t-160.5 55.5q-101 0 -161 -55.5t-60 -147.5q0 -95 60 -151t161 -56z" />
    <glyph glyph-name="seveneighths" unicode="&#x215e;" horiz-adv-x="1726" 
d="M1126 1546h58l-848 -1620h-60zM207 590l379 813h-459v47h528v-10l-401 -865l-10 -2zM1247 -39q-126 0 -199 67t-73 181q0 88 47 147t135 82q-151 44 -151 203q0 97 67 158t174 61t174.5 -61t67.5 -158q0 -155 -152 -203q87 -23 135 -82.5t48 -146.5q0 -114 -73.5 -181
t-199.5 -67zM1247 461q85 0 137 48.5t52 127.5t-53 129.5t-136 50.5q-85 0 -138.5 -50.5t-53.5 -129.5t53 -127.5t139 -48.5zM1247 6q101 0 161 56t60 151q0 92 -60.5 147.5t-160.5 55.5t-160.5 -55.5t-60.5 -147.5q0 -95 60 -151t161 -56z" />
    <glyph glyph-name="arrowleft" unicode="&#x2190;" horiz-adv-x="1873" 
d="M844 74l-35 -35l-647 670l647 669l35 -35v-4l-449 -462q-20 -19 -68.5 -67.5t-74.5 -72.5l2 -2h250h1210v-53h-1210l-250 2l-2 -2q47 -45 143 -141l449 -463v-4z" />
    <glyph glyph-name="arrowup" unicode="&#x2191;" horiz-adv-x="1742" 
d="M872 1489l670 -647l-37 -37h-4l-463 450q-26 26 -139 144l-2 -2v-250v-1210h-51v1210v250l-2 2q-112 -118 -139 -144l-463 -450h-4l-35 37z" />
    <glyph glyph-name="arrowright" unicode="&#x2192;" horiz-adv-x="1873" 
d="M1714 709l-649 -670l-35 35v4l451 463l141 141l-2 2l-250 -2h-1208v53h1208h250l2 2q-23 21 -141 140l-451 462v4l35 35z" />
    <glyph glyph-name="arrowdown" unicode="&#x2193;" horiz-adv-x="1742" 
d="M1505 621l37 -37l-670 -647l-669 647l35 37h4l463 -451q49 -49 139 -143l2 2v250v1210h51v-1210v-250l2 -2q90 94 139 143l463 451h4z" />
    <glyph glyph-name="arrowboth" unicode="&#x2194;" horiz-adv-x="2707" 
d="M1864 1343l34 35l650 -669l-650 -670l-34 35v4l450 463q30 31 81 81t61 60l-2 2q-41 0 -124.5 -1t-125.5 -1h-1700q-42 0 -125.5 1t-124.5 1l-2 -2q47 -45 143 -141l449 -463v-4l-35 -35l-647 670l647 669l35 -35v-4l-449 -462q-20 -19 -68.5 -67.5t-74.5 -72.5l2 -2h250
h1700h250l2 2q-45 43 -142 140l-450 462v4z" />
    <glyph glyph-name="arrowupdn" unicode="&#x2195;" horiz-adv-x="1742" 
d="M238 1219l-35 36l669 648l670 -648l-37 -36h-4l-463 450q-49 49 -139 143l-2 -2v-249v-1702v-252l2 -2q68 74 139 145l463 451h4l37 -37l-670 -649l-669 649l35 37h4l463 -451q49 -49 139 -143l2 2v250v1702v249l-2 2q-90 -94 -139 -143l-463 -450h-4z" />
    <glyph glyph-name="uni2196" unicode="&#x2196;" horiz-adv-x="1515" 
d="M272 330h-49l15 932l931 14v-49l-2 -2l-645 -11q-23 -1 -200 5v-5q61 -63 178 -176l854 -856l-37 -37l-856 854l-174 181h-4q4 -131 2 -203l-11 -645z" />
    <glyph glyph-name="uni2197" unicode="&#x2197;" horiz-adv-x="1515" 
d="M1278 1262l14 -932h-49l-4 2l-8 645q-2 72 2 203h-4q-118 -123 -176 -181l-854 -854l-37 37l854 856q51 49 178 176v5q-178 -6 -201 -5l-645 11l-2 2v49z" />
    <glyph glyph-name="uni2198" unicode="&#x2198;" horiz-adv-x="1515" 
d="M1243 1092h49l-14 -932l-932 -15v50l2 4l645 8q75 2 201 -2v4q-25 24 -89 87t-89 87l-854 856l37 37l854 -854q82 -82 176 -180l4 2q-4 126 -2 200l8 646z" />
    <glyph glyph-name="uni2199" unicode="&#x2199;" horiz-adv-x="1515" 
d="M238 160l-15 932h49l2 -2l11 -646q2 -74 -2 -200l4 -2l174 180l856 854l37 -37l-854 -856q-102 -98 -178 -174v-4q126 4 200 2l645 -8l2 -4v-50z" />
    <glyph glyph-name="partialdiff" unicode="&#x2202;" horiz-adv-x="1433" 
d="M711 1489q223 0 336.5 -240.5t113.5 -695.5q0 -283 -127 -437.5t-338 -154.5q-193 0 -309.5 131.5t-116.5 333.5q0 183 127 310.5t310 127.5q125 0 235.5 -74t171.5 -210q-3 231 -35.5 401.5t-88.5 269t-126 145t-155 46.5q-101 0 -190 -55t-150 -152l-9 -2l-34 24
q65 107 167 169.5t218 62.5zM702 8q86 0 159 32t128 93t86.5 156.5t32.5 216.5q-66 153 -169 231t-224 78q-166 0 -278.5 -114t-112.5 -275q0 -182 103 -300t275 -118z" />
    <glyph glyph-name="emptyset" unicode="&#x2205;" horiz-adv-x="1433" 
d="M1227 1167l35 -32l-166 -166q116 -135 116 -334q0 -223 -139.5 -364.5t-357.5 -141.5q-200 0 -336 123l-172 -172l-35 33l174 174q-127 140 -127 348q0 219 139 359.5t357 140.5q214 0 348 -131zM272 635q0 -184 111 -311l645 645q-125 116 -311 116
q-194 0 -319.5 -126.5t-125.5 -323.5zM1161 635q0 180 -102 297l-643 -643q124 -111 301 -111q193 0 318.5 129.5t125.5 327.5z" />
    <glyph glyph-name="product" unicode="&#x220f;" horiz-adv-x="1380" 
d="M215 -446h-53v1843h-142v53h1340v-53h-141v-1843h-54v1843h-950v-1843z" />
    <glyph glyph-name="summation" unicode="&#x2211;" horiz-adv-x="1181" 
d="M1137 -446h-1076v55l691 897l-662 889v55h1024v-53h-962l669 -891l-696 -899h1012v-53z" />
    <glyph glyph-name="minus" unicode="&#x2212;" horiz-adv-x="1433" 
d="M1223 604h-1012v47h1012v-47z" />
    <glyph glyph-name="uni2215" unicode="&#x2215;" horiz-adv-x="712" 
d="M700 1546h60l-746 -1620h-61z" />
    <glyph glyph-name="uni2219" unicode="&#x2219;" horiz-adv-x="940" 
d="M471 549q-34 0 -55 21.5t-21 56.5q0 36 21 58t55 22q33 0 53.5 -22t20.5 -58q0 -35 -20.5 -56.5t-53.5 -21.5z" />
    <glyph glyph-name="radical" unicode="&#x221a;" horiz-adv-x="1064" 
d="M573 -29h-14l-358 867h-142v51h179l321 -772h4l402 1333h61z" />
    <glyph glyph-name="infinity" unicode="&#x221e;" horiz-adv-x="1273" 
d="M266 350q-108 0 -178 78t-70 199t69.5 198.5t176.5 77.5q78 0 161.5 -55.5t209.5 -190.5q124 133 209 189.5t162 56.5q107 0 176 -77.5t69 -198.5t-69 -199t-176 -78q-155 0 -371 242q-216 -242 -369 -242zM266 395q68 0 143 51.5t195 178.5q-124 131 -197.5 182
t-142.5 51q-84 0 -140 -65.5t-56 -167.5q0 -99 56 -164.5t142 -65.5zM1004 395q86 0 142 65.5t56 164.5q0 102 -55.5 167.5t-140.5 65.5q-69 0 -142.5 -51t-197.5 -182q121 -127 195.5 -178.5t142.5 -51.5z" />
    <glyph glyph-name="integral" unicode="&#x222b;" horiz-adv-x="1433" 
d="M690 72v1065q0 201 57.5 295t170.5 94q63 0 139 -27v-53l-6 -4q-56 33 -131 33q-85 0 -131 -83.5t-46 -283.5v-1061q0 -205 -57 -299t-170 -94q-63 0 -139 27v53l6 4q56 -33 131 -33q41 0 72 18t55 59t36.5 114t12.5 176z" />
    <glyph glyph-name="approxequal" unicode="&#x2248;" horiz-adv-x="1433" 
d="M274 702l-8 -2l-35 27q123 188 269 188q54 0 103 -17.5t86 -42.5t73.5 -50t80 -42.5t89.5 -17.5q122 0 225 166l8 2l35 -26q-122 -187 -268 -187q-52 0 -100 17.5t-85.5 42t-74 49t-81 42t-91.5 17.5q-123 0 -226 -166zM274 334l-8 -2l-35 26q121 189 269 189
q54 0 103 -17.5t86 -42.5t73.5 -50t80 -42.5t89.5 -17.5q122 0 225 166l8 2l35 -25q-121 -188 -268 -188q-51 0 -99 17.5t-85.5 42.5t-74.5 50t-81.5 42.5t-91.5 17.5q-122 0 -226 -168z" />
    <glyph glyph-name="notequal" unicode="&#x2260;" horiz-adv-x="1433" 
d="M1223 844v-49h-406l-155 -342h561v-50h-582l-129 -284h-49l129 284h-381v50h401l156 342h-557v49h580l131 293h49l-131 -293h383z" />
    <glyph glyph-name="lessequal" unicode="&#x2264;" horiz-adv-x="1433" 
d="M223 725l987 463v-55l-940 -437l940 -434v-55l-987 463v55zM1210 0h-987v49h987v-49z" />
    <glyph glyph-name="greaterequal" unicode="&#x2265;" horiz-adv-x="1433" 
d="M223 1133v55l987 -463v-55l-987 -463v55l940 434zM1210 0h-987v49h987v-49z" />
    <glyph glyph-name="lozenge" unicode="&#x25ca;" horiz-adv-x="1433" 
d="M748 -39h-62l-332 764l332 764h62l331 -764zM410 725l307 -719l305 719l-305 719z" />
    <glyph glyph-name="fi" unicode="&#xfb01;" horiz-adv-x="987" 
d="M586 1448l-8 -4q-64 33 -125 33q-89 0 -129 -73t-41 -241l-2 -274h284v-47h-284v-842h-50v842h-184v47h184v272q0 191 53 278t167 87q65 0 141 -29zM768 1251q-22 0 -35.5 14.5t-13.5 39.5q0 23 13.5 37t35.5 14t35.5 -14t13.5 -37q0 -25 -13.5 -39.5t-35.5 -14.5zM793 0
h-50v889h50v-889z" />
    <glyph glyph-name="fl" unicode="&#xfb02;" horiz-adv-x="997" 
d="M586 1448l-8 -4q-64 33 -125 33q-89 0 -129 -73t-41 -241l-2 -274h284v-47h-284v-842h-50v842h-184v47h184v272q0 191 53 278t167 87q65 0 141 -29zM803 0h-49v1501h49v-1501z" />
    <glyph glyph-name="i.loclTRK" horiz-adv-x="438" 
d="M219 1161q-22 0 -35.5 14.5t-13.5 38.5q0 23 13.5 38.5t35.5 15.5t35.5 -15.5t13.5 -38.5q0 -24 -13.5 -38.5t-35.5 -14.5zM244 0h-49v889h49v-889z" />
    <glyph glyph-name="zero.osf" horiz-adv-x="976" 
d="M489 -39q-176 0 -272 138t-96 372t96 372t272 138q174 0 270.5 -138t96.5 -372t-96.5 -372t-270.5 -138zM489 12q142 0 227 123t85 338q0 214 -84.5 334.5t-227.5 120.5t-228 -120.5t-85 -334.5q0 -215 85.5 -338t227.5 -123z" />
    <glyph glyph-name="one.osf" horiz-adv-x="622" 
d="M420 0h-53v692q0 146 2 203l-4 2q-43 -28 -89 -55l-210 -127l-9 4l4 55l347 203h12v-977z" />
    <glyph glyph-name="two.osf" horiz-adv-x="839" 
d="M799 0h-723v16l377 299q139 113 194 198.5t55 184.5q0 101 -68.5 166.5t-176.5 65.5q-132 0 -219.5 -78.5t-118.5 -224.5l-10 -6l-46 6q28 165 133 259.5t261 94.5q133 0 217 -79t84 -204q0 -106 -58 -198t-206 -213l-166 -131q-52 -44 -140 -107l2 -2q92 4 205 4h404
v-51z" />
    <glyph glyph-name="three.osf" horiz-adv-x="899" 
d="M444 -336q-155 0 -265 104t-130 273l43 6l12 -4q17 -147 112 -237.5t224 -90.5q143 0 229.5 86t86.5 222q0 141 -87 220t-247 79h-47v51h43q152 0 234.5 75.5t82.5 208.5q0 116 -78 194.5t-202 78.5q-123 0 -208 -74t-112 -217l-10 -6l-41 6q20 158 121 250t252 92
q147 0 240.5 -91t93.5 -231q0 -124 -70.5 -211t-183.5 -100q119 -11 196.5 -100.5t77.5 -222.5q0 -155 -103.5 -258t-263.5 -103z" />
    <glyph glyph-name="four.osf" horiz-adv-x="860" 
d="M674 -328h-53v328h-654v14l684 963h23v-926h170v-51h-170v-328zM487 659l-428 -608h562v512q0 223 4 291h-4q-83 -123 -134 -195z" />
    <glyph glyph-name="five.osf" horiz-adv-x="837" 
d="M408 -336q-155 0 -259.5 96t-123.5 260l45 7l10 -7q17 -142 106.5 -223.5t225.5 -81.5q144 0 240 105t96 268q0 164 -93 261t-247 97q-74 0 -151.5 -27t-137.5 -75l-17 8l43 590h564v-51h-519l-34 -479q132 84 270 84q164 0 270.5 -112t106.5 -292q0 -185 -112 -306.5
t-283 -121.5z" />
    <glyph glyph-name="six.osf" horiz-adv-x="1001" 
d="M496 -39q-176 0 -287 117t-111 305q0 105 57.5 229.5t198.5 329.5l262 385l39 -22l2 -11l-190 -278q-54 -77 -234 -344l5 -2q50 56 123.5 87t156.5 31q166 0 276.5 -113.5t110.5 -287.5q0 -187 -115 -306.5t-294 -119.5zM506 12q143 0 243.5 105.5t100.5 259.5
q0 165 -95.5 263.5t-254.5 98.5q-152 0 -249 -101.5t-97 -262.5q0 -159 99 -261t253 -102z" />
    <glyph glyph-name="seven.osf" horiz-adv-x="768" 
d="M152 -317l526 1208h-688v51h762v-12l-551 -1264l-11 -2z" />
    <glyph glyph-name="eight.osf" horiz-adv-x="962" 
d="M481 -39q-175 0 -286 104.5t-111 270.5q0 131 71 221t201 125q-110 32 -166.5 110t-56.5 195q0 134 100.5 226t247.5 92q150 0 249 -91t99 -227q0 -117 -57 -195t-166 -110q131 -35 202 -124.5t71 -221.5q0 -165 -110 -270t-288 -105zM481 705q137 0 215 74t78 204
q0 118 -84 195t-209 77t-209 -77t-84 -195q0 -130 78 -204t215 -74zM481 12q151 0 246.5 90t95.5 234q0 146 -92 231.5t-250 85.5q-159 0 -249.5 -85t-90.5 -232q0 -144 95.5 -234t244.5 -90z" />
    <glyph glyph-name="nine.osf" horiz-adv-x="1011" 
d="M649 -6l-225 -334l-39 23l-2 10l154 227q38 55 76.5 112.5t84.5 128.5t72 111l-4 2q-49 -57 -123 -87.5t-158 -30.5q-166 0 -276.5 113.5t-110.5 287.5q0 186 115.5 305t294.5 119q172 0 284.5 -116t112.5 -296q0 -113 -57 -239.5t-199 -335.5zM504 205q152 0 249 101.5
t97 262.5q0 158 -99 259.5t-253 101.5q-143 0 -243.5 -105t-100.5 -258q0 -166 95 -264t255 -98z" />
    <glyph glyph-name="zero.tf" horiz-adv-x="1433" 
d="M717 -39q-226 0 -358 205t-132 559t132 559t358 205t357.5 -205t131.5 -559t-131.5 -559t-357.5 -205zM717 14q200 0 317 192t117 521q0 326 -117.5 517.5t-316.5 191.5t-316.5 -192t-117.5 -521q0 -323 118.5 -516t315.5 -193z" />
    <glyph glyph-name="one.tf" horiz-adv-x="1433" 
d="M831 1477v-1428h306v-49h-684v49h325v1141q0 146 2 205l-4 2q-53 -37 -90 -56l-246 -143l-8 4l4 55l383 220h12z" />
    <glyph glyph-name="two.tf" horiz-adv-x="1433" 
d="M1137 0h-873v12l463 471q195 196 282 337t87 284q0 146 -95.5 240t-252.5 94q-168 -2 -273.5 -97.5t-142.5 -279.5l-13 -6l-40 6q33 205 158.5 316.5t316.5 111.5q175 0 287 -107t112 -276q0 -143 -86 -289t-268 -336l-191 -196q-172 -171 -233 -230l2 -4q94 2 278 2h482
v-53z" />
    <glyph glyph-name="three.tf" horiz-adv-x="1433" 
d="M733 -39q-195 0 -321 110t-148 302l41 6l14 -6q19 -162 130.5 -261.5t279.5 -99.5q169 0 277 103t108 264q0 167 -109.5 259.5t-314.5 92.5h-53v49h49q196 0 302 91t106 251q0 135 -96 225.5t-248 90.5q-158 0 -264 -88.5t-134 -245.5l-12 -6l-43 6q25 175 149.5 280
t309.5 105q170 0 282.5 -102t112.5 -261q0 -141 -81 -240.5t-232 -129.5q154 -22 242.5 -122.5t88.5 -252.5q0 -180 -124.5 -300t-311.5 -120z" />
    <glyph glyph-name="four.tf" horiz-adv-x="1433" 
d="M1020 0h-53v358h-774v17l811 1102h16v-1065h172v-54h-172v-358zM827 1151l-542 -739h682v639q0 197 4 299h-2q-30 -44 -83 -117.5t-59 -81.5z" />
    <glyph glyph-name="five.tf" horiz-adv-x="1433" 
d="M711 -39q-188 0 -311.5 104t-143.5 281l45 8l12 -6q22 -157 129 -246.5t273 -89.5q180 0 293.5 120.5t113.5 311.5q0 180 -110.5 292t-290.5 112q-197 0 -359 -125l-14 4l47 723h680v-53h-631l-38 -596q157 98 327 98q199 0 323 -125t124 -325q0 -215 -130.5 -351.5
t-338.5 -136.5z" />
    <glyph glyph-name="six.tf" horiz-adv-x="1433" 
d="M711 -39q-201 0 -325 130.5t-124 348.5q0 63 13.5 120.5t46 120.5t59.5 106t80 120l403 590l43 -24l2 -11l-374 -538q-51 -73 -140 -193l4 -2q57 72 147 116t191 44q188 0 310 -126.5t122 -326.5q0 -213 -128 -344t-330 -131zM713 12q175 0 287 117.5t112 300.5
t-108.5 295.5t-278.5 112.5q-174 0 -290 -117.5t-116 -292.5q0 -184 111 -300t283 -116z" />
    <glyph glyph-name="seven.tf" horiz-adv-x="1433" 
d="M471 -18l657 1415h-804v53h878v-12l-680 -1475l-12 -2z" />
    <glyph glyph-name="eight.tf" horiz-adv-x="1433" 
d="M717 -39q-207 0 -331 114t-124 306q0 149 81 250t232 141q-127 37 -193.5 125.5t-66.5 220.5q0 164 112.5 267.5t289.5 103.5t289 -103.5t112 -267.5q0 -130 -66 -218t-194 -128q151 -40 232 -141t81 -250q0 -192 -123.5 -306t-330.5 -114zM717 797q154 0 249 87.5
t95 229.5q0 143 -96.5 234.5t-247.5 91.5t-247.5 -91.5t-96.5 -234.5q0 -142 95 -229.5t249 -87.5zM717 14q182 0 289.5 100t107.5 269q0 164 -108.5 263t-288.5 99t-289 -99t-109 -263q0 -169 108 -269t290 -100z" />
    <glyph glyph-name="nine.tf" horiz-adv-x="1433" 
d="M971 543l-398 -582l-43 25l-2 10l369 530q70 100 139 193l-4 2q-58 -73 -148 -116.5t-190 -43.5q-189 0 -310.5 127t-121.5 328q0 211 129 342t334 131q198 0 321 -129t123 -340q0 -46 -6 -88.5t-23.5 -87.5t-29.5 -74t-43 -79.5t-44 -70t-52 -77.5zM707 612
q174 0 289.5 117.5t115.5 292.5q0 184 -109.5 300t-279.5 116q-178 0 -291 -117.5t-113 -300.5t109 -295.5t279 -112.5z" />
    <glyph glyph-name="zero.dnom" horiz-adv-x="743" 
d="M371 -39q-135 0 -213 121t-78 328q0 209 78 329.5t213 120.5q136 0 214.5 -120.5t78.5 -329.5q0 -208 -78.5 -328.5t-214.5 -120.5zM371 8q112 0 176.5 108t64.5 296q0 187 -65 294t-176 107t-175.5 -107.5t-64.5 -295.5q0 -186 65 -294t175 -108z" />
    <glyph glyph-name="one.dnom" horiz-adv-x="743" 
d="M426 0h-51v682q0 84 2 117l-2 2l-56 -37l-137 -78l-6 4l4 49l234 129h12v-868z" />
    <glyph glyph-name="two.dnom" horiz-adv-x="743" 
d="M614 0h-522v10l262 269q118 124 167.5 200.5t49.5 157.5q0 76 -53 126.5t-141 49.5q-88 -2 -146.5 -55t-78.5 -154l-13 -4l-37 6q20 122 94 188t189 66q105 0 172.5 -62.5t67.5 -158.5q0 -85 -49.5 -167.5t-157.5 -195.5l-103 -108q-38 -40 -127 -121l2 -2q53 2 156 2
h268v-47z" />
    <glyph glyph-name="three.dnom" horiz-adv-x="743" 
d="M365 -39q-119 0 -194 65t-87 179l39 6l12 -4q9 -90 70.5 -144.5t154.5 -54.5q95 0 154 56t59 145q0 95 -60 147t-173 52h-33v43h29q109 0 168 49.5t59 138.5q0 76 -53 125t-137 49q-88 0 -146 -47.5t-73 -134.5l-13 -6l-37 6q13 104 87.5 166.5t183.5 62.5
q105 0 172 -60.5t67 -156.5q0 -82 -46.5 -139.5t-133.5 -75.5q89 -12 140 -70.5t51 -146.5q0 -107 -74 -178.5t-186 -71.5z" />
    <glyph glyph-name="four.dnom" horiz-adv-x="743" 
d="M559 0h-49v205h-451v20l473 643h27v-616h100v-47h-100v-205zM434 655l-297 -403h373v336q0 121 6 182h-2q-26 -39 -80 -115z" />
    <glyph glyph-name="five.dnom" horiz-adv-x="743" 
d="M358 -39q-114 0 -186 61.5t-84 167.5l43 7l8 -7q10 -86 69.5 -134t153.5 -48q100 0 163 66.5t63 173.5q0 101 -62.5 164t-163.5 63q-113 0 -208 -74l-13 5l29 432h408v-47h-365l-20 -328q82 53 184 53q117 0 189.5 -73.5t72.5 -192.5q0 -128 -77.5 -208.5t-203.5 -80.5z
" />
    <glyph glyph-name="six.dnom" horiz-adv-x="743" 
d="M356 -39q-122 0 -196 77.5t-74 207.5q0 69 30.5 131.5t98.5 159.5l225 329l39 -22l4 -8l-202 -287q-10 -14 -93 -121l2 -2q33 39 83 61.5t106 22.5q111 0 180.5 -74t69.5 -194q0 -126 -75.5 -203.5t-197.5 -77.5zM356 8q99 0 160.5 64.5t61.5 167.5q0 101 -59.5 163
t-156.5 62q-98 0 -161.5 -63.5t-63.5 -163.5q0 -102 61.5 -166t157.5 -64z" />
    <glyph glyph-name="seven.dnom" horiz-adv-x="743" 
d="M199 -23l379 814h-459v47h530v-11l-403 -864l-10 -2z" />
    <glyph glyph-name="eight.dnom" horiz-adv-x="743" 
d="M371 -39q-126 0 -199.5 67t-73.5 181q0 88 48 147t137 82q-75 22 -114.5 74t-39.5 129q0 97 67.5 158t174.5 61q108 0 174.5 -61t66.5 -158q0 -155 -151 -203q88 -23 135 -82t47 -147q0 -115 -72.5 -181.5t-199.5 -66.5zM371 461q86 0 138 48t52 128t-52.5 130t-137.5 50
q-84 0 -137.5 -50.5t-53.5 -129.5t53 -127.5t138 -48.5zM371 6q102 0 161.5 56t59.5 151q0 92 -60.5 147.5t-160.5 55.5t-160.5 -55.5t-60.5 -147.5q0 -95 60 -151t161 -56z" />
    <glyph glyph-name="nine.dnom" horiz-adv-x="743" 
d="M510 285l-227 -326l-37 23l-2 8l196 284q12 17 42 53.5t53 65.5l-3 2q-32 -38 -82 -60t-104 -22q-111 0 -182.5 74.5t-71.5 192.5q0 126 76.5 203t202.5 77q119 0 191.5 -75t72.5 -199q0 -55 -19.5 -111t-40.5 -90.5t-65 -99.5zM358 356q98 0 162 65t64 165
q0 101 -61 165t-156 64q-98 0 -161 -65t-63 -168q0 -101 59.5 -163.5t155.5 -62.5z" />
    <glyph glyph-name="zero.numr" horiz-adv-x="743" 
d="M371 573q-135 0 -213 121t-78 328q0 209 78 330t213 121q136 0 214.5 -121t78.5 -330q0 -208 -78.5 -328.5t-214.5 -120.5zM371 621q112 0 176.5 107.5t64.5 295.5q0 187 -65 294t-176 107t-175.5 -107.5t-64.5 -295.5q0 -186 64.5 -293.5t175.5 -107.5z" />
    <glyph glyph-name="one.numr" horiz-adv-x="743" 
d="M426 612h-51v682q0 84 2 117l-2 2l-56 -37l-137 -78l-6 5l4 49l234 129h12v-869z" />
    <glyph glyph-name="two.numr" horiz-adv-x="743" 
d="M614 612h-522v11l262 268q118 124 167.5 200.5t49.5 157.5q0 76 -53 126.5t-141 49.5q-89 -2 -147 -55t-78 -153l-13 -5l-37 7q20 122 94 188t189 66q105 0 172.5 -63t67.5 -159q0 -85 -49.5 -167t-157.5 -195l-103 -109q-38 -40 -127 -121l2 -2q53 2 156 2h268v-47z" />
    <glyph glyph-name="three.numr" horiz-adv-x="743" 
d="M365 573q-119 0 -194 65t-87 179l39 6l12 -4q9 -90 70.5 -144t154.5 -54q95 0 154 55.5t59 144.5q0 95 -60 147t-173 52h-33v43h29q109 0 168 49.5t59 138.5q0 76 -53 125t-137 49q-88 0 -146 -47.5t-73 -134.5l-13 -6l-37 6q13 104 87.5 167t183.5 63q105 0 172 -61
t67 -157q0 -82 -46.5 -139.5t-133.5 -75.5q89 -12 140 -70.5t51 -146.5q0 -107 -74 -178.5t-186 -71.5z" />
    <glyph glyph-name="four.numr" horiz-adv-x="743" 
d="M559 612h-49v205h-451v21l473 643h27v-617h100v-47h-100v-205zM434 1268l-297 -404h373v336q0 121 6 182h-2q-17 -26 -80 -114z" />
    <glyph glyph-name="five.numr" horiz-adv-x="743" 
d="M358 573q-114 0 -186 62t-84 168l43 6l8 -6q10 -86 69.5 -134t153.5 -48q100 0 163 66t63 173q0 101 -62.5 164t-163.5 63q-114 0 -208 -73l-13 4l29 432h408v-47h-365l-20 -328q82 53 184 53q117 0 189.5 -73.5t72.5 -192.5q0 -128 -77.5 -208.5t-203.5 -80.5z" />
    <glyph glyph-name="six.numr" horiz-adv-x="743" 
d="M356 573q-122 0 -196 77.5t-74 207.5q0 69 30.5 131.5t98.5 159.5l225 330l39 -23l4 -8l-202 -287q-10 -14 -93 -121l2 -2q33 39 83 61.5t106 22.5q111 0 180.5 -74t69.5 -194q0 -126 -75.5 -203.5t-197.5 -77.5zM356 621q100 0 161 64t61 167q0 101 -59.5 163t-156.5 62
q-98 0 -161.5 -63.5t-63.5 -163.5q0 -102 61.5 -165.5t157.5 -63.5z" />
    <glyph glyph-name="seven.numr" horiz-adv-x="743" 
d="M199 590l379 813h-459v47h530v-10l-403 -865l-10 -2z" />
    <glyph glyph-name="eight.numr" horiz-adv-x="743" 
d="M371 573q-126 0 -199.5 67t-73.5 181q0 88 48 147.5t137 82.5q-75 22 -114.5 73.5t-39.5 128.5q0 97 67.5 158.5t174.5 61.5q108 0 174.5 -61.5t66.5 -158.5q0 -154 -151 -202q88 -23 135 -82.5t47 -147.5q0 -115 -72.5 -181.5t-199.5 -66.5zM371 1073q86 0 138 48
t52 128t-53 130.5t-137 50.5q-83 0 -137 -51t-54 -130t53 -127.5t138 -48.5zM371 618q102 0 161.5 56t59.5 151q0 92 -60.5 147.5t-160.5 55.5t-160.5 -55.5t-60.5 -147.5q0 -95 60 -151t161 -56z" />
    <glyph glyph-name="nine.numr" horiz-adv-x="743" 
d="M510 897l-227 -326l-37 23l-2 8l196 285q12 17 42 53.5t53 65.5l-3 2q-32 -38 -82 -60t-104 -22q-111 0 -182.5 74t-71.5 192q0 126 76.5 203.5t202.5 77.5q119 0 191.5 -75.5t72.5 -199.5q0 -55 -19.5 -111t-40.5 -90.5t-65 -99.5zM358 969q98 0 162 64.5t64 164.5
q0 101 -61 165t-156 64q-98 0 -161 -65t-63 -168q0 -101 59.5 -163t155.5 -62z" />
    <glyph glyph-name="exclamdown.case" horiz-adv-x="665" 
d="M332 1468q22 0 36.5 -14.5t14.5 -38.5q0 -23 -14.5 -38t-36.5 -15q-21 0 -35 15t-14 38q0 24 14 38.5t35 14.5zM307 0l2 1057h47l4 -1057h-53z" />
    <glyph glyph-name="questiondown.case" horiz-adv-x="1032" 
d="M508 1468q22 0 36.5 -14.5t14.5 -38.5q0 -23 -14.5 -38t-36.5 -15q-21 0 -35 15t-14 38q0 24 14 38.5t35 14.5zM489 1057h52l2 -125q0 -87 -34 -155.5t-108 -131.5q-119 -101 -160.5 -176t-41.5 -174q0 -123 82 -203t213 -80q133 0 225 74.5t119 210.5l10 4l43 -8
q-28 -154 -135.5 -243t-261.5 -89q-157 0 -254 91.5t-97 240.5q0 104 39.5 185.5t136.5 162.5q104 86 137 146t33 161v109z" />
    <glyph glyph-name="periodcentered.case" horiz-adv-x="477" 
d="M238 657q-21 0 -35.5 15.5t-14.5 38.5q0 24 14.5 38.5t35.5 14.5q22 0 36.5 -14.5t14.5 -38.5q0 -23 -14.5 -38.5t-36.5 -15.5z" />
    <glyph glyph-name="parenleft.case" horiz-adv-x="587" 
d="M438 -156l-45 -30q-128 183 -201 428t-73 491t73 491.5t201 428.5l45 -31q-118 -164 -191 -409.5t-73 -479.5t73 -479.5t191 -409.5z" />
    <glyph glyph-name="parenright.case" horiz-adv-x="595" 
d="M195 -186l-45 30q118 164 191 409.5t73 479.5t-73 479.5t-191 409.5l45 31q127 -183 199.5 -428t72.5 -492q0 -246 -72.5 -491t-199.5 -428z" />
    <glyph glyph-name="braceleft.case" horiz-adv-x="610" 
d="M2 709v49h6q78 2 115 58.5t37 174.5v406q0 256 209 256h92v-49h-90q-158 0 -158 -213v-402q0 -112 -35.5 -177t-101.5 -77v-4q66 -12 101.5 -77t35.5 -177v-401q0 -213 158 -213h90v-49h-92q-209 0 -209 256v405q0 119 -37 176t-115 58h-6z" />
    <glyph glyph-name="braceright.case" horiz-adv-x="610" 
d="M602 758h8v-49h-8q-78 -1 -114.5 -58t-36.5 -176v-405q0 -256 -209 -256h-92v49h90q157 0 157 213v401q0 112 36 177t102 77v4q-66 12 -102 77t-36 177v402q0 213 -157 213h-90v49h92q209 0 209 -256v-406q0 -119 36.5 -175.5t114.5 -57.5z" />
    <glyph glyph-name="bracketleft.case" horiz-adv-x="598" 
d="M428 -186h-281v1839h281v-49h-227v-1741h227v-49z" />
    <glyph glyph-name="bracketright.case" horiz-adv-x="602" 
d="M451 1653v-1839h-281v49h227v1741h-227v49h281z" />
    <glyph glyph-name="hyphen.case" horiz-adv-x="634" 
d="M551 596h-467v51h467v-51z" />
    <glyph glyph-name="uni00AD.case" horiz-adv-x="634" 
d="M551 596h-467v51h467v-51z" />
    <glyph glyph-name="endash.case" horiz-adv-x="1024" 
d="M963 596h-902v51h902v-51z" />
    <glyph glyph-name="emdash.case" horiz-adv-x="1576" 
d="M1516 596h-1455v51h1455v-51z" />
    <glyph glyph-name="guillemotleft.case" horiz-adv-x="882" 
d="M395 268l-28 -18l-240 350l240 350l28 -18l2 -6l-215 -326l215 -326zM713 268l-29 -18l-242 350l242 350l29 -18l2 -6l-217 -326l217 -326z" />
    <glyph glyph-name="guillemotright.case" horiz-adv-x="882" 
d="M440 600l-239 -350l-31 18l-2 6l217 326l-217 326l2 6l31 18zM756 600l-240 -350l-29 18l-2 6l215 326l-215 326l2 6l29 18z" />
    <glyph glyph-name="guilsinglleft.case" horiz-adv-x="567" 
d="M408 268l-31 -18l-240 350l240 350l31 -18l2 -6l-217 -326l217 -326z" />
    <glyph glyph-name="guilsinglright.case" horiz-adv-x="567" 
d="M430 600l-242 -350l-28 18l-2 6l217 326l-217 326l2 6l28 18z" />
    <glyph glyph-name="uni2206" horiz-adv-x="1282" 
d="M627 1456h24l623 -1456h-1266zM481 989l-389 -936h1098l-391 934l-158 369h-4q-18 -42 -73 -170.5t-83 -196.5z" />
    <glyph glyph-name="at.case" horiz-adv-x="1712" 
d="M893 -72q-228 0 -406 99t-277 277.5t-99 406.5q0 162 60 306.5t163 248t246.5 163.5t304.5 60q204 0 367.5 -84t255 -234.5t91.5 -339.5q0 -224 -106.5 -373t-267.5 -149q-90 0 -133.5 53t-30.5 154q-50 -101 -127 -154t-158 -53q-132 0 -207 84.5t-75 231.5
q0 207 112.5 349t276.5 142q97 0 161 -49.5t89 -144.5l28 153h51l-94 -469q-12 -52 -12 -129q0 -121 123 -121q88 0 161 62.5t115.5 171.5t42.5 239q0 174 -86 313.5t-237.5 218.5t-339.5 79q-197 0 -363 -97t-262 -265t-96 -369q0 -211 94 -378.5t260.5 -260.5t376.5 -93
q197 0 383 86l6 -4l23 -43q-183 -88 -414 -88zM784 354q81 0 155.5 66.5t119.5 176.5t45 230q0 110 -59.5 177t-159.5 67q-94 0 -172.5 -60t-124 -164.5t-45.5 -228.5q0 -123 64.5 -193.5t176.5 -70.5z" />
    <glyph glyph-name="caron.alt" horiz-adv-x="311" 
d="M248 1473l-146 -371l-36 16l131 369l6 2z" />
    <glyph glyph-name="uni0308.case" 
d="M-420 1645q-15 4 -20.5 20t0.5 33t21 23.5t30 0.5q32 -18 20 -55q-6 -17 -21 -23.5t-30 1.5zM-125 1645q-14 5 -20 20.5t0 32.5t21 23.5t30 0.5q32 -18 20 -55q-6 -17 -21 -23.5t-30 1.5z" />
    <glyph glyph-name="uni0307.case" 
d="M-111 1620q-22 0 -35.5 14.5t-13.5 38.5q0 23 13.5 37t35.5 14t36 -14t14 -37q0 -24 -14 -38.5t-36 -14.5z" />
    <glyph glyph-name="gravecomb.case" 
d="M-74 1565h-49l-207 266l4 8h56z" />
    <glyph glyph-name="acutecomb.case" 
d="M-276 1565h-50l197 274h55l6 -8z" />
    <glyph glyph-name="uni030B.case" 
d="M-461 1565h-49l197 274h55l4 -8zM-215 1565h-49l198 274h54l6 -8z" />
    <glyph glyph-name="uni0302.case" 
d="M-117 1565l-188 243l-191 -243h-43l-6 8l209 266h62l208 -266l-6 -8h-45z" />
    <glyph glyph-name="uni030C.case" 
d="M-289 1565h-61l-207 266l6 8h43l189 -244l186 244h45l6 -8z" />
    <glyph glyph-name="uni0306.case" 
d="M-328 1579q-115 0 -186.5 66t-93.5 188l6 6h39q44 -213 235 -213q192 0 236 213h39l6 -6q-20 -122 -93 -188t-188 -66z" />
    <glyph glyph-name="uni030A.case" 
d="M-258 1534q-81 0 -139 56.5t-58 138.5t58 138t139 56t139 -56t58 -138t-58 -138.5t-139 -56.5zM-258 1571q66 0 112 46.5t46 111.5t-46 111t-112 46t-112 -46t-46 -111t46 -111.5t112 -46.5z" />
    <glyph glyph-name="tildecomb.case" 
d="M-188 1624q51 0 84.5 42t42.5 114h-41l-4 -6q-16 -105 -82 -105q-28 0 -61.5 17.5t-60 38t-63 38t-69.5 17.5q-51 0 -84 -42.5t-41 -113.5h39l4 4q19 105 82 105q29 0 62.5 -17t59.5 -37.5t62 -37.5t70 -17z" />
    <glyph glyph-name="uni0304.case" 
d="M-61 1657h-486v47h486v-47z" />
    <glyph glyph-name="brevecombcy" 
d="M-328 1110q-115 0 -186.5 65.5t-93.5 186.5l6 8h39q41 -215 235 -215q195 0 236 215h39l6 -8q-20 -121 -93 -186.5t-188 -65.5z" />
    <glyph glyph-name="brevecombcy.case" 
d="M-328 1579q-115 0 -186.5 66t-93.5 188l6 6h39q44 -213 235 -213q192 0 236 213h39l6 -6q-20 -122 -93 -188t-188 -66z" />
    </font>
</defs>
</svg>
