<svg id="Calque_1" data-name="Calque 1" xmlns="http://www.w3.org/2000/svg" width="160" height="160" viewBox="0 0 147.89 147.89"><title>logo</title><path d="M387.28,189.89a57.16,57.16,0,0,1-1.46,9.63,61.79,61.79,0,0,1-3.07,9.37,69.54,69.54,0,0,1-30.18,33.22,72.13,72.13,0,0,1-32.2,9.24c-1,.05-1.9.06-2.86.06a65.33,65.33,0,0,1-9.2-.65c-7.55-1-14.82-3.64-22.93-8.14l-45.85-23.55V194.94l58,29.84a43.36,43.36,0,0,0,23.11,5.82,47.26,47.26,0,0,0,19.05-4.9c.85-.43,1.65-.85,2.35-1.25,13.28-7.47,22.1-20.61,23-34.29a33.83,33.83,0,0,0-1.53-12.66c-4.8-14.84-19.72-23.43-37.09-22.71a47.88,47.88,0,0,0-22.15,6.57l-16.25,9.22-20,11.43V126.64l39.66-23h40.62l-59.21,34v9l5-2.94a72.2,72.2,0,0,1,33.29-9.87,63.48,63.48,0,0,1,23.45,3.31c15.46,5.28,27.53,15.72,33.1,30.22a48,48,0,0,1,2.09,6.77,53.65,53.65,0,0,1,1.24,15.72Z" transform="translate(-239.52 -103.63)" fill="#ea5b0c"/><path d="M387.41,103.64V150.8c-6.56-10.21-15.69-16.82-27.84-22a67.74,67.74,0,0,0-26.17-5.68l34.26-19.5h19.75Z" transform="translate(-239.52 -103.63)" fill="#1d1d1b"/><polygon points="37.32 147.89 0 147.89 0 128.19 37.32 147.89" fill="#1d1d1b"/><path d="M356.54,251.51h30.87V222.32C381.15,236.41,369.69,247,356.54,251.51Z" transform="translate(-239.52 -103.63)" fill="#1d1d1b"/><polygon points="47.82 0.01 16.51 17.65 16.51 86.15 0 77.68 0 0.01 47.82 0.01" fill="#1d1d1b"/><path d="M351.93,181.42c-2.91-9-12.56-14.49-24.55-14a35.09,35.09,0,0,0-16.28,4.84l-.16.1-16.25,9.21L269.54,196l34.58,17.78A31.07,31.07,0,0,0,320.57,218a34.55,34.55,0,0,0,13.9-3.58c.55-.29,1.24-.64,1.75-.92,9.68-5.44,16-14.68,16.65-24.14a21.08,21.08,0,0,0-.95-7.91ZM335,191.84c0,.13,0,.26-.06.4-.5,3.27-3,6.22-6.43,7.89a12.55,12.55,0,0,1-1.64.68,14,14,0,0,1-3.62.72,11.38,11.38,0,0,1-4.83-.71,8.72,8.72,0,0,1-1.12-.51l-14.57-6.55,16.54-8.61a14.17,14.17,0,0,1,5.81-1.71c6-.35,10.43,3.41,9.93,8.4Z" transform="translate(-239.52 -103.63)" fill="#1d1d1b"/></svg>